<?xml version="1.0" encoding="UTF-8"?>
<svg width="44px" height="48px" viewBox="0 0 44 48" version="1.1" xmlns="http://www.w3.org/2000/svg" xmlns:xlink="http://www.w3.org/1999/xlink">
    <title>[Logo] Airbnb</title>
    <g id="Templates" stroke="none" stroke-width="1" fill="none" fill-rule="evenodd">
        <g id="maindemo" transform="translate(-1016.000000, -2123.000000)" fill="#E0565B" fill-rule="nonzero">
            <g id="Group-63" transform="translate(0.000000, 1966.000000)">
                <g id="Group-7" transform="translate(405.000000, 120.000000)">
                    <g id="Group-61" transform="translate(570.000000, 0.000000)">
                        <g id="[Logo]-Airbnb" transform="translate(41.000000, 37.000000)">
                            <path d="M40.9132178,38.8704912 C40.5812533,41.3693463 38.9223782,43.5317245 36.599574,44.492675 C35.4616132,44.9726702 34.2294141,45.1171488 32.9967416,44.9726702 C31.8118984,44.8286716 30.6265815,44.4441955 29.3943825,43.7242026 C27.687678,42.7622923 25.9809736,41.2733472 23.9901339,39.0629693 C27.1189344,35.1711682 29.0145888,31.6153638 29.7258735,28.4449954 C30.0578379,26.9550903 30.1051938,25.6096638 29.9631263,24.3602363 C29.7737029,23.1592883 29.3470268,22.0538595 28.6830978,21.092909 C27.2136461,18.9310106 24.7487745,17.6815831 21.9992943,17.6815831 C19.249814,17.6815831 16.7849424,18.9790101 15.3154906,21.092909 C14.6515617,22.0538595 14.2253591,23.1592883 14.0354622,24.3602363 C13.8460388,25.6096638 13.8933947,27.0030899 14.272715,28.4449954 C14.9835261,31.6153638 16.9270099,35.2191678 20.0084546,39.1104889 C18.0649709,41.3213468 16.3109104,42.8107718 14.6042059,43.7717222 C13.3720068,44.492675 12.1866901,44.8771511 11.0018469,45.0206697 C9.72181849,45.1651483 8.48914589,44.9726702 7.3990144,44.5406745 C5.07621032,43.5797241 3.41733516,41.4168657 3.0853707,38.9184907 C2.94330317,37.7175428 3.03801485,36.5165948 3.51204684,35.1711682 C3.65411437,34.690213 3.89136715,34.2106979 4.12814636,33.6337436 C4.46011082,32.8652714 4.83943111,32.0478396 5.21827785,31.2308877 L5.26610726,31.1353686 C8.53650173,23.9757603 12.0446226,16.6726332 15.6948109,9.56198437 L15.8368784,9.27302726 C16.2161987,8.55303445 16.5950455,7.78456215 16.9748393,7.06360935 C17.3536861,6.29465705 17.7803622,5.57370426 18.30175,4.9487505 C19.2971699,3.79532204 20.6245541,3.17084828 22.094006,3.17084828 C23.5634577,3.17084828 24.8908419,3.79532204 25.8862618,4.9487505 C26.4076496,5.57370426 26.8343257,6.29465705 27.2136461,7.06360935 C27.5929663,7.78456215 27.971813,8.55303445 28.3511334,9.27302726 L28.4936745,9.56198437 C32.0960334,16.7206328 35.6041543,24.0237598 38.8750223,31.1833681 L38.8750223,31.2308877 C39.2543425,31.99984 39.5858335,32.8652714 39.9651537,33.6337436 C40.2024066,34.2106979 40.4391857,34.690213 40.5812533,35.1711682 C40.9605737,36.4201158 41.1026411,37.6220236 40.9132178,38.8704912 L40.9132178,38.8704912 Z M21.9992943,36.6121137 C19.439711,33.3452666 17.7803622,30.2699372 17.2116185,27.6760431 C16.9748393,26.5706143 16.9270099,25.6096638 17.069551,24.7447126 C17.1642627,23.9757603 17.4488713,23.302807 17.827718,22.7258527 C18.7284262,21.4298657 20.2452338,20.6114738 21.9992943,20.6114738 C23.7533546,20.6114738 25.3175182,21.3809061 26.1708703,22.7258527 C26.5497172,23.302807 26.8343257,23.9757603 26.9290374,24.7447126 C27.071105,25.6096638 27.0237491,26.6186138 26.7869698,27.6760431 C26.2182262,30.2224176 24.5588776,33.297267 21.9992943,36.6121137 L21.9992943,36.6121137 Z M43.3780894,34.1137388 C43.1413101,33.5372645 42.9040574,32.9127908 42.6672781,32.3843161 C42.2879579,31.5198448 41.9086375,30.702413 41.5766732,29.9334607 L41.5293173,29.8859411 C38.2589228,22.6783333 34.7508019,15.3752062 31.0532578,8.16903829 L30.9111902,7.88008118 C30.53187,7.1591284 30.1525496,6.39017608 29.7737029,5.62170378 C29.2991973,4.75627243 28.8251653,3.84428155 28.0669983,2.9788502 C26.5497172,1.05694943 24.3694541,0 22.0466501,0 C19.6764901,0 17.5435831,1.05694943 15.978946,2.88333117 C15.2681348,3.74780252 14.7467469,4.66075338 14.272715,5.52618473 C13.8933947,6.29465705 13.5140743,7.06360935 13.1347541,7.78456215 L12.9926865,8.07207926 C9.34297173,15.2792072 5.78749509,22.5828141 2.51662704,29.789942 L2.4692712,29.8859411 C2.13730674,30.6544135 1.75798643,31.4708852 1.37866614,32.3363166 C1.14188693,32.8652714 0.904634156,33.4417456 0.667854942,34.0662193 C0.0512818721,35.8436415 -0.138141498,37.5255446 0.0986377148,39.2549675 C0.620499099,42.8587713 2.99065901,45.8861011 6.26152706,47.2310477 C7.49372609,47.7600023 8.77375451,48 10.1011388,48 C10.4804591,48 10.9544911,47.9520005 11.3338114,47.9035208 C12.8979749,47.7110429 14.5094942,47.1835281 16.0736576,46.2700972 C18.017615,45.1651483 19.8663871,43.5797241 21.9519384,41.2733472 C24.0374898,43.5797241 25.9336177,45.1651483 27.8297456,46.2700972 C29.3943825,47.1835281 31.0059019,47.7110429 32.5700653,47.9035208 C32.9493857,47.9520005 33.4234177,48 33.802738,48 C35.1301223,48 36.4570329,47.7600023 37.6423497,47.2310477 C40.9605737,45.8861011 43.2833777,42.8107718 43.8047654,39.2549675 C44.1840858,37.5730642 43.9941889,35.892121 43.3780894,34.1137388 L43.3780894,34.1137388 Z" id="Shape"></path>
                        </g>
                    </g>
                </g>
            </g>
        </g>
    </g>
</svg>