<?xml version="1.0" encoding="UTF-8"?>
<svg width="52px" height="48px" viewBox="0 0 52 48" version="1.1" xmlns="http://www.w3.org/2000/svg" xmlns:xlink="http://www.w3.org/1999/xlink">
    <title>dropbox-2</title>
    <g id="Templates" stroke="none" stroke-width="1" fill="none" fill-rule="evenodd">
        <g id="maindemo" transform="translate(-1220.000000, -2123.000000)" fill="#007EE5" fill-rule="nonzero">
            <g id="Group-63" transform="translate(0.000000, 1966.000000)">
                <g id="Group-7" transform="translate(405.000000, 120.000000)">
                    <g id="Group-61" transform="translate(570.000000, 0.000000)">
                        <g id="Group-54" transform="translate(208.000000, 0.000000)">
                            <g id="dropbox-2" transform="translate(37.000000, 37.000000)">
                                <path d="M15.0421187,-6.01595711e-05 L0,9.82135078 L10.4007476,18.1503231 L25.5678177,8.78468105 L15.0421187,-6.01595711e-05 Z M0,26.4798368 L15.0421187,36.3012478 L25.5678177,27.5154237 L10.4007476,18.1503832 L0,26.4798368 Z M25.5678177,27.5154237 L36.0935168,36.3012478 L51.1356355,26.4798368 L40.7348878,18.1503231 L25.5678177,27.5154237 Z" id="Shape"></path>
                                <path d="M51.1356355,9.82135078 L36.0935168,-6.01595711e-05 L25.5678177,8.78474121 L40.7348878,18.1503832 L51.1356355,9.82135078 Z M25.5986796,29.4058179 L15.0421187,38.165653 L10.5247365,35.2161496 L10.5247365,38.5224595 L25.5986796,47.5615553 L40.6726828,38.5224595 L40.6726828,35.2160894 L36.1553007,38.165653 L25.5986796,29.4058179 Z" id="Shape"></path>
                            </g>
                        </g>
                    </g>
                </g>
            </g>
        </g>
    </g>
</svg>