<svg width="29" height="45" viewBox="0 0 29 45" fill="none" xmlns="http://www.w3.org/2000/svg">
<path d="M1.14766 43.7566C10.3636 34.2414 19.5796 24.6664 28.8553 15.0914C28.8553 19.8789 28.8553 24.4271 28.8553 28.9752C28.8553 29.3342 28.6758 29.5138 28.3766 29.6335C19.041 34.7202 9.70532 39.8069 0.369688 44.8936C0.369688 44.8936 0.309844 44.8936 0.25 44.8936C0.25 34.5407 0.25 24.1877 0.25 13.8347C0.429531 13.715 0.549219 13.8945 0.668907 13.9544C3.36188 15.6899 5.99501 17.4253 8.68798 19.101C9.10689 19.3403 9.10689 19.5797 8.9872 19.9986L1.14766 43.7566Z" fill="#13224D"/>
<path d="M0.489287 0.25C9.46587 5.09735 18.3228 9.9447 27.2993 14.792C25.9229 15.8094 24.6064 16.7669 23.23 17.7244C21.7937 18.7417 20.2976 19.8189 18.8613 20.8363C18.4424 21.1355 18.1432 21.1355 17.7243 20.956C12.1588 18.263 6.53352 15.5102 0.968038 12.8172C0.668819 12.6975 0.429443 12.5778 0.429443 12.1589C0.489287 8.26907 0.489287 4.31938 0.489287 0.25Z" fill="#13224D"/>
</svg>
