<svg width="42" height="42" viewBox="0 0 42 42" fill="none" xmlns="http://www.w3.org/2000/svg">
<path fill-rule="evenodd" clip-rule="evenodd" d="M20.5809 0C31.4158 0 42.3563 8.40029 41.9911 20.58C41.6259 32.7597 31.5349 42 19.3215 42C7.10815 42 -0.316634 28.9653 0.0103741 18.06C0.337382 7.15472 9.74609 0 20.5809 0Z" fill="#00D48D"/>
<path fill-rule="evenodd" clip-rule="evenodd" d="M26.4561 19.5956C26.7496 19.6176 27.0445 19.5771 27.3213 19.4768C27.5981 19.3766 27.8505 19.2189 28.0619 19.014C28.4439 18.593 28.6438 18.0379 28.6178 17.4699C28.6334 17.1805 28.5904 16.8909 28.4914 16.6185C28.3923 16.3461 28.2392 16.0965 28.0413 15.8847C27.8314 15.6816 27.5818 15.5242 27.3081 15.4223C27.0343 15.3204 26.7425 15.2763 26.4509 15.2928H24.2274V19.6214L26.4561 19.5956ZM20.6864 12.251H26.6619C27.4998 12.2369 28.3333 12.3747 29.1222 12.6576C29.7819 12.8964 30.3848 13.2697 30.8927 13.7539C31.361 14.2118 31.7229 14.7671 31.953 15.3803C32.1877 16.0144 32.3062 16.6857 32.303 17.3619C32.3246 18.3332 32.0865 19.2927 31.6133 20.1412C31.1498 20.9365 30.4792 21.5912 29.6729 22.0353L33.25 28.5667H29.2405L26.2553 22.5705H24.2274V28.5667H20.6864V12.251ZM15.1431 21.6184C15.1421 21.3644 15.0933 21.113 14.999 20.8772C14.902 20.6179 14.7551 20.3801 14.5667 20.1772C14.362 19.9607 14.1173 19.7859 13.8461 19.6625C13.5227 19.5171 13.1712 19.4451 12.8167 19.4515C12.4523 19.446 12.0909 19.5179 11.7564 19.6625C11.4738 19.7844 11.217 19.9591 10.9998 20.1772C10.8037 20.3791 10.6482 20.6167 10.5418 20.8772C10.4404 21.1114 10.3862 21.3632 10.3822 21.6184H15.1431ZM18.1798 27.316C18.0511 27.3983 17.8607 27.5322 17.6033 27.7226C17.2902 27.9413 16.9557 28.1275 16.6048 28.2785C16.1311 28.4752 15.6422 28.6335 15.1431 28.752C14.5121 28.8977 13.8658 28.9669 13.2182 28.9579C12.3259 28.9732 11.4387 28.8195 10.6035 28.5049C9.87359 28.2255 9.20942 27.7979 8.65285 27.2491C8.10474 26.6989 7.68473 26.0346 7.42274 25.3036C7.13176 24.4986 6.98877 23.6477 7.00069 22.7919C6.99962 22.0045 7.13367 21.2229 7.397 20.4809C7.64949 19.7639 8.03935 19.1031 8.54476 18.5354C9.05543 17.9711 9.67759 17.519 10.3719 17.2075C11.1446 16.8583 11.9843 16.6826 12.8322 16.6928C13.6633 16.6836 14.4861 16.8594 15.2409 17.2075C15.9178 17.5249 16.5156 17.9891 16.9909 18.5662C17.4796 19.1754 17.8434 19.875 18.0614 20.625C18.3101 21.4863 18.4314 22.3793 18.4217 23.2757V23.8624H10.3719C10.3842 24.1752 10.4626 24.4818 10.6019 24.7621C10.7412 25.0424 10.9382 25.2901 11.18 25.4888C11.7808 25.996 12.5512 26.2571 13.3366 26.2197C14.0886 26.2496 14.8378 26.1107 15.5291 25.8131C15.9689 25.6149 16.3878 25.3735 16.7798 25.0925L18.1798 27.316Z" fill="white"/>
</svg>
