<?xml version="1.0" encoding="UTF-8"?>
<svg width="41px" height="48px" viewBox="0 0 41 48" version="1.1" xmlns="http://www.w3.org/2000/svg" xmlns:xlink="http://www.w3.org/1999/xlink">
    <title>evernote-icon</title>
    <g id="Templates" stroke="none" stroke-width="1" fill="none" fill-rule="evenodd">
        <g id="maindemo" transform="translate(-1225.000000, -2293.000000)">
            <g id="Group-63" transform="translate(0.000000, 1966.000000)">
                <g id="Group-7" transform="translate(405.000000, 120.000000)">
                    <g id="Group-61" transform="translate(570.000000, 0.000000)">
                        <g id="Group-17" transform="translate(208.000000, 170.000000)">
                            <g id="evernote-icon" transform="translate(42.000000, 37.000000)">
                                <path d="M30.596155,19.8711834 C28.6687964,19.803724 28.1252368,21.421688 27.9617098,22.7390872 C28.5724795,22.642063 29.1912394,22.6046843 29.8092474,22.6274792 C31.0231619,22.669862 32.136064,22.926278 33.0352861,23.3264424 C33.0278691,21.9613626 32.7297766,19.9450001 30.596155,19.8711834 L30.596155,19.8711834 Z" id="Path"></path>
                                <path d="M3.99740594,9.2652368 L8.49033765,9.2652368 C8.7464644,9.26465499 8.95400601,9.0572712 8.95478267,8.80114497 C8.95478267,8.79937901 8.90039139,4.95066612 8.90039139,3.88155958 L8.90039139,3.86849154 C8.90039139,2.99010768 9.08440345,2.22403828 9.40651286,1.58123223 L9.55944418,1.29338227 C9.53985394,1.29703803 9.52192543,1.30680598 9.50823161,1.32128429 L0.784435289,9.97197026 C0.768452535,9.98516799 0.757074425,10.0031009 0.751941797,10.0231828 C0.932421955,9.93382573 1.17930186,9.81126875 1.21391449,9.79608157 C1.97292009,9.45278076 2.89439315,9.2652368 3.99740594,9.2652368 L3.99740594,9.2652368 Z" id="Path" fill="#74BB44" fill-rule="nonzero"></path>
                                <path d="M38.9321485,8.32327871 C38.5754265,6.41463923 37.4399202,5.47374071 36.4135497,5.10359745 C35.307005,4.70343302 33.0614221,4.2887878 30.2415521,3.95678908 C27.9719523,3.68907096 25.3043072,3.71096874 23.6930538,3.76006217 C23.4998588,2.43559917 22.5709687,1.22556977 21.531177,0.806686268 C18.7628727,-0.307275417 14.4825615,-0.0381445345 13.3848465,0.269484073 C12.5114073,0.513891646 11.5450791,1.01365569 11.0078769,1.78396337 C10.6472698,2.29926778 10.4134579,2.95832057 10.411692,3.87979363 C10.411692,4.40110227 10.4261728,5.62914437 10.439594,6.72085507 C10.4523088,7.81503811 10.467496,8.79443435 10.467496,8.80149816 C10.4661334,9.77807703 9.67459278,10.5693016 8.69801345,10.5702743 L4.20755407,10.5702743 C3.25005562,10.5702743 2.51789247,10.7309759 1.95879249,10.9849196 C1.39898612,11.2392165 1.0023536,11.5818109 0.701082417,11.9872732 C0.101718759,12.7918403 -0.00247233094,13.7853641 -4.23928771e-05,14.7997262 C-4.23928771e-05,14.7997262 0.00847656323,15.6279571 0.208028989,17.2317935 C0.374381543,18.4721972 1.72003596,27.1401895 2.99823105,29.7764007 C3.49375681,30.8013585 3.82434278,31.2297781 4.7973816,31.6818615 C6.96667541,32.6107515 11.9212266,33.6441858 14.2441581,33.9401592 C16.5617918,34.2368389 18.0169351,34.8598663 18.8836637,33.0419967 C18.8864893,33.0363456 19.0577865,32.5906197 19.2923047,31.9315669 C20.0453061,29.6513714 20.1502036,27.6272387 20.1502036,26.1632656 C20.1502036,26.0138662 20.3688283,26.0075088 20.3688283,26.1632656 C20.3688283,27.1974063 20.1706886,30.8564561 22.9351078,31.8372651 C24.0268185,32.2236551 26.2897077,32.5690751 28.5907414,32.8389123 C30.6699717,33.0787284 32.1788,33.8960104 32.1788,39.2323602 C32.1788,42.4781775 31.497143,42.9228439 27.9331014,42.9228439 C25.0436529,42.9228439 23.9420528,42.997367 23.9420528,40.7033971 C23.9420528,38.8473829 25.7772288,39.0423439 27.1370108,39.0423439 C27.744851,39.0423439 27.3033634,38.5909669 27.3033634,37.4455713 C27.3033634,36.3058267 28.0168074,35.6478335 27.3422143,35.6315867 C22.640194,35.5016128 19.8729493,35.6259357 19.8729493,41.507611 C19.8729493,46.8460799 21.915801,47.8374846 28.5907414,47.8374846 C33.8232532,47.8374846 35.6665526,47.6665406 37.827723,40.9622854 C38.2554362,39.638882 39.2902833,35.600506 39.9150767,28.818549 C40.3102964,24.5315272 39.5414015,11.5892279 38.9321485,8.32327871 L38.9321485,8.32327871 Z M29.8099537,22.6274792 C29.1636158,22.6052282 28.5420012,22.6458451 27.9624161,22.7390872 C28.1259432,21.421688 28.6695028,19.8033708 30.5968614,19.8711834 C32.730483,19.9450001 33.0285754,21.9613626 33.0359924,23.3264424 C32.1367704,22.9259248 31.0231619,22.6702152 29.8099537,22.6274792 L29.8099537,22.6274792 Z" id="Shape" fill="#74BB44" fill-rule="nonzero"></path>
                            </g>
                        </g>
                    </g>
                </g>
            </g>
        </g>
    </g>
</svg>