<svg width="46" height="46" viewBox="0 0 46 46" fill="none" xmlns="http://www.w3.org/2000/svg">
<path d="M45.7499 23C45.7499 10.4355 35.5644 0.25 23 0.25C10.4355 0.25 0.25 10.4355 0.25 23C0.25 34.3551 8.56933 43.7669 19.4453 45.4736V29.5761H13.6689V23H19.4453V17.9879C19.4453 12.2861 22.8417 9.13672 28.0383 9.13672C30.5273 9.13672 33.1308 9.58104 33.1308 9.58104V15.1797H30.2621C27.436 15.1797 26.5547 16.9333 26.5547 18.7325V23H32.8642L31.8556 29.5761H26.5546V45.4736C37.4306 43.7669 45.7499 34.3551 45.7499 23Z" fill="#1877F2"/>
<path d="M31.8556 29.5761L32.8642 23H26.5546V18.7324C26.5546 16.9333 27.436 15.1797 30.2621 15.1797H33.1308V9.58104C33.1308 9.58104 30.5273 9.13672 28.0383 9.13672C22.8417 9.13672 19.4453 12.2861 19.4453 17.9879V23H13.6689V29.5761H19.4453V45.4736C20.6212 45.6579 21.8097 45.7503 23 45.7499C24.2093 45.7499 25.3964 45.6553 26.5546 45.4736V29.5761H31.8556Z" fill="white"/>
</svg>
