<?xml version="1.0" encoding="UTF-8"?>
<svg width="33px" height="48px" viewBox="0 0 33 48" version="1.1" xmlns="http://www.w3.org/2000/svg" xmlns:xlink="http://www.w3.org/1999/xlink">
    <title>figma-1 (4)</title>
    <g id="Templates" stroke="none" stroke-width="1" fill="none" fill-rule="evenodd">
        <g id="maindemo" transform="translate(-1436.000000, -2123.000000)" fill-rule="nonzero">
            <g id="Group-63" transform="translate(0.000000, 1966.000000)">
                <g id="Group-7" transform="translate(405.000000, 120.000000)">
                    <g id="Group-61" transform="translate(570.000000, 0.000000)">
                        <g id="Group-55" transform="translate(415.000000, 0.000000)">
                            <g id="figma-1-(4)" transform="translate(46.000000, 37.000000)">
                                <path d="M7.87042623,47.2225574 C12.2149015,47.2225574 15.7408525,43.6966064 15.7408525,39.3521311 L15.7408525,31.4817049 L7.87042623,31.4817049 C3.52595095,31.4817049 0,35.0076559 0,39.3521311 C0,43.6966064 3.52595095,47.2225574 7.87042623,47.2225574 Z" id="path0_fill" fill="#0ACF83"></path>
                                <path d="M0,23.6112787 C0,19.2668034 3.52595095,15.7408525 7.87042623,15.7408525 L15.7408525,15.7408525 L15.7408525,31.4817049 L7.87042623,31.4817049 C3.52595095,31.4817049 0,27.955754 0,23.6112787 Z" id="path1_fill" fill="#A259FF"></path>
                                <path d="M0,7.87042623 C0,3.52595095 3.52595095,0 7.87042623,0 L15.7408525,0 L15.7408525,15.7408525 L7.87042623,15.7408525 C3.52595095,15.7408525 0,12.2149015 0,7.87042623 Z" id="path1_fill_1_" fill="#F24E1E"></path>
                                <path d="M15.7408525,0 L23.6112787,0 C27.955754,0 31.4817049,3.52595095 31.4817049,7.87042623 C31.4817049,12.2149015 27.955754,15.7408525 23.6112787,15.7408525 L15.7408525,15.7408525 L15.7408525,0 Z" id="path2_fill" fill="#FF7262"></path>
                                <path d="M31.4817049,23.6112787 C31.4817049,27.955754 27.955754,31.4817049 23.6112787,31.4817049 C19.2668034,31.4817049 15.7408525,27.955754 15.7408525,23.6112787 C15.7408525,19.2668034 19.2668034,15.7408525 23.6112787,15.7408525 C27.955754,15.7408525 31.4817049,19.2668034 31.4817049,23.6112787 Z" id="path3_fill" fill="#1ABCFE"></path>
                            </g>
                        </g>
                    </g>
                </g>
            </g>
        </g>
    </g>
</svg>