<svg width="38" height="42" viewBox="0 0 38 42" fill="none" xmlns="http://www.w3.org/2000/svg">
<path d="M27.0144 5.01136V36.5114C27.0144 40.036 29.4706 42 32.0763 42C34.4867 42 37.1381 40.3295 37.1381 36.5114V5.25C37.1381 2.01886 34.7277 0 32.0763 0C29.4248 0 27.0144 2.22648 27.0144 5.01136Z" fill="#F9AB00"/>
<path d="M13.7576 21.0001V36.5115C13.7576 40.0362 16.2138 42.0001 18.8194 42.0001C21.2299 42.0001 23.8813 40.3297 23.8813 36.5115V21.2388C23.8813 18.0076 21.4709 15.9888 18.8194 15.9888C16.168 15.9888 13.7576 18.2152 13.7576 21.0001Z" fill="#E37400"/>
<path d="M5.56187 41.9998C8.35746 41.9998 10.6237 39.7561 10.6237 36.9884C10.6237 34.2207 8.35746 31.9771 5.56187 31.9771C2.76628 31.9771 0.5 34.2207 0.5 36.9884C0.5 39.7561 2.76628 41.9998 5.56187 41.9998Z" fill="#E37400"/>
</svg>
