<?xml version="1.0" encoding="utf-8"?>
<!-- Generator: Adobe Illustrator 22.1.0, SVG Export Plug-In . SVG Version: 6.00 Build 0)  -->
<svg version="1.1" id="Layer_1" xmlns="http://www.w3.org/2000/svg" xmlns:xlink="http://www.w3.org/1999/xlink" x="0px" y="0px"
	 viewBox="0 0 2454.3 2454.3" style="enable-background:new 0 0 2454.3 2454.3;" xml:space="preserve">
<style type="text/css">
	.st0{fill:#FBBC04;}
	.st1{fill:#34A853;}
	.st2{fill:#3B80EF;}
</style>
<g>
	<path class="st0" d="M2385.8,1385L1385,2385.8c-91.3,91.3-239.4,91.3-330.7,0c-91.4-91.3-91.3-239.4,0-330.7l1000.9-1000.9
		c91.3-91.3,239.4-91.3,330.7,0C2477.2,1145.6,2477.2,1293.6,2385.8,1385L2385.8,1385z"/>
	
		<ellipse transform="matrix(0.7071 -0.7071 0.7071 0.7071 -1212.9008 1512.7477)" class="st1" cx="1219.6" cy="2220.5" rx="233.9" ry="233.9"/>
	<path class="st0" d="M1562.3,561.4l-500.5,500.4l330.7,330.7L1893,892.1c91.3-91.3,91.3-239.4,0-330.7
		C1801.6,470,1653.6,470,1562.3,561.4L1562.3,561.4z"/>
	<path class="st2" d="M892.1,1893l500.4-500.4l-330.7-330.7l-500.4,500.4c-91.3,91.3-91.3,239.4,0,330.7
		C652.7,1984.3,800.8,1984.3,892.1,1893L892.1,1893z"/>
	
		<ellipse transform="matrix(0.7071 -0.7071 0.7071 0.7071 -507.2274 1227.6238)" class="st1" cx="1228.3" cy="1226.1" rx="233.9" ry="233.9"/>
	<path class="st2" d="M1400.1,399.2L399.2,1400.1c-91.3,91.3-239.4,91.3-330.7,0c-91.3-91.3-91.3-239.4,0-330.7L1069.4,68.5
		c91.3-91.3,239.4-91.3,330.7,0C1491.4,159.8,1491.4,307.9,1400.1,399.2L1400.1,399.2z"/>
	<circle class="st1" cx="1234.7" cy="233.9" r="233.9"/>
</g>
</svg>
