<svg width="42" height="42" viewBox="0 0 42 42" fill="none" xmlns="http://www.w3.org/2000/svg">
<g clip-path="url(#clip0)">
<path d="M41.9777 21.3928C41.9777 19.6721 41.8348 18.4164 41.5256 17.1143H21.4182V24.8807H33.2208C32.9829 26.8108 31.698 29.7174 28.8424 31.6705L28.8024 31.9306L35.16 36.7434L35.6004 36.7863C39.6456 33.1356 41.9777 27.7641 41.9777 21.3928Z" fill="#4285F4"/>
<path d="M21.4186 41.8559C27.2009 41.8559 32.0552 39.9955 35.6009 36.7866L28.8428 31.6707C27.0344 32.9032 24.6071 33.7636 21.4186 33.7636C15.7552 33.7636 10.9484 30.1129 9.23498 25.0669L8.98382 25.0877L2.37307 30.0872L2.28662 30.3221C5.80837 37.1585 13.0423 41.8559 21.4186 41.8559Z" fill="#34A853"/>
<path d="M9.23485 25.0669C8.78274 23.7647 8.52108 22.3694 8.52108 20.9278C8.52108 19.486 8.78274 18.0909 9.21106 16.7887L9.19908 16.5114L2.50553 11.4316L2.28653 11.5334C0.835057 14.3704 0.00219727 17.5561 0.00219727 20.9278C0.00219727 24.2995 0.835057 27.4851 2.28653 30.322L9.23485 25.0669Z" fill="#FBBC05"/>
<path d="M21.4184 8.09203C25.4399 8.09203 28.1525 9.7895 29.6993 11.208L35.7434 5.44123C32.0314 2.06954 27.2007 0 21.4184 0C13.0423 0 5.80835 4.69709 2.28662 11.5335L9.21115 16.7887C10.9484 11.7428 15.7551 8.09203 21.4184 8.09203Z" fill="#EB4335"/>
</g>
<defs>
<clipPath id="clip0">
<rect width="42" height="42" fill="white"/>
</clipPath>
</defs>
</svg>
