<svg width="40" height="41" viewBox="0 0 40 41" fill="none" xmlns="http://www.w3.org/2000/svg">
<path d="M30.3113 13.2527V8.45959C30.9456 8.16357 31.4826 7.69373 31.8599 7.10478C32.2372 6.51582 32.4392 5.83198 32.4424 5.13283V5.02275C32.4424 2.9843 30.7876 1.33179 28.7462 1.33179H28.636C27.6557 1.33179 26.7156 1.72066 26.0224 2.41285C25.3292 3.10504 24.9398 4.04385 24.9398 5.02275V5.13283C24.9431 5.83198 25.1451 6.51582 25.5224 7.10478C25.8997 7.69373 26.4367 8.16357 27.071 8.45959V13.2527C25.248 13.5314 23.5311 14.2862 22.0942 15.4406L8.93031 5.20214C9.02421 4.86376 9.07321 4.51586 9.07865 4.1666C9.08027 3.34403 8.83754 2.53945 8.38118 1.85464C7.92482 1.16983 7.27533 0.635564 6.51486 0.319411C5.7544 0.00325869 4.9171 -0.0805733 4.10892 0.0785194C3.30073 0.237612 2.55794 0.632482 1.97452 1.21318C1.3911 1.79388 0.993242 2.53432 0.831283 3.34085C0.669324 4.14737 0.750545 4.98374 1.06466 5.74417C1.37877 6.50459 1.91166 7.15491 2.59594 7.61286C3.28022 8.07081 4.08514 8.31582 4.90888 8.3169C5.62954 8.31351 6.3367 8.12139 6.95975 7.75972L19.9222 17.8324C18.7577 19.5891 18.1502 21.6554 18.1789 23.7619C18.2075 25.8684 18.871 27.9174 20.0828 29.6419L16.1403 33.5802C15.8216 33.4784 15.4896 33.4244 15.155 33.4198C14.4789 33.4203 13.818 33.621 13.256 33.9965C12.6941 34.372 12.2561 34.9053 11.9976 35.5293C11.7391 36.1532 11.6716 36.8396 11.8037 37.5018C11.9357 38.164 12.2614 38.7723 12.7395 39.2497C13.2176 39.7272 13.8267 40.0524 14.4899 40.1842C15.153 40.3161 15.8404 40.2487 16.4652 39.9906C17.09 39.7324 17.6242 39.2951 18.0002 38.7339C18.3762 38.1727 18.5771 37.5128 18.5777 36.8376C18.5733 36.5035 18.5192 36.1719 18.4171 35.8537L22.3174 31.9576C23.5893 32.9353 25.0684 33.6094 26.6414 33.9282C28.2145 34.247 29.8397 34.202 31.3927 33.7966C32.9456 33.3913 34.3851 32.6364 35.6007 31.5897C36.8163 30.543 37.7759 29.2324 38.406 27.7581C39.036 26.2839 39.3198 24.6852 39.2355 23.0846C39.1512 21.484 38.7012 19.9238 37.9199 18.5237C37.1385 17.1235 36.0466 15.9206 34.7278 15.0069C33.409 14.0933 31.8982 13.4932 30.3113 13.2527ZM28.6945 29.0167C27.9737 29.0366 27.2562 28.9119 26.5845 28.6501C25.9127 28.3883 25.3003 27.9947 24.7835 27.4926C24.2666 26.9905 23.8558 26.39 23.5752 25.7267C23.2947 25.0633 23.1502 24.3505 23.1502 23.6305C23.1502 22.9104 23.2947 22.1976 23.5752 21.5343C23.8558 20.8709 24.2666 20.2704 24.7835 19.7683C25.3003 19.2662 25.9127 18.8726 26.5845 18.6108C27.2562 18.349 27.9737 18.2244 28.6945 18.2442C30.0916 18.293 31.4151 18.8814 32.3864 19.8854C33.3577 20.8893 33.9009 22.2305 33.9016 23.6265C33.9023 25.0224 33.3605 26.3642 32.3902 27.3691C31.4199 28.3741 30.097 28.9638 28.7 29.014" fill="#FF7A59"/>
</svg>
