<svg width="46" height="46" viewBox="0 0 46 46" fill="none" xmlns="http://www.w3.org/2000/svg">
<path d="M37.8753 10.8569C37.8753 9.34468 36.6497 8.12367 35.1432 8.12367C33.6366 8.12367 32.4099 9.34468 32.4099 10.8569C32.4099 12.3635 33.6366 13.5845 35.1432 13.5845C36.6497 13.5845 37.8753 12.3635 37.8753 10.8569Z" fill="url(#paint0_linear)"/>
<path d="M41.5158 32.1918C41.4146 34.4101 41.0435 35.6154 40.7355 36.4159C40.3217 37.4773 39.8282 38.2362 39.0277 39.0322C38.2362 39.8282 37.4772 40.3206 36.4159 40.7299C35.6154 41.0425 34.4056 41.4146 32.1874 41.5203C29.7892 41.626 29.0786 41.6485 22.9972 41.6485C16.9214 41.6485 16.2051 41.626 13.807 41.5203C11.5888 41.4146 10.3846 41.0425 9.58405 40.7299C8.5171 40.3206 7.76383 39.8282 6.96782 39.0322C6.16615 38.2362 5.67261 37.4773 5.26448 36.4159C4.95636 35.6154 4.57977 34.4101 4.48415 32.1918C4.36727 29.7937 4.34586 29.0719 4.34586 23.0028C4.34586 16.9214 4.36727 16.2052 4.48415 13.807C4.57977 11.5888 4.95636 10.3846 5.26448 9.57731C5.67261 8.51711 6.16615 7.76266 6.96782 6.96665C7.76383 6.17181 8.5171 5.67818 9.58405 5.26449C10.3846 4.95081 11.5888 4.58425 13.807 4.4786C16.2051 4.37285 16.9214 4.34587 22.9972 4.34587C29.0786 4.34587 29.7892 4.37285 32.1874 4.4786C34.4056 4.58425 35.6154 4.95081 36.4159 5.26449C37.4772 5.67818 38.2362 6.17181 39.0277 6.96665C39.8282 7.76266 40.3217 8.51711 40.7355 9.57731C41.0435 10.3846 41.4146 11.5888 41.5158 13.807C41.6271 16.2052 41.654 16.9214 41.654 23.0028C41.654 29.0719 41.6271 29.7937 41.5158 32.1918ZM45.6117 13.6204C45.5004 11.1963 45.1181 9.54021 44.5503 8.09777C43.9724 6.60128 43.1978 5.33305 41.9295 4.06482C40.667 2.80224 39.3987 2.02756 37.9022 1.44294C36.4541 0.880756 34.8036 0.493961 32.3784 0.388302C29.9533 0.271347 29.1787 0.250011 22.9972 0.250011C16.8213 0.250011 16.0411 0.271347 13.6159 0.388302C11.1963 0.493961 9.54694 0.880756 8.09211 1.44294C6.60126 2.02756 5.33303 2.80224 4.07046 4.06482C2.80223 5.33305 2.02754 6.60128 1.44402 8.09777C0.881838 9.54021 0.499598 11.1963 0.382641 13.6204C0.276984 16.0455 0.25 16.8213 0.25 23.0028C0.25 29.1787 0.276984 29.9533 0.382641 32.3784C0.499598 34.798 0.881838 36.453 1.44402 37.9022C2.02754 39.3931 2.80223 40.667 4.07046 41.9295C5.33303 43.1921 6.60126 43.9725 8.09211 44.556C9.54694 45.1181 11.1963 45.5004 13.6159 45.6117C16.0411 45.723 16.8213 45.75 22.9972 45.75C29.1787 45.75 29.9533 45.723 32.3784 45.6117C34.8036 45.5004 36.4541 45.1181 37.9022 44.556C39.3987 43.9725 40.667 43.1921 41.9295 41.9295C43.1978 40.667 43.9724 39.3931 44.5503 37.9022C45.1181 36.453 45.5004 34.798 45.6117 32.3784C45.723 29.9533 45.75 29.1787 45.75 23.0028C45.75 16.8213 45.723 16.0455 45.6117 13.6204Z" fill="url(#paint1_linear)"/>
<path d="M22.9971 30.5796C18.8113 30.5796 15.4147 27.1886 15.4147 23.0028C15.4147 18.8102 18.8113 15.4149 22.9971 15.4149C27.1841 15.4149 30.5851 18.8102 30.5851 23.0028C30.5851 27.1886 27.1841 30.5796 22.9971 30.5796ZM22.9971 11.3134C16.5446 11.3134 11.3188 16.5504 11.3188 23.0028C11.3188 29.4497 16.5446 34.6812 22.9971 34.6812C29.4495 34.6812 34.681 29.4497 34.681 23.0028C34.681 16.5504 29.4495 11.3134 22.9971 11.3134Z" fill="url(#paint2_linear)"/>
<defs>
<linearGradient id="paint0_linear" x1="0.660378" y1="45.2796" x2="41.9603" y2="3.97981" gradientUnits="userSpaceOnUse">
<stop stop-color="#FFD521"/>
<stop offset="0.05" stop-color="#FFD521"/>
<stop offset="0.501119" stop-color="#F50000"/>
<stop offset="0.95" stop-color="#B900B4"/>
<stop offset="0.950079" stop-color="#B900B4"/>
<stop offset="1" stop-color="#B900B4"/>
</linearGradient>
<linearGradient id="paint1_linear" x1="0.660404" y1="45.3362" x2="41.9942" y2="4.00242" gradientUnits="userSpaceOnUse">
<stop stop-color="#FFD521"/>
<stop offset="0.05" stop-color="#FFD521"/>
<stop offset="0.501119" stop-color="#F50000"/>
<stop offset="0.95" stop-color="#B900B4"/>
<stop offset="0.950079" stop-color="#B900B4"/>
<stop offset="1" stop-color="#B900B4"/>
</linearGradient>
<linearGradient id="paint2_linear" x1="0.671043" y1="45.3374" x2="41.9949" y2="4.01353" gradientUnits="userSpaceOnUse">
<stop stop-color="#FFD521"/>
<stop offset="0.05" stop-color="#FFD521"/>
<stop offset="0.501119" stop-color="#F50000"/>
<stop offset="0.95" stop-color="#B900B4"/>
<stop offset="0.950079" stop-color="#B900B4"/>
<stop offset="1" stop-color="#B900B4"/>
</linearGradient>
</defs>
</svg>
