<svg width="43" height="42" viewBox="0 0 43 42" fill="none" xmlns="http://www.w3.org/2000/svg">
<path d="M35.7872 35.7868H29.5639V26.0409C29.5639 23.7169 29.5224 20.7251 26.3272 20.7251C23.0858 20.7251 22.5899 23.2573 22.5899 25.8717V35.7862H16.3666V15.7446H22.341V18.4835H22.4246C23.0225 17.4612 23.8865 16.6202 24.9245 16.0501C25.9626 15.48 27.1358 15.2021 28.3193 15.2461C34.6268 15.2461 35.7898 19.3949 35.7898 24.7923L35.7872 35.7868ZM9.34467 13.005C8.63039 13.0051 7.93212 12.7935 7.33815 12.3967C6.74417 12 6.28118 11.4361 6.00772 10.7762C5.73426 10.1163 5.66261 9.39021 5.80183 8.68963C5.94106 7.98905 6.2849 7.34549 6.78988 6.84033C7.29486 6.33517 7.9383 5.9911 8.63883 5.85162C9.33936 5.71215 10.0655 5.78353 10.7255 6.05676C11.3854 6.32998 11.9495 6.79277 12.3465 7.3866C12.7434 7.98043 12.9554 8.67863 12.9555 9.39291C12.9556 9.86717 12.8622 10.3368 12.6808 10.775C12.4994 11.2132 12.2335 11.6114 11.8982 11.9468C11.5629 12.2822 11.1648 12.5483 10.7267 12.7299C10.2885 12.9114 9.81894 13.0049 9.34467 13.005ZM12.4563 35.7868H6.22654V15.7446H12.4563V35.7868ZM38.8898 0.00286048H3.09933C2.28699 -0.0063068 1.50424 0.30741 0.923084 0.875073C0.341928 1.44274 0.00991419 2.2179 0 3.03024V38.9691C0.00957487 39.7819 0.341376 40.5576 0.922512 41.1258C1.50365 41.6941 2.28659 42.0084 3.09933 41.9998H38.8898C39.7042 42.01 40.4893 41.6965 41.0727 41.1283C41.6561 40.5601 41.9902 39.7835 42.0014 38.9691V3.02764C41.9898 2.2137 41.6556 1.43765 41.0721 0.870003C40.4887 0.302353 39.7037 -0.0104675 38.8898 0.000267438" fill="#0A66C2"/>
</svg>
