<svg width="56" height="40" viewBox="0 0 56 40" fill="none" xmlns="http://www.w3.org/2000/svg">
<path d="M23.292 5.0378C25.102 3.16324 27.6229 1.97816 30.4025 1.97816C34.1085 1.97816 37.319 4.04665 39.0427 7.10629C40.5294 6.43834 42.1885 6.07205 43.9338 6.07205C50.6133 6.07205 56 11.5234 56 18.246C56 24.9685 50.5918 30.4199 43.9338 30.4199C43.115 30.4199 42.3178 30.3337 41.5637 30.1829C40.0554 32.8762 37.1681 34.7077 33.8499 34.7077C32.471 34.7077 31.1566 34.3845 29.9931 33.8243C28.4633 37.4226 24.8865 39.9651 20.728 39.9651C16.3971 39.9651 12.691 37.2286 11.2689 33.3718C10.6441 33.5011 9.99769 33.5657 9.35129 33.5657C4.18007 33.5657 0 29.3425 0 24.1067C0 20.6161 1.87457 17.5565 4.67564 15.9189C4.09388 14.6046 3.77068 13.1394 3.77068 11.588C3.74913 5.61957 8.64025 0.75 14.6302 0.75C18.1639 0.75 21.3097 2.43065 23.292 5.0378Z" fill="#00A1E0"/>
<path d="M8.10169 21.09L8.33871 20.4651C8.3818 20.3574 8.44644 20.4005 8.48953 20.422C8.55417 20.4651 8.59727 20.4866 8.68345 20.5513C9.3514 20.9822 9.97626 20.9822 10.1702 20.9822C10.6658 20.9822 10.989 20.7237 10.989 20.3574V20.3358C10.989 19.948 10.5149 19.7971 9.95471 19.6248L9.82543 19.5817C9.07129 19.3662 8.25252 19.043 8.25252 18.095V18.0734C8.25252 17.1684 8.98511 16.522 10.0409 16.522H10.1486C10.7735 16.522 11.3553 16.6944 11.7862 16.9745C11.8293 16.9961 11.8724 17.0392 11.8508 17.1038C11.8293 17.1684 11.6354 17.664 11.6138 17.7287C11.5707 17.8364 11.463 17.7718 11.463 17.7718C11.0751 17.5563 10.4934 17.4055 9.99781 17.4055C9.54532 17.4055 9.26522 17.6425 9.26522 17.9657V17.9872C9.26522 18.3535 9.76079 18.5259 10.321 18.6983L10.4287 18.7198C11.1829 18.9568 11.9801 19.28 11.9801 20.2065V20.2281C11.9801 21.2192 11.2691 21.8225 10.1271 21.8225C9.56687 21.8225 9.0282 21.7364 8.44644 21.4347C8.33871 21.3701 8.23097 21.327 8.12324 21.2408C8.10169 21.1977 8.0586 21.1761 8.10169 21.09ZM24.9082 21.09L25.1452 20.4651C25.1883 20.3574 25.2745 20.4005 25.296 20.422C25.3606 20.4651 25.4037 20.4866 25.4899 20.5513C26.1579 20.9822 26.7827 20.9822 26.9766 20.9822C27.4722 20.9822 27.7954 20.7237 27.7954 20.3574V20.3358C27.7954 19.948 27.3214 19.7971 26.7612 19.6248L26.6319 19.5817C25.8778 19.3662 25.059 19.043 25.059 18.095V18.0734C25.059 17.1684 25.7916 16.522 26.8474 16.522H26.9551C27.58 16.522 28.1617 16.6944 28.5926 16.9745C28.6357 16.9961 28.6788 17.0392 28.6573 17.1038C28.6357 17.1684 28.4418 17.664 28.4203 17.7287C28.3772 17.8364 28.2694 17.7718 28.2694 17.7718C27.8816 17.5563 27.2998 17.4055 26.8043 17.4055C26.3518 17.4055 26.0717 17.6425 26.0717 17.9657V17.9872C26.0717 18.3535 26.5673 18.5259 27.1275 18.6983L27.2352 18.7198C27.9893 18.9568 28.7866 19.28 28.7866 20.2065V20.2281C28.7866 21.2192 28.0755 21.8225 26.9335 21.8225C26.3733 21.8225 25.8347 21.7364 25.2529 21.4347C25.1452 21.3701 25.0374 21.327 24.9297 21.2408C24.9297 21.1977 24.8866 21.1761 24.9082 21.09ZM37.3622 18.138C37.4484 18.4612 37.513 18.806 37.513 19.1723C37.513 19.5386 37.4699 19.8833 37.3622 20.2065C37.276 20.5297 37.1252 20.8098 36.9312 21.0469C36.7373 21.2839 36.4788 21.4778 36.1987 21.6071C35.897 21.7364 35.5522 21.801 35.1644 21.801C34.7766 21.801 34.4318 21.7364 34.1302 21.6071C33.8285 21.4778 33.5915 21.2839 33.3976 21.0469C33.2037 20.8098 33.0528 20.5297 32.9666 20.2065C32.8805 19.8833 32.8158 19.5386 32.8158 19.1723C32.8158 18.806 32.8589 18.4612 32.9666 18.138C33.0528 17.8148 33.2037 17.5347 33.3976 17.2977C33.5915 17.0607 33.8501 16.8668 34.1302 16.7375C34.4318 16.6082 34.7766 16.522 35.1644 16.522C35.5522 16.522 35.897 16.5867 36.1987 16.7375C36.5003 16.8668 36.7373 17.0607 36.9312 17.2977C37.1252 17.5347 37.276 17.8148 37.3622 18.138ZM36.3926 19.1507C36.3926 18.5905 36.2848 18.1596 36.0909 17.8579C35.897 17.5563 35.5738 17.4055 35.1644 17.4055C34.7335 17.4055 34.4318 17.5563 34.2379 17.8579C34.044 18.1596 33.9362 18.5905 33.9362 19.1507C33.9362 19.711 34.044 20.1419 34.2379 20.4651C34.4318 20.7667 34.7335 20.9176 35.1644 20.9176C35.5953 20.9176 35.897 20.7667 36.0909 20.4651C36.3064 20.1634 36.3926 19.711 36.3926 19.1507ZM45.2483 20.7667L45.4853 21.4132C45.5069 21.4993 45.4422 21.5209 45.4422 21.5209C45.0759 21.6717 44.5803 21.7579 44.0848 21.7579C43.2444 21.7579 42.6196 21.5209 42.1887 21.0469C41.7577 20.5728 41.5422 19.9264 41.5422 19.1292C41.5422 18.7629 41.5853 18.4182 41.6931 18.095C41.8008 17.7718 41.9516 17.4916 42.1671 17.2546C42.3826 17.0176 42.6411 16.8237 42.9428 16.6944C43.2444 16.5651 43.6107 16.4789 44.0201 16.4789C44.3002 16.4789 44.5372 16.5005 44.7312 16.522C44.9466 16.5651 45.2483 16.6298 45.3776 16.6944C45.3991 16.6944 45.4638 16.7375 45.4422 16.8021C45.356 17.0607 45.2914 17.2331 45.2052 17.4485C45.1621 17.5563 45.0975 17.5132 45.0975 17.5132C44.7743 17.4055 44.4726 17.3624 44.0848 17.3624C43.6107 17.3624 43.2444 17.5132 43.029 17.8364C42.792 18.138 42.6627 18.5474 42.6627 19.1076C42.6627 19.711 42.8135 20.1419 43.0721 20.422C43.3306 20.7021 43.6969 20.8314 44.171 20.8314C44.3649 20.8314 44.5372 20.8098 44.6881 20.7883C44.8389 20.7667 44.9897 20.7237 45.1406 20.659C45.119 20.7021 45.2052 20.6806 45.2483 20.7667ZM50.1394 17.9441C50.3549 18.6767 50.2471 19.3016 50.2256 19.3447C50.2256 19.4309 50.1394 19.4308 50.1394 19.4308H46.8858C46.9074 19.9264 47.0151 20.2712 47.2737 20.5082C47.5107 20.7452 47.877 20.896 48.3941 20.896C49.1698 20.896 49.493 20.7452 49.73 20.659C49.73 20.659 49.8162 20.6375 49.8593 20.7237L50.0748 21.327C50.1179 21.4347 50.0748 21.4562 50.0532 21.4778C49.8593 21.5855 49.3637 21.801 48.4157 21.801C47.9632 21.801 47.5538 21.7364 47.2306 21.6071C46.9074 21.4778 46.6273 21.3054 46.4118 21.0684C46.1963 20.8314 46.0455 20.5513 45.9378 20.2496C45.8301 19.9264 45.787 19.5817 45.787 19.2154C45.787 18.8491 45.8301 18.5043 45.9378 18.1811C46.024 17.8579 46.1748 17.5778 46.3687 17.3408C46.5626 17.1038 46.8212 16.9099 47.1229 16.7806C47.4245 16.6298 47.7908 16.5651 48.2002 16.5651C48.5449 16.5651 48.8681 16.6298 49.1267 16.7591C49.3206 16.8452 49.5361 16.9961 49.7516 17.2331C49.8593 17.3193 50.0532 17.6425 50.1394 17.9441ZM46.9074 18.6336H49.2129C49.1913 18.332 49.1267 18.0734 48.9974 17.8579C48.8035 17.5563 48.5234 17.3839 48.0925 17.3839C47.6615 17.3839 47.3599 17.5563 47.1659 17.8579C47.0367 18.0519 46.972 18.3104 46.9074 18.6336ZM24.1325 17.9441C24.3479 18.6767 24.2402 19.3016 24.2402 19.3447C24.2402 19.4309 24.154 19.4308 24.154 19.4308H20.9005C20.922 19.9264 21.0297 20.2712 21.2883 20.5082C21.5253 20.7452 21.8916 20.896 22.4087 20.896C23.1844 20.896 23.5076 20.7452 23.7446 20.659C23.7446 20.659 23.8308 20.6375 23.8739 20.7237L24.0894 21.327C24.1325 21.4347 24.0894 21.4562 24.0678 21.4778C23.8739 21.5855 23.3783 21.801 22.4303 21.801C21.9778 21.801 21.5684 21.7364 21.2452 21.6071C20.922 21.4778 20.6419 21.3054 20.4264 21.0684C20.211 20.8314 20.0601 20.5513 19.9524 20.2496C19.8447 19.9264 19.8016 19.5817 19.8016 19.2154C19.8016 18.8491 19.8447 18.5043 19.9524 18.1811C20.0386 17.8579 20.1894 17.5778 20.3833 17.3408C20.5773 17.1038 20.8358 16.9099 21.1375 16.7806C21.4391 16.6298 21.8054 16.5651 22.2148 16.5651C22.5596 16.5651 22.8828 16.6298 23.1413 16.7591C23.3352 16.8452 23.5507 16.9961 23.7662 17.2331C23.8524 17.3193 24.0678 17.6425 24.1325 17.9441ZM20.9005 18.6336H23.2275C23.206 18.332 23.1413 18.0734 23.012 17.8579C22.8181 17.5563 22.538 17.3839 22.1071 17.3839C21.6761 17.3839 21.3745 17.5563 21.1806 17.8579C21.0297 18.0519 20.9651 18.3104 20.9005 18.6336ZM15.1906 18.4612C15.1906 18.4612 15.4491 18.4828 15.7292 18.5259V18.3966C15.7292 17.9657 15.6431 17.7502 15.4707 17.6209C15.2983 17.4916 15.0182 17.4055 14.6734 17.4055C14.6734 17.4055 13.8762 17.4055 13.2514 17.7287C13.2298 17.7502 13.2083 17.7502 13.2083 17.7502C13.2083 17.7502 13.1221 17.7717 13.1005 17.7071L12.8635 17.0823C12.8204 16.9961 12.8851 16.953 12.8851 16.953C13.1867 16.716 13.8762 16.5867 13.8762 16.5867C14.1132 16.5436 14.5011 16.5005 14.7381 16.5005C15.3845 16.5005 15.8801 16.6513 16.2248 16.953C16.5696 17.2546 16.7419 17.7287 16.7419 18.3966V21.3701C16.7419 21.3701 16.7419 21.4562 16.6773 21.4778C16.6773 21.4778 16.548 21.5209 16.4403 21.5424C16.3326 21.564 15.9447 21.6502 15.6215 21.6933C15.2983 21.7579 14.9751 21.7794 14.6304 21.7794C14.3072 21.7794 14.027 21.7579 13.7685 21.6933C13.5099 21.6286 13.2945 21.5424 13.1005 21.4132C12.9282 21.2839 12.7773 21.1115 12.6696 20.896C12.5619 20.7021 12.5188 20.4435 12.5188 20.1634C12.5188 19.8833 12.5834 19.6248 12.6911 19.4093C12.7989 19.1938 12.9713 19.0215 13.1652 18.8706C13.3591 18.7198 13.5961 18.6336 13.8331 18.5474C14.0917 18.4828 14.3502 18.4397 14.6304 18.4397C14.8889 18.4612 15.0613 18.4612 15.1906 18.4612ZM13.8978 20.7452C13.8978 20.7452 14.1994 20.9822 14.8458 20.9391C15.3199 20.9176 15.7292 20.8314 15.7292 20.8314V19.3447C15.7292 19.3447 15.3199 19.28 14.8458 19.28C14.1779 19.28 13.8978 19.517 13.8978 19.517C13.7038 19.6463 13.6177 19.8618 13.6177 20.1419C13.6177 20.3143 13.6608 20.4651 13.7254 20.5728C13.7469 20.6159 13.7685 20.659 13.8978 20.7452ZM41.3699 16.8021C41.3483 16.8883 41.176 17.3408 41.1329 17.4916C41.1113 17.5563 41.0682 17.5778 41.0036 17.5778C41.0036 17.5778 40.8097 17.5347 40.6373 17.5347C40.5296 17.5347 40.3572 17.5563 40.2063 17.5994C40.0555 17.6425 39.9262 17.7287 39.797 17.8364C39.6677 17.9441 39.5815 18.1165 39.5169 18.3104C39.4522 18.5043 39.4091 18.8275 39.4091 19.1723V21.5855C39.4091 21.6502 39.366 21.6933 39.3014 21.6933H38.4395C38.3749 21.6933 38.3318 21.6502 38.3318 21.5855V16.7375C38.3318 16.6729 38.3749 16.6298 38.418 16.6298H39.2583C39.3229 16.6298 39.3445 16.6729 39.3445 16.7375V17.1253C39.4738 16.953 39.6892 16.8021 39.8831 16.716C40.0771 16.6298 40.3141 16.5651 40.7235 16.5867C40.9389 16.6082 41.219 16.6513 41.2621 16.6729C41.3483 16.6944 41.3914 16.716 41.3699 16.8021ZM33.376 14.5613C33.3976 14.5613 33.4622 14.6044 33.4407 14.669L33.1821 15.3585C33.1606 15.4016 33.139 15.4447 33.0313 15.4016C33.0097 15.4016 32.9666 15.3801 32.8589 15.3585C32.7943 15.337 32.6865 15.337 32.6003 15.337C32.4711 15.337 32.3633 15.3585 32.2556 15.3801C32.1479 15.4016 32.0617 15.4662 31.9755 15.5524C31.8747 15.6508 31.7942 15.7679 31.7385 15.8972C31.6092 16.2419 31.5661 16.6082 31.5661 16.6298H32.6003C32.6865 16.6298 32.7081 16.6729 32.7081 16.7375L32.5788 17.4055C32.5573 17.5132 32.4711 17.4916 32.4711 17.4916H31.3937L30.7042 21.6502C30.618 22.0811 30.5319 22.4474 30.4241 22.749C30.3164 23.0507 30.1871 23.2662 29.9932 23.4816C29.8208 23.6756 29.6269 23.8264 29.3899 23.891C29.1744 23.9772 28.8943 24.0203 28.5926 24.0203C28.4418 24.0203 28.291 24.0203 28.1186 23.9772C27.9893 23.9557 27.9247 23.9341 27.817 23.891C27.7739 23.8695 27.7523 23.8264 27.7739 23.7617C27.7954 23.6971 27.9893 23.18 28.0109 23.0938C28.054 23.0076 28.1186 23.0507 28.1186 23.0507C28.1833 23.0723 28.2264 23.0938 28.291 23.1153C28.3772 23.1369 28.4634 23.1369 28.5496 23.1369C28.7004 23.1369 28.8297 23.1153 28.9374 23.0723C29.0667 23.0292 29.1529 22.943 29.2391 22.8352C29.3252 22.7275 29.3899 22.5767 29.4761 22.3828C29.5407 22.1888 29.6053 21.9087 29.67 21.5855L30.4026 17.5132H29.6915C29.6053 17.5132 29.5838 17.4701 29.5838 17.4055L29.7131 16.7375C29.7346 16.6298 29.8208 16.6513 29.8208 16.6513H30.5534L30.5965 16.4359C30.7042 15.7894 30.9197 15.2939 31.2429 14.9707C31.5661 14.6475 32.0401 14.4751 32.6219 14.4751C32.7943 14.4751 32.9451 14.4966 33.0744 14.5182C33.1606 14.4966 33.2683 14.5182 33.376 14.5613ZM18.8535 21.564C18.8535 21.6286 18.8104 21.6717 18.7673 21.6717H17.9055C17.8408 21.6717 17.8193 21.6286 17.8193 21.564V14.6475C17.8193 14.6044 17.8624 14.5397 17.9055 14.5397H18.7673C18.832 14.5397 18.8535 14.5828 18.8535 14.6475V21.564Z" fill="white"/>
</svg>
