<?xml version="1.0" encoding="UTF-8"?>
<svg width="48px" height="48px" viewBox="0 0 48 48" version="1.1" xmlns="http://www.w3.org/2000/svg" xmlns:xlink="http://www.w3.org/1999/xlink">
    <title>slack-new-logo</title>
    <g id="Templates" stroke="none" stroke-width="1" fill="none" fill-rule="evenodd">
        <g id="maindemo" transform="translate(-1014.000000, -2293.000000)" fill-rule="nonzero">
            <g id="Group-63" transform="translate(0.000000, 1966.000000)">
                <g id="Group-7" transform="translate(405.000000, 120.000000)">
                    <g id="Group-61" transform="translate(570.000000, 0.000000)">
                        <g id="Group-57" transform="translate(0.000000, 170.000000)">
                            <g id="slack-new-logo" transform="translate(39.000000, 37.000000)">
                                <path d="M17.2150621,-2.74176817e-15 C14.6195679,0.00191463901 12.5190017,2.10418827 12.5209187,4.69469485 C12.5190017,7.28520144 14.6214862,9.38747507 17.2169804,9.38938971 L21.9130422,9.38938971 L21.9130422,4.69660949 C21.9149592,2.10610291 19.8124746,0.00382927802 17.2150621,-2.74176817e-15 C17.2169804,-2.74176817e-15 17.2169804,-2.74176817e-15 17.2150621,-2.74176817e-15 M17.2150621,12.5217391 L4.69607091,12.5217391 C2.10057672,12.5236538 -0.00190785456,14.6259274 5.22823936e-06,17.216434 C-0.0038261799,19.8069406 2.0986584,21.9092142 4.69415258,21.9130435 L17.2150621,21.9130435 C19.8105563,21.9111288 21.9130409,19.8088552 21.9111238,17.2183486 C21.9130409,14.6259274 19.8105563,12.5236538 17.2150621,12.5217391 Z" id="Shape" fill="#36C5F0"></path>
                                <path d="M47.9999987,17.216434 C48.0019159,14.6259274 45.8992472,12.5236538 43.3035258,12.5217391 C40.7078044,12.5236538 38.6051357,14.6259274 38.6070529,17.216434 L38.6070529,21.9130435 L43.3035258,21.9130435 C45.8992472,21.9111288 48.0019159,19.8088552 47.9999987,17.216434 Z M35.477993,17.216434 L35.477993,4.69469485 C35.4799102,2.10610291 33.37916,0.00382927802 30.7834386,3.62994658e-15 C28.1877171,0.00191463901 26.0850485,2.10418827 26.0869618,4.69469485 L26.0869618,17.216434 C26.08313,19.8069406 28.1857987,21.9092142 30.7815201,21.9130435 C33.3772415,21.9111288 35.4799102,19.8088552 35.477993,17.216434 Z" id="Shape" fill="#2EB67D"></path>
                                <path d="M30.7830196,48 C33.3785138,47.9980855 35.4809983,45.8959956 35.4790813,43.3057153 C35.4809983,40.715435 33.3785138,38.6133451 30.7830196,38.6114306 L26.0869578,38.6114306 L26.0869578,43.3057153 C26.0850408,45.8940811 28.1875254,47.9961711 30.7830196,48 Z M30.7830196,35.4774404 L43.3039291,35.4774404 C45.8994233,35.4755259 48.0019079,33.3734359 47.9999948,30.7831557 C48.0038262,28.1928754 45.9013416,26.0907855 43.3058474,26.0869565 L30.7849379,26.0869565 C28.1894437,26.088871 26.0869591,28.190961 26.0888762,30.7812412 C26.0869591,33.3734359 28.1875254,35.4755259 30.7830196,35.4774404 L30.7830196,35.4774404 Z" id="Shape" fill="#ECB22E"></path>
                                <path d="M1.31000086e-06,30.7816514 C-0.0019158715,33.372158 2.10075278,35.4744316 4.6964742,35.4763462 C7.29219563,35.4744316 9.39486427,33.372158 9.39294709,30.7816514 L9.39294709,26.0869565 L4.6964742,26.0869565 C2.10075278,26.0888712 -0.0019158715,28.1911448 1.31000086e-06,30.7816514 Z M12.5220031,30.7816514 L12.5220031,43.3033905 C12.5181714,45.8938971 14.62084,47.9961707 17.2165614,48 C19.8122829,47.9980854 21.9149515,45.8958117 21.9130382,43.3053051 L21.9130382,30.7854807 C21.91687,28.1949741 19.8142013,26.0927004 17.2184799,26.0888712 C14.62084,26.0888712 12.5200898,28.1911448 12.5220031,30.7816514 C12.5220031,30.7816514 12.5220031,30.783566 12.5220031,30.7816514" id="Shape" fill="#E01E5A"></path>
                            </g>
                        </g>
                    </g>
                </g>
            </g>
        </g>
    </g>
</svg>