<svg width="46" height="38" viewBox="0 0 46 38" fill="none" xmlns="http://www.w3.org/2000/svg">
<path d="M14.6156 37.5432C31.6721 37.5432 40.999 23.4474 40.999 11.2244C40.999 10.824 40.9908 10.4254 40.9728 10.0287C42.7834 8.72298 44.3572 7.09355 45.5983 5.23869C43.9368 5.9754 42.1488 6.47136 40.2732 6.69499C42.1877 5.54979 43.6575 3.73821 44.3508 1.57856C42.5592 2.63809 40.5751 3.40818 38.4626 3.82387C36.7704 2.02582 34.3614 0.901367 31.6938 0.901367C26.573 0.901367 22.4203 5.04392 22.4203 10.1504C22.4203 10.8763 22.5016 11.5824 22.6607 12.2596C14.9537 11.8727 8.11993 8.19186 3.54689 2.59482C2.75051 3.96184 2.29132 5.54979 2.29132 7.24414C2.29132 10.4534 3.92835 13.2866 6.41781 14.944C4.89647 14.8971 3.46734 14.4805 2.21809 13.7871C2.21673 13.8259 2.21673 13.8638 2.21673 13.9052C2.21673 18.385 5.41307 22.1254 9.65617 22.973C8.87698 23.1849 8.0571 23.2986 7.21101 23.2986C6.61441 23.2986 6.03317 23.24 5.46821 23.1317C6.64875 26.8072 10.072 29.4817 14.1307 29.5566C10.9569 32.0381 6.95881 33.5161 2.61356 33.5161C1.866 33.5161 1.12748 33.4737 0.401611 33.388C4.50551 36.0121 9.37866 37.5432 14.6161 37.5432" fill="#1DA1F2"/>
</svg>
