<svg width="42" height="42" viewBox="0 0 42 42" fill="none" xmlns="http://www.w3.org/2000/svg">
<mask id="mask0" mask-type="alpha" maskUnits="userSpaceOnUse" x="0" y="0" width="42" height="42">
<path d="M0 42H42V0H0V42Z" fill="white"/>
</mask>
<g mask="url(#mask0)">
<path fill-rule="evenodd" clip-rule="evenodd" d="M26.25 21.0091C26.2491 22.5696 25.9637 24.0635 25.4435 25.4427C24.0647 25.9627 22.5702 26.2488 21.009 26.25H20.991C19.4306 26.2488 17.9364 25.9636 16.5577 25.4436C16.0375 24.0646 15.751 22.5701 15.75 21.0091V20.991C15.751 19.4305 16.0369 17.9365 16.5562 16.5576C17.9357 16.0373 19.4299 15.7509 20.991 15.75H21.009C22.5702 15.7509 24.0647 16.0373 25.4435 16.5576C25.9637 17.9365 26.2491 19.4305 26.25 20.991V21.0091ZM41.7081 17.5H29.4498L38.1175 8.83218C37.4363 7.87532 36.6767 6.97809 35.8483 6.14974L35.8478 6.14932C35.0201 5.32182 34.1236 4.56309 33.1678 3.88248L24.5 12.5502V0.292005C23.3651 0.101535 22.2 0.00063 21.0111 0H20.9888C19.8 0.00063 18.6349 0.101535 17.5 0.292005V12.5503L8.83218 3.88248C7.87584 4.56341 6.97903 5.32256 6.15111 6.15048L6.14807 6.15342C5.32108 6.98072 4.56288 7.87679 3.88259 8.83218L12.5504 17.5H0.2919C0.2919 17.5 0.00042 19.8024 0 20.9923V21.0074C0.00042 22.1975 0.10143 23.3641 0.292005 24.5H12.5502L3.88259 33.1677C5.24475 35.0805 6.91939 36.7554 8.83228 38.1175L17.5 29.4499V41.708C18.6336 41.8982 19.7975 41.9992 20.9851 42H21.0151C22.2026 41.9992 23.3664 41.8982 24.5 41.7081V29.4497L33.1679 38.1174C34.124 37.4367 35.0204 36.6779 35.8483 35.8503L35.8504 35.8483C36.6779 35.0204 37.4367 34.1238 38.1174 33.1679L29.4497 24.5H41.708C41.8982 23.3664 41.9992 22.2025 42 21.0149V20.9849C41.9992 19.7974 41.8982 18.6336 41.7081 17.5Z" fill="#FF4A00"/>
</g>
</svg>
