<?xml version="1.0" encoding="UTF-8"?>
<svg width="61px" height="48px" viewBox="0 0 61 48" version="1.1" xmlns="http://www.w3.org/2000/svg" xmlns:xlink="http://www.w3.org/1999/xlink">
    <title>zeplin</title>
    <g id="Templates" stroke="none" stroke-width="1" fill="none" fill-rule="evenodd">
        <g id="maindemo" transform="translate(-1422.000000, -2293.000000)" fill-rule="nonzero">
            <g id="Group-63" transform="translate(0.000000, 1966.000000)">
                <g id="Group-7" transform="translate(405.000000, 120.000000)">
                    <g id="Group-61" transform="translate(570.000000, 0.000000)">
                        <g id="Group-56" transform="translate(415.000000, 170.000000)">
                            <g id="zeplin" transform="translate(32.000000, 37.000000)">
                                <path d="M9.83189183,32.3076923 L6.63183535,33.4184579 L6.46153846,42.4615385 L17.5384615,38.6173237 C13.7360116,37.4075551 10.9629682,35.2753682 9.83189183,32.3076923" id="Path" fill="#FDBD39"></path>
                                <path d="M11.0769231,23.0769231 L0,27.0748356 L6.21413103,34.1538462 L9.40613061,33.0015656 C8.28043735,29.9329924 8.97512193,26.4686358 11.0769231,23.0769231" id="Path" fill="#F69833"></path>
                                <path d="M29.5574632,10.0728133 C15.178649,15.0970463 5.90724759,25.4669446 8.85383183,33.2307692 L60.9230769,15.0352324 C57.9764927,7.27140774 43.9362773,5.04858023 29.5574632,10.0728133" id="Path" fill="#FECF33"></path>
                                <path d="M39.670647,38.8397896 C54.0482421,33.817829 63.3343646,23.4995782 60.3725232,15.6923077 L8.30769231,33.8771435 C11.2695338,41.6868854 25.2930519,43.8617502 39.670647,38.8397896" id="Path" fill="#EE6723"></path>
                                <path d="M59.7521684,15.6923077 L9.23076923,33.8410502 C10.2189261,36.5242723 13.9934845,37.8461538 19.2853904,37.8461538 C24.4468797,37.8461538 31.052984,36.5908597 37.9399857,34.1172642 C51.8920579,29.1059523 61.7059099,20.9896985 59.7521684,15.6923077" id="Path" fill="#F69833"></path>
                                <path d="M49.9433676,11.0769231 C44.7846412,11.0769231 38.1763553,12.332357 31.2896938,14.8062278 C17.3383108,19.8180977 7.52494357,27.9327887 9.47858861,33.2307692 L60,15.0800062 C59.0093841,12.3964853 55.23752,11.0769231 49.9433676,11.0769231" id="Path" fill="#FDBD39"></path>
                                <g id="Group" transform="translate(20.307692, 0.000000)" fill="#EE6723">
                                    <path d="M27.5541216,44.0802078 C26.0608302,44.0802078 23.8599252,42.7461818 21.0093252,40.113039 C17.6374582,36.9986494 13.7770608,32.4355325 10.1332284,27.2664935 C6.49191422,22.0974545 3.5002951,16.9309091 1.70733819,12.7143896 C-0.244265198,8.12135065 -0.523785166,5.2987013 0.878851072,4.32124675 C1.2036986,4.10181818 1.58898288,3.98961039 1.98182176,3.99958442 C3.12256541,3.99958442 5.34865237,4.8398961 9.46086957,8.84945455 L9.55152469,8.93672727 L9.5389337,9.0614026 C9.51123352,9.35064935 9.48605154,9.6398961 9.46338776,9.92664935 L9.4180602,10.4926753 L9.01514853,10.0912208 C4.5831202,5.67023377 2.63403502,5.19397403 1.99944914,5.19397403 C1.81813889,5.19397403 1.67460161,5.22888312 1.5713555,5.30119481 C0.961951603,5.72509091 0.921660437,7.79968831 2.81534527,12.2505974 C4.57556561,16.3898182 7.52437537,21.4790649 11.1178438,26.5807792 C14.7138304,31.684987 18.5163093,36.1782857 21.8302577,39.2378182 C25.4010624,42.5367273 27.0101908,42.8932987 27.5364942,42.8932987 C27.7178044,42.8932987 27.8638599,42.8558961 27.9746606,42.7785974 C28.6168011,42.3322597 28.6168011,40.1105455 26.5065512,35.318026 L26.4083415,35.0985974 L26.6198702,34.9838961 C26.8313988,34.8691948 27.037891,34.756987 27.2292741,34.6472727 L27.483612,34.5051429 L27.6019673,34.7694545 C29.0977769,38.1656104 30.4978949,42.4818701 28.6621287,43.7585455 C28.3372811,43.977974 27.9494787,44.0901818 27.5541216,44.0802078 Z M27.592459,43.5565714 L27.592459,43.8183896 L27.592459,43.5565714 Z" id="Shape"></path>
                                    <path d="M20.6215227,37.9611429 L20.6013771,38.2204675 C20.2463112,42.5591688 19.314578,47.7755844 16.8819988,47.9875325 C16.8316349,47.9925195 16.7812709,47.9925195 16.7334251,47.9925195 C15.0814873,47.9925195 13.5176864,45.6486234 12.0898682,41.0281558 C10.7350777,36.6545455 9.68498918,30.7848312 9.13350384,24.4987013 C8.5795003,18.2125714 8.58705489,12.2505974 9.15616762,7.70992208 C9.7756443,2.76280519 10.9541609,0.179532468 12.6614991,0.0299220779 C12.7118631,0.0249350649 12.7647452,0.0224415584 12.8151092,0.0224415584 C14.0137714,0.0224415584 15.8193193,1.36644156 17.6676766,7.62514286 L16.4614598,7.85454545 C15.8445013,5.76498701 15.1721424,4.06441558 14.50482,2.89246753 C13.8878615,1.81277922 13.2860122,1.21683117 12.8151092,1.21683117 C12.8,1.21683117 12.7848908,1.21683117 12.7672634,1.21932468 C12.0269132,1.28415584 10.9491245,3.05953247 10.3497934,7.85703896 C9.79075349,12.3154286 9.7831989,18.1901299 10.3296478,24.393974 C10.8760968,30.6003117 11.9085579,36.3827532 13.2381664,40.6765714 C13.8324611,42.5990649 14.4846744,44.1849351 15.1268149,45.2596364 C15.7160732,46.2520519 16.2877041,46.7981299 16.7334251,46.7981299 C16.7485343,46.7981299 16.7636435,46.7981299 16.7787527,46.7956364 C17.4863663,46.7357922 18.8210112,44.8856104 19.3825693,38.3800519 L20.6215227,37.9611429 Z" id="Path"></path>
                                </g>
                            </g>
                        </g>
                    </g>
                </g>
            </g>
        </g>
    </g>
</svg>