<svg width="48" height="48" viewBox="0 0 48 48" fill="none" xmlns="http://www.w3.org/2000/svg">
<rect width="48" height="48" rx="4" fill="#FF6C5C" fill-opacity="0.1"/>
<path opacity="0.35" d="M12.1146 17.0255C12.4106 19.2296 13.5693 24.2951 18.1375 28.8632C22.7056 33.4314 27.7697 34.5901 29.9752 34.8861C31.5726 35.2314 33.3046 34.7928 34.546 33.5514C36.4874 31.61 29.4551 24.5777 27.5138 26.5192L26.2751 27.7579L19.2428 20.7257L20.4802 19.4869C22.4216 17.5455 15.3894 10.5133 13.448 12.4547C12.2066 13.6961 11.7679 15.4281 12.1146 17.0255Z" fill="#FF6262"/>
<path d="M13.4524 12.4522L20.4833 19.4831C22.4207 17.5404 22.4207 14.3963 20.4793 12.4549C18.5406 10.5162 15.3951 10.5148 13.4524 12.4522Z" fill="#FF6262"/>
<path d="M27.5164 26.5176L34.5472 33.5486C36.4846 31.6071 36.4846 28.4617 34.5432 26.5203C32.6031 24.5816 29.4591 24.5802 27.5164 26.5176Z" fill="#FF6262"/>
</svg>
