<svg width="48" height="48" viewBox="0 0 48 48" fill="none" xmlns="http://www.w3.org/2000/svg">
<rect width="48" height="48" rx="4" fill="#FFC226" fill-opacity="0.1"/>
<path opacity="0.35" d="M33.375 35H14.125C11.8466 35 10 33.1533 10 30.875V17.125C10 14.8466 11.8466 13 14.125 13H33.375C35.6533 13 37.5 14.8466 37.5 17.125V30.875C37.5 33.1533 35.6533 35 33.375 35Z" fill="#FFC226"/>
<path d="M20.9202 23.6769L10 17.125C10 14.8466 11.8466 13 14.125 13H33.375C35.6533 13 37.5 14.8466 37.5 17.125L26.5798 23.6769C24.8376 24.7219 22.6624 24.7219 20.9202 23.6769Z" fill="#FFC226"/>
</svg>
