<svg width="60" height="60" viewBox="0 0 60 60" fill="none" xmlns="http://www.w3.org/2000/svg">
<path opacity="0.35" d="M40.5156 42.0187H19.4836C16.9943 42.0187 14.9768 40.0012 14.9768 37.5119V22.489C14.9768 19.9998 16.9943 17.9821 19.4836 17.9821H40.5156C43.0049 17.9821 45.0225 19.9998 45.0225 22.489V37.5119C45.0225 40.0012 43.0049 42.0187 40.5156 42.0187Z" fill="#FF6262"/>
<path d="M26.9079 29.6474L16.9189 23.6542C15.714 22.9313 14.8554 21.5488 15.5331 20.318C16.2999 18.9255 17.7815 17.9821 19.4836 17.9821H40.5156C42.2178 17.9821 43.6994 18.9255 44.4662 20.318C45.144 21.5488 44.2853 22.9313 43.0804 23.6542L33.0913 29.6474C31.1879 30.7891 28.8113 30.7891 26.9079 29.6474Z" fill="#FF6262"/>
<path opacity="0.1" d="M56 0H4C1.79086 0 0 1.79086 0 4V56C0 58.2091 1.79086 60 4 60H56C58.2091 60 60 58.2091 60 56V4C60 1.79086 58.2091 0 56 0Z" fill="#FF6262"/>
</svg>
