<svg width="60" height="60" viewBox="0 0 60 60" fill="none" xmlns="http://www.w3.org/2000/svg">
<path opacity="0.1" d="M56 0H4C1.79086 0 0 1.79086 0 4V56C0 58.2091 1.79086 60 4 60H56C58.2091 60 60 58.2091 60 56V4C60 1.79086 58.2091 0 56 0Z" fill="#FFC226"/>
<path opacity="0.3" d="M37.8251 45.3341C36.0725 45.3341 34.6501 43.9117 34.6501 42.1591V16.7597C34.6501 15.0071 36.0725 13.5847 37.8251 13.5847C39.5777 13.5847 41.0001 15.0071 41.0001 16.7597V42.1591C41.0001 43.9117 39.5777 45.3341 37.8251 45.3341Z" fill="#FFC226"/>
<path d="M26.7128 45.3335C24.9602 45.3335 23.5378 43.9111 23.5378 42.1586V26.2839C23.5378 24.5314 24.9602 23.109 26.7128 23.109C28.4654 23.109 29.8878 24.5314 29.8878 26.2839V42.1586C29.8878 43.9111 28.4654 45.3335 26.7128 45.3335Z" fill="#FFC226"/>
<path d="M15.6012 45.334C13.8487 45.334 12.4263 43.9116 12.4263 42.1591V35.8092C12.4263 34.0566 13.8487 32.6342 15.6012 32.6342C17.3538 32.6342 18.7762 34.0566 18.7762 35.8092V42.1591C18.7762 43.9116 17.3538 45.334 15.6012 45.334Z" fill="#FFC226"/>
</svg>
