<svg width="62" height="62" viewBox="0 0 62 62" fill="none" xmlns="http://www.w3.org/2000/svg">
<path d="M44.5831 40.5019C44.169 40.0878 41.781 37.6999 40.5416 36.4604C39.5042 38.1082 38.1089 39.5034 36.4612 40.5408C37.7006 41.7803 40.0886 44.1682 40.5026 44.5823C41.6295 45.7092 43.4562 45.7092 44.5831 44.5823C45.7099 43.4554 45.7099 41.6288 44.5831 40.5019Z" fill="#4A3AFF"/>
<path opacity="0.35" d="M29.556 42.5424C36.7279 42.5424 42.5418 36.7285 42.5418 29.5566C42.5418 22.3848 36.7279 16.5709 29.556 16.5709C22.3842 16.5709 16.5703 22.3848 16.5703 29.5566C16.5703 36.7285 22.3842 42.5424 29.556 42.5424Z" fill="#4A3AFF"/>
<path opacity="0.1" d="M57 1H5C2.79086 1 1 2.79086 1 5V57C1 59.2091 2.79086 61 5 61H57C59.2091 61 61 59.2091 61 57V5C61 2.79086 59.2091 1 57 1Z" fill="#4A3AFF" stroke="#4A3AFF" stroke-width="0.702576"/>
</svg>
