<svg width="72" height="75" viewBox="0 0 72 75" fill="none" xmlns="http://www.w3.org/2000/svg">
<rect opacity="0.1" width="72" height="75" rx="4" fill="#4A3AFF"/>
<path d="M36.5 38.8428C32.8249 38.8428 29.835 41.8327 29.835 45.5078V49.6094H43.1651V45.5078C43.1651 41.8327 40.1751 38.8428 36.5 38.8428Z" fill="#4A3AFF"/>
<path d="M41.1143 34.2285C41.1143 31.684 39.0445 29.6143 36.5 29.6143C33.9555 29.6143 31.8857 31.684 31.8857 34.2285C31.8857 36.773 33.9555 38.8428 36.5 38.8428C39.0445 38.8428 41.1143 36.773 41.1143 34.2285Z" fill="#4A3AFF"/>
<path d="M30.3477 29.6143C30.3477 27.0697 28.2779 25 25.7334 25C23.1889 25 21.1191 27.0697 21.1191 29.6143C21.1191 32.1588 23.1889 34.2285 25.7334 34.2285C28.2779 34.2285 30.3477 32.1588 30.3477 29.6143Z" fill="#4A3AFF"/>
<path d="M47.2667 34.2285C44.558 34.2285 42.2314 35.859 41.1899 38.1848C43.6042 39.7363 45.2159 42.4314 45.2159 45.5078H54.0001V40.8936C54.0001 37.2184 50.9418 34.2285 47.2667 34.2285Z" fill="#4A3AFF"/>
<path d="M51.8809 29.6143C51.8809 27.0697 49.8111 25 47.2666 25C44.7221 25 42.6523 27.0697 42.6523 29.6143C42.6523 32.1588 44.7221 34.2285 47.2666 34.2285C49.8111 34.2285 51.8809 32.1588 51.8809 29.6143Z" fill="#4A3AFF"/>
<path d="M31.8102 38.1848C30.7688 35.859 28.4421 34.2285 25.7334 34.2285C22.0583 34.2285 19 37.2184 19 40.8936V45.5078H27.7842C27.7842 42.4314 29.396 39.7363 31.8102 38.1848Z" fill="#4A3AFF"/>
</svg>
