<svg width="72" height="75" viewBox="0 0 72 75" fill="none" xmlns="http://www.w3.org/2000/svg">
<path d="M51.9163 34.7131C51.7056 34.0581 51.1309 33.5944 50.4536 33.5324L41.2162 32.6846L37.5655 24.0445C37.2959 23.4097 36.6826 23 36 23C35.3174 23 34.7039 23.4097 34.436 24.0445L30.7853 32.6846L21.5464 33.5324C20.8692 33.5956 20.2957 34.0594 20.0838 34.7131C19.8731 35.3682 20.0676 36.0866 20.5799 36.5407L27.5626 42.7304L25.5038 51.8972C25.3531 52.5712 25.6119 53.2682 26.1652 53.6725C26.4625 53.8909 26.8119 54 27.1625 54C27.4638 54 27.7653 53.919 28.0346 53.7562L36 48.9415L43.964 53.7562C44.5482 54.1091 45.2829 54.0768 45.8349 53.6725C46.3881 53.2682 46.6469 52.5712 46.4963 51.8972L44.4374 42.7304L51.4202 36.5407C51.9321 36.0866 52.127 35.3696 51.9163 34.7131Z" fill="#00C9D6"/>
<rect opacity="0.1" width="72" height="75" rx="4" fill="#00C9D6"/>
</svg>
