<svg width="72" height="75" viewBox="0 0 72 75" fill="none" xmlns="http://www.w3.org/2000/svg">
<rect opacity="0.1" width="72" height="75" rx="4" fill="#FF6262"/>
<path d="M25.1899 41.4519C25.4039 41.5951 25.6459 41.6635 25.8853 41.6635C26.2892 41.6635 26.6858 41.4684 26.9273 41.1075C28.9511 38.0833 32.3342 36.2779 35.977 36.2779C39.609 36.2779 42.9865 38.0751 45.0117 41.0854C45.3979 41.6593 46.1761 41.8116 46.7499 41.4254C47.3239 41.0393 47.4761 40.261 47.09 39.6872C45.4719 37.2821 43.152 35.5074 40.5009 34.5581C42.0908 33.2594 43.1076 31.2844 43.1076 29.0763C43.1076 25.1744 39.9332 22 36.0313 22C32.1294 22 28.955 25.1744 28.955 29.0763C28.955 31.2686 29.9571 33.2311 31.5273 34.5302C28.8348 35.476 26.48 37.2721 24.8456 39.7144C24.4609 40.2893 24.6151 41.0672 25.1899 41.4519ZM36.0313 24.5049C38.552 24.5049 40.6027 26.5556 40.6027 29.0763C40.6027 31.597 38.552 33.6477 36.0313 33.6477C33.5106 33.6477 31.4599 31.597 31.4599 29.0763C31.4599 26.5556 33.5106 24.5049 36.0313 24.5049ZM41.0259 44.1764L39.1588 45.5234C38.881 45.7238 38.7647 46.079 38.8709 46.4033L39.6228 48.5827C39.6545 48.6797 39.6667 48.7745 39.6627 48.865C39.636 49.4503 38.9024 49.8507 38.3644 49.4626L36.4973 48.1153C36.3584 48.0151 36.1949 47.965 36.0314 47.965C35.8679 47.965 35.7044 48.0151 35.5655 48.1153L33.6984 49.4626C33.1603 49.8507 32.4232 49.4503 32.3999 48.865C32.3963 48.7745 32.4089 48.6797 32.4406 48.5827L33.1918 46.4033C33.298 46.079 33.1817 45.7238 32.9039 45.5234L31.0367 44.1764C30.4155 43.7283 30.7348 42.6654 31.5027 42.6654H33.8105C34.154 42.6654 34.4583 42.5332 34.5644 42.2089L35.2775 40.0154C35.3962 39.6529 35.7138 39.4716 36.0314 39.4716C36.349 39.4716 36.6666 39.6529 36.7852 40.0154L37.4984 42.2089C37.6045 42.5332 37.9088 42.6654 38.2522 42.6654H40.5601C41.3279 42.6654 41.6472 43.7283 41.0259 44.1764ZM51.7344 48.56L49.8672 49.9069C49.5894 50.1073 49.4731 50.4626 49.5793 50.7868L50.3312 52.9662C50.3629 53.0633 50.3751 53.1581 50.3711 53.2485C50.3445 53.8339 49.6108 54.2343 49.0728 53.8461L47.2057 52.4988C47.0668 52.3986 46.9033 52.3485 46.7398 52.3485C46.5763 52.3485 46.4128 52.3986 46.2739 52.4988L44.4068 53.8461C43.8687 54.2343 43.1316 53.8339 43.1083 53.2485C43.1047 53.1581 43.1173 53.0632 43.149 52.9662L43.9002 50.7868C44.0064 50.4626 43.8901 50.1073 43.6123 49.9069L41.7452 48.56C41.1239 48.1119 41.4432 47.0489 42.2111 47.0489H44.5189C44.8624 47.0489 45.1667 46.9167 45.2728 46.5925L45.9859 44.399C46.1046 44.0365 46.4222 43.8552 46.7398 43.8552C47.0574 43.8552 47.375 44.0365 47.4936 44.399L48.2068 46.5925C48.3129 46.9167 48.6172 47.0489 48.9606 47.0489H51.2685C52.0363 47.0489 52.3556 48.1119 51.7344 48.56ZM30.3175 48.56L28.4504 49.9069C28.1726 50.1073 28.0563 50.4626 28.1624 50.7868L28.9143 52.9662C28.9461 53.0633 28.9583 53.1581 28.9542 53.2485C28.9276 53.8339 28.194 54.2343 27.656 53.8461L25.7888 52.4988C25.6499 52.3986 25.4864 52.3485 25.3229 52.3485C25.1594 52.3485 24.9959 52.3986 24.857 52.4988L22.9899 53.8461C22.4519 54.2343 21.7147 53.8339 21.6914 53.2485C21.6879 53.1581 21.7004 53.0632 21.7321 52.9662L22.4834 50.7868C22.5895 50.4626 22.4732 50.1073 22.1954 49.9069L20.3283 48.56C19.7071 48.1119 20.0263 47.0489 20.7942 47.0489H23.1021C23.4455 47.0489 23.7498 46.9167 23.8559 46.5925L24.569 44.399C24.6877 44.0365 25.0053 43.8552 25.3229 43.8552C25.6405 43.8552 25.9581 44.0365 26.0767 44.399L26.7899 46.5925C26.896 46.9167 27.2003 47.0489 27.5437 47.0489H29.8516C30.6195 47.0489 30.9387 48.1119 30.3175 48.56Z" fill="#FF3951"/>
</svg>
