<svg width="72" height="75" viewBox="0 0 72 75" fill="none" xmlns="http://www.w3.org/2000/svg">
<rect opacity="0.1" width="72" height="75" rx="4" fill="#FFD600"/>
<path d="M50 35.4375C50 34.7471 49.4351 34.1875 48.7447 34.1875C48.0543 34.1875 47.4947 34.7471 47.4947 35.4375V47.5476C46.9274 47.277 46.2936 47.125 45.625 47.125H22.6259C21.4537 47.125 20.5 46.1875 20.5 44.9375C20.5 43.6875 21.4537 42.75 22.6259 42.75H24.9375C25.6279 42.75 26.1875 42.1904 26.1875 41.5V30.4386H34.5625C35.2529 30.4386 35.8125 29.8789 35.8125 29.1886C35.8125 28.4982 35.2529 27.9386 34.5625 27.9386H26.1875V25.25C26.1875 24.5596 25.6279 24 24.9375 24H22.6259C20.0752 24 18 26.0752 18 28.6259V44.9991C18 47.5498 20.0752 49.625 22.6259 49.625H41.4375V54.75C41.4375 55.4404 41.9971 56 42.6875 56H45.625C48.0374 56 50 54.0374 50 51.625C50 51.6074 50 35.4375 50 35.4375ZM20.5 28.6259C20.5 27.4537 21.4537 26.5 22.6259 26.5H23.6875V40.25H22.6259C21.8599 40.25 21.1369 40.4376 20.5 40.7693V28.6259ZM45.625 53.5H43.9375V49.625H45.625C46.6138 49.625 47.4258 50.4031 47.4947 51.3854V51.75C47.4947 51.7518 47.4949 51.7536 47.4949 51.7554C47.4277 52.7286 46.615 53.5 45.625 53.5ZM35.2303 38.6229C35.4688 38.8674 35.7928 39.0001 36.1251 39.0001C36.2363 39.0001 36.3485 38.9852 36.4587 38.9546L41.504 37.5571C41.7116 37.4996 41.9009 37.3893 42.0534 37.2371L48.9017 30.4017C50.3638 28.9396 50.3638 26.5606 48.9017 25.0984C47.4396 23.6363 45.0605 23.6362 43.5994 25.0974L36.7366 31.9449C36.5909 32.0903 36.4832 32.2694 36.4234 32.4664L34.9289 37.3868C34.7964 37.8229 34.9119 38.2966 35.2303 38.6229ZM45.3661 26.8661C45.8534 26.3788 46.6465 26.3788 47.1338 26.8661C47.6213 27.3535 47.6213 28.1465 47.1347 28.6331L46.8925 28.8748L45.1247 27.1069L45.3661 26.8661ZM38.7244 33.4931L43.355 28.8728L45.1231 30.6409L40.5199 35.2355L37.9816 35.9386L38.7244 33.4931Z" fill="#FFC226"/>
</svg>
