<svg width="28" height="28" viewBox="0 0 28 28" fill="none" xmlns="http://www.w3.org/2000/svg">
<path d="M27.4983 13.7491C27.4983 6.15538 21.3423 0 13.7491 0C6.15538 0 0 6.15538 0 13.7491C0 20.6116 5.02825 26.2998 11.6006 27.3315V17.7234H8.11048V13.7491H11.6012V10.7201C11.6012 7.27405 13.6542 5.37092 16.7945 5.37092C18.2993 5.37092 19.8725 5.63926 19.8725 5.63926V9.02306H18.1386C16.4307 9.02306 15.8982 10.0825 15.8982 11.1703V13.7491H19.7117L19.1013 17.7234H15.8982V27.3315C22.47 26.2998 27.4983 20.6116 27.4983 13.7491Z" fill="#1877F2"/>
<path d="M19.1012 17.7232L19.7104 13.7489H15.8969V11.1695C15.8969 10.0823 16.4299 9.02285 18.1378 9.02285H19.8718V5.63845C19.8718 5.63845 18.298 5.37012 16.7938 5.37012C13.6535 5.37012 11.6005 7.27384 11.6005 10.7187V13.7489H8.11035V17.7232H11.6011V27.3313C13.0247 27.5549 14.4745 27.5549 15.8981 27.3313V17.7232H19.1012Z" fill="white"/>
</svg>
