<svg width="24" height="24" viewBox="0 0 24 24" fill="none" xmlns="http://www.w3.org/2000/svg">
<path d="M19.4327 5.47843C19.4327 5.10413 19.284 4.74516 19.0193 4.4805C18.7547 4.21583 18.3957 4.06714 18.0214 4.06714C17.6471 4.06714 17.2881 4.21583 17.0235 4.4805C16.7588 4.74516 16.6101 5.10413 16.6101 5.47843C16.6101 5.85273 16.7588 6.21169 17.0235 6.47636C17.2881 6.74103 17.6471 6.88972 18.0214 6.88972C18.3957 6.88972 18.7547 6.74103 19.0193 6.47636C19.284 6.21169 19.4327 5.85273 19.4327 5.47843Z" fill="url(#paint0_linear_360_7)"/>
<path d="M21.3132 16.4975C21.261 17.6431 21.0694 18.2654 20.9104 18.6791C20.6965 19.2271 20.4414 19.6191 20.0282 20.0303C19.6191 20.4414 19.2276 20.696 18.6791 20.9073C18.266 21.0689 17.641 21.261 16.4949 21.3153C15.2564 21.37 14.8897 21.3814 11.7485 21.3814C8.6103 21.3814 8.24049 21.37 7.00197 21.3153C5.85641 21.261 5.23456 21.0684 4.82086 20.9073C4.26977 20.6955 3.88086 20.4414 3.46974 20.0303C3.05552 19.6191 2.80089 19.2271 2.58965 18.6791C2.43057 18.266 2.23637 17.6431 2.18679 16.4975C2.12636 15.259 2.11552 14.8861 2.11552 11.751C2.11552 8.61081 2.12636 8.24049 2.18679 7.00197C2.23637 5.85641 2.43057 5.23456 2.58965 4.81724C2.80089 4.26977 3.05552 3.88034 3.46974 3.46922C3.88086 3.05862 4.27029 2.80347 4.82086 2.58965C5.23404 2.42799 5.85641 2.23844 7.00197 2.18421C8.24049 2.12946 8.6103 2.11552 11.7485 2.11552C14.8897 2.11552 15.2564 2.12946 16.4949 2.18421C17.641 2.23844 18.2654 2.42799 18.6791 2.58965C19.2271 2.80347 19.6191 3.05862 20.0282 3.46922C20.4414 3.88034 20.6965 4.26977 20.9104 4.81724C21.0694 5.23456 21.261 5.85641 21.3132 7.00197C21.3705 8.24049 21.3845 8.6103 21.3845 11.7516C21.3845 14.8861 21.3705 15.2585 21.3132 16.4975ZM23.4287 6.90539C23.3709 5.65343 23.1736 4.79813 22.8802 4.05336C22.5817 3.28019 22.1819 2.62529 21.527 1.97038C20.8747 1.31807 20.2198 0.918308 19.4466 0.616165C18.6988 0.325385 17.8466 0.126022 16.5936 0.0712747C15.3411 0.0108462 14.9408 0 11.749 0C8.55865 0 8.15579 0.0108462 6.90332 0.0712747C5.65343 0.126022 4.80123 0.325901 4.05026 0.616165C3.2807 0.918308 2.62529 1.31858 1.97297 1.97038C1.31807 2.62529 0.918308 3.27967 0.616681 4.05336C0.326418 4.79813 0.129121 5.65343 0.0686923 6.90539C0.013945 8.15837 0 8.55865 0 11.7516C0 14.9414 0.013945 15.3411 0.0686923 16.5936C0.129121 17.8435 0.326418 18.6983 0.616681 19.4466C0.918308 20.2167 1.31807 20.8747 1.97297 21.5265C2.62529 22.1788 3.28019 22.5817 4.05026 22.8833C4.80175 23.1736 5.65343 23.3709 6.90332 23.4287C8.15579 23.4861 8.55865 23.5 11.7485 23.5C14.9414 23.5 15.3411 23.4861 16.5936 23.4287C17.8466 23.3709 18.6988 23.1736 19.4466 22.8833C20.2198 22.5817 20.8747 22.1788 21.5265 21.5265C22.1819 20.8747 22.5817 20.2167 22.8802 19.4466C23.1736 18.6983 23.3709 17.8435 23.4287 16.5936C23.4861 15.3411 23.5 14.9408 23.5 11.7516C23.5 8.55865 23.4861 8.15837 23.4287 6.90539Z" fill="url(#paint1_linear_360_7)"/>
<path d="M11.7485 15.665C10.7103 15.6652 9.7145 15.2531 8.98013 14.5192C8.24576 13.7853 7.83297 12.7898 7.83256 11.7516C7.83256 11.2371 7.93389 10.7277 8.13076 10.2524C8.32764 9.77709 8.6162 9.34523 8.97997 8.98145C9.34375 8.61767 9.77562 8.32911 10.2509 8.13224C10.7262 7.93536 11.2356 7.83403 11.7501 7.83403C12.2645 7.83403 12.774 7.93536 13.2493 8.13224C13.7246 8.32911 14.1564 8.61767 14.5202 8.98145C14.884 9.34523 15.1725 9.77709 15.3694 10.2524C15.5663 10.7277 15.6676 11.2371 15.6676 11.7516C15.6676 13.9136 13.9116 15.665 11.7485 15.665ZM11.7485 5.71387C8.41618 5.71387 5.71704 8.41869 5.71704 11.7516C5.71704 15.0813 8.41618 17.7831 11.7485 17.7831C15.0814 17.7831 17.7831 15.0813 17.7831 11.7516C17.7831 8.41869 15.0814 5.71387 11.7485 5.71387Z" fill="url(#paint2_linear_360_7)"/>
<defs>
<linearGradient id="paint0_linear_360_7" x1="0.211756" y1="23.2573" x2="21.5425" y2="1.92657" gradientUnits="userSpaceOnUse">
<stop stop-color="#FFD521"/>
<stop offset="0.05" stop-color="#FFD521"/>
<stop offset="0.501" stop-color="#F50000"/>
<stop offset="0.95" stop-color="#B900B4"/>
<stop offset="1" stop-color="#B900B4"/>
</linearGradient>
<linearGradient id="paint1_linear_360_7" x1="0.211758" y1="23.2862" x2="21.5601" y2="1.93785" gradientUnits="userSpaceOnUse">
<stop stop-color="#FFD521"/>
<stop offset="0.05" stop-color="#FFD521"/>
<stop offset="0.501" stop-color="#F50000"/>
<stop offset="0.95" stop-color="#B900B4"/>
<stop offset="1" stop-color="#B900B4"/>
</linearGradient>
<linearGradient id="paint2_linear_360_7" x1="0.217525" y1="23.2867" x2="21.5607" y2="1.94405" gradientUnits="userSpaceOnUse">
<stop stop-color="#FFD521"/>
<stop offset="0.05" stop-color="#FFD521"/>
<stop offset="0.501" stop-color="#F50000"/>
<stop offset="0.95" stop-color="#B900B4"/>
<stop offset="1" stop-color="#B900B4"/>
</linearGradient>
</defs>
</svg>
