<svg width="28" height="28" viewBox="0 0 28 28" fill="none" xmlns="http://www.w3.org/2000/svg">
<path fill-rule="evenodd" clip-rule="evenodd" d="M17.5 14.0067C17.5 15.0467 17.3093 16.042 16.9627 16.962C16.0176 17.318 15.0159 17.5003 14.006 17.5H13.994C12.9846 17.5004 11.9834 17.3184 11.0387 16.9627C10.6823 16.0177 10.4998 15.016 10.5 14.006V13.994C10.4998 12.9846 10.6818 11.9834 11.0373 11.0387C11.9823 10.6823 12.984 10.4998 13.994 10.5H14.006C15.0467 10.5 16.0433 10.6913 16.962 11.0387C17.3087 11.9573 17.4993 12.9533 17.5 13.994V14.006V14.0067ZM27.8053 11.6667H19.6333L25.412 5.888C24.5033 4.61202 23.388 3.49669 22.112 2.588L16.3333 8.36667V0.194667C15.5647 0.0655433 14.7867 0.000430978 14.0073 0L13.9927 0C13.2133 0.000430978 12.4353 0.0655433 11.6667 0.194667V8.36667L5.888 2.588C5.25147 3.04149 4.65385 3.54724 4.10133 4.1L4.09867 4.102C3.54661 4.65461 3.04154 5.25223 2.58867 5.88867L8.36667 11.6667H0.194667C0.194667 11.6667 0 13.2013 0 13.9947V14.0047C0 14.798 0.0673333 15.576 0.194667 16.3333H8.36667L2.58867 22.112C3.49742 23.3879 4.61274 24.5032 5.88867 25.412L11.6667 19.6333V27.8053C12.4227 27.932 13.198 27.9993 13.99 28H14.01C14.802 28 15.5773 27.932 16.3333 27.8053V19.6333L22.112 25.4113C22.7485 24.958 23.3461 24.4525 23.8987 23.9L23.9 23.8987C24.4525 23.3461 24.958 22.7484 25.4113 22.112L19.6333 16.3333H27.8053C27.932 15.5773 27.9993 14.802 28 14.01V13.99C28 13.198 27.932 12.4227 27.8053 11.6667Z" fill="#FF4A00"/>
</svg>
