<svg width="1920" height="694" viewBox="0 0 1920 694" fill="none" xmlns="http://www.w3.org/2000/svg">
<mask id="mask0" mask-type="alpha" maskUnits="userSpaceOnUse" x="0" y="0" width="1920" height="694">
<path d="M1920 0H0V694H1920V0Z" fill="#C4C4C4"/>
</mask>
<g mask="url(#mask0)">
<g opacity="0.9">
<path opacity="0.01" fill-rule="evenodd" clip-rule="evenodd" d="M808.412 90.3607C996.16 101.861 1178.87 48.5507 1360.77 106.751C1601.34 183.711 1889.01 224.441 2025.33 479.671C2162.09 735.736 2143.95 1100.85 2040.53 1379.49C1943.76 1640.24 1666.49 1697.05 1499.29 1896.98C1352.1 2072.99 1319.9 2405.26 1122.86 2476.8C925.85 2548.32 742.337 2330.92 550.226 2241.54C375.05 2160.04 192.665 2115.27 44.232 1974.96C-129.51 1810.72 -334.29 1635.58 -371.463 1370.26C-408.722 1104.33 -249.573 864.709 -144.53 627.681C-46.4173 406.291 32.907 142.041 219.46 36.8507C402.048 -66.1093 607.738 78.0707 808.412 90.3607Z" stroke="#E4E4E4"/>
<path opacity="0.0204082" fill-rule="evenodd" clip-rule="evenodd" d="M809.704 113.541C993.7 124.811 1172.75 72.5808 1351.02 129.611C1586.77 205.021 1868.69 244.941 2002.28 495.051C2136.3 745.968 2118.53 1103.75 2017.18 1376.8C1922.34 1632.32 1650.62 1687.98 1486.77 1883.9C1342.52 2056.38 1310.96 2381.98 1117.86 2452.09C924.8 2522.17 744.95 2309.14 556.682 2221.55C385.009 2141.68 206.271 2097.81 60.8078 1960.32C-109.46 1799.37 -310.144 1627.75 -346.574 1367.76C-383.088 1107.16 -227.121 872.353 -124.18 640.082C-28.0292 423.131 49.7088 164.191 232.531 61.1108C411.467 -39.7792 613.043 101.501 809.704 113.541Z" stroke="#E4E4E4"/>
<path opacity="0.0408163" fill-rule="evenodd" clip-rule="evenodd" d="M810.996 136.731C991.23 147.771 1166.63 96.6107 1341.26 152.471C1572.2 226.341 1848.37 265.431 1979.23 510.421C2110.52 756.201 2093.11 1106.65 1993.83 1374.11C1900.93 1624.39 1634.75 1678.92 1474.24 1870.83C1332.93 2039.77 1302.02 2358.71 1112.87 2427.37C923.74 2496.02 747.564 2287.35 563.137 2201.56C394.968 2123.33 219.878 2080.36 77.3831 1945.67C-89.4091 1788.03 -285.999 1619.92 -321.684 1365.25C-357.453 1109.99 -204.67 879.996 -103.829 652.483C-9.64049 439.981 66.5111 186.341 245.601 85.3707C420.886 -13.4493 618.349 124.931 810.996 136.731Z" stroke="#E4E4E4"/>
<path opacity="0.0612245" fill-rule="evenodd" clip-rule="evenodd" d="M812.288 159.921C988.77 170.721 1160.51 120.631 1331.51 175.321C1557.64 247.651 1828.05 285.931 1956.19 525.79C2084.74 766.433 2067.69 1109.56 1970.48 1371.42C1879.51 1616.47 1618.88 1669.86 1461.72 1857.75C1323.35 2023.16 1293.09 2335.43 1107.87 2402.66C922.68 2469.87 750.177 2265.56 569.593 2181.57C404.927 2104.97 233.485 2062.9 93.9579 1931.03C-69.3591 1776.68 -261.853 1612.09 -296.795 1362.75C-331.819 1112.83 -182.218 887.64 -83.4783 664.884C8.7476 456.821 83.3129 208.481 258.672 109.631C430.305 12.8809 623.654 148.371 812.288 159.921Z" stroke="#E4E4E4"/>
<path opacity="0.0816327" fill-rule="evenodd" clip-rule="evenodd" d="M813.579 183.101C986.31 193.681 1154.4 144.661 1321.75 198.181C1543.07 268.961 1807.73 306.421 1933.14 541.162C2058.96 776.665 2042.28 1112.46 1947.13 1368.73C1858.1 1608.55 1603.01 1660.79 1449.19 1844.67C1313.77 2006.55 1284.15 2312.15 1102.87 2377.94C921.62 2443.72 752.79 2243.78 576.048 2161.57C414.886 2086.61 247.091 2045.44 110.534 1916.39C-49.3086 1765.34 -237.707 1604.26 -271.906 1360.25C-306.185 1115.66 -159.767 895.283 -63.1274 677.285C27.1362 473.671 100.114 230.631 271.743 133.891C439.724 39.2006 628.959 171.801 813.579 183.101Z" stroke="#E4E4E4"/>
<path opacity="0.102041" fill-rule="evenodd" clip-rule="evenodd" d="M814.871 206.291C983.84 216.631 1148.28 168.681 1312 221.041C1528.5 290.271 1787.41 326.921 1910.09 556.534C2033.18 786.897 2016.86 1115.36 1923.78 1366.04C1836.68 1600.62 1587.14 1651.73 1436.66 1831.6C1304.19 1989.94 1275.21 2288.87 1097.88 2353.23C920.57 2417.57 755.403 2221.99 582.504 2141.58C424.845 2068.26 260.698 2027.98 127.109 1901.75C-29.2589 1753.99 -213.561 1596.43 -247.017 1357.74C-280.55 1118.49 -137.316 902.926 -42.7772 689.686C45.5238 490.511 116.916 252.781 284.814 158.151C449.143 65.5308 634.264 195.231 814.871 206.291Z" stroke="#E4E4E4"/>
<path opacity="0.122449" fill-rule="evenodd" clip-rule="evenodd" d="M816.163 229.481C981.38 239.591 1142.16 192.711 1302.24 243.891C1513.94 311.591 1767.09 347.411 1887.05 571.906C2007.4 797.129 1991.44 1118.27 1900.43 1363.35C1815.26 1592.7 1571.27 1642.67 1424.14 1818.52C1294.61 1973.33 1266.27 2265.59 1092.88 2328.51C919.51 2391.42 758.017 2200.2 588.959 2121.59C434.804 2049.9 274.305 2010.52 143.684 1887.11C-9.20866 1742.65 -189.415 1588.6 -222.127 1355.24C-254.916 1121.33 -114.864 910.57 -22.4266 702.087C63.9128 507.361 133.718 274.931 297.885 182.411C458.562 91.8608 639.569 218.661 816.163 229.481Z" stroke="#E4E4E4"/>
<path opacity="0.142857" fill-rule="evenodd" clip-rule="evenodd" d="M817.454 252.661C978.92 262.541 1136.05 216.731 1292.49 266.751C1499.37 332.901 1746.77 367.911 1864 587.278C1981.61 807.361 1966.02 1121.17 1877.08 1360.66C1793.85 1584.78 1555.4 1633.6 1411.61 1805.44C1285.02 1956.72 1257.33 2242.31 1087.88 2303.8C918.45 2365.27 760.63 2178.42 595.415 2101.59C444.763 2031.54 287.912 1993.06 160.26 1872.46C10.8416 1731.3 -165.27 1580.77 -197.238 1352.73C-229.281 1124.16 -92.4127 918.213 -2.07593 714.488C82.3009 524.204 150.52 297.081 310.955 206.671C467.981 118.181 644.875 242.101 817.454 252.661Z" stroke="#E4E4E4"/>
<path opacity="0.163265" fill-rule="evenodd" clip-rule="evenodd" d="M818.746 275.851C976.45 285.501 1129.93 240.761 1282.73 289.611C1484.8 354.211 1726.45 388.401 1840.95 602.65C1955.83 817.593 1940.6 1124.08 1853.73 1357.97C1772.43 1576.85 1539.53 1624.54 1399.09 1792.37C1275.44 1940.11 1248.4 2219.03 1082.88 2279.08C917.4 2339.12 763.243 2156.63 601.87 2081.6C454.722 2013.19 301.518 1975.61 176.835 1857.82C30.8921 1719.96 -141.124 1572.94 -172.349 1350.23C-203.647 1127 -69.961 925.856 18.2751 726.889C100.689 541.049 167.322 319.231 324.026 230.931C477.4 144.511 650.18 265.531 818.746 275.851Z" stroke="#E4E4E4"/>
<path opacity="0.183673" fill-rule="evenodd" clip-rule="evenodd" d="M820.038 299.031C973.99 308.461 1123.81 264.781 1272.97 312.471C1470.23 375.521 1706.13 408.901 1817.91 618.021C1930.05 827.825 1915.18 1126.98 1830.38 1355.28C1751.02 1568.93 1523.66 1615.48 1386.56 1779.29C1265.86 1923.5 1239.46 2195.75 1077.89 2254.37C916.34 2312.97 765.856 2134.84 608.326 2061.61C464.681 1994.83 315.125 1958.15 193.41 1843.18C50.942 1708.61 -116.978 1565.11 -147.46 1347.72C-178.012 1129.83 -47.5096 933.5 38.625 739.29C119.078 557.894 184.124 341.381 337.097 255.191C486.819 170.841 655.485 288.961 820.038 299.031Z" stroke="#E4E4E4"/>
<path opacity="0.204082" fill-rule="evenodd" clip-rule="evenodd" d="M821.33 322.221C971.53 331.411 1117.69 288.811 1263.22 335.321C1455.67 396.841 1685.81 429.391 1794.86 633.393C1904.27 838.058 1889.76 1129.88 1807.03 1352.59C1729.6 1561.01 1507.79 1606.41 1374.03 1766.21C1256.28 1906.89 1230.52 2172.47 1072.89 2229.65C915.28 2286.82 768.47 2113.06 614.781 2041.62C474.64 1976.47 328.732 1940.69 209.986 1828.54C70.992 1697.27 -92.8322 1557.28 -122.57 1345.22C-152.378 1132.66 -25.0582 941.143 58.976 751.691C137.466 574.739 200.926 363.531 350.168 279.451C496.239 197.161 660.79 312.401 821.33 322.221Z" stroke="#E4E4E4"/>
<path opacity="0.22449" fill-rule="evenodd" clip-rule="evenodd" d="M822.621 345.411C969.07 354.371 1111.58 312.831 1253.46 358.181C1441.1 418.151 1665.49 449.891 1771.81 648.765C1878.49 848.29 1864.34 1132.79 1783.68 1349.9C1708.19 1553.08 1491.92 1597.35 1361.51 1753.14C1246.7 1890.28 1221.58 2149.19 1067.89 2204.94C914.22 2260.67 771.083 2091.27 621.236 2021.62C484.599 1958.12 342.338 1923.23 226.561 1813.9C91.042 1685.92 -68.6864 1549.45 -97.6811 1342.72C-126.743 1135.5 -2.60669 948.786 79.327 764.093C155.854 591.584 217.727 385.681 363.239 303.711C505.658 223.491 666.096 335.831 822.621 345.411Z" stroke="#E4E4E4"/>
<path opacity="0.244898" fill-rule="evenodd" clip-rule="evenodd" d="M823.913 368.591C966.6 377.321 1105.46 336.861 1243.71 381.041C1426.53 439.461 1645.17 470.381 1748.77 664.137C1852.71 858.522 1838.92 1135.69 1760.33 1347.21C1686.77 1545.16 1476.05 1588.29 1348.98 1740.06C1237.11 1873.67 1212.64 2125.92 1062.89 2180.22C913.17 2234.52 773.696 2069.48 627.692 2001.63C494.558 1939.76 355.945 1905.77 243.137 1799.26C111.093 1674.58 -44.5406 1541.62 -72.7918 1340.21C-101.109 1138.33 19.845 956.43 99.677 776.494C174.243 608.429 234.529 407.831 376.309 327.971C515.077 249.821 671.401 359.261 823.913 368.591Z" stroke="#E4E4E4"/>
<path opacity="0.265306" fill-rule="evenodd" clip-rule="evenodd" d="M825.205 391.781C964.14 400.281 1099.34 360.881 1233.95 403.901C1411.97 460.771 1624.85 490.881 1725.72 679.509C1826.92 868.754 1813.5 1138.59 1736.98 1344.52C1665.36 1537.24 1460.18 1579.22 1336.46 1726.98C1227.53 1857.06 1203.71 2102.64 1057.9 2155.51C912.111 2208.37 776.309 2047.69 634.147 1981.64C504.517 1921.4 369.552 1888.31 259.712 1784.61C131.143 1663.23 -20.3948 1533.79 -47.9026 1337.71C-75.4745 1141.16 42.296 964.073 120.028 788.895C192.631 625.274 251.331 429.971 389.38 352.231C524.496 276.141 676.706 382.701 825.205 391.781Z" stroke="#E4E4E4"/>
<path opacity="0.285714" fill-rule="evenodd" clip-rule="evenodd" d="M826.497 414.971C961.68 423.231 1093.22 384.911 1224.2 426.751C1397.4 482.091 1604.53 511.371 1702.67 694.881C1801.14 878.986 1788.08 1141.5 1713.62 1341.83C1643.94 1529.31 1444.31 1570.16 1323.93 1713.91C1217.95 1840.46 1194.77 2079.36 1052.9 2130.79C911.054 2182.22 778.923 2025.91 640.603 1961.64C514.476 1903.04 383.159 1870.86 276.287 1769.97C151.193 1651.89 3.751 1525.96 -23.0133 1335.2C-49.8401 1144 64.748 971.716 140.378 801.296C211.02 642.118 268.133 452.121 402.451 376.491C533.915 302.471 682.011 406.131 826.497 414.971Z" stroke="#E4E4E4"/>
<path opacity="0.306122" fill-rule="evenodd" clip-rule="evenodd" d="M827.789 438.151C959.21 446.191 1087.11 408.941 1214.44 449.611C1382.83 503.401 1584.21 531.868 1679.63 710.253C1775.36 889.218 1762.67 1144.4 1690.27 1339.14C1622.53 1521.39 1428.44 1561.09 1311.4 1700.83C1208.37 1823.85 1185.83 2056.08 1047.9 2106.08C909.997 2156.07 781.536 2004.12 647.058 1941.65C524.435 1884.69 396.765 1853.4 292.863 1755.33C171.243 1640.54 27.897 1518.13 1.87597 1332.7C-24.2056 1146.83 87.199 979.36 160.729 813.697C229.408 658.963 284.935 474.271 415.522 400.751C543.334 328.801 687.317 429.561 827.789 438.151Z" stroke="#E4E4E4"/>
<path opacity="0.326531" fill-rule="evenodd" clip-rule="evenodd" d="M829.08 461.341C956.75 469.141 1080.99 432.961 1204.69 472.471C1368.27 524.712 1563.89 552.363 1656.58 725.625C1749.58 899.45 1737.25 1147.3 1666.92 1336.46C1601.11 1513.47 1412.57 1552.03 1298.88 1687.75C1198.79 1807.24 1176.89 2032.8 1042.91 2081.36C908.94 2129.92 784.149 1982.33 653.514 1921.66C534.394 1866.33 410.372 1835.94 309.438 1740.69C191.293 1629.19 52.0432 1510.3 26.7652 1330.19C1.42895 1149.67 109.651 987.003 181.08 826.098C247.796 675.808 301.737 496.421 428.593 425.011C552.753 355.121 692.622 452.991 829.08 461.341Z" stroke="#E4E4E4"/>
<path opacity="0.346939" fill-rule="evenodd" clip-rule="evenodd" d="M830.372 484.521C954.29 492.101 1074.87 456.991 1194.93 495.321C1353.7 546.025 1543.57 572.858 1633.53 740.996C1723.8 909.682 1711.83 1150.21 1643.57 1333.77C1579.7 1505.54 1396.7 1542.97 1286.35 1674.68C1189.2 1790.63 1167.95 2009.52 1037.91 2056.65C907.883 2103.76 786.763 1960.55 659.969 1901.67C544.353 1847.97 423.979 1818.48 326.013 1726.05C211.344 1617.85 76.1879 1502.47 51.6539 1327.69C27.0629 1152.5 132.102 994.646 201.43 838.499C266.185 692.653 318.539 518.571 441.663 449.271C562.172 381.451 697.927 476.431 830.372 484.521Z" stroke="#E4E4E4"/>
<path opacity="0.367347" fill-rule="evenodd" clip-rule="evenodd" d="M831.664 507.711C951.82 515.061 1068.75 481.011 1185.18 518.183C1339.13 567.337 1523.24 593.352 1610.49 756.368C1698.02 919.915 1686.41 1153.11 1620.22 1331.08C1558.28 1497.62 1380.83 1533.9 1273.83 1661.6C1179.62 1774.02 1159.02 1986.24 1032.91 2031.93C906.826 2077.61 789.376 1938.76 666.425 1881.67C554.312 1829.62 437.585 1801.02 342.589 1711.4C231.394 1606.5 100.334 1494.64 76.5438 1325.19C52.6978 1155.33 154.553 1002.29 221.781 850.9C284.573 709.498 335.34 540.72 454.734 473.531C571.591 407.781 703.232 499.861 831.664 507.711Z" stroke="#E4E4E4"/>
<path opacity="0.387755" fill-rule="evenodd" clip-rule="evenodd" d="M832.956 530.898C949.36 538.012 1062.64 505.041 1175.42 541.04C1324.57 588.65 1502.92 613.847 1587.44 771.74C1672.23 930.147 1660.99 1156.01 1596.87 1328.39C1536.87 1489.7 1364.97 1524.84 1261.3 1648.52C1170.04 1757.41 1150.08 1962.96 1027.91 2007.22C905.769 2051.46 791.989 1916.97 672.88 1861.68C564.271 1811.26 451.192 1783.56 359.164 1696.76C251.444 1595.16 124.48 1486.81 101.433 1322.68C78.332 1158.17 177.005 1009.93 242.131 863.301C302.961 726.343 352.142 562.869 467.805 497.801C581.01 434.111 708.538 523.295 832.956 530.898Z" stroke="#E4E4E4"/>
<path opacity="0.408163" fill-rule="evenodd" clip-rule="evenodd" d="M834.247 554.085C946.9 560.968 1056.52 529.064 1165.66 563.897C1310 609.962 1482.6 634.342 1564.4 787.112C1646.45 940.379 1635.57 1158.92 1573.52 1325.7C1515.45 1481.77 1349.1 1515.78 1248.78 1635.45C1160.46 1740.8 1141.14 1939.68 1022.92 1982.5C904.712 2025.31 794.602 1895.19 679.336 1841.69C574.23 1792.9 464.799 1766.11 375.739 1682.12C271.494 1583.81 148.626 1478.98 126.322 1320.18C103.967 1161 199.456 1017.58 262.482 875.702C321.35 743.188 368.944 585.018 480.876 522.057C590.429 460.431 713.843 546.728 834.247 554.085Z" stroke="#E4E4E4"/>
<path opacity="0.428571" fill-rule="evenodd" clip-rule="evenodd" d="M835.539 577.271C944.43 583.923 1050.4 553.089 1155.91 586.754C1295.43 631.275 1462.28 654.837 1541.35 802.484C1620.67 950.611 1610.15 1161.82 1550.17 1323.01C1494.04 1473.85 1333.23 1506.71 1236.25 1622.37C1150.88 1724.19 1132.2 1916.4 1017.92 1957.79C903.654 1999.16 797.216 1873.4 685.791 1821.69C584.189 1774.55 478.405 1748.65 392.315 1667.48C291.544 1572.47 172.772 1471.15 151.212 1317.67C129.601 1163.83 221.908 1025.22 282.833 888.103C339.738 760.032 385.746 607.167 493.947 546.317C599.848 486.761 719.148 570.161 835.539 577.271Z" stroke="#E4E4E4"/>
<path opacity="0.44898" fill-rule="evenodd" clip-rule="evenodd" d="M836.831 600.457C941.97 606.879 1044.29 577.114 1146.15 609.612C1280.87 652.587 1441.96 675.332 1518.3 817.856C1594.89 960.843 1584.73 1164.72 1526.82 1320.32C1472.62 1465.93 1317.36 1497.65 1223.72 1609.29C1141.29 1707.58 1123.26 1893.12 1012.92 1933.07C902.597 1973.01 799.829 1851.61 692.247 1801.7C594.148 1756.19 492.012 1731.19 408.89 1652.84C311.595 1561.12 196.917 1463.32 176.101 1315.17C155.236 1166.67 244.359 1032.86 303.183 900.504C358.126 776.877 402.548 629.316 507.018 570.577C609.267 513.091 724.453 593.594 836.831 600.457Z" stroke="#E4E4E4"/>
<path opacity="0.469388" fill-rule="evenodd" clip-rule="evenodd" d="M838.123 623.644C939.51 629.834 1038.17 601.14 1136.4 632.469C1266.3 673.9 1421.64 695.827 1495.26 833.228C1569.11 971.075 1559.31 1167.63 1503.47 1317.63C1451.21 1458 1301.49 1488.59 1211.2 1596.22C1131.71 1690.97 1114.33 1869.85 1007.93 1908.36C901.54 1946.86 802.442 1829.83 698.702 1781.71C604.107 1737.83 505.619 1713.73 425.465 1638.19C331.645 1549.78 221.063 1455.5 200.99 1312.66C180.87 1169.5 266.811 1040.51 323.534 912.905C376.515 793.722 419.35 651.465 520.088 594.838C618.686 539.414 729.759 617.027 838.123 623.644Z" stroke="#E4E4E4"/>
<path opacity="0.489796" fill-rule="evenodd" clip-rule="evenodd" d="M839.414 646.83C937.04 652.79 1032.05 625.165 1126.64 655.326C1251.73 695.212 1401.32 716.322 1472.21 848.599C1543.32 981.307 1533.89 1170.53 1480.12 1314.94C1429.79 1450.08 1285.62 1479.52 1198.67 1583.14C1122.13 1674.36 1105.39 1846.57 1002.93 1883.64C900.483 1920.71 805.055 1808.04 705.158 1761.72C614.066 1719.48 519.226 1696.27 442.041 1623.55C351.695 1538.43 245.209 1447.67 225.879 1310.16C206.504 1172.33 289.262 1048.15 343.884 925.306C394.903 810.567 436.152 673.614 533.159 619.098C628.105 565.741 735.064 640.46 839.414 646.83Z" stroke="#E4E4E4"/>
<path opacity="0.510204" fill-rule="evenodd" clip-rule="evenodd" d="M840.706 670.016C934.58 675.745 1025.93 649.191 1116.89 678.184C1237.17 716.525 1381 736.817 1449.16 863.971C1517.54 991.54 1508.48 1173.44 1456.77 1312.25C1408.38 1442.16 1269.75 1470.46 1186.15 1570.06C1112.55 1657.75 1096.45 1823.29 997.93 1858.93C899.426 1894.56 807.669 1786.25 711.613 1741.72C624.025 1701.12 532.832 1678.81 458.616 1608.91C371.745 1527.09 269.355 1439.84 250.769 1307.66C232.139 1175.17 311.714 1055.79 364.235 937.707C413.291 827.412 452.953 695.763 546.23 643.359C637.524 592.068 740.369 663.893 840.706 670.016Z" stroke="#E4E4E4"/>
<path opacity="0.530612" fill-rule="evenodd" clip-rule="evenodd" d="M841.998 693.203C932.12 698.701 1019.82 673.216 1107.13 701.041C1222.6 737.837 1360.68 757.312 1426.12 879.343C1491.76 1001.77 1483.06 1176.34 1433.42 1309.56C1386.96 1434.23 1253.88 1461.4 1173.62 1556.99C1102.97 1641.14 1087.51 1800.01 992.93 1834.21C898.369 1868.41 810.282 1764.46 718.069 1721.73C633.984 1682.76 546.439 1661.36 475.192 1594.27C391.795 1515.74 293.501 1432.01 275.658 1305.15C257.773 1178 334.165 1063.44 384.586 950.108C431.68 844.257 469.755 717.912 559.301 667.619C646.943 618.395 745.674 687.326 841.998 693.203Z" stroke="#E4E4E4"/>
<path opacity="0.55102" fill-rule="evenodd" clip-rule="evenodd" d="M843.29 716.389C929.65 721.656 1013.7 697.241 1097.38 723.898C1208.03 759.15 1340.36 777.807 1403.07 894.715C1465.98 1012 1457.64 1179.24 1410.07 1306.87C1365.55 1426.31 1238.01 1452.33 1161.09 1543.91C1093.38 1624.53 1078.57 1776.73 987.94 1809.5C897.312 1842.26 812.895 1742.68 724.524 1701.74C643.943 1664.4 560.046 1643.9 491.767 1579.63C411.846 1504.4 317.646 1424.18 300.547 1302.65C283.408 1180.84 356.617 1071.08 404.936 962.509C450.068 861.101 486.557 740.061 572.372 691.879C656.362 644.721 750.98 710.759 843.29 716.389Z" stroke="#E4E4E4"/>
<path opacity="0.571429" fill-rule="evenodd" clip-rule="evenodd" d="M844.581 739.575C927.19 744.612 1007.58 721.267 1087.62 746.755C1193.47 780.462 1320.04 798.302 1380.02 910.087C1440.2 1022.24 1432.22 1182.15 1386.72 1304.18C1344.13 1418.39 1222.14 1443.27 1148.57 1530.83C1083.8 1607.92 1069.64 1753.45 982.94 1784.78C896.255 1816.11 815.508 1720.89 730.98 1681.74C653.902 1646.05 573.652 1626.44 508.342 1564.99C431.896 1493.05 341.792 1416.35 325.436 1300.14C309.042 1183.67 379.068 1078.72 425.287 974.91C468.456 877.946 503.359 762.21 585.442 716.14C665.781 671.048 756.285 734.192 844.581 739.575Z" stroke="#E4E4E4"/>
</g>
</g>
</svg>
