<svg width="1920" height="694" viewBox="0 0 1920 694" fill="none" xmlns="http://www.w3.org/2000/svg">
<mask id="mask0" mask-type="alpha" maskUnits="userSpaceOnUse" x="0" y="0" width="1920" height="694">
<rect width="1920" height="694" fill="#C4C4C4"/>
</mask>
<g mask="url(#mask0)">
<g opacity="0.9">
<path opacity="0.01" fill-rule="evenodd" clip-rule="evenodd" d="M895.412 -1426.64C1083.16 -1415.14 1265.87 -1468.45 1447.77 -1410.25C1688.34 -1333.29 1976.01 -1292.56 2112.33 -1037.33C2249.09 -781.265 2230.95 -416.153 2127.53 -137.515C2030.76 123.239 1753.49 180.048 1586.29 379.978C1439.1 555.988 1406.9 888.263 1209.86 959.799C1012.85 1031.32 829.337 813.924 637.226 724.543C462.05 643.041 279.665 598.271 131.232 457.957C-42.5096 293.717 -247.29 118.579 -284.463 -146.738C-321.722 -412.674 -162.573 -652.292 -57.53 -889.32C40.5827 -1110.71 119.907 -1374.96 306.46 -1480.15C489.048 -1583.11 694.738 -1438.93 895.412 -1426.64Z" stroke="#E4E4E4"/>
<path opacity="0.0204082" fill-rule="evenodd" clip-rule="evenodd" d="M896.704 -1403.46C1080.7 -1392.19 1259.75 -1444.42 1438.02 -1387.39C1673.77 -1311.98 1955.69 -1272.06 2089.28 -1021.95C2223.3 -771.033 2205.53 -413.25 2104.18 -140.204C2009.34 115.316 1737.62 170.984 1573.77 366.901C1429.52 539.379 1397.96 864.984 1204.86 935.085C1011.8 1005.17 831.95 792.138 643.682 704.55C472.009 624.684 293.271 580.813 147.808 443.315C-22.4594 282.372 -223.144 110.75 -259.574 -149.242C-296.088 -409.84 -140.121 -644.648 -37.1794 -876.919C58.971 -1093.87 136.709 -1352.81 319.531 -1455.89C498.467 -1556.78 700.043 -1415.5 896.704 -1403.46Z" stroke="#E4E4E4"/>
<path opacity="0.0408163" fill-rule="evenodd" clip-rule="evenodd" d="M897.996 -1380.27C1078.23 -1369.23 1253.63 -1420.39 1428.26 -1364.53C1659.2 -1290.66 1935.37 -1251.57 2066.23 -1006.58C2197.52 -760.8 2180.11 -410.346 2080.83 -142.894C1987.93 107.393 1721.75 161.921 1561.24 353.825C1419.93 522.769 1389.02 841.705 1199.87 910.369C1010.74 979.024 834.564 770.351 650.137 684.557C481.968 606.327 306.878 563.355 164.383 428.673C-2.40923 271.027 -198.999 102.92 -234.684 -151.746C-270.453 -407.007 -117.67 -637.005 -16.8288 -864.518C77.3594 -1077.02 153.511 -1330.66 332.601 -1431.63C507.886 -1530.45 705.349 -1392.07 897.996 -1380.27Z" stroke="#E4E4E4"/>
<path opacity="0.0612245" fill-rule="evenodd" clip-rule="evenodd" d="M899.288 -1357.08C1075.77 -1346.28 1247.51 -1396.37 1418.51 -1341.68C1644.64 -1269.35 1915.05 -1231.07 2043.19 -991.211C2171.74 -750.568 2154.69 -407.443 2057.48 -145.583C1966.51 99.4696 1705.88 152.857 1548.72 340.748C1410.35 506.16 1380.09 818.426 1194.87 885.655C1009.68 952.873 837.177 748.564 656.593 664.565C491.927 587.97 320.485 545.897 180.958 414.032C17.641 259.682 -174.853 95.0901 -209.795 -154.251C-244.819 -404.173 -95.2184 -629.361 3.52184 -852.117C95.7477 -1060.18 170.313 -1308.52 345.672 -1407.37C517.305 -1504.12 710.654 -1368.63 899.288 -1357.08Z" stroke="#E4E4E4"/>
<path opacity="0.0816327" fill-rule="evenodd" clip-rule="evenodd" d="M900.579 -1333.9C1073.31 -1323.32 1241.4 -1372.34 1408.75 -1318.82C1630.07 -1248.04 1894.73 -1210.58 2020.14 -975.839C2145.96 -740.336 2129.28 -404.539 2034.13 -148.273C1945.1 91.5462 1690.01 143.794 1536.19 327.671C1400.77 489.55 1371.15 795.147 1189.87 860.94C1008.62 926.722 839.79 726.777 663.048 644.572C501.886 569.613 334.091 528.438 197.534 399.39C37.6912 248.336 -150.707 87.2603 -184.906 -156.755C-219.185 -401.339 -72.7669 -621.718 23.8724 -839.716C114.136 -1043.33 187.114 -1286.37 358.743 -1383.11C526.724 -1477.8 715.959 -1345.2 900.579 -1333.9Z" stroke="#E4E4E4"/>
<path opacity="0.102041" fill-rule="evenodd" clip-rule="evenodd" d="M901.871 -1310.71C1070.84 -1300.37 1235.28 -1348.32 1399 -1295.96C1615.5 -1226.73 1874.41 -1190.08 1997.09 -960.467C2120.18 -730.104 2103.86 -401.636 2010.78 -150.962C1923.68 83.6228 1674.14 134.73 1523.66 314.595C1391.19 472.941 1362.21 771.868 1184.88 836.225C1007.57 900.572 842.403 704.99 669.504 624.579C511.845 551.256 347.698 510.98 214.109 384.748C57.7413 236.991 -126.561 79.4304 -160.017 -159.259C-193.55 -398.506 -50.3155 -614.075 44.223 -827.315C132.524 -1026.49 203.916 -1264.22 371.814 -1358.85C536.143 -1451.47 721.264 -1321.77 901.871 -1310.71Z" stroke="#E4E4E4"/>
<path opacity="0.122449" fill-rule="evenodd" clip-rule="evenodd" d="M903.163 -1287.52C1068.38 -1277.41 1229.16 -1324.29 1389.24 -1273.11C1600.94 -1205.41 1854.09 -1169.59 1974.05 -945.095C2094.4 -719.872 2078.44 -398.732 1987.43 -153.651C1902.26 75.6996 1658.27 125.666 1511.14 301.518C1381.61 456.331 1353.27 748.589 1179.88 811.51C1006.51 874.421 845.017 683.203 675.959 604.586C521.804 532.899 361.305 493.522 230.684 370.106C77.7915 225.646 -102.415 71.6008 -135.127 -161.763C-167.916 -395.672 -27.864 -606.431 64.5736 -814.914C150.913 -1009.64 220.718 -1242.07 384.885 -1334.59C545.562 -1425.14 726.569 -1298.34 903.163 -1287.52Z" stroke="#E4E4E4"/>
<path opacity="0.142857" fill-rule="evenodd" clip-rule="evenodd" d="M904.454 -1264.34C1065.92 -1254.46 1223.05 -1300.27 1379.49 -1250.25C1586.37 -1184.1 1833.77 -1149.09 1951 -929.723C2068.61 -709.64 2053.02 -395.829 1964.08 -156.341C1880.85 67.7762 1642.4 116.603 1498.61 288.441C1372.02 439.721 1344.33 725.31 1174.88 786.795C1005.45 848.27 847.63 661.416 682.415 584.593C531.763 514.542 374.912 476.063 247.26 355.464C97.8417 214.301 -78.2696 63.7709 -110.238 -164.268C-142.281 -392.838 -5.41255 -598.788 84.9242 -802.513C169.301 -992.797 237.52 -1219.92 397.955 -1310.33C554.981 -1398.82 731.875 -1274.9 904.454 -1264.34Z" stroke="#E4E4E4"/>
<path opacity="0.163265" fill-rule="evenodd" clip-rule="evenodd" d="M905.746 -1241.15C1063.45 -1231.5 1216.93 -1276.24 1369.73 -1227.39C1571.8 -1162.79 1813.45 -1128.6 1927.95 -914.351C2042.83 -699.408 2027.6 -392.925 1940.73 -159.03C1859.43 59.8529 1626.53 107.539 1486.09 275.365C1362.44 423.112 1335.4 702.031 1169.88 762.08C1004.4 822.12 850.243 639.629 688.87 564.6C541.722 496.186 388.518 458.605 263.835 340.822C117.892 202.956 -54.1238 55.9412 -85.3489 -166.772C-116.647 -390.005 17.0389 -591.145 105.275 -790.112C187.689 -975.952 254.322 -1197.77 411.026 -1286.07C564.4 -1372.49 737.18 -1251.47 905.746 -1241.15Z" stroke="#E4E4E4"/>
<path opacity="0.183673" fill-rule="evenodd" clip-rule="evenodd" d="M907.038 -1217.97C1060.99 -1208.54 1210.81 -1252.22 1359.97 -1204.53C1557.23 -1141.48 1793.13 -1108.1 1904.91 -898.98C2017.05 -689.176 2002.18 -390.022 1917.38 -161.719C1838.02 51.9296 1610.66 98.4756 1473.56 262.288C1352.86 406.502 1326.46 678.752 1164.89 737.365C1003.34 795.969 852.856 617.842 695.326 544.608C551.681 477.829 402.125 441.147 280.41 326.18C137.942 191.61 -29.978 48.1114 -60.4596 -169.276C-91.0123 -387.171 39.4904 -583.501 125.625 -777.711C206.078 -959.107 271.124 -1175.62 424.097 -1261.81C573.819 -1346.16 742.485 -1228.04 907.038 -1217.97Z" stroke="#E4E4E4"/>
<path opacity="0.204082" fill-rule="evenodd" clip-rule="evenodd" d="M908.33 -1194.78C1058.53 -1185.59 1204.69 -1228.19 1350.22 -1181.68C1542.67 -1120.16 1772.81 -1087.61 1881.86 -883.608C1991.27 -678.943 1976.76 -387.118 1894.03 -164.409C1816.6 44.0063 1594.79 89.4121 1461.03 249.212C1343.28 389.893 1317.52 655.473 1159.89 712.65C1002.28 769.819 855.47 596.055 701.781 524.615C561.64 459.472 415.732 423.689 296.986 311.538C157.992 180.265 -5.83219 40.2816 -35.5703 -171.781C-65.3778 -384.337 61.9418 -575.858 145.976 -765.31C224.466 -942.262 287.926 -1153.47 437.168 -1237.55C583.239 -1319.84 747.79 -1204.6 908.33 -1194.78Z" stroke="#E4E4E4"/>
<path opacity="0.22449" fill-rule="evenodd" clip-rule="evenodd" d="M909.621 -1171.59C1056.07 -1162.63 1198.58 -1204.17 1340.46 -1158.82C1528.1 -1098.85 1752.49 -1067.11 1858.81 -868.236C1965.49 -668.711 1951.34 -384.215 1870.68 -167.098C1795.19 36.083 1578.92 80.3485 1448.51 236.135C1333.7 373.283 1308.58 632.194 1154.89 687.935C1001.22 743.668 858.083 574.268 708.236 504.622C571.599 441.115 429.338 406.23 313.561 296.897C178.042 168.92 18.3136 32.4519 -10.6811 -174.285C-39.7434 -381.504 84.3933 -568.215 166.327 -752.908C242.854 -925.417 304.727 -1131.32 450.239 -1213.29C592.658 -1293.51 753.096 -1181.17 909.621 -1171.59Z" stroke="#E4E4E4"/>
<path opacity="0.244898" fill-rule="evenodd" clip-rule="evenodd" d="M910.913 -1148.41C1053.6 -1139.68 1192.46 -1180.14 1330.71 -1135.96C1513.53 -1077.54 1732.17 -1046.62 1835.77 -852.864C1939.71 -658.479 1925.92 -381.311 1847.33 -169.788C1773.77 28.1597 1563.05 71.2849 1435.98 223.058C1324.11 356.674 1299.64 608.915 1149.89 663.22C1000.17 717.517 860.696 552.481 714.692 484.629C581.558 422.758 442.945 388.772 330.137 282.255C198.093 157.575 42.4594 24.6221 14.2082 -176.789C-14.1089 -378.67 106.845 -560.571 186.677 -740.507C261.243 -908.572 321.529 -1109.17 463.309 -1189.03C602.077 -1267.18 758.401 -1157.74 910.913 -1148.41Z" stroke="#E4E4E4"/>
<path opacity="0.265306" fill-rule="evenodd" clip-rule="evenodd" d="M912.205 -1125.22C1051.14 -1116.72 1186.34 -1156.12 1320.95 -1113.1C1498.97 -1056.23 1711.85 -1026.12 1812.72 -837.492C1913.92 -648.247 1900.5 -378.408 1823.98 -172.477C1752.36 20.2363 1547.18 62.2213 1423.46 209.982C1314.53 340.064 1290.71 585.635 1144.9 638.505C999.111 691.367 863.309 530.694 721.147 464.636C591.517 404.401 456.552 371.314 346.712 267.613C218.143 146.23 66.6052 16.7923 39.0974 -179.293C11.5255 -375.836 129.296 -552.928 207.028 -728.106C279.631 -891.727 338.331 -1087.03 476.38 -1164.77C611.496 -1240.86 763.706 -1134.3 912.205 -1125.22Z" stroke="#E4E4E4"/>
<path opacity="0.285714" fill-rule="evenodd" clip-rule="evenodd" d="M913.497 -1102.03C1048.68 -1093.77 1180.22 -1132.09 1311.2 -1090.25C1484.4 -1034.91 1691.53 -1005.63 1789.67 -822.12C1888.14 -638.015 1875.08 -375.504 1800.62 -175.166C1730.94 12.313 1531.31 53.1577 1410.93 196.905C1304.95 323.455 1281.77 562.356 1139.9 613.79C998.054 665.216 865.923 508.908 727.603 444.643C601.476 386.044 470.159 353.855 363.287 252.971C238.193 134.885 90.751 8.96251 63.9867 -181.798C37.1599 -373.003 151.748 -545.285 227.378 -715.705C298.02 -874.883 355.133 -1064.88 489.451 -1140.51C620.915 -1214.53 769.011 -1110.87 913.497 -1102.03Z" stroke="#E4E4E4"/>
<path opacity="0.306122" fill-rule="evenodd" clip-rule="evenodd" d="M914.789 -1078.85C1046.21 -1070.81 1174.11 -1108.06 1301.44 -1067.39C1469.83 -1013.6 1671.21 -985.133 1766.63 -806.748C1862.36 -627.783 1849.67 -372.601 1777.27 -177.856C1709.53 4.38974 1515.44 44.0941 1398.4 183.828C1295.37 306.845 1272.83 539.077 1134.9 589.075C996.997 639.065 868.536 487.121 734.058 424.651C611.435 367.687 483.765 336.397 379.863 238.329C258.243 123.539 114.897 1.13275 88.876 -184.302C62.7944 -370.169 174.199 -537.641 247.729 -703.304C316.408 -858.038 371.935 -1042.73 502.522 -1116.25C630.334 -1188.2 774.317 -1087.44 914.789 -1078.85Z" stroke="#E4E4E4"/>
<path opacity="0.326531" fill-rule="evenodd" clip-rule="evenodd" d="M916.08 -1055.66C1043.75 -1047.86 1167.99 -1084.04 1291.69 -1044.53C1455.27 -992.289 1650.89 -964.638 1743.58 -791.376C1836.58 -617.551 1824.25 -369.697 1753.92 -180.545C1688.11 -3.53356 1499.57 35.0305 1385.88 170.752C1285.79 290.235 1263.89 515.798 1129.91 564.36C995.94 612.915 871.149 465.334 740.514 404.658C621.394 349.33 497.372 318.939 396.438 223.687C278.293 112.194 139.043 -6.69701 113.765 -186.806C88.4288 -367.335 196.651 -529.998 268.08 -690.903C334.796 -841.193 388.737 -1020.58 515.593 -1091.99C639.753 -1161.88 779.622 -1064.01 916.08 -1055.66Z" stroke="#E4E4E4"/>
<path opacity="0.346939" fill-rule="evenodd" clip-rule="evenodd" d="M917.372 -1032.48C1041.29 -1024.9 1161.87 -1060.01 1281.93 -1021.68C1440.7 -970.976 1630.57 -944.143 1720.53 -776.005C1810.8 -607.319 1798.83 -366.794 1730.57 -183.234C1666.7 -11.4569 1483.7 25.967 1373.35 157.675C1276.2 273.626 1254.95 492.519 1124.91 539.645C994.883 586.764 873.763 443.547 746.969 384.665C631.353 330.973 510.979 301.481 413.013 209.046C298.344 100.849 163.188 -14.5268 138.654 -189.31C114.063 -364.501 219.102 -522.355 288.43 -678.502C353.185 -824.348 405.539 -998.43 528.663 -1067.73C649.172 -1135.55 784.927 -1040.57 917.372 -1032.48Z" stroke="#E4E4E4"/>
<path opacity="0.367347" fill-rule="evenodd" clip-rule="evenodd" d="M918.664 -1009.29C1038.82 -1001.94 1155.75 -1035.99 1272.18 -998.818C1426.13 -949.664 1610.24 -923.649 1697.49 -760.633C1785.02 -597.086 1773.41 -363.89 1707.22 -185.924C1645.28 -19.3802 1467.83 16.9034 1360.83 144.598C1266.62 257.016 1246.02 469.24 1119.91 514.93C993.826 560.614 876.376 421.76 753.425 364.672C641.312 312.617 524.585 284.022 429.589 194.404C318.394 89.5038 187.334 -22.3565 163.544 -191.815C139.698 -361.668 241.553 -514.711 308.781 -666.101C371.573 -807.503 422.34 -976.281 541.734 -1043.47C658.591 -1109.22 790.232 -1017.14 918.664 -1009.29Z" stroke="#E4E4E4"/>
<path opacity="0.387755" fill-rule="evenodd" clip-rule="evenodd" d="M919.956 -986.103C1036.36 -978.989 1149.64 -1011.96 1262.42 -975.961C1411.57 -928.351 1589.92 -903.154 1674.44 -745.261C1759.23 -586.854 1747.99 -360.986 1683.87 -188.613C1623.87 -27.3035 1451.97 7.83981 1348.3 131.522C1257.04 240.407 1237.08 445.961 1114.91 490.215C992.769 534.463 878.989 399.973 759.88 344.679C651.271 294.26 538.192 266.564 446.164 179.762C338.444 78.1587 211.48 -30.1863 188.433 -194.319C165.332 -358.834 264.005 -507.068 329.131 -653.7C389.961 -790.658 439.142 -954.132 554.805 -1019.2C668.01 -1082.89 795.538 -993.706 919.956 -986.103Z" stroke="#E4E4E4"/>
<path opacity="0.408163" fill-rule="evenodd" clip-rule="evenodd" d="M921.247 -962.916C1033.9 -956.033 1143.52 -987.937 1252.66 -953.104C1397 -907.039 1569.6 -882.659 1651.4 -729.889C1733.45 -576.622 1722.57 -358.083 1660.52 -191.303C1602.45 -35.2268 1436.1 -1.22385 1335.78 118.445C1247.46 223.797 1228.14 422.682 1109.92 465.5C991.712 508.312 881.602 378.186 766.336 324.686C661.23 275.903 551.799 249.106 462.739 165.12C358.494 66.8134 235.626 -38.0161 213.322 -196.823C190.967 -356 286.456 -499.425 349.482 -641.299C408.35 -773.813 455.944 -931.983 567.876 -994.944C677.429 -1056.57 800.843 -970.273 921.247 -962.916Z" stroke="#E4E4E4"/>
<path opacity="0.428571" fill-rule="evenodd" clip-rule="evenodd" d="M922.539 -939.73C1031.43 -933.078 1137.4 -963.912 1242.91 -930.247C1382.43 -885.726 1549.28 -862.164 1628.35 -714.517C1707.67 -566.39 1697.15 -355.179 1637.17 -193.992C1581.04 -43.1501 1420.23 -10.2874 1323.25 105.369C1237.88 207.188 1219.2 399.403 1104.92 440.785C990.654 482.162 884.216 356.399 772.791 304.694C671.189 257.546 565.405 231.648 479.315 150.478C378.544 55.4682 259.772 -45.8459 238.212 -199.327C216.601 -353.167 308.908 -491.781 369.833 -628.898C426.738 -756.969 472.746 -909.834 580.947 -970.684C686.848 -1030.24 806.148 -946.84 922.539 -939.73Z" stroke="#E4E4E4"/>
<path opacity="0.44898" fill-rule="evenodd" clip-rule="evenodd" d="M923.831 -916.544C1028.97 -910.122 1131.29 -939.887 1233.15 -907.389C1367.87 -864.414 1528.96 -841.669 1605.3 -699.145C1681.89 -556.158 1671.73 -352.276 1613.82 -196.681C1559.62 -51.0734 1404.36 -19.351 1310.72 92.2919C1228.29 190.578 1210.26 376.124 1099.92 416.07C989.597 456.011 886.829 334.612 779.247 284.701C681.148 239.189 579.012 214.189 495.89 135.836C398.595 44.1231 283.917 -53.6757 263.101 -201.832C242.236 -350.333 331.359 -484.138 390.183 -616.497C445.126 -740.124 489.548 -887.685 594.018 -946.424C696.267 -1003.91 811.453 -923.407 923.831 -916.544Z" stroke="#E4E4E4"/>
<path opacity="0.469388" fill-rule="evenodd" clip-rule="evenodd" d="M925.123 -893.357C1026.51 -887.167 1125.17 -915.861 1223.4 -884.532C1353.3 -843.101 1508.64 -821.174 1582.26 -683.773C1656.11 -545.926 1646.31 -349.372 1590.47 -199.371C1538.21 -58.9967 1388.49 -28.4146 1298.2 79.2153C1218.71 173.969 1201.33 352.845 1094.93 391.355C988.54 429.86 889.442 312.825 785.702 264.708C691.107 220.832 592.619 196.731 512.465 121.194C418.645 32.7779 308.063 -61.5054 287.99 -204.336C267.87 -347.499 353.811 -476.495 410.534 -604.096C463.515 -723.279 506.35 -865.536 607.088 -922.163C705.686 -977.587 816.759 -899.974 925.123 -893.357Z" stroke="#E4E4E4"/>
<path opacity="0.489796" fill-rule="evenodd" clip-rule="evenodd" d="M926.414 -870.171C1024.04 -864.211 1119.05 -891.836 1213.64 -861.675C1338.73 -821.789 1488.32 -800.679 1559.21 -668.402C1630.32 -535.694 1620.89 -346.469 1567.12 -202.06C1516.79 -66.92 1372.62 -37.4781 1285.67 66.1387C1209.13 157.359 1192.39 329.566 1089.93 366.64C987.483 403.71 892.055 291.038 792.158 244.715C701.066 202.475 606.226 179.273 529.041 106.553C438.695 21.4327 332.209 -69.3352 312.879 -206.84C293.504 -344.666 376.262 -468.851 430.884 -591.695C481.903 -706.434 523.152 -843.387 620.159 -897.903C715.105 -951.26 822.064 -876.541 926.414 -870.171Z" stroke="#E4E4E4"/>
<path opacity="0.510204" fill-rule="evenodd" clip-rule="evenodd" d="M927.706 -846.985C1021.58 -841.256 1112.93 -867.81 1203.89 -838.817C1324.17 -800.476 1468 -780.184 1536.16 -653.03C1604.54 -525.461 1595.48 -343.565 1543.77 -204.75C1495.38 -74.8433 1356.75 -46.5417 1273.15 53.0621C1199.55 140.749 1183.45 306.287 1084.93 341.925C986.426 377.559 894.669 269.251 798.613 224.722C711.025 184.118 619.832 161.814 545.616 91.9108C458.745 10.0876 356.355 -77.165 337.769 -209.344C319.139 -341.832 398.714 -461.208 451.235 -579.294C500.291 -689.589 539.953 -821.238 633.23 -873.642C724.524 -924.933 827.369 -853.108 927.706 -846.985Z" stroke="#E4E4E4"/>
<path opacity="0.530612" fill-rule="evenodd" clip-rule="evenodd" d="M928.998 -823.798C1019.12 -818.3 1106.82 -843.785 1194.13 -815.96C1309.6 -779.164 1447.68 -759.689 1513.12 -637.658C1578.76 -515.229 1570.06 -340.662 1520.42 -207.439C1473.96 -82.7667 1340.88 -55.6054 1260.62 39.9854C1189.97 124.14 1174.51 283.007 1079.93 317.21C985.369 351.408 897.282 247.464 805.069 204.729C720.984 165.761 633.439 144.356 562.192 77.2688C478.795 -1.25772 380.501 -84.9948 362.658 -211.849C344.773 -338.998 421.165 -453.565 471.586 -566.893C518.68 -672.744 556.755 -799.089 646.301 -849.382C733.943 -898.606 832.674 -829.675 928.998 -823.798Z" stroke="#E4E4E4"/>
<path opacity="0.55102" fill-rule="evenodd" clip-rule="evenodd" d="M930.29 -800.612C1016.65 -795.345 1100.7 -819.76 1184.38 -793.103C1295.03 -757.851 1427.36 -739.194 1490.07 -622.286C1552.98 -504.997 1544.64 -337.758 1497.07 -210.128C1452.55 -90.69 1325.01 -64.669 1248.09 26.9087C1180.38 107.53 1165.57 259.728 1074.94 292.495C984.312 325.258 899.895 225.678 811.524 184.736C730.943 147.404 647.046 126.898 578.767 62.627C498.846 -12.6029 404.646 -92.8246 387.547 -214.353C370.408 -336.165 443.617 -445.921 491.936 -554.492C537.068 -655.9 573.557 -776.94 659.372 -825.122C743.362 -872.28 837.98 -806.242 930.29 -800.612Z" stroke="#E4E4E4"/>
<path opacity="0.571429" fill-rule="evenodd" clip-rule="evenodd" d="M931.581 -777.426C1014.19 -772.389 1094.58 -795.734 1174.62 -770.246C1280.47 -736.539 1407.04 -718.699 1467.02 -606.914C1527.2 -494.765 1519.22 -334.855 1473.72 -212.818C1431.13 -98.6133 1309.14 -73.7325 1235.57 13.8321C1170.8 90.9207 1156.64 236.449 1069.94 267.78C983.255 299.107 902.508 203.891 817.98 164.744C740.902 129.048 660.652 109.44 595.342 47.9852C518.896 -23.9481 428.792 -100.654 412.436 -216.857C396.042 -333.331 466.068 -438.278 512.287 -542.091C555.456 -639.055 590.359 -754.791 672.442 -800.861C752.781 -845.953 843.285 -782.809 931.581 -777.426Z" stroke="#E4E4E4"/>
<path opacity="0.591837" fill-rule="evenodd" clip-rule="evenodd" d="M932.873 -754.239C1011.73 -749.434 1088.46 -771.709 1164.87 -747.388C1265.9 -715.226 1386.72 -698.204 1443.98 -591.542C1501.42 -484.533 1493.8 -331.951 1450.36 -215.507C1409.72 -106.537 1293.27 -82.7961 1223.04 0.755508C1161.22 74.3111 1147.7 213.17 1064.94 243.066C982.198 272.956 905.122 182.104 824.435 144.751C750.861 110.691 674.259 91.9813 611.918 33.3433C538.946 -35.2932 452.938 -108.484 437.326 -219.361C421.677 -330.497 488.519 -430.634 532.637 -529.69C573.845 -622.21 607.161 -732.642 685.513 -776.601C762.2 -819.626 848.59 -759.376 932.873 -754.239Z" stroke="#E4E4E4"/>
<path opacity="0.612245" fill-rule="evenodd" clip-rule="evenodd" d="M934.165 -731.053C1009.26 -726.478 1082.35 -747.683 1155.11 -724.531C1251.33 -693.914 1366.4 -677.709 1420.93 -576.17C1475.63 -474.301 1468.38 -329.048 1427.01 -218.196C1388.3 -114.46 1277.4 -91.8597 1210.52 -12.3211C1151.64 57.7016 1138.76 189.891 1059.94 218.351C981.141 246.806 907.735 160.317 830.89 124.758C760.82 92.3338 687.866 74.5231 628.493 18.7015C558.996 -46.6384 477.084 -116.314 462.215 -221.866C447.311 -327.664 510.971 -422.991 552.988 -517.289C592.233 -605.365 623.963 -710.493 698.584 -752.341C771.619 -793.299 853.895 -735.943 934.165 -731.053Z" stroke="#E4E4E4"/>
<path opacity="0.632653" fill-rule="evenodd" clip-rule="evenodd" d="M935.457 -707.867C1006.8 -703.523 1076.23 -723.658 1145.35 -701.674C1236.77 -672.601 1346.08 -657.214 1397.88 -560.798C1449.85 -464.069 1442.96 -326.144 1403.66 -220.886C1366.89 -122.383 1261.53 -100.923 1197.99 -25.3978C1142.06 41.092 1129.82 166.612 1054.95 193.636C980.084 220.655 910.348 138.53 837.346 104.765C770.779 73.9768 701.473 57.0648 645.068 4.05961C579.046 -57.9836 501.23 -124.144 487.104 -224.37C472.946 -324.83 533.422 -415.348 573.339 -504.888C610.621 -588.52 640.765 -688.344 711.655 -728.08C781.038 -766.972 859.2 -712.51 935.457 -707.867Z" stroke="#E4E4E4"/>
<path opacity="0.653061" fill-rule="evenodd" clip-rule="evenodd" d="M936.748 -684.68C1004.34 -680.567 1070.11 -699.633 1135.6 -678.817C1222.2 -651.289 1325.76 -636.72 1374.84 -545.427C1424.07 -453.837 1417.54 -323.241 1380.31 -223.575C1345.47 -130.307 1245.66 -109.987 1185.47 -38.4744C1132.47 24.4824 1120.88 143.333 1049.95 168.921C979.027 194.504 912.961 116.743 843.801 84.7723C780.738 55.62 715.079 39.6065 661.644 -10.5822C599.097 -69.3288 525.376 -131.973 511.993 -226.874C498.58 -321.996 555.874 -407.704 593.689 -492.487C629.01 -571.675 657.566 -666.195 724.726 -703.82C790.457 -740.645 864.506 -689.077 936.748 -684.68Z" stroke="#E4E4E4"/>
<path opacity="0.673469" fill-rule="evenodd" clip-rule="evenodd" d="M938.04 -661.494C1001.87 -657.612 1063.99 -675.607 1125.84 -655.959C1207.63 -629.976 1305.44 -616.225 1351.79 -530.055C1398.29 -443.604 1392.12 -320.337 1356.96 -226.265C1324.06 -138.23 1229.79 -119.05 1172.94 -51.551C1122.89 7.87288 1111.95 120.054 1044.95 144.206C977.97 168.354 915.575 94.9561 850.257 64.7795C790.697 37.2631 728.686 22.1482 678.219 -25.2241C619.147 -80.674 549.521 -139.803 536.883 -229.378C524.214 -319.163 578.325 -400.061 614.04 -480.086C647.398 -554.83 674.368 -644.046 737.796 -679.559C799.876 -714.318 869.811 -665.644 938.04 -661.494Z" stroke="#E4E4E4"/>
<path opacity="0.693878" fill-rule="evenodd" clip-rule="evenodd" d="M939.332 -638.308C999.411 -634.656 1057.88 -651.582 1116.09 -633.102C1193.07 -608.664 1285.12 -595.73 1328.74 -514.683C1372.51 -433.372 1366.7 -317.434 1333.61 -228.954C1302.64 -146.153 1213.92 -128.114 1160.41 -64.6277C1113.31 -8.73672 1103.01 96.7749 1039.96 119.491C976.913 142.203 918.188 73.1691 856.712 44.7867C800.656 18.9061 742.293 4.68993 694.794 -39.8659C639.197 -92.0192 573.667 -147.633 561.772 -231.883C549.849 -316.329 600.777 -392.418 634.39 -467.684C665.786 -537.986 691.17 -621.897 750.867 -655.299C809.295 -687.991 875.116 -642.211 939.332 -638.308Z" stroke="#E4E4E4"/>
<path opacity="0.714286" fill-rule="evenodd" clip-rule="evenodd" d="M940.624 -615.121C996.948 -611.701 1051.76 -627.556 1106.33 -610.245C1178.5 -587.351 1264.8 -575.235 1305.7 -499.311C1346.73 -423.14 1341.29 -314.53 1310.26 -231.643C1281.23 -154.077 1198.05 -137.178 1147.89 -77.7043C1103.73 -25.3463 1094.07 73.4959 1034.96 94.7758C975.856 116.053 920.801 51.3822 863.168 24.7938C810.615 0.549255 755.899 -12.7683 711.37 -54.5078C659.247 -103.364 597.813 -155.463 586.661 -234.387C575.483 -313.495 623.228 -384.774 654.741 -455.283C684.175 -521.141 707.972 -599.748 763.938 -631.039C818.714 -661.664 880.421 -618.778 940.624 -615.121Z" stroke="#E4E4E4"/>
<path opacity="0.734694" fill-rule="evenodd" clip-rule="evenodd" d="M941.915 -591.935C994.485 -588.745 1045.64 -603.531 1096.58 -587.387C1163.93 -566.039 1244.48 -554.74 1282.65 -483.939C1320.94 -412.908 1315.87 -311.627 1286.91 -234.333C1259.81 -162 1182.18 -146.241 1135.36 -90.7809C1094.15 -41.9558 1085.13 50.2168 1029.96 70.0608C974.799 89.9019 923.414 29.5953 869.623 4.80102C820.574 -17.8076 769.506 -30.2266 727.945 -69.1496C679.297 -114.71 621.959 -163.292 611.55 -236.891C601.118 -310.661 645.68 -377.131 675.092 -442.882C702.563 -504.296 724.774 -577.599 777.009 -606.778C828.133 -635.338 885.727 -595.344 941.915 -591.935Z" stroke="#E4E4E4"/>
<path opacity="0.755102" fill-rule="evenodd" clip-rule="evenodd" d="M943.207 -568.749C992.022 -565.79 1039.53 -579.506 1086.82 -564.53C1149.37 -544.726 1224.16 -534.245 1259.6 -468.567C1295.16 -402.676 1290.45 -308.723 1263.56 -237.022C1238.4 -169.923 1166.31 -155.305 1122.84 -103.858C1084.57 -58.5654 1076.19 26.9377 1024.96 45.3458C973.742 63.7512 926.028 7.80833 876.079 -15.1919C830.533 -36.1646 783.113 -47.6849 744.52 -83.7915C699.347 -126.055 646.105 -171.122 636.44 -239.395C626.752 -307.828 668.131 -369.488 695.442 -430.481C720.951 -487.451 741.576 -555.45 790.08 -582.518C837.553 -609.011 891.032 -571.911 943.207 -568.749Z" stroke="#E4E4E4"/>
<path opacity="0.77551" fill-rule="evenodd" clip-rule="evenodd" d="M944.499 -545.562C989.559 -542.834 1033.41 -555.48 1077.07 -541.673C1134.8 -523.414 1203.84 -513.75 1236.56 -453.195C1269.38 -392.444 1265.03 -305.82 1240.21 -239.712C1216.98 -177.846 1150.44 -164.368 1110.31 -116.934C1074.98 -75.175 1067.26 3.65863 1019.97 20.6309C972.685 37.6006 928.641 -13.9786 882.534 -35.1847C840.492 -54.5214 796.72 -65.1432 761.096 -98.4333C719.398 -137.4 670.25 -178.952 661.329 -241.9C652.387 -304.994 690.583 -361.844 715.793 -418.08C739.34 -470.606 758.378 -533.301 803.15 -558.258C846.972 -582.684 896.337 -548.478 944.499 -545.562Z" stroke="#E4E4E4"/>
<path opacity="0.795918" fill-rule="evenodd" clip-rule="evenodd" d="M945.791 -522.376C987.095 -519.879 1027.29 -531.455 1067.31 -518.816C1120.23 -502.101 1183.52 -493.255 1213.51 -437.824C1243.6 -382.212 1239.61 -302.916 1216.86 -242.401C1195.57 -185.77 1134.57 -173.432 1097.78 -130.011C1065.4 -91.7845 1058.32 -19.6205 1014.97 -4.08411C971.628 11.45 931.254 -35.7655 888.99 -55.1775C850.451 -72.8784 810.326 -82.6015 777.671 -113.075C739.448 -148.745 694.396 -186.782 686.218 -244.404C678.021 -302.16 713.034 -354.201 736.143 -405.679C757.728 -453.761 775.18 -511.152 816.221 -533.997C856.391 -556.357 901.642 -525.045 945.791 -522.376Z" stroke="#E4E4E4"/>
</g>
</g>
</svg>
