<?xml version="1.0" standalone="no"?>
<svg viewBox="0 0 200 200" xmlns="http://www.w3.org/2000/svg">
  <path fill="#FFBE3D" d="M48.8,-74.2C62.6,-67.1,72.5,-52.4,80,-36.4C87.4,-20.5,92.3,-3.2,89,12.1C85.6,27.4,74.1,40.8,62.4,53.9C50.8,67.1,39,80.1,24.4,85.6C9.7,91.1,-8,89.2,-22.9,82.6C-37.8,76.1,-49.9,64.9,-58,52.2C-66.2,39.4,-70.4,25.1,-73.2,10.1C-76.1,-4.9,-77.7,-20.6,-74.2,-36.3C-70.8,-52.1,-62.3,-68,-49.1,-75.3C-35.9,-82.7,-18,-81.5,-0.2,-81.2C17.5,-80.8,35,-81.3,48.8,-74.2Z" transform="translate(100 100)" />
</svg>
