<svg width="1892" height="591" viewBox="0 0 1892 591" fill="none" xmlns="http://www.w3.org/2000/svg">
<path d="M1347.03 160.62C1345.76 160.418 1344.82 159.426 1344.67 158.115C1344.51 156.804 1345.17 155.438 1346.33 154.667C1346.99 154.231 1347.65 153.871 1348.24 153.553C1349.99 152.602 1350.33 152.32 1350.5 151.662C1350.67 151.003 1350.5 150.641 1349.35 149.231C1348.06 147.642 1346.11 145.241 1347.12 141.285C1348.14 137.33 1351.13 135.711 1353.11 134.639C1354.86 133.688 1355.2 133.405 1355.37 132.747C1355.54 132.089 1355.37 131.725 1354.22 130.312C1352.93 128.723 1350.98 126.321 1351.99 122.366C1353.01 118.411 1356 116.79 1357.98 115.718C1358.38 115.499 1358.76 115.292 1359.1 115.086C1360.69 114.101 1362.62 114.541 1363.41 116.068C1364.2 117.596 1363.55 119.633 1361.96 120.618C1361.45 120.935 1360.95 121.2 1360.48 121.459C1358.72 122.41 1358.39 122.692 1358.22 123.354C1358.05 124.015 1358.22 124.376 1359.36 125.789C1360.66 127.378 1362.61 129.78 1361.59 133.735C1360.57 137.69 1357.58 139.309 1355.61 140.382C1353.85 141.333 1353.52 141.616 1353.35 142.274C1353.18 142.931 1353.35 143.295 1354.5 144.705C1355.79 146.293 1357.74 148.695 1356.72 152.649C1355.7 156.604 1352.72 158.224 1350.74 159.297C1350.25 159.564 1349.78 159.817 1349.4 160.068C1348.68 160.55 1347.83 160.747 1347.03 160.62Z" fill="#07DFE0"/>
<path d="M1427.6 445.923C1426.91 444.462 1427.09 442.871 1428.07 441.837C1429.06 440.802 1430.66 440.507 1432.2 441.08L1440.74 444.26L1444.41 437.191C1445.23 435.628 1447.16 435.012 1449.05 435.714L1457.6 438.894L1461.27 431.825C1462.09 430.262 1464.02 429.645 1465.91 430.348L1477.7 434.735C1479.13 435.265 1480.27 436.455 1480.69 437.858C1481.12 439.26 1480.77 440.661 1479.77 441.534C1478.77 442.406 1477.28 442.617 1475.85 442.087L1467.31 438.909L1463.63 445.979C1462.81 447.542 1460.88 448.159 1458.99 447.456L1450.44 444.277L1446.77 451.345C1445.96 452.908 1444.02 453.525 1442.13 452.822L1430.34 448.433C1429.15 447.986 1428.14 447.064 1427.6 445.923Z" fill="#FF5858"/>
<path d="M1557.65 380.669C1549.41 380.669 1541.99 376.251 1538.84 369.474C1535.69 362.698 1537.43 354.898 1543.25 349.711C1549.08 344.525 1557.83 342.973 1565.44 345.78C1573.04 348.587 1578 355.2 1578 362.535C1577.99 372.545 1568.88 380.658 1557.65 380.669ZM1557.65 352.284C1551.29 352.284 1546.14 356.874 1546.14 362.535C1546.14 368.195 1551.29 372.785 1557.65 372.785C1564 372.785 1569.15 368.195 1569.15 362.535C1569.14 356.876 1564 352.29 1557.65 352.284Z" fill="#18DE74"/>
<path d="M1481.8 282.947C1479.92 282.386 1479.09 280.389 1479.96 278.47L1491.37 253.258C1492.24 251.325 1494.5 250.198 1496.41 250.742L1521.34 257.84C1522.74 258.238 1523.62 259.451 1523.56 260.912C1523.51 262.373 1522.53 263.795 1521.09 264.515L1484.75 282.63C1483.79 283.108 1482.73 283.222 1481.8 282.947ZM1496.71 258.732L1490.71 271.988L1509.82 262.464L1496.71 258.732Z" fill="#FD4EC7"/>
<path d="M384.146 430.564C382.969 431.594 381.222 431.939 379.656 431.45C378.09 430.962 376.984 429.726 376.814 428.276L375.874 420.225L366.689 419.399C364.657 419.216 363.051 417.808 362.842 416.026L361.9 407.972L352.714 407.145C350.682 406.963 349.076 405.554 348.867 403.772L347.566 392.658C347.409 391.315 348.081 390.001 349.328 389.21C350.576 388.42 352.21 388.273 353.614 388.825C355.019 389.377 355.981 390.544 356.139 391.887L357.085 399.944L366.274 400.774C368.306 400.957 369.912 402.365 370.121 404.146L371.063 412.2L380.248 413.026C382.28 413.209 383.887 414.617 384.095 416.399L385.392 427.51C385.522 428.641 385.065 429.763 384.146 430.564Z" fill="#9C5CFF"/>
<path d="M437.738 294.097C436.968 294.871 435.896 295.359 434.756 295.453C433.616 295.547 432.502 295.238 431.66 294.596C427.101 291.118 420.025 291.699 415.857 295.894C411.689 300.088 412.006 306.307 416.565 309.784C418.319 311.122 418.441 313.513 416.838 315.127C415.234 316.74 412.513 316.963 410.76 315.626C402.693 309.474 402.132 298.471 409.507 291.05C416.881 283.63 429.399 282.602 437.466 288.754C438.308 289.396 438.81 290.32 438.861 291.322C438.912 292.324 438.508 293.322 437.738 294.097Z" fill="#FFCD45"/>
<path d="M337.174 173.57C336.332 173.394 335.637 172.868 335.242 172.107C334.848 171.345 334.786 170.411 335.07 169.509L342.774 145.041C343.365 143.164 345.265 141.938 347.018 142.303C348.771 142.668 349.713 144.485 349.122 146.362L341.418 170.83C341.135 171.732 340.528 172.527 339.732 173.041C338.936 173.555 338.016 173.745 337.174 173.57Z" fill="#3798FA"/>
</svg>
