<svg width="1892" height="591" viewBox="0 0 1892 591" fill="none" xmlns="http://www.w3.org/2000/svg">
<path d="M1406.69 164.62C1405.42 164.418 1404.48 163.426 1404.33 162.115C1404.17 160.804 1404.83 159.438 1405.99 158.667C1406.65 158.231 1407.31 157.871 1407.9 157.553C1409.65 156.602 1409.99 156.32 1410.16 155.662C1410.33 155.003 1410.16 154.641 1409.01 153.231C1407.72 151.642 1405.77 149.241 1406.79 145.285C1407.8 141.33 1410.79 139.711 1412.77 138.639C1414.52 137.688 1414.86 137.405 1415.03 136.747C1415.2 136.089 1415.03 135.725 1413.88 134.312C1412.59 132.723 1410.64 130.321 1411.65 126.366C1412.67 122.411 1415.66 120.79 1417.64 119.718C1418.04 119.499 1418.42 119.292 1418.76 119.086C1420.35 118.101 1422.28 118.541 1423.07 120.068C1423.86 121.596 1423.21 123.633 1421.62 124.618C1421.11 124.935 1420.62 125.2 1420.14 125.459C1418.39 126.41 1418.05 126.692 1417.88 127.354C1417.71 128.015 1417.88 128.376 1419.02 129.789C1420.32 131.378 1422.27 133.78 1421.25 137.735C1420.23 141.69 1417.25 143.309 1415.27 144.382C1413.52 145.333 1413.18 145.616 1413.01 146.274C1412.84 146.931 1413.01 147.295 1414.16 148.705C1415.45 150.293 1417.4 152.695 1416.38 156.649C1415.37 160.604 1412.38 162.224 1410.4 163.297C1409.91 163.564 1409.44 163.817 1409.06 164.068C1408.34 164.55 1407.49 164.747 1406.69 164.62Z" fill="#07DFE0"/>
<path d="M1427.6 445.923C1426.91 444.462 1427.09 442.871 1428.07 441.837C1429.06 440.802 1430.66 440.507 1432.2 441.08L1440.74 444.26L1444.41 437.191C1445.23 435.628 1447.16 435.012 1449.05 435.714L1457.6 438.894L1461.27 431.825C1462.09 430.262 1464.02 429.645 1465.91 430.348L1477.7 434.735C1479.13 435.265 1480.27 436.455 1480.69 437.858C1481.12 439.26 1480.77 440.661 1479.77 441.534C1478.77 442.406 1477.28 442.617 1475.85 442.087L1467.31 438.909L1463.63 445.979C1462.81 447.542 1460.88 448.159 1458.99 447.456L1450.44 444.277L1446.77 451.345C1445.96 452.908 1444.02 453.525 1442.13 452.822L1430.34 448.433C1429.15 447.986 1428.14 447.064 1427.6 445.923Z" fill="#FF5858"/>
<path d="M1481.8 282.947C1479.92 282.386 1479.09 280.389 1479.96 278.47L1491.37 253.258C1492.24 251.325 1494.5 250.198 1496.41 250.742L1521.34 257.84C1522.74 258.238 1523.62 259.451 1523.56 260.912C1523.51 262.373 1522.53 263.795 1521.09 264.515L1484.75 282.63C1483.79 283.108 1482.73 283.222 1481.8 282.947ZM1496.71 258.732L1490.71 271.988L1509.82 262.464L1496.71 258.732Z" fill="#5B3DD1"/>
<path d="M384.146 430.564C382.969 431.594 381.222 431.939 379.656 431.45C378.09 430.962 376.984 429.726 376.814 428.276L375.874 420.225L366.689 419.399C364.657 419.216 363.051 417.808 362.842 416.026L361.9 407.972L352.714 407.145C350.682 406.963 349.076 405.554 348.867 403.772L347.566 392.658C347.409 391.315 348.081 390.001 349.328 389.21C350.576 388.42 352.21 388.273 353.614 388.825C355.019 389.377 355.981 390.544 356.139 391.887L357.085 399.944L366.274 400.774C368.306 400.957 369.912 402.365 370.121 404.146L371.063 412.2L380.248 413.026C382.28 413.209 383.887 414.617 384.095 416.399L385.392 427.51C385.522 428.641 385.065 429.763 384.146 430.564Z" fill="#9C5CFF"/>
<path d="M437.738 294.097C436.968 294.871 435.896 295.359 434.756 295.453C433.616 295.547 432.502 295.238 431.66 294.596C427.101 291.118 420.025 291.699 415.857 295.894C411.689 300.088 412.006 306.307 416.565 309.784C418.319 311.122 418.441 313.513 416.838 315.127C415.234 316.74 412.513 316.963 410.76 315.626C402.693 309.474 402.132 298.471 409.507 291.05C416.881 283.63 429.399 282.602 437.466 288.754C438.308 289.396 438.81 290.32 438.861 291.322C438.912 292.324 438.508 293.322 437.738 294.097Z" fill="#FFCD45"/>
<path d="M337.174 173.57C336.332 173.394 335.637 172.868 335.242 172.107C334.848 171.345 334.786 170.411 335.07 169.509L342.774 145.041C343.365 143.164 345.265 141.938 347.018 142.303C348.771 142.668 349.713 144.485 349.122 146.362L341.418 170.83C341.135 171.732 340.528 172.527 339.732 173.041C338.936 173.555 338.016 173.745 337.174 173.57Z" fill="#3798FA"/>
<path d="M1618.11 462C1631.69 462 1642.7 451.002 1642.7 437.435C1642.7 423.868 1631.69 412.87 1618.11 412.87C1604.53 412.87 1593.52 423.868 1593.52 437.435C1593.52 451.002 1604.53 462 1618.11 462Z" fill="#FFF7F1"/>
<path d="M1656.15 407.14L1638.42 392.564C1636.49 390.998 1634.08 390.155 1631.59 390.182H1518.73C1514.03 390.182 1509.52 388.316 1506.19 384.994C1502.87 381.673 1501 377.168 1501 372.471V308.711C1501 304.014 1502.87 299.509 1506.19 296.187C1509.52 292.866 1514.03 291 1518.73 291H1642.24C1646.94 291 1651.45 292.866 1654.78 296.187C1658.11 299.509 1659.97 304.014 1659.97 308.711V405.236C1659.97 405.679 1659.85 406.114 1659.62 406.491C1659.38 406.868 1659.05 407.172 1658.65 407.37C1658.26 407.568 1657.81 407.651 1657.37 407.61C1656.93 407.57 1656.51 407.407 1656.15 407.14V407.14Z" fill="white"/>
<path d="M1577.43 312.058H1522.08C1520.14 312.058 1518.57 313.629 1518.57 315.565V315.574C1518.57 317.511 1520.14 319.081 1522.08 319.081H1577.43C1579.37 319.081 1580.94 317.511 1580.94 315.574V315.565C1580.94 313.629 1579.37 312.058 1577.43 312.058Z" fill="#FFB6CB"/>
<path d="M1611.4 312.058H1589.43C1587.49 312.058 1585.92 313.629 1585.92 315.565V315.574C1585.92 317.511 1587.49 319.081 1589.43 319.081H1611.4C1613.34 319.081 1614.91 317.511 1614.91 315.574V315.565C1614.91 313.629 1613.34 312.058 1611.4 312.058Z" fill="#FFB6CB"/>
<path d="M1636.87 312.058H1623.1C1621.16 312.058 1619.59 313.629 1619.59 315.565V315.574C1619.59 317.511 1621.16 319.081 1623.1 319.081H1636.87C1638.81 319.081 1640.38 317.511 1640.38 315.574V315.565C1640.38 313.629 1638.81 312.058 1636.87 312.058Z" fill="#FFB6CB"/>
<path d="M1594.11 328.441H1522.08C1520.14 328.441 1518.57 330.011 1518.57 331.948V331.957C1518.57 333.894 1520.14 335.464 1522.08 335.464H1594.11C1596.05 335.464 1597.62 333.894 1597.62 331.957V331.948C1597.62 330.011 1596.05 328.441 1594.11 328.441Z" fill="#E5EAF6"/>
<path d="M1636.87 328.441H1607.29C1605.35 328.441 1603.78 330.011 1603.78 331.948V331.957C1603.78 333.894 1605.35 335.464 1607.29 335.464H1636.87C1638.81 335.464 1640.38 333.894 1640.38 331.957V331.948C1640.38 330.011 1638.81 328.441 1636.87 328.441Z" fill="#E5EAF6"/>
<path d="M1577.23 351.837H1636.87C1638.81 351.837 1640.38 350.267 1640.38 348.331V348.322C1640.38 346.385 1638.81 344.815 1636.87 344.815H1577.23C1575.29 344.815 1573.72 346.385 1573.72 348.322V348.331C1573.72 350.267 1575.29 351.837 1577.23 351.837Z" fill="#6AD5E1"/>
<path d="M1545.2 351.837H1565.22C1567.16 351.837 1568.73 350.267 1568.73 348.331V348.322C1568.73 346.385 1567.16 344.815 1565.22 344.815H1545.2C1543.27 344.815 1541.69 346.385 1541.69 348.322V348.331C1541.69 350.267 1543.27 351.837 1545.2 351.837Z" fill="#6AD5E1"/>
<path d="M1522.07 351.837H1533.5C1535.44 351.837 1537.01 350.267 1537.01 348.331V348.322C1537.01 346.385 1535.44 344.815 1533.5 344.815H1522.07C1520.14 344.815 1518.56 346.385 1518.56 348.322V348.331C1518.56 350.267 1520.14 351.837 1522.07 351.837Z" fill="#6AD5E1"/>
<path d="M1568.45 361.198H1522.08C1520.14 361.198 1518.57 362.768 1518.57 364.704V364.713C1518.57 366.65 1520.14 368.22 1522.08 368.22H1568.45C1570.39 368.22 1571.96 366.65 1571.96 364.713V364.704C1571.96 362.768 1570.39 361.198 1568.45 361.198Z" fill="#E5EAF6"/>
<path d="M1606.71 361.198H1580.45C1578.51 361.198 1576.94 362.768 1576.94 364.704V364.713C1576.94 366.65 1578.51 368.22 1580.45 368.22H1606.71C1608.65 368.22 1610.22 366.65 1610.22 364.713V364.704C1610.22 362.768 1608.65 361.198 1606.71 361.198Z" fill="#E5EAF6"/>
<path d="M1636.87 361.198H1618.42C1616.48 361.198 1614.91 362.768 1614.91 364.704V364.713C1614.91 366.65 1616.48 368.22 1618.42 368.22H1636.87C1638.81 368.22 1640.38 366.65 1640.38 364.713V364.704C1640.38 362.768 1638.81 361.198 1636.87 361.198Z" fill="#E5EAF6"/>
<path d="M1618.11 424.488C1620.67 424.488 1623.18 425.247 1625.31 426.67C1627.44 428.093 1629.1 430.115 1630.08 432.48C1631.07 434.846 1631.32 437.449 1630.82 439.961C1630.32 442.472 1629.09 444.779 1627.27 446.589C1625.46 448.4 1623.15 449.633 1620.64 450.133C1618.12 450.632 1615.52 450.376 1613.15 449.396C1610.78 448.416 1608.76 446.757 1607.33 444.628C1605.91 442.498 1605.15 439.995 1605.15 437.435C1605.14 435.734 1605.48 434.049 1606.13 432.477C1606.78 430.906 1607.73 429.477 1608.94 428.275C1610.14 427.072 1611.57 426.119 1613.15 425.469C1614.72 424.819 1616.41 424.486 1618.11 424.488V424.488ZM1618.11 423.08C1615.27 423.08 1612.49 423.922 1610.12 425.499C1607.76 427.077 1605.92 429.318 1604.83 431.941C1603.74 434.564 1603.46 437.451 1604.01 440.235C1604.57 443.02 1605.94 445.578 1607.95 447.585C1609.96 449.593 1612.52 450.96 1615.31 451.514C1618.09 452.068 1620.98 451.783 1623.61 450.697C1626.23 449.61 1628.48 447.77 1630.06 445.41C1631.64 443.049 1632.48 440.274 1632.48 437.435C1632.48 433.629 1630.96 429.981 1628.27 427.29C1625.57 424.599 1621.92 423.085 1618.11 423.08V423.08Z" fill="#FF92AF"/>
<path d="M1613.21 431.803C1613.39 431.803 1613.57 431.876 1613.7 432.008C1613.83 432.139 1613.91 432.317 1613.91 432.502C1613.91 432.688 1613.83 432.866 1613.7 432.997C1613.57 433.128 1613.39 433.202 1613.21 433.202C1613.02 433.202 1612.84 433.128 1612.71 432.997C1612.58 432.866 1612.51 432.688 1612.51 432.502C1612.51 432.317 1612.58 432.139 1612.71 432.008C1612.84 431.876 1613.02 431.803 1613.21 431.803V431.803ZM1613.21 430.403C1612.79 430.403 1612.38 430.527 1612.04 430.757C1611.69 430.988 1611.42 431.316 1611.26 431.699C1611.11 432.083 1611.06 432.505 1611.15 432.912C1611.23 433.319 1611.43 433.693 1611.72 433.986C1612.01 434.28 1612.39 434.48 1612.8 434.561C1613.2 434.642 1613.63 434.6 1614.01 434.441C1614.39 434.282 1614.72 434.013 1614.95 433.668C1615.18 433.323 1615.31 432.917 1615.31 432.502C1615.3 431.951 1615.07 431.425 1614.68 431.038C1614.29 430.65 1613.76 430.432 1613.21 430.43V430.403Z" fill="#FF92AF"/>
<path d="M1609.63 438.125C1609.53 438.135 1609.43 438.166 1609.34 438.218C1609.25 438.27 1609.18 438.34 1609.12 438.425C1609.06 438.509 1609.02 438.606 1609.01 438.707C1608.99 438.808 1608.99 438.912 1609.02 439.011C1610.01 442.5 1613.22 446.202 1618.11 446.175C1622.99 446.149 1626.22 442.5 1627.2 439.011C1627.22 438.922 1627.23 438.829 1627.22 438.737C1627.21 438.646 1627.18 438.557 1627.13 438.476C1627.09 438.396 1627.03 438.325 1626.95 438.268C1626.88 438.21 1626.8 438.168 1626.71 438.143C1626.62 438.118 1626.53 438.111 1626.43 438.122C1626.34 438.133 1626.25 438.162 1626.17 438.207C1626.09 438.252 1626.02 438.313 1625.96 438.386C1625.91 438.458 1625.87 438.541 1625.84 438.63C1625.01 441.606 1622.29 444.829 1618.11 444.776C1613.92 444.723 1611.21 441.606 1610.38 438.63C1610.33 438.471 1610.24 438.331 1610.1 438.237C1609.96 438.143 1609.8 438.1 1609.63 438.117V438.125Z" fill="#FF92AF"/>
<path d="M1623.01 431.803C1622.83 431.803 1622.65 431.876 1622.52 432.008C1622.39 432.139 1622.31 432.317 1622.31 432.502C1622.31 432.688 1622.39 432.866 1622.52 432.997C1622.65 433.128 1622.83 433.202 1623.01 433.202C1623.2 433.202 1623.38 433.128 1623.51 432.997C1623.64 432.866 1623.71 432.688 1623.71 432.502C1623.71 432.317 1623.64 432.139 1623.51 432.008C1623.38 431.876 1623.2 431.803 1623.01 431.803V431.803ZM1623.01 430.403C1623.43 430.403 1623.83 430.527 1624.18 430.757C1624.52 430.988 1624.79 431.316 1624.95 431.699C1625.11 432.083 1625.15 432.505 1625.07 432.912C1624.99 433.319 1624.79 433.693 1624.5 433.986C1624.2 434.28 1623.83 434.48 1623.42 434.561C1623.01 434.642 1622.59 434.6 1622.21 434.441C1621.82 434.282 1621.5 434.013 1621.26 433.668C1621.03 433.323 1620.91 432.917 1620.91 432.502C1620.92 431.951 1621.15 431.425 1621.54 431.038C1621.93 430.65 1622.46 430.432 1623.01 430.43V430.403Z" fill="#FF92AF"/>
<path d="M317.076 215H206.924C198.129 215 191 222.101 191 230.86V342.14C191 350.899 198.129 358 206.924 358H317.076C325.871 358 333 350.899 333 342.14V230.86C333 222.101 325.871 215 317.076 215Z" fill="white"/>
<path d="M292.745 326.653H231.247C229.506 326.653 228.094 328.059 228.094 329.793V329.801C228.094 331.536 229.506 332.941 231.247 332.941H292.745C294.486 332.941 295.898 331.536 295.898 329.801V329.793C295.898 328.059 294.486 326.653 292.745 326.653Z" fill="#F3F5FB"/>
<path d="M283.063 295.195H240.929C239.174 295.195 237.752 296.612 237.752 298.359V300.936C237.752 302.684 239.174 304.1 240.929 304.1H283.063C284.817 304.1 286.24 302.684 286.24 300.936V298.359C286.24 296.612 284.817 295.195 283.063 295.195Z" fill="#E5EAF6"/>
<path d="M299.115 314.108H224.878C223.137 314.108 221.725 315.514 221.725 317.248V317.256C221.725 318.991 223.137 320.396 224.878 320.396H299.115C300.856 320.396 302.267 318.991 302.267 317.256V317.248C302.267 315.514 300.856 314.108 299.115 314.108Z" fill="#F3F5FB"/>
<path d="M261.996 276.869C274.194 276.869 284.082 267.021 284.082 254.872C284.082 242.723 274.194 232.874 261.996 232.874C249.798 232.874 239.91 242.723 239.91 254.872C239.91 267.021 249.798 276.869 261.996 276.869Z" fill="#DCF4F7"/>
<path d="M269.544 268.63L268.174 264.467C268.039 261.996 267.7 259.54 267.163 257.124V257.124C267.163 256.331 267.06 254.134 266.956 253.484C266.961 253.447 266.961 253.41 266.956 253.373C267.545 251.478 269.114 246.878 269.241 246.72C269.369 246.561 269.146 246.085 268.771 246.085C267.867 246.286 267.055 246.78 266.462 247.489C266.63 244.071 267.028 241.042 267.028 240.883C267.028 240.725 266.94 240.17 266.63 240.17C265.458 240.676 264.516 241.597 263.986 242.755L263.039 239.337C263.039 239.147 262.896 238.877 262.681 238.877C261.224 238.877 260.969 241.629 260.969 242.2C260.969 242.461 261.351 244.642 261.765 246.958L261.829 247.291L261.972 248.084L262.227 249.479L262.434 250.455C262.529 250.946 262.617 251.39 262.697 251.763V251.906C261.549 251.038 260.326 250.274 259.042 249.622C258.684 249.622 252.354 252.794 251.407 253.983C251.215 253.983 250.531 254.205 250.531 254.435C250.531 254.665 253.827 260.541 254.44 261.097C255.053 261.652 258.946 264.871 258.946 264.871C259.114 265.585 260.38 269.629 260.348 270.327H269.902L269.544 268.63ZM266.462 247.513C266.462 247.996 266.415 249.892 266.399 250.843C266.383 249.717 266.415 248.583 266.462 247.513ZM261.908 256.767C261.908 256.894 258.477 259.4 257.927 259.4C257.378 259.4 254.599 255.173 253.23 254.523C254.567 254.816 258.286 252.937 258.445 252.937C258.604 252.937 261.415 254.919 261.55 255.046C261.747 255.601 261.868 256.18 261.908 256.767V256.767Z" fill="#FCCB5B"/>
<path d="M263.039 239.337C263.039 239.535 266.869 252.818 266.964 253.484" stroke="#FF7F9A" stroke-width="0.4" stroke-miterlimit="10"/>
<path d="M251.462 253.975C251.773 254.118 253.158 254.515 253.325 254.57" stroke="#FF7F9A" stroke-width="0.4" stroke-miterlimit="10"/>
<path d="M269.918 270.319L269.56 268.63C269.023 267.27 268.566 265.88 268.19 264.467C268.19 263.888 267.697 256.148 266.001 254.459C263.896 252.591 261.585 250.965 259.114 249.614C258.755 249.614 252.426 252.786 251.478 253.975C251.287 253.975 250.603 254.197 250.603 254.427C250.603 254.657 253.899 260.533 254.512 261.089C255.125 261.644 259.018 264.863 259.018 264.863C259.185 265.577 260.451 269.621 260.42 270.319M269.544 268.63C269.007 267.27 268.55 265.88 268.174 264.467L269.544 268.63ZM253.198 254.523C254.536 254.816 258.254 252.937 258.413 252.937C258.572 252.937 261.383 254.919 261.518 255.046C261.723 255.589 261.855 256.157 261.908 256.735C261.908 256.862 258.477 259.368 257.927 259.368C257.378 259.368 254.568 255.173 253.198 254.523Z" stroke="#FF7F9A" stroke-width="0.4" stroke-miterlimit="10"/>
<path d="M262.752 251.89C262.195 249.321 260.969 242.667 260.969 242.2C260.969 241.732 261.224 238.877 262.681 238.877C262.896 238.877 263.023 239.147 263.039 239.337C263.055 239.527 266.869 252.818 266.964 253.484C267.06 254.15 267.163 256.315 267.171 257.124" stroke="#FF7F9A" stroke-width="0.4" stroke-miterlimit="10"/>
<path d="M263.986 242.755C264.511 241.583 265.457 240.65 266.638 240.138C266.948 240.138 267.036 240.614 267.036 240.852C266.612 244.348 266.407 247.868 266.423 251.39" stroke="#FF7F9A" stroke-width="0.4" stroke-miterlimit="10"/>
<path d="M266.463 247.457C267.056 246.748 267.868 246.255 268.772 246.053C269.146 246.053 269.401 246.45 269.242 246.688C269.082 246.926 267.546 251.446 266.941 253.381" stroke="#FF7F9A" stroke-width="0.4" stroke-miterlimit="10"/>
</svg>
