<svg width="188" height="179" viewBox="0 0 188 179" fill="none" xmlns="http://www.w3.org/2000/svg">
<g clip-path="url(#clip0)">
<path d="M3.824 58.225C3.882 58.343 3.882 58.461 3.941 58.579C4 58.756 4 58.875 4 58.993C4 59.17 3.941 59.288 3.941 59.406C3.882 59.524 3.882 59.642 3.824 59.76L3.647 60.114C3.588 60.232 3.529 60.292 3.412 60.41C3.32615 60.5027 3.22708 60.5822 3.118 60.646L2.765 60.823C2.647 60.882 2.529 60.941 2.412 60.941C2.235 61 2.176 61 2 61C1.824 61 1.706 60.941 1.588 60.941C1.471 60.881 1.353 60.881 1.235 60.823C1.118 60.763 1 60.705 0.882 60.646C0.765 60.528 0.647 60.469 0.588 60.41C0.495527 60.3234 0.41634 60.2237 0.353 60.114L0.176 59.76C0.118 59.642 0.059 59.524 0.059 59.406C0 59.229 0 59.11 0 58.993C0 58.816 0.059 58.697 0.059 58.579C0.059 58.461 0.118 58.343 0.235 58.225L0.412 57.871C0.471 57.753 0.529 57.694 0.647 57.576C0.706 57.516 0.824 57.399 0.941 57.339L1.294 57.162C1.412 57.103 1.529 57.044 1.647 57.044C1.882 56.985 2.177 56.985 2.412 57.044C2.529 57.104 2.647 57.104 2.765 57.162C2.882 57.222 3 57.28 3.118 57.339C3.235 57.399 3.294 57.458 3.412 57.576C3.471 57.635 3.588 57.753 3.647 57.871L3.824 58.225ZM3.764 78.225C3.824 78.343 3.824 78.461 3.941 78.579C4 78.756 4 78.875 4 78.993C4 79.17 3.941 79.288 3.941 79.406C3.882 79.524 3.882 79.642 3.824 79.76L3.647 80.114C3.588 80.232 3.529 80.292 3.412 80.41C3.32615 80.5027 3.22708 80.5822 3.118 80.646L2.765 80.823C2.647 80.882 2.529 80.941 2.412 80.941C2.235 81 2.176 81 2 81C1.824 81 1.706 80.941 1.588 80.941C1.471 80.881 1.353 80.881 1.235 80.823C1.118 80.763 1 80.705 0.882 80.646C0.765 80.586 0.706 80.528 0.588 80.41C0.495527 80.3234 0.41634 80.2237 0.353 80.114L0.176 79.76C0.118 79.642 0.059 79.524 0.059 79.406C0 79.229 0 79.11 0 78.993C0 78.815 0.059 78.697 0.059 78.579C0.118 78.461 0.118 78.343 0.176 78.225L0.353 77.871C0.412 77.753 0.471 77.694 0.588 77.576C0.648 77.516 0.765 77.399 0.882 77.339L1.235 77.162C1.353 77.103 1.471 77.044 1.588 77.044C1.824 76.985 2.118 76.985 2.353 77.044C2.471 77.104 2.588 77.104 2.706 77.162L3.059 77.339C3.176 77.399 3.235 77.458 3.353 77.576C3.412 77.635 3.529 77.753 3.588 77.871L3.765 78.225H3.764ZM3.765 98.225C3.824 98.343 3.824 98.461 3.941 98.579C4 98.756 4 98.875 4 98.993C4 99.17 3.941 99.288 3.941 99.406C3.882 99.524 3.882 99.642 3.824 99.76L3.647 100.114C3.588 100.232 3.529 100.292 3.412 100.41C3.32615 100.503 3.22708 100.582 3.118 100.646L2.765 100.823C2.647 100.882 2.529 100.941 2.412 100.941C2.235 101 2.176 101 2 101C1.824 101 1.706 100.941 1.588 100.941C1.471 100.881 1.353 100.881 1.235 100.823C1.118 100.763 1 100.705 0.882 100.646C0.765 100.586 0.706 100.528 0.588 100.41C0.495527 100.323 0.41634 100.224 0.353 100.114L0.176 99.76C0.118 99.642 0.059 99.524 0.059 99.406C0 99.229 0 99.11 0 98.993C0 98.815 0.059 98.697 0.059 98.579C0.118 98.461 0.118 98.343 0.176 98.225L0.353 97.871C0.412 97.753 0.471 97.694 0.588 97.576C0.648 97.516 0.765 97.399 0.882 97.339L1.235 97.162C1.353 97.103 1.471 97.044 1.588 97.044C1.824 96.985 2.118 96.985 2.353 97.044C2.471 97.104 2.588 97.104 2.706 97.162L3.059 97.339C3.176 97.399 3.235 97.458 3.353 97.576C3.412 97.635 3.529 97.753 3.588 97.871L3.765 98.225ZM3.765 117.225C3.824 117.343 3.824 117.521 3.941 117.58C4 117.756 4 117.875 4 117.993C4 118.17 3.941 118.288 3.941 118.406C3.882 118.524 3.882 118.642 3.824 118.761L3.647 119.114C3.588 119.232 3.529 119.292 3.412 119.41C3.352 119.47 3.235 119.587 3.118 119.646L2.765 119.823C2.647 119.883 2.529 119.942 2.412 119.942C2.235 120 2.176 120 2 120C1.824 120 1.706 119.942 1.588 119.942C1.471 119.882 1.353 119.882 1.235 119.822L0.882 119.646C0.765 119.587 0.706 119.528 0.588 119.41C0.495386 119.324 0.416181 119.224 0.353 119.114L0.176 118.761C0.118 118.642 0.059 118.524 0.059 118.406C0 118.23 0 118.111 0 117.993C0 117.816 0.059 117.698 0.059 117.58C0.118 117.461 0.118 117.343 0.176 117.226L0.353 116.871C0.412 116.753 0.471 116.694 0.588 116.576C0.648 116.517 0.765 116.399 0.882 116.34L1.235 116.162C1.353 116.104 1.471 116.045 1.588 116.045C1.824 115.985 2.118 115.985 2.353 116.045C2.471 116.104 2.588 116.104 2.706 116.162L3.059 116.34C3.176 116.399 3.235 116.457 3.353 116.576C3.412 116.636 3.529 116.753 3.588 116.871C3.648 116.989 3.706 117.107 3.765 117.226V117.225ZM184.119 59.76C184.119 59.642 184.059 59.524 184.059 59.406C184 59.229 184 59.111 184 58.993C184 58.816 184.06 58.697 184.06 58.579C184.06 58.461 184.12 58.343 184.18 58.225C184.238 58.107 184.299 57.989 184.358 57.871C184.418 57.753 184.478 57.694 184.597 57.576C184.657 57.516 184.777 57.399 184.896 57.339L185.253 57.162C185.373 57.103 185.493 57.044 185.612 57.044C185.85 56.985 186.149 56.985 186.388 57.044C186.508 57.104 186.626 57.104 186.746 57.162L187.104 57.339C187.224 57.399 187.284 57.458 187.403 57.576C187.463 57.635 187.583 57.753 187.641 57.871L187.821 58.225C187.881 58.343 187.94 58.461 187.94 58.579C188 58.756 188 58.875 188 58.993C188 59.17 187.94 59.288 187.94 59.406C187.88 59.524 187.88 59.642 187.82 59.76L187.641 60.114C187.582 60.232 187.521 60.292 187.403 60.41C187.343 60.469 187.223 60.587 187.104 60.646L186.746 60.823C186.626 60.882 186.507 60.941 186.388 60.941C186.209 61 186.09 61 185.97 61C185.791 61 185.672 60.941 185.552 60.941C185.432 60.881 185.313 60.881 185.194 60.823L184.835 60.646C184.716 60.586 184.656 60.528 184.537 60.41C184.477 60.35 184.357 60.232 184.299 60.114L184.119 59.76ZM187.765 78.225C187.765 78.343 187.825 78.461 187.942 78.579C188 78.756 188 78.875 188 78.993C188 79.17 187.942 79.288 187.942 79.406C187.882 79.524 187.882 79.642 187.824 79.76L187.648 80.114C187.588 80.232 187.53 80.292 187.412 80.41C187.326 80.503 187.227 80.5825 187.118 80.646L186.765 80.823C186.647 80.882 186.529 80.941 186.412 80.941C186.235 81 186.118 81 186 81C185.824 81 185.706 80.941 185.588 80.941C185.471 80.881 185.353 80.881 185.235 80.823C185.118 80.763 185 80.705 184.882 80.646C184.764 80.586 184.706 80.528 184.588 80.41C184.529 80.35 184.412 80.232 184.353 80.114L184.176 79.76C184.118 79.642 184.059 79.524 184.059 79.406C184 79.229 184 79.111 184 78.993C184 78.815 184.059 78.697 184.059 78.579C184.059 78.461 184.118 78.343 184.176 78.225L184.353 77.871C184.412 77.753 184.47 77.694 184.588 77.576C184.648 77.516 184.764 77.399 184.882 77.339L185.235 77.162C185.353 77.103 185.471 77.044 185.588 77.044C185.824 76.985 186.118 76.985 186.353 77.044C186.471 77.104 186.589 77.104 186.706 77.162C186.823 77.222 186.942 77.28 187.059 77.339C187.177 77.399 187.236 77.458 187.353 77.576C187.412 77.635 187.53 77.753 187.589 77.871L187.765 78.225ZM187.765 98.225C187.765 98.343 187.825 98.461 187.942 98.579C188 98.756 188 98.875 188 98.993C188 99.17 187.942 99.288 187.942 99.406C187.882 99.524 187.882 99.642 187.824 99.76L187.648 100.114C187.588 100.232 187.53 100.292 187.412 100.41C187.326 100.503 187.227 100.583 187.118 100.646L186.765 100.823C186.647 100.882 186.529 100.941 186.412 100.941C186.235 101 186.118 101 186 101C185.824 101 185.706 100.941 185.588 100.941C185.471 100.881 185.353 100.881 185.235 100.823C185.118 100.763 185 100.705 184.882 100.646C184.764 100.586 184.706 100.528 184.588 100.41C184.529 100.35 184.412 100.232 184.353 100.114L184.176 99.76C184.118 99.642 184.059 99.524 184.059 99.406C184 99.229 184 99.111 184 98.993C184 98.815 184.059 98.697 184.059 98.579C184.059 98.461 184.118 98.343 184.176 98.225L184.353 97.871C184.412 97.753 184.47 97.694 184.588 97.576C184.648 97.516 184.764 97.399 184.882 97.339L185.235 97.162C185.353 97.103 185.471 97.044 185.588 97.044C185.824 96.985 186.118 96.985 186.353 97.044C186.471 97.104 186.589 97.104 186.706 97.162C186.823 97.222 186.942 97.28 187.059 97.339C187.177 97.399 187.236 97.458 187.353 97.576C187.412 97.635 187.53 97.753 187.589 97.871L187.765 98.225ZM187.765 117.225C187.765 117.343 187.825 117.521 187.942 117.58C188 117.756 188 117.875 188 117.993C188 118.17 187.942 118.288 187.942 118.406C187.882 118.524 187.882 118.642 187.824 118.761L187.648 119.114C187.588 119.232 187.53 119.292 187.412 119.41C187.353 119.47 187.236 119.587 187.118 119.646L186.765 119.823C186.647 119.883 186.529 119.942 186.412 119.942C186.279 119.986 186.14 120.006 186 120C185.824 120 185.706 119.942 185.588 119.942C185.471 119.882 185.353 119.882 185.235 119.822L184.882 119.646C184.764 119.587 184.706 119.528 184.588 119.41C184.495 119.324 184.416 119.224 184.353 119.114L184.176 118.761C184.118 118.642 184.059 118.524 184.059 118.406C184 118.229 184 118.111 184 117.993C184 117.816 184.059 117.698 184.059 117.58C184.059 117.461 184.118 117.343 184.176 117.226L184.353 116.871C184.412 116.753 184.47 116.694 184.588 116.576C184.648 116.517 184.764 116.399 184.882 116.34L185.235 116.162C185.353 116.104 185.471 116.045 185.588 116.045C185.824 115.985 186.118 115.985 186.353 116.045C186.471 116.104 186.589 116.104 186.706 116.162L187.059 116.34C187.177 116.399 187.236 116.457 187.353 116.576C187.412 116.636 187.53 116.753 187.589 116.871L187.765 117.226V117.225ZM63 175C63.5304 175 64.0391 175.211 64.4142 175.586C64.7893 175.961 65 176.47 65 177C65 177.53 64.7893 178.039 64.4142 178.414C64.0391 178.789 63.5304 179 63 179C62.4696 179 61.9609 178.789 61.5858 178.414C61.2107 178.039 61 177.53 61 177C61 176.47 61.2107 175.961 61.5858 175.586C61.9609 175.211 62.4696 175 63 175ZM85.765 176.225C85.824 176.343 85.824 176.461 85.941 176.58C86 176.756 86 176.875 86 176.993C86 177.17 85.941 177.288 85.941 177.406C85.882 177.524 85.882 177.642 85.824 177.76L85.647 178.114C85.588 178.232 85.529 178.292 85.412 178.41C85.3261 178.503 85.2271 178.582 85.118 178.646L84.765 178.822C84.647 178.882 84.529 178.941 84.412 178.941C84.235 179 84.118 179 84 179C83.824 179 83.706 178.941 83.588 178.941C83.471 178.881 83.353 178.881 83.235 178.822L82.882 178.646C82.765 178.586 82.706 178.527 82.588 178.41C82.4957 178.323 82.4165 178.224 82.353 178.114L82.176 177.76C82.118 177.642 82.059 177.524 82.059 177.406C82 177.229 82 177.111 82 176.993C82 176.816 82.059 176.698 82.059 176.58C82.059 176.46 82.118 176.343 82.176 176.225L82.353 175.871C82.412 175.753 82.471 175.694 82.588 175.575C82.648 175.517 82.765 175.399 82.882 175.34L83.235 175.163C83.353 175.103 83.471 175.045 83.588 175.045C83.824 174.985 84.118 174.985 84.353 175.045C84.471 175.104 84.588 175.104 84.706 175.163L85.059 175.34C85.176 175.399 85.235 175.458 85.353 175.575C85.412 175.635 85.529 175.753 85.588 175.871L85.765 176.225ZM105.765 176.225C105.825 176.343 105.825 176.461 105.942 176.58C106 176.756 106 176.875 106 176.993C106 177.17 105.942 177.288 105.942 177.406C105.882 177.524 105.882 177.642 105.824 177.76C105.764 177.878 105.706 177.996 105.648 178.114C105.588 178.232 105.53 178.292 105.412 178.41C105.326 178.503 105.227 178.583 105.118 178.646L104.765 178.822C104.647 178.882 104.529 178.941 104.412 178.941C104.235 179 104.117 179 104 179C103.823 179 103.706 178.941 103.588 178.941C103.471 178.881 103.353 178.881 103.235 178.822L102.882 178.646C102.764 178.586 102.706 178.527 102.588 178.41C102.495 178.323 102.416 178.224 102.352 178.114L102.176 177.76C102.118 177.642 102.058 177.524 102.058 177.406C102 177.229 102 177.111 102 176.993C102 176.816 102.058 176.698 102.058 176.58C102.118 176.46 102.118 176.343 102.176 176.225L102.352 175.871C102.412 175.753 102.47 175.694 102.588 175.575C102.647 175.517 102.764 175.399 102.882 175.34L103.235 175.163C103.353 175.103 103.471 175.045 103.588 175.045C103.823 174.985 104.118 174.985 104.353 175.045C104.471 175.104 104.588 175.104 104.706 175.163C104.823 175.222 104.942 175.28 105.059 175.34C105.176 175.399 105.236 175.458 105.353 175.575C105.412 175.635 105.53 175.753 105.588 175.871L105.765 176.225ZM125 175C125.53 175 126.039 175.211 126.414 175.586C126.789 175.961 127 176.47 127 177C127 177.53 126.789 178.039 126.414 178.414C126.039 178.789 125.53 179 125 179C124.47 179 123.961 178.789 123.586 178.414C123.211 178.039 123 177.53 123 177C123 176.47 123.211 175.961 123.586 175.586C123.961 175.211 124.47 175 125 175ZM43 39C43.5304 39 44.0391 39.2107 44.4142 39.5858C44.7893 39.9609 45 40.4696 45 41C45 41.5304 44.7893 42.0391 44.4142 42.4142C44.0391 42.7893 43.5304 43 43 43C42.4696 43 41.9609 42.7893 41.5858 42.4142C41.2107 42.0391 41 41.5304 41 41C41 40.4696 41.2107 39.9609 41.5858 39.5858C41.9609 39.2107 42.4696 39 43 39ZM22 39C22.5304 39 23.0391 39.2107 23.4142 39.5858C23.7893 39.9609 24 40.4696 24 41C24 41.5304 23.7893 42.0391 23.4142 42.4142C23.0391 42.7893 22.5304 43 22 43C21.4696 43 20.9609 42.7893 20.5858 42.4142C20.2107 42.0391 20 41.5304 20 41C20 40.4696 20.2107 39.9609 20.5858 39.5858C20.9609 39.2107 21.4696 39 22 39ZM63 39C63.5304 39 64.0391 39.2107 64.4142 39.5858C64.7893 39.9609 65 40.4696 65 41C65 41.5304 64.7893 42.0391 64.4142 42.4142C64.0391 42.7893 63.5304 43 63 43C62.4696 43 61.9609 42.7893 61.5858 42.4142C61.2107 42.0391 61 41.5304 61 41C61 40.4696 61.2107 39.9609 61.5858 39.5858C61.9609 39.2107 62.4696 39 63 39ZM85.765 40.225C85.824 40.343 85.824 40.461 85.941 40.579C86 40.756 86 40.816 86 40.993C86 41.17 85.941 41.288 85.941 41.406C85.882 41.524 85.882 41.642 85.824 41.76L85.647 42.114C85.588 42.232 85.529 42.292 85.412 42.41C85.3261 42.5027 85.2271 42.5822 85.118 42.646L84.765 42.823C84.647 42.882 84.529 42.941 84.412 42.941C84.235 43 84.118 43 84 43C83.824 43 83.706 42.941 83.588 42.941C83.471 42.881 83.353 42.881 83.235 42.823C83.118 42.763 83 42.705 82.882 42.646C82.765 42.586 82.706 42.528 82.588 42.41C82.4955 42.3234 82.4163 42.2237 82.353 42.114L82.176 41.76C82.118 41.642 82.059 41.524 82.059 41.406C82 41.229 82 41.17 82 40.993C82 40.816 82.059 40.697 82.059 40.579C82.059 40.461 82.118 40.343 82.176 40.225L82.353 39.871C82.412 39.753 82.471 39.694 82.588 39.576C82.648 39.516 82.765 39.399 82.882 39.339L83.235 39.162C83.353 39.103 83.471 39.044 83.588 39.044C83.824 38.985 84.118 38.985 84.353 39.044C84.471 39.104 84.588 39.104 84.706 39.162L85.059 39.339C85.176 39.399 85.235 39.458 85.353 39.576C85.412 39.635 85.529 39.753 85.588 39.871L85.765 40.225ZM63 57C63.5304 57 64.0391 57.2107 64.4142 57.5858C64.7893 57.9609 65 58.4696 65 59C65 59.5304 64.7893 60.0391 64.4142 60.4142C64.0391 60.7893 63.5304 61 63 61C62.4696 61 61.9609 60.7893 61.5858 60.4142C61.2107 60.0391 61 59.5304 61 59C61 58.4696 61.2107 57.9609 61.5858 57.5858C61.9609 57.2107 62.4696 57 63 57ZM22 57C22.5304 57 23.0391 57.2107 23.4142 57.5858C23.7893 57.9609 24 58.4696 24 59C24 59.5304 23.7893 60.0391 23.4142 60.4142C23.0391 60.7893 22.5304 61 22 61C21.4696 61 20.9609 60.7893 20.5858 60.4142C20.2107 60.0391 20 59.5304 20 59C20 58.4696 20.2107 57.9609 20.5858 57.5858C20.9609 57.2107 21.4696 57 22 57ZM43 57C43.5304 57 44.0391 57.2107 44.4142 57.5858C44.7893 57.9609 45 58.4696 45 59C45 59.5304 44.7893 60.0391 44.4142 60.4142C44.0391 60.7893 43.5304 61 43 61C42.4696 61 41.9609 60.7893 41.5858 60.4142C41.2107 60.0391 41 59.5304 41 59C41 58.4696 41.2107 57.9609 41.5858 57.5858C41.9609 57.2107 42.4696 57 43 57ZM85.765 58.225C85.824 58.343 85.824 58.461 85.941 58.579C86 58.756 86 58.875 86 58.993C86 59.17 85.941 59.288 85.941 59.406C85.882 59.524 85.882 59.642 85.824 59.76L85.647 60.114C85.588 60.232 85.529 60.292 85.412 60.41C85.3261 60.5027 85.2271 60.5822 85.118 60.646L84.765 60.823C84.647 60.882 84.529 60.941 84.412 60.941C84.235 61 84.118 61 84 61C83.824 61 83.706 60.941 83.588 60.941C83.471 60.881 83.353 60.881 83.235 60.823C83.118 60.763 83 60.705 82.882 60.646C82.765 60.586 82.706 60.528 82.588 60.41C82.4955 60.3234 82.4163 60.2237 82.353 60.114L82.176 59.76C82.118 59.642 82.059 59.524 82.059 59.406C82 59.229 82 59.11 82 58.993C82 58.816 82.059 58.697 82.059 58.579C82.059 58.461 82.118 58.343 82.176 58.225L82.353 57.871C82.412 57.753 82.471 57.694 82.588 57.576C82.648 57.516 82.765 57.399 82.882 57.339L83.235 57.162C83.353 57.103 83.471 57.044 83.588 57.044C83.824 56.985 84.118 56.985 84.353 57.044C84.471 57.104 84.588 57.104 84.706 57.162L85.059 57.339C85.176 57.399 85.235 57.458 85.353 57.576C85.412 57.635 85.529 57.753 85.588 57.871L85.765 58.225ZM63 77C63.5304 77 64.0391 77.2107 64.4142 77.5858C64.7893 77.9609 65 78.4696 65 79C65 79.5304 64.7893 80.0391 64.4142 80.4142C64.0391 80.7893 63.5304 81 63 81C62.4696 81 61.9609 80.7893 61.5858 80.4142C61.2107 80.0391 61 79.5304 61 79C61 78.4696 61.2107 77.9609 61.5858 77.5858C61.9609 77.2107 62.4696 77 63 77ZM43 77C43.5304 77 44.0391 77.2107 44.4142 77.5858C44.7893 77.9609 45 78.4696 45 79C45 79.5304 44.7893 80.0391 44.4142 80.4142C44.0391 80.7893 43.5304 81 43 81C42.4696 81 41.9609 80.7893 41.5858 80.4142C41.2107 80.0391 41 79.5304 41 79C41 78.4696 41.2107 77.9609 41.5858 77.5858C41.9609 77.2107 42.4696 77 43 77ZM22 77C22.5304 77 23.0391 77.2107 23.4142 77.5858C23.7893 77.9609 24 78.4696 24 79C24 79.5304 23.7893 80.0391 23.4142 80.4142C23.0391 80.7893 22.5304 81 22 81C21.4696 81 20.9609 80.7893 20.5858 80.4142C20.2107 80.0391 20 79.5304 20 79C20 78.4696 20.2107 77.9609 20.5858 77.5858C20.9609 77.2107 21.4696 77 22 77ZM85.765 78.225C85.824 78.343 85.824 78.461 85.941 78.579C86 78.756 86 78.875 86 78.993C86 79.17 85.941 79.288 85.941 79.406C85.882 79.524 85.882 79.642 85.824 79.76L85.647 80.114C85.588 80.232 85.529 80.292 85.412 80.41C85.3261 80.5027 85.2271 80.5822 85.118 80.646L84.765 80.823C84.647 80.882 84.529 80.941 84.412 80.941C84.235 81 84.118 81 84 81C83.824 81 83.706 80.941 83.588 80.941C83.471 80.881 83.353 80.881 83.235 80.823C83.118 80.763 83 80.705 82.882 80.646C82.765 80.586 82.706 80.528 82.588 80.41C82.4955 80.3234 82.4163 80.2237 82.353 80.114L82.176 79.76C82.118 79.642 82.059 79.524 82.059 79.406C82 79.229 82 79.11 82 78.993C82 78.815 82.059 78.697 82.059 78.579C82.059 78.461 82.118 78.343 82.176 78.225L82.353 77.871C82.412 77.753 82.471 77.694 82.588 77.576C82.648 77.516 82.765 77.399 82.882 77.339L83.235 77.162C83.353 77.103 83.471 77.044 83.588 77.044C83.824 76.985 84.118 76.985 84.353 77.044C84.471 77.104 84.588 77.104 84.706 77.162L85.059 77.339C85.176 77.399 85.235 77.458 85.353 77.576C85.412 77.635 85.529 77.753 85.588 77.871L85.765 78.225ZM105.765 40.225C105.825 40.343 105.825 40.461 105.942 40.579C106 40.756 106 40.816 106 40.993C106 41.17 105.942 41.288 105.942 41.406C105.882 41.524 105.882 41.642 105.824 41.76C105.764 41.878 105.706 41.996 105.648 42.114C105.588 42.232 105.53 42.292 105.412 42.41C105.326 42.503 105.227 42.5825 105.118 42.646L104.765 42.823C104.647 42.882 104.529 42.941 104.412 42.941C104.235 43 104.117 43 104 43C103.823 43 103.706 42.941 103.588 42.941C103.471 42.881 103.353 42.881 103.235 42.823L102.882 42.646C102.764 42.586 102.706 42.528 102.588 42.41C102.495 42.3235 102.416 42.2238 102.352 42.114L102.176 41.76C102.118 41.642 102.058 41.524 102.058 41.406C102 41.229 102 41.17 102 40.993C102 40.816 102.058 40.697 102.058 40.579C102.118 40.461 102.118 40.343 102.176 40.225L102.352 39.871C102.412 39.753 102.47 39.694 102.588 39.576C102.674 39.4827 102.773 39.4028 102.882 39.339L103.235 39.162C103.353 39.103 103.471 39.044 103.588 39.044C103.823 38.985 104.118 38.985 104.353 39.044C104.471 39.104 104.588 39.104 104.706 39.162L105.059 39.339C105.176 39.399 105.236 39.458 105.353 39.576C105.412 39.635 105.53 39.753 105.588 39.871L105.765 40.225ZM125 39C125.53 39 126.039 39.2107 126.414 39.5858C126.789 39.9609 127 40.4696 127 41C127 41.5304 126.789 42.0391 126.414 42.4142C126.039 42.7893 125.53 43 125 43C124.47 43 123.961 42.7893 123.586 42.4142C123.211 42.0391 123 41.5304 123 41C123 40.4696 123.211 39.9609 123.586 39.5858C123.961 39.2107 124.47 39 125 39ZM166 39C167.118 39 168 39.882 168 41C168 42.118 167.118 43 166 43C164.882 43 164 42.118 164 41C164 39.882 164.882 39 166 39ZM145 39C145.53 39 146.039 39.2107 146.414 39.5858C146.789 39.9609 147 40.4696 147 41C147 41.5304 146.789 42.0391 146.414 42.4142C146.039 42.7893 145.53 43 145 43C144.47 43 143.961 42.7893 143.586 42.4142C143.211 42.0391 143 41.5304 143 41C143 40.4696 143.211 39.9609 143.586 39.5858C143.961 39.2107 144.47 39 145 39ZM105.765 58.225C105.825 58.343 105.825 58.461 105.942 58.579C106 58.756 106 58.875 106 58.993C106 59.17 105.942 59.288 105.942 59.406C105.882 59.524 105.882 59.642 105.824 59.76C105.764 59.878 105.706 59.996 105.648 60.114C105.588 60.232 105.53 60.292 105.412 60.41C105.326 60.503 105.227 60.5825 105.118 60.646L104.765 60.823C104.647 60.882 104.529 60.941 104.412 60.941C104.235 61 104.117 61 104 61C103.823 61 103.706 60.941 103.588 60.941C103.471 60.881 103.353 60.881 103.235 60.823L102.882 60.646C102.764 60.586 102.706 60.528 102.588 60.41C102.495 60.3235 102.416 60.2238 102.352 60.114L102.176 59.76C102.118 59.642 102.058 59.524 102.058 59.406C102 59.229 102 59.111 102 58.993C102 58.816 102.058 58.697 102.058 58.579C102.118 58.461 102.118 58.343 102.176 58.225L102.352 57.871C102.412 57.753 102.47 57.694 102.588 57.576C102.674 57.4827 102.773 57.4028 102.882 57.339L103.235 57.162C103.353 57.103 103.471 57.044 103.588 57.044C103.823 56.985 104.118 56.985 104.353 57.044C104.471 57.104 104.588 57.104 104.706 57.162L105.059 57.339C105.176 57.399 105.236 57.458 105.353 57.576C105.412 57.635 105.53 57.753 105.588 57.871L105.765 58.225ZM166 57C167.118 57 168 57.882 168 59C168 60.118 167.118 61 166 61C164.882 61 164 60.118 164 59C164 57.882 164.882 57 166 57ZM125 57C125.53 57 126.039 57.2107 126.414 57.5858C126.789 57.9609 127 58.4696 127 59C127 59.5304 126.789 60.0391 126.414 60.4142C126.039 60.7893 125.53 61 125 61C124.47 61 123.961 60.7893 123.586 60.4142C123.211 60.0391 123 59.5304 123 59C123 58.4696 123.211 57.9609 123.586 57.5858C123.961 57.2107 124.47 57 125 57ZM145 57C145.53 57 146.039 57.2107 146.414 57.5858C146.789 57.9609 147 58.4696 147 59C147 59.5304 146.789 60.0391 146.414 60.4142C146.039 60.7893 145.53 61 145 61C144.47 61 143.961 60.7893 143.586 60.4142C143.211 60.0391 143 59.5304 143 59C143 58.4696 143.211 57.9609 143.586 57.5858C143.961 57.2107 144.47 57 145 57ZM105.765 78.225C105.825 78.343 105.825 78.461 105.942 78.579C106 78.756 106 78.875 106 78.993C106 79.17 105.942 79.288 105.942 79.406C105.882 79.524 105.882 79.642 105.824 79.76C105.764 79.878 105.706 79.996 105.648 80.114C105.588 80.232 105.53 80.292 105.412 80.41C105.326 80.503 105.227 80.5825 105.118 80.646L104.765 80.823C104.647 80.882 104.529 80.941 104.412 80.941C104.235 81 104.117 81 104 81C103.823 81 103.706 80.941 103.588 80.941C103.471 80.881 103.353 80.881 103.235 80.823L102.882 80.646C102.764 80.586 102.706 80.528 102.588 80.41C102.495 80.3235 102.416 80.2237 102.352 80.114L102.176 79.76C102.118 79.642 102.058 79.524 102.058 79.406C102 79.229 102 79.111 102 78.993C102 78.815 102.058 78.697 102.058 78.579C102.118 78.461 102.118 78.343 102.176 78.225L102.352 77.871C102.412 77.753 102.47 77.694 102.588 77.576C102.674 77.4827 102.773 77.4028 102.882 77.339L103.235 77.162C103.353 77.103 103.471 77.044 103.588 77.044C103.823 76.985 104.118 76.985 104.353 77.044C104.471 77.104 104.588 77.104 104.706 77.162L105.059 77.339C105.176 77.399 105.236 77.458 105.353 77.576C105.412 77.635 105.53 77.753 105.588 77.871L105.765 78.225ZM125 77C125.53 77 126.039 77.2107 126.414 77.5858C126.789 77.9609 127 78.4696 127 79C127 79.5304 126.789 80.0391 126.414 80.4142C126.039 80.7893 125.53 81 125 81C124.47 81 123.961 80.7893 123.586 80.4142C123.211 80.0391 123 79.5304 123 79C123 78.4696 123.211 77.9609 123.586 77.5858C123.961 77.2107 124.47 77 125 77ZM145 77C145.53 77 146.039 77.2107 146.414 77.5858C146.789 77.9609 147 78.4696 147 79C147 79.5304 146.789 80.0391 146.414 80.4142C146.039 80.7893 145.53 81 145 81C144.47 81 143.961 80.7893 143.586 80.4142C143.211 80.0391 143 79.5304 143 79C143 78.4696 143.211 77.9609 143.586 77.5858C143.961 77.2107 144.47 77 145 77ZM166 77C167.118 77 168 77.882 168 79C168 80.118 167.118 81 166 81C164.882 81 164 80.118 164 79C164 77.882 164.882 77 166 77ZM22 97C23.118 97 24 97.882 24 99C24 100.118 23.118 101 22 101C20.882 101 20 100.118 20 99C20 97.882 20.882 97 22 97ZM43 97C44.059 97 44.941 97.882 45 99C45 100.118 44.118 101 43 101C41.882 101 41 100.118 41 99C41 97.882 41.882 97 43 97ZM63 97C64.118 97 65 97.882 65 99C65 100.118 64.118 101 63 101C61.882 101 61 100.118 61 99C61 97.882 61.882 97 63 97ZM85.765 98.225C85.824 98.343 85.824 98.461 85.941 98.579C86 98.756 86 98.875 86 98.993C86 99.17 85.941 99.288 85.941 99.406C85.882 99.524 85.882 99.642 85.824 99.76L85.647 100.114C85.588 100.232 85.529 100.292 85.412 100.41C85.3261 100.503 85.2271 100.582 85.118 100.646L84.765 100.823C84.647 100.882 84.529 100.941 84.412 100.941C84.235 101 84.118 101 84 101C83.824 101 83.706 100.941 83.588 100.941C83.471 100.881 83.353 100.881 83.235 100.823C83.118 100.763 83 100.705 82.882 100.646C82.765 100.586 82.706 100.528 82.588 100.41C82.4955 100.323 82.4163 100.224 82.353 100.114L82.176 99.76C82.118 99.642 82.059 99.524 82.059 99.406C82 99.229 82 99.11 82 98.993C82 98.815 82.059 98.697 82.059 98.579C82.059 98.461 82.118 98.343 82.176 98.225L82.353 97.871C82.412 97.753 82.471 97.694 82.588 97.576C82.648 97.516 82.765 97.399 82.882 97.339L83.235 97.162C83.353 97.103 83.471 97.044 83.588 97.044C83.824 96.985 84.118 96.985 84.353 97.044C84.471 97.104 84.588 97.104 84.706 97.162L85.059 97.339C85.176 97.399 85.235 97.458 85.353 97.576C85.412 97.635 85.529 97.753 85.588 97.871L85.765 98.225ZM22 116C22.5304 116 23.0391 116.211 23.4142 116.586C23.7893 116.961 24 117.47 24 118C24 118.53 23.7893 119.039 23.4142 119.414C23.0391 119.789 22.5304 120 22 120C21.4696 120 20.9609 119.789 20.5858 119.414C20.2107 119.039 20 118.53 20 118C20 117.47 20.2107 116.961 20.5858 116.586C20.9609 116.211 21.4696 116 22 116ZM63 116C63.5304 116 64.0391 116.211 64.4142 116.586C64.7893 116.961 65 117.47 65 118C65 118.53 64.7893 119.039 64.4142 119.414C64.0391 119.789 63.5304 120 63 120C62.4696 120 61.9609 119.789 61.5858 119.414C61.2107 119.039 61 118.53 61 118C61 117.47 61.2107 116.961 61.5858 116.586C61.9609 116.211 62.4696 116 63 116ZM43 116C43.5304 116 44.0391 116.211 44.4142 116.586C44.7893 116.961 45 117.47 45 118C45 118.53 44.7893 119.039 44.4142 119.414C44.0391 119.789 43.5304 120 43 120C42.4696 120 41.9609 119.789 41.5858 119.414C41.2107 119.039 41 118.53 41 118C41 117.47 41.2107 116.961 41.5858 116.586C41.9609 116.211 42.4696 116 43 116ZM85.765 117.226C85.824 117.343 85.824 117.521 85.941 117.58C86 117.756 86 117.875 86 117.993C86 118.17 85.941 118.288 85.941 118.406C85.882 118.524 85.882 118.642 85.824 118.761L85.647 119.114C85.588 119.232 85.529 119.292 85.412 119.41C85.352 119.47 85.235 119.587 85.118 119.646L84.765 119.823C84.647 119.883 84.529 119.942 84.412 119.942C84.235 120 84.118 120 84 120C83.824 120 83.706 119.942 83.588 119.942C83.471 119.882 83.353 119.882 83.235 119.822L82.882 119.646C82.765 119.587 82.706 119.528 82.588 119.41C82.4954 119.324 82.4162 119.224 82.353 119.114L82.176 118.761C82.118 118.642 82.059 118.524 82.059 118.406C82 118.229 82 118.111 82 117.993C82 117.816 82.059 117.698 82.059 117.58C82.059 117.461 82.118 117.343 82.176 117.226L82.353 116.871C82.412 116.753 82.471 116.694 82.588 116.576C82.648 116.517 82.765 116.399 82.882 116.34L83.235 116.162C83.353 116.104 83.471 116.045 83.588 116.045C83.824 115.985 84.118 115.985 84.353 116.045C84.471 116.104 84.588 116.104 84.706 116.162L85.059 116.34C85.176 116.399 85.235 116.457 85.353 116.576C85.412 116.636 85.529 116.753 85.588 116.871C85.648 116.989 85.706 117.107 85.765 117.226ZM63 135C63.5304 135 64.0391 135.211 64.4142 135.586C64.7893 135.961 65 136.47 65 137C65 137.53 64.7893 138.039 64.4142 138.414C64.0391 138.789 63.5304 139 63 139C62.4696 139 61.9609 138.789 61.5858 138.414C61.2107 138.039 61 137.53 61 137C61 136.47 61.2107 135.961 61.5858 135.586C61.9609 135.211 62.4696 135 63 135ZM22 135C22.5304 135 23.0391 135.211 23.4142 135.586C23.7893 135.961 24 136.47 24 137C24 137.53 23.7893 138.039 23.4142 138.414C23.0391 138.789 22.5304 139 22 139C21.4696 139 20.9609 138.789 20.5858 138.414C20.2107 138.039 20 137.53 20 137C20 136.47 20.2107 135.961 20.5858 135.586C20.9609 135.211 21.4696 135 22 135ZM43 135C43.5304 135 44.0391 135.211 44.4142 135.586C44.7893 135.961 45 136.47 45 137C45 137.53 44.7893 138.039 44.4142 138.414C44.0391 138.789 43.5304 139 43 139C42.4696 139 41.9609 138.789 41.5858 138.414C41.2107 138.039 41 137.53 41 137C41 136.47 41.2107 135.961 41.5858 135.586C41.9609 135.211 42.4696 135 43 135ZM85.765 136.226C85.824 136.343 85.824 136.461 85.941 136.58C86 136.756 86 136.875 86 136.993C86 137.17 85.941 137.288 85.941 137.406C85.882 137.524 85.882 137.642 85.824 137.761L85.647 138.114C85.588 138.232 85.529 138.292 85.412 138.41C85.352 138.47 85.235 138.587 85.118 138.646L84.765 138.823C84.647 138.883 84.529 138.942 84.412 138.942C84.235 139 84.118 139 84 139C83.824 139 83.706 138.942 83.588 138.942C83.471 138.882 83.353 138.882 83.235 138.822L82.882 138.646C82.765 138.587 82.706 138.528 82.588 138.41C82.4954 138.324 82.4162 138.224 82.353 138.114L82.176 137.761C82.118 137.642 82.059 137.524 82.059 137.406C82 137.229 82 137.111 82 136.993C82 136.816 82.059 136.698 82.059 136.58C82.059 136.461 82.118 136.343 82.176 136.226L82.353 135.871C82.412 135.753 82.471 135.694 82.588 135.576C82.648 135.517 82.765 135.399 82.882 135.34L83.235 135.162C83.353 135.104 83.471 135.045 83.588 135.045C83.824 134.985 84.118 134.985 84.353 135.045C84.471 135.104 84.588 135.104 84.706 135.162L85.059 135.34C85.176 135.399 85.235 135.457 85.353 135.576C85.412 135.636 85.529 135.753 85.588 135.871C85.648 135.989 85.706 136.107 85.765 136.226ZM105.765 98.226C105.825 98.343 105.825 98.461 105.942 98.579C106 98.756 106 98.875 106 98.993C106 99.17 105.942 99.288 105.942 99.406C105.882 99.524 105.882 99.642 105.824 99.76C105.764 99.878 105.706 99.996 105.648 100.114C105.588 100.232 105.53 100.292 105.412 100.41C105.326 100.503 105.227 100.583 105.118 100.646L104.765 100.823C104.647 100.882 104.529 100.941 104.412 100.941C104.235 101 104.117 101 104 101C103.823 101 103.706 100.941 103.588 100.941C103.471 100.881 103.353 100.881 103.235 100.823L102.882 100.646C102.764 100.586 102.706 100.528 102.588 100.41C102.495 100.324 102.416 100.224 102.352 100.114L102.176 99.76C102.118 99.642 102.058 99.524 102.058 99.406C102 99.229 102 99.111 102 98.993C102 98.815 102.058 98.697 102.058 98.579C102.118 98.461 102.118 98.343 102.176 98.225L102.352 97.871C102.412 97.753 102.47 97.694 102.588 97.576C102.674 97.4827 102.773 97.4028 102.882 97.339L103.235 97.162C103.353 97.103 103.471 97.044 103.588 97.044C103.823 96.985 104.118 96.985 104.353 97.044C104.471 97.104 104.588 97.104 104.706 97.162C104.823 97.222 104.942 97.28 105.059 97.339C105.176 97.399 105.236 97.458 105.353 97.576C105.412 97.635 105.53 97.753 105.588 97.871L105.765 98.225V98.226ZM166 97C167.118 97 168 97.882 168 99C168 100.118 167.118 101 166 101C164.882 101 164 100.118 164 99C164 97.882 164.882 97 166 97ZM145 97C146.059 97 146.941 97.882 147 99C147 100.118 146.118 101 145 101C143.882 101 143 100.118 143 99C143 97.882 143.882 97 145 97ZM125 97C126.118 97 127 97.882 127 99C127 100.118 126.118 101 125 101C123.882 101 123 100.118 123 99C123 97.882 123.882 97 125 97ZM105.765 117.226C105.825 117.343 105.825 117.521 105.942 117.58C106 117.756 106 117.875 106 117.993C106 118.17 105.942 118.288 105.942 118.406C105.882 118.524 105.882 118.642 105.824 118.761C105.764 118.879 105.706 118.997 105.648 119.114C105.588 119.232 105.53 119.292 105.412 119.41C105.353 119.47 105.236 119.587 105.118 119.646L104.765 119.823C104.647 119.883 104.529 119.942 104.412 119.942C104.235 120 104.117 120 104 120C103.823 120 103.706 119.942 103.588 119.942C103.471 119.882 103.353 119.882 103.235 119.822L102.882 119.646C102.764 119.587 102.706 119.528 102.588 119.41C102.495 119.324 102.415 119.224 102.352 119.114L102.176 118.761C102.118 118.642 102.058 118.524 102.058 118.406C102 118.229 102 118.111 102 117.993C102 117.816 102.058 117.698 102.058 117.58C102.118 117.461 102.118 117.343 102.176 117.226L102.352 116.871C102.412 116.753 102.47 116.694 102.588 116.576C102.647 116.517 102.764 116.399 102.882 116.34L103.235 116.162C103.353 116.104 103.471 116.045 103.588 116.045C103.823 115.985 104.118 115.985 104.353 116.045C104.471 116.104 104.588 116.104 104.706 116.162L105.059 116.34C105.176 116.399 105.236 116.457 105.353 116.576C105.412 116.636 105.53 116.753 105.588 116.871C105.648 116.989 105.706 117.107 105.765 117.226ZM166 116C167.118 116 168 116.882 168 118C168 119.118 167.118 120 166 120C164.882 120 164 119.118 164 118C164 116.882 164.882 116 166 116ZM145 116C145.53 116 146.039 116.211 146.414 116.586C146.789 116.961 147 117.47 147 118C147 118.53 146.789 119.039 146.414 119.414C146.039 119.789 145.53 120 145 120C144.47 120 143.961 119.789 143.586 119.414C143.211 119.039 143 118.53 143 118C143 117.47 143.211 116.961 143.586 116.586C143.961 116.211 144.47 116 145 116ZM125 116C125.53 116 126.039 116.211 126.414 116.586C126.789 116.961 127 117.47 127 118C127 118.53 126.789 119.039 126.414 119.414C126.039 119.789 125.53 120 125 120C124.47 120 123.961 119.789 123.586 119.414C123.211 119.039 123 118.53 123 118C123 117.47 123.211 116.961 123.586 116.586C123.961 116.211 124.47 116 125 116ZM105.765 136.226C105.825 136.343 105.825 136.461 105.942 136.58C106 136.756 106 136.875 106 136.993C106 137.17 105.942 137.288 105.942 137.406C105.882 137.524 105.882 137.642 105.824 137.761C105.764 137.879 105.706 137.997 105.648 138.114C105.588 138.232 105.53 138.292 105.412 138.41C105.353 138.47 105.236 138.587 105.118 138.646L104.765 138.823C104.647 138.883 104.529 138.942 104.412 138.942C104.235 139 104.117 139 104 139C103.823 139 103.706 138.942 103.588 138.942C103.471 138.882 103.353 138.882 103.235 138.822L102.882 138.646C102.764 138.587 102.706 138.528 102.588 138.41C102.495 138.324 102.415 138.224 102.352 138.114L102.176 137.761C102.118 137.642 102.058 137.524 102.058 137.406C102 137.229 102 137.111 102 136.993C102 136.816 102.058 136.698 102.058 136.58C102.118 136.461 102.118 136.343 102.176 136.226L102.352 135.871C102.412 135.753 102.47 135.694 102.588 135.576C102.647 135.517 102.764 135.399 102.882 135.34L103.235 135.162C103.353 135.104 103.471 135.045 103.588 135.045C103.823 134.985 104.118 134.985 104.353 135.045C104.471 135.104 104.588 135.104 104.706 135.162L105.059 135.34C105.176 135.399 105.236 135.457 105.353 135.576C105.412 135.636 105.53 135.753 105.588 135.871C105.648 135.989 105.706 136.107 105.765 136.226ZM166 135C167.118 135 168 135.882 168 137C168 138.118 167.118 139 166 139C164.882 139 164 138.118 164 137C164 135.882 164.882 135 166 135ZM145 135C145.53 135 146.039 135.211 146.414 135.586C146.789 135.961 147 136.47 147 137C147 137.53 146.789 138.039 146.414 138.414C146.039 138.789 145.53 139 145 139C144.47 139 143.961 138.789 143.586 138.414C143.211 138.039 143 137.53 143 137C143 136.47 143.211 135.961 143.586 135.586C143.961 135.211 144.47 135 145 135ZM125 135C125.53 135 126.039 135.211 126.414 135.586C126.789 135.961 127 136.47 127 137C127 137.53 126.789 138.039 126.414 138.414C126.039 138.789 125.53 139 125 139C124.47 139 123.961 138.789 123.586 138.414C123.211 138.039 123 137.53 123 137C123 136.47 123.211 135.961 123.586 135.586C123.961 135.211 124.47 135 125 135ZM63 20C63.5304 20 64.0391 20.2107 64.4142 20.5858C64.7893 20.9609 65 21.4696 65 22C65 22.5304 64.7893 23.0391 64.4142 23.4142C64.0391 23.7893 63.5304 24 63 24C62.4696 24 61.9609 23.7893 61.5858 23.4142C61.2107 23.0391 61 22.5304 61 22C61 21.4696 61.2107 20.9609 61.5858 20.5858C61.9609 20.2107 62.4696 20 63 20ZM43 20C43.5304 20 44.0391 20.2107 44.4142 20.5858C44.7893 20.9609 45 21.4696 45 22C45 22.5304 44.7893 23.0391 44.4142 23.4142C44.0391 23.7893 43.5304 24 43 24C42.4696 24 41.9609 23.7893 41.5858 23.4142C41.2107 23.0391 41 22.5304 41 22C41 21.4696 41.2107 20.9609 41.5858 20.5858C41.9609 20.2107 42.4696 20 43 20ZM85.765 21.225C85.824 21.343 85.824 21.461 85.941 21.579C86 21.756 86 21.816 86 21.993C86 22.17 85.941 22.288 85.941 22.406C85.882 22.524 85.882 22.642 85.824 22.76L85.647 23.114C85.588 23.232 85.529 23.292 85.412 23.41C85.3261 23.5027 85.2271 23.5822 85.118 23.646L84.765 23.823C84.647 23.882 84.529 23.941 84.412 23.941C84.235 24 84.118 24 84 24C83.824 24 83.706 23.941 83.588 23.941C83.471 23.881 83.353 23.881 83.235 23.823C83.118 23.763 83 23.705 82.882 23.646C82.765 23.586 82.706 23.528 82.588 23.41C82.4955 23.3234 82.4163 23.2237 82.353 23.114L82.176 22.76C82.118 22.642 82.059 22.524 82.059 22.406C82 22.229 82 22.17 82 21.993C82 21.816 82.059 21.697 82.059 21.579C82.059 21.461 82.118 21.343 82.176 21.225L82.353 20.871C82.412 20.753 82.471 20.694 82.588 20.576C82.648 20.516 82.765 20.399 82.882 20.339L83.235 20.162C83.353 20.103 83.471 20.044 83.588 20.044C83.824 19.985 84.118 19.985 84.353 20.044C84.471 20.104 84.588 20.104 84.706 20.162L85.059 20.339C85.176 20.399 85.235 20.458 85.353 20.576C85.412 20.635 85.529 20.753 85.588 20.871L85.765 21.225ZM105.765 21.225C105.825 21.343 105.825 21.461 105.942 21.579C106 21.756 106 21.816 106 21.993C106 22.17 105.942 22.288 105.942 22.406C105.882 22.524 105.882 22.642 105.824 22.76C105.764 22.878 105.706 22.996 105.648 23.114C105.588 23.232 105.53 23.292 105.412 23.41C105.326 23.503 105.227 23.5825 105.118 23.646L104.765 23.823C104.647 23.882 104.529 23.941 104.412 23.941C104.235 24 104.117 24 104 24C103.823 24 103.706 23.941 103.588 23.941C103.471 23.881 103.353 23.881 103.235 23.823L102.882 23.646C102.764 23.586 102.706 23.528 102.588 23.41C102.495 23.3235 102.416 23.2238 102.352 23.114L102.176 22.76C102.118 22.642 102.058 22.524 102.058 22.406C102 22.229 102 22.17 102 21.993C102 21.816 102.058 21.697 102.058 21.579C102.118 21.461 102.118 21.343 102.176 21.225L102.352 20.871C102.412 20.753 102.47 20.694 102.588 20.576C102.674 20.4827 102.773 20.4028 102.882 20.339L103.235 20.162C103.353 20.103 103.471 20.044 103.588 20.044C103.823 19.985 104.118 19.985 104.353 20.044C104.471 20.104 104.588 20.104 104.706 20.162L105.059 20.339C105.176 20.399 105.236 20.458 105.353 20.576C105.412 20.635 105.53 20.753 105.588 20.871L105.765 21.225ZM145 20C145.53 20 146.039 20.2107 146.414 20.5858C146.789 20.9609 147 21.4696 147 22C147 22.5304 146.789 23.0391 146.414 23.4142C146.039 23.7893 145.53 24 145 24C144.47 24 143.961 23.7893 143.586 23.4142C143.211 23.0391 143 22.5304 143 22C143 21.4696 143.211 20.9609 143.586 20.5858C143.961 20.2107 144.47 20 145 20ZM125 20C125.53 20 126.039 20.2107 126.414 20.5858C126.789 20.9609 127 21.4696 127 22C127 22.5304 126.789 23.0391 126.414 23.4142C126.039 23.7893 125.53 24 125 24C124.47 24 123.961 23.7893 123.586 23.4142C123.211 23.0391 123 22.5304 123 22C123 21.4696 123.211 20.9609 123.586 20.5858C123.961 20.2107 124.47 20 125 20ZM63 -1.76951e-06C63.5304 -1.76951e-06 64.0391 0.210712 64.4142 0.585785C64.7893 0.960857 65 1.46957 65 2C65 2.53043 64.7893 3.03914 64.4142 3.41421C64.0391 3.78928 63.5304 4 63 4C62.4696 4 61.9609 3.78928 61.5858 3.41421C61.2107 3.03914 61 2.53043 61 2C61 1.46957 61.2107 0.960857 61.5858 0.585785C61.9609 0.210712 62.4696 -1.76951e-06 63 -1.76951e-06ZM85.765 1.225C85.824 1.343 85.824 1.461 85.941 1.579C86 1.756 86 1.875 86 1.993C86 2.17 85.941 2.288 85.941 2.406C85.882 2.524 85.882 2.642 85.824 2.76L85.647 3.114C85.588 3.232 85.529 3.292 85.412 3.41C85.3261 3.5027 85.2271 3.58223 85.118 3.646L84.765 3.823C84.647 3.882 84.529 3.941 84.412 3.941C84.235 4 84.118 4 84 4C83.824 4 83.706 3.941 83.588 3.941C83.471 3.881 83.353 3.881 83.235 3.823C83.118 3.763 83 3.705 82.882 3.646C82.765 3.586 82.706 3.528 82.588 3.41C82.4955 3.32343 82.4163 3.22369 82.353 3.114L82.176 2.76C82.118 2.642 82.059 2.524 82.059 2.406C82 2.229 82 2.11 82 1.993C82 1.815 82.059 1.697 82.059 1.579C82.059 1.461 82.118 1.343 82.176 1.225L82.353 0.870998C82.412 0.752998 82.471 0.693998 82.588 0.575998C82.648 0.515998 82.765 0.398998 82.882 0.338998L83.235 0.161998C83.353 0.102998 83.471 0.0439982 83.588 0.0439982C83.824 -0.0150018 84.118 -0.0150018 84.353 0.0439982C84.471 0.103998 84.588 0.103998 84.706 0.161998L85.059 0.338998C85.176 0.398998 85.235 0.457998 85.353 0.575998C85.412 0.634998 85.529 0.752998 85.588 0.870998L85.765 1.225ZM105.765 1.225C105.825 1.343 105.825 1.461 105.942 1.579C106 1.756 106 1.875 106 1.993C106 2.17 105.942 2.288 105.942 2.406C105.882 2.524 105.882 2.642 105.824 2.76C105.764 2.878 105.706 2.996 105.648 3.114C105.588 3.232 105.53 3.292 105.412 3.41C105.326 3.50296 105.227 3.58252 105.118 3.646L104.765 3.823C104.647 3.882 104.529 3.941 104.412 3.941C104.235 4 104.117 4 104 4C103.823 4 103.706 3.941 103.588 3.941C103.471 3.881 103.353 3.881 103.235 3.823L102.882 3.646C102.764 3.586 102.706 3.528 102.588 3.41C102.495 3.32349 102.416 3.22375 102.352 3.114L102.176 2.76C102.118 2.642 102.058 2.524 102.058 2.406C102 2.229 102 2.11 102 1.993C102 1.815 102.058 1.697 102.058 1.579C102.118 1.461 102.118 1.343 102.176 1.225L102.352 0.870998C102.412 0.752998 102.47 0.693998 102.588 0.575998C102.674 0.482678 102.773 0.402781 102.882 0.338998L103.235 0.161998C103.353 0.102998 103.471 0.0439982 103.588 0.0439982C103.823 -0.0150018 104.118 -0.0150018 104.353 0.0439982C104.471 0.103998 104.588 0.103998 104.706 0.161998C104.823 0.221998 104.942 0.279998 105.059 0.338998C105.176 0.398998 105.236 0.457998 105.353 0.575998C105.412 0.634998 105.53 0.752998 105.588 0.870998L105.765 1.225ZM125 -1.76951e-06C125.53 -1.76951e-06 126.039 0.210712 126.414 0.585785C126.789 0.960857 127 1.46957 127 2C127 2.53043 126.789 3.03914 126.414 3.41421C126.039 3.78928 125.53 4 125 4C124.47 4 123.961 3.78928 123.586 3.41421C123.211 3.03914 123 2.53043 123 2C123 1.46957 123.211 0.960857 123.586 0.585785C123.961 0.210712 124.47 -1.76951e-06 125 -1.76951e-06ZM63 155C63.5304 155 64.0391 155.211 64.4142 155.586C64.7893 155.961 65 156.47 65 157C65 157.53 64.7893 158.039 64.4142 158.414C64.0391 158.789 63.5304 159 63 159C62.4696 159 61.9609 158.789 61.5858 158.414C61.2107 158.039 61 157.53 61 157C61 156.47 61.2107 155.961 61.5858 155.586C61.9609 155.211 62.4696 155 63 155ZM43 155C43.5304 155 44.0391 155.211 44.4142 155.586C44.7893 155.961 45 156.47 45 157C45 157.53 44.7893 158.039 44.4142 158.414C44.0391 158.789 43.5304 159 43 159C42.4696 159 41.9609 158.789 41.5858 158.414C41.2107 158.039 41 157.53 41 157C41 156.47 41.2107 155.961 41.5858 155.586C41.9609 155.211 42.4696 155 43 155ZM85.765 156.226C85.824 156.343 85.824 156.461 85.941 156.58C86 156.756 86 156.816 86 156.993C86 157.17 85.941 157.288 85.941 157.406C85.882 157.524 85.882 157.642 85.824 157.761L85.647 158.114C85.588 158.232 85.529 158.292 85.412 158.41C85.352 158.47 85.235 158.587 85.118 158.646L84.765 158.823C84.647 158.883 84.529 158.942 84.412 158.942C84.235 159 84.118 159 84 159C83.824 159 83.706 158.942 83.588 158.942C83.471 158.882 83.353 158.882 83.235 158.822L82.882 158.646C82.765 158.587 82.706 158.528 82.588 158.41C82.4954 158.324 82.4162 158.224 82.353 158.114L82.176 157.761C82.118 157.642 82.059 157.524 82.059 157.406C82 157.229 82 157.17 82 156.993C82 156.816 82.059 156.698 82.059 156.58C82.059 156.461 82.118 156.343 82.176 156.226L82.353 155.871C82.412 155.753 82.471 155.694 82.588 155.576C82.648 155.517 82.765 155.399 82.882 155.34L83.235 155.162C83.353 155.104 83.471 155.045 83.588 155.045C83.824 154.985 84.118 154.985 84.353 155.045C84.471 155.104 84.588 155.104 84.706 155.162L85.059 155.34C85.176 155.399 85.235 155.457 85.353 155.576C85.412 155.636 85.529 155.753 85.588 155.871C85.648 155.989 85.706 156.107 85.765 156.226ZM105.765 156.226C105.825 156.343 105.825 156.461 105.942 156.58C106 156.756 106 156.816 106 156.993C106 157.17 105.942 157.288 105.942 157.406C105.882 157.524 105.882 157.642 105.824 157.761C105.764 157.879 105.706 157.997 105.648 158.114C105.588 158.232 105.53 158.292 105.412 158.41C105.353 158.47 105.236 158.587 105.118 158.646L104.765 158.823C104.647 158.883 104.529 158.942 104.412 158.942C104.235 159 104.117 159 104 159C103.823 159 103.706 158.942 103.588 158.942C103.471 158.882 103.353 158.882 103.235 158.822L102.882 158.646C102.764 158.587 102.706 158.528 102.588 158.41C102.495 158.324 102.415 158.224 102.352 158.114L102.176 157.761C102.118 157.642 102.058 157.524 102.058 157.406C102 157.229 102 157.17 102 156.993C102 156.816 102.058 156.698 102.058 156.58C102.118 156.461 102.118 156.343 102.176 156.226L102.352 155.871C102.412 155.753 102.47 155.694 102.588 155.576C102.647 155.517 102.764 155.399 102.882 155.34L103.235 155.162C103.353 155.104 103.471 155.045 103.588 155.045C103.823 154.985 104.118 154.985 104.353 155.045C104.471 155.104 104.588 155.104 104.706 155.162L105.059 155.34C105.176 155.399 105.236 155.457 105.353 155.576C105.412 155.636 105.53 155.753 105.588 155.871C105.648 155.989 105.706 156.107 105.765 156.226ZM145 155C145.53 155 146.039 155.211 146.414 155.586C146.789 155.961 147 156.47 147 157C147 157.53 146.789 158.039 146.414 158.414C146.039 158.789 145.53 159 145 159C144.47 159 143.961 158.789 143.586 158.414C143.211 158.039 143 157.53 143 157C143 156.47 143.211 155.961 143.586 155.586C143.961 155.211 144.47 155 145 155ZM125 155C125.53 155 126.039 155.211 126.414 155.586C126.789 155.961 127 156.47 127 157C127 157.53 126.789 158.039 126.414 158.414C126.039 158.789 125.53 159 125 159C124.47 159 123.961 158.789 123.586 158.414C123.211 158.039 123 157.53 123 157C123 156.47 123.211 155.961 123.586 155.586C123.961 155.211 124.47 155 125 155Z" fill="#57586E"/>
</g>
<defs>
<clipPath id="clip0">
<rect width="188" height="179" fill="white"/>
</clipPath>
</defs>
</svg>
