<?xml version="1.0" encoding="UTF-8"?>
<svg width="200px" height="200px" viewBox="0 0 200 200" version="1.1" xmlns="http://www.w3.org/2000/svg" xmlns:xlink="http://www.w3.org/1999/xlink">
    <title>Combined Shape</title>
    <g id="Home" stroke="none" stroke-width="1" fill="none" fill-rule="evenodd">
        <g transform="translate(-1180.000000, -4522.000000)" fill="#FF8246" id="Section-04">
            <g transform="translate(60.000000, 3996.000000)">
                <path d="M1159.50047,717 C1161.98631,717 1164,719.014631 1164,721.49953 L1164,721.50047 C1164,723.985369 1161.98631,726 1159.50047,726 C1157.01463,726 1155,723.985369 1155,721.50047 L1155,721.49953 C1155,719.085628 1156.90115,717.115506 1159.28859,717.004898 L1159.50047,717 Z M1176.50047,717 C1178.98631,717 1181,719.014631 1181,721.49953 L1181,721.50047 C1181,723.985369 1178.98631,726 1176.50047,726 C1174.01463,726 1172,723.985369 1172,721.50047 L1172,721.49953 C1172,719.085628 1173.90115,717.115506 1176.28859,717.004898 L1176.50047,717 Z M1193.49953,717 C1195.98537,717 1198,719.014631 1198,721.49953 L1198,721.50047 C1198,723.985369 1195.98537,726 1193.49953,726 C1191.01463,726 1189,723.985369 1189,721.50047 L1189,721.49953 C1189,719.085628 1190.90115,717.115506 1193.28773,717.004898 L1193.49953,717 Z M1211.49953,717 C1213.98537,717 1216,719.014631 1216,721.49953 L1216,721.50047 C1216,723.985369 1213.98537,726 1211.49953,726 C1209.01369,726 1207,723.985369 1207,721.50047 L1207,721.49953 C1207,719.085628 1208.90027,717.115506 1211.28765,717.004898 L1211.49953,717 Z M1228.5,717 C1230.9861,717 1233,719.014631 1233,721.49953 L1233,721.50047 C1233,723.985369 1230.9861,726 1228.5,726 C1226.0139,726 1224,723.985369 1224,721.50047 L1224,721.49953 C1224,719.085628 1225.90046,717.115506 1228.2881,717.004898 L1228.5,717 Z M1246.50047,717 C1248.98631,717 1251,719.014631 1251,721.49953 L1251,721.50047 C1251,723.985369 1248.98631,726 1246.50047,726 C1244.01463,726 1242,723.985369 1242,721.50047 L1242,721.49953 C1242,719.085628 1243.90115,717.115506 1246.28859,717.004898 L1246.50047,717 Z M1263.50047,717 C1265.98537,717 1268,719.014631 1268,721.49953 L1268,721.50047 C1268,723.985369 1265.98537,726 1263.50047,726 L1263.49953,726 C1261.01463,726 1259,723.985369 1259,721.50047 L1259,721.49953 C1259,719.014631 1261.01463,717 1263.49953,717 L1263.50047,717 Z M1280.49953,717 C1282.98537,717 1285,719.014631 1285,721.49953 L1285,721.50047 C1285,723.985369 1282.98537,726 1280.49953,726 C1278.01369,726 1276,723.985369 1276,721.50047 L1276,721.49953 C1276,719.085628 1277.90027,717.115506 1280.28765,717.004898 L1280.49953,717 Z M1280.49953,700 C1282.98537,700 1285,702.014631 1285,704.49953 L1285,704.50047 C1285,706.985369 1282.98537,709 1280.49953,709 C1278.01369,709 1276,706.985369 1276,704.50047 L1276,704.49953 C1276,702.085628 1277.90027,700.115506 1280.28765,700.004898 L1280.49953,700 Z M1298.49953,700 C1300.98537,700 1303,702.014631 1303,704.49953 L1303,704.50047 C1303,706.985369 1300.98537,709 1298.49953,709 C1296.01369,709 1294,706.985369 1294,704.50047 L1294,704.49953 C1294,702.085628 1295.90027,700.115506 1298.28765,700.004898 L1298.49953,700 Z M1141.49953,700 C1143.98537,700 1146,702.014631 1146,704.49953 L1146,704.50047 C1146,706.985369 1143.98537,709 1141.49953,709 C1139.01369,709 1137,706.985369 1137,704.50047 L1137,704.49953 C1137,702.085628 1138.90027,700.115506 1141.28765,700.004898 L1141.49953,700 Z M1159.50047,700 C1161.98631,700 1164,702.014631 1164,704.49953 L1164,704.50047 C1164,706.985369 1161.98631,709 1159.50047,709 C1157.01463,709 1155,706.985369 1155,704.50047 L1155,704.49953 C1155,702.085628 1156.90115,700.115506 1159.28859,700.004898 L1159.50047,700 Z M1176.50047,700 C1178.98631,700 1181,702.014631 1181,704.49953 L1181,704.50047 C1181,706.985369 1178.98631,709 1176.50047,709 C1174.01463,709 1172,706.985369 1172,704.50047 L1172,704.49953 C1172,702.085628 1173.90115,700.115506 1176.28859,700.004898 L1176.50047,700 Z M1193.49953,700 C1195.98537,700 1198,702.014631 1198,704.49953 L1198,704.50047 C1198,706.985369 1195.98537,709 1193.49953,709 C1191.01463,709 1189,706.985369 1189,704.50047 L1189,704.49953 C1189,702.085628 1190.90115,700.115506 1193.28773,700.004898 L1193.49953,700 Z M1211.49953,700 C1213.98537,700 1216,702.014631 1216,704.49953 L1216,704.50047 C1216,706.985369 1213.98537,709 1211.49953,709 C1209.01369,709 1207,706.985369 1207,704.50047 L1207,704.49953 C1207,702.085628 1208.90027,700.115506 1211.28765,700.004898 L1211.49953,700 Z M1228.5,700 C1230.9861,700 1233,702.014631 1233,704.49953 L1233,704.50047 C1233,706.985369 1230.9861,709 1228.5,709 C1226.0139,709 1224,706.985369 1224,704.50047 L1224,704.49953 C1224,702.085628 1225.90046,700.115506 1228.2881,700.004898 L1228.5,700 Z M1246.50047,700 C1248.98631,700 1251,702.014631 1251,704.49953 L1251,704.50047 C1251,706.985369 1248.98631,709 1246.50047,709 C1244.01463,709 1242,706.985369 1242,704.50047 L1242,704.49953 C1242,702.085628 1243.90115,700.115506 1246.28859,700.004898 L1246.50047,700 Z M1263.50047,700 C1265.98537,700 1268,702.014631 1268,704.49953 L1268,704.50047 C1268,706.985369 1265.98537,709 1263.50047,709 L1263.49953,709 C1261.01463,709 1259,706.985369 1259,704.50047 L1259,704.49953 C1259,702.014631 1261.01463,700 1263.49953,700 L1263.50047,700 Z M1228.5,682 C1230.9861,682 1233,684.014631 1233,686.49953 C1233,688.985369 1230.9861,691 1228.5,691 C1226.0139,691 1224,688.985369 1224,686.49953 C1224,684.085628 1225.90046,682.115506 1228.2881,682.004898 L1228.5,682 Z M1246.50047,682 C1248.98631,682 1251,684.014631 1251,686.49953 C1251,688.985369 1248.98631,691 1246.50047,691 C1244.01463,691 1242,688.985369 1242,686.49953 C1242,684.085628 1243.90115,682.115506 1246.28859,682.004898 L1246.50047,682 Z M1263.50047,682 C1265.98537,682 1268,684.014631 1268,686.49953 C1268,688.985369 1265.98537,691 1263.50047,691 L1263.49953,691 C1261.01463,691 1259,688.985369 1259,686.49953 C1259,684.014631 1261.01463,682 1263.49953,682 L1263.50047,682 Z M1280.49953,682 C1282.98537,682 1285,684.014631 1285,686.49953 C1285,688.985369 1282.98537,691 1280.49953,691 C1278.01369,691 1276,688.985369 1276,686.49953 C1276,684.085628 1277.90027,682.115506 1280.28765,682.004898 L1280.49953,682 Z M1298.49953,682 C1300.98537,682 1303,684.014631 1303,686.49953 C1303,688.985369 1300.98537,691 1298.49953,691 C1296.01369,691 1294,688.985369 1294,686.49953 C1294,684.085628 1295.90027,682.115506 1298.28765,682.004898 L1298.49953,682 Z M1315.50047,682 C1317.98631,682 1320,684.014631 1320,686.49953 C1320,688.985369 1317.98631,691 1315.50047,691 C1313.01463,691 1311,688.985369 1311,686.49953 C1311,684.085628 1312.90115,682.115506 1315.28859,682.004898 L1315.50047,682 Z M1124.49953,682 C1126.98537,682 1129,684.014631 1129,686.49953 C1129,688.985369 1126.98537,691 1124.49953,691 C1122.01369,691 1120,688.985369 1120,686.49953 C1120,684.085628 1121.90027,682.115506 1124.28765,682.004898 L1124.49953,682 Z M1141.49953,682 C1143.98537,682 1146,684.014631 1146,686.49953 C1146,688.985369 1143.98537,691 1141.49953,691 C1139.01369,691 1137,688.985369 1137,686.49953 C1137,684.085628 1138.90027,682.115506 1141.28765,682.004898 L1141.49953,682 Z M1159.50047,682 C1161.98631,682 1164,684.014631 1164,686.49953 C1164,688.985369 1161.98631,691 1159.50047,691 C1157.01463,691 1155,688.985369 1155,686.49953 C1155,684.085628 1156.90115,682.115506 1159.28859,682.004898 L1159.50047,682 Z M1176.50047,682 C1178.98631,682 1181,684.014631 1181,686.49953 C1181,688.985369 1178.98631,691 1176.50047,691 C1174.01463,691 1172,688.985369 1172,686.49953 C1172,684.085628 1173.90115,682.115506 1176.28859,682.004898 L1176.50047,682 Z M1193.49953,682 C1195.98537,682 1198,684.014631 1198,686.49953 C1198,688.985369 1195.98537,691 1193.49953,691 C1191.01463,691 1189,688.985369 1189,686.49953 C1189,684.085628 1190.90115,682.115506 1193.28773,682.004898 L1193.49953,682 Z M1211.49953,682 C1213.98537,682 1216,684.014631 1216,686.49953 C1216,688.985369 1213.98537,691 1211.49953,691 C1209.01369,691 1207,688.985369 1207,686.49953 C1207,684.085628 1208.90027,682.115506 1211.28765,682.004898 L1211.49953,682 Z M1298.49953,665 C1300.98537,665 1303,667.014631 1303,669.50047 C1303,671.985369 1300.98537,674 1298.49953,674 C1296.01369,674 1294,671.985369 1294,669.50047 C1294,667.085655 1295.90027,665.115506 1298.28765,665.004898 L1298.49953,665 Z M1315.50047,665 C1317.98631,665 1320,667.014631 1320,669.50047 C1320,671.985369 1317.98631,674 1315.50047,674 C1313.01463,674 1311,671.985369 1311,669.50047 C1311,667.085655 1312.90115,665.115506 1315.28859,665.004898 L1315.50047,665 Z M1193.49953,665 C1195.98537,665 1198,667.014631 1198,669.50047 C1198,671.985369 1195.98537,674 1193.49953,674 C1191.01463,674 1189,671.985369 1189,669.50047 C1189,667.085655 1190.90115,665.115506 1193.28773,665.004898 L1193.49953,665 Z M1124.49953,665 C1126.98537,665 1129,667.014631 1129,669.50047 C1129,671.985369 1126.98537,674 1124.49953,674 C1122.01369,674 1120,671.985369 1120,669.50047 C1120,667.085655 1121.90027,665.115506 1124.28765,665.004898 L1124.49953,665 Z M1141.49953,665 C1143.98537,665 1146,667.014631 1146,669.50047 C1146,671.985369 1143.98537,674 1141.49953,674 C1139.01369,674 1137,671.985369 1137,669.50047 C1137,667.085655 1138.90027,665.115506 1141.28765,665.004898 L1141.49953,665 Z M1159.50047,665 C1161.98631,665 1164,667.014631 1164,669.50047 C1164,671.985369 1161.98631,674 1159.50047,674 C1157.01463,674 1155,671.985369 1155,669.50047 C1155,667.085655 1156.90115,665.115506 1159.28859,665.004898 L1159.50047,665 Z M1176.50047,665 C1178.98631,665 1181,667.014631 1181,669.50047 C1181,671.985369 1178.98631,674 1176.50047,674 C1174.01463,674 1172,671.985369 1172,669.50047 C1172,667.085655 1173.90115,665.115506 1176.28859,665.004898 L1176.50047,665 Z M1211.49953,665 C1213.98537,665 1216,667.014631 1216,669.50047 C1216,671.985369 1213.98537,674 1211.49953,674 C1209.01369,674 1207,671.985369 1207,669.50047 C1207,667.085655 1208.90027,665.115506 1211.28765,665.004898 L1211.49953,665 Z M1228.5,665 C1230.9861,665 1233,667.014631 1233,669.50047 C1233,671.985369 1230.9861,674 1228.5,674 C1226.0139,674 1224,671.985369 1224,669.50047 C1224,667.085655 1225.90046,665.115506 1228.2881,665.004898 L1228.5,665 Z M1246.50047,665 C1248.98631,665 1251,667.014631 1251,669.50047 C1251,671.985369 1248.98631,674 1246.50047,674 C1244.01463,674 1242,671.985369 1242,669.50047 C1242,667.085655 1243.90115,665.115506 1246.28859,665.004898 L1246.50047,665 Z M1263.50047,665 C1265.98537,665 1268,667.014631 1268,669.50047 C1268,671.985369 1265.98537,674 1263.50047,674 L1263.49953,674 C1261.01463,674 1259,671.985369 1259,669.50047 C1259,667.014631 1261.01463,665 1263.49953,665 L1263.50047,665 Z M1280.49953,665 C1282.98537,665 1285,667.014631 1285,669.50047 C1285,671.985369 1282.98537,674 1280.49953,674 C1278.01369,674 1276,671.985369 1276,669.50047 C1276,667.085655 1277.90027,665.115506 1280.28765,665.004898 L1280.49953,665 Z M1280.49953,648 C1282.98537,648 1285,650.014631 1285,652.50047 C1285,654.985369 1282.98537,657 1280.49953,657 C1278.01369,657 1276,654.985369 1276,652.50047 C1276,650.085655 1277.90027,648.115506 1280.28765,648.004898 L1280.49953,648 Z M1141.49953,648 C1143.98537,648 1146,650.014631 1146,652.50047 C1146,654.985369 1143.98537,657 1141.49953,657 C1139.01369,657 1137,654.985369 1137,652.50047 C1137,650.085655 1138.90027,648.115506 1141.28765,648.004898 L1141.49953,648 Z M1159.50047,648 C1161.98631,648 1164,650.014631 1164,652.50047 C1164,654.985369 1161.98631,657 1159.50047,657 C1157.01463,657 1155,654.985369 1155,652.50047 C1155,650.085655 1156.90115,648.115506 1159.28859,648.004898 L1159.50047,648 Z M1193.49953,648 C1195.98537,648 1198,650.014631 1198,652.50047 C1198,654.985369 1195.98537,657 1193.49953,657 C1191.01463,657 1189,654.985369 1189,652.50047 C1189,650.085655 1190.90115,648.115506 1193.28773,648.004898 L1193.49953,648 Z M1124.49953,648 C1126.98537,648 1129,650.014631 1129,652.50047 C1129,654.985369 1126.98537,657 1124.49953,657 C1122.01369,657 1120,654.985369 1120,652.50047 C1120,650.085655 1121.90027,648.115506 1124.28765,648.004898 L1124.49953,648 Z M1298.49953,648 C1300.98537,648 1303,650.014631 1303,652.50047 C1303,654.985369 1300.98537,657 1298.49953,657 C1296.01369,657 1294,654.985369 1294,652.50047 C1294,650.085655 1295.90027,648.115506 1298.28765,648.004898 L1298.49953,648 Z M1315.50047,648 C1317.98631,648 1320,650.014631 1320,652.50047 C1320,654.985369 1317.98631,657 1315.50047,657 C1313.01463,657 1311,654.985369 1311,652.50047 C1311,650.085655 1312.90115,648.115506 1315.28859,648.004898 L1315.50047,648 Z M1211.49953,648 C1213.98537,648 1216,650.014631 1216,652.50047 C1216,654.985369 1213.98537,657 1211.49953,657 C1209.01369,657 1207,654.985369 1207,652.50047 C1207,650.085655 1208.90027,648.115506 1211.28765,648.004898 L1211.49953,648 Z M1228.5,648 C1230.9861,648 1233,650.014631 1233,652.50047 C1233,654.985369 1230.9861,657 1228.5,657 C1226.0139,657 1224,654.985369 1224,652.50047 C1224,650.085655 1225.90046,648.115506 1228.2881,648.004898 L1228.5,648 Z M1246.50047,648 C1248.98631,648 1251,650.014631 1251,652.50047 C1251,654.985369 1248.98631,657 1246.50047,657 C1244.01463,657 1242,654.985369 1242,652.50047 C1242,650.085655 1243.90115,648.115506 1246.28859,648.004898 L1246.50047,648 Z M1263.50047,648 C1265.98537,648 1268,650.014631 1268,652.50047 C1268,654.985369 1265.98537,657 1263.50047,657 L1263.49953,657 C1261.01463,657 1259,654.985369 1259,652.50047 C1259,650.014631 1261.01463,648 1263.49953,648 L1263.50047,648 Z M1176.49953,648 C1178.98537,648 1181,650.014631 1181,652.50047 C1181,654.985369 1178.98537,657 1176.49953,657 C1174.01463,657 1172,654.985369 1172,652.50047 C1172,650.085655 1173.90115,648.115506 1176.28773,648.004898 L1176.49953,648 Z M1228.5,630 C1230.9861,630 1233,632.014631 1233,634.50047 C1233,636.985369 1230.9861,639 1228.5,639 C1226.0139,639 1224,636.985369 1224,634.50047 C1224,632.085655 1225.90046,630.115506 1228.2881,630.004898 L1228.5,630 Z M1193.49953,630 C1195.98537,630 1198,632.014631 1198,634.50047 C1198,636.985369 1195.98537,639 1193.49953,639 C1191.01463,639 1189,636.985369 1189,634.50047 C1189,632.085655 1190.90115,630.115506 1193.28773,630.004898 L1193.49953,630 Z M1246.50047,630 C1248.98631,630 1251,632.014631 1251,634.50047 C1251,636.985369 1248.98631,639 1246.50047,639 C1244.01463,639 1242,636.985369 1242,634.50047 C1242,632.085655 1243.90115,630.115506 1246.28859,630.004898 L1246.50047,630 Z M1211.49953,630 C1213.98537,630 1216,632.014631 1216,634.50047 C1216,636.985369 1213.98537,639 1211.49953,639 C1209.01369,639 1207,636.985369 1207,634.50047 C1207,632.085655 1208.90027,630.115506 1211.28765,630.004898 L1211.49953,630 Z M1280.49953,630 C1282.98537,630 1285,632.014631 1285,634.50047 C1285,636.985369 1282.98537,639 1280.49953,639 C1278.01369,639 1276,636.985369 1276,634.50047 C1276,632.085655 1277.90027,630.115506 1280.28765,630.004898 L1280.49953,630 Z M1176.50047,630 C1178.98631,630 1181,632.014631 1181,634.50047 C1181,636.985369 1178.98631,639 1176.50047,639 C1174.01463,639 1172,636.985369 1172,634.50047 C1172,632.085655 1173.90115,630.115506 1176.28859,630.004898 L1176.50047,630 Z M1263.50047,630 C1265.98537,630 1268,632.014631 1268,634.50047 C1268,636.985369 1265.98537,639 1263.50047,639 L1263.49953,639 C1261.01463,639 1259,636.985369 1259,634.50047 C1259,632.014631 1261.01463,630 1263.49953,630 L1263.50047,630 Z M1298.49953,630 C1300.98537,630 1303,632.014631 1303,634.50047 C1303,636.985369 1300.98537,639 1298.49953,639 C1296.01369,639 1294,636.985369 1294,634.50047 C1294,632.085655 1295.90027,630.115506 1298.28765,630.004898 L1298.49953,630 Z M1315.50047,630 C1317.98631,630 1320,632.014631 1320,634.50047 C1320,636.985369 1317.98631,639 1315.50047,639 C1313.01463,639 1311,636.985369 1311,634.50047 C1311,632.085655 1312.90115,630.115506 1315.28859,630.004898 L1315.50047,630 Z M1124.49953,630 C1126.98537,630 1129,632.014631 1129,634.50047 C1129,636.985369 1126.98537,639 1124.49953,639 C1122.01369,639 1120,636.985369 1120,634.50047 C1120,632.085655 1121.90027,630.115506 1124.28765,630.004898 L1124.49953,630 Z M1141.49953,630 C1143.98537,630 1146,632.014631 1146,634.50047 C1146,636.985369 1143.98537,639 1141.49953,639 C1139.01369,639 1137,636.985369 1137,634.50047 C1137,632.085655 1138.90027,630.115506 1141.28765,630.004898 L1141.49953,630 Z M1159.50047,630 C1161.98631,630 1164,632.014631 1164,634.50047 C1164,636.985369 1161.98631,639 1159.50047,639 C1157.01463,639 1155,636.985369 1155,634.50047 C1155,632.085655 1156.90115,630.115506 1159.28859,630.004898 L1159.50047,630 Z M1246.50047,613 C1248.98631,613 1251,615.014631 1251,617.50047 C1251,619.985369 1248.98631,622 1246.50047,622 C1244.01463,622 1242,619.985369 1242,617.50047 C1242,615.085655 1243.90115,613.115506 1246.28859,613.004898 L1246.50047,613 Z M1124.49953,613 C1126.98537,613 1129,615.014631 1129,617.50047 C1129,619.985369 1126.98537,622 1124.49953,622 C1122.01369,622 1120,619.985369 1120,617.50047 C1120,615.085655 1121.90027,613.115506 1124.28765,613.004898 L1124.49953,613 Z M1228.5,613 C1230.9861,613 1233,615.014631 1233,617.50047 C1233,619.985369 1230.9861,622 1228.5,622 C1226.0139,622 1224,619.985369 1224,617.50047 C1224,615.085655 1225.90046,613.115506 1228.2881,613.004898 L1228.5,613 Z M1315.50047,613 C1317.98631,613 1320,615.014631 1320,617.50047 C1320,619.985369 1317.98631,622 1315.50047,622 C1313.01463,622 1311,619.985369 1311,617.50047 C1311,615.085655 1312.90115,613.115506 1315.28859,613.004898 L1315.50047,613 Z M1211.49953,613 C1213.98537,613 1216,615.014631 1216,617.50047 C1216,619.985369 1213.98537,622 1211.49953,622 C1209.01369,622 1207,619.985369 1207,617.50047 C1207,615.085655 1208.90027,613.115506 1211.28765,613.004898 L1211.49953,613 Z M1176.50047,613 C1178.98631,613 1181,615.014631 1181,617.50047 C1181,619.985369 1178.98631,622 1176.50047,622 C1174.01463,622 1172,619.985369 1172,617.50047 C1172,615.085655 1173.90115,613.115506 1176.28859,613.004898 L1176.50047,613 Z M1280.49953,613 C1282.98537,613 1285,615.014631 1285,617.50047 C1285,619.985369 1282.98537,622 1280.49953,622 C1278.01369,622 1276,619.985369 1276,617.50047 C1276,615.085655 1277.90027,613.115506 1280.28765,613.004898 L1280.49953,613 Z M1263.50047,613 C1265.98537,613 1268,615.014631 1268,617.50047 C1268,619.985369 1265.98537,622 1263.50047,622 L1263.49953,622 C1261.01463,622 1259,619.985369 1259,617.50047 C1259,615.014631 1261.01463,613 1263.49953,613 L1263.50047,613 Z M1141.49953,613 C1143.98537,613 1146,615.014631 1146,617.50047 C1146,619.985369 1143.98537,622 1141.49953,622 C1139.01369,622 1137,619.985369 1137,617.50047 C1137,615.085655 1138.90027,613.115506 1141.28765,613.004898 L1141.49953,613 Z M1193.49953,613 C1195.98537,613 1198,615.014631 1198,617.50047 C1198,619.985369 1195.98537,622 1193.49953,622 C1191.01463,622 1189,619.985369 1189,617.50047 C1189,615.085655 1190.90115,613.115506 1193.28773,613.004898 L1193.49953,613 Z M1159.50047,613 C1161.98631,613 1164,615.014631 1164,617.50047 C1164,619.985369 1161.98631,622 1159.50047,622 C1157.01463,622 1155,619.985369 1155,617.50047 C1155,615.085655 1156.90115,613.115506 1159.28859,613.004898 L1159.50047,613 Z M1298.49953,613 C1300.98537,613 1303,615.014631 1303,617.50047 C1303,619.985369 1300.98537,622 1298.49953,622 C1296.01369,622 1294,619.985369 1294,617.50047 C1294,615.085655 1295.90027,613.115506 1298.28765,613.004898 L1298.49953,613 Z M1228.5,595 C1230.9861,595 1233,597.014631 1233,599.50047 C1233,601.985369 1230.9861,604 1228.5,604 C1226.0139,604 1224,601.985369 1224,599.50047 C1224,597.085655 1225.90046,595.115506 1228.2881,595.004898 L1228.5,595 Z M1141.49953,595 C1143.98537,595 1146,597.014631 1146,599.50047 C1146,601.985369 1143.98537,604 1141.49953,604 C1139.01369,604 1137,601.985369 1137,599.50047 C1137,597.085655 1138.90027,595.115506 1141.28765,595.004898 L1141.49953,595 Z M1263.50047,595 C1265.98537,595 1268,597.014631 1268,599.50047 C1268,601.985369 1265.98537,604 1263.50047,604 L1263.49953,604 C1261.01463,604 1259,601.985369 1259,599.50047 C1259,597.014631 1261.01463,595 1263.49953,595 L1263.50047,595 Z M1246.50047,595 C1248.98631,595 1251,597.014631 1251,599.50047 C1251,601.985369 1248.98631,604 1246.50047,604 C1244.01463,604 1242,601.985369 1242,599.50047 C1242,597.085655 1243.90115,595.115506 1246.28859,595.004898 L1246.50047,595 Z M1159.50047,595 C1161.98631,595 1164,597.014631 1164,599.50047 C1164,601.985369 1161.98631,604 1159.50047,604 C1157.01463,604 1155,601.985369 1155,599.50047 C1155,597.085655 1156.90115,595.115506 1159.28859,595.004898 L1159.50047,595 Z M1176.50047,595 C1178.98631,595 1181,597.014631 1181,599.50047 C1181,601.985369 1178.98631,604 1176.50047,604 C1174.01463,604 1172,601.985369 1172,599.50047 C1172,597.085655 1173.90115,595.115506 1176.28859,595.004898 L1176.50047,595 Z M1124.49953,595 C1126.98537,595 1129,597.014631 1129,599.50047 C1129,601.985369 1126.98537,604 1124.49953,604 C1122.01369,604 1120,601.985369 1120,599.50047 C1120,597.085655 1121.90027,595.115506 1124.28765,595.004898 L1124.49953,595 Z M1211.49953,595 C1213.98537,595 1216,597.014631 1216,599.50047 C1216,601.985369 1213.98537,604 1211.49953,604 C1209.01369,604 1207,601.985369 1207,599.50047 C1207,597.085655 1208.90027,595.115506 1211.28765,595.004898 L1211.49953,595 Z M1193.49953,595 C1195.98537,595 1198,597.014631 1198,599.50047 C1198,601.985369 1195.98537,604 1193.49953,604 C1191.01463,604 1189,601.985369 1189,599.50047 C1189,597.085655 1190.90115,595.115506 1193.28773,595.004898 L1193.49953,595 Z M1315.50047,595 C1317.98631,595 1320,597.014631 1320,599.50047 C1320,601.985369 1317.98631,604 1315.50047,604 C1313.01463,604 1311,601.985369 1311,599.50047 C1311,597.085655 1312.90115,595.115506 1315.28859,595.004898 L1315.50047,595 Z M1298.49953,595 C1300.98537,595 1303,597.014631 1303,599.50047 C1303,601.985369 1300.98537,604 1298.49953,604 C1296.01369,604 1294,601.985369 1294,599.50047 C1294,597.085655 1295.90027,595.115506 1298.28765,595.004898 L1298.49953,595 Z M1280.49953,595 C1282.98537,595 1285,597.014631 1285,599.50047 C1285,601.985369 1282.98537,604 1280.49953,604 C1278.01369,604 1276,601.985369 1276,599.50047 C1276,597.085655 1277.90027,595.115506 1280.28765,595.004898 L1280.49953,595 Z M1124.49953,578 C1126.98537,578 1129,580.014631 1129,582.50047 C1129,584.985369 1126.98537,587 1124.49953,587 C1122.01369,587 1120,584.985369 1120,582.50047 C1120,580.085655 1121.90027,578.115506 1124.28765,578.004898 L1124.49953,578 Z M1211.49953,578 C1213.98537,578 1216,580.014631 1216,582.50047 C1216,584.985369 1213.98537,587 1211.49953,587 C1209.01369,587 1207,584.985369 1207,582.50047 C1207,580.085655 1208.90027,578.115506 1211.28765,578.004898 L1211.49953,578 Z M1193.49953,578 C1195.98537,578 1198,580.014631 1198,582.50047 C1198,584.985369 1195.98537,587 1193.49953,587 C1191.01463,587 1189,584.985369 1189,582.50047 C1189,580.085655 1190.90115,578.115506 1193.28773,578.004898 L1193.49953,578 Z M1315.50047,578 C1317.98631,578 1320,580.014631 1320,582.50047 C1320,584.985369 1317.98631,587 1315.50047,587 C1313.01463,587 1311,584.985369 1311,582.50047 C1311,580.085655 1312.90115,578.115506 1315.28859,578.004898 L1315.50047,578 Z M1263.50047,578 C1265.98537,578 1268,580.014631 1268,582.50047 C1268,584.985369 1265.98537,587 1263.50047,587 L1263.49953,587 C1261.01463,587 1259,584.985369 1259,582.50047 C1259,580.014631 1261.01463,578 1263.49953,578 L1263.50047,578 Z M1246.50047,578 C1248.98631,578 1251,580.014631 1251,582.50047 C1251,584.985369 1248.98631,587 1246.50047,587 C1244.01463,587 1242,584.985369 1242,582.50047 C1242,580.085655 1243.90115,578.115506 1246.28859,578.004898 L1246.50047,578 Z M1159.50047,578 C1161.98631,578 1164,580.014631 1164,582.50047 C1164,584.985369 1161.98631,587 1159.50047,587 C1157.01463,587 1155,584.985369 1155,582.50047 C1155,580.085655 1156.90115,578.115506 1159.28859,578.004898 L1159.50047,578 Z M1176.50047,578 C1178.98631,578 1181,580.014631 1181,582.50047 C1181,584.985369 1178.98631,587 1176.50047,587 C1174.01463,587 1172,584.985369 1172,582.50047 C1172,580.085655 1173.90115,578.115506 1176.28859,578.004898 L1176.50047,578 Z M1228.5,578 C1230.9861,578 1233,580.014631 1233,582.50047 C1233,584.985369 1230.9861,587 1228.5,587 C1226.0139,587 1224,584.985369 1224,582.50047 C1224,580.085655 1225.90046,578.115506 1228.2881,578.004898 L1228.5,578 Z M1141.49953,578 C1143.98537,578 1146,580.014631 1146,582.50047 C1146,584.985369 1143.98537,587 1141.49953,587 C1139.01369,587 1137,584.985369 1137,582.50047 C1137,580.085655 1138.90027,578.115506 1141.28765,578.004898 L1141.49953,578 Z M1298.49953,578 C1300.98537,578 1303,580.014631 1303,582.50047 C1303,584.985369 1300.98537,587 1298.49953,587 C1296.01369,587 1294,584.985369 1294,582.50047 C1294,580.085655 1295.90027,578.115506 1298.28765,578.004898 L1298.49953,578 Z M1280.49953,578 C1282.98537,578 1285,580.014631 1285,582.50047 C1285,584.985369 1282.98537,587 1280.49953,587 C1278.01369,587 1276,584.985369 1276,582.50047 C1276,580.085655 1277.90027,578.115506 1280.28765,578.004898 L1280.49953,578 Z M1193.49953,561 C1195.98537,561 1198,563.014631 1198,565.49953 L1198,565.50047 C1198,567.985369 1195.98537,570 1193.49953,570 C1191.01463,570 1189,567.985369 1189,565.50047 L1189,565.49953 C1189,563.085628 1190.90115,561.115506 1193.28773,561.004898 L1193.49953,561 Z M1176.50047,561 C1178.98631,561 1181,563.014631 1181,565.49953 L1181,565.50047 C1181,567.985369 1178.98631,570 1176.50047,570 C1174.01463,570 1172,567.985369 1172,565.50047 L1172,565.49953 C1172,563.085628 1173.90115,561.115506 1176.28859,561.004898 L1176.50047,561 Z M1263.50047,561 C1265.98537,561 1268,563.014631 1268,565.49953 L1268,565.50047 C1268,567.985369 1265.98537,570 1263.50047,570 L1263.49953,570 C1261.01463,570 1259,567.985369 1259,565.50047 L1259,565.49953 C1259,563.014631 1261.01463,561 1263.49953,561 L1263.50047,561 Z M1141.49953,561 C1143.98537,561 1146,563.014631 1146,565.49953 L1146,565.50047 C1146,567.985369 1143.98537,570 1141.49953,570 C1139.01369,570 1137,567.985369 1137,565.50047 L1137,565.49953 C1137,563.085628 1138.90027,561.115506 1141.28765,561.004898 L1141.49953,561 Z M1159.50047,561 C1161.98631,561 1164,563.014631 1164,565.49953 L1164,565.50047 C1164,567.985369 1161.98631,570 1159.50047,570 C1157.01463,570 1155,567.985369 1155,565.50047 L1155,565.49953 C1155,563.085628 1156.90115,561.115506 1159.28859,561.004898 L1159.50047,561 Z M1280.49953,561 C1282.98537,561 1285,563.014631 1285,565.49953 L1285,565.50047 C1285,567.985369 1282.98537,570 1280.49953,570 C1278.01369,570 1276,567.985369 1276,565.50047 L1276,565.49953 C1276,563.085628 1277.90027,561.115506 1280.28765,561.004898 L1280.49953,561 Z M1298.49953,561 C1300.98537,561 1303,563.014631 1303,565.49953 L1303,565.50047 C1303,567.985369 1300.98537,570 1298.49953,570 C1296.01369,570 1294,567.985369 1294,565.50047 L1294,565.49953 C1294,563.085628 1295.90027,561.115506 1298.28765,561.004898 L1298.49953,561 Z M1315.50047,561 C1317.98631,561 1320,563.014631 1320,565.49953 L1320,565.50047 C1320,567.985369 1317.98631,570 1315.50047,570 C1313.01463,570 1311,567.985369 1311,565.50047 L1311,565.49953 C1311,563.085628 1312.90115,561.115506 1315.28859,561.004898 L1315.50047,561 Z M1124.49953,561 C1126.98537,561 1129,563.014631 1129,565.49953 L1129,565.50047 C1129,567.985369 1126.98537,570 1124.49953,570 C1122.01369,570 1120,567.985369 1120,565.50047 L1120,565.49953 C1120,563.085628 1121.90027,561.115506 1124.28765,561.004898 L1124.49953,561 Z M1246.50047,561 C1248.98631,561 1251,563.014631 1251,565.49953 L1251,565.50047 C1251,567.985369 1248.98631,570 1246.50047,570 C1244.01463,570 1242,567.985369 1242,565.50047 L1242,565.49953 C1242,563.085628 1243.90115,561.115506 1246.28859,561.004898 L1246.50047,561 Z M1228.5,561 C1230.9861,561 1233,563.014631 1233,565.49953 L1233,565.50047 C1233,567.985369 1230.9861,570 1228.5,570 C1226.0139,570 1224,567.985369 1224,565.50047 L1224,565.49953 C1224,563.085628 1225.90046,561.115506 1228.2881,561.004898 L1228.5,561 Z M1211.49953,561 C1213.98537,561 1216,563.014631 1216,565.49953 L1216,565.50047 C1216,567.985369 1213.98537,570 1211.49953,570 C1209.01369,570 1207,567.985369 1207,565.50047 L1207,565.49953 C1207,563.085628 1208.90027,561.115506 1211.28765,561.004898 L1211.49953,561 Z M1280.49953,543 C1282.98537,543 1285,545.014631 1285,547.49953 L1285,547.50047 C1285,549.985369 1282.98537,552 1280.49953,552 C1278.01369,552 1276,549.985369 1276,547.50047 L1276,547.49953 C1276,545.085628 1277.90027,543.115506 1280.28765,543.004898 L1280.49953,543 Z M1298.49953,543 C1300.98537,543 1303,545.014631 1303,547.49953 L1303,547.50047 C1303,549.985369 1300.98537,552 1298.49953,552 C1296.01369,552 1294,549.985369 1294,547.50047 L1294,547.49953 C1294,545.085628 1295.90027,543.115506 1298.28765,543.004898 L1298.49953,543 Z M1193.49953,543 C1195.98537,543 1198,545.014631 1198,547.49953 L1198,547.50047 C1198,549.985369 1195.98537,552 1193.49953,552 C1191.01463,552 1189,549.985369 1189,547.50047 L1189,547.49953 C1189,545.085628 1190.90115,543.115506 1193.28773,543.004898 L1193.49953,543 Z M1211.49953,543 C1213.98537,543 1216,545.014631 1216,547.49953 L1216,547.50047 C1216,549.985369 1213.98537,552 1211.49953,552 C1209.01369,552 1207,549.985369 1207,547.50047 L1207,547.49953 C1207,545.085628 1208.90027,543.115506 1211.28765,543.004898 L1211.49953,543 Z M1176.50047,543 C1178.98631,543 1181,545.014631 1181,547.49953 L1181,547.50047 C1181,549.985369 1178.98631,552 1176.50047,552 C1174.01463,552 1172,549.985369 1172,547.50047 L1172,547.49953 C1172,545.085628 1173.90115,543.115506 1176.28859,543.004898 L1176.50047,543 Z M1228.5,543 C1230.9861,543 1233,545.014631 1233,547.49953 L1233,547.50047 C1233,549.985369 1230.9861,552 1228.5,552 C1226.0139,552 1224,549.985369 1224,547.50047 L1224,547.49953 C1224,545.085628 1225.90046,543.115506 1228.2881,543.004898 L1228.5,543 Z M1159.50047,543 C1161.98631,543 1164,545.014631 1164,547.49953 L1164,547.50047 C1164,549.985369 1161.98631,552 1159.50047,552 C1157.01463,552 1155,549.985369 1155,547.50047 L1155,547.49953 C1155,545.085628 1156.90115,543.115506 1159.28859,543.004898 L1159.50047,543 Z M1246.50047,543 C1248.98631,543 1251,545.014631 1251,547.49953 L1251,547.50047 C1251,549.985369 1248.98631,552 1246.50047,552 C1244.01463,552 1242,549.985369 1242,547.50047 L1242,547.49953 C1242,545.085628 1243.90115,543.115506 1246.28859,543.004898 L1246.50047,543 Z M1141.49953,543 C1143.98537,543 1146,545.014631 1146,547.49953 L1146,547.50047 C1146,549.985369 1143.98537,552 1141.49953,552 C1139.01369,552 1137,549.985369 1137,547.50047 L1137,547.49953 C1137,545.085628 1138.90027,543.115506 1141.28765,543.004898 L1141.49953,543 Z M1263.50047,543 C1265.98537,543 1268,545.014631 1268,547.49953 L1268,547.50047 C1268,549.985369 1265.98537,552 1263.50047,552 L1263.49953,552 C1261.01463,552 1259,549.985369 1259,547.50047 L1259,547.49953 C1259,545.014631 1261.01463,543 1263.49953,543 L1263.50047,543 Z M1159.50047,526 C1161.98631,526 1164,528.014631 1164,530.49953 L1164,530.50047 C1164,532.985369 1161.98631,535 1159.50047,535 C1157.01463,535 1155,532.985369 1155,530.50047 L1155,530.49953 C1155,528.085628 1156.90115,526.115506 1159.28859,526.004898 L1159.50047,526 Z M1176.50047,526 C1178.98631,526 1181,528.014631 1181,530.49953 L1181,530.50047 C1181,532.985369 1178.98631,535 1176.50047,535 C1174.01463,535 1172,532.985369 1172,530.50047 L1172,530.49953 C1172,528.085628 1173.90115,526.115506 1176.28859,526.004898 L1176.50047,526 Z M1193.49953,526 C1195.98537,526 1198,528.014631 1198,530.49953 L1198,530.50047 C1198,532.985369 1195.98537,535 1193.49953,535 C1191.01463,535 1189,532.985369 1189,530.50047 L1189,530.49953 C1189,528.085628 1190.90115,526.115506 1193.28773,526.004898 L1193.49953,526 Z M1211.49953,526 C1213.98537,526 1216,528.014631 1216,530.49953 L1216,530.50047 C1216,532.985369 1213.98537,535 1211.49953,535 C1209.01369,535 1207,532.985369 1207,530.50047 L1207,530.49953 C1207,528.085628 1208.90027,526.115506 1211.28765,526.004898 L1211.49953,526 Z M1228.5,526 C1230.9861,526 1233,528.014631 1233,530.49953 L1233,530.50047 C1233,532.985369 1230.9861,535 1228.5,535 C1226.0139,535 1224,532.985369 1224,530.50047 L1224,530.49953 C1224,528.085628 1225.90046,526.115506 1228.2881,526.004898 L1228.5,526 Z M1246.50047,526 C1248.98631,526 1251,528.014631 1251,530.49953 L1251,530.50047 C1251,532.985369 1248.98631,535 1246.50047,535 C1244.01463,535 1242,532.985369 1242,530.50047 L1242,530.49953 C1242,528.085628 1243.90115,526.115506 1246.28859,526.004898 L1246.50047,526 Z M1263.50047,526 C1265.98537,526 1268,528.014631 1268,530.49953 L1268,530.50047 C1268,532.985369 1265.98537,535 1263.50047,535 L1263.49953,535 C1261.01463,535 1259,532.985369 1259,530.50047 L1259,530.49953 C1259,528.014631 1261.01463,526 1263.49953,526 L1263.50047,526 Z M1280.49953,526 C1282.98537,526 1285,528.014631 1285,530.49953 L1285,530.50047 C1285,532.985369 1282.98537,535 1280.49953,535 C1278.01369,535 1276,532.985369 1276,530.50047 L1276,530.49953 C1276,528.085628 1277.90027,526.115506 1280.28765,526.004898 L1280.49953,526 Z" id="Combined-Shape"></path>
            </g>
        </g>
    </g>
</svg>