<svg height="258" viewBox="0 0 258 258" width="258" xmlns="http://www.w3.org/2000/svg"><path d="m0 45h3v3h-3zm0 90h3v3h-3zm0 90h3v3h-3zm90-180h3v3h-3zm0 90h3v3h-3zm0 90h3v3h-3zm90-180h3v3h-3zm0 90h3v3h-3zm0 90h3v3h-3zm-180-165h3v3h-3zm0 90h3v3h-3zm0 90h3v3h-3zm90-180h3v3h-3zm0 90h3v3h-3zm0 90h3v3h-3zm90-180h3v3h-3zm0 90h3v3h-3zm0 90h3v3h-3zm-180-165h3v3h-3zm0 90h3v3h-3zm0 90h3v3h-3zm90-180h3v3h-3zm0 90h3v3h-3zm0 90h3v3h-3zm90-180h3v3h-3zm0 90h3v3h-3zm0 90h3v3h-3zm-180-240h3v3h-3zm0 90h3v3h-3zm0 90h3v3h-3zm90-180h3v3h-3zm0 90h3v3h-3zm0 90h3v3h-3zm90-180h3v3h-3zm0 90h3v3h-3zm0 90h3v3h-3zm-150-150h3v3h-3zm0 90h3v3h-3zm0 90h3v3h-3zm90-180h3v3h-3zm0 90h3v3h-3zm0 90h3v3h-3zm90-180h3v3h-3zm0 90h3v3h-3zm0 90h3v3h-3zm-180-165h3v3h-3zm0 90h3v3h-3zm0 90h3v3h-3zm90-180h3v3h-3zm0 90h3v3h-3zm0 90h3v3h-3zm90-180h3v3h-3zm0 90h3v3h-3zm0 90h3v3h-3zm-180-165h3v3h-3zm0 90h3v3h-3zm0 90h3v3h-3zm90-180h3v3h-3zm0 90h3v3h-3zm0 90h3v3h-3zm90-180h3v3h-3zm0 90h3v3h-3zm0 90h3v3h-3zm-150-210h3v3h-3zm0 90h3v3h-3zm0 90h3v3h-3zm90-180h3v3h-3zm0 90h3v3h-3zm0 90h3v3h-3zm90-180h3v3h-3zm0 90h3v3h-3zm0 90h3v3h-3zm-180-165h3v3h-3zm0 90h3v3h-3zm0 90h3v3h-3zm90-180h3v3h-3zm0 90h3v3h-3zm0 90h3v3h-3zm90-180h3v3h-3zm0 90h3v3h-3zm0 90h3v3h-3zm-180-165h3v3h-3zm0 90h3v3h-3zm0 90h3v3h-3zm90-180h3v3h-3zm0 90h3v3h-3zm0 90h3v3h-3zm90-180h3v3h-3zm0 90h3v3h-3zm0 90h3v3h-3zm-210-240h3v3h-3zm0 90h3v3h-3zm0 90h3v3h-3zm90-180h3v3h-3zm0 90h3v3h-3zm0 90h3v3h-3zm90-180h3v3h-3zm0 90h3v3h-3zm0 90h3v3h-3zm-150-180h3v3h-3zm0 90h3v3h-3zm0 90h3v3h-3zm90-180h3v3h-3zm0 90h3v3h-3zm0 90h3v3h-3zm90-180h3v3h-3zm0 90h3v3h-3zm0 90h3v3h-3zm-240-165h3v3h-3zm0 90h3v3h-3zm0 90h3v3h-3zm90-180h3v3h-3zm0 90h3v3h-3zm0 90h3v3h-3zm90-180h3v3h-3zm0 90h3v3h-3zm0 90h3v3h-3zm-180-210h3v3h-3zm0 90h3v3h-3zm0 90h3v3h-3zm90-180h3v3h-3zm0 90h3v3h-3zm0 90h3v3h-3zm90-180h3v3h-3zm0 90h3v3h-3zm0 90h3v3h-3zm-150-150h3v3h-3zm0 90h3v3h-3zm0 90h3v3h-3zm90-180h3v3h-3zm0 90h3v3h-3zm0 90h3v3h-3zm90-180h3v3h-3zm0 90h3v3h-3zm0 90h3v3h-3zm-150-180h3v3h-3zm0 90h3v3h-3zm0 90h3v3h-3zm90-180h3v3h-3zm0 90h3v3h-3zm0 90h3v3h-3zm90-180h3v3h-3zm0 90h3v3h-3zm0 90h3v3h-3zm-210-210h3v3h-3zm0 90h3v3h-3zm0 90h3v3h-3zm90-180h3v3h-3zm0 90h3v3h-3zm0 90h3v3h-3zm90-180h3v3h-3zm0 90h3v3h-3zm0 90h3v3h-3zm-150-180h3v3h-3zm0 90h3v3h-3zm0 90h3v3h-3zm90-180h3v3h-3zm0 90h3v3h-3zm0 90h3v3h-3zm90-180h3v3h-3zm0 90h3v3h-3zm0 90h3v3h-3zm-225-135h3v3h-3zm0 90h3v3h-3zm0 90h3v3h-3zm90-180h3v3h-3zm0 90h3v3h-3zm0 90h3v3h-3zm90-180h3v3h-3zm0 90h3v3h-3zm0 90h3v3h-3zm-180-165h3v3h-3zm0 90h3v3h-3zm0 90h3v3h-3zm90-180h3v3h-3zm0 90h3v3h-3zm0 90h3v3h-3zm90-180h3v3h-3zm0 90h3v3h-3zm0 90h3v3h-3zm-180-165h3v3h-3zm0 90h3v3h-3zm0 90h3v3h-3zm90-180h3v3h-3zm0 90h3v3h-3zm0 90h3v3h-3zm90-180h3v3h-3zm0 90h3v3h-3zm0 90h3v3h-3zm-180-240h3v3h-3zm0 90h3v3h-3zm0 90h3v3h-3zm90-180h3v3h-3zm0 90h3v3h-3zm0 90h3v3h-3zm90-180h3v3h-3zm0 90h3v3h-3zm0 90h3v3h-3zm-150-150h3v3h-3zm0 90h3v3h-3zm0 90h3v3h-3zm90-180h3v3h-3zm0 90h3v3h-3zm0 90h3v3h-3zm90-180h3v3h-3zm0 90h3v3h-3zm0 90h3v3h-3zm-180-165h3v3h-3zm0 90h3v3h-3zm0 90h3v3h-3zm90-180h3v3h-3zm0 90h3v3h-3zm0 90h3v3h-3zm90-180h3v3h-3zm0 90h3v3h-3zm0 90h3v3h-3zm-180-165h3v3h-3zm0 90h3v3h-3zm0 90h3v3h-3zm90-180h3v3h-3zm0 90h3v3h-3zm0 90h3v3h-3zm90-180h3v3h-3zm0 90h3v3h-3zm0 90h3v3h-3zm-150-210h3v3h-3zm0 90h3v3h-3zm0 90h3v3h-3zm90-180h3v3h-3zm0 90h3v3h-3zm0 90h3v3h-3zm90-180h3v3h-3zm0 90h3v3h-3zm0 90h3v3h-3zm-180-165h3v3h-3zm0 90h3v3h-3zm0 90h3v3h-3zm90-180h3v3h-3zm0 90h3v3h-3zm0 90h3v3h-3zm90-180h3v3h-3zm0 90h3v3h-3zm0 90h3v3h-3zm-180-165h3v3h-3zm0 90h3v3h-3zm0 90h3v3h-3zm90-180h3v3h-3zm0 90h3v3h-3zm0 90h3v3h-3zm90-180h3v3h-3zm0 90h3v3h-3zm0 90h3v3h-3zm-210-240h3v3h-3zm0 90h3v3h-3zm0 90h3v3h-3zm90-180h3v3h-3zm0 90h3v3h-3zm0 90h3v3h-3zm90-180h3v3h-3zm0 90h3v3h-3zm0 90h3v3h-3zm-150-180h3v3h-3zm0 90h3v3h-3zm0 90h3v3h-3zm90-180h3v3h-3zm0 90h3v3h-3zm0 90h3v3h-3zm90-180h3v3h-3zm0 90h3v3h-3zm0 90h3v3h-3zm-240-165h3v3h-3zm0 90h3v3h-3zm0 90h3v3h-3zm90-180h3v3h-3zm0 90h3v3h-3zm0 90h3v3h-3zm90-180h3v3h-3zm0 90h3v3h-3zm0 90h3v3h-3zm-180-210h3v3h-3zm0 90h3v3h-3zm0 90h3v3h-3zm90-180h3v3h-3zm0 90h3v3h-3zm0 90h3v3h-3zm90-180h3v3h-3zm0 90h3v3h-3zm0 90h3v3h-3zm-150-150h3v3h-3zm0 90h3v3h-3zm0 90h3v3h-3zm90-180h3v3h-3zm0 90h3v3h-3zm0 90h3v3h-3zm90-180h3v3h-3zm0 90h3v3h-3zm0 90h3v3h-3zm-150-180h3v3h-3zm0 90h3v3h-3zm0 90h3v3h-3zm90-180h3v3h-3zm0 90h3v3h-3zm0 90h3v3h-3zm90-180h3v3h-3zm0 90h3v3h-3zm0 90h3v3h-3zm-210-210h3v3h-3zm0 90h3v3h-3zm0 90h3v3h-3zm90-180h3v3h-3zm0 90h3v3h-3zm0 90h3v3h-3zm90-180h3v3h-3zm0 90h3v3h-3zm0 90h3v3h-3zm-150-180h3v3h-3zm0 90h3v3h-3zm0 90h3v3h-3zm90-180h3v3h-3zm0 90h3v3h-3zm0 90h3v3h-3zm90-180h3v3h-3zm0 90h3v3h-3zm0 90h3v3h-3z" fill="#dadfe7"/></svg>