<svg height="112" viewBox="0 0 112 112" width="112" xmlns="http://www.w3.org/2000/svg"><g fill="#fff" opacity=".3" transform="matrix(.70710678 .70710678 -.70710678 .70710678 55.999662 .844856)"><path d="m0 45h3v3h-3z" transform="matrix(0 1 1 0 -45 45)"/><path d="m0 60h3v3h-3z" transform="matrix(0 1 1 0 -60 60)"/><path d="m0 75h3v3h-3z" transform="matrix(0 1 1 0 -75 75)"/><path d="m0 15h3v3h-3z" transform="matrix(0 1 1 0 -15 15)"/><path d="m30 45h3v3h-3z" transform="matrix(0 1 1 0 -15 15)"/><path d="m30 60h3v3h-3z" transform="matrix(0 1 1 0 -30 30)"/><path d="m30 75h3v3h-3z" transform="matrix(0 1 1 0 -45 45)"/><path d="m60 45h3v3h-3z" transform="matrix(0 1 1 0 15 -15)"/><path d="m60 60h3v3h-3z" transform="matrix(0 1 1 0 0 0)"/><path d="m60 75h3v3h-3z" transform="matrix(0 1 1 0 -15 15)"/><path d="m30 15h3v3h-3z" transform="matrix(0 1 1 0 15 -15)"/><path d="m60 15h3v3h-3z" transform="matrix(0 1 1 0 45 -45)"/><path d="m0 30h3v3h-3z" transform="matrix(0 1 1 0 -30 30)"/><path d="m0 0h3v3h-3z" transform="matrix(0 1 1 0 0 0)"/><path d="m30 30h3v3h-3z" transform="matrix(0 1 1 0 0 0)"/><path d="m60 30h3v3h-3z" transform="matrix(0 1 1 0 30 -30)"/><path d="m30 0h3v3h-3z" transform="matrix(0 1 1 0 30 -30)"/><path d="m60 0h3v3h-3z" transform="matrix(0 1 1 0 60 -60)"/><path d="m15 45h3v3h-3z" transform="matrix(0 1 1 0 -30 30)"/><path d="m15 60h3v3h-3z" transform="matrix(0 1 1 0 -45 45)"/><path d="m15 75h3v3h-3z" transform="matrix(0 1 1 0 -60 60)"/><path d="m15 15h3v3h-3z" transform="matrix(0 1 1 0 0 0)"/><path d="m45 45h3v3h-3z" transform="matrix(0 1 1 0 0 0)"/><path d="m45 60h3v3h-3z" transform="matrix(0 1 1 0 -15 15)"/><path d="m45 75h3v3h-3z" transform="matrix(0 1 1 0 -30 30)"/><path d="m75 45h3v3h-3z" transform="matrix(0 1 1 0 30 -30)"/><path d="m75 60h3v3h-3z" transform="matrix(0 1 1 0 15 -15)"/><path d="m75 75h3v3h-3z" transform="matrix(0 1 1 0 0 0)"/><path d="m45 15h3v3h-3z" transform="matrix(0 1 1 0 30 -30)"/><path d="m75 15h3v3h-3z" transform="matrix(0 1 1 0 60 -60)"/><path d="m15 30h3v3h-3z" transform="matrix(0 1 1 0 -15 15)"/><path d="m15 0h3v3h-3z" transform="matrix(0 1 1 0 15 -15)"/><path d="m45 30h3v3h-3z" transform="matrix(0 1 1 0 15 -15)"/><path d="m75 30h3v3h-3z" transform="matrix(0 1 1 0 45 -45)"/><path d="m45 0h3v3h-3z" transform="matrix(0 1 1 0 45 -45)"/><path d="m75 0h3v3h-3z" transform="matrix(0 1 1 0 75 -75)"/></g></svg>