<svg height="111" width="111" xmlns="http://www.w3.org/2000/svg"><path d="M23.334 31.82l2.122 2.121-2.122 2.122-2.121-2.122zM12.728 42.426l2.121 2.122-2.121 2.121-2.122-2.121zM2.12 53.033l2.121 2.121-2.12 2.122L0 55.154zm42.427-42.426l2.12 2.121-2.12 2.121-2.122-2.121zm0 42.426l2.12 2.121-2.12 2.122-2.122-2.122zM33.94 63.64l2.121 2.121-2.121 2.121-2.121-2.121zM23.334 74.246l2.122 2.122-2.122 2.12-2.121-2.12zm42.427 0l2.121 2.122-2.121 2.12-2.122-2.12zM55.154 84.853l2.121 2.121-2.12 2.122-2.122-2.122zM44.548 95.459l2.12 2.122-2.12 2.121-2.122-2.121zM65.76 31.82l2.121 2.122-2.121 2.122-2.122-2.122zm21.213 21.214l2.121 2.121-2.121 2.122-2.121-2.122zM33.94 21.214l2.121 2.122-2.121 2.12-2.121-2.12zM55.154 0l2.121 2.121-2.12 2.122-2.122-2.122zm0 42.426l2.121 2.122-2.12 2.121-2.122-2.121zM76.367 63.64l2.122 2.121-2.122 2.121-2.121-2.121zm0-42.427l2.122 2.122-2.122 2.12-2.121-2.12zm21.214 21.213l2.12 2.122-2.12 2.121-2.122-2.121zm-63.64 0l2.121 2.122-2.121 2.121-2.121-2.121zM23.334 53.033l2.122 2.121-2.122 2.122-2.121-2.122zM12.728 63.64l2.121 2.121-2.121 2.121-2.122-2.121zm42.426-42.427l2.121 2.122-2.12 2.12-2.122-2.12zm0 42.427l2.121 2.121-2.12 2.121-2.122-2.121zM44.548 74.246l2.12 2.122-2.12 2.12-2.122-2.12zM33.94 84.853l2.121 2.121-2.121 2.122-2.121-2.122zm42.426 0l2.122 2.121-2.122 2.122-2.121-2.122zM65.761 95.459l2.121 2.122-2.121 2.121-2.122-2.121zm-10.607 10.607l2.121 2.121-2.12 2.122-2.122-2.122zm21.213-63.64l2.122 2.122-2.122 2.121-2.121-2.121zM97.581 63.64l2.12 2.121-2.12 2.121-2.122-2.121zM44.548 31.82l2.12 2.121-2.12 2.122-2.122-2.122zM65.76 10.607l2.121 2.121-2.121 2.121-2.122-2.121zm0 42.426l2.121 2.121-2.121 2.122-2.122-2.122zm21.213 21.213l2.121 2.122-2.121 2.12-2.121-2.12zm0-42.426l2.121 2.121-2.121 2.122-2.121-2.122zm21.213 21.213l2.121 2.121-2.12 2.122-2.122-2.122z" fill="#0058cc" fill-rule="evenodd"/></svg>