<svg width="2500" height="1639" xmlns="http://www.w3.org/2000/svg" xmlns:xlink="http://www.w3.org/1999/xlink"><defs><linearGradient x1="0%" y1="50%" x2="90.636%" y2="19.796%" id="a"><stop stop-color="#101A40" offset="0%"/><stop stop-color="#141E42" offset="100%"/></linearGradient><linearGradient x1="0%" y1="50%" x2="91.24%" y2="19.595%" id="b"><stop stop-color="#101A40" offset="0%"/><stop stop-color="#141E42" offset="99.338%"/></linearGradient><linearGradient x1="114.046%" y1="0%" x2="75.569%" y2="69.976%" id="c"><stop stop-color="#98F252" offset="0%"/><stop stop-color="#62D6C5" offset="100%"/></linearGradient><linearGradient x1="57.773%" y1="-13.502%" x2="115.891%" y2="47.024%" id="f"><stop stop-color="#52B8FF" offset="0%"/><stop stop-color="#1E64FA" offset="100%"/></linearGradient><filter x="-1.4%" y="-1.4%" width="105.6%" height="105.4%" filterUnits="objectBoundingBox" id="d"><feOffset dx="8" dy="7" in="SourceAlpha" result="shadowOffsetOuter1"/><feGaussianBlur stdDeviation="3.5" in="shadowOffsetOuter1" result="shadowBlurOuter1"/><feColorMatrix values="0 0 0 0 0.00784313725 0 0 0 0 0 0 0 0 0 0.0470588235 0 0 0 0.07 0" in="shadowBlurOuter1"/></filter><path d="M1652.687 1639.076l515.389-.037c6.627 0 12 5.372 12 12v.001l-.037 516.708c0 6.627-5.372 11.999-12 11.999l-515.388.038c-6.628 0-12-5.372-12.001-12l.038-516.709c0-6.626 5.372-11.998 11.999-11.999z" id="e"/></defs><g mask="url(#b)" fill="none" fill-rule="evenodd"><path d="M685.345 41.482l265.71-.02c6.628 0 12.001 5.372 12.002 12v.001l-.022 265.87c0 6.628-5.372 12-12 12l-265.71.021c-6.628 0-12-5.371-12.001-11.999v-.001l.021-265.87c0-6.628 5.373-12 12-12z" fill="url(#a)" fill-rule="nonzero" opacity=".55" transform="scale(-1 1) rotate(-30 332.584 6730.64)"/><path d="M302.922 83.5l265.71-.02c6.628-.001 12.001 5.371 12.002 11.999v.001l-.022 265.87c0 6.627-5.372 12-11.999 12l-265.711.021c-6.628 0-12-5.371-12.001-11.999v-.002l.021-265.87c0-6.627 5.373-11.999 12-12z" fill="url(#b)" fill-rule="nonzero" opacity=".55" transform="scale(-1 1) rotate(-30 208.218 5309.14)"/><path d="M67.272 71.609l172.718-.014c6.627 0 12 5.372 12 12l-.014 172.878c0 6.626-5.373 11.998-12 11.999l-172.717.015c-6.628 0-12-5.372-12.001-12l.015-172.878c0-6.626 5.372-11.998 12-11.999z" fill="url(#b)" fill-rule="nonzero" opacity=".55" transform="scale(-1 1) rotate(-30 111.238 4200.647)"/><path d="M558.588 369.731l296.768-.022c6.628 0 12 5.372 12.001 12l-.024 296.917c0 6.627-5.372 11.999-11.999 12l-296.768.023c-6.627 0-12-5.372-12-12l.023-296.917c0-6.627 5.372-11.999 12-12z" fill="url(#c)" transform="scale(-1 1) rotate(-30 315.799 6538.79)"/><path d="M68.384 384.663l369.244-.027c6.627 0 12 5.372 12 12v.001l-.027 369.42c0 6.627-5.373 11.999-12 12l-369.244.027c-6.627 0-12-5.371-12-11.999v-.001l.028-369.42c0-6.627 5.372-11.999 11.999-12z" fill="url(#b)" fill-rule="nonzero" opacity=".55" transform="scale(-1 1) rotate(-30 168.243 4852.219)"/><path d="M1654.448 41.62l266.711-.02c6.627 0 12 5.372 12 12l-.02 266.872c-.001 6.627-5.373 11.999-12 11.999l-266.71.021c-6.628 0-12.001-5.371-12.002-11.999v-.001l.022-266.871c0-6.627 5.372-11.999 11.999-12z" fill="url(#b)" fill-rule="nonzero" opacity=".55" transform="scale(1 -1) rotate(-30 -2830.348 2876.804)"/><path d="M1272.233 84.142l266.711-.02c6.628 0 12 5.372 12.001 11.999v.002l-.021 266.87c0 6.627-5.373 12-12 12l-266.71.021c-6.628 0-12-5.372-12.001-11.999v-.002l.021-266.87c0-6.627 5.373-12 12-12z" fill="url(#b)" fill-rule="nonzero" opacity=".55" transform="scale(1 -1) rotate(-30 -2954.614 1456.43)"/><path d="M1547.892 355.959l196.775-.015c6.627 0 12 5.371 12 11.999v.002l-.016 196.923c0 6.627-5.373 12-12 12l-196.774.016c-6.628 0-12-5.371-12.001-11.999v-.001l.017-196.924c0-6.627 5.372-11.999 11.999-12z" fill="url(#b)" fill-rule="nonzero" opacity=".55" transform="scale(1 -1) rotate(-30 -2860.944 2527.084)"/><path d="M1037.07 385.317l370.245-.027c6.627 0 12 5.372 12 12l-.028 370.42c0 6.628-5.372 12-11.999 12l-370.244.028c-6.627 0-12-5.371-12-11.999v-.001l.027-370.42c.001-6.627 5.373-12 12-12z" fill="url(#b)" fill-rule="nonzero" opacity=".55" transform="scale(1 -1) rotate(-30 -2994.796 997.149)"/><path d="M1411.461 643.874l370.244-.027c6.627 0 12 5.372 12 12v.001l-.027 370.42c0 6.627-5.373 11.999-12 12l-370.244.028c-6.627 0-12-5.372-12-12v-.001l.028-370.42c0-6.627 5.372-11.999 12-12z" fill="url(#a)" fill-rule="nonzero" opacity=".55" transform="scale(1 -1) rotate(-30 -2855.519 2589.098)"/><path d="M1232.459 1077.892l515.389-.036c6.627 0 12 5.372 12 12l-.037 516.708c0 6.627-5.373 12-12 12l-515.389.038c-6.627 0-12-5.372-12-12v-.001l.037-516.708c0-6.627 5.373-11.999 12-12z" fill="url(#a)" fill-rule="nonzero" opacity=".55" transform="scale(1 -1) rotate(-30 -2861.16 2524.624)"/><path d="M1242.354 1713.053l515.389-.036c6.627 0 12 5.372 12 11.999v.002l-.037 516.707c0 6.627-5.372 12-12 12l-515.388.037c-6.628 0-12-5.371-12.001-11.999v-.001l.038-516.708c0-6.627 5.372-11.999 11.999-12z" fill="url(#b)" fill-rule="nonzero" opacity=".85" transform="scale(1 -1) rotate(-30 -2820.737 2986.656)"/><g opacity=".9" transform="scale(1 -1) rotate(-30 -2688.985 4492.589)"><use fill="#000" filter="url(#d)" xlink:href="#e"/><use fill="url(#f)" xlink:href="#e"/></g><path d="M1013.08 1813.303l173.412-.014c6.627 0 12 5.372 12 12v.001l-.014 173.73c0 6.628-5.373 12-12 12l-173.411.015c-6.628 0-12-5.372-12.001-12l.015-173.732c0-6.626 5.372-11.998 11.999-11.999z" fill="url(#b)" fill-rule="nonzero" opacity=".85" transform="scale(1 -1) rotate(-30 -2957.637 1421.887)"/><path d="M1828.53 1263.229l266.711-.02c6.628 0 12 5.372 12.001 12l-.021 266.872c0 6.627-5.373 11.998-12 11.999l-266.71.021c-6.628 0-12.001-5.371-12.002-11.999v-.001l.022-266.871c0-6.627 5.372-12 12-12z" fill="url(#b)" fill-rule="nonzero" opacity=".55" transform="scale(1 -1) rotate(-30 -2701.184 4353.156)"/><path d="M75.133 2106.788l421.7-.03c6.628 0 12 5.372 12.001 12l-.032 421.861c0 6.627-5.373 11.999-12 12l-421.7.031c-6.627 0-12-5.371-12-11.999v-.001l.031-421.86c0-6.628 5.373-12 12-12z" fill="url(#b)" fill-rule="nonzero" opacity=".55" transform="scale(1 -1) rotate(-30 -3203.104 -1383.813)"/><path d="M873.11 810.089l370.514-.027c6.628 0 12 5.371 12.001 11.999v.001l-.029 370.692c0 6.627-5.372 11.998-11.999 11.999l-370.515.029c-6.627 0-12-5.372-12-12v-.001l.028-370.691c0-6.627 5.373-11.999 12-12z" fill="url(#b)" fill-rule="nonzero" opacity=".55" transform="scale(1 -1) rotate(-30 -3024.28 660.158)"/><g transform="translate(1105 -444)"><rect fill="#141D40" transform="rotate(30 1207.986 555.408)" x="1004.486" y="351.908" width="407" height="407" rx="20"/><rect fill="#141D40" opacity=".6" transform="rotate(30 1177.55 555.972)" x="814.05" y="192.472" width="727" height="727" rx="20"/><rect fill="#FFF" opacity=".04" transform="rotate(30 277.986 277.986)" x="74.486" y="74.486" width="407" height="407" rx="20"/></g></g></svg>