<svg width="620" height="575" viewBox="0 0 620 575" fill="none" xmlns="http://www.w3.org/2000/svg">
<path d="M0 135V575H440C440 458.305 393.643 346.389 311.127 263.873C228.611 181.357 116.695 135 0 135Z" fill="#F8F7FC"/>
<path d="M605.5 358C604.672 358 604 357.328 604 356.5C604 355.672 604.672 355 605.5 355C606.328 355 607 355.672 607 356.5C607 357.328 606.328 358 605.5 358Z" fill="#5138EE"/>
<path d="M605.5 384C604.672 384 604 383.328 604 382.5C604 381.672 604.672 381 605.5 381C606.328 381 607 381.672 607 382.5C607 383.328 606.328 384 605.5 384Z" fill="#5138EE"/>
<path d="M605.5 410C604.672 410 604 409.328 604 408.5C604 407.672 604.672 407 605.5 407C606.328 407 607 407.672 607 408.5C607 409.328 606.328 410 605.5 410Z" fill="#5138EE"/>
<path d="M605.5 436C604.672 436 604 435.328 604 434.5C604 433.672 604.672 433 605.5 433C606.328 433 607 433.672 607 434.5C607 435.328 606.328 436 605.5 436Z" fill="#5138EE"/>
<path d="M605.5 462C604.672 462 604 461.328 604 460.5C604 459.672 604.672 459 605.5 459C606.328 459 607 459.672 607 460.5C607 461.328 606.328 462 605.5 462Z" fill="#5138EE"/>
<path d="M605.5 488C604.672 488 604 487.328 604 486.5C604 485.672 604.672 485 605.5 485C606.328 485 607 485.672 607 486.5C607 487.328 606.328 488 605.5 488Z" fill="#5138EE"/>
<path d="M571.5 358C570.672 358 570 357.328 570 356.5C570 355.672 570.672 355 571.5 355C572.328 355 573 355.672 573 356.5C573 357.328 572.328 358 571.5 358Z" fill="#5138EE"/>
<path d="M571.5 384C570.672 384 570 383.328 570 382.5C570 381.672 570.672 381 571.5 381C572.328 381 573 381.672 573 382.5C573 383.328 572.328 384 571.5 384Z" fill="#5138EE"/>
<path d="M571.5 410C570.672 410 570 409.328 570 408.5C570 407.672 570.672 407 571.5 407C572.328 407 573 407.672 573 408.5C573 409.328 572.328 410 571.5 410Z" fill="#5138EE"/>
<path d="M571.5 436C570.672 436 570 435.328 570 434.5C570 433.672 570.672 433 571.5 433C572.328 433 573 433.672 573 434.5C573 435.328 572.328 436 571.5 436Z" fill="#5138EE"/>
<path d="M571.5 462C570.672 462 570 461.328 570 460.5C570 459.672 570.672 459 571.5 459C572.328 459 573 459.672 573 460.5C573 461.328 572.328 462 571.5 462Z" fill="#5138EE"/>
<path d="M571.5 488C570.672 488 570 487.328 570 486.5C570 485.672 570.672 485 571.5 485C572.328 485 573 485.672 573 486.5C573 487.328 572.328 488 571.5 488Z" fill="#5138EE"/>
<path d="M537.5 358C536.672 358 536 357.328 536 356.5C536 355.672 536.672 355 537.5 355C538.328 355 539 355.672 539 356.5C539 357.328 538.328 358 537.5 358Z" fill="#5138EE"/>
<path d="M537.5 384C536.672 384 536 383.328 536 382.5C536 381.672 536.672 381 537.5 381C538.328 381 539 381.672 539 382.5C539 383.328 538.328 384 537.5 384Z" fill="#5138EE"/>
<path d="M537.5 410C536.672 410 536 409.328 536 408.5C536 407.672 536.672 407 537.5 407C538.328 407 539 407.672 539 408.5C539 409.328 538.328 410 537.5 410Z" fill="#5138EE"/>
<path d="M537.5 436C536.672 436 536 435.328 536 434.5C536 433.672 536.672 433 537.5 433C538.328 433 539 433.672 539 434.5C539 435.328 538.328 436 537.5 436Z" fill="#5138EE"/>
<path d="M537.5 462C536.672 462 536 461.328 536 460.5C536 459.672 536.672 459 537.5 459C538.328 459 539 459.672 539 460.5C539 461.328 538.328 462 537.5 462Z" fill="#5138EE"/>
<path d="M537.5 488C536.672 488 536 487.328 536 486.5C536 485.672 536.672 485 537.5 485C538.328 485 539 485.672 539 486.5C539 487.328 538.328 488 537.5 488Z" fill="#5138EE"/>
<path d="M503.5 358C502.672 358 502 357.328 502 356.5C502 355.672 502.672 355 503.5 355C504.328 355 505 355.672 505 356.5C505 357.328 504.328 358 503.5 358Z" fill="#5138EE"/>
<path d="M503.5 384C502.672 384 502 383.328 502 382.5C502 381.672 502.672 381 503.5 381C504.328 381 505 381.672 505 382.5C505 383.328 504.328 384 503.5 384Z" fill="#5138EE"/>
<path d="M503.5 410C502.672 410 502 409.328 502 408.5C502 407.672 502.672 407 503.5 407C504.328 407 505 407.672 505 408.5C505 409.328 504.328 410 503.5 410Z" fill="#5138EE"/>
<path d="M503.5 436C502.672 436 502 435.328 502 434.5C502 433.672 502.672 433 503.5 433C504.328 433 505 433.672 505 434.5C505 435.328 504.328 436 503.5 436Z" fill="#5138EE"/>
<path d="M503.5 462C502.672 462 502 461.328 502 460.5C502 459.672 502.672 459 503.5 459C504.328 459 505 459.672 505 460.5C505 461.328 504.328 462 503.5 462Z" fill="#5138EE"/>
<path d="M503.5 488C502.672 488 502 487.328 502 486.5C502 485.672 502.672 485 503.5 485C504.328 485 505 485.672 505 486.5C505 487.328 504.328 488 503.5 488Z" fill="#5138EE"/>
<path d="M469.5 358C468.672 358 468 357.328 468 356.5C468 355.672 468.672 355 469.5 355C470.328 355 471 355.672 471 356.5C471 357.328 470.328 358 469.5 358Z" fill="#5138EE"/>
<path d="M469.5 384C468.672 384 468 383.328 468 382.5C468 381.672 468.672 381 469.5 381C470.328 381 471 381.672 471 382.5C471 383.328 470.328 384 469.5 384Z" fill="#5138EE"/>
<path d="M469.5 410C468.672 410 468 409.328 468 408.5C468 407.672 468.672 407 469.5 407C470.328 407 471 407.672 471 408.5C471 409.328 470.328 410 469.5 410Z" fill="#5138EE"/>
<path d="M469.5 436C468.672 436 468 435.328 468 434.5C468 433.672 468.672 433 469.5 433C470.328 433 471 433.672 471 434.5C471 435.328 470.328 436 469.5 436Z" fill="#5138EE"/>
<path d="M469.5 462C468.672 462 468 461.328 468 460.5C468 459.672 468.672 459 469.5 459C470.328 459 471 459.672 471 460.5C471 461.328 470.328 462 469.5 462Z" fill="#5138EE"/>
<path d="M469.5 488C468.672 488 468 487.328 468 486.5C468 485.672 468.672 485 469.5 485C470.328 485 471 485.672 471 486.5C471 487.328 470.328 488 469.5 488Z" fill="#5138EE"/>
<path d="M435.5 358C434.672 358 434 357.328 434 356.5C434 355.672 434.672 355 435.5 355C436.328 355 437 355.672 437 356.5C437 357.328 436.328 358 435.5 358Z" fill="#5138EE"/>
<path d="M435.5 384C434.672 384 434 383.328 434 382.5C434 381.672 434.672 381 435.5 381C436.328 381 437 381.672 437 382.5C437 383.328 436.328 384 435.5 384Z" fill="#5138EE"/>
<path d="M435.5 410C434.672 410 434 409.328 434 408.5C434 407.672 434.672 407 435.5 407C436.328 407 437 407.672 437 408.5C437 409.328 436.328 410 435.5 410Z" fill="#5138EE"/>
<path d="M435.5 436C434.672 436 434 435.328 434 434.5C434 433.672 434.672 433 435.5 433C436.328 433 437 433.672 437 434.5C437 435.328 436.328 436 435.5 436Z" fill="#5138EE"/>
<path d="M435.5 462C434.672 462 434 461.328 434 460.5C434 459.672 434.672 459 435.5 459C436.328 459 437 459.672 437 460.5C437 461.328 436.328 462 435.5 462Z" fill="#5138EE"/>
<path d="M435.5 488C434.672 488 434 487.328 434 486.5C434 485.672 434.672 485 435.5 485C436.328 485 437 485.672 437 486.5C437 487.328 436.328 488 435.5 488Z" fill="#5138EE"/>
<path d="M401.5 358C400.672 358 400 357.328 400 356.5C400 355.672 400.672 355 401.5 355C402.328 355 403 355.672 403 356.5C403 357.328 402.328 358 401.5 358Z" fill="#5138EE"/>
<path d="M401.5 384C400.672 384 400 383.328 400 382.5C400 381.672 400.672 381 401.5 381C402.328 381 403 381.672 403 382.5C403 383.328 402.328 384 401.5 384Z" fill="#5138EE"/>
<path d="M401.5 410C400.672 410 400 409.328 400 408.5C400 407.672 400.672 407 401.5 407C402.328 407 403 407.672 403 408.5C403 409.328 402.328 410 401.5 410Z" fill="#5138EE"/>
<path d="M401.5 436C400.672 436 400 435.328 400 434.5C400 433.672 400.672 433 401.5 433C402.328 433 403 433.672 403 434.5C403 435.328 402.328 436 401.5 436Z" fill="#5138EE"/>
<path d="M401.5 462C400.672 462 400 461.328 400 460.5C400 459.672 400.672 459 401.5 459C402.328 459 403 459.672 403 460.5C403 461.328 402.328 462 401.5 462Z" fill="#5138EE"/>
<path d="M401.5 488C400.672 488 400 487.328 400 486.5C400 485.672 400.672 485 401.5 485C402.328 485 403 485.672 403 486.5C403 487.328 402.328 488 401.5 488Z" fill="#5138EE"/>
<path d="M367.5 358C366.672 358 366 357.328 366 356.5C366 355.672 366.672 355 367.5 355C368.328 355 369 355.672 369 356.5C369 357.328 368.328 358 367.5 358Z" fill="#5138EE"/>
<path d="M367.5 384C366.672 384 366 383.328 366 382.5C366 381.672 366.672 381 367.5 381C368.328 381 369 381.672 369 382.5C369 383.328 368.328 384 367.5 384Z" fill="#5138EE"/>
<path d="M367.5 410C366.672 410 366 409.328 366 408.5C366 407.672 366.672 407 367.5 407C368.328 407 369 407.672 369 408.5C369 409.328 368.328 410 367.5 410Z" fill="#5138EE"/>
<path d="M367.5 436C366.672 436 366 435.328 366 434.5C366 433.672 366.672 433 367.5 433C368.328 433 369 433.672 369 434.5C369 435.328 368.328 436 367.5 436Z" fill="#5138EE"/>
<path d="M367.5 488C366.672 488 366 487.328 366 486.5C366 485.672 366.672 485 367.5 485C368.328 485 369 485.672 369 486.5C369 487.328 368.328 488 367.5 488Z" fill="#5138EE"/>
<path d="M367.5 462C366.672 462 366 461.328 366 460.5C366 459.672 366.672 459 367.5 459C368.328 459 369 459.672 369 460.5C369 461.328 368.328 462 367.5 462Z" fill="#5138EE"/>
<path d="M581.15 41.0727C576.953 36.2661 571.049 33.2448 564.738 32.6737C561.571 32.3869 558.432 32.7286 555.493 33.6454C552.661 34.5288 551.245 34.9705 551.008 35.0297C547.013 36.0272 545.786 35.6838 542.923 32.7676C542.752 32.5945 542.332 32.1124 541.49 31.1482L537.676 26.7808C537.561 26.6489 537.503 26.583 537.287 26.2856C534.889 22.9881 535.985 16.9434 539.394 14.6661C539.702 14.4607 538.894 14.9029 539.217 14.726C547.3 10.3013 556.666 8.33843 566.155 9.19739C578.778 10.3403 590.585 16.3827 598.979 25.996C607.374 35.6091 611.667 48.0053 610.916 60.4579C610.351 69.8187 606.969 78.6345 601.308 85.8324C601.082 86.1201 601.647 85.4008 601.395 85.6691C598.594 88.6436 592.356 88.8007 589.405 85.9709C589.138 85.7157 589.081 85.6498 588.966 85.5179L585.152 81.1506C584.31 80.1864 583.889 79.7046 583.741 79.5129C581.242 76.2882 581.082 75.0425 582.685 71.3067C582.78 71.085 583.437 69.7738 584.751 67.1513C586.114 64.4299 586.93 61.4275 587.118 58.3038C587.494 52.0774 585.347 45.8793 581.15 41.0727Z" fill="#F8F7FC"/>
</svg>
