<svg width="620" height="575" viewBox="0 0 620 575" fill="none" xmlns="http://www.w3.org/2000/svg">
<path d="M620 135V575H180C180 458.305 226.357 346.389 308.873 263.873C391.389 181.357 503.305 135 620 135Z" fill="#F8F7FC"/>
<path d="M14.5 358C15.3284 358 16 357.328 16 356.5C16 355.672 15.3284 355 14.5 355C13.6716 355 13 355.672 13 356.5C13 357.328 13.6716 358 14.5 358Z" fill="#5138EE"/>
<path d="M14.5 384C15.3284 384 16 383.328 16 382.5C16 381.672 15.3284 381 14.5 381C13.6716 381 13 381.672 13 382.5C13 383.328 13.6716 384 14.5 384Z" fill="#5138EE"/>
<path d="M14.5 410C15.3284 410 16 409.328 16 408.5C16 407.672 15.3284 407 14.5 407C13.6716 407 13 407.672 13 408.5C13 409.328 13.6716 410 14.5 410Z" fill="#5138EE"/>
<path d="M14.5 436C15.3284 436 16 435.328 16 434.5C16 433.672 15.3284 433 14.5 433C13.6716 433 13 433.672 13 434.5C13 435.328 13.6716 436 14.5 436Z" fill="#5138EE"/>
<path d="M14.5 462C15.3284 462 16 461.328 16 460.5C16 459.672 15.3284 459 14.5 459C13.6716 459 13 459.672 13 460.5C13 461.328 13.6716 462 14.5 462Z" fill="#5138EE"/>
<path d="M14.5 488C15.3284 488 16 487.328 16 486.5C16 485.672 15.3284 485 14.5 485C13.6716 485 13 485.672 13 486.5C13 487.328 13.6716 488 14.5 488Z" fill="#5138EE"/>
<path d="M48.5 358C49.3284 358 50 357.328 50 356.5C50 355.672 49.3284 355 48.5 355C47.6716 355 47 355.672 47 356.5C47 357.328 47.6716 358 48.5 358Z" fill="#5138EE"/>
<path d="M48.5 384C49.3284 384 50 383.328 50 382.5C50 381.672 49.3284 381 48.5 381C47.6716 381 47 381.672 47 382.5C47 383.328 47.6716 384 48.5 384Z" fill="#5138EE"/>
<path d="M48.5 410C49.3284 410 50 409.328 50 408.5C50 407.672 49.3284 407 48.5 407C47.6716 407 47 407.672 47 408.5C47 409.328 47.6716 410 48.5 410Z" fill="#5138EE"/>
<path d="M48.5 436C49.3284 436 50 435.328 50 434.5C50 433.672 49.3284 433 48.5 433C47.6716 433 47 433.672 47 434.5C47 435.328 47.6716 436 48.5 436Z" fill="#5138EE"/>
<path d="M48.5 462C49.3284 462 50 461.328 50 460.5C50 459.672 49.3284 459 48.5 459C47.6716 459 47 459.672 47 460.5C47 461.328 47.6716 462 48.5 462Z" fill="#5138EE"/>
<path d="M48.5 488C49.3284 488 50 487.328 50 486.5C50 485.672 49.3284 485 48.5 485C47.6716 485 47 485.672 47 486.5C47 487.328 47.6716 488 48.5 488Z" fill="#5138EE"/>
<path d="M82.5 358C83.3284 358 84 357.328 84 356.5C84 355.672 83.3284 355 82.5 355C81.6716 355 81 355.672 81 356.5C81 357.328 81.6716 358 82.5 358Z" fill="#5138EE"/>
<path d="M82.5 384C83.3284 384 84 383.328 84 382.5C84 381.672 83.3284 381 82.5 381C81.6716 381 81 381.672 81 382.5C81 383.328 81.6716 384 82.5 384Z" fill="#5138EE"/>
<path d="M82.5 410C83.3284 410 84 409.328 84 408.5C84 407.672 83.3284 407 82.5 407C81.6716 407 81 407.672 81 408.5C81 409.328 81.6716 410 82.5 410Z" fill="#5138EE"/>
<path d="M82.5 436C83.3284 436 84 435.328 84 434.5C84 433.672 83.3284 433 82.5 433C81.6716 433 81 433.672 81 434.5C81 435.328 81.6716 436 82.5 436Z" fill="#5138EE"/>
<path d="M82.5 462C83.3284 462 84 461.328 84 460.5C84 459.672 83.3284 459 82.5 459C81.6716 459 81 459.672 81 460.5C81 461.328 81.6716 462 82.5 462Z" fill="#5138EE"/>
<path d="M82.5 488C83.3284 488 84 487.328 84 486.5C84 485.672 83.3284 485 82.5 485C81.6716 485 81 485.672 81 486.5C81 487.328 81.6716 488 82.5 488Z" fill="#5138EE"/>
<path d="M116.5 358C117.328 358 118 357.328 118 356.5C118 355.672 117.328 355 116.5 355C115.672 355 115 355.672 115 356.5C115 357.328 115.672 358 116.5 358Z" fill="#5138EE"/>
<path d="M116.5 384C117.328 384 118 383.328 118 382.5C118 381.672 117.328 381 116.5 381C115.672 381 115 381.672 115 382.5C115 383.328 115.672 384 116.5 384Z" fill="#5138EE"/>
<path d="M116.5 410C117.328 410 118 409.328 118 408.5C118 407.672 117.328 407 116.5 407C115.672 407 115 407.672 115 408.5C115 409.328 115.672 410 116.5 410Z" fill="#5138EE"/>
<path d="M116.5 436C117.328 436 118 435.328 118 434.5C118 433.672 117.328 433 116.5 433C115.672 433 115 433.672 115 434.5C115 435.328 115.672 436 116.5 436Z" fill="#5138EE"/>
<path d="M116.5 462C117.328 462 118 461.328 118 460.5C118 459.672 117.328 459 116.5 459C115.672 459 115 459.672 115 460.5C115 461.328 115.672 462 116.5 462Z" fill="#5138EE"/>
<path d="M116.5 488C117.328 488 118 487.328 118 486.5C118 485.672 117.328 485 116.5 485C115.672 485 115 485.672 115 486.5C115 487.328 115.672 488 116.5 488Z" fill="#5138EE"/>
<path d="M150.5 358C151.328 358 152 357.328 152 356.5C152 355.672 151.328 355 150.5 355C149.672 355 149 355.672 149 356.5C149 357.328 149.672 358 150.5 358Z" fill="#5138EE"/>
<path d="M150.5 384C151.328 384 152 383.328 152 382.5C152 381.672 151.328 381 150.5 381C149.672 381 149 381.672 149 382.5C149 383.328 149.672 384 150.5 384Z" fill="#5138EE"/>
<path d="M150.5 410C151.328 410 152 409.328 152 408.5C152 407.672 151.328 407 150.5 407C149.672 407 149 407.672 149 408.5C149 409.328 149.672 410 150.5 410Z" fill="#5138EE"/>
<path d="M150.5 436C151.328 436 152 435.328 152 434.5C152 433.672 151.328 433 150.5 433C149.672 433 149 433.672 149 434.5C149 435.328 149.672 436 150.5 436Z" fill="#5138EE"/>
<path d="M150.5 462C151.328 462 152 461.328 152 460.5C152 459.672 151.328 459 150.5 459C149.672 459 149 459.672 149 460.5C149 461.328 149.672 462 150.5 462Z" fill="#5138EE"/>
<path d="M150.5 488C151.328 488 152 487.328 152 486.5C152 485.672 151.328 485 150.5 485C149.672 485 149 485.672 149 486.5C149 487.328 149.672 488 150.5 488Z" fill="#5138EE"/>
<path d="M184.5 358C185.328 358 186 357.328 186 356.5C186 355.672 185.328 355 184.5 355C183.672 355 183 355.672 183 356.5C183 357.328 183.672 358 184.5 358Z" fill="#5138EE"/>
<path d="M184.5 384C185.328 384 186 383.328 186 382.5C186 381.672 185.328 381 184.5 381C183.672 381 183 381.672 183 382.5C183 383.328 183.672 384 184.5 384Z" fill="#5138EE"/>
<path d="M184.5 410C185.328 410 186 409.328 186 408.5C186 407.672 185.328 407 184.5 407C183.672 407 183 407.672 183 408.5C183 409.328 183.672 410 184.5 410Z" fill="#5138EE"/>
<path d="M184.5 436C185.328 436 186 435.328 186 434.5C186 433.672 185.328 433 184.5 433C183.672 433 183 433.672 183 434.5C183 435.328 183.672 436 184.5 436Z" fill="#5138EE"/>
<path d="M184.5 462C185.328 462 186 461.328 186 460.5C186 459.672 185.328 459 184.5 459C183.672 459 183 459.672 183 460.5C183 461.328 183.672 462 184.5 462Z" fill="#5138EE"/>
<path d="M184.5 488C185.328 488 186 487.328 186 486.5C186 485.672 185.328 485 184.5 485C183.672 485 183 485.672 183 486.5C183 487.328 183.672 488 184.5 488Z" fill="#5138EE"/>
<path d="M218.5 358C219.328 358 220 357.328 220 356.5C220 355.672 219.328 355 218.5 355C217.672 355 217 355.672 217 356.5C217 357.328 217.672 358 218.5 358Z" fill="#5138EE"/>
<path d="M218.5 384C219.328 384 220 383.328 220 382.5C220 381.672 219.328 381 218.5 381C217.672 381 217 381.672 217 382.5C217 383.328 217.672 384 218.5 384Z" fill="#5138EE"/>
<path d="M218.5 410C219.328 410 220 409.328 220 408.5C220 407.672 219.328 407 218.5 407C217.672 407 217 407.672 217 408.5C217 409.328 217.672 410 218.5 410Z" fill="#5138EE"/>
<path d="M218.5 436C219.328 436 220 435.328 220 434.5C220 433.672 219.328 433 218.5 433C217.672 433 217 433.672 217 434.5C217 435.328 217.672 436 218.5 436Z" fill="#5138EE"/>
<path d="M218.5 462C219.328 462 220 461.328 220 460.5C220 459.672 219.328 459 218.5 459C217.672 459 217 459.672 217 460.5C217 461.328 217.672 462 218.5 462Z" fill="#5138EE"/>
<path d="M218.5 488C219.328 488 220 487.328 220 486.5C220 485.672 219.328 485 218.5 485C217.672 485 217 485.672 217 486.5C217 487.328 217.672 488 218.5 488Z" fill="#5138EE"/>
<path d="M252.5 358C253.328 358 254 357.328 254 356.5C254 355.672 253.328 355 252.5 355C251.672 355 251 355.672 251 356.5C251 357.328 251.672 358 252.5 358Z" fill="#5138EE"/>
<path d="M252.5 384C253.328 384 254 383.328 254 382.5C254 381.672 253.328 381 252.5 381C251.672 381 251 381.672 251 382.5C251 383.328 251.672 384 252.5 384Z" fill="#5138EE"/>
<path d="M252.5 410C253.328 410 254 409.328 254 408.5C254 407.672 253.328 407 252.5 407C251.672 407 251 407.672 251 408.5C251 409.328 251.672 410 252.5 410Z" fill="#5138EE"/>
<path d="M252.5 436C253.328 436 254 435.328 254 434.5C254 433.672 253.328 433 252.5 433C251.672 433 251 433.672 251 434.5C251 435.328 251.672 436 252.5 436Z" fill="#5138EE"/>
<path d="M252.5 488C253.328 488 254 487.328 254 486.5C254 485.672 253.328 485 252.5 485C251.672 485 251 485.672 251 486.5C251 487.328 251.672 488 252.5 488Z" fill="#5138EE"/>
<path d="M252.5 462C253.328 462 254 461.328 254 460.5C254 459.672 253.328 459 252.5 459C251.672 459 251 459.672 251 460.5C251 461.328 251.672 462 252.5 462Z" fill="#5138EE"/>
<path d="M38.85 41.0727C43.0471 36.2661 48.9505 33.2448 55.2621 32.6737C58.4288 32.3869 61.5678 32.7286 64.5071 33.6454C67.3391 34.5288 68.7553 34.9705 68.9924 35.0297C72.9867 36.0272 74.214 35.6838 77.0774 32.7676C77.2475 32.5945 77.6685 32.1124 78.5104 31.1482L82.3242 26.7808C82.4394 26.6489 82.4968 26.583 82.713 26.2856C85.1114 22.9881 84.0152 16.9434 80.6056 14.6661C80.2982 14.4607 81.1057 14.9029 80.7828 14.726C72.6998 10.3013 63.3342 8.33843 53.8455 9.19739C41.2224 10.3403 29.4151 16.3827 21.0208 25.996C12.6264 35.6091 8.33298 48.0053 9.08432 60.4579C9.64929 69.8187 13.0305 78.6345 18.692 85.8324C18.9183 86.1201 18.3526 85.4008 18.6051 85.6691C21.406 88.6436 27.6436 88.8007 30.5954 85.9709C30.8616 85.7157 30.9192 85.6498 31.0343 85.5179L34.8479 81.1506C35.6899 80.1864 36.1109 79.7046 36.2592 79.5129C38.7579 76.2882 38.9182 75.0425 37.315 71.3067C37.2198 71.085 36.563 69.7738 35.2494 67.1513C33.8861 64.4299 33.0704 61.4275 32.8821 58.3038C32.5059 52.0774 34.6528 45.8793 38.85 41.0727Z" fill="#F8F7FC"/>
</svg>
