<?xml version="1.0" encoding="UTF-8"?>
<svg width="220px" height="220px" viewBox="0 0 220 220" version="1.1" xmlns="http://www.w3.org/2000/svg" xmlns:xlink="http://www.w3.org/1999/xlink">
    <title>Fill 1341</title>
    <g id="Integrations" stroke="none" stroke-width="1" fill="none" fill-rule="evenodd">
        <g transform="translate(-800.000000, -600.000000)" fill="#545F75" id="Hero">
            <path d="M1020,637.357097 L1020,637.357097 C1020,616.725257 1003.27461,600 982.642597,600 L982.637193,600 L898.259887,600 L898.124772,600 C887.807417,600 878.465589,604.182215 871.704451,610.943297 L810.942486,671.704765 C804.180448,678.466748 800,687.807598 800,698.124869 L800,698.260884 L800,782.635697 L800,782.647407 C800,803.275644 816.721791,820 837.351097,820 C837.355601,820 837.359204,820 837.362807,820 L921.873426,820 C932.192583,820 941.53261,815.817785 948.294648,809.055802 L1009.05751,748.293434 C1015.81775,741.533252 1020,732.191501 1020,721.875131 L1020,637.364303 L1020,637.357097 Z" id="Fill-1341"></path>
        </g>
    </g>
</svg>