<svg width="2500" height="520" xmlns="http://www.w3.org/2000/svg" xmlns:xlink="http://www.w3.org/1999/xlink"><defs><linearGradient x1="0%" y1="50%" x2="91.24%" y2="19.595%" id="c"><stop stop-color="#101A40" offset="0%"/><stop stop-color="#141E42" offset="99.338%"/></linearGradient><linearGradient x1="39.336%" y1="14.54%" x2="4.979%" y2="29.863%" id="d"><stop stop-color="#52B8FF" offset="0%"/><stop stop-color="#1E64FA" offset="100%"/></linearGradient><linearGradient x1="114.046%" y1="0%" x2="75.569%" y2="69.976%" id="e"><stop stop-color="#98F252" offset="0%"/><stop stop-color="#62D6C5" offset="100%"/></linearGradient><linearGradient x1="0%" y1="50%" x2="90.636%" y2="19.796%" id="f"><stop stop-color="#101A40" offset="0%"/><stop stop-color="#141E42" offset="100%"/></linearGradient><path id="a" d="M0 273.232L2500 0v520H0z"/></defs><g fill="none" fill-rule="evenodd"><mask id="b" fill="#fff"><use xlink:href="#a"/></mask><g mask="url(#b)"><g transform="translate(1490 -438)"><rect fill="url(#c)" fill-rule="nonzero" opacity=".7" transform="rotate(30 848.55 496.55)" x="485.05" y="133.05" width="727" height="727" rx="20"/><rect fill="url(#d)" transform="rotate(30 636.55 1276.55)" x="273.05" y="913.05" width="727" height="727" rx="20"/><rect fill="url(#c)" fill-rule="nonzero" opacity=".7" transform="rotate(30 237.98 803.98)" x="75.479" y="641.479" width="325" height="325" rx="20"/></g></g><g mask="url(#b)"><g transform="translate(-631 -540)"><rect fill="url(#e)" transform="rotate(30 1174.55 1358.55)" x="811.05" y="995.05" width="727" height="727" rx="20"/><rect fill="url(#e)" transform="rotate(30 1213.55 1445.55)" x="850.05" y="1082.05" width="727" height="727" rx="20"/><rect fill="url(#f)" fill-rule="nonzero" transform="rotate(30 496.55 969.55)" x="133.05" y="606.05" width="727" height="727" rx="20"/><rect fill="url(#c)" fill-rule="nonzero" opacity=".7" transform="rotate(30 1220.55 496.55)" x="857.05" y="133.05" width="727" height="727" rx="20"/></g></g></g></svg>