<svg width="978" height="356" viewBox="0 0 978 356" fill="none" xmlns="http://www.w3.org/2000/svg">
<mask id="mask0" mask-type="alpha" maskUnits="userSpaceOnUse" x="0" y="0" width="978" height="356">
<rect width="978" height="356" fill="white"/>
</mask>
<g mask="url(#mask0)">
<path d="M299.921 181.795C280.9 172.074 261.212 162.038 245.526 144.912C218.468 115.328 198.57 100.834 158.774 98.5181C123.154 96.4476 85.0076 100.589 45.3167 110.836C9.55637 120.066 -26.3092 133.892 -61.2975 151.966C-67.86 155.335 -75.2297 158.669 -83.0205 162.178C-109.165 173.969 -138.819 187.305 -152.365 209.624C-163.244 227.522 -165.596 254.649 -167.701 278.618C-168.403 286.62 -169.07 294.13 -169.982 300.903C-170.439 304.237 -170.649 307.5 -170.649 310.694C-170.649 351.192 -135.029 379.723 -100.532 407.412C-80.1428 423.765 -60.8764 439.207 -48.4884 456.894C-16.6234 502.305 -13.079 552.138 -9.28887 604.883C-8.20097 620.114 -7.07798 635.871 -5.21802 651.453C-1.42792 683.247 5.27495 708.129 15.3117 727.57C29.0684 754.242 49.1068 770.034 74.9006 774.561C92.3772 777.614 107.432 774.455 119.575 765.121C134.103 753.961 144.632 734.414 151.72 705.356C157.686 680.931 159.967 655.032 161.792 634.257C162.213 629.273 162.635 624.536 163.056 620.36C170.074 551.295 185.094 509.78 247.631 474.546C259.212 468.018 271.144 460.403 282.725 453.033C303.325 439.908 324.626 426.327 346.139 417.273C354.456 413.799 363.58 411.272 372.459 408.815C392.919 403.165 414.08 397.34 427.556 379.056C439.698 362.562 446.787 344.278 447.594 327.504C448.507 308.202 441.032 291.392 426.012 278.934C413.729 268.722 401.411 257.878 389.55 247.385C374.354 233.979 358.667 220.152 342.735 207.413C329.259 196.78 314.344 189.165 299.921 181.795ZM388.532 248.508C400.429 259.001 412.711 269.845 425.029 280.092C440.295 292.761 446.191 308.378 446.191 324.275C446.191 343.471 437.558 363.089 426.328 378.319C413.168 396.217 392.217 401.972 372.003 407.552C363.124 410.009 353.93 412.535 345.542 416.045C323.925 425.134 302.553 438.75 281.918 451.91C270.372 459.28 258.44 466.86 246.894 473.388C216.538 490.478 196.359 509.71 183.445 533.889C172.145 555.015 165.617 580.844 161.617 620.254C161.196 624.43 160.775 629.168 160.353 634.151C158.529 654.892 156.283 680.721 150.317 705.04C143.298 733.747 132.98 753.048 118.697 763.998C106.871 773.087 92.2017 776.175 75.1463 773.157C49.8087 768.735 30.0861 753.154 16.54 726.904C6.60851 707.637 -0.0592594 682.896 -3.84937 651.277C-5.70932 635.731 -6.83231 619.974 -7.92021 604.778C-9.81526 578.142 -11.605 552.98 -17.0095 528.063C-23.1157 499.778 -32.7665 476.932 -47.3654 456.087C-59.8938 438.224 -79.2304 422.713 -99.6899 406.324C-133.941 378.846 -169.28 350.525 -169.28 310.659C-169.28 307.535 -169.07 304.377 -168.614 301.113C-167.666 294.305 -167.034 286.76 -166.333 278.759C-164.262 254.965 -161.911 227.978 -151.207 210.396C-137.872 188.463 -108.428 175.198 -82.4941 163.511C-74.6682 160.002 -67.2985 156.668 -60.701 153.264C13.4869 114.977 91.3946 96.0616 158.669 99.957C197.974 102.238 217.661 116.591 244.473 145.894C260.3 163.196 280.093 173.303 299.254 183.094C313.607 190.428 328.452 198.008 341.752 208.607C357.685 221.275 373.371 235.137 388.532 248.508Z" fill="#F2F5FB"/>
<path d="M217.135 136.805C194.885 118.03 162.213 109.923 120.066 112.626C90.6222 114.521 56.5464 121.75 18.7857 134.068C-4.90245 141.788 -25.7129 155.334 -45.8566 168.424C-52.1384 172.495 -58.6307 176.742 -65.123 180.707C-68.3867 182.707 -71.7908 184.708 -75.0896 186.673C-92.6364 196.99 -110.745 207.659 -121.167 226.013C-129.59 240.857 -133.836 257.141 -133.836 274.758C-133.836 286.023 -132.117 297.814 -128.642 310.097C-121.869 334.101 -108.569 359.93 -89.0568 386.777C-84.1086 393.62 -79.0902 400.358 -74.2473 406.85C-42.1016 450.085 -11.7457 490.934 -4.1304 549.225C-2.44591 562.139 -1.4282 575.861 -0.445579 589.126C2.9234 634.783 6.43277 682.019 36.894 717.849C54.4759 738.519 73.2158 746.731 91.0434 741.643C103.256 738.169 114.591 728.588 123.821 713.989C132.384 700.443 138.56 683.352 141.157 665.841C143.333 651.277 144.701 637.239 146 623.693C151.194 570.176 155.686 523.957 207.098 486.091C256.264 449.875 310.975 417.062 359.228 388.145C382.636 374.108 406.394 355.684 405.201 325.293C404.394 304.272 389.83 288.866 375.757 273.951C373.09 271.143 370.599 268.476 368.177 265.774C366.563 263.949 364.949 262.159 363.405 260.405C341.19 235.383 323.608 215.625 292.586 199.552C270.687 188.217 256.58 174.32 241.595 159.581C234.085 152.176 226.259 144.526 217.135 136.805ZM291.954 200.851C322.766 216.818 340.243 236.471 362.387 261.387C363.966 263.142 365.545 264.967 367.16 266.757C369.616 269.494 372.248 272.266 374.775 274.968C388.672 289.673 403.025 304.903 403.832 325.398C403.867 326.1 403.867 326.802 403.867 327.468C403.867 355.894 381.022 373.511 358.527 386.987C310.238 415.939 255.492 448.752 206.291 485.003C154.387 523.255 149.86 569.754 144.631 623.588C143.333 637.134 141.964 651.172 139.788 665.665C134.244 702.935 114.03 733.641 90.6573 740.309C73.3913 745.257 55.1426 737.186 37.9468 716.972C7.76632 681.492 4.29206 634.502 0.923078 589.056C-0.0595416 575.791 -1.07726 562.034 -2.76175 549.084C-6.2711 522.273 -14.4479 497.848 -28.5204 472.124C-41.0488 449.243 -56.6304 428.257 -73.1594 406.043C-78.0024 399.551 -82.9856 392.813 -87.9689 385.969C-110.288 355.227 -132.397 314.659 -132.397 274.547C-132.397 258.264 -128.748 242.086 -119.974 226.68C-109.727 208.677 -91.759 198.078 -74.3877 187.866C-71.0889 185.936 -67.6848 183.901 -64.386 181.9C-57.8586 177.9 -51.3663 173.688 -45.0846 169.582C-25.0462 156.528 -4.30587 143.052 19.2068 135.401C56.8622 123.119 90.8328 115.924 120.171 114.029C161.932 111.327 194.254 119.364 216.257 137.893C225.346 145.578 233.137 153.229 240.647 160.634C255.667 175.408 269.88 189.41 291.954 200.851Z" fill="#F2F5FB"/>
<path d="M-44.4179 212.326C-62.5613 228.329 -74.4229 244.893 -80.6696 262.967C-84.0035 272.652 -85.6879 282.619 -85.6879 293.112C-85.6879 300.025 -84.951 307.149 -83.5122 314.519C-76.7742 348.911 -55.2267 383.723 -34.3461 417.378C-22.2739 436.855 -9.78054 456.964 -0.761489 476.335C11.1703 501.848 16.3642 529.888 21.3825 556.98C26.0851 582.283 30.928 608.428 41.2455 632.642C45.1409 641.802 50.4049 649.487 56.4761 654.856C62.5473 660.261 69.1449 663.068 75.5319 662.998C86.446 662.858 95.816 654.365 101.922 639.064C108.029 623.799 109.538 607.305 110.976 591.372C112.099 579.089 113.258 566.35 116.521 554.384C126.733 516.939 158.107 493.145 188.428 470.089C193.341 466.369 198.395 462.509 203.202 458.754C212.362 451.524 222.048 444.611 232.295 437.311C261.282 416.676 291.217 395.339 309.22 365.966C316.098 354.701 319.994 342.664 320.801 330.136C321.538 318.66 319.643 306.833 315.256 294.902C307.395 273.67 291.603 252.684 270.722 235.804C270.687 235.769 270.687 235.769 270.652 235.769C254.86 225.908 241.033 212.467 227.663 199.517C215.204 187.41 202.29 174.882 188.077 165.617C172.109 155.229 156.001 150.071 138.841 149.825C107.853 149.404 73.321 154.878 41.5964 165.301C7.59076 176.391 -22.1686 192.674 -44.4179 212.326ZM138.841 151.194C176.531 151.72 200.921 175.408 226.715 200.465C240.121 213.485 253.983 226.961 269.88 236.892C305.886 266.055 337.47 317.116 308.027 365.194C290.199 394.322 260.37 415.553 231.488 436.118C221.24 443.418 211.52 450.331 202.325 457.595C197.517 461.386 192.464 465.211 187.586 468.931C172.566 480.336 157.054 492.128 144.035 505.744C129.26 521.22 119.82 536.977 115.188 553.962C111.889 566.07 110.696 578.844 109.573 591.197C108.134 607.024 106.625 623.413 100.589 638.503C94.693 653.242 85.7792 661.454 75.4968 661.559C63.1439 661.7 50.1944 650.119 42.5089 632.081C32.2615 608.007 27.4187 581.932 22.7512 556.7C17.6977 529.502 12.5039 501.392 0.501871 475.739C-8.58736 456.332 -21.0807 436.153 -33.1529 416.641C-53.9634 383.092 -75.4406 348.384 -82.1435 314.238C-89.6535 275.881 -76.9847 242.893 -43.5055 213.379C-0.235101 175.233 73.0403 150.246 138.841 151.194Z" fill="#F2F5FB"/>
<path d="M130.524 131.682C95.2201 134.314 52.7919 143.543 17.0316 156.352C-4.83172 164.178 -24.4139 173.338 -41.1536 183.515C-60.1041 195.061 -75.4049 207.94 -86.5295 221.837C-101.795 240.823 -109.481 261.773 -109.481 284.304C-109.481 289.182 -109.13 294.095 -108.393 299.113C-102.287 341.576 -76.0366 379.372 -50.6639 415.939C-40.943 429.942 -31.7835 443.137 -23.7471 456.543C-2.51551 491.917 2.53794 528.485 7.87216 567.193C10.7498 587.933 13.6977 609.34 19.3477 630.607C22.2956 641.661 28.7528 659.278 38.0175 675.527C45.6679 688.897 57.9507 705.883 73.1111 710.831C83.2181 714.13 93.3952 711.743 103.292 703.777C113.153 695.811 119.786 683.177 123.576 665.174C126.804 649.733 127.436 633.063 127.997 618.359C128.173 613.481 128.348 608.849 128.594 604.638C132.033 548.488 151.3 511.605 193.026 481.214C242.578 445.172 290.2 408.5 342.875 367.721C342.91 367.686 342.91 367.686 342.946 367.651C356.492 354.175 362.282 338.067 360.141 319.783C357.369 296.06 341.752 273.565 329.154 258.896C314.765 242.156 295.85 225.803 278.549 215.169C261.634 204.781 247.316 191.832 233.489 179.303C204.466 153.018 177.058 128.207 130.524 131.682ZM232.576 180.356C246.438 192.92 260.792 205.904 277.847 216.362C295.043 226.926 313.818 243.139 328.136 259.808C340.629 274.337 356.071 296.586 358.808 319.924C359.089 322.345 359.229 324.696 359.229 327.012C359.229 341.927 353.474 355.193 342.068 366.598C289.428 407.342 241.806 443.979 192.289 480.02C150.177 510.657 130.735 547.891 127.26 604.497C127.015 608.744 126.839 613.376 126.664 618.254C126.137 632.888 125.506 649.487 122.277 664.823C118.557 682.51 112.1 694.863 102.484 702.619C92.9741 710.304 83.2532 712.585 73.6375 709.427C45.2468 700.162 25.4891 647.803 20.7866 630.186C15.1365 608.989 12.1887 587.617 9.31099 566.947C3.94167 528.099 -1.14687 491.391 -22.4838 455.771C-30.5202 442.365 -39.7147 429.135 -49.4707 415.097C-74.7732 378.67 -100.918 341.015 -106.954 298.867C-110.955 271.108 -103.69 245.455 -85.3715 222.679C-39.2585 165.301 69.1104 137.647 130.7 133.05C176.567 129.646 203.764 154.282 232.576 180.356Z" fill="#F2F5FB"/>
<path d="M-59.4733 262.615C-64.7373 274.828 -67.3342 287.672 -67.3342 301.394C-67.3342 313.747 -65.1935 326.766 -60.9472 340.663C-53.0862 366.317 -38.9435 391.303 -26.3098 412.71C-23.1163 418.115 -19.8175 423.589 -16.624 428.889C-4.72729 448.576 7.55548 468.965 16.7851 490.337C23.9793 507.042 28.366 524.729 32.6474 541.855C35.3496 552.734 38.1571 563.964 41.6313 574.878C42.0173 576.036 42.4385 577.51 42.9649 579.229C47.1761 593.337 55.002 619.622 67.3198 621.131C70.373 621.517 73.0401 620.78 75.251 618.99C82.0591 613.551 83.5681 599.268 84.656 588.81C85.007 585.546 85.2877 582.739 85.7088 580.668C96.3422 526.203 128.207 500.725 168.565 468.509C172.636 465.281 176.812 461.912 181.058 458.472C184.146 455.981 187.27 453.454 190.393 450.962C211.835 433.696 233.979 415.834 253.175 395.795C267.458 380.881 275.705 367.861 279.846 353.578C283.707 340.312 284.268 325.433 281.706 303.815C278.443 276.126 257.281 257.421 240.296 242.366C230.996 234.119 222.433 224.855 214.186 215.906C206.22 207.273 197.973 198.324 189.059 190.322C171.162 174.285 146.772 166.704 116.521 167.792C94.0962 168.6 68.8639 173.969 39.3853 184.251C16.8552 192.077 -2.58658 201.903 -18.3787 213.414C-37.6451 227.452 -51.4719 244.016 -59.4733 262.615ZM188.147 191.41C196.991 199.341 205.238 208.255 213.169 216.888C221.451 225.872 230.014 235.137 239.384 243.454C256.193 258.334 277.109 276.863 280.338 304.026C281.32 312.448 281.952 320.169 281.952 327.398C281.952 351.963 274.933 371.089 252.158 394.883C233.032 414.851 210.923 432.679 189.516 449.945C186.392 452.471 183.304 454.963 180.181 457.49C175.97 460.929 171.758 464.263 167.687 467.492C148.07 483.143 129.541 497.953 115.047 515.324C99.0093 534.52 89.2533 555.225 84.3402 580.493C83.9191 582.598 83.6384 585.441 83.2874 588.74C82.1995 598.952 80.7607 612.919 74.3736 617.973C72.4084 619.517 70.1624 620.113 67.4602 619.798C56.0548 618.394 48.0885 591.723 44.2633 578.878C43.7369 577.159 43.3158 575.685 42.9298 574.492C39.4555 563.613 36.6481 552.383 33.9809 541.539C29.6995 524.343 25.2777 506.586 18.0485 489.811C8.78375 468.334 -3.5341 447.944 -15.4308 428.187C-18.6243 422.888 -21.9231 417.413 -25.1166 412.009C-46.243 376.213 -66.0007 338.768 -66.0007 301.569C-66.0007 288.725 -63.6494 275.916 -58.1748 263.212C-40.0314 220.994 5.13401 197.727 39.8416 185.655C107.642 162.037 157.545 164.002 188.147 191.41Z" fill="#F2F5FB"/>
<path d="M-45.4 271.283C-49.9972 283.04 -52.3134 295.147 -52.3134 307.851C-52.3134 319.291 -50.4534 331.223 -46.6984 343.752C-39.7499 367.019 -27.4672 389.338 -15.5704 410.886L-15.3248 411.377C9.13547 455.77 28.8229 494.163 45.352 537.187C50.3704 550.277 55.2133 556.594 60.5826 557.05C68.0575 557.717 74.9008 546.522 82.095 534.661C85.5693 528.94 89.1839 523.045 92.974 518.237C112.662 493.25 139.824 473.563 166.074 454.507C193.798 434.398 219.978 415.413 237.946 390.812C247.631 377.582 253.983 363.965 257.387 349.226C261.178 332.732 261.177 315.221 257.422 295.709C253.667 276.196 236.05 259.738 220.504 245.209C215.556 240.576 210.853 236.19 206.888 231.943C204.361 229.241 201.834 226.469 199.413 223.802C186.112 209.203 173.584 195.411 154.423 188.217C137.788 181.97 117.89 180.11 95.2902 182.637C76.8661 184.707 56.7574 189.726 37.1401 197.201C18.1545 204.43 1.59033 214.011 -12.0962 225.662C-27.4321 238.752 -38.662 254.123 -45.4 271.283ZM37.7016 198.499C58.6174 190.533 111.784 173.688 154.002 189.515C172.812 196.569 185.27 210.256 198.43 224.714C200.852 227.381 203.378 230.154 205.94 232.856C209.976 237.137 214.643 241.524 219.627 246.156C234.998 260.545 252.439 276.828 256.124 295.919C271.635 376.213 219.978 413.693 165.337 453.349C138.982 472.475 111.749 492.232 91.9563 517.359C88.096 522.237 84.4813 528.168 80.972 533.924C73.9884 545.399 67.3908 556.243 60.7581 555.647C56.0205 555.225 51.4232 549.014 46.6856 536.661C30.1214 493.566 10.4339 455.139 -14.0614 410.675L-14.3071 410.184C-32.4154 377.336 -50.9799 343.646 -50.9799 308.061C-50.9799 296.2 -48.9093 284.093 -44.0664 271.74C-31.538 239.875 -2.51561 213.835 37.7016 198.499Z" fill="#F2F5FB"/>
<path d="M-28.4495 277.986C-31.7132 288.058 -33.3626 298.972 -33.3626 310.623C-33.3626 317.466 -32.8011 324.59 -31.643 331.925C-25.8175 369.475 -5.77906 408.499 11.0308 438.294C13.1364 442.049 15.4525 446.751 18.1547 452.226C24.0504 464.228 31.4201 479.178 40.0882 490.513C50.4057 503.954 60.4425 509.604 70.8302 507.744C81.99 505.779 96.6591 494.127 108.415 484.793C113.364 480.862 118.031 477.142 121.821 474.651C136.876 464.684 152.844 453.945 167.478 441.627C209.169 406.639 231.313 371.581 233.313 337.435C234.893 309.781 223.171 282.443 198.395 256.263C197.518 255.21 196.676 254.158 195.833 253.105C173.339 225.486 153.897 201.658 115.083 198.148C96.4485 196.464 76.4803 198.499 57.3543 204.044C37.8422 209.694 19.9796 218.783 5.62634 230.294C-11.0431 243.805 -22.5187 259.808 -28.4495 277.986ZM6.50368 231.487C35.2102 208.396 76.761 196.183 114.943 199.622C153.16 203.061 172.426 226.714 194.71 254.052C195.553 255.105 196.43 256.158 197.307 257.211L197.343 257.246C220.399 281.601 232.05 306.903 232.05 332.522C232.05 334.136 232.015 335.75 231.91 337.4C229.98 371.124 207.976 405.867 166.601 440.61C152.002 452.857 136.104 463.596 121.049 473.528C117.224 476.054 112.521 479.774 107.538 483.74C95.887 492.969 81.3934 504.48 70.5494 506.41C60.7583 508.13 51.1427 502.69 41.1761 489.706C32.5782 478.511 25.2436 463.631 19.383 451.664C16.6808 446.19 14.3647 441.417 12.224 437.662C-4.51568 407.973 -24.484 369.089 -30.2744 331.75C-31.4325 324.31 -31.9939 317.186 -31.9939 310.307C-31.9939 278.162 -19.2901 252.227 6.50368 231.487Z" fill="#F2F5FB"/>
<path d="M-17.5358 319.327C-17.5358 351.121 -6.20052 382.741 3.80115 404.429C11.3814 420.817 19.0317 436.645 29.7002 449.734C42.5444 465.527 56.8977 473.598 73.6374 474.475C86.6922 475.142 100.835 471.492 115.715 463.667C126.804 457.841 138.245 449.84 151.65 438.469C170.741 422.326 195.833 396.603 206.853 365.65C211.976 351.262 213.485 337.084 211.345 323.573C208.993 308.658 202.15 294.305 191.025 280.899C188.428 277.109 185.902 273.214 183.445 269.494C167.337 244.858 152.107 221.591 120.487 214.572C106.59 211.484 90.6226 211.625 74.3392 214.994C59.0033 218.152 44.0886 223.942 31.1741 231.733C1.44988 249.666 -14.8335 276.162 -17.255 310.448C-17.4656 313.396 -17.5358 316.344 -17.5358 319.327ZM31.9111 232.926C58.8279 216.678 93.5003 210.01 120.207 215.941C151.264 222.855 166.355 245.876 182.322 270.266C184.779 274.021 187.341 277.916 189.937 281.742C189.937 281.777 189.973 281.777 189.973 281.812C203.94 298.622 210.958 316.624 210.958 335.645C210.958 345.261 209.169 355.122 205.589 365.194C194.71 395.831 169.794 421.379 150.808 437.417C131.822 453.454 103.186 474.581 73.7426 473.072C36.1574 471.141 17.4876 430.643 5.09959 403.832C-5.18282 381.548 -16.2724 350.244 -16.2724 319.011C-16.3075 286.935 -4.55113 254.93 31.9111 232.926Z" fill="#F2F5FB"/>
<path d="M0.431855 369.827C4.22196 385.9 10.1528 401.306 17.6277 414.396C25.6641 428.433 35.0692 439.382 45.5973 446.927C60.6875 457.736 77.8834 460.544 96.7286 455.28C118.416 449.208 136.77 434.013 148.351 422.292C162.81 407.658 175.057 390.111 181.901 374.143C190.393 354.28 189.516 325.714 179.549 297.674C174.742 284.198 168.074 271.6 160.178 261.177C151.685 249.947 142.175 241.63 131.892 236.401C121.224 230.997 109.397 228.154 96.6935 227.979C84.7266 227.838 72.5842 230.014 60.6173 234.471C36.5782 243.455 16.6802 260.475 5.97666 281.11C-0.831496 294.305 -4.34086 311.466 -4.34086 330.346C-4.30577 343.015 -2.72657 356.386 0.431855 369.827ZM7.2751 281.812C29.8403 238.226 90.131 216.749 131.296 237.699C150.738 247.561 168.284 270.196 178.251 298.166C183.62 313.256 186.323 328.486 186.323 342.419C186.323 354.035 184.427 364.738 180.637 373.617C167.056 405.341 131.822 444.05 96.3777 453.946C77.9886 459.07 61.1788 456.332 46.4395 445.804C26.366 431.416 9.66147 402.885 1.80051 369.511C-6.02535 336.312 -3.98993 303.535 7.2751 281.812Z" fill="#F2F5FB"/>
<path d="M75.6027 439.417C93.4302 441.207 111.082 435.03 126.629 421.554C148.457 402.674 163.968 371.09 165.232 342.98C166.144 327.784 163.512 312.097 157.511 297.674C151.475 283.075 142.456 270.757 131.472 262.054C123.26 255.562 114.206 251.245 104.555 249.245C94.1321 247.104 83.218 247.701 72.1284 251.035C50.3704 257.597 33.1746 271.529 22.471 291.357C15.0663 305.114 11.206 321.011 11.206 337.435C11.206 343.225 11.6973 349.051 12.6448 354.876C14.575 366.633 19.5583 389.163 31.2444 408.219C42.8253 427.169 57.7401 437.662 75.6027 439.417ZM14.0486 354.701C13.066 348.7 12.5747 342.804 12.5747 337.014C12.5747 297.042 35.596 263.493 72.5144 252.403C99.1505 244.402 118.803 253.842 130.559 263.177C151.229 279.531 163.968 307.991 163.968 336.979C163.968 338.979 163.898 340.944 163.793 342.945C162.529 370.704 147.194 401.902 125.646 420.537C110.38 433.732 93.1144 439.803 75.6729 438.048C30.5074 433.521 17.1017 373.125 14.0486 354.701Z" fill="#F2F5FB"/>
<path d="M103.748 371.651C109.258 362.562 112.732 350.806 113.258 339.47C113.82 327.503 111.153 317.361 105.713 310.869C94.2378 297.112 83.1482 297.814 75.8487 300.832C67.4614 304.307 59.4601 312.904 53.81 324.45C49.0373 334.206 46.4403 345.05 46.4403 354.876C46.4403 356.456 46.5105 358.035 46.6509 359.579C48.0897 375.441 56.6877 385.864 70.8304 388.917C77.5332 390.356 83.9203 389.373 89.8511 386.004C95.1151 382.986 99.8878 378.038 103.748 371.651ZM71.1462 387.549C57.6352 384.636 49.4233 374.634 48.0546 359.439C47.072 348.7 49.6339 336.171 55.0734 325.047C60.548 313.817 68.3387 305.465 76.3751 302.131C86.2013 298.06 95.9573 301.394 104.625 311.746C109.819 317.958 112.381 327.784 111.855 339.4C111.328 350.525 107.959 362.035 102.555 370.914C97.8875 378.67 87.57 391.093 71.1462 387.549Z" fill="#F2F5FB"/>
<path d="M94.3071 350.419C97.255 344.032 98.4482 337.189 97.5357 332.101C96.518 326.415 92.9034 322.976 87.4288 322.485C76.9709 321.537 68.7239 325.328 64.8636 332.873C63.3195 335.856 62.5825 339.26 62.5825 342.734C62.5825 348.981 64.9689 355.543 69.4258 360.702C74.3038 366.352 79.3222 365.615 82.656 364.036C87.0427 361.895 91.289 356.947 94.3071 350.419ZM70.4786 359.754C63.881 352.139 62.0561 341.33 66.0919 333.504C69.7416 326.38 77.2867 322.941 87.2884 323.854C93.4649 324.415 95.5354 328.767 96.1671 332.346C96.3776 333.434 96.4478 334.592 96.4478 335.785C96.4478 345.927 89.7098 359.052 82.0243 362.737C77.8131 364.738 73.9178 363.755 70.4786 359.754Z" fill="#F2F5FB"/>
<path d="M88.7972 336.312C87.8848 333.329 85.8493 331.504 83.0769 331.188C79.743 330.802 77.1461 332.697 76.1635 336.277C75.8828 337.294 75.7424 338.382 75.7424 339.505C75.7424 343.225 77.2865 347.156 80.3747 348.559C82.5505 349.542 84.6211 349.296 86.3056 347.822C88.9025 345.471 90.0606 340.312 88.7972 336.312ZM80.9362 347.261C77.6725 345.787 76.4443 340.418 77.4971 336.628C77.9884 334.908 79.3219 332.136 82.9014 332.557C85.7089 332.908 86.9021 335.013 87.4285 336.698C87.7444 337.68 87.8848 338.733 87.8848 339.786C87.8848 342.523 86.9372 345.296 85.3229 346.735C84.0946 347.857 82.6207 348.033 80.9362 347.261Z" fill="#F2F5FB"/>
<path d="M121.892 398.146C131.753 386.004 138.315 369.124 140.351 350.56C142.386 332.17 139.754 314.308 133.016 300.2C125.436 284.408 113.294 274.652 97.8525 271.985C86.5875 270.055 76.0945 271.038 66.6894 275.003C58.0915 278.618 50.5815 284.584 44.3348 292.725C35.2105 304.622 29.2446 320.8 27.5601 338.277C27.2091 341.751 27.0687 345.19 27.0687 348.594C27.0687 362.281 29.7359 375.441 34.8595 386.425C39.141 395.655 44.8963 403.024 52.0203 408.359C59.7759 414.184 68.9354 417.378 79.2178 417.869C95.9574 418.746 110.697 411.903 121.892 398.146ZM79.288 416.535C60.162 415.623 44.8261 404.709 36.0878 385.899C22.8926 357.473 26.9284 317.782 45.4227 293.603C54.4417 281.811 70.8304 268.756 97.6068 273.389C112.557 275.986 124.348 285.461 131.718 300.832C136.877 311.606 139.579 324.66 139.579 338.487C139.579 342.418 139.368 346.418 138.912 350.419C135.192 384.6 115.294 418.29 79.288 416.535Z" fill="#F2F5FB"/>
<path d="M913.795 -167.92C904.074 -148.9 894.038 -129.212 876.912 -113.525C847.328 -86.4682 832.834 -66.5701 830.518 -26.774C828.448 8.84596 832.589 46.9927 842.836 86.6835C852.066 122.444 865.892 158.309 883.966 193.298C887.335 199.86 890.669 207.23 894.178 215.021C905.969 241.165 919.305 270.819 941.624 284.366C959.522 295.245 986.649 297.596 1010.62 299.702C1018.62 300.403 1026.13 301.07 1032.9 301.983C1036.24 302.439 1039.5 302.649 1042.69 302.649C1083.19 302.649 1111.72 267.029 1139.41 232.532C1155.77 212.143 1171.21 192.877 1188.89 180.489C1234.3 148.624 1284.14 145.079 1336.88 141.289C1352.11 140.201 1367.87 139.078 1383.45 137.218C1415.25 133.428 1440.13 126.725 1459.57 116.689C1486.24 102.932 1502.03 82.8934 1506.56 57.0996C1509.61 39.623 1506.46 24.5679 1497.12 12.4255C1485.96 -2.10323 1466.41 -12.6313 1437.36 -19.7202C1412.93 -25.6861 1387.03 -27.9672 1366.26 -29.7921C1361.27 -30.2132 1356.54 -30.6343 1352.36 -31.0554C1283.3 -38.0741 1241.78 -53.0942 1206.55 -115.631C1200.02 -127.212 1192.4 -139.144 1185.03 -150.725C1171.91 -171.324 1158.33 -192.626 1149.27 -214.139C1145.8 -222.456 1143.27 -231.58 1140.82 -240.459C1135.17 -260.918 1129.34 -282.08 1111.06 -295.556C1094.56 -307.698 1076.28 -314.787 1059.5 -315.594C1040.2 -316.507 1023.39 -309.032 1010.93 -294.012C1000.72 -281.729 989.878 -269.411 979.385 -257.549C965.979 -242.354 952.152 -226.667 939.413 -210.735C928.78 -197.259 921.165 -182.344 913.795 -167.92ZM980.508 -256.532C991.001 -268.428 1001.84 -280.711 1012.09 -293.029C1024.76 -308.295 1040.38 -314.19 1056.28 -314.19C1075.47 -314.19 1095.09 -305.557 1110.32 -294.327C1128.22 -281.167 1133.97 -260.216 1139.55 -240.003C1142.01 -231.124 1144.54 -221.929 1148.04 -213.542C1157.13 -191.924 1170.75 -170.552 1183.91 -149.917C1191.28 -138.372 1198.86 -126.44 1205.39 -114.894C1222.48 -84.538 1241.71 -64.3592 1265.89 -51.4448C1287.02 -40.1447 1312.84 -33.6173 1352.25 -29.6166C1356.43 -29.1955 1361.17 -28.7743 1366.15 -28.3532C1386.89 -26.5284 1412.72 -24.2824 1437.04 -18.3165C1465.75 -11.2977 1485.05 -0.980235 1496 13.3028C1505.09 25.1294 1508.18 39.7985 1505.16 56.854C1500.74 82.1915 1485.15 101.914 1458.9 115.46C1439.64 125.392 1414.9 132.06 1383.28 135.85C1367.73 137.71 1351.97 138.833 1336.78 139.92C1310.14 141.816 1284.98 143.605 1260.06 149.01C1231.78 155.116 1208.93 164.767 1188.09 179.366C1170.22 191.894 1154.71 211.231 1138.32 231.69C1110.85 265.941 1082.53 301.281 1042.66 301.281C1039.54 301.281 1036.38 301.07 1033.11 300.614C1026.31 299.666 1018.76 299.035 1010.76 298.333C986.965 296.262 959.978 293.911 942.396 283.208C920.463 269.872 907.198 240.428 895.511 214.494C892.002 206.668 888.668 199.299 885.264 192.701C846.977 118.513 828.062 40.6057 831.957 -26.6687C834.238 -65.9735 848.591 -85.661 877.894 -112.473C895.196 -128.3 905.303 -148.093 915.094 -167.254C922.428 -181.607 930.008 -196.451 940.607 -209.752C953.275 -225.684 967.137 -241.371 980.508 -256.532Z" fill="#ECEFF8"/>
<path d="M868.805 -85.1348C850.03 -62.8855 841.923 -30.2133 844.625 11.934C846.52 41.3775 853.749 75.4534 866.067 113.214C873.788 136.902 887.334 157.713 900.424 177.856C904.495 184.138 908.741 190.63 912.707 197.123C914.707 200.386 916.707 203.791 918.672 207.089C928.99 224.636 939.658 242.744 958.012 253.167C972.857 261.59 989.14 265.836 1006.76 265.836C1018.02 265.836 1029.81 264.116 1042.1 260.642C1066.1 253.869 1091.93 240.569 1118.78 221.057C1125.62 216.108 1132.36 211.09 1138.85 206.247C1182.08 174.101 1222.93 143.745 1281.22 136.13C1294.14 134.446 1307.86 133.428 1321.13 132.445C1366.78 129.076 1414.02 125.567 1449.85 95.1058C1470.52 77.5239 1478.73 58.7839 1473.64 40.9564C1470.17 28.7438 1460.59 17.4086 1445.99 8.17901C1432.44 -0.383818 1415.35 -6.56029 1397.84 -9.15722C1383.28 -11.333 1369.24 -12.7017 1355.69 -14.0001C1302.18 -19.194 1255.96 -23.6859 1218.09 -75.098C1181.87 -124.264 1149.06 -178.975 1120.14 -227.229C1106.11 -250.636 1087.68 -274.394 1057.29 -273.201C1036.27 -272.394 1020.87 -257.83 1005.95 -243.758C1003.14 -241.091 1000.48 -238.599 997.773 -236.178C995.949 -234.563 994.159 -232.949 992.404 -231.405C967.382 -209.191 947.625 -191.609 931.552 -160.586C920.217 -138.688 906.32 -124.58 891.58 -109.595C884.176 -102.085 876.525 -94.2591 868.805 -85.1348ZM932.85 -159.954C948.818 -190.766 968.47 -208.243 993.387 -230.387C995.141 -231.966 996.966 -233.546 998.756 -235.16C1001.49 -237.616 1004.27 -240.248 1006.97 -242.775C1021.67 -256.672 1036.9 -271.025 1057.4 -271.833C1058.1 -271.868 1058.8 -271.868 1059.47 -271.868C1087.89 -271.868 1105.51 -249.022 1118.99 -226.527C1147.94 -178.238 1180.75 -123.492 1217 -74.2909C1255.26 -22.3875 1301.75 -17.8604 1355.59 -12.6315C1369.13 -11.333 1383.17 -9.96436 1397.66 -7.78856C1434.93 -2.24378 1465.64 17.9701 1472.31 41.3424C1477.26 58.6085 1469.19 76.8571 1448.97 94.053C1413.49 124.233 1366.5 127.708 1321.06 131.077C1307.79 132.059 1294.03 133.077 1281.08 134.762C1254.27 138.271 1229.85 146.448 1204.12 160.52C1181.24 173.049 1160.26 188.63 1138.04 205.159C1131.55 210.002 1124.81 214.985 1117.97 219.969C1087.23 242.288 1046.66 264.397 1006.55 264.397C990.263 264.397 974.085 260.747 958.679 251.974C940.676 241.727 930.078 223.759 919.866 206.387C917.936 203.089 915.9 199.685 913.9 196.386C909.899 189.858 905.688 183.366 901.582 177.084C888.527 157.046 875.051 136.306 867.401 112.793C855.118 75.1375 847.924 41.167 846.029 11.8287C843.327 -29.9326 851.363 -62.2538 869.892 -84.2575C877.578 -93.3467 885.228 -101.137 892.633 -108.647C907.407 -123.668 921.41 -137.88 932.85 -159.954Z" fill="#ECEFF8"/>
<path d="M944.327 176.418C960.33 194.561 976.894 206.423 994.967 212.67C1004.65 216.003 1014.62 217.688 1025.11 217.688C1032.03 217.688 1039.15 216.951 1046.52 215.512C1080.91 208.774 1115.72 187.227 1149.38 166.346C1168.86 154.274 1188.96 141.781 1208.34 132.761C1233.85 120.83 1261.89 115.636 1288.98 110.617C1314.28 105.915 1340.43 101.072 1364.64 90.7545C1373.8 86.8591 1381.49 81.5951 1386.86 75.5239C1392.26 69.4527 1395.07 62.8551 1395 56.4681C1394.86 45.554 1386.37 36.184 1371.06 30.0777C1355.8 23.9714 1339.31 22.4624 1323.37 21.0236C1311.09 19.9006 1298.35 18.7425 1286.38 15.4788C1248.94 5.26656 1225.15 -26.1071 1202.09 -56.428C1198.37 -61.3411 1194.51 -66.3945 1190.75 -71.2023C1183.52 -80.3618 1176.61 -90.0476 1169.31 -100.295C1148.68 -129.282 1127.34 -159.217 1097.97 -177.22C1086.7 -184.098 1074.66 -187.994 1062.14 -188.801C1050.66 -189.538 1038.83 -187.643 1026.9 -183.256C1005.67 -175.395 984.685 -159.603 967.805 -138.722C967.769 -138.687 967.769 -138.687 967.769 -138.652C957.908 -122.86 944.467 -109.033 931.518 -95.6626C919.411 -83.2043 906.882 -70.2899 897.617 -56.077C887.23 -40.1094 882.071 -24.0015 881.825 -6.84072C881.404 24.1469 886.879 58.679 897.302 90.4036C908.391 124.409 924.675 154.169 944.327 176.418ZM883.194 -6.84072C883.72 -44.5312 907.409 -68.9213 932.465 -94.715C945.485 -108.121 958.961 -121.983 968.892 -137.88C998.055 -173.886 1049.12 -205.47 1097.19 -176.027C1126.32 -158.199 1147.55 -128.37 1168.12 -99.4877C1175.42 -89.2404 1182.33 -79.5195 1189.6 -70.325C1193.39 -65.5172 1197.21 -60.4637 1200.93 -55.5857C1212.34 -40.5657 1224.13 -25.0543 1237.74 -12.0346C1253.22 2.73981 1268.98 12.18 1285.96 16.8123C1298.07 20.1111 1310.84 21.3043 1323.2 22.4273C1339.02 23.8661 1355.41 25.3752 1370.5 31.4113C1385.24 37.307 1393.45 46.2208 1393.56 56.5032C1393.7 68.8561 1382.12 81.8056 1364.08 89.4911C1340.01 99.7385 1313.93 104.581 1288.7 109.249C1261.5 114.302 1233.39 119.496 1207.74 131.498C1188.33 140.587 1168.15 153.081 1148.64 165.153C1115.09 185.963 1080.38 207.441 1046.24 214.143C1007.88 221.654 974.893 208.985 945.38 175.505C907.233 132.235 882.246 58.9597 883.194 -6.84072Z" fill="#ECEFF8"/>
<path d="M863.681 1.47557C866.313 36.7797 875.543 79.2078 888.352 114.968C896.178 136.831 905.337 156.414 915.514 173.153C927.06 192.104 939.939 207.405 953.836 218.529C972.822 233.795 993.773 241.48 1016.3 241.48C1021.18 241.48 1026.09 241.13 1031.11 240.393C1073.58 234.286 1111.37 208.036 1147.94 182.664C1161.94 172.943 1175.14 163.783 1188.54 155.747C1223.92 134.515 1260.48 129.462 1299.19 124.128C1319.93 121.25 1341.34 118.302 1362.61 112.652C1373.66 109.704 1391.28 103.247 1407.53 93.9822C1420.9 86.3318 1437.88 74.0491 1442.83 58.8886C1446.13 48.7817 1443.74 38.6046 1435.78 28.7082C1427.81 18.8469 1415.18 12.2142 1397.17 8.42411C1381.73 5.1955 1365.06 4.56381 1350.36 4.00231C1345.48 3.82684 1340.85 3.65137 1336.64 3.40572C1280.49 -0.0334544 1243.6 -19.2998 1213.21 -61.0261C1177.17 -110.578 1140.5 -158.2 1099.72 -210.876C1099.69 -210.911 1099.69 -210.911 1099.65 -210.946C1086.17 -224.492 1070.07 -230.282 1051.78 -228.142C1028.06 -225.369 1005.56 -209.753 990.895 -197.154C974.156 -182.766 957.802 -163.85 947.169 -146.549C936.781 -129.634 923.831 -115.316 911.303 -101.489C885.018 -72.4666 860.207 -45.0585 863.681 1.47557ZM912.356 -100.577C924.919 -114.438 937.904 -128.792 948.362 -145.847C958.925 -163.043 975.138 -181.818 991.808 -196.136C1006.34 -208.63 1028.59 -224.071 1051.92 -226.808C1054.34 -227.089 1056.7 -227.229 1059.01 -227.229C1073.93 -227.229 1087.19 -221.474 1098.6 -210.068C1139.34 -157.428 1175.98 -109.806 1212.02 -60.2891C1242.66 -18.1768 1279.89 1.26503 1336.5 4.73929C1340.74 4.98494 1345.38 5.16039 1350.25 5.33586C1364.89 5.86227 1381.49 6.49395 1396.82 9.72256C1414.51 13.4425 1426.86 19.8997 1434.62 29.5153C1442.3 39.0257 1444.58 48.7466 1441.43 58.3622C1432.16 86.7529 1379.8 106.511 1362.19 111.213C1340.99 116.863 1319.62 119.811 1298.95 122.689C1260.1 128.058 1223.39 133.147 1187.77 154.484C1174.36 162.52 1161.13 171.714 1147.1 181.47C1110.67 206.773 1073.01 232.918 1030.87 238.954C1003.11 242.954 977.454 235.69 954.679 217.371C897.301 171.258 869.647 62.8893 865.05 1.3001C861.646 -44.5672 886.281 -71.7647 912.356 -100.577Z" fill="#ECEFF8"/>
<path d="M994.616 191.473C1006.83 196.737 1019.67 199.334 1033.39 199.334C1045.75 199.334 1058.77 197.193 1072.66 192.947C1098.32 185.086 1123.3 170.943 1144.71 158.31C1150.12 155.116 1155.59 151.817 1160.89 148.624C1180.58 136.727 1200.97 124.444 1222.34 115.215C1239.04 108.02 1256.73 103.634 1273.86 99.3524C1284.73 96.6502 1295.96 93.8427 1306.88 90.3684C1308.04 89.9824 1309.51 89.5613 1311.23 89.0349C1325.34 84.8236 1351.62 76.9978 1353.13 64.6799C1353.52 61.6268 1352.78 58.9597 1350.99 56.7488C1345.55 49.9406 1331.27 48.4316 1320.81 47.3437C1317.55 46.9928 1314.74 46.712 1312.67 46.2909C1258.2 35.6576 1232.73 3.7926 1200.51 -36.565C1197.28 -40.6359 1193.91 -44.812 1190.47 -49.0583C1187.98 -52.1466 1185.45 -55.2699 1182.96 -58.3932C1165.7 -79.8354 1147.83 -101.979 1127.8 -121.176C1112.88 -135.459 1099.86 -143.706 1085.58 -147.847C1072.31 -151.707 1057.43 -152.269 1035.82 -149.707C1008.13 -146.443 989.422 -125.282 974.367 -108.296C966.12 -98.9965 956.855 -90.4336 947.906 -82.1867C939.273 -74.2204 930.324 -65.9734 922.323 -57.0597C906.285 -39.1619 898.705 -14.7719 899.793 15.4788C900.6 37.9035 905.969 63.1358 916.252 92.6144C924.078 115.145 933.904 134.586 945.415 150.378C959.452 169.645 976.016 183.472 994.616 191.473ZM923.411 -56.1472C931.342 -64.9908 940.256 -73.2378 948.889 -81.169C957.873 -89.451 967.137 -98.0138 975.455 -107.384C990.334 -124.194 1008.86 -145.109 1036.03 -148.338C1044.45 -149.321 1052.17 -149.952 1059.4 -149.952C1083.96 -149.952 1103.09 -142.934 1126.88 -120.158C1146.85 -101.032 1164.68 -78.923 1181.95 -57.5159C1184.47 -54.3925 1186.96 -51.3043 1189.49 -48.181C1192.93 -43.9698 1196.26 -39.7585 1199.49 -35.6877C1215.14 -16.0704 1229.95 2.45904 1247.32 16.9527C1266.52 32.9905 1287.23 42.7464 1312.49 47.6595C1314.6 48.0807 1317.44 48.3614 1320.74 48.7123C1330.95 49.8002 1344.92 51.2391 1349.97 57.6261C1351.52 59.5914 1352.11 61.8374 1351.8 64.5396C1350.39 75.945 1323.72 83.9112 1310.88 87.7364C1309.16 88.2628 1307.69 88.6839 1306.49 89.0699C1295.61 92.5442 1284.38 95.3517 1273.54 98.0188C1256.34 102.3 1238.59 106.722 1221.81 113.951C1200.33 123.216 1179.94 135.534 1160.19 147.431C1154.89 150.624 1149.41 153.923 1144.01 157.116C1108.21 178.243 1070.77 198 1033.57 198C1020.73 198 1007.92 195.649 995.212 190.175C952.995 172.031 929.728 126.866 917.656 92.1582C894.038 24.3574 896.003 -25.5456 923.411 -56.1472Z" fill="#ECEFF8"/>
<path d="M1003.28 177.4C1015.04 181.997 1027.15 184.313 1039.85 184.313C1051.29 184.313 1063.22 182.453 1075.75 178.698C1099.02 171.75 1121.34 159.467 1142.89 147.57L1143.38 147.325C1187.77 122.865 1226.16 103.177 1269.19 86.648C1282.28 81.6296 1288.59 76.7867 1289.05 71.4174C1289.72 63.9425 1278.52 57.0992 1266.66 49.905C1260.94 46.4307 1255.05 42.8161 1250.24 39.026C1225.25 19.3385 1205.56 -7.82393 1186.51 -34.0739C1166.4 -61.7978 1147.41 -87.9776 1122.81 -105.946C1109.58 -115.631 1095.97 -121.983 1081.23 -125.387C1064.73 -129.178 1047.22 -129.177 1027.71 -125.422C1008.2 -121.667 991.738 -104.05 977.209 -88.504C972.577 -83.5558 968.19 -78.8533 963.944 -74.8877C961.242 -72.361 958.469 -69.8343 955.802 -67.4128C941.203 -54.1123 927.412 -41.5839 920.217 -22.4229C913.971 -5.7885 912.111 14.1096 914.637 36.7098C916.708 55.1339 921.726 75.2426 929.201 94.8599C936.431 113.845 946.011 130.41 957.662 144.096C970.752 159.432 986.123 170.662 1003.28 177.4ZM930.5 94.2984C922.534 73.3826 905.689 20.2158 921.516 -22.0017C928.57 -40.8119 942.256 -53.2701 956.715 -66.4302C959.382 -68.8517 962.154 -71.3784 964.856 -73.9402C969.138 -77.976 973.524 -82.6434 978.157 -87.6267C992.545 -102.998 1008.83 -120.439 1027.92 -124.124C1108.21 -139.635 1145.69 -87.9776 1185.35 -33.3369C1204.48 -6.98167 1224.23 20.2509 1249.36 40.0437C1254.24 43.904 1260.17 47.5187 1265.92 51.028C1277.4 58.0116 1288.24 64.6092 1287.65 71.2419C1287.23 75.9795 1281.01 80.5768 1268.66 85.3144C1225.57 101.879 1187.14 121.566 1142.68 146.061L1142.18 146.307C1109.34 164.415 1075.65 182.98 1040.06 182.98C1028.2 182.98 1016.09 180.909 1003.74 176.066C971.875 163.538 945.836 134.516 930.5 94.2984Z" fill="#ECEFF8"/>
<path d="M1009.99 160.449C1020.06 163.713 1030.97 165.362 1042.62 165.362C1049.47 165.362 1056.59 164.801 1063.93 163.643C1101.48 157.817 1140.5 137.779 1170.29 120.969C1174.05 118.863 1178.75 116.547 1184.23 113.845C1196.23 107.949 1211.18 100.58 1222.51 91.9115C1235.95 81.594 1241.6 71.5572 1239.74 61.1695C1237.78 50.0098 1226.13 35.3407 1216.79 23.5843C1212.86 18.6361 1209.14 13.9687 1206.65 10.1786C1196.68 -4.87653 1185.95 -20.8441 1173.63 -35.4781C1138.64 -77.1693 1103.58 -99.3133 1069.44 -101.314C1041.78 -102.893 1014.44 -91.1716 988.264 -66.3956C987.211 -65.5182 986.158 -64.676 985.105 -63.8337C957.487 -41.3388 933.658 -21.8969 930.149 16.9166C928.464 35.5512 930.5 55.5195 936.044 74.6455C941.695 94.1575 950.784 112.02 962.294 126.373C975.805 143.043 991.808 154.518 1009.99 160.449ZM963.488 125.496C940.396 96.7895 928.184 55.2387 931.623 17.0569C935.062 -21.16 958.715 -40.4263 986.053 -62.7107C987.106 -63.553 988.158 -64.4303 989.211 -65.3077L989.246 -65.3428C1013.6 -88.3992 1038.9 -100.05 1064.52 -100.05C1066.14 -100.05 1067.75 -100.015 1069.4 -99.9099C1103.12 -97.9798 1137.87 -75.9761 1172.61 -34.6008C1184.86 -20.0019 1195.6 -4.10449 1205.53 10.9507C1208.05 14.7759 1211.77 19.4784 1215.74 24.4617C1224.97 36.1127 1236.48 50.6064 1238.41 61.4503C1240.13 71.2414 1234.69 80.857 1221.71 90.8236C1210.51 99.4215 1195.63 106.756 1183.66 112.617C1178.19 115.319 1173.42 117.635 1169.66 119.776C1139.97 136.515 1101.09 156.484 1063.75 162.274C1056.31 163.432 1049.19 163.994 1042.31 163.994C1010.16 163.994 984.228 151.29 963.488 125.496Z" fill="#ECEFF8"/>
<path d="M1051.33 149.535C1083.12 149.535 1114.74 138.2 1136.43 128.198C1152.82 120.618 1168.64 112.968 1181.73 102.299C1197.53 89.4551 1205.6 75.1018 1206.48 58.3622C1207.14 45.3073 1203.49 31.1646 1195.67 16.285C1189.84 5.19541 1181.84 -6.24509 1170.47 -19.6508C1154.33 -38.7417 1128.6 -63.8337 1097.65 -74.853C1083.26 -79.9767 1069.08 -81.4857 1055.57 -79.345C1040.66 -76.9937 1026.31 -70.1505 1012.9 -59.0258C1009.11 -56.4289 1005.21 -53.9022 1001.49 -51.4456C976.859 -35.3377 953.592 -20.107 946.573 11.5123C943.485 25.4093 943.625 41.3769 946.994 57.6603C950.152 72.9962 955.943 87.9109 963.734 100.825C981.666 130.55 1008.16 146.833 1042.45 149.255C1045.4 149.465 1048.34 149.535 1051.33 149.535ZM964.927 100.088C948.678 73.1717 942.011 38.4992 947.942 11.793C954.855 -19.2648 977.876 -34.355 1002.27 -50.3226C1006.02 -52.7792 1009.92 -55.341 1013.74 -57.9379C1013.78 -57.9379 1013.78 -57.973 1013.81 -57.973C1030.62 -71.9403 1048.62 -78.959 1067.65 -78.959C1077.26 -78.959 1087.12 -77.1692 1097.19 -73.5897C1127.83 -62.7106 1153.38 -37.7942 1169.42 -18.8086C1185.45 0.177024 1206.58 28.8134 1205.07 58.2569C1203.14 95.8421 1162.64 114.512 1135.83 126.9C1113.55 137.182 1082.24 148.272 1051.01 148.272C1018.94 148.307 986.93 136.551 964.927 100.088Z" fill="#ECEFF8"/>
<path d="M1101.83 131.568C1117.9 127.778 1133.31 121.847 1146.4 114.372C1160.43 106.336 1171.38 96.9305 1178.93 86.4025C1189.74 71.3122 1192.54 54.1164 1187.28 35.2711C1181.21 13.5833 1166.01 -4.77063 1154.29 -16.3515C1139.66 -30.8101 1122.11 -43.0577 1106.14 -49.901C1086.28 -58.3936 1057.71 -57.5163 1029.67 -47.5497C1016.2 -42.7419 1003.6 -36.0741 993.177 -28.178C981.947 -19.6854 973.629 -10.175 968.401 0.107386C962.996 10.7758 960.154 22.6024 959.978 35.3062C959.838 47.2731 962.013 59.4155 966.47 71.3824C975.454 95.4215 992.475 115.32 1013.11 126.023C1026.3 132.831 1043.47 136.341 1062.35 136.341C1075.01 136.306 1088.39 134.726 1101.83 131.568ZM1013.81 124.725C970.225 102.159 948.748 41.8687 969.699 0.703981C979.56 -18.7379 1002.2 -36.2847 1030.17 -46.2512C1045.26 -51.6205 1060.49 -54.3228 1074.42 -54.3228C1086.03 -54.3228 1096.74 -52.4277 1105.62 -48.6376C1137.34 -35.0564 1176.05 0.177578 1185.95 35.6221C1191.07 54.0111 1188.33 70.8209 1177.8 85.5602C1163.42 105.634 1134.88 122.338 1101.51 130.199C1068.31 138.025 1035.53 135.99 1013.81 124.725Z" fill="#ECEFF8"/>
<path d="M1171.42 56.3973C1173.21 38.5698 1167.03 20.9177 1153.55 5.37126C1134.67 -16.4569 1103.09 -31.9683 1074.98 -33.2317C1059.78 -34.1441 1044.1 -31.5121 1029.67 -25.5111C1015.08 -19.475 1002.76 -10.4559 994.054 0.528354C987.562 8.74025 983.245 17.7944 981.245 27.4451C979.104 37.8679 979.701 48.782 983.035 59.8716C989.597 81.6296 1003.53 98.8254 1023.36 109.529C1037.11 116.934 1053.01 120.794 1069.44 120.794C1075.23 120.794 1081.05 120.303 1086.88 119.355C1098.63 117.425 1121.16 112.442 1140.22 100.756C1159.17 89.1747 1169.66 74.2599 1171.42 56.3973ZM1086.7 117.951C1080.7 118.934 1074.8 119.425 1069.01 119.425C1029.04 119.425 995.493 96.404 984.403 59.4856C976.402 32.8495 985.842 13.1971 995.177 1.44078C1011.53 -19.2293 1039.99 -31.9683 1068.98 -31.9683C1070.98 -31.9683 1072.94 -31.8981 1074.94 -31.7928C1102.7 -30.5295 1133.9 -15.1936 1152.54 6.35388C1165.73 21.6196 1171.8 38.8856 1170.05 56.3271C1165.52 101.493 1105.13 114.898 1086.7 117.951Z" fill="#ECEFF8"/>
</g>
</svg>
