<svg xmlns="http://www.w3.org/2000/svg" width="169" height="138" viewBox="0 0 169 138" fill="none"><g opacity="0.2"><path d="M4.76422 128.484C2.12225 128.484 0 130.625 0 133.242C0 135.881 2.1439 138 4.76422 138C7.4062 138 9.52845 135.859 9.52845 133.242C9.52845 130.604 7.4062 128.484 4.76422 128.484Z" fill="#175CFF"></path><path d="M36.6629 128.484C34.0209 128.484 31.8987 130.625 31.8987 133.242C31.8987 135.881 34.0426 138 36.6629 138C39.3049 138 41.4271 135.859 41.4271 133.242C41.4271 130.604 39.3049 128.484 36.6629 128.484Z" fill="#175CFF"></path><path d="M68.5615 128.484C65.9195 128.484 63.7972 130.625 63.7972 133.242C63.7972 135.881 65.9411 138 68.5615 138C71.1818 138 73.3257 135.859 73.3257 133.242C73.3257 130.604 71.1818 128.484 68.5615 128.484Z" fill="#175CFF"></path><path d="M100.439 128.484C97.7966 128.484 95.6743 130.625 95.6743 133.242C95.6743 135.881 97.8182 138 100.439 138C103.081 138 105.203 135.859 105.203 133.242C105.224 130.604 103.081 128.484 100.439 128.484Z" fill="#175CFF"></path><path d="M132.337 128.484C129.695 128.484 127.573 130.625 127.573 133.242C127.573 135.881 129.717 138 132.337 138C134.979 138 137.101 135.859 137.101 133.242C137.101 130.604 134.979 128.484 132.337 128.484Z" fill="#175CFF"></path><path d="M164.236 128.484C161.594 128.484 159.472 130.625 159.472 133.242C159.472 135.881 161.615 138 164.236 138C166.878 138 169 135.859 169 133.242C169 130.604 166.856 128.484 164.236 128.484Z" fill="#175CFF"></path><path d="M4.76422 102.792C2.12225 102.792 0 104.933 0 107.55C0 110.166 2.1439 112.307 4.76422 112.307C7.4062 112.307 9.52845 110.166 9.52845 107.55C9.52845 104.933 7.4062 102.792 4.76422 102.792Z" fill="#175CFF"></path><path d="M36.6628 112.307C39.2941 112.307 41.4271 110.177 41.4271 107.55C41.4271 104.922 39.2941 102.792 36.6628 102.792C34.0316 102.792 31.8986 104.922 31.8986 107.55C31.8986 110.177 34.0316 112.307 36.6628 112.307Z" fill="#175CFF"></path><path d="M68.5615 112.307C71.1927 112.307 73.3258 110.177 73.3258 107.55C73.3258 104.922 71.1927 102.792 68.5615 102.792C65.9303 102.792 63.7973 104.922 63.7973 107.55C63.7973 110.177 65.9303 112.307 68.5615 112.307Z" fill="#175CFF"></path><path d="M100.438 112.307C103.07 112.307 105.203 110.177 105.203 107.55C105.203 104.922 103.07 102.792 100.438 102.792C97.8073 102.792 95.6743 104.922 95.6743 107.55C95.6743 110.177 97.8073 112.307 100.438 112.307Z" fill="#175CFF"></path><path d="M132.337 102.792C129.695 102.792 127.573 104.933 127.573 107.55C127.573 110.166 129.717 112.307 132.337 112.307C134.979 112.307 137.101 110.166 137.101 107.55C137.101 104.933 134.979 102.792 132.337 102.792Z" fill="#175CFF"></path><path d="M164.236 102.792C161.594 102.792 159.472 104.933 159.472 107.55C159.472 110.166 161.615 112.307 164.236 112.307C166.878 112.307 169 110.166 169 107.55C169 104.933 166.856 102.792 164.236 102.792Z" fill="#175CFF"></path><path d="M4.76422 77.0992C2.12225 77.0992 0 79.2403 0 81.8571C0 84.4956 2.1439 86.615 4.76422 86.615C7.4062 86.615 9.52845 84.4739 9.52845 81.8571C9.52845 79.2187 7.4062 77.0992 4.76422 77.0992Z" fill="#175CFF"></path><path d="M36.6628 86.615C39.2941 86.615 41.4271 84.4848 41.4271 81.8571C41.4271 79.2294 39.2941 77.0992 36.6628 77.0992C34.0316 77.0992 31.8986 79.2294 31.8986 81.8571C31.8986 84.4848 34.0316 86.615 36.6628 86.615Z" fill="#175CFF"></path><path d="M68.5615 86.615C71.1927 86.615 73.3258 84.4848 73.3258 81.8571C73.3258 79.2294 71.1927 77.0992 68.5615 77.0992C65.9303 77.0992 63.7973 79.2294 63.7973 81.8571C63.7973 84.4848 65.9303 86.615 68.5615 86.615Z" fill="#175CFF"></path><path d="M100.438 86.615C103.07 86.615 105.203 84.4848 105.203 81.8571C105.203 79.2294 103.07 77.0992 100.438 77.0992C97.8073 77.0992 95.6743 79.2294 95.6743 81.8571C95.6743 84.4848 97.8073 86.615 100.438 86.615Z" fill="#175CFF"></path><path d="M132.337 77.0992C129.695 77.0992 127.573 79.2403 127.573 81.8571C127.573 84.4956 129.717 86.615 132.337 86.615C134.979 86.615 137.101 84.4739 137.101 81.8571C137.101 79.2187 134.979 77.0992 132.337 77.0992Z" fill="#175CFF"></path><path d="M164.236 77.0992C161.594 77.0992 159.472 79.2403 159.472 81.8571C159.472 84.4956 161.615 86.615 164.236 86.615C166.878 86.615 169 84.4739 169 81.8571C169 79.2187 166.856 77.0992 164.236 77.0992Z" fill="#175CFF"></path><path d="M4.76422 51.385C2.12225 51.385 0 53.5261 0 56.1429C0 58.7813 2.1439 60.9008 4.76422 60.9008C7.4062 60.9008 9.52845 58.7597 9.52845 56.1429C9.52845 53.5261 7.4062 51.385 4.76422 51.385Z" fill="#175CFF"></path><path d="M36.6628 51.385C34.0209 51.385 31.8986 53.5261 31.8986 56.1429C31.8986 58.7813 34.0425 60.9008 36.6628 60.9008C39.3048 60.9008 41.4271 58.7597 41.4271 56.1429C41.4271 53.5261 39.3048 51.385 36.6628 51.385Z" fill="#175CFF"></path><path d="M68.5615 51.385C65.9195 51.385 63.7973 53.5261 63.7973 56.1429C63.7973 58.7813 65.9412 60.9008 68.5615 60.9008C71.1818 60.9008 73.3258 58.7597 73.3258 56.1429C73.3258 53.5261 71.1818 51.385 68.5615 51.385Z" fill="#175CFF"></path><path d="M100.438 51.385C97.7965 51.385 95.6743 53.5261 95.6743 56.1429C95.6743 58.7813 97.8182 60.9008 100.438 60.9008C103.08 60.9008 105.203 58.7597 105.203 56.1429C105.224 53.5261 103.08 51.385 100.438 51.385Z" fill="#175CFF"></path><path d="M132.337 51.385C129.695 51.385 127.573 53.5261 127.573 56.1429C127.573 58.7813 129.717 60.9008 132.337 60.9008C134.979 60.9008 137.101 58.7597 137.101 56.1429C137.101 53.5261 134.979 51.385 132.337 51.385Z" fill="#175CFF"></path><path d="M164.236 51.385C161.594 51.385 159.472 53.5261 159.472 56.1429C159.472 58.7813 161.615 60.9008 164.236 60.9008C166.878 60.9008 169 58.7597 169 56.1429C169 53.5261 166.856 51.385 164.236 51.385Z" fill="#175CFF"></path><path d="M4.76422 25.6926C2.12225 25.6926 0 27.8337 0 30.4505C0 33.0673 2.1439 35.2084 4.76422 35.2084C7.4062 35.2084 9.52845 33.0673 9.52845 30.4505C9.52845 27.8337 7.4062 25.6926 4.76422 25.6926Z" fill="#175CFF"></path><path d="M36.6629 35.2084C39.2941 35.2084 41.4271 33.0782 41.4271 30.4505C41.4271 27.8228 39.2941 25.6926 36.6629 25.6926C34.0317 25.6926 31.8987 27.8228 31.8987 30.4505C31.8987 33.0782 34.0317 35.2084 36.6629 35.2084Z" fill="#175CFF"></path><path d="M68.5615 35.2084C71.1927 35.2084 73.3257 33.0782 73.3257 30.4505C73.3257 27.8228 71.1927 25.6926 68.5615 25.6926C65.9303 25.6926 63.7972 27.8228 63.7972 30.4505C63.7972 33.0782 65.9303 35.2084 68.5615 35.2084Z" fill="#175CFF"></path><path d="M100.439 35.2084C103.07 35.2084 105.203 33.0782 105.203 30.4505C105.203 27.8228 103.07 25.6926 100.439 25.6926C97.8073 25.6926 95.6743 27.8228 95.6743 30.4505C95.6743 33.0782 97.8073 35.2084 100.439 35.2084Z" fill="#175CFF"></path><path d="M132.337 25.6926C129.695 25.6926 127.573 27.8337 127.573 30.4505C127.573 33.0673 129.717 35.2084 132.337 35.2084C134.979 35.2084 137.101 33.0673 137.101 30.4505C137.101 27.8337 134.979 25.6926 132.337 25.6926Z" fill="#175CFF"></path><path d="M164.236 25.6926C161.594 25.6926 159.472 27.8337 159.472 30.4505C159.472 33.0673 161.615 35.2084 164.236 35.2084C166.878 35.2084 169 33.0673 169 30.4505C169 27.8337 166.856 25.6926 164.236 25.6926Z" fill="#175CFF"></path><path d="M4.76422 0C2.1439 0 0 2.14104 0 4.75787C0 7.39633 2.1439 9.51575 4.76422 9.51575C7.4062 9.51575 9.52845 7.37471 9.52845 4.75787C9.52845 2.14104 7.4062 0 4.76422 0Z" fill="#175CFF"></path><path d="M36.6628 9.51575C39.2941 9.51575 41.4271 7.38558 41.4271 4.75787C41.4271 2.13017 39.2941 0 36.6628 0C34.0316 0 31.8986 2.13017 31.8986 4.75787C31.8986 7.38558 34.0316 9.51575 36.6628 9.51575Z" fill="#175CFF"></path><path d="M68.5615 9.51575C71.1927 9.51575 73.3258 7.38558 73.3258 4.75787C73.3258 2.13017 71.1927 0 68.5615 0C65.9303 0 63.7973 2.13017 63.7973 4.75787C63.7973 7.38558 65.9303 9.51575 68.5615 9.51575Z" fill="#175CFF"></path><path d="M100.438 9.51575C103.07 9.51575 105.203 7.38558 105.203 4.75787C105.203 2.13017 103.07 0 100.438 0C97.8073 0 95.6743 2.13017 95.6743 4.75787C95.6743 7.38558 97.8073 9.51575 100.438 9.51575Z" fill="#175CFF"></path><path d="M132.337 0C129.695 0 127.573 2.14104 127.573 4.75787C127.573 7.39633 129.717 9.51575 132.337 9.51575C134.979 9.51575 137.101 7.37471 137.101 4.75787C137.101 2.14104 134.979 0 132.337 0Z" fill="#175CFF"></path><path d="M164.236 0C161.594 0 159.472 2.14104 159.472 4.75787C159.472 7.39633 161.615 9.51575 164.236 9.51575C166.878 9.51575 169 7.37471 169 4.75787C169 2.14104 166.856 0 164.236 0Z" fill="#175CFF"></path></g></svg>