<svg xmlns="http://www.w3.org/2000/svg" viewBox="0 0 865.35 506.56"><defs><style>.cls-1{fill:#c0c6d9}</style></defs><g id="Layer_2" data-name="Layer 2"><g id="Layer_1-2" data-name="Layer 1"><path class="cls-1" d="M85.84 212.35a2.4 2.4 0 1 0 2.47 2.4 2.43 2.43 0 0 0-2.47-2.4zm0 26.57a2.4 2.4 0 1 0 2.47 2.39 2.42 2.42 0 0 0-2.47-2.39z"/><ellipse class="cls-1" cx="58.12" cy="214.75" rx="2.47" ry="2.39"/><ellipse class="cls-1" cx="58.12" cy="241.31" rx="2.47" ry="2.39"/><path class="cls-1" d="M30.4 212.35a2.4 2.4 0 1 0 2.47 2.4 2.43 2.43 0 0 0-2.47-2.4zm0 26.57a2.4 2.4 0 1 0 2.47 2.39 2.42 2.42 0 0 0-2.47-2.39zM2.68 212.35a2.4 2.4 0 1 0 0 4.79 2.4 2.4 0 1 0 0-4.79zm0 26.57a2.4 2.4 0 1 0 0 4.79 2.4 2.4 0 1 0 0-4.79zm193.77-26.57a2.4 2.4 0 1 0 2.47 2.4 2.43 2.43 0 0 0-2.47-2.4zm0 26.57a2.4 2.4 0 1 0 2.47 2.39 2.42 2.42 0 0 0-2.47-2.39z"/><ellipse class="cls-1" cx="168.73" cy="214.75" rx="2.47" ry="2.39"/><ellipse class="cls-1" cx="168.73" cy="241.31" rx="2.47" ry="2.39"/><path class="cls-1" d="M143 212.35a2.4 2.4 0 1 0 2.47 2.4 2.43 2.43 0 0 0-2.47-2.4zm0 26.57a2.4 2.4 0 1 0 2.47 2.39 2.42 2.42 0 0 0-2.47-2.39zm-29.71-26.57a2.4 2.4 0 1 0 2.47 2.4 2.43 2.43 0 0 0-2.47-2.4zm0 26.57a2.4 2.4 0 1 0 2.47 2.39 2.42 2.42 0 0 0-2.47-2.39zM85.63 4.79a2.43 2.43 0 0 0 2.46-2.4 2.47 2.47 0 0 0-4.93 0 2.44 2.44 0 0 0 2.47 2.4zm0 27.57A2.4 2.4 0 1 0 83.16 30a2.43 2.43 0 0 0 2.47 2.36zm0 26.56a2.39 2.39 0 1 0-2.47-2.39 2.42 2.42 0 0 0 2.47 2.39zm0 26.57a2.4 2.4 0 1 0-2.47-2.39 2.42 2.42 0 0 0 2.47 2.39zm0 26.57a2.4 2.4 0 1 0-2.47-2.39 2.43 2.43 0 0 0 2.47 2.39zm0 26.57a2.4 2.4 0 1 0-2.47-2.4 2.43 2.43 0 0 0 2.47 2.4zm0 26.56a2.39 2.39 0 1 0-2.47-2.39 2.42 2.42 0 0 0 2.47 2.39zm0 26.57a2.4 2.4 0 1 0-2.47-2.39 2.42 2.42 0 0 0 2.47 2.39zM57.91 4.79a2.43 2.43 0 0 0 2.46-2.4 2.47 2.47 0 0 0-4.93 0 2.44 2.44 0 0 0 2.47 2.4z"/><ellipse class="cls-1" cx="57.91" cy="29.96" rx="2.47" ry="2.39"/><ellipse class="cls-1" cx="57.91" cy="56.53" rx="2.47" ry="2.39"/><path class="cls-1" d="M57.91 85.49a2.4 2.4 0 1 0-2.47-2.39 2.42 2.42 0 0 0 2.47 2.39z"/><ellipse class="cls-1" cx="57.91" cy="109.67" rx="2.47" ry="2.39"/><ellipse class="cls-1" cx="57.91" cy="136.23" rx="2.47" ry="2.39"/><ellipse class="cls-1" cx="57.91" cy="162.8" rx="2.47" ry="2.39"/><path class="cls-1" d="M57.91 191.76a2.4 2.4 0 1 0-2.47-2.39 2.42 2.42 0 0 0 2.47 2.39zM30.19 4.79a2.43 2.43 0 0 0 2.46-2.4 2.47 2.47 0 0 0-4.93 0 2.44 2.44 0 0 0 2.47 2.4zm0 27.57A2.4 2.4 0 1 0 27.72 30a2.43 2.43 0 0 0 2.47 2.36zm0 26.56a2.39 2.39 0 1 0-2.47-2.39 2.42 2.42 0 0 0 2.47 2.39zm0 26.57a2.4 2.4 0 1 0-2.47-2.39 2.42 2.42 0 0 0 2.47 2.39zm0 26.57a2.4 2.4 0 1 0-2.47-2.39 2.43 2.43 0 0 0 2.47 2.39zm0 26.57a2.4 2.4 0 1 0-2.47-2.4 2.43 2.43 0 0 0 2.47 2.4zm0 26.56a2.39 2.39 0 1 0-2.47-2.39 2.42 2.42 0 0 0 2.47 2.39zm0 26.57a2.4 2.4 0 1 0-2.47-2.39 2.42 2.42 0 0 0 2.47 2.39zM2.47 4.79a2.43 2.43 0 0 0 2.46-2.4A2.42 2.42 0 0 0 2.47 0 2.43 2.43 0 0 0 0 2.39a2.44 2.44 0 0 0 2.47 2.4zm0 27.57a2.4 2.4 0 1 0 0-4.79 2.4 2.4 0 1 0 0 4.79zm0 26.56a2.39 2.39 0 1 0 0-4.78 2.39 2.39 0 1 0 0 4.78zm0 26.57a2.4 2.4 0 1 0 0-4.79 2.4 2.4 0 1 0 0 4.79zm0 26.57a2.4 2.4 0 1 0 0-4.79 2.4 2.4 0 1 0 0 4.79zm0 26.57a2.4 2.4 0 1 0 0-4.79 2.4 2.4 0 1 0 0 4.79zm0 26.56a2.39 2.39 0 1 0 0-4.78 2.39 2.39 0 1 0 0 4.78zm0 26.57a2.4 2.4 0 1 0 0-4.79 2.4 2.4 0 1 0 0 4.79zM196.24 4.79a2.43 2.43 0 0 0 2.46-2.4 2.47 2.47 0 0 0-4.93 0 2.44 2.44 0 0 0 2.47 2.4zm0 27.57a2.4 2.4 0 1 0-2.47-2.4 2.43 2.43 0 0 0 2.47 2.4zm0 26.56a2.39 2.39 0 1 0-2.47-2.39 2.42 2.42 0 0 0 2.47 2.39zm0 26.57a2.4 2.4 0 1 0-2.47-2.39 2.42 2.42 0 0 0 2.47 2.39zm0 26.57a2.4 2.4 0 1 0-2.47-2.39 2.43 2.43 0 0 0 2.47 2.39zm0 26.57a2.4 2.4 0 1 0-2.47-2.4 2.43 2.43 0 0 0 2.47 2.4zm0 26.56a2.39 2.39 0 1 0-2.47-2.39 2.42 2.42 0 0 0 2.47 2.39zm0 26.57a2.4 2.4 0 1 0-2.47-2.39 2.42 2.42 0 0 0 2.47 2.39zM168.52 4.79a2.43 2.43 0 0 0 2.48-2.4 2.47 2.47 0 0 0-4.93 0 2.44 2.44 0 0 0 2.45 2.4zm0 27.57a2.4 2.4 0 1 0-2.47-2.4 2.43 2.43 0 0 0 2.47 2.4zm0 26.56a2.39 2.39 0 1 0-2.47-2.39 2.42 2.42 0 0 0 2.47 2.39zm0 26.57a2.4 2.4 0 1 0-2.47-2.39 2.42 2.42 0 0 0 2.47 2.39zm0 26.57a2.4 2.4 0 1 0-2.47-2.39 2.43 2.43 0 0 0 2.47 2.39zm0 26.57a2.4 2.4 0 1 0-2.47-2.4 2.43 2.43 0 0 0 2.47 2.4zm0 26.56a2.39 2.39 0 1 0-2.47-2.39 2.42 2.42 0 0 0 2.47 2.39zm0 26.57a2.4 2.4 0 1 0-2.47-2.39 2.42 2.42 0 0 0 2.47 2.39zM142.8 4.79a2.43 2.43 0 0 0 2.46-2.4 2.47 2.47 0 0 0-4.93 0 2.44 2.44 0 0 0 2.47 2.4z"/><ellipse class="cls-1" cx="142.8" cy="29.96" rx="2.47" ry="2.39"/><ellipse class="cls-1" cx="142.8" cy="56.53" rx="2.47" ry="2.39"/><path class="cls-1" d="M142.8 85.49a2.4 2.4 0 1 0-2.47-2.39 2.42 2.42 0 0 0 2.47 2.39z"/><ellipse class="cls-1" cx="142.8" cy="109.67" rx="2.47" ry="2.39"/><ellipse class="cls-1" cx="142.8" cy="136.23" rx="2.47" ry="2.39"/><ellipse class="cls-1" cx="142.8" cy="162.8" rx="2.47" ry="2.39"/><path class="cls-1" d="M142.8 191.76a2.4 2.4 0 1 0-2.47-2.39 2.42 2.42 0 0 0 2.47 2.39zM113.08 4.79a2.43 2.43 0 0 0 2.46-2.4 2.47 2.47 0 0 0-4.93 0 2.44 2.44 0 0 0 2.47 2.4zm0 27.57a2.4 2.4 0 1 0-2.47-2.4 2.43 2.43 0 0 0 2.47 2.4zm0 26.56a2.39 2.39 0 1 0-2.47-2.39 2.42 2.42 0 0 0 2.47 2.39zm0 26.57a2.4 2.4 0 1 0-2.47-2.39 2.42 2.42 0 0 0 2.47 2.39zm0 26.57a2.4 2.4 0 1 0-2.47-2.39 2.43 2.43 0 0 0 2.47 2.39zm0 26.57a2.4 2.4 0 1 0-2.47-2.4 2.43 2.43 0 0 0 2.47 2.4zm0 26.56a2.39 2.39 0 1 0-2.47-2.39 2.42 2.42 0 0 0 2.47 2.39zm0 26.57a2.4 2.4 0 1 0-2.47-2.39 2.42 2.42 0 0 0 2.47 2.39zm194.37 20.59a2.4 2.4 0 1 0 2.47 2.4 2.43 2.43 0 0 0-2.47-2.4zm0 26.57a2.4 2.4 0 1 0 2.47 2.39 2.42 2.42 0 0 0-2.47-2.39zm-27.72-26.57a2.4 2.4 0 1 0 2.47 2.4 2.43 2.43 0 0 0-2.47-2.4zm0 26.57a2.4 2.4 0 1 0 2.47 2.39 2.42 2.42 0 0 0-2.47-2.39zM252 212.35a2.4 2.4 0 1 0 2.47 2.4 2.43 2.43 0 0 0-2.47-2.4zm0 26.57a2.4 2.4 0 1 0 2.47 2.39 2.42 2.42 0 0 0-2.47-2.39zm-27.71-26.57a2.4 2.4 0 1 0 2.47 2.4 2.43 2.43 0 0 0-2.47-2.4zm0 26.57a2.4 2.4 0 1 0 2.47 2.39 2.42 2.42 0 0 0-2.47-2.39zm193.77-26.57a2.4 2.4 0 1 0 2.47 2.4 2.43 2.43 0 0 0-2.47-2.4zm0 26.57a2.4 2.4 0 1 0 2.47 2.39 2.42 2.42 0 0 0-2.47-2.39z"/><ellipse class="cls-1" cx="390.34" cy="214.75" rx="2.47" ry="2.39"/><ellipse class="cls-1" cx="390.34" cy="241.31" rx="2.47" ry="2.39"/><path class="cls-1" d="M364.62 212.35a2.4 2.4 0 1 0 2.47 2.4 2.43 2.43 0 0 0-2.47-2.4zm0 26.57a2.4 2.4 0 1 0 2.47 2.39 2.42 2.42 0 0 0-2.47-2.39zm-29.72-26.57a2.4 2.4 0 1 0 2.47 2.4 2.43 2.43 0 0 0-2.47-2.4zm0 26.57a2.4 2.4 0 1 0 2.47 2.39 2.42 2.42 0 0 0-2.47-2.39zM307.24 4.79a2.43 2.43 0 0 0 2.46-2.4 2.47 2.47 0 0 0-4.93 0 2.44 2.44 0 0 0 2.47 2.4zm0 27.57a2.4 2.4 0 1 0-2.47-2.4 2.43 2.43 0 0 0 2.47 2.4zm0 26.56a2.39 2.39 0 1 0-2.47-2.39 2.42 2.42 0 0 0 2.47 2.39zm0 26.57a2.4 2.4 0 1 0-2.47-2.39 2.42 2.42 0 0 0 2.47 2.39zm0 26.57a2.4 2.4 0 1 0-2.47-2.39 2.43 2.43 0 0 0 2.47 2.39zm0 26.57a2.4 2.4 0 1 0-2.47-2.4 2.43 2.43 0 0 0 2.47 2.4zm0 26.56a2.39 2.39 0 1 0-2.47-2.39 2.42 2.42 0 0 0 2.47 2.39zm0 26.57a2.4 2.4 0 1 0-2.47-2.39 2.42 2.42 0 0 0 2.47 2.39zM279.52 4.79a2.43 2.43 0 0 0 2.48-2.4 2.47 2.47 0 0 0-4.93 0 2.44 2.44 0 0 0 2.45 2.4z"/><ellipse class="cls-1" cx="279.52" cy="29.96" rx="2.47" ry="2.39"/><ellipse class="cls-1" cx="279.52" cy="56.53" rx="2.47" ry="2.39"/><path class="cls-1" d="M279.52 85.49a2.4 2.4 0 1 0-2.47-2.39 2.42 2.42 0 0 0 2.47 2.39z"/><ellipse class="cls-1" cx="279.52" cy="109.67" rx="2.47" ry="2.39"/><ellipse class="cls-1" cx="279.52" cy="136.23" rx="2.47" ry="2.39"/><ellipse class="cls-1" cx="279.52" cy="162.8" rx="2.47" ry="2.39"/><path class="cls-1" d="M279.52 191.76a2.4 2.4 0 1 0-2.47-2.39 2.42 2.42 0 0 0 2.47 2.39zM251.8 4.79a2.43 2.43 0 0 0 2.46-2.4 2.47 2.47 0 0 0-4.93 0 2.44 2.44 0 0 0 2.47 2.4zm0 27.57a2.4 2.4 0 1 0-2.47-2.4 2.43 2.43 0 0 0 2.47 2.4zm0 26.56a2.39 2.39 0 1 0-2.47-2.39 2.42 2.42 0 0 0 2.47 2.39zm0 26.57a2.4 2.4 0 1 0-2.47-2.39 2.42 2.42 0 0 0 2.47 2.39zm0 26.57a2.4 2.4 0 1 0-2.47-2.39 2.43 2.43 0 0 0 2.47 2.39zm0 26.57a2.4 2.4 0 1 0-2.47-2.4 2.43 2.43 0 0 0 2.47 2.4zm0 26.56a2.39 2.39 0 1 0-2.47-2.39 2.42 2.42 0 0 0 2.47 2.39zm0 26.57a2.4 2.4 0 1 0-2.47-2.39 2.42 2.42 0 0 0 2.47 2.39zM224.08 4.79a2.43 2.43 0 0 0 2.46-2.4 2.47 2.47 0 0 0-4.93 0 2.44 2.44 0 0 0 2.47 2.4z"/><ellipse class="cls-1" cx="224.08" cy="29.96" rx="2.47" ry="2.39"/><ellipse class="cls-1" cx="224.08" cy="56.53" rx="2.47" ry="2.39"/><path class="cls-1" d="M224.08 85.49a2.4 2.4 0 1 0-2.47-2.39 2.42 2.42 0 0 0 2.47 2.39z"/><ellipse class="cls-1" cx="224.08" cy="109.67" rx="2.47" ry="2.39"/><ellipse class="cls-1" cx="224.08" cy="136.23" rx="2.47" ry="2.39"/><ellipse class="cls-1" cx="224.08" cy="162.8" rx="2.47" ry="2.39"/><path class="cls-1" d="M224.08 191.76a2.4 2.4 0 1 0-2.47-2.39 2.42 2.42 0 0 0 2.47 2.39zM417.85 4.79a2.43 2.43 0 0 0 2.46-2.4 2.47 2.47 0 0 0-4.93 0 2.44 2.44 0 0 0 2.47 2.4zm0 27.57a2.4 2.4 0 1 0-2.47-2.4 2.43 2.43 0 0 0 2.47 2.4zm0 26.56a2.39 2.39 0 1 0-2.47-2.39 2.42 2.42 0 0 0 2.47 2.39zm0 26.57a2.4 2.4 0 1 0-2.47-2.39 2.42 2.42 0 0 0 2.47 2.39zm0 26.57a2.4 2.4 0 1 0-2.47-2.39 2.43 2.43 0 0 0 2.47 2.39zm0 26.57a2.4 2.4 0 1 0-2.47-2.4 2.43 2.43 0 0 0 2.47 2.4zm0 26.56a2.39 2.39 0 1 0-2.47-2.39 2.42 2.42 0 0 0 2.47 2.39zm0 26.57a2.4 2.4 0 1 0-2.47-2.39 2.42 2.42 0 0 0 2.47 2.39zM390.13 4.79a2.43 2.43 0 0 0 2.46-2.4 2.47 2.47 0 0 0-4.93 0 2.44 2.44 0 0 0 2.47 2.4zm0 27.57a2.4 2.4 0 1 0-2.47-2.4 2.43 2.43 0 0 0 2.47 2.4zm0 26.56a2.39 2.39 0 1 0-2.47-2.39 2.42 2.42 0 0 0 2.47 2.39zm0 26.57a2.4 2.4 0 1 0-2.47-2.39 2.42 2.42 0 0 0 2.47 2.39zm0 26.57a2.4 2.4 0 1 0-2.47-2.39 2.43 2.43 0 0 0 2.47 2.39zm0 26.57a2.4 2.4 0 1 0-2.47-2.4 2.43 2.43 0 0 0 2.47 2.4zm0 26.56a2.39 2.39 0 1 0-2.47-2.39 2.42 2.42 0 0 0 2.47 2.39zm0 26.57a2.4 2.4 0 1 0-2.47-2.39 2.42 2.42 0 0 0 2.47 2.39zM364.41 4.79a2.43 2.43 0 0 0 2.46-2.4 2.47 2.47 0 0 0-4.93 0 2.44 2.44 0 0 0 2.47 2.4zm0 27.57a2.4 2.4 0 1 0-2.47-2.4 2.43 2.43 0 0 0 2.47 2.4zm0 26.56a2.39 2.39 0 1 0-2.47-2.39 2.42 2.42 0 0 0 2.47 2.39zm0 26.57a2.4 2.4 0 1 0-2.47-2.39 2.42 2.42 0 0 0 2.47 2.39zm0 26.57a2.4 2.4 0 1 0-2.47-2.39 2.43 2.43 0 0 0 2.47 2.39zm0 26.57a2.4 2.4 0 1 0-2.47-2.4 2.43 2.43 0 0 0 2.47 2.4zm0 26.56a2.39 2.39 0 1 0-2.47-2.39 2.42 2.42 0 0 0 2.47 2.39zm0 26.57a2.4 2.4 0 1 0-2.47-2.39 2.42 2.42 0 0 0 2.47 2.39zM334.69 4.79a2.43 2.43 0 0 0 2.46-2.4 2.47 2.47 0 0 0-4.93 0 2.44 2.44 0 0 0 2.47 2.4zm0 27.57a2.4 2.4 0 1 0-2.47-2.4 2.43 2.43 0 0 0 2.47 2.4zm0 26.56a2.39 2.39 0 1 0-2.47-2.39 2.42 2.42 0 0 0 2.47 2.39zm0 26.57a2.4 2.4 0 1 0-2.47-2.39 2.42 2.42 0 0 0 2.47 2.39zm0 26.57a2.4 2.4 0 1 0-2.47-2.39 2.43 2.43 0 0 0 2.47 2.39zm0 26.57a2.4 2.4 0 1 0-2.47-2.4 2.43 2.43 0 0 0 2.47 2.4zm0 26.56a2.39 2.39 0 1 0-2.47-2.39 2.42 2.42 0 0 0 2.47 2.39zm0 26.57a2.4 2.4 0 1 0-2.47-2.39 2.42 2.42 0 0 0 2.47 2.39zM85.84 475.2a2.4 2.4 0 1 0 2.47 2.39 2.43 2.43 0 0 0-2.47-2.39zm0 26.57a2.4 2.4 0 1 0 2.47 2.39 2.42 2.42 0 0 0-2.47-2.39z"/><ellipse class="cls-1" cx="58.12" cy="477.59" rx="2.47" ry="2.39"/><ellipse class="cls-1" cx="58.12" cy="504.16" rx="2.47" ry="2.39"/><path class="cls-1" d="M30.4 475.2a2.4 2.4 0 1 0 2.47 2.39 2.43 2.43 0 0 0-2.47-2.39zm0 26.57a2.4 2.4 0 1 0 2.47 2.39 2.42 2.42 0 0 0-2.47-2.39zM2.68 475.2a2.4 2.4 0 1 0 0 4.79 2.4 2.4 0 1 0 0-4.79zm0 26.57a2.4 2.4 0 1 0 0 4.79 2.4 2.4 0 1 0 0-4.79zm193.77-26.57a2.4 2.4 0 1 0 2.47 2.39 2.43 2.43 0 0 0-2.47-2.39zm0 26.57a2.4 2.4 0 1 0 2.47 2.39 2.42 2.42 0 0 0-2.47-2.39z"/><ellipse class="cls-1" cx="168.73" cy="477.59" rx="2.47" ry="2.39"/><ellipse class="cls-1" cx="168.73" cy="504.16" rx="2.47" ry="2.39"/><path class="cls-1" d="M143 475.2a2.4 2.4 0 1 0 2.47 2.39 2.43 2.43 0 0 0-2.47-2.39zm0 26.57a2.4 2.4 0 1 0 2.47 2.39 2.42 2.42 0 0 0-2.47-2.39zm-29.71-26.57a2.4 2.4 0 1 0 2.47 2.39 2.43 2.43 0 0 0-2.47-2.39zm0 26.57a2.4 2.4 0 1 0 2.47 2.39 2.42 2.42 0 0 0-2.47-2.39zM85.63 267.64a2.4 2.4 0 1 0-2.47-2.4 2.43 2.43 0 0 0 2.47 2.4zm0 27.57a2.4 2.4 0 1 0-2.47-2.4 2.43 2.43 0 0 0 2.47 2.4zm0 26.56a2.39 2.39 0 1 0-2.47-2.39 2.42 2.42 0 0 0 2.47 2.39zm0 26.57a2.4 2.4 0 1 0-2.47-2.34 2.42 2.42 0 0 0 2.47 2.34zm0 26.57a2.4 2.4 0 1 0-2.47-2.4 2.43 2.43 0 0 0 2.47 2.4zm0 26.57a2.4 2.4 0 1 0-2.47-2.4 2.43 2.43 0 0 0 2.47 2.4zm0 26.52a2.39 2.39 0 1 0-2.47-2.39 2.42 2.42 0 0 0 2.47 2.39zm0 26.61a2.4 2.4 0 1 0-2.47-2.39 2.42 2.42 0 0 0 2.47 2.39zM57.91 267.64a2.4 2.4 0 1 0-2.47-2.4 2.43 2.43 0 0 0 2.47 2.4z"/><ellipse class="cls-1" cx="57.91" cy="292.81" rx="2.47" ry="2.39"/><ellipse class="cls-1" cx="57.91" cy="319.38" rx="2.47" ry="2.39"/><path class="cls-1" d="M57.91 348.34a2.4 2.4 0 1 0-2.47-2.34 2.42 2.42 0 0 0 2.47 2.34z"/><ellipse class="cls-1" cx="57.91" cy="372.51" rx="2.47" ry="2.39"/><ellipse class="cls-1" cx="57.91" cy="399.08" rx="2.47" ry="2.39"/><ellipse class="cls-1" cx="57.91" cy="425.65" rx="2.47" ry="2.39"/><path class="cls-1" d="M57.91 454.61a2.4 2.4 0 1 0-2.47-2.39 2.42 2.42 0 0 0 2.47 2.39zM30.19 267.64a2.4 2.4 0 1 0-2.47-2.4 2.43 2.43 0 0 0 2.47 2.4zm0 27.57a2.4 2.4 0 1 0-2.47-2.4 2.43 2.43 0 0 0 2.47 2.4zm0 26.56a2.39 2.39 0 1 0-2.47-2.39 2.42 2.42 0 0 0 2.47 2.39zm0 26.57a2.4 2.4 0 1 0-2.47-2.34 2.42 2.42 0 0 0 2.47 2.34zm0 26.57a2.4 2.4 0 1 0-2.47-2.4 2.43 2.43 0 0 0 2.47 2.4zm0 26.57a2.4 2.4 0 1 0-2.47-2.4 2.43 2.43 0 0 0 2.47 2.4zm0 26.52a2.39 2.39 0 1 0-2.47-2.39 2.42 2.42 0 0 0 2.47 2.39zm0 26.61a2.4 2.4 0 1 0-2.47-2.39 2.42 2.42 0 0 0 2.47 2.39zM2.47 267.64a2.4 2.4 0 1 0 0-4.79 2.4 2.4 0 1 0 0 4.79zm0 27.57a2.4 2.4 0 1 0 0-4.79 2.4 2.4 0 1 0 0 4.79zm0 26.56a2.39 2.39 0 1 0 0-4.78 2.39 2.39 0 1 0 0 4.78zm0 26.57a2.4 2.4 0 1 0 0-4.79 2.4 2.4 0 1 0 0 4.79zm0 26.57a2.4 2.4 0 1 0 0-4.79 2.4 2.4 0 1 0 0 4.79zm0 26.57a2.4 2.4 0 1 0 0-4.79 2.4 2.4 0 1 0 0 4.79zm0 26.52a2.39 2.39 0 1 0 0-4.78 2.39 2.39 0 1 0 0 4.78zm0 26.61a2.4 2.4 0 1 0 0-4.79 2.4 2.4 0 1 0 0 4.79zm193.77-186.97a2.4 2.4 0 1 0-2.47-2.4 2.43 2.43 0 0 0 2.47 2.4zm0 27.57a2.4 2.4 0 1 0-2.47-2.4 2.43 2.43 0 0 0 2.47 2.4zm0 26.56a2.39 2.39 0 1 0-2.47-2.39 2.42 2.42 0 0 0 2.47 2.39zm0 26.57a2.4 2.4 0 1 0-2.47-2.39 2.42 2.42 0 0 0 2.47 2.39zm0 26.57a2.4 2.4 0 1 0-2.47-2.4 2.43 2.43 0 0 0 2.47 2.4zm0 26.57a2.4 2.4 0 1 0-2.47-2.4 2.43 2.43 0 0 0 2.47 2.4zm0 26.52a2.39 2.39 0 1 0-2.47-2.39 2.42 2.42 0 0 0 2.47 2.39zm0 26.61a2.4 2.4 0 1 0-2.47-2.39 2.42 2.42 0 0 0 2.47 2.39zm-27.72-186.97a2.4 2.4 0 1 0-2.47-2.4 2.43 2.43 0 0 0 2.47 2.4zm0 27.57a2.4 2.4 0 1 0-2.47-2.4 2.43 2.43 0 0 0 2.47 2.4zm0 26.56a2.39 2.39 0 1 0-2.47-2.39 2.42 2.42 0 0 0 2.47 2.39zm0 26.57a2.4 2.4 0 1 0-2.47-2.39 2.42 2.42 0 0 0 2.47 2.39zm0 26.57a2.4 2.4 0 1 0-2.47-2.4 2.43 2.43 0 0 0 2.47 2.4zm0 26.57a2.4 2.4 0 1 0-2.47-2.4 2.43 2.43 0 0 0 2.47 2.4zm0 26.52a2.39 2.39 0 1 0-2.47-2.39 2.42 2.42 0 0 0 2.47 2.39zm0 26.61a2.4 2.4 0 1 0-2.47-2.39 2.42 2.42 0 0 0 2.47 2.39zM142.8 267.64a2.4 2.4 0 1 0-2.47-2.4 2.43 2.43 0 0 0 2.47 2.4z"/><ellipse class="cls-1" cx="142.8" cy="292.81" rx="2.47" ry="2.39"/><ellipse class="cls-1" cx="142.8" cy="319.38" rx="2.47" ry="2.39"/><path class="cls-1" d="M142.8 348.34a2.4 2.4 0 1 0-2.47-2.39 2.42 2.42 0 0 0 2.47 2.39z"/><ellipse class="cls-1" cx="142.8" cy="372.51" rx="2.47" ry="2.39"/><ellipse class="cls-1" cx="142.8" cy="399.08" rx="2.47" ry="2.39"/><ellipse class="cls-1" cx="142.8" cy="425.65" rx="2.47" ry="2.39"/><path class="cls-1" d="M142.8 454.61a2.4 2.4 0 1 0-2.47-2.39 2.42 2.42 0 0 0 2.47 2.39zm-29.72-186.97a2.4 2.4 0 1 0-2.47-2.4 2.43 2.43 0 0 0 2.47 2.4zm0 27.57a2.4 2.4 0 1 0-2.47-2.4 2.43 2.43 0 0 0 2.47 2.4zm0 26.56a2.39 2.39 0 1 0-2.47-2.39 2.42 2.42 0 0 0 2.47 2.39zm0 26.57a2.4 2.4 0 1 0-2.47-2.39 2.42 2.42 0 0 0 2.47 2.39zm0 26.57a2.4 2.4 0 1 0-2.47-2.4 2.43 2.43 0 0 0 2.47 2.4zm0 26.57a2.4 2.4 0 1 0-2.47-2.4 2.43 2.43 0 0 0 2.47 2.4zm0 26.52a2.39 2.39 0 1 0-2.47-2.39 2.42 2.42 0 0 0 2.47 2.39zm0 26.61a2.4 2.4 0 1 0-2.47-2.39 2.42 2.42 0 0 0 2.47 2.39zm194.37 20.59a2.4 2.4 0 1 0 2.47 2.39 2.43 2.43 0 0 0-2.47-2.39zm0 26.57a2.4 2.4 0 1 0 2.47 2.39 2.42 2.42 0 0 0-2.47-2.39zm-27.72-26.57a2.4 2.4 0 1 0 2.47 2.39 2.43 2.43 0 0 0-2.47-2.39zm0 26.57a2.4 2.4 0 1 0 2.47 2.39 2.42 2.42 0 0 0-2.47-2.39zM252 475.2a2.4 2.4 0 1 0 2.47 2.39 2.43 2.43 0 0 0-2.47-2.39zm0 26.57a2.4 2.4 0 1 0 2.47 2.39 2.42 2.42 0 0 0-2.47-2.39zm-27.71-26.57a2.4 2.4 0 1 0 2.47 2.39 2.43 2.43 0 0 0-2.47-2.39zm0 26.57a2.4 2.4 0 1 0 2.47 2.39 2.42 2.42 0 0 0-2.47-2.39zm193.77-26.57a2.4 2.4 0 1 0 2.47 2.39 2.43 2.43 0 0 0-2.47-2.39zm0 26.57a2.4 2.4 0 1 0 2.47 2.39 2.42 2.42 0 0 0-2.47-2.39z"/><ellipse class="cls-1" cx="390.34" cy="477.59" rx="2.47" ry="2.39"/><ellipse class="cls-1" cx="390.34" cy="504.16" rx="2.47" ry="2.39"/><path class="cls-1" d="M364.62 475.2a2.4 2.4 0 1 0 2.47 2.39 2.43 2.43 0 0 0-2.47-2.39zm0 26.57a2.4 2.4 0 1 0 2.47 2.39 2.42 2.42 0 0 0-2.47-2.39zM334.9 475.2a2.4 2.4 0 1 0 2.47 2.39 2.43 2.43 0 0 0-2.47-2.39zm0 26.57a2.4 2.4 0 1 0 2.47 2.39 2.42 2.42 0 0 0-2.47-2.39zm-27.66-234.13a2.4 2.4 0 1 0-2.47-2.4 2.43 2.43 0 0 0 2.47 2.4zm0 27.57a2.4 2.4 0 1 0-2.47-2.4 2.43 2.43 0 0 0 2.47 2.4zm0 26.56a2.39 2.39 0 1 0-2.47-2.39 2.42 2.42 0 0 0 2.47 2.39zm0 26.57a2.4 2.4 0 1 0-2.47-2.39 2.42 2.42 0 0 0 2.47 2.39zm0 26.57a2.4 2.4 0 1 0-2.47-2.4 2.43 2.43 0 0 0 2.47 2.4zm0 26.57a2.4 2.4 0 1 0-2.47-2.4 2.43 2.43 0 0 0 2.47 2.4zm0 26.52a2.39 2.39 0 1 0-2.47-2.39 2.42 2.42 0 0 0 2.47 2.39zm0 26.61a2.4 2.4 0 1 0-2.47-2.39 2.42 2.42 0 0 0 2.47 2.39zm-27.72-186.97a2.4 2.4 0 1 0-2.47-2.4 2.43 2.43 0 0 0 2.47 2.4z"/><ellipse class="cls-1" cx="279.52" cy="292.81" rx="2.47" ry="2.39"/><ellipse class="cls-1" cx="279.52" cy="319.38" rx="2.47" ry="2.39"/><path class="cls-1" d="M279.52 348.34a2.4 2.4 0 1 0-2.47-2.39 2.42 2.42 0 0 0 2.47 2.39z"/><ellipse class="cls-1" cx="279.52" cy="372.51" rx="2.47" ry="2.39"/><ellipse class="cls-1" cx="279.52" cy="399.08" rx="2.47" ry="2.39"/><ellipse class="cls-1" cx="279.52" cy="425.65" rx="2.47" ry="2.39"/><path class="cls-1" d="M279.52 454.61a2.4 2.4 0 1 0-2.47-2.39 2.42 2.42 0 0 0 2.47 2.39zM251.8 267.64a2.4 2.4 0 1 0-2.47-2.4 2.43 2.43 0 0 0 2.47 2.4zm0 27.57a2.4 2.4 0 1 0-2.47-2.4 2.43 2.43 0 0 0 2.47 2.4zm0 26.56a2.39 2.39 0 1 0-2.47-2.39 2.42 2.42 0 0 0 2.47 2.39zm0 26.57a2.4 2.4 0 1 0-2.47-2.39 2.42 2.42 0 0 0 2.47 2.39zm0 26.57a2.4 2.4 0 1 0-2.47-2.4 2.43 2.43 0 0 0 2.47 2.4zm0 26.57a2.4 2.4 0 1 0-2.47-2.4 2.43 2.43 0 0 0 2.47 2.4zm0 26.52a2.39 2.39 0 1 0-2.47-2.39 2.42 2.42 0 0 0 2.47 2.39zm0 26.61a2.4 2.4 0 1 0-2.47-2.39 2.42 2.42 0 0 0 2.47 2.39zm-27.72-186.97a2.4 2.4 0 1 0-2.47-2.4 2.43 2.43 0 0 0 2.47 2.4z"/><ellipse class="cls-1" cx="224.08" cy="292.81" rx="2.47" ry="2.39"/><ellipse class="cls-1" cx="224.08" cy="319.38" rx="2.47" ry="2.39"/><path class="cls-1" d="M224.08 348.34a2.4 2.4 0 1 0-2.47-2.39 2.42 2.42 0 0 0 2.47 2.39z"/><ellipse class="cls-1" cx="224.08" cy="372.51" rx="2.47" ry="2.39"/><ellipse class="cls-1" cx="224.08" cy="399.08" rx="2.47" ry="2.39"/><ellipse class="cls-1" cx="224.08" cy="425.65" rx="2.47" ry="2.39"/><path class="cls-1" d="M224.08 454.61a2.4 2.4 0 1 0-2.47-2.39 2.42 2.42 0 0 0 2.47 2.39zm193.77-186.97a2.4 2.4 0 1 0-2.47-2.4 2.43 2.43 0 0 0 2.47 2.4zm0 27.57a2.4 2.4 0 1 0-2.47-2.4 2.43 2.43 0 0 0 2.47 2.4zm0 26.56a2.39 2.39 0 1 0-2.47-2.39 2.42 2.42 0 0 0 2.47 2.39zm0 26.57a2.4 2.4 0 1 0-2.47-2.39 2.42 2.42 0 0 0 2.47 2.39zm0 26.57a2.4 2.4 0 1 0-2.47-2.4 2.43 2.43 0 0 0 2.47 2.4zm0 26.57a2.4 2.4 0 1 0-2.47-2.4 2.43 2.43 0 0 0 2.47 2.4zm0 26.52a2.39 2.39 0 1 0-2.47-2.39 2.42 2.42 0 0 0 2.47 2.39zm0 26.61a2.4 2.4 0 1 0-2.47-2.39 2.42 2.42 0 0 0 2.47 2.39zm-27.72-186.97a2.4 2.4 0 1 0-2.47-2.4 2.43 2.43 0 0 0 2.47 2.4zm0 27.57a2.4 2.4 0 1 0-2.47-2.4 2.43 2.43 0 0 0 2.47 2.4zm0 26.56a2.39 2.39 0 1 0-2.47-2.39 2.42 2.42 0 0 0 2.47 2.39zm0 26.57a2.4 2.4 0 1 0-2.47-2.39 2.42 2.42 0 0 0 2.47 2.39zm0 26.57a2.4 2.4 0 1 0-2.47-2.4 2.43 2.43 0 0 0 2.47 2.4zm0 26.57a2.4 2.4 0 1 0-2.47-2.4 2.43 2.43 0 0 0 2.47 2.4zm0 26.52a2.39 2.39 0 1 0-2.47-2.39 2.42 2.42 0 0 0 2.47 2.39zm0 26.61a2.4 2.4 0 1 0-2.47-2.39 2.42 2.42 0 0 0 2.47 2.39zm-25.72-186.97a2.4 2.4 0 1 0-2.47-2.4 2.43 2.43 0 0 0 2.47 2.4zm0 27.57a2.4 2.4 0 1 0-2.47-2.4 2.43 2.43 0 0 0 2.47 2.4zm0 26.56a2.39 2.39 0 1 0-2.47-2.39 2.42 2.42 0 0 0 2.47 2.39zm0 26.57a2.4 2.4 0 1 0-2.47-2.39 2.42 2.42 0 0 0 2.47 2.39zm0 26.57a2.4 2.4 0 1 0-2.47-2.4 2.43 2.43 0 0 0 2.47 2.4zm0 26.57a2.4 2.4 0 1 0-2.47-2.4 2.43 2.43 0 0 0 2.47 2.4zm0 26.52a2.39 2.39 0 1 0-2.47-2.39 2.42 2.42 0 0 0 2.47 2.39zm0 26.61a2.4 2.4 0 1 0-2.47-2.39 2.42 2.42 0 0 0 2.47 2.39zm-29.72-186.97a2.4 2.4 0 1 0-2.47-2.4 2.43 2.43 0 0 0 2.47 2.4zm0 27.57a2.4 2.4 0 1 0-2.47-2.4 2.43 2.43 0 0 0 2.47 2.4zm0 26.56a2.39 2.39 0 1 0-2.47-2.39 2.42 2.42 0 0 0 2.47 2.39zm0 26.57a2.4 2.4 0 1 0-2.47-2.39 2.42 2.42 0 0 0 2.47 2.39zm0 26.57a2.4 2.4 0 1 0-2.47-2.4 2.43 2.43 0 0 0 2.47 2.4zm0 26.57a2.4 2.4 0 1 0-2.47-2.4 2.43 2.43 0 0 0 2.47 2.4zm0 26.52a2.39 2.39 0 1 0-2.47-2.39 2.42 2.42 0 0 0 2.47 2.39zm0 26.61a2.4 2.4 0 1 0-2.47-2.39 2.42 2.42 0 0 0 2.47 2.39zm195.97-242.26a2.4 2.4 0 1 0 2.47 2.4 2.44 2.44 0 0 0-2.47-2.4zm0 26.57a2.4 2.4 0 1 0 2.47 2.39 2.43 2.43 0 0 0-2.47-2.39z"/><ellipse class="cls-1" cx="502.94" cy="214.75" rx="2.47" ry="2.39"/><ellipse class="cls-1" cx="502.94" cy="241.31" rx="2.47" ry="2.39"/><path class="cls-1" d="M475.22 212.35a2.4 2.4 0 1 0 2.47 2.4 2.44 2.44 0 0 0-2.47-2.4zm0 26.57a2.4 2.4 0 1 0 2.47 2.39 2.43 2.43 0 0 0-2.47-2.39zm-27.72-26.57a2.4 2.4 0 1 0 2.46 2.4 2.44 2.44 0 0 0-2.46-2.4zm0 26.57a2.4 2.4 0 1 0 2.46 2.39 2.43 2.43 0 0 0-2.46-2.39zm193.77-26.57a2.4 2.4 0 1 0 2.47 2.4 2.44 2.44 0 0 0-2.47-2.4zm0 26.57a2.4 2.4 0 1 0 2.47 2.39 2.43 2.43 0 0 0-2.47-2.39z"/><ellipse class="cls-1" cx="613.55" cy="214.75" rx="2.47" ry="2.39"/><ellipse class="cls-1" cx="613.55" cy="241.31" rx="2.47" ry="2.39"/><path class="cls-1" d="M587.83 212.35a2.4 2.4 0 1 0 2.47 2.4 2.44 2.44 0 0 0-2.47-2.4zm0 26.57a2.4 2.4 0 1 0 2.47 2.39 2.43 2.43 0 0 0-2.47-2.39zm-29.72-26.57a2.4 2.4 0 1 0 2.46 2.4 2.44 2.44 0 0 0-2.46-2.4zm0 26.57a2.4 2.4 0 1 0 2.46 2.39 2.43 2.43 0 0 0-2.46-2.39zM530.45 4.79a2.43 2.43 0 0 0 2.46-2.4 2.47 2.47 0 0 0-4.93 0 2.44 2.44 0 0 0 2.47 2.4zm0 27.57A2.4 2.4 0 1 0 528 30a2.43 2.43 0 0 0 2.45 2.36zm0 26.56a2.39 2.39 0 1 0-2.45-2.39 2.42 2.42 0 0 0 2.45 2.39zm0 26.57A2.4 2.4 0 1 0 528 83.1a2.42 2.42 0 0 0 2.45 2.39zm0 26.57a2.4 2.4 0 1 0-2.47-2.39 2.43 2.43 0 0 0 2.47 2.39zm0 26.57a2.4 2.4 0 1 0-2.47-2.4 2.43 2.43 0 0 0 2.47 2.4zm0 26.56a2.39 2.39 0 1 0-2.45-2.39 2.42 2.42 0 0 0 2.45 2.39zm0 26.57a2.4 2.4 0 1 0-2.47-2.39 2.42 2.42 0 0 0 2.47 2.39zM502.72 4.79a2.44 2.44 0 0 0 2.47-2.4 2.47 2.47 0 0 0-4.93 0 2.44 2.44 0 0 0 2.46 2.4z"/><ellipse class="cls-1" cx="502.72" cy="29.96" rx="2.47" ry="2.39"/><ellipse class="cls-1" cx="502.72" cy="56.53" rx="2.47" ry="2.39"/><path class="cls-1" d="M502.72 85.49a2.4 2.4 0 1 0-2.46-2.39 2.43 2.43 0 0 0 2.46 2.39z"/><ellipse class="cls-1" cx="502.72" cy="109.67" rx="2.47" ry="2.39"/><ellipse class="cls-1" cx="502.72" cy="136.23" rx="2.47" ry="2.39"/><ellipse class="cls-1" cx="502.72" cy="162.8" rx="2.47" ry="2.39"/><path class="cls-1" d="M502.72 191.76a2.4 2.4 0 1 0-2.46-2.39 2.43 2.43 0 0 0 2.46 2.39zM475 4.79a2.44 2.44 0 0 0 2.47-2.4 2.47 2.47 0 0 0-4.93 0 2.43 2.43 0 0 0 2.46 2.4zm0 27.57a2.4 2.4 0 1 0-2.46-2.4 2.44 2.44 0 0 0 2.46 2.4zm0 26.56a2.39 2.39 0 1 0-2.46-2.39 2.43 2.43 0 0 0 2.46 2.39zm0 26.57a2.4 2.4 0 1 0-2.46-2.39 2.43 2.43 0 0 0 2.46 2.39zm0 26.57a2.4 2.4 0 1 0-2.46-2.39 2.44 2.44 0 0 0 2.46 2.39zm0 26.57a2.4 2.4 0 1 0-2.46-2.4 2.44 2.44 0 0 0 2.46 2.4zm0 26.56a2.39 2.39 0 1 0-2.46-2.39 2.43 2.43 0 0 0 2.46 2.39zm0 26.57a2.4 2.4 0 1 0-2.46-2.39 2.43 2.43 0 0 0 2.46 2.39zM447.28 4.79a2.44 2.44 0 0 0 2.47-2.4 2.47 2.47 0 0 0-4.93 0 2.43 2.43 0 0 0 2.46 2.4zm0 27.57a2.4 2.4 0 1 0-2.46-2.4 2.44 2.44 0 0 0 2.46 2.4zm0 26.56a2.39 2.39 0 1 0-2.46-2.39 2.43 2.43 0 0 0 2.46 2.39zm0 26.57a2.4 2.4 0 1 0-2.46-2.39 2.43 2.43 0 0 0 2.46 2.39zm0 26.57a2.4 2.4 0 1 0-2.46-2.39 2.44 2.44 0 0 0 2.46 2.39zm0 26.57a2.4 2.4 0 1 0-2.46-2.4 2.44 2.44 0 0 0 2.46 2.4zm0 26.56a2.39 2.39 0 1 0-2.46-2.39 2.43 2.43 0 0 0 2.46 2.39zm0 26.57a2.4 2.4 0 1 0-2.46-2.39 2.43 2.43 0 0 0 2.46 2.39zM641.06 4.79a2.43 2.43 0 0 0 2.46-2.4 2.47 2.47 0 0 0-4.93 0 2.44 2.44 0 0 0 2.47 2.4zm0 27.57a2.4 2.4 0 1 0-2.47-2.4 2.43 2.43 0 0 0 2.47 2.4zm0 26.56a2.39 2.39 0 1 0-2.47-2.39 2.42 2.42 0 0 0 2.47 2.39zm0 26.57a2.4 2.4 0 1 0-2.47-2.39 2.42 2.42 0 0 0 2.47 2.39zm0 26.57a2.4 2.4 0 1 0-2.47-2.39 2.43 2.43 0 0 0 2.47 2.39zm0 26.57a2.4 2.4 0 1 0-2.47-2.4 2.43 2.43 0 0 0 2.47 2.4zm0 26.56a2.39 2.39 0 1 0-2.47-2.39 2.42 2.42 0 0 0 2.47 2.39zm0 26.57a2.4 2.4 0 1 0-2.47-2.39 2.42 2.42 0 0 0 2.47 2.39zM613.34 4.79a2.44 2.44 0 0 0 2.46-2.4 2.47 2.47 0 0 0-4.93 0 2.44 2.44 0 0 0 2.47 2.4zm0 27.57a2.4 2.4 0 1 0-2.47-2.4 2.44 2.44 0 0 0 2.47 2.4zm0 26.56a2.39 2.39 0 1 0-2.47-2.39 2.43 2.43 0 0 0 2.47 2.39zm0 26.57a2.4 2.4 0 1 0-2.47-2.39 2.43 2.43 0 0 0 2.47 2.39zm0 26.57a2.4 2.4 0 1 0-2.47-2.39 2.44 2.44 0 0 0 2.47 2.39zm0 26.57a2.4 2.4 0 1 0-2.47-2.4 2.44 2.44 0 0 0 2.47 2.4zm0 26.56a2.39 2.39 0 1 0-2.47-2.39 2.43 2.43 0 0 0 2.47 2.39zm0 26.57a2.4 2.4 0 1 0-2.47-2.39 2.43 2.43 0 0 0 2.47 2.39zM587.61 4.79a2.44 2.44 0 0 0 2.47-2.4 2.47 2.47 0 0 0-4.93 0 2.44 2.44 0 0 0 2.46 2.4z"/><ellipse class="cls-1" cx="587.61" cy="29.96" rx="2.47" ry="2.39"/><ellipse class="cls-1" cx="587.61" cy="56.53" rx="2.47" ry="2.39"/><path class="cls-1" d="M587.61 85.49a2.4 2.4 0 1 0-2.46-2.39 2.43 2.43 0 0 0 2.46 2.39z"/><ellipse class="cls-1" cx="587.61" cy="109.67" rx="2.47" ry="2.39"/><ellipse class="cls-1" cx="587.61" cy="136.23" rx="2.47" ry="2.39"/><ellipse class="cls-1" cx="587.61" cy="162.8" rx="2.47" ry="2.39"/><path class="cls-1" d="M587.61 191.76a2.4 2.4 0 1 0-2.46-2.39 2.43 2.43 0 0 0 2.46 2.39zM557.89 4.79a2.44 2.44 0 0 0 2.47-2.4 2.47 2.47 0 0 0-4.93 0 2.43 2.43 0 0 0 2.46 2.4zm0 27.57a2.4 2.4 0 1 0-2.46-2.4 2.44 2.44 0 0 0 2.46 2.4zm0 26.56a2.39 2.39 0 1 0-2.46-2.39 2.43 2.43 0 0 0 2.46 2.39zm0 26.57a2.4 2.4 0 1 0-2.46-2.39 2.43 2.43 0 0 0 2.46 2.39zm0 26.57a2.4 2.4 0 1 0-2.46-2.39 2.44 2.44 0 0 0 2.46 2.39zm0 26.57a2.4 2.4 0 1 0-2.46-2.4 2.44 2.44 0 0 0 2.46 2.4zm0 26.56a2.39 2.39 0 1 0-2.46-2.39 2.43 2.43 0 0 0 2.46 2.39zm0 26.57a2.4 2.4 0 1 0-2.46-2.39 2.43 2.43 0 0 0 2.46 2.39zm194.38 20.59a2.4 2.4 0 1 0 2.47 2.4 2.44 2.44 0 0 0-2.47-2.4zm0 26.57a2.4 2.4 0 1 0 2.47 2.39 2.43 2.43 0 0 0-2.47-2.39zm-27.72-26.57a2.4 2.4 0 1 0 2.47 2.4 2.44 2.44 0 0 0-2.47-2.4zm0 26.57a2.4 2.4 0 1 0 2.47 2.39 2.43 2.43 0 0 0-2.47-2.39zm-27.72-26.57a2.4 2.4 0 1 0 2.47 2.4 2.44 2.44 0 0 0-2.47-2.4zm0 26.57a2.4 2.4 0 1 0 2.47 2.39 2.43 2.43 0 0 0-2.47-2.39zm-27.72-26.57a2.4 2.4 0 1 0 2.46 2.4 2.44 2.44 0 0 0-2.46-2.4zm0 26.57a2.4 2.4 0 1 0 2.46 2.39 2.43 2.43 0 0 0-2.46-2.39zm193.77-26.57a2.4 2.4 0 1 0 2.47 2.4 2.43 2.43 0 0 0-2.47-2.4zm0 26.57a2.4 2.4 0 1 0 2.47 2.39 2.42 2.42 0 0 0-2.47-2.39z"/><ellipse class="cls-1" cx="835.16" cy="214.75" rx="2.47" ry="2.39"/><ellipse class="cls-1" cx="835.16" cy="241.31" rx="2.47" ry="2.39"/><path class="cls-1" d="M809.44 212.35a2.4 2.4 0 1 0 2.47 2.4 2.44 2.44 0 0 0-2.47-2.4zm0 26.57a2.4 2.4 0 1 0 2.47 2.39 2.43 2.43 0 0 0-2.47-2.39zm-29.72-26.57a2.4 2.4 0 1 0 2.47 2.4 2.44 2.44 0 0 0-2.47-2.4zm0 26.57a2.4 2.4 0 1 0 2.47 2.39 2.43 2.43 0 0 0-2.47-2.39zM752.06 4.79a2.43 2.43 0 0 0 2.46-2.4 2.47 2.47 0 0 0-4.93 0 2.44 2.44 0 0 0 2.47 2.4zm0 27.57a2.4 2.4 0 1 0-2.47-2.4 2.43 2.43 0 0 0 2.47 2.4zm0 26.56a2.39 2.39 0 1 0-2.47-2.39 2.42 2.42 0 0 0 2.47 2.39zm0 26.57a2.4 2.4 0 1 0-2.47-2.39 2.42 2.42 0 0 0 2.47 2.39zm0 26.57a2.4 2.4 0 1 0-2.47-2.39 2.43 2.43 0 0 0 2.47 2.39zm0 26.57a2.4 2.4 0 1 0-2.47-2.4 2.43 2.43 0 0 0 2.47 2.4zm0 26.56a2.39 2.39 0 1 0-2.47-2.39 2.42 2.42 0 0 0 2.47 2.39zm0 26.57a2.4 2.4 0 1 0-2.47-2.39 2.42 2.42 0 0 0 2.47 2.39zM724.34 4.79a2.43 2.43 0 0 0 2.46-2.4 2.47 2.47 0 0 0-4.93 0 2.44 2.44 0 0 0 2.47 2.4z"/><ellipse class="cls-1" cx="724.34" cy="29.96" rx="2.47" ry="2.39"/><ellipse class="cls-1" cx="724.34" cy="56.53" rx="2.47" ry="2.39"/><path class="cls-1" d="M724.34 85.49a2.4 2.4 0 1 0-2.47-2.39 2.42 2.42 0 0 0 2.47 2.39z"/><ellipse class="cls-1" cx="724.34" cy="109.67" rx="2.47" ry="2.39"/><ellipse class="cls-1" cx="724.34" cy="136.23" rx="2.47" ry="2.39"/><ellipse class="cls-1" cx="724.34" cy="162.8" rx="2.47" ry="2.39"/><path class="cls-1" d="M724.34 191.76a2.4 2.4 0 1 0-2.47-2.39 2.42 2.42 0 0 0 2.47 2.39zM696.61 4.79a2.44 2.44 0 0 0 2.47-2.4 2.47 2.47 0 0 0-4.93 0 2.44 2.44 0 0 0 2.46 2.4zm0 27.57a2.4 2.4 0 1 0-2.46-2.4 2.44 2.44 0 0 0 2.46 2.4zm0 26.56a2.39 2.39 0 1 0-2.46-2.39 2.43 2.43 0 0 0 2.46 2.39zm0 26.57a2.4 2.4 0 1 0-2.46-2.39 2.43 2.43 0 0 0 2.46 2.39zm0 26.57a2.4 2.4 0 1 0-2.46-2.39 2.44 2.44 0 0 0 2.46 2.39zm0 26.57a2.4 2.4 0 1 0-2.46-2.4 2.44 2.44 0 0 0 2.46 2.4zm0 26.56a2.39 2.39 0 1 0-2.46-2.39 2.43 2.43 0 0 0 2.46 2.39zm0 26.57a2.4 2.4 0 1 0-2.46-2.39 2.43 2.43 0 0 0 2.46 2.39zM668.89 4.79a2.44 2.44 0 0 0 2.47-2.4 2.47 2.47 0 0 0-4.93 0 2.43 2.43 0 0 0 2.46 2.4z"/><ellipse class="cls-1" cx="668.89" cy="29.96" rx="2.47" ry="2.39"/><ellipse class="cls-1" cx="668.89" cy="56.53" rx="2.47" ry="2.39"/><path class="cls-1" d="M668.89 85.49a2.4 2.4 0 1 0-2.46-2.39 2.43 2.43 0 0 0 2.46 2.39z"/><ellipse class="cls-1" cx="668.89" cy="109.67" rx="2.47" ry="2.39"/><ellipse class="cls-1" cx="668.89" cy="136.23" rx="2.47" ry="2.39"/><ellipse class="cls-1" cx="668.89" cy="162.8" rx="2.47" ry="2.39"/><path class="cls-1" d="M668.89 191.76a2.4 2.4 0 1 0-2.46-2.39 2.43 2.43 0 0 0 2.46 2.39zM862.67 4.79a2.43 2.43 0 0 0 2.46-2.4 2.47 2.47 0 0 0-4.93 0 2.44 2.44 0 0 0 2.47 2.4zm0 27.57A2.4 2.4 0 1 0 860.2 30a2.43 2.43 0 0 0 2.47 2.36zm0 26.56a2.39 2.39 0 1 0-2.47-2.39 2.42 2.42 0 0 0 2.47 2.39zm0 26.57a2.4 2.4 0 1 0-2.47-2.39 2.42 2.42 0 0 0 2.47 2.39zm0 26.57a2.4 2.4 0 1 0-2.47-2.39 2.43 2.43 0 0 0 2.47 2.39zm0 26.57a2.4 2.4 0 1 0-2.47-2.4 2.43 2.43 0 0 0 2.47 2.4zm0 26.56a2.39 2.39 0 1 0-2.47-2.39 2.42 2.42 0 0 0 2.47 2.39zm0 26.57a2.4 2.4 0 1 0-2.47-2.39 2.42 2.42 0 0 0 2.47 2.39zM835 4.79a2.43 2.43 0 0 0 2.46-2.4 2.47 2.47 0 0 0-4.93 0 2.44 2.44 0 0 0 2.47 2.4zm0 27.57a2.4 2.4 0 1 0-2.47-2.4 2.43 2.43 0 0 0 2.47 2.4zm0 26.56a2.39 2.39 0 1 0-2.47-2.39 2.42 2.42 0 0 0 2.47 2.39zm0 26.57a2.4 2.4 0 1 0-2.47-2.39 2.42 2.42 0 0 0 2.47 2.39zm0 26.57a2.4 2.4 0 1 0-2.47-2.39 2.43 2.43 0 0 0 2.47 2.39zm0 26.57a2.4 2.4 0 1 0-2.47-2.4 2.43 2.43 0 0 0 2.47 2.4zm0 26.56a2.39 2.39 0 1 0-2.47-2.39 2.42 2.42 0 0 0 2.47 2.39zm0 26.57a2.4 2.4 0 1 0-2.47-2.39 2.42 2.42 0 0 0 2.47 2.39zM809.23 4.79a2.44 2.44 0 0 0 2.46-2.4 2.47 2.47 0 0 0-4.93 0 2.44 2.44 0 0 0 2.47 2.4zm0 27.57a2.4 2.4 0 1 0-2.47-2.4 2.44 2.44 0 0 0 2.47 2.4zm0 26.56a2.39 2.39 0 1 0-2.47-2.39 2.43 2.43 0 0 0 2.47 2.39zm0 26.57a2.4 2.4 0 1 0-2.47-2.39 2.43 2.43 0 0 0 2.47 2.39zm0 26.57a2.4 2.4 0 1 0-2.47-2.39 2.44 2.44 0 0 0 2.47 2.39zm0 26.57a2.4 2.4 0 1 0-2.47-2.4 2.44 2.44 0 0 0 2.47 2.4zm0 26.56a2.39 2.39 0 1 0-2.47-2.39 2.43 2.43 0 0 0 2.47 2.39zm0 26.57a2.4 2.4 0 1 0-2.47-2.39 2.43 2.43 0 0 0 2.47 2.39zM779.5 4.79a2.44 2.44 0 0 0 2.5-2.4 2.47 2.47 0 0 0-4.93 0 2.43 2.43 0 0 0 2.43 2.4zm0 27.57A2.4 2.4 0 1 0 777 30a2.44 2.44 0 0 0 2.5 2.36zm0 26.56a2.39 2.39 0 1 0-2.5-2.39 2.43 2.43 0 0 0 2.5 2.39zm0 26.57a2.4 2.4 0 1 0-2.5-2.39 2.43 2.43 0 0 0 2.5 2.39zm0 26.57a2.4 2.4 0 1 0-2.46-2.39 2.44 2.44 0 0 0 2.46 2.39zm0 26.57a2.4 2.4 0 1 0-2.46-2.4 2.44 2.44 0 0 0 2.46 2.4zm0 26.56a2.39 2.39 0 1 0-2.5-2.39 2.43 2.43 0 0 0 2.5 2.39zm0 26.57a2.4 2.4 0 1 0-2.46-2.39 2.43 2.43 0 0 0 2.46 2.39zM530.66 475.2a2.4 2.4 0 1 0 2.47 2.39 2.44 2.44 0 0 0-2.47-2.39zm0 26.57a2.4 2.4 0 1 0 2.47 2.39 2.43 2.43 0 0 0-2.47-2.39z"/><ellipse class="cls-1" cx="502.94" cy="477.59" rx="2.47" ry="2.39"/><ellipse class="cls-1" cx="502.94" cy="504.16" rx="2.47" ry="2.39"/><path class="cls-1" d="M475.22 475.2a2.4 2.4 0 1 0 2.47 2.39 2.44 2.44 0 0 0-2.47-2.39zm0 26.57a2.4 2.4 0 1 0 2.47 2.39 2.43 2.43 0 0 0-2.47-2.39zM447.5 475.2a2.4 2.4 0 1 0 2.46 2.39 2.44 2.44 0 0 0-2.46-2.39zm0 26.57a2.4 2.4 0 1 0 2.46 2.39 2.43 2.43 0 0 0-2.46-2.39zm193.77-26.57a2.4 2.4 0 1 0 2.47 2.39 2.44 2.44 0 0 0-2.47-2.39zm0 26.57a2.4 2.4 0 1 0 2.47 2.39 2.43 2.43 0 0 0-2.47-2.39z"/><ellipse class="cls-1" cx="613.55" cy="477.59" rx="2.47" ry="2.39"/><ellipse class="cls-1" cx="613.55" cy="504.16" rx="2.47" ry="2.39"/><path class="cls-1" d="M587.83 475.2a2.4 2.4 0 1 0 2.47 2.39 2.44 2.44 0 0 0-2.47-2.39zm0 26.57a2.4 2.4 0 1 0 2.47 2.39 2.43 2.43 0 0 0-2.47-2.39zm-29.72-26.57a2.4 2.4 0 1 0 2.46 2.39 2.44 2.44 0 0 0-2.46-2.39zm0 26.57a2.4 2.4 0 1 0 2.46 2.39 2.43 2.43 0 0 0-2.46-2.39zm-27.66-234.13a2.4 2.4 0 1 0-2.47-2.4 2.43 2.43 0 0 0 2.47 2.4zm0 27.57a2.4 2.4 0 1 0-2.47-2.4 2.43 2.43 0 0 0 2.47 2.4zm0 26.56a2.39 2.39 0 1 0-2.47-2.39 2.42 2.42 0 0 0 2.47 2.39zm0 26.57A2.4 2.4 0 1 0 528 346a2.42 2.42 0 0 0 2.45 2.34zm0 26.57a2.4 2.4 0 1 0-2.47-2.4 2.43 2.43 0 0 0 2.47 2.4zm0 26.57a2.4 2.4 0 1 0-2.47-2.4 2.43 2.43 0 0 0 2.47 2.4zm0 26.52a2.39 2.39 0 1 0-2.47-2.39 2.42 2.42 0 0 0 2.47 2.39zm0 26.61a2.4 2.4 0 1 0-2.47-2.39 2.42 2.42 0 0 0 2.47 2.39zm-27.73-186.97a2.4 2.4 0 1 0-2.46-2.4 2.44 2.44 0 0 0 2.46 2.4z"/><ellipse class="cls-1" cx="502.72" cy="292.81" rx="2.47" ry="2.39"/><ellipse class="cls-1" cx="502.72" cy="319.38" rx="2.47" ry="2.39"/><path class="cls-1" d="M502.72 348.34a2.4 2.4 0 1 0-2.46-2.39 2.43 2.43 0 0 0 2.46 2.39z"/><ellipse class="cls-1" cx="502.72" cy="372.51" rx="2.47" ry="2.39"/><ellipse class="cls-1" cx="502.72" cy="399.08" rx="2.47" ry="2.39"/><ellipse class="cls-1" cx="502.72" cy="425.65" rx="2.47" ry="2.39"/><path class="cls-1" d="M502.72 454.61a2.4 2.4 0 1 0-2.46-2.39 2.43 2.43 0 0 0 2.46 2.39zM475 267.64a2.4 2.4 0 1 0-2.46-2.4 2.44 2.44 0 0 0 2.46 2.4zm0 27.57a2.4 2.4 0 1 0-2.46-2.4 2.44 2.44 0 0 0 2.46 2.4zm0 26.56a2.39 2.39 0 1 0-2.46-2.39 2.43 2.43 0 0 0 2.46 2.39zm0 26.57a2.4 2.4 0 1 0-2.46-2.39 2.43 2.43 0 0 0 2.46 2.39zm0 26.57a2.4 2.4 0 1 0-2.46-2.4 2.44 2.44 0 0 0 2.46 2.4zm0 26.57a2.4 2.4 0 1 0-2.46-2.4 2.44 2.44 0 0 0 2.46 2.4zm0 26.52a2.39 2.39 0 1 0-2.46-2.39A2.43 2.43 0 0 0 475 428zm0 26.61a2.4 2.4 0 1 0-2.46-2.39 2.43 2.43 0 0 0 2.46 2.39zm-27.72-186.97a2.4 2.4 0 1 0-2.46-2.4 2.44 2.44 0 0 0 2.46 2.4zm0 27.57a2.4 2.4 0 1 0-2.46-2.4 2.44 2.44 0 0 0 2.46 2.4zm0 26.56a2.39 2.39 0 1 0-2.46-2.39 2.43 2.43 0 0 0 2.46 2.39zm0 26.57a2.4 2.4 0 1 0-2.46-2.39 2.43 2.43 0 0 0 2.46 2.39zm0 26.57a2.4 2.4 0 1 0-2.46-2.4 2.44 2.44 0 0 0 2.46 2.4zm0 26.57a2.4 2.4 0 1 0-2.46-2.4 2.44 2.44 0 0 0 2.46 2.4zm0 26.52a2.39 2.39 0 1 0-2.46-2.39 2.43 2.43 0 0 0 2.46 2.39zm0 26.61a2.4 2.4 0 1 0-2.46-2.39 2.43 2.43 0 0 0 2.46 2.39zm193.78-186.97a2.4 2.4 0 1 0-2.47-2.4 2.43 2.43 0 0 0 2.47 2.4zm0 27.57a2.4 2.4 0 1 0-2.47-2.4 2.43 2.43 0 0 0 2.47 2.4zm0 26.56a2.39 2.39 0 1 0-2.47-2.39 2.42 2.42 0 0 0 2.47 2.39zm0 26.57a2.4 2.4 0 1 0-2.47-2.39 2.42 2.42 0 0 0 2.47 2.39zm0 26.57a2.4 2.4 0 1 0-2.47-2.4 2.43 2.43 0 0 0 2.47 2.4zm0 26.57a2.4 2.4 0 1 0-2.47-2.4 2.43 2.43 0 0 0 2.47 2.4zm0 26.52a2.39 2.39 0 1 0-2.47-2.39 2.42 2.42 0 0 0 2.47 2.39zm0 26.61a2.4 2.4 0 1 0-2.47-2.39 2.42 2.42 0 0 0 2.47 2.39zm-27.72-186.97a2.4 2.4 0 1 0-2.47-2.4 2.44 2.44 0 0 0 2.47 2.4zm0 27.57a2.4 2.4 0 1 0-2.47-2.4 2.44 2.44 0 0 0 2.47 2.4zm0 26.56a2.39 2.39 0 1 0-2.47-2.39 2.43 2.43 0 0 0 2.47 2.39zm0 26.57a2.4 2.4 0 1 0-2.47-2.39 2.43 2.43 0 0 0 2.47 2.39zm0 26.57a2.4 2.4 0 1 0-2.47-2.4 2.44 2.44 0 0 0 2.47 2.4zm0 26.57a2.4 2.4 0 1 0-2.47-2.4 2.44 2.44 0 0 0 2.47 2.4zm0 26.52a2.39 2.39 0 1 0-2.47-2.39 2.43 2.43 0 0 0 2.47 2.39zm0 26.61a2.4 2.4 0 1 0-2.47-2.39 2.43 2.43 0 0 0 2.47 2.39zm-25.73-186.97a2.4 2.4 0 1 0-2.46-2.4 2.44 2.44 0 0 0 2.46 2.4z"/><ellipse class="cls-1" cx="587.61" cy="292.81" rx="2.47" ry="2.39"/><ellipse class="cls-1" cx="587.61" cy="319.38" rx="2.47" ry="2.39"/><path class="cls-1" d="M587.61 348.34a2.4 2.4 0 1 0-2.46-2.39 2.43 2.43 0 0 0 2.46 2.39z"/><ellipse class="cls-1" cx="587.61" cy="372.51" rx="2.47" ry="2.39"/><ellipse class="cls-1" cx="587.61" cy="399.08" rx="2.47" ry="2.39"/><ellipse class="cls-1" cx="587.61" cy="425.65" rx="2.47" ry="2.39"/><path class="cls-1" d="M587.61 454.61a2.4 2.4 0 1 0-2.46-2.39 2.43 2.43 0 0 0 2.46 2.39zm-29.72-186.97a2.4 2.4 0 1 0-2.46-2.4 2.44 2.44 0 0 0 2.46 2.4zm0 27.57a2.4 2.4 0 1 0-2.46-2.4 2.44 2.44 0 0 0 2.46 2.4zm0 26.56a2.39 2.39 0 1 0-2.46-2.39 2.43 2.43 0 0 0 2.46 2.39zm0 26.57a2.4 2.4 0 1 0-2.46-2.39 2.43 2.43 0 0 0 2.46 2.39zm0 26.57a2.4 2.4 0 1 0-2.46-2.4 2.44 2.44 0 0 0 2.46 2.4zm0 26.57a2.4 2.4 0 1 0-2.46-2.4 2.44 2.44 0 0 0 2.46 2.4zm0 26.52a2.39 2.39 0 1 0-2.46-2.39 2.43 2.43 0 0 0 2.46 2.39zm0 26.61a2.4 2.4 0 1 0-2.46-2.39 2.43 2.43 0 0 0 2.46 2.39zm194.38 20.59a2.4 2.4 0 1 0 2.47 2.39 2.44 2.44 0 0 0-2.47-2.39zm0 26.57a2.4 2.4 0 1 0 2.47 2.39 2.43 2.43 0 0 0-2.47-2.39zm-27.72-26.57a2.4 2.4 0 1 0 2.47 2.39 2.44 2.44 0 0 0-2.47-2.39zm0 26.57a2.4 2.4 0 1 0 2.47 2.39 2.43 2.43 0 0 0-2.47-2.39zm-27.72-26.57a2.4 2.4 0 1 0 2.47 2.39 2.44 2.44 0 0 0-2.47-2.39zm0 26.57a2.4 2.4 0 1 0 2.47 2.39 2.43 2.43 0 0 0-2.47-2.39zm-27.72-26.57a2.4 2.4 0 1 0 2.46 2.39 2.44 2.44 0 0 0-2.46-2.39zm0 26.57a2.4 2.4 0 1 0 2.46 2.39 2.43 2.43 0 0 0-2.46-2.39zm193.77-26.57a2.4 2.4 0 1 0 2.47 2.39 2.43 2.43 0 0 0-2.47-2.39zm0 26.57a2.4 2.4 0 1 0 2.47 2.39 2.42 2.42 0 0 0-2.47-2.39z"/><ellipse class="cls-1" cx="835.16" cy="477.59" rx="2.47" ry="2.39"/><ellipse class="cls-1" cx="835.16" cy="504.16" rx="2.47" ry="2.39"/><path class="cls-1" d="M809.44 475.2a2.4 2.4 0 1 0 2.47 2.39 2.44 2.44 0 0 0-2.47-2.39zm0 26.57a2.4 2.4 0 1 0 2.47 2.39 2.43 2.43 0 0 0-2.47-2.39zm-29.72-26.57a2.4 2.4 0 1 0 2.47 2.39 2.44 2.44 0 0 0-2.47-2.39zm0 26.57a2.4 2.4 0 1 0 2.47 2.39 2.43 2.43 0 0 0-2.47-2.39zm-27.66-234.13a2.4 2.4 0 1 0-2.47-2.4 2.43 2.43 0 0 0 2.47 2.4zm0 27.57a2.4 2.4 0 1 0-2.47-2.4 2.43 2.43 0 0 0 2.47 2.4zm0 26.56a2.39 2.39 0 1 0-2.47-2.39 2.42 2.42 0 0 0 2.47 2.39zm0 26.57a2.4 2.4 0 1 0-2.47-2.39 2.42 2.42 0 0 0 2.47 2.39zm0 26.57a2.4 2.4 0 1 0-2.47-2.4 2.43 2.43 0 0 0 2.47 2.4zm0 26.57a2.4 2.4 0 1 0-2.47-2.4 2.43 2.43 0 0 0 2.47 2.4zm0 26.52a2.39 2.39 0 1 0-2.47-2.39 2.42 2.42 0 0 0 2.47 2.39zm0 26.61a2.4 2.4 0 1 0-2.47-2.39 2.42 2.42 0 0 0 2.47 2.39zm-27.72-186.97a2.4 2.4 0 1 0-2.47-2.4 2.43 2.43 0 0 0 2.47 2.4z"/><ellipse class="cls-1" cx="724.34" cy="292.81" rx="2.47" ry="2.39"/><ellipse class="cls-1" cx="724.34" cy="319.38" rx="2.47" ry="2.39"/><path class="cls-1" d="M724.34 348.34a2.4 2.4 0 1 0-2.47-2.39 2.42 2.42 0 0 0 2.47 2.39z"/><ellipse class="cls-1" cx="724.34" cy="372.51" rx="2.47" ry="2.39"/><ellipse class="cls-1" cx="724.34" cy="399.08" rx="2.47" ry="2.39"/><ellipse class="cls-1" cx="724.34" cy="425.65" rx="2.47" ry="2.39"/><path class="cls-1" d="M724.34 454.61a2.4 2.4 0 1 0-2.47-2.39 2.42 2.42 0 0 0 2.47 2.39zm-27.73-186.97a2.4 2.4 0 1 0-2.46-2.4 2.44 2.44 0 0 0 2.46 2.4zm0 27.57a2.4 2.4 0 1 0-2.46-2.4 2.44 2.44 0 0 0 2.46 2.4zm0 26.56a2.39 2.39 0 1 0-2.46-2.39 2.43 2.43 0 0 0 2.46 2.39zm0 26.57a2.4 2.4 0 1 0-2.46-2.39 2.43 2.43 0 0 0 2.46 2.39zm0 26.57a2.4 2.4 0 1 0-2.46-2.4 2.44 2.44 0 0 0 2.46 2.4zm0 26.57a2.4 2.4 0 1 0-2.46-2.4 2.44 2.44 0 0 0 2.46 2.4zm0 26.52a2.39 2.39 0 1 0-2.46-2.39 2.43 2.43 0 0 0 2.46 2.39zm0 26.61a2.4 2.4 0 1 0-2.46-2.39 2.43 2.43 0 0 0 2.46 2.39zm-27.72-186.97a2.4 2.4 0 1 0-2.46-2.4 2.44 2.44 0 0 0 2.46 2.4z"/><ellipse class="cls-1" cx="668.89" cy="292.81" rx="2.47" ry="2.39"/><ellipse class="cls-1" cx="668.89" cy="319.38" rx="2.47" ry="2.39"/><path class="cls-1" d="M668.89 348.34a2.4 2.4 0 1 0-2.46-2.39 2.43 2.43 0 0 0 2.46 2.39z"/><ellipse class="cls-1" cx="668.89" cy="372.51" rx="2.47" ry="2.39"/><ellipse class="cls-1" cx="668.89" cy="399.08" rx="2.47" ry="2.39"/><ellipse class="cls-1" cx="668.89" cy="425.65" rx="2.47" ry="2.39"/><path class="cls-1" d="M668.89 454.61a2.4 2.4 0 1 0-2.46-2.39 2.43 2.43 0 0 0 2.46 2.39zm193.78-186.97a2.4 2.4 0 1 0-2.47-2.4 2.43 2.43 0 0 0 2.47 2.4zm0 27.57a2.4 2.4 0 1 0-2.47-2.4 2.43 2.43 0 0 0 2.47 2.4zm0 26.56a2.39 2.39 0 1 0-2.47-2.39 2.42 2.42 0 0 0 2.47 2.39zm0 26.57a2.4 2.4 0 1 0-2.47-2.34 2.42 2.42 0 0 0 2.47 2.34zm0 26.57a2.4 2.4 0 1 0-2.47-2.4 2.43 2.43 0 0 0 2.47 2.4zm0 26.57a2.4 2.4 0 1 0-2.47-2.4 2.43 2.43 0 0 0 2.47 2.4zm0 26.52a2.39 2.39 0 1 0-2.47-2.39 2.42 2.42 0 0 0 2.47 2.39zm0 26.61a2.4 2.4 0 1 0-2.47-2.39 2.42 2.42 0 0 0 2.47 2.39zM835 267.64a2.4 2.4 0 1 0-2.47-2.4 2.43 2.43 0 0 0 2.47 2.4zm0 27.57a2.4 2.4 0 1 0-2.47-2.4 2.43 2.43 0 0 0 2.47 2.4zm0 26.56a2.39 2.39 0 1 0-2.47-2.39 2.42 2.42 0 0 0 2.47 2.39zm0 26.57a2.4 2.4 0 1 0-2.47-2.39 2.42 2.42 0 0 0 2.47 2.39zm0 26.57a2.4 2.4 0 1 0-2.47-2.4 2.43 2.43 0 0 0 2.47 2.4zm0 26.57a2.4 2.4 0 1 0-2.47-2.4 2.43 2.43 0 0 0 2.47 2.4zm0 26.52a2.39 2.39 0 1 0-2.47-2.39A2.42 2.42 0 0 0 835 428zm0 26.61a2.4 2.4 0 1 0-2.47-2.39 2.42 2.42 0 0 0 2.47 2.39zm-25.77-186.97a2.4 2.4 0 1 0-2.47-2.4 2.44 2.44 0 0 0 2.47 2.4zm0 27.57a2.4 2.4 0 1 0-2.47-2.4 2.44 2.44 0 0 0 2.47 2.4zm0 26.56a2.39 2.39 0 1 0-2.47-2.39 2.43 2.43 0 0 0 2.47 2.39zm0 26.57a2.4 2.4 0 1 0-2.47-2.39 2.43 2.43 0 0 0 2.47 2.39zm0 26.57a2.4 2.4 0 1 0-2.47-2.4 2.44 2.44 0 0 0 2.47 2.4zm0 26.57a2.4 2.4 0 1 0-2.47-2.4 2.44 2.44 0 0 0 2.47 2.4zm0 26.52a2.39 2.39 0 1 0-2.47-2.39 2.43 2.43 0 0 0 2.47 2.39zm0 26.61a2.4 2.4 0 1 0-2.47-2.39 2.43 2.43 0 0 0 2.47 2.39zM779.5 267.64a2.4 2.4 0 1 0-2.46-2.4 2.44 2.44 0 0 0 2.46 2.4zm0 27.57a2.4 2.4 0 1 0-2.46-2.4 2.44 2.44 0 0 0 2.46 2.4zm0 26.56a2.39 2.39 0 1 0-2.46-2.39 2.43 2.43 0 0 0 2.46 2.39zm0 26.57A2.4 2.4 0 1 0 777 346a2.43 2.43 0 0 0 2.5 2.34zm0 26.57a2.4 2.4 0 1 0-2.46-2.4 2.44 2.44 0 0 0 2.46 2.4zm0 26.57a2.4 2.4 0 1 0-2.46-2.4 2.44 2.44 0 0 0 2.46 2.4zm0 26.52a2.39 2.39 0 1 0-2.46-2.39 2.43 2.43 0 0 0 2.46 2.39zm0 26.61a2.4 2.4 0 1 0-2.46-2.39 2.43 2.43 0 0 0 2.46 2.39z"/></g></g></svg>