<svg width="1050" height="703" viewBox="0 0 1050 703" fill="none" xmlns="http://www.w3.org/2000/svg">
<g clip-path="url(#clip0)">
<path d="M451.133 99.868C293.724 89.8944 237.929 167.515 157.852 247.882C77.9184 328.105 40.915 412.952 87.4584 533.503C134.002 654.197 243.712 684.841 415.864 684.841C588.162 684.841 765.518 701.608 855.281 635.985C945.042 570.361 975.686 420.468 845.596 341.981C768.988 295.726 668.673 113.455 451.133 99.868Z" fill="#E3DFFF"/>
<path d="M183.91 657.453C182.089 635.45 174.957 614.662 167.977 594.025C160.997 573.54 153.107 551.993 152.651 530.142C152.5 520.735 156.748 501.464 170.254 505.106C174.806 506.318 177.688 511.326 179.661 515.12C182.392 520.128 184.517 525.59 186.338 531.053C193.317 551.537 194.683 573.388 194.531 594.935C194.531 611.02 193.317 627.256 194.683 643.492C194.836 644.403 196.201 644.555 196.201 643.492C196.201 620.882 197.415 598.275 201.36 575.968C203.333 565.347 205.913 554.875 208.946 544.405C210.009 540.765 213.498 534.999 217.292 534.087C222.907 532.57 229.888 534.24 232.163 540.309C240.357 563.07 233.377 587.652 225.789 609.654C222.604 618.91 219.418 628.167 215.32 637.12C211.982 644.403 208.644 651.686 205.457 658.97C204.547 661.095 203.636 663.219 202.726 665.494C202.422 666.406 203.789 666.861 204.243 665.95C210.009 652.142 217.141 638.788 222.149 624.676C229.736 603.585 238.233 581.886 237.171 558.973C237.019 553.966 236.108 548.958 234.895 544.103C233.681 539.702 232.316 536.364 228.369 533.936C225.638 532.268 221.997 532.115 218.962 532.419C215.017 532.873 213.651 533.936 211.375 537.274C210.616 538.488 208.644 540.309 208.188 541.675C207.429 544.254 206.671 546.834 205.913 549.262C204.394 554.724 203.029 560.188 201.815 565.65C199.539 575.665 198.022 585.831 196.808 596.149C194.987 611.931 194.531 627.712 194.531 643.645C194.987 643.645 195.594 643.645 196.05 643.645C194.531 625.132 196.05 606.468 195.897 587.803C195.594 566.712 193.317 545.62 185.731 525.894C182.999 518.609 179.661 509.961 173.136 505.257C166.309 500.401 158.721 505.713 155.079 511.631C150.072 519.521 150.375 529.991 151.437 538.944C152.651 549.262 155.079 559.276 157.962 569.14C166.46 598.577 179.661 626.802 182.089 657.604C182.392 658.363 183.91 658.363 183.91 657.453Z" fill="#F59E0B"/>
<path d="M183.758 657.15C183.302 652.902 182.847 648.804 182.088 644.556C181.937 643.796 180.571 643.949 180.571 644.708C180.874 648.956 181.481 653.054 182.088 657.301C182.239 658.213 183.758 657.909 183.605 656.847C183 652.749 182.392 648.804 182.088 644.708C181.632 644.708 181.025 644.859 180.571 644.859C181.481 648.804 181.937 652.902 182.239 656.999C182.392 658.06 183.909 658.06 183.758 657.15Z" fill="#F59E0B"/>
<path d="M162.969 657.757C156.596 640.763 143.091 628.32 131.104 615.269C124.731 608.291 118.661 600.854 114.412 592.357C110.315 584.316 104.853 572.176 110.315 563.679C115.171 556.243 125.641 562.313 130.8 565.803C137.477 570.355 142.788 576.272 147.795 582.494C161.755 599.64 172.377 619.67 178.295 640.914C179.813 646.073 180.874 651.535 181.786 656.848C181.937 657.757 183.454 657.455 183.302 656.392C179.964 635.755 172.074 616.029 160.996 598.275C152.347 584.467 141.725 569.596 127.158 561.706C122.454 559.127 116.233 557.154 111.377 560.339C105.156 564.437 106.218 573.542 107.736 579.762C112.288 597.365 124.731 610.87 136.87 623.767C146.581 634.085 156.292 644.708 161.452 658.213C161.907 658.971 163.424 658.667 162.969 657.757Z" fill="#F59E0B"/>
<path d="M222.299 543.496C212.285 559.125 214.106 579.155 211.071 596.756C209.25 606.923 205.607 616.483 203.788 626.649C201.815 637.272 199.69 647.893 197.11 658.514C196.807 659.425 198.324 659.881 198.629 658.97C201.055 648.804 203.181 638.788 205.002 628.47C206.67 618.91 210.008 609.654 211.981 600.094C213.802 590.99 214.56 581.734 215.319 572.63C216.23 562.767 218.051 552.903 223.513 544.406C224.12 543.344 222.906 542.584 222.299 543.496Z" fill="#F59E0B"/>
<path d="M165.549 520.584C166.307 531.963 170.101 542.889 172.681 553.966C175.563 566.257 177.991 578.852 180.571 591.294C182.999 603.434 185.123 615.572 187.703 627.712C190.434 640.154 192.558 652.901 192.558 665.647C192.558 666.557 194.076 666.557 194.076 665.647C194.076 654.115 192.255 642.734 189.978 631.505C187.398 618.912 184.972 606.468 182.543 593.874C180.115 581.886 177.84 569.748 175.107 557.759C172.376 545.468 167.824 533.329 167.066 520.584C166.914 519.672 165.396 519.672 165.549 520.584Z" fill="#F59E0B"/>
<path d="M127.764 583.858C139.145 594.784 148.552 607.53 157.202 620.58C161.602 627.256 165.547 634.236 169.493 641.217C173.892 648.956 176.472 657.15 179.659 665.496C179.963 666.406 181.48 665.95 181.177 665.04C178.293 657.604 176.169 650.018 172.376 642.887C168.279 635.45 164.03 628.016 159.478 620.884C150.677 607.226 140.965 593.874 129.13 582.644C128.219 582.19 127.005 583.251 127.764 583.858Z" fill="#F59E0B"/>
<path d="M129.89 604.342C139.147 610.564 149.161 615.421 157.962 622.248C158.721 622.855 159.783 621.792 159.025 621.187C150.224 614.206 140.057 609.199 130.649 602.977C129.89 602.522 129.132 603.737 129.89 604.342Z" fill="#F59E0B"/>
<path d="M155.23 603.13C158.568 607.53 160.541 613.297 162.514 618.456C164.789 624.828 166.459 631.505 167.976 638.181C168.129 639.091 169.646 638.789 169.494 637.726C167.824 630.747 166.156 623.767 163.576 617.089C161.755 612.083 159.782 606.619 156.444 602.371C155.989 601.611 154.623 602.371 155.23 603.13Z" fill="#F59E0B"/>
<path d="M205.153 585.528C205.607 591.9 208.794 597.819 208.947 604.191C208.947 605.102 210.464 605.102 210.464 604.191C210.313 597.666 207.126 591.9 206.67 585.528C206.67 584.465 205.153 584.465 205.153 585.528Z" fill="#F59E0B"/>
<path d="M175.564 532.115C173.44 538.791 173.743 546.074 172.833 552.903C172.682 553.813 174.198 553.813 174.35 552.903C175.261 546.074 174.957 539.095 177.081 532.417C177.385 531.659 175.868 531.203 175.564 532.115Z" fill="#F59E0B"/>
<path d="M163.576 559.734C166.915 564.437 169.646 569.445 173.135 574.148C176.322 578.398 178.902 582.494 179.964 587.805C180.116 588.716 181.633 588.412 181.481 587.351C180.418 582.799 178.599 579.459 176.019 575.667C172.226 570.203 168.735 564.437 164.941 558.975C164.335 558.217 162.969 558.975 163.576 559.734Z" fill="#F59E0B"/>
<path d="M187.854 578.093C186.336 587.501 184.819 596.756 183.909 606.165C183.756 607.075 185.275 607.075 185.426 606.165C186.336 596.909 187.854 587.652 189.371 578.396C189.523 577.638 188.006 577.182 187.854 578.093Z" fill="#F59E0B"/>
<path d="M227.914 553.966C224.12 563.828 217.747 572.479 213.348 581.886C212.892 582.797 214.257 583.555 214.713 582.644C219.265 573.086 225.639 564.284 229.432 554.421C229.735 553.51 228.218 553.056 227.914 553.966Z" fill="#F59E0B"/>
<path d="M756.844 682.097C754.099 675.302 750.485 669.232 745.426 663.883C739.211 657.09 731.115 652.609 725.622 645.092C720.275 637.721 715.649 629.481 711.168 621.531C708.567 616.907 706.398 612.136 705.531 606.788C704.663 601.585 704.953 596.236 705.241 591.033C704.809 591.177 704.519 591.467 704.086 591.611C707.554 593.056 710.156 595.803 712.903 598.261C715.649 600.718 718.974 602.597 722.01 604.764C728.948 609.823 735.307 616.617 740.366 623.556C745.136 630.06 748.46 637.576 751.641 644.948C754.387 651.309 756.7 658.535 760.747 664.172C761.181 664.75 762.337 664.462 762.049 663.593C756.988 648.995 754.965 633.529 755.399 618.207C755.544 611.27 756.41 604.186 757.567 597.248C758.579 590.599 760.17 583.805 763.638 577.878C763.204 577.878 762.771 577.878 762.337 577.878C764.072 581.06 764.36 584.672 765.083 588.286C765.807 592.334 767.252 596.092 768.697 599.85C771.878 608.088 773.611 617.051 775.202 625.723C776.937 634.974 777.369 643.647 775.924 653.042C774.624 661.57 772.31 669.954 770.431 678.483C770.287 679.205 771.3 679.784 771.732 679.061C774.334 673.857 776.647 668.654 778.816 663.305C781.129 657.524 782.718 651.453 784.741 645.526C787.922 636.275 793.559 627.892 802.376 623.266C812.928 617.773 837.211 612.28 839.958 629.481C840.246 629.193 840.68 628.903 840.97 628.615C824.926 621.821 812.494 636.853 804.399 648.706C798.906 656.8 793.269 664.317 787.054 671.833C784.597 674.869 782.43 678.483 779.538 681.084C776.937 683.397 772.022 686.866 768.408 686.577C767.54 686.433 767.54 687.878 768.408 688.022C773.179 688.456 779.972 683.542 782.574 679.928C788.067 672.412 794.57 665.618 800.063 658.102C809.026 645.67 821.022 621.821 840.246 629.915C840.824 630.204 841.403 629.771 841.259 629.047C838.513 611.992 816.252 615.894 804.833 620.52C796.161 624.133 790.09 630.35 786.042 638.732C783.152 644.515 781.705 650.73 779.682 656.8C777.225 664.172 773.901 671.255 770.431 678.193C770.866 678.337 771.3 678.627 771.732 678.771C773.611 669.954 776.068 661.136 777.369 652.175C778.672 643.503 778.237 635.264 776.647 626.736C775.058 617.485 773.033 608.234 769.853 599.416C768.408 595.658 767.108 591.9 766.239 587.853C765.517 584.239 765.083 580.626 763.35 577.156C763.06 576.723 762.337 576.723 762.049 577.156C755.399 588.432 754.531 603.029 753.665 615.75C752.652 631.939 754.965 648.706 760.314 664.172C760.747 664.028 761.181 663.739 761.615 663.593C757.278 657.668 754.821 649.862 751.93 643.213C748.462 635.408 744.848 627.747 739.643 620.953C735.019 614.882 729.382 609.101 723.311 604.476C719.841 601.729 715.939 599.561 712.613 596.67C710.012 594.357 707.554 592.044 704.231 590.599C703.652 590.311 703.218 590.599 703.074 591.177C702.352 600.428 702.784 609.391 706.832 617.917C711.024 626.736 716.517 635.118 721.72 643.213C724.033 646.682 726.49 649.862 729.526 652.753C732.85 655.933 736.608 658.39 740.077 661.426C746.581 667.353 751.351 674.579 754.677 682.673C755.832 683.397 757.134 682.963 756.844 682.097Z" fill="#624DE3"/>
<path d="M747.015 683.109C738.777 669.81 732.272 651.887 716.661 645.817C708.277 642.636 698.159 644.371 690.354 648.129C681.537 652.321 674.455 659.837 668.238 667.209C667.805 667.787 668.238 668.655 668.962 668.365C682.403 664.463 699.172 663.595 711.602 670.967C717.528 674.436 722.154 680.508 726.924 685.422C729.96 688.746 732.272 694.239 737.042 695.395C737.909 695.684 738.343 694.239 737.476 693.951C734.296 693.227 732.127 689.614 730.248 687.157C728.514 684.844 726.49 682.821 724.467 680.652C719.697 675.593 714.926 670.388 708.423 667.499C696.136 662.294 681.248 663.017 668.672 666.776C668.962 667.209 669.106 667.643 669.394 667.931C680.814 654.49 697.293 640.468 716.373 646.972C724.177 649.719 729.814 656.801 734.151 663.451C738.487 669.956 741.812 677.038 746.004 683.543C746.293 684.554 747.449 683.831 747.015 683.109Z" fill="#624DE3"/>
<path d="M725.045 620.234C730.827 632.52 741.235 641.625 748.751 652.755C752.509 658.248 755.689 664.463 758.436 670.534C761.904 678.05 760.747 685.712 760.747 693.662C760.747 694.529 762.194 694.529 762.194 693.662C762.194 686.869 763.35 679.785 761.181 673.281C758.868 666.488 754.822 659.983 751.208 653.912C743.98 641.625 732.416 632.374 726.347 619.365C725.913 618.643 724.756 619.365 725.045 620.234Z" fill="#624DE3"/>
<path d="M705.244 657.378C715.939 663.015 726.347 668.941 733.863 678.77C736.464 682.239 739.066 685.853 741.813 689.177C742.536 690.189 744.849 693.947 746.438 693.803C747.306 693.659 747.306 692.213 746.438 692.357C745.283 692.503 741.379 686.142 740.801 685.419C738.343 682.239 736.03 678.915 733.573 675.734C726.635 666.773 716.084 661.28 706.11 656.077C705.244 655.788 704.52 656.944 705.244 657.378Z" fill="#624DE3"/>
<path d="M765.228 617.775C765.372 624.134 767.107 630.205 767.83 636.566C768.698 644.082 767.974 651.887 766.817 659.404C764.794 673.136 765.662 687.157 761.904 700.744C762.337 700.744 762.915 700.888 763.349 700.888C763.349 700.31 763.349 699.732 763.349 699.298C763.349 698.431 761.904 698.431 761.904 699.298C761.904 699.876 761.904 700.454 761.904 700.888C761.904 701.755 763.059 701.901 763.349 701.033C766.963 687.88 766.673 674.292 768.12 660.849C768.842 653.622 769.853 646.54 769.42 639.168C769.13 631.94 766.817 625.002 766.673 617.775C766.673 616.762 765.228 616.762 765.228 617.775Z" fill="#624DE3"/>
<path d="M812.205 626.88C801.219 633.819 793.125 645.96 786.766 657.236C780.694 668.076 775.346 681.374 763.349 686.721C762.481 687.156 763.203 688.312 764.072 688.024C774.767 683.253 780.55 672.123 785.753 662.294C792.403 649.864 800.785 635.987 812.927 628.326C813.794 627.604 813.072 626.302 812.205 626.88Z" fill="#624DE3"/>
<path d="M511.822 373.848C511.822 381.89 505.297 388.415 497.254 388.415C489.212 388.415 482.688 381.89 482.688 373.848V363.681C482.688 355.64 489.212 349.115 497.254 349.115C505.297 349.115 511.822 355.64 511.822 363.681V373.848Z" fill="#624DE3"/>
<path d="M660.83 533.48C656.733 513.753 639.283 460.492 596.795 441.221C554.309 421.95 514.401 437.579 499.681 446.532C484.962 455.485 467.968 490.385 460.229 523.009C452.641 555.634 426.694 555.178 406.513 562.461L415.921 596.452L623.501 597.817C623.501 597.817 623.501 597.817 623.957 592.507C678.28 589.471 664.775 553.205 660.83 533.48ZM448.394 585.678C456.739 585.678 493.612 557.909 501.198 558.82C504.992 579.153 505.448 589.927 505.903 591.293C506.358 592.507 450.669 602.369 448.394 585.678Z" fill="#7965EF"/>
<path d="M522.14 456.092C519.409 468.99 508.483 547.439 527.148 599.031C541.714 600.246 563.565 599.031 563.565 599.031C559.315 571.87 550.969 496.758 568.268 453.663C551.122 453.968 522.14 456.092 522.14 456.092Z" fill="#FEF3C7"/>
<path d="M531.7 432.875C516.981 433.786 513.49 449.72 520.167 459.583C526.843 469.445 539.59 461.404 541.865 456.396C557.799 471.418 578.587 457.913 582.988 435.455C582.988 433.635 557.647 428.779 531.7 432.875Z" fill="#FEF3C7"/>
<path d="M573.732 351.846C573.125 336.977 557.799 308.601 521.533 310.118C495.737 312.091 492.55 336.521 492.55 336.521C491.64 339.252 487.088 345.019 487.088 345.019C485.722 333.637 493.006 303.138 525.629 302.379C562.351 301.47 579.801 330.148 580.559 350.785C577.526 355.793 573.732 351.846 573.732 351.846Z" fill="#624DE3"/>
<path d="M501.807 323.775C489.363 332.272 481.928 346.384 488.302 360.496C494.522 374.607 496.343 380.678 490.274 391.754C481.777 407.232 478.135 421.647 484.508 434.848C523.353 429.537 540.499 425.136 540.499 425.136C540.499 425.136 525.477 322.105 501.807 323.775Z" fill="#171347"/>
<path d="M559.467 394.485C559.467 394.485 569.027 423.468 569.937 435.759C570.697 446.987 533.671 454.422 530.94 442.738C528.209 428.779 524.112 404.955 524.112 404.955" fill="#C97440"/>
<path d="M562.653 406.623L559.619 394.485L524.414 404.804C524.414 404.804 525.628 412.087 527.298 421.343C529.878 421.798 532.609 422.101 535.34 421.95C546.721 421.494 556.584 415.425 562.653 406.623Z" fill="#AB5D2D"/>
<path d="M497.86 380.373C498.771 399.644 515.007 414.666 534.279 413.757C553.55 412.847 568.572 396.611 567.661 377.339L565.993 340.466C565.081 321.195 548.845 306.173 529.574 307.083C510.304 307.994 495.28 324.23 496.192 343.502L497.86 380.373Z" fill="#C97440"/>
<path d="M543.99 342.136C539.589 339.708 533.824 338.647 529.119 341.073C527.451 341.985 528.968 344.564 530.638 343.653C534.278 341.833 538.983 342.895 542.473 344.716C544.141 345.779 545.66 343.046 543.99 342.136Z" fill="#31241C"/>
<path d="M501.806 347.143C503.932 345.17 506.814 344.41 509.696 345.017C511.518 345.473 512.429 342.437 510.457 342.135C506.663 341.376 502.565 342.286 499.682 345.017C498.317 346.231 500.441 348.355 501.806 347.143Z" fill="#31241C"/>
<path d="M522.746 374C522.442 374 522.139 373.848 521.988 373.697L515.159 367.628C514.856 367.324 514.703 367.021 514.856 366.716C515.007 366.414 515.159 365.958 515.463 365.807L522.29 362.013C522.898 361.709 523.505 361.862 523.809 362.469C524.112 363.076 523.96 363.681 523.353 363.986L517.89 367.021L523.505 372.027C523.96 372.483 523.96 373.09 523.656 373.697C523.353 373.848 523.049 374 522.746 374Z" fill="#31241C"/>
<path d="M525.175 383.713C523.354 383.713 521.532 383.257 520.167 382.194C519.711 381.892 519.56 381.133 519.862 380.678C520.167 380.222 520.925 380.07 521.381 380.373C523.354 381.74 526.54 381.74 528.816 380.526C530.181 379.766 531.699 378.249 531.546 375.214C531.546 374.609 532.002 374.001 532.609 374.001C533.216 374.001 533.823 374.456 533.823 375.063C533.975 378.401 532.609 380.98 529.878 382.499C528.513 383.257 526.843 383.713 525.175 383.713Z" fill="#31241C"/>
<path d="M530.334 361.406C531.092 363.53 533.672 364.744 535.796 363.834C537.92 363.074 539.134 360.495 538.224 358.371C537.466 356.247 534.886 355.033 532.761 355.942C530.637 356.702 529.574 359.282 530.334 361.406Z" fill="#1A191F"/>
<path d="M504.993 362.923C505.753 365.047 508.332 366.261 510.456 365.351C512.58 364.593 513.794 362.013 512.885 359.888C512.124 357.764 509.545 356.55 507.421 357.461C505.146 358.219 504.083 360.799 504.993 362.923Z" fill="#1A191F"/>
<path d="M506.056 361.86C505.903 361.86 505.752 361.86 505.6 361.709L501.504 359.129C501.048 358.825 500.897 358.218 501.199 357.764C501.504 357.308 502.111 357.157 502.565 357.459L506.663 360.039C507.117 360.343 507.27 360.95 506.966 361.404C506.663 361.709 506.359 361.86 506.056 361.86Z" fill="#1A191F"/>
<path d="M536.099 360.496C535.797 360.496 535.492 360.345 535.341 360.041C535.038 359.587 535.19 358.979 535.645 358.675L540.045 355.641C540.5 355.337 541.107 355.488 541.41 355.944C541.714 356.4 541.563 357.007 541.107 357.31L536.706 360.345C536.555 360.345 536.404 360.496 536.099 360.496Z" fill="#1A191F"/>
<path d="M601.045 380.677C595.278 368.233 602.41 360.495 599.375 348.508C596.644 338.038 584.353 338.492 577.828 323.622C567.965 301.014 517.587 280.68 498.923 326.506C519.862 312.393 541.259 319.677 549.301 330.148C565.688 351.239 548.845 360.192 555.219 372.786C559.771 381.89 562.806 388.112 556.888 401.92C550.971 415.729 559.315 428.93 559.315 428.93C578.891 426.806 600.893 424.834 620.923 421.496C620.77 387.809 606.811 393.12 601.045 380.677Z" fill="#171347"/>
<path d="M512.276 553.661C495.282 555.178 488.755 560.186 473.431 568.228C458.256 576.271 454.918 578.09 458.56 579.609C449.607 580.216 454.766 584.919 461.14 582.947C456.89 584.768 462.808 586.741 471.154 583.554C473.279 586.892 484.052 585.375 490.881 581.43C497.708 577.483 514.098 574.298 529.12 579.304C530.941 570.049 525.174 553.964 525.174 553.964L512.276 553.661Z" fill="#C97440"/>
<path d="M523.201 553.813C532.305 551.84 558.102 549.716 573.277 550.628C574.186 562.614 567.662 586.741 567.662 586.741L527.148 577.789C526.995 577.789 528.967 565.043 523.201 553.813Z" fill="#624DE3"/>
<path d="M522.443 554.117C540.501 551.537 558.861 551.537 577.069 551.083C585.871 550.779 594.368 549.869 603.018 548.806C611.363 547.897 621.074 549.716 629.117 551.993C630.027 552.296 630.483 550.779 629.573 550.476C622.288 548.199 613.639 546.834 605.901 546.985C602.107 547.137 598.313 547.897 594.519 548.351C589.209 549.109 583.898 549.109 578.739 549.413C559.772 550.02 540.956 549.869 522.141 552.6C520.926 552.751 521.38 554.268 522.443 554.117Z" fill="#1F0E03"/>
<path d="M603.17 507.533C604.84 520.128 605.749 532.873 605.901 545.468C605.901 546.378 607.419 546.378 607.419 545.468C607.419 532.57 606.508 519.824 604.687 507.078C604.535 506.167 603.018 506.623 603.17 507.533Z" fill="#1F0E03"/>
<path d="M525.781 578.546C531.243 578.546 536.403 580.974 541.562 582.34C547.784 584.01 553.853 586.133 559.922 587.803C572.366 591.293 585.415 593.417 598.313 594.175C618.95 595.389 643.835 594.328 659.313 579.002C660.071 578.243 659.008 577.18 658.25 577.939C642.014 594.024 615.308 594.024 594.064 592.355C581.317 591.444 568.572 588.713 556.281 585.224C550.818 583.554 545.356 581.884 539.741 580.216C535.189 578.85 530.636 576.878 525.781 577.029C524.719 577.029 524.719 578.546 525.781 578.546Z" fill="#1F0E03"/>
<path d="M495.434 491.904C494.066 496 494.522 500.401 494.522 504.65C494.673 510.417 494.978 516.334 495.281 522.101C495.585 527.867 495.736 533.631 496.192 539.246C496.646 544.557 498.619 549.565 498.923 554.724C498.923 555.634 500.44 555.634 500.44 554.724C500.137 549.869 498.316 545.468 497.86 540.612C497.406 535.301 497.102 530.142 496.95 524.831C496.646 519.521 496.343 514.209 496.192 508.898C496.039 503.588 495.129 497.366 496.95 492.206C497.253 491.448 495.736 490.994 495.434 491.904Z" fill="#1F0E03"/>
<path d="M518.498 440.009C516.07 448.353 514.401 459.127 523.808 463.831C527.146 465.5 531.091 464.742 534.278 463.224C536.555 462.162 538.528 460.493 540.5 458.824C542.473 457.155 543.231 459.734 544.901 460.948C558.709 470.811 576.917 457.155 581.47 443.498C581.774 442.588 580.255 442.133 579.953 443.042C575.096 457.61 554.157 470.962 542.17 456.092C541.866 455.789 541.41 455.789 541.107 456.092C536.099 460.644 529.575 465.956 522.899 461.707C515.462 457.154 517.891 447.14 519.712 440.463C520.168 439.553 518.649 439.097 518.498 440.009Z" fill="#1F0E03"/>
<path d="M470.396 584.771C475.251 583.86 479.045 580.977 482.99 578.398C488.605 574.908 494.827 572.934 500.744 570.508C501.654 570.203 501.2 568.686 500.289 568.989C495.281 571.115 490.275 572.783 485.418 575.211C480.259 577.791 475.707 582.343 469.789 583.253C469.031 583.557 469.486 584.923 470.396 584.771Z" fill="#1F0E03"/>
<path d="M459.622 584.768C471.762 579.609 482.838 572.477 495.281 568.076C496.191 567.773 495.737 566.255 494.825 566.559C482.231 570.96 471.003 578.243 458.864 583.402C457.952 583.858 458.712 585.071 459.622 584.768Z" fill="#1F0E03"/>
<path d="M456.892 581.125C461.595 578.243 467.059 576.878 472.067 574.298C476.922 571.718 481.778 569.139 486.785 566.862C487.696 566.406 486.938 565.192 486.026 565.496C481.018 567.772 476.163 570.351 471.307 572.931C466.452 575.511 460.988 576.878 456.133 579.76C455.375 580.367 456.133 581.581 456.892 581.125Z" fill="#1F0E03"/>
<path d="M535.645 468.991C536.099 471.722 539.892 471.571 541.258 469.446C542.018 468.231 541.258 466.866 540.197 466.259C538.831 465.5 537.01 465.652 536.099 466.866C535.492 467.624 536.859 468.384 537.466 467.624C538.071 466.715 540.955 467.624 539.893 468.687C539.134 469.446 537.464 469.597 537.313 468.384C536.859 467.624 535.492 468.08 535.645 468.991Z" fill="#1F0E03"/>
<path d="M533.519 480.22C533.065 482.951 536.25 483.709 538.071 482.192C538.983 481.434 539.437 479.917 538.679 478.854C537.92 477.791 536.25 477.943 535.189 478.247C534.278 478.55 534.582 480.068 535.645 479.764C536.25 479.612 537.01 479.31 537.464 479.764C537.92 480.068 537.313 480.827 537.01 481.129C536.403 481.585 534.885 481.889 535.038 480.675C535.189 479.764 533.672 479.31 533.519 480.22Z" fill="#1F0E03"/>
<path d="M532.609 494.786C532.761 497.821 537.161 496.607 537.617 494.332C538.224 491.599 533.216 489.931 532.761 492.966C532.609 493.876 534.128 494.332 534.279 493.42C534.431 492.206 536.1 493.118 536.1 494.027C536.1 494.786 534.128 495.697 533.975 494.786C534.128 493.876 532.609 493.876 532.609 494.786Z" fill="#1F0E03"/>
<path d="M503.172 577.788C503.02 580.064 503.323 582.644 504.083 584.768C504.386 585.678 505.903 585.224 505.6 584.312C504.841 582.34 504.537 579.911 504.69 577.788C504.69 576.878 503.172 576.878 503.172 577.788Z" fill="#1F0E03"/>
<path d="M522.14 554.27C525.023 556.244 525.174 560.189 525.934 563.223C526.995 567.321 527.754 572.327 525.934 576.273C525.478 577.184 526.844 577.942 527.299 577.033C529.272 572.48 528.514 567.473 527.451 562.769C526.541 559.127 526.085 555.182 522.899 552.905C521.987 552.451 521.229 553.665 522.14 554.27Z" fill="#1F0E03"/>
<path d="M485.417 382.648C482.989 400.403 509.241 400.403 520.469 399.796C521.379 399.796 521.379 398.279 520.469 398.279C510.453 398.733 484.659 399.189 486.934 382.953C487.086 382.041 485.569 381.587 485.417 382.648Z" fill="#1F0E03"/>
<path d="M529.271 398.886C529.271 401.466 526.692 403.438 523.656 403.438C520.623 403.438 518.043 401.466 518.043 398.886C518.043 396.306 520.47 394.334 523.656 394.334C526.843 394.334 529.271 396.306 529.271 398.886Z" fill="#FFBC45"/>
<path d="M525.629 302.531C506.964 302.986 496.648 313.002 491.488 323.775C493.308 323.926 495.129 324.533 496.799 325.293C500.593 318.615 508.027 311.332 521.684 310.269C557.949 308.601 573.276 337.128 573.883 351.999C573.883 351.999 577.677 355.944 580.559 351.088C579.801 330.299 562.35 301.621 525.629 302.531Z" fill="#624DE3"/>
<path d="M592.244 373.848C592.244 381.89 585.719 388.415 577.677 388.415C569.634 388.415 563.109 381.89 563.109 373.848V363.681C563.109 355.64 569.634 349.115 577.677 349.115C585.719 349.115 592.244 355.64 592.244 363.681V373.848Z" fill="#624DE3"/>
<path d="M588.905 372.332C588.298 382.196 575.097 384.471 571.455 375.215C570.392 372.485 570.999 368.538 570.999 365.655C570.999 355.488 584.96 353.82 588.449 362.773C589.512 365.504 588.905 369.449 588.905 372.332C588.905 373.243 590.422 373.243 590.422 372.332C590.422 366.263 591.029 360.345 585.262 356.551C578.284 351.999 569.938 358.068 569.482 365.504C569.178 371.422 569.178 377.644 574.641 381.285C581.622 385.837 589.968 379.768 590.422 372.332C590.422 371.27 588.905 371.27 588.905 372.332Z" fill="#1F0E03"/>
<path d="M417.741 584.617C426.087 584.617 528.967 584.617 534.431 584.617C539.741 584.617 540.955 595.389 532.002 595.389C523.049 595.389 264.331 595.389 264.331 595.389C256.29 579.304 220.175 480.825 216.535 471.569C212.892 462.314 216.23 451.54 230.798 451.54C245.364 451.54 322.753 451.54 333.374 451.54C344.148 451.54 355.983 453.361 363.571 469.748C371.157 486.136 417.741 584.617 417.741 584.617Z" fill="#99ABCE"/>
<path d="M534.733 594.933C535.037 594.782 535.34 594.631 535.643 594.478C535.643 594.478 535.643 594.478 535.796 594.478C540.348 591.898 538.829 584.615 534.43 584.615C533.519 584.615 530.03 584.615 524.87 584.615C498.011 584.615 424.721 584.615 417.741 584.615C417.741 584.615 417.741 584.463 417.589 584.463C417.589 584.312 417.438 584.159 417.438 584.008C416.982 583.098 416.224 581.428 415.01 579C404.996 557.758 370.095 483.859 363.722 469.748C356.286 453.359 344.299 451.538 333.525 451.538C331.857 451.538 328.517 451.538 323.965 451.538C334.739 451.538 346.574 453.359 354.162 469.748C361.598 486.135 408.182 584.615 408.182 584.615L412.279 595.085C412.279 595.085 417.287 595.236 425.328 595.389C467.056 595.389 505.296 595.389 522.442 595.389C527.753 595.389 531.091 595.389 532.002 595.389C532.609 595.389 533.063 595.389 533.519 595.236C533.823 595.236 534.126 595.085 534.277 595.085C534.43 595.085 534.582 595.085 534.733 594.933Z" fill="#49687A"/>
<path d="M320.78 524.981C323.663 532.264 320.173 538.182 313.042 538.182C305.757 538.182 297.564 532.264 294.529 524.981C291.646 517.696 295.136 511.779 302.267 511.779C309.551 511.779 317.896 517.696 320.78 524.981Z" stroke="#1F0E03" stroke-width="1.50929" stroke-miterlimit="10"/>
<path d="M671.299 603.737H250.371V670.502C296.5 680.367 358.866 687.498 420.168 688.257C504.081 689.318 591.181 688.408 671.299 684.463V603.737Z" fill="#171347"/>
<path d="M688.75 602.068C688.75 606.014 685.563 609.352 681.467 609.352H240.205C236.26 609.352 232.922 606.165 232.922 602.068C232.922 598.122 236.109 594.784 240.205 594.784H681.618C685.563 594.935 688.75 598.122 688.75 602.068Z" fill="#241E6F"/>
<g filter="url(#filter0_d)">
<path d="M438.226 254.731C438.226 286.9 412.128 312.999 379.958 312.999H166.308C134.138 312.999 108.039 286.9 108.039 254.731V177.95C108.039 145.781 134.138 119.682 166.308 119.682H380.109C412.279 119.682 438.378 145.781 438.378 177.95V254.731H438.226Z" fill="#DEF4ED"/>
</g>
<path d="M256.89 150.343H261.364V161.036H271.795V150.343H276.303V174.856H271.795V164.985H261.364V174.856H256.89V150.343ZM281.019 150.343H297.306V154.291H285.494V160.576H296.648V164.524H285.494V170.907H297.306V174.856H281.019V150.343ZM300.588 150.343H305.063V170.907H315.559V174.856H300.588V150.343ZM318.453 150.343H327.6C329.269 150.343 330.749 150.65 332.042 151.264C333.337 151.856 334.336 152.734 335.036 153.896C335.76 155.059 336.122 156.452 336.122 158.075C336.122 159.676 335.76 161.058 335.036 162.221C334.313 163.383 333.304 164.272 332.009 164.886C330.738 165.5 329.269 165.807 327.6 165.807H322.928V174.856H318.453V150.343ZM327.666 161.859C328.874 161.859 329.838 161.519 330.562 160.839C331.285 160.137 331.647 159.216 331.647 158.075C331.647 156.934 331.285 156.024 330.562 155.344C329.838 154.642 328.874 154.291 327.666 154.291H322.928V161.859H327.666ZM341.336 150.343H345.712L345.416 167.419H341.632L341.336 150.343ZM340.875 172.19C340.875 171.445 341.127 170.819 341.632 170.315C342.137 169.811 342.762 169.558 343.507 169.558C344.276 169.558 344.911 169.811 345.416 170.315C345.921 170.819 346.173 171.445 346.173 172.19C346.173 172.958 345.921 173.594 345.416 174.099C344.911 174.603 344.276 174.856 343.507 174.856C342.762 174.856 342.137 174.603 341.632 174.099C341.127 173.572 340.875 172.936 340.875 172.19Z" fill="#B45309"/>
<path d="M407.12 195.703H257.958V205.415H407.12V195.703Z" fill="#B45309"/>
<path d="M386.786 219.223H257.958V228.934H386.786V219.223Z" fill="#B45309"/>
<path d="M343.388 242.742H257.958V252.454H343.388V242.742Z" fill="#B45309"/>
<path d="M396.043 266.263H257.958V275.974H396.043V266.263Z" fill="#B45309"/>
<path d="M228.369 272.335C223.968 261.259 208.491 253.368 200.752 253.52H174.197C165.547 254.278 150.981 261.259 146.58 272.335C156.899 282.654 171.466 289.027 187.549 289.027C203.483 289.027 217.898 282.654 228.369 272.335Z" fill="#31241C"/>
<path d="M176.626 230.91C176.626 230.91 174.047 251.85 172.377 263.534C171.163 272.184 201.967 274.612 203.028 265.355C203.788 254.278 204.849 235.614 204.849 235.614" fill="#C97440"/>
<path d="M175.26 240.47L176.474 230.91L204.547 235.614C204.547 235.614 204.243 241.38 203.787 248.512C201.814 249.119 199.69 249.574 197.566 249.726C188.916 250.484 180.723 246.844 175.26 240.47Z" fill="#AB5D2D"/>
<path d="M222.755 214.368C223.817 229.239 212.741 242.288 197.717 243.351C182.846 244.414 169.797 233.336 168.736 218.314L166.61 189.786C165.549 174.916 176.626 161.866 191.648 160.804C206.519 159.742 219.568 170.819 220.631 185.841L222.755 214.368Z" fill="#C97440"/>
<path d="M185.883 192.974C189.676 192.215 192.712 190.546 194.987 187.359C196.05 185.842 193.47 184.325 192.407 185.842C190.586 188.422 188.007 189.484 185.124 190.091C183.152 190.394 183.91 193.277 185.883 192.974Z" fill="#31241C"/>
<path d="M216.382 187.056C214.258 186.601 212.891 185.691 211.981 183.718C211.071 182.049 208.492 183.566 209.401 185.236C210.767 187.815 212.891 189.333 215.623 189.94C217.596 190.243 218.354 187.36 216.382 187.056Z" fill="#31241C"/>
<path d="M202.875 212.095C202.571 212.095 202.268 211.943 202.117 211.791C201.661 211.336 201.661 210.577 201.964 210.122L205.606 206.025L201.51 204.356C200.903 204.053 200.598 203.446 200.903 202.839C201.205 202.232 201.812 201.928 202.419 202.232L208.034 204.508C208.337 204.66 208.641 204.963 208.641 205.267C208.793 205.57 208.641 206.025 208.337 206.329L203.634 211.64C203.482 211.943 203.178 212.095 202.875 212.095Z" fill="#31241C"/>
<path d="M196.049 223.626C195.744 223.626 195.29 223.474 195.137 223.171C194.834 222.715 194.834 221.957 195.442 221.653C199.994 218.467 203.939 217.253 207.428 217.86C208.035 218.011 208.491 218.619 208.34 219.225C208.188 219.832 207.581 220.288 206.974 220.136C204.09 219.529 200.752 220.743 196.807 223.474C196.503 223.474 196.351 223.626 196.049 223.626Z" fill="#31241C"/>
<path d="M195.896 202.837C195.442 204.657 193.621 205.72 191.951 205.264C190.131 204.809 189.069 202.988 189.524 201.319C189.978 199.498 191.8 198.436 193.469 198.891C195.291 199.195 196.352 201.016 195.896 202.837Z" fill="#1A191F"/>
<path d="M215.623 201.624C215.167 203.445 213.346 204.507 211.678 204.051C209.857 203.596 208.794 201.775 209.25 200.106C209.706 198.285 211.525 197.223 213.195 197.678C215.016 198.134 216.077 199.803 215.623 201.624Z" fill="#1A191F"/>
<path d="M173.894 211.335C175.108 216.646 171.921 221.957 166.611 223.171C161.3 224.385 155.989 221.198 154.775 215.887L154.016 212.852C152.802 207.541 155.989 202.23 161.3 201.017C166.611 199.803 171.921 202.989 173.136 208.3L173.894 211.335Z" fill="#C97440"/>
<path d="M159.024 202.079C156.748 195.554 145.519 168.696 162.21 167.937C163.273 157.467 177.839 151.853 196.201 148.363C214.409 144.721 225.79 153.37 224.423 161.868C223.058 170.365 211.83 173.551 202.877 170.972C200.297 180.228 188.157 177.041 185.426 175.221C183.302 184.173 173.135 186.298 174.35 192.519C175.564 198.74 176.019 205.114 176.322 206.328C176.626 207.541 171.163 210.121 170.102 207.541C168.888 205.114 164.335 200.41 159.024 202.079Z" fill="#31241C"/>
<path d="M209.553 348.355C220.63 350.479 214.257 312.999 214.257 307.232C213.954 307.537 213.803 307.688 213.498 307.991C237.322 308.144 261.146 308.295 284.967 307.991C301.964 307.84 319.11 307.384 336.104 307.384C346.575 307.384 357.045 306.93 367.515 306.625C378.743 306.171 389.973 306.171 400.899 303.287C421.838 297.672 429.426 275.67 431.55 256.247C431.701 255.337 430.184 255.337 430.033 256.247C428.363 270.664 424.114 286.444 412.43 296.004C403.63 303.287 390.883 304.197 379.957 304.653C369.185 305.109 358.259 305.564 347.485 305.716C313.343 306.171 279.05 306.474 244.909 306.474C234.438 306.474 223.817 306.474 213.347 306.323C212.891 306.323 212.589 306.625 212.589 307.081C212.589 311.936 217.595 348.202 209.856 346.685C208.946 346.685 208.491 348.051 209.553 348.355Z" fill="#1F0E03"/>
<path d="M430.791 191.304C430.791 210.12 431.551 229.088 430.337 247.903C430.337 248.815 431.854 248.815 431.854 247.903C433.068 229.088 432.309 210.12 432.309 191.304C432.309 190.394 430.791 190.394 430.791 191.304Z" fill="#1F0E03"/>
<g filter="url(#filter1_d)">
<path d="M1020 437.579C1020 470.961 992.99 497.971 959.608 497.971H737.915C704.531 497.971 677.522 470.961 677.522 437.579V358.066C677.522 324.683 704.531 297.674 737.915 297.674H959.608C992.99 297.674 1020 324.683 1020 358.066V437.579Z" fill="#FFF2D8"/>
</g>
<g filter="url(#filter2_d)">
<path d="M745.956 532.569C735.638 542.431 727.141 542.431 727.141 532.569C727.141 522.704 727.141 506.62 727.141 496.908C727.141 487.045 735.638 479.004 745.956 479.004C756.275 479.004 773.271 479.004 783.589 479.004C793.906 479.004 793.906 487.045 783.589 496.908C773.271 506.773 756.275 522.857 745.956 532.569Z" fill="#FFF2D8"/>
</g>
<path d="M728.531 337.311H722.181V333.363H739.29V337.311H733.039V357.876H728.531V337.311ZM742.021 333.363H746.496V344.056H756.926V333.363H761.434V357.876H756.926V348.005H746.496V357.876H742.021V333.363ZM772.602 333.363H778.393L786.849 357.876H781.979L780.235 352.611H770.759L768.982 357.876H764.145L772.602 333.363ZM778.952 348.663L775.497 338.331L772.042 348.663H778.952ZM789.576 333.363H793.064L804.745 349.09V333.363H809.22V357.876H805.699L794.051 341.852V357.876H789.576V333.363ZM813.964 333.363H818.439V344.254L827.652 333.363H833.278L824.789 343.431L833.575 357.876H828.31L821.729 347.083L818.439 350.999V357.876H813.964V333.363ZM844.727 358.27C842.797 358.27 841.119 357.909 839.693 357.185C838.29 356.461 837.192 355.551 836.403 354.454C835.613 353.335 835.108 352.174 834.889 350.966L839.101 349.847C839.43 351.186 840.088 352.228 841.075 352.973C842.062 353.72 843.301 354.092 844.793 354.092C845.933 354.092 846.854 353.807 847.557 353.236C848.281 352.667 848.643 351.986 848.643 351.196C848.643 350.472 848.379 349.847 847.853 349.321C847.348 348.773 846.657 348.411 845.78 348.235L842.095 347.511C840.142 347.139 838.607 346.294 837.488 344.978C836.37 343.661 835.81 342.061 835.81 340.174C835.81 338.858 836.184 337.652 836.929 336.554C837.697 335.436 838.706 334.559 839.956 333.922C841.228 333.287 842.577 332.968 844.003 332.968C845.824 332.968 847.371 333.276 848.643 333.889C849.914 334.504 850.901 335.283 851.604 336.225C852.328 337.147 852.81 338.124 853.052 339.154L848.873 340.47C848.412 339.285 847.787 338.441 846.997 337.936C846.208 337.41 845.209 337.147 844.003 337.147C843.324 337.147 842.709 337.29 842.161 337.574C841.634 337.861 841.218 338.232 840.91 338.693C840.626 339.132 840.483 339.581 840.483 340.042C840.483 340.766 840.724 341.403 841.206 341.95C841.689 342.477 842.358 342.817 843.214 342.97L846.701 343.727C848.828 344.188 850.474 345.066 851.637 346.36C852.8 347.633 853.381 349.156 853.381 350.933C853.381 352.206 853.03 353.401 852.328 354.519C851.625 355.638 850.617 356.55 849.301 357.25C848.006 357.932 846.482 358.27 844.727 358.27ZM858.825 333.363H863.201L862.905 350.439H859.121L858.825 333.363ZM858.364 355.21C858.364 354.465 858.617 353.84 859.121 353.335C859.626 352.832 860.251 352.578 860.996 352.578C861.764 352.578 862.401 352.832 862.905 353.335C863.41 353.84 863.661 354.465 863.661 355.21C863.661 355.979 863.41 356.615 862.905 357.119C862.401 357.624 861.764 357.876 860.996 357.876C860.251 357.876 859.626 357.624 859.121 357.119C858.617 356.592 858.364 355.957 858.364 355.21Z" fill="#B45309"/>
<path d="M872.356 380.373H717.732V390.387H872.356V380.373Z" fill="#B45309"/>
<path d="M851.264 404.802H717.732V414.816H851.264V404.802Z" fill="#B45309"/>
<path d="M806.349 429.234H717.732V439.249H806.349V429.234Z" fill="#B45309"/>
<path d="M907.864 459.583C912.416 448.201 928.35 440.009 936.543 440.009H964.009C973.113 440.918 988.135 448.05 992.687 459.583C981.913 470.204 966.891 476.882 950.199 476.882C933.66 476.882 918.638 470.204 907.864 459.583Z" fill="#31241C"/>
<path d="M961.426 416.639C961.426 416.639 964.006 438.337 965.827 450.477C967.192 459.43 935.025 461.856 934.113 452.298C933.203 440.917 932.292 421.494 932.292 421.494" fill="#C97440"/>
<path d="M962.793 426.503L961.426 416.489L932.292 421.344C932.292 421.344 932.596 427.262 933.052 434.698C935.025 435.305 937.3 435.761 939.424 435.912C948.681 436.822 957.178 433.028 962.793 426.503Z" fill="#AB5D2D"/>
<path d="M913.63 399.493C912.416 414.971 924.1 428.476 939.577 429.539C955.055 430.751 968.56 419.067 969.621 403.59L971.898 374.001C973.112 358.524 961.428 345.018 945.95 343.956C930.473 342.742 916.968 354.425 915.905 369.903L913.63 399.493Z" fill="#C97440"/>
<path d="M952.173 374.455C950.654 371.571 947.316 369.448 943.978 369.903C942.006 370.055 942.006 373.09 943.978 372.937C946.407 372.634 948.531 374 949.593 375.972C950.352 377.642 953.083 376.124 952.173 374.455Z" fill="#31241C"/>
<path d="M921.672 373.546C923.038 372.18 925.466 371.269 927.287 371.725C929.109 372.18 930.018 369.296 928.046 368.842C925.164 368.082 921.521 369.296 919.549 371.422C918.183 372.787 920.307 374.911 921.672 373.546Z" fill="#31241C"/>
<path d="M934.268 396.912C933.964 396.912 933.661 396.761 933.357 396.609L928.502 391.146C928.197 390.843 928.197 390.539 928.197 390.083C928.349 389.78 928.502 389.478 928.804 389.325L934.571 386.898C935.178 386.594 935.785 386.898 936.088 387.503C936.392 388.11 936.088 388.717 935.48 389.022L931.081 390.843L934.875 395.091C935.329 395.547 935.178 396.305 934.722 396.761C934.722 396.912 934.419 396.912 934.268 396.912Z" fill="#31241C"/>
<path d="M933.811 412.542C930.624 412.542 928.652 409.204 927.286 402.377C927.286 402.073 927.286 401.619 927.589 401.314C927.893 401.011 928.196 400.859 928.5 401.012C930.473 401.314 932.901 401.619 936.39 401.619C938.212 401.619 940.184 401.619 942.459 401.466C942.915 401.466 943.219 401.619 943.522 402.073C943.673 402.377 943.673 402.831 943.522 403.287C939.88 409.509 936.695 412.542 933.811 412.542ZM929.866 403.591C930.775 407.839 932.143 410.267 933.811 410.267C934.874 410.267 936.997 409.356 940.487 403.894C936.39 404.045 933.204 404.045 929.866 403.591Z" fill="#31241C"/>
<path d="M941.399 387.353C941.853 389.175 943.674 390.236 945.496 389.782C947.317 389.326 948.378 387.505 947.924 385.684C947.468 383.862 945.647 382.801 943.826 383.255C942.006 383.711 940.944 385.532 941.399 387.353Z" fill="#1A191F"/>
<path d="M920.913 386.141C921.369 387.961 923.188 389.023 925.009 388.568C926.831 388.114 927.893 386.292 927.438 384.471C926.982 382.65 925.162 381.587 923.341 382.043C921.671 382.499 920.457 384.32 920.913 386.141Z" fill="#1A191F"/>
<path d="M964.311 396.155C962.945 401.619 966.283 407.081 971.747 408.446C977.209 409.812 982.672 406.474 984.038 401.012L984.796 397.825C986.162 392.361 982.823 386.899 977.36 385.534C971.898 384.169 966.434 387.507 965.069 392.968L964.311 396.155Z" fill="#C97440"/>
<path d="M979.638 386.595C982.067 379.768 993.751 351.999 976.3 351.088C975.238 340.162 960.064 334.398 941.096 330.755C922.129 327.113 910.293 335.914 911.81 344.716C913.176 353.516 924.859 356.854 934.115 354.123C936.695 363.683 949.441 360.496 952.172 358.524C954.298 367.78 964.768 370.056 963.705 376.581C962.491 383.106 962.037 389.631 961.732 390.996C961.43 392.362 967.043 394.941 968.257 392.21C969.471 389.782 974.175 384.927 979.638 386.595Z" fill="#31241C"/>
<path d="M958.847 493.42C981.154 492.511 1004.98 478.398 1009.83 455.333C1009.98 454.424 1008.62 453.968 1008.32 454.879C1003.76 477.184 980.547 490.992 958.847 491.904C957.938 491.904 957.938 493.42 958.847 493.42Z" fill="#1F0E03"/>
<path d="M940.488 493.573C944.584 493.725 948.68 493.725 952.627 493.876C953.537 493.876 953.537 492.359 952.627 492.359C948.529 492.208 944.433 492.208 940.488 492.055C939.425 492.055 939.425 493.573 940.488 493.573Z" fill="#1F0E03"/>
<path d="M745.502 527.105C753.089 520.277 760.828 513.448 767.96 506.014C771.298 502.674 774.18 498.122 778.278 495.542C780.705 493.874 783.589 493.723 786.32 493.57C791.783 493.267 797.245 493.419 802.707 493.267C812.572 493.116 822.586 492.66 832.448 492.66C843.071 492.66 853.692 493.116 864.315 493.57C884.95 494.481 905.74 495.543 926.376 493.419C927.287 493.267 927.287 491.75 926.376 491.902C905.285 494.026 884.041 492.963 862.797 492.053C851.72 491.597 840.492 491.143 829.415 491.143C819.399 491.143 809.536 491.75 799.674 491.902C792.844 491.902 783.437 490.536 777.367 494.33C773.573 496.757 770.691 500.855 767.807 504.041C760.372 511.78 752.331 518.912 744.288 526.195C743.68 526.651 744.895 527.712 745.502 527.105Z" fill="#1F0E03"/>
<g filter="url(#filter3_d)">
<path d="M894.967 220.135C894.967 237.585 880.855 251.697 863.404 251.697H569.027C551.577 251.697 537.465 237.585 537.465 220.135V190.697C537.465 173.247 551.577 159.135 569.027 159.135H863.253C880.703 159.135 894.814 173.247 894.814 190.697V220.135H894.967Z" fill="#FCFCFC"/>
</g>
<path d="M586.63 181.138C587.691 178.862 589.512 178.862 590.727 181.138L594.216 188.27C595.279 190.546 598.314 192.671 600.741 192.974L608.633 194.188C611.059 194.492 611.666 196.313 609.845 197.982L604.08 203.596C602.259 205.417 601.196 208.755 601.652 211.335L603.018 219.225C603.473 221.653 601.955 222.715 599.831 221.653L592.699 217.86C590.422 216.646 586.782 216.646 584.658 217.86L577.526 221.653C575.249 222.867 573.883 221.805 574.339 219.225L575.705 211.335C576.159 208.907 574.946 205.417 573.276 203.596L567.51 197.982C565.689 196.161 566.296 194.492 568.724 194.188L576.614 192.974C579.043 192.671 582.078 190.546 583.139 188.27L586.63 181.138Z" fill="#FFBE3D"/>
<path d="M649.753 181.138C650.814 178.862 652.636 178.862 653.85 181.138L657.339 188.27C658.402 190.546 661.437 192.671 663.865 192.974L671.756 194.188C674.182 194.492 674.789 196.313 672.97 197.982L667.203 203.596C665.382 205.417 664.319 208.755 664.775 211.335L666.141 219.225C666.596 221.653 665.078 222.715 662.954 221.653L655.822 217.86C653.547 216.646 649.905 216.646 647.781 217.86L640.649 221.653C638.372 222.867 637.006 221.805 637.462 219.225L638.828 211.335C639.283 208.907 638.069 205.417 636.399 203.596L630.633 197.982C628.812 196.161 629.419 194.492 631.847 194.188L639.737 192.974C642.166 192.671 645.201 190.546 646.262 188.27L649.753 181.138Z" fill="#FFBE3D"/>
<path d="M713.03 181.138C714.091 178.862 715.912 178.862 717.126 181.138L720.615 188.27C721.678 190.546 724.714 192.671 727.14 192.974L735.032 194.188C737.459 194.492 738.066 196.313 736.246 197.982L730.48 203.596C728.659 205.417 727.596 208.755 728.052 211.335L729.417 219.225C729.873 221.653 728.354 222.715 726.23 221.653L719.099 217.86C716.823 216.646 713.181 216.646 711.057 217.86L703.925 221.653C701.648 222.867 700.283 221.805 700.739 219.225L702.104 211.335C702.558 208.907 701.346 205.417 699.676 203.596L693.91 197.982C692.088 196.161 692.695 194.492 695.124 194.188L703.014 192.974C705.442 192.671 708.477 190.546 709.539 188.27L713.03 181.138Z" fill="#FFBE3D"/>
<path d="M776.306 181.138C777.367 178.862 779.188 178.862 780.402 181.138L783.892 188.27C784.955 190.546 787.99 192.671 790.416 192.974L798.308 194.188C800.735 194.492 801.342 196.313 799.521 197.982L793.755 203.596C791.935 205.417 790.872 208.755 791.328 211.335L792.693 219.225C793.149 221.653 791.631 222.715 789.507 221.653L782.375 217.86C780.098 216.646 776.457 216.646 774.332 217.86L767.2 221.653C764.925 222.867 763.559 221.805 764.015 219.225L765.38 211.335C765.834 208.907 764.62 205.417 762.952 203.596L757.186 197.982C755.365 196.161 755.972 194.492 758.4 194.188L766.29 192.974C768.718 192.671 771.752 190.546 772.815 188.27L776.306 181.138Z" fill="#FFBE3D"/>
<path d="M839.429 181.138C840.492 178.862 842.313 178.862 843.527 181.138L847.017 188.27C848.08 190.546 851.113 192.671 853.541 192.974L861.432 194.188C863.86 194.492 864.467 196.313 862.646 197.982L856.88 203.596C855.058 205.417 853.997 208.755 854.451 211.335L855.817 219.225C856.273 221.653 854.756 222.715 852.632 221.653L845.5 217.86C843.223 216.646 839.734 216.646 837.457 217.86L830.325 221.653C828.05 222.867 826.683 221.805 827.138 219.225L828.504 211.335C828.96 208.907 827.745 205.417 826.077 203.596L820.311 197.982C818.49 196.161 819.097 194.492 821.525 194.188L829.415 192.974C831.842 192.671 834.877 190.546 835.94 188.27L839.429 181.138Z" fill="#FFBE3D"/>
<path d="M695.579 246.995C700.586 246.995 705.593 246.539 710.601 246.388C711.511 246.388 711.511 244.869 710.601 244.869C705.593 244.869 700.586 245.325 695.579 245.476C694.517 245.476 694.517 246.995 695.579 246.995Z" fill="#1F0E03"/>
<path d="M717.429 246.538C735.335 246.084 753.088 246.993 770.994 246.691C779.947 246.538 788.748 245.779 797.548 245.324C806.957 244.87 816.213 245.021 825.621 245.324C834.573 245.628 843.526 245.931 852.327 246.084C858.548 246.235 864.77 246.538 870.839 245.172C880.703 243.048 884.951 235.007 885.558 225.446C885.558 224.536 884.041 224.536 884.041 225.446C883.737 230.757 882.523 235.917 878.577 239.71C874.937 243.2 869.626 244.111 864.921 244.414C857.789 245.021 850.657 244.414 843.526 244.262C835.18 244.111 826.683 243.655 818.337 243.504C801.493 243.2 784.955 245.021 768.111 245.172C751.268 245.324 734.425 244.718 717.582 245.021C716.519 245.021 716.519 246.538 717.429 246.538Z" fill="#1F0E03"/>
<g filter="url(#filter4_d)">
<path d="M188.006 447.29C188.006 464.74 173.895 478.851 156.444 478.851H31.5621C14.1119 478.851 0 464.74 0 447.29V410.569C0 393.118 14.1119 379.006 31.5621 379.006H156.444C173.895 379.006 188.006 393.118 188.006 410.569V447.29Z" fill="#624DE3"/>
</g>
<path d="M49.5265 441.675L57.5023 433.344C59.2132 431.554 60.4636 430.198 61.2532 429.277C62.0429 428.33 62.6088 427.514 62.951 426.829C63.2932 426.118 63.4643 425.395 63.4643 424.658C63.4643 423.447 63.0827 422.486 62.3193 421.775C61.5559 421.038 60.5557 420.67 59.3185 420.67C58.0287 420.67 56.9232 421.038 56.0019 421.775C55.1069 422.486 54.4488 423.539 54.0277 424.934L49.3291 423.473C49.645 421.946 50.2767 420.617 51.2243 419.485C52.1983 418.327 53.3959 417.432 54.8174 416.8C56.2388 416.168 57.7392 415.853 59.3185 415.853C61.1874 415.853 62.8457 416.208 64.2935 416.919C65.7412 417.603 66.8599 418.577 67.6496 419.84C68.4656 421.078 68.8736 422.499 68.8736 424.105C68.8736 425.684 68.4393 427.224 67.5706 428.724C66.7283 430.198 65.3464 431.936 63.4248 433.936L56.5152 441.201H69.2685V445.742H49.5265V441.675ZM85.8087 439.267H72.3053V434.765L85.4929 416.326H91.0996V434.765H95.4033V439.267H91.0996V445.742H85.8087V439.267ZM85.8087 434.765V422.96L77.5961 434.765H85.8087ZM110.459 414.747H116.105L102.996 447.321H97.3499L110.459 414.747ZM131.774 420.828H117.915V416.287H137.42V420.828L125.457 445.742H119.534L131.774 420.828Z" fill="#FDE68A"/>
<path d="M108.342 473.389C130.041 468.077 154.168 478.7 173.742 465.346C174.5 464.739 173.742 463.524 172.983 463.98C153.561 477.183 129.282 466.56 107.887 471.87C106.976 472.175 107.432 473.692 108.342 473.389Z" fill="#1F0E03"/>
<path d="M181.027 417.399C181.33 420.737 181.179 423.924 181.634 427.111C182.088 430.903 182.695 434.545 182.695 438.339C182.695 445.622 182.088 453.209 177.841 459.431C177.234 460.19 178.599 460.948 179.206 460.19C182.848 454.879 183.758 448.353 184.214 441.981C184.365 438.642 184.517 435.304 184.061 432.117C183.454 427.262 183.151 422.405 182.695 417.551C182.393 416.336 180.874 416.336 181.027 417.399Z" fill="#1F0E03"/>
<path d="M199.691 346.535C209.705 355.942 217.9 355.942 217.9 346.535C217.9 337.127 217.9 321.498 217.9 312.089C217.9 302.682 209.705 294.792 199.691 294.792C189.675 294.792 173.439 294.792 163.424 294.792C153.409 294.792 153.409 302.531 163.424 312.089C173.288 321.498 189.675 336.975 199.691 346.535Z" fill="#DEF4ED"/>
</g>
<path opacity="0.8" d="M1041.74 9.08962C1039.09 9.13113 1036.91 7.14124 1036.87 4.64684C1036.83 2.15243 1038.95 0.0964868 1041.59 0.0566957C1044.24 0.0151806 1046.42 2.00507 1046.46 4.49948C1046.46 4.50465 1046.46 4.51154 1046.46 4.51672C1046.49 7.00604 1044.38 9.04991 1041.74 9.08962ZM1042.02 33.2125C1039.37 33.2522 1037.19 31.2641 1037.16 28.7697C1037.12 26.2753 1039.23 24.2193 1041.88 24.1795C1044.52 24.138 1046.7 26.1279 1046.74 28.6223C1046.74 28.6275 1046.74 28.6327 1046.74 28.6396C1046.77 31.1289 1044.66 33.1745 1042.02 33.2125ZM1042.3 57.3353C1039.66 57.3751 1037.48 55.3869 1037.44 52.8925C1037.4 50.3981 1039.51 48.3422 1042.16 48.3024C1044.81 48.2626 1046.99 50.2507 1047.03 52.7452C1047.03 52.7503 1047.03 52.7572 1047.03 52.7624C1047.06 55.25 1044.94 57.2973 1042.3 57.3353ZM1042.59 81.4581C1039.94 81.4997 1037.76 79.5098 1037.72 77.0154C1037.69 74.521 1039.8 72.465 1042.45 72.4252C1045.09 72.3854 1047.27 74.3736 1047.31 76.868C1047.31 76.8732 1047.31 76.8801 1047.31 76.8852C1047.34 79.3746 1045.23 81.4184 1042.59 81.4581ZM1042.87 105.581C1040.23 105.622 1038.04 103.633 1038 101.138C1037.96 98.6421 1040.08 96.5862 1042.73 96.5447C1045.37 96.5031 1047.55 98.493 1047.59 100.987C1047.59 100.994 1047.59 101.001 1047.59 101.008C1047.62 103.497 1045.51 105.543 1042.87 105.581ZM1016.8 9.38324C1014.16 9.42475 1011.98 7.43486 1011.94 4.94046C1011.9 2.44607 1014.01 0.390107 1016.66 0.350316C1019.31 0.310525 1021.48 2.29869 1021.52 4.7931C1021.52 4.79827 1021.52 4.80516 1021.52 4.81034C1021.55 7.29966 1019.44 9.34353 1016.8 9.38324ZM1017.09 33.5061C1014.44 33.5459 1012.26 31.5577 1012.22 29.0633C1012.18 26.5689 1014.3 24.5129 1016.94 24.4732C1019.59 24.4316 1021.77 26.4215 1021.81 28.9159C1021.81 28.9211 1021.81 28.9263 1021.81 28.9332C1021.84 31.4225 1019.73 33.4681 1017.09 33.5061ZM1017.37 57.6289C1014.72 57.6687 1012.54 55.6805 1012.51 53.1861C1012.47 50.6917 1014.58 48.6358 1017.23 48.596C1019.87 48.5562 1022.05 50.5444 1022.09 53.0388C1022.09 53.0439 1022.09 53.0508 1022.09 53.056C1022.12 55.5436 1020.01 57.5909 1017.37 57.6289ZM1017.65 81.7518C1015.01 81.7933 1012.83 79.8034 1012.79 77.309C1012.75 74.8146 1014.86 72.7586 1017.51 72.7188C1020.16 72.679 1022.34 74.6672 1022.38 77.1616C1022.38 77.1668 1022.38 77.1737 1022.38 77.1789C1022.41 79.6682 1020.29 81.7121 1017.65 81.7518ZM1017.94 105.875C1015.29 105.916 1013.11 103.926 1013.07 101.432C1013.03 98.9358 1015.14 96.8798 1017.79 96.8383C1020.44 96.7967 1022.62 98.7849 1022.66 101.281C1022.66 101.288 1022.66 101.295 1022.66 101.302C1022.69 103.791 1020.58 105.837 1017.94 105.875ZM991.869 9.67686C989.222 9.71665 987.043 7.72848 987.004 5.23408C986.964 2.73969 989.079 0.683727 991.726 0.643936C994.373 0.604145 996.551 2.59231 996.59 5.08672C996.59 5.09189 996.59 5.09878 996.59 5.10396C996.621 7.59328 994.508 9.63715 991.869 9.67686ZM992.153 33.7997C989.506 33.8395 987.327 31.8513 987.289 29.3569C987.248 26.8625 989.363 24.8066 992.01 24.7668C994.657 24.7253 996.835 26.7151 996.874 29.2096C996.874 29.2147 996.874 29.2216 996.874 29.2268C996.905 31.7161 994.792 33.7617 992.153 33.7997ZM992.437 57.9225C989.79 57.9623 987.611 55.9742 987.573 53.4798C987.532 50.9854 989.647 48.9294 992.294 48.8896C994.941 48.8498 997.119 50.838 997.158 53.3324C997.158 53.3376 997.158 53.3427 997.158 53.3496C997.189 55.8372 995.076 57.8846 992.437 57.9225ZM992.721 82.0454C990.074 82.0852 987.895 80.097 987.857 77.6026C987.816 75.1082 989.931 73.0522 992.578 73.0125C995.225 72.9727 997.403 74.9608 997.442 77.4552C997.442 77.4604 997.442 77.4673 997.442 77.4725C997.473 79.9618 995.36 82.0057 992.721 82.0454ZM993.005 106.168C990.356 106.21 988.177 104.222 988.137 101.725C988.097 99.2294 990.209 97.1734 992.858 97.1319C995.505 97.0904 997.684 99.0785 997.726 101.575C997.726 101.582 997.726 101.588 997.726 101.595C997.757 104.085 995.645 106.13 993.005 106.168ZM966.935 9.97048C964.288 10.0103 962.109 8.0221 962.071 5.5277C962.032 3.03329 964.145 0.979071 966.792 0.937556C969.439 0.897765 971.617 2.88593 971.656 5.38034C971.656 5.38551 971.656 5.3924 971.656 5.39758C971.687 7.8869 969.576 9.93075 966.935 9.97048ZM967.219 34.0933C964.572 34.1348 962.393 32.1449 962.355 29.6505C962.316 27.1561 964.429 25.1002 967.076 25.0604C969.723 25.0206 971.902 27.0088 971.94 29.5032C971.94 29.5083 971.94 29.5152 971.94 29.5204C971.971 32.0097 969.86 34.0553 967.219 34.0933ZM967.503 58.2162C964.856 58.256 962.677 56.2678 962.639 53.7734C962.6 51.279 964.713 49.223 967.36 49.1832C970.007 49.1417 972.186 51.1316 972.224 53.626C972.224 53.6312 972.224 53.6364 972.224 53.6433C972.255 56.1309 970.144 58.1782 967.503 58.2162ZM967.787 82.339C965.14 82.3788 962.961 80.3906 962.923 77.8962C962.884 75.4018 964.997 73.3459 967.644 73.3061C970.291 73.2663 972.47 75.2545 972.508 77.7489C972.508 77.754 972.508 77.7609 972.508 77.7661C972.54 80.2554 970.428 82.2993 967.787 82.339ZM968.071 106.462C965.422 106.503 963.244 104.515 963.203 102.019C963.163 99.5247 965.277 97.467 967.924 97.4255C970.573 97.384 972.752 99.3739 972.792 101.868C972.792 101.875 972.792 101.882 972.792 101.889C972.824 104.378 970.713 106.424 968.071 106.462ZM942.001 10.2641C939.354 10.3039 937.175 8.31572 937.137 5.82132C937.098 3.32691 939.211 1.27097 941.858 1.23118C944.505 1.19139 946.684 3.17955 946.722 5.67396C946.722 5.67913 946.722 5.6843 946.722 5.6912C946.754 8.18052 944.642 10.2244 942.001 10.2641ZM942.285 34.3869C939.638 34.4285 937.459 32.4386 937.421 29.9442C937.382 27.4497 939.495 25.3938 942.142 25.354C944.789 25.3142 946.968 27.3024 947.006 29.7968C947.006 29.802 947.006 29.8089 947.006 29.814C947.038 32.3034 944.927 34.3489 942.285 34.3869ZM942.569 58.5098C939.922 58.5496 937.744 56.5614 937.705 54.067C937.667 51.5726 939.779 49.5166 942.426 49.4769C945.073 49.4353 947.252 51.4252 947.29 53.9196C947.29 53.9248 947.29 53.9317 947.291 53.9369C947.322 56.4262 945.211 58.4718 942.569 58.5098ZM942.853 82.6326C940.206 82.6724 938.028 80.6842 937.989 78.1898C937.951 75.6954 940.063 73.6395 942.71 73.5997C945.357 73.5599 947.536 75.5481 947.574 78.0425C947.574 78.0476 947.575 78.0528 947.575 78.0597C947.606 80.549 945.495 82.5929 942.853 82.6326ZM1043.15 129.416C1040.51 129.457 1038.33 127.468 1038.29 124.975C1038.25 122.48 1040.36 120.425 1043.01 120.383C1045.66 120.341 1047.84 122.331 1047.87 124.826C1047.87 124.831 1047.87 124.838 1047.87 124.843C1047.91 127.331 1045.79 129.376 1043.15 129.416ZM1043.44 153.539C1040.79 153.579 1038.61 151.59 1038.57 149.096C1038.53 146.602 1040.65 144.547 1043.29 144.506C1045.94 144.466 1048.12 146.454 1048.16 148.949C1048.16 148.954 1048.16 148.959 1048.16 148.966C1048.19 151.455 1046.08 153.499 1043.44 153.539ZM1043.72 177.663C1041.07 177.705 1038.9 175.715 1038.86 173.221C1038.82 170.728 1040.93 168.672 1043.58 168.63C1046.23 168.589 1048.4 170.579 1048.44 173.071C1048.44 173.078 1048.44 173.085 1048.44 173.09C1048.47 175.578 1046.36 177.624 1043.72 177.663ZM1044.01 201.784C1041.36 201.828 1039.18 199.838 1039.14 197.343C1039.1 194.849 1041.21 192.791 1043.86 192.75C1046.51 192.707 1048.69 194.696 1048.73 197.193C1048.73 197.199 1048.73 197.206 1048.73 197.213C1048.76 199.701 1046.64 201.746 1044.01 201.784ZM1044.29 225.909C1041.64 225.951 1039.46 223.961 1039.42 221.466C1039.38 218.97 1041.49 216.914 1044.14 216.873C1046.79 216.831 1048.97 218.819 1049.01 221.314C1049.01 221.321 1049.01 221.327 1049.01 221.334C1049.04 223.822 1046.93 225.868 1044.29 225.909ZM1018.22 129.71C1015.57 129.751 1013.39 127.761 1013.36 125.268C1013.31 122.774 1015.43 120.718 1018.08 120.677C1020.72 120.637 1022.9 122.627 1022.94 125.119C1022.94 125.125 1022.94 125.131 1022.94 125.137C1022.97 127.626 1020.86 129.67 1018.22 129.71ZM1018.5 153.832C1015.86 153.872 1013.68 151.884 1013.64 149.39C1013.6 146.895 1015.71 144.841 1018.36 144.799C1021.01 144.76 1023.19 146.748 1023.22 149.242C1023.22 149.249 1023.22 149.253 1023.22 149.259C1023.26 151.749 1021.14 153.793 1018.5 153.832ZM1018.79 177.957C1016.14 177.998 1013.96 176.009 1013.92 173.514C1013.88 171.022 1016 168.966 1018.64 168.924C1021.29 168.883 1023.47 170.872 1023.51 173.365C1023.51 173.372 1023.51 173.379 1023.51 173.384C1023.54 175.872 1021.43 177.917 1018.79 177.957ZM1019.07 202.078C1016.42 202.121 1014.24 200.131 1014.2 197.637C1014.16 195.143 1016.28 193.085 1018.92 193.043C1021.57 193 1023.75 194.99 1023.79 197.486C1023.79 197.493 1023.79 197.5 1023.79 197.507C1023.82 199.994 1021.71 202.04 1019.07 202.078ZM1019.36 226.203C1016.71 226.244 1014.53 224.254 1014.49 221.76C1014.45 219.264 1016.56 217.208 1019.21 217.166C1021.86 217.125 1024.04 219.113 1024.08 221.607C1024.08 221.614 1024.08 221.621 1024.08 221.628C1024.11 224.116 1022 226.161 1019.36 226.203ZM993.286 130.003C990.639 130.045 988.46 128.057 988.421 125.562C988.381 123.068 990.496 121.012 993.143 120.97C995.79 120.93 997.968 122.92 998.007 125.413C998.007 125.418 998.007 125.425 998.007 125.432C998.038 127.92 995.925 129.963 993.286 130.003ZM993.57 154.126C990.923 154.166 988.744 152.178 988.705 149.683C988.665 147.189 990.78 145.135 993.427 145.095C996.074 145.053 998.252 147.041 998.291 149.536C998.291 149.543 998.291 149.548 998.291 149.553C998.322 152.042 996.209 154.086 993.57 154.126ZM993.854 178.251C991.207 178.292 989.028 176.302 988.99 173.81C988.949 171.315 991.064 169.259 993.711 169.218C996.358 169.176 998.536 171.166 998.575 173.66C998.575 173.666 998.575 173.672 998.575 173.678C998.606 176.165 996.493 178.211 993.854 178.251ZM994.138 202.372C991.489 202.415 989.31 200.425 989.27 197.931C989.23 195.436 991.342 193.379 993.991 193.337C996.638 193.294 998.817 195.285 998.859 197.78C998.859 197.787 998.859 197.794 998.859 197.8C998.89 200.288 996.777 202.334 994.138 202.372ZM994.422 226.496C991.773 226.538 989.594 224.548 989.554 222.053C989.514 219.557 991.626 217.501 994.275 217.46C996.922 217.418 999.101 219.407 999.143 221.901C999.143 221.908 999.143 221.915 999.143 221.922C999.174 224.409 997.061 226.455 994.422 226.496ZM968.352 130.297C965.705 130.338 963.526 128.35 963.488 125.856C963.449 123.361 965.562 121.305 968.209 121.264C970.856 121.224 973.034 123.214 973.073 125.707C973.073 125.712 973.073 125.719 973.073 125.726C973.104 128.213 970.993 130.257 968.352 130.297ZM968.636 154.42C965.989 154.461 963.81 152.471 963.772 149.977C963.733 147.484 965.846 145.428 968.493 145.388C971.14 145.347 973.318 147.335 973.357 149.829C973.357 149.836 973.357 149.842 973.357 149.847C973.388 152.336 971.277 154.38 968.636 154.42ZM968.92 178.544C966.273 178.586 964.094 176.596 964.056 174.103C964.017 171.609 966.13 169.553 968.777 169.511C971.424 169.47 973.603 171.46 973.641 173.954C973.641 173.959 973.641 173.966 973.641 173.971C973.672 176.459 971.561 178.504 968.92 178.544ZM969.204 202.667C966.555 202.709 964.377 200.719 964.336 198.224C964.296 195.73 966.41 193.672 969.057 193.631C971.706 193.589 973.885 195.579 973.925 198.073C973.925 198.08 973.925 198.087 973.925 198.094C973.956 200.582 971.845 202.627 969.204 202.667ZM969.488 226.79C966.839 226.831 964.661 224.843 964.62 222.347C964.58 219.853 966.694 217.795 969.341 217.754C971.99 217.712 974.169 219.7 974.209 222.195C974.209 222.201 974.209 222.208 974.209 222.217C974.241 224.705 972.13 226.748 969.488 226.79ZM915.075 10.5812C912.428 10.6123 910.257 8.61548 910.227 6.12096C910.198 3.62645 912.322 1.579 914.969 1.54783C917.614 1.51668 919.784 3.51357 919.813 6.00808C919.846 8.49738 917.729 10.5447 915.088 10.5793C915.082 10.5811 915.079 10.5811 915.075 10.5812ZM915.359 34.7057C912.712 34.7369 910.541 32.74 910.511 30.2455C910.482 27.751 912.606 25.7036 915.253 25.6724C917.898 25.6412 920.068 27.6381 920.097 30.1326C920.13 32.6237 918.014 34.671 915.372 34.7056C915.367 34.7039 915.363 34.704 915.359 34.7057ZM915.643 58.8286C912.996 58.8598 910.825 56.8629 910.795 54.3684C910.766 51.8738 912.89 49.8264 915.537 49.7952C918.182 49.7641 920.352 51.761 920.381 54.2555C920.414 56.7465 918.298 58.7939 915.656 58.8284C915.651 58.8268 915.647 58.8268 915.643 58.8286ZM915.927 82.9497C913.28 82.9809 911.109 80.984 911.079 78.4895C911.05 75.995 913.174 73.9475 915.821 73.9163C918.466 73.8852 920.636 75.8821 920.665 78.3766C920.698 80.8659 918.582 82.9133 915.94 82.9478C915.935 82.9496 915.931 82.9497 915.927 82.9497ZM890.14 10.8748C887.492 10.906 885.325 8.90908 885.295 6.41456C885.266 3.92005 887.386 1.87264 890.033 1.84147C892.68 1.8103 894.85 3.80719 894.879 6.3017C894.912 8.79273 892.797 10.8383 890.154 10.8729C890.15 10.8747 890.145 10.8748 890.14 10.8748ZM890.424 34.9994C887.777 35.0306 885.609 33.0336 885.579 30.5391C885.55 28.0446 887.67 25.9972 890.317 25.966C892.964 25.9349 895.134 27.9317 895.163 30.4263C895.196 32.9173 893.082 34.9646 890.438 34.9992C890.435 34.9975 890.429 34.9976 890.424 34.9994ZM890.708 59.1222C888.061 59.1534 885.893 57.1565 885.863 54.662C885.834 52.1674 887.954 50.12 890.601 50.0889C893.248 50.0577 895.418 52.0546 895.447 54.5491C895.48 57.0401 893.366 59.0875 890.722 59.1221C890.719 59.1204 890.713 59.1204 890.708 59.1222ZM890.992 83.2433C888.345 83.2745 886.177 81.2776 886.148 78.7831C886.118 76.2886 888.238 74.2412 890.885 74.21C893.532 74.1788 895.702 76.1757 895.731 78.6702C895.764 81.1613 893.648 83.2069 891.006 83.2414C891.001 83.2432 890.997 83.2433 890.992 83.2433ZM865.206 11.1684C862.561 11.1996 860.389 9.20272 860.36 6.7082C860.33 4.21369 862.454 2.16624 865.099 2.13509C867.746 2.10392 869.916 4.10081 869.945 6.59532C869.978 9.08635 867.862 11.132 865.22 11.1665C865.215 11.1683 865.211 11.1684 865.206 11.1684ZM865.49 35.293C862.845 35.3242 860.673 33.3273 860.644 30.8328C860.614 28.3382 862.738 26.2908 865.383 26.2597C868.03 26.2285 870.2 28.2254 870.229 30.7199C870.262 33.2109 868.146 35.2583 865.504 35.2928C865.499 35.2912 865.495 35.2912 865.49 35.293ZM865.774 59.4158C863.129 59.447 860.957 57.4501 860.928 54.9556C860.899 52.4611 863.022 50.4136 865.668 50.3825C868.315 50.3513 870.484 52.3482 870.514 54.8427C870.547 57.3337 868.43 59.3811 865.789 59.4157C865.783 59.414 865.779 59.4141 865.774 59.4158ZM866.058 83.5387C863.413 83.5698 861.241 81.573 861.212 79.0785C861.183 76.5839 863.306 74.5365 865.952 74.5053C868.599 74.4742 870.768 76.4711 870.798 78.9656C870.831 81.4566 868.714 83.5022 866.071 83.5368C866.067 83.5369 866.063 83.5369 866.058 83.5387ZM840.272 11.4621C837.625 11.4932 835.455 9.49634 835.426 7.00182C835.397 4.50731 837.519 2.45988 840.166 2.42871C842.813 2.39754 844.982 4.39443 845.012 6.88894C845.045 9.37997 842.928 11.4256 840.287 11.4602C840.281 11.462 840.276 11.462 840.272 11.4621ZM840.556 35.5866C837.909 35.6178 835.739 33.6209 835.71 31.1264C835.681 28.6319 837.803 26.5844 840.45 26.5533C843.097 26.5221 845.266 28.519 845.296 31.0135C845.329 33.5045 843.212 35.5519 840.571 35.5864C840.565 35.5848 840.56 35.5849 840.556 35.5866ZM840.84 59.7095C838.193 59.7406 836.023 57.7437 835.994 55.2492C835.965 52.7547 838.087 50.7073 840.734 50.6761C843.381 50.6449 845.55 52.6418 845.58 55.1363C845.613 57.6274 843.496 59.6747 840.855 59.7093C840.849 59.7076 840.844 59.7077 840.84 59.7095ZM841.124 83.8323C838.477 83.8635 836.308 81.8666 836.278 79.3721C836.249 76.8776 838.371 74.8301 841.018 74.799C843.665 74.7678 845.834 76.7647 845.864 79.2592C845.897 81.7502 843.78 83.7959 841.139 83.8304C841.133 83.8305 841.128 83.8305 841.124 83.8323ZM815.338 11.7574C812.691 11.7886 810.522 9.79168 810.492 7.29717C810.463 4.80265 812.585 2.75522 815.232 2.72405C817.877 2.6929 820.048 4.68977 820.078 7.18429C820.111 9.67531 817.994 11.721 815.351 11.7555C815.347 11.7556 815.344 11.7556 815.338 11.7574ZM815.622 35.8802C812.975 35.9114 810.806 33.9145 810.776 31.42C810.747 28.9255 812.869 26.8781 815.516 26.8469C818.161 26.8157 820.333 28.8126 820.362 31.3071C820.395 33.7981 818.278 35.8455 815.635 35.8801C815.631 35.8784 815.628 35.8785 815.622 35.8802ZM815.906 60.0031C813.259 60.0343 811.09 58.0374 811.06 55.5428C811.031 53.0483 813.153 51.0009 815.8 50.9697C818.445 50.9386 820.617 52.9354 820.646 55.43C820.679 57.921 818.563 59.9684 815.919 60.0029C815.915 60.0013 815.912 60.0013 815.906 60.0031ZM816.19 84.1259C813.543 84.1571 811.374 82.1602 811.344 79.6657C811.315 77.1712 813.437 75.1237 816.084 75.0926C818.729 75.0614 820.901 77.0583 820.93 79.5528C820.963 82.0438 818.847 84.0895 816.203 84.1241C816.2 84.1241 816.196 84.1241 816.19 84.1259Z" fill="#7965EF"/>
<path opacity="0.2" d="M1039.34 12.5664C1036.69 12.6079 1034.51 10.6181 1034.47 8.12364C1034.44 5.62923 1036.55 3.57327 1039.19 3.5335C1041.84 3.49199 1044.02 5.48188 1044.06 7.97628C1044.06 7.98145 1044.06 7.98835 1044.06 7.99352C1044.09 10.4828 1041.98 12.5267 1039.34 12.5664ZM1039.62 36.6893C1036.97 36.7291 1034.8 34.7409 1034.76 32.2465C1034.72 29.7521 1036.83 27.6961 1039.48 27.6563C1042.13 27.6148 1044.3 29.6047 1044.34 32.0991C1044.34 32.1043 1044.34 32.1095 1044.34 32.1164C1044.38 34.6057 1042.26 36.6513 1039.62 36.6893ZM1039.91 60.8121C1037.26 60.8519 1035.08 58.8637 1035.04 56.3693C1035 53.8749 1037.12 51.819 1039.76 51.7792C1042.41 51.7394 1044.59 53.7276 1044.63 56.222C1044.63 56.2271 1044.63 56.234 1044.63 56.2392C1044.66 58.7268 1042.55 60.7741 1039.91 60.8121ZM1040.19 84.935C1037.54 84.9765 1035.36 82.9866 1035.33 80.4922C1035.29 77.9978 1037.4 75.9418 1040.05 75.902C1042.69 75.8622 1044.87 77.8504 1044.91 80.3448C1044.91 80.35 1044.91 80.3569 1044.91 80.3621C1044.94 82.8514 1042.83 84.8952 1040.19 84.935ZM1040.47 109.058C1037.83 109.099 1035.65 107.109 1035.61 104.615C1035.57 102.119 1037.68 100.063 1040.33 100.021C1042.98 99.9799 1045.15 101.97 1045.2 104.464C1045.2 104.471 1045.2 104.478 1045.2 104.485C1045.23 106.974 1043.12 109.02 1040.47 109.058ZM1014.41 12.86C1011.76 12.9015 1009.58 10.9116 1009.54 8.41724C1009.5 5.92286 1011.62 3.86689 1014.26 3.82712C1016.91 3.78735 1019.09 5.7755 1019.13 8.2699C1019.13 8.27508 1019.13 8.28197 1019.13 8.28714C1019.16 10.7764 1017.05 12.8203 1014.41 12.86ZM1014.69 36.9829C1012.04 37.0227 1009.86 35.0345 1009.83 32.5401C1009.79 30.0457 1011.9 27.9897 1014.55 27.9499C1017.19 27.9084 1019.37 29.8983 1019.41 32.3927C1019.41 32.3979 1019.41 32.4031 1019.41 32.41C1019.44 34.8993 1017.33 36.9449 1014.69 36.9829ZM1014.97 61.1057C1012.33 61.1455 1010.15 59.1573 1010.11 56.6629C1010.07 54.1685 1012.18 52.1126 1014.83 52.0728C1017.48 52.033 1019.66 54.0212 1019.7 56.5156C1019.7 56.5207 1019.7 56.5276 1019.7 56.5328C1019.73 59.0204 1017.61 61.0677 1014.97 61.1057ZM1015.26 85.2286C1012.61 85.2701 1010.43 83.2802 1010.39 80.7858C1010.35 78.2914 1012.47 76.2354 1015.11 76.1956C1017.76 76.1558 1019.94 78.144 1019.98 80.6384C1019.98 80.6436 1019.98 80.6505 1019.98 80.6557C1020.01 83.145 1017.9 85.1888 1015.26 85.2286ZM1015.54 109.351C1012.9 109.393 1010.71 107.403 1010.67 104.909C1010.63 102.413 1012.75 100.357 1015.4 100.315C1018.04 100.274 1020.22 102.262 1020.26 104.758C1020.26 104.765 1020.26 104.772 1020.26 104.778C1020.29 107.268 1018.18 109.313 1015.54 109.351ZM989.472 13.1536C986.825 13.1934 984.646 11.2053 984.608 8.71086C984.567 6.21648 986.682 4.16051 989.329 4.12072C991.976 4.08093 994.155 6.06909 994.193 8.5635C994.193 8.56867 994.193 8.57557 994.193 8.58074C994.223 11.0701 992.112 13.1139 989.472 13.1536ZM989.756 37.2765C987.109 37.3163 984.93 35.3281 984.892 32.8337C984.852 30.3393 986.966 28.2834 989.613 28.2436C992.26 28.202 994.439 30.1919 994.477 32.6863C994.477 32.6915 994.477 32.6984 994.477 32.7036C994.507 35.1929 992.396 37.2385 989.756 37.2765ZM990.04 61.3993C987.393 61.4391 985.215 59.451 985.176 56.9565C985.136 54.4622 987.25 52.4062 989.897 52.3664C992.544 52.3266 994.723 54.3148 994.761 56.8092C994.761 56.8144 994.761 56.8195 994.761 56.8264C994.791 59.314 992.68 61.3613 990.04 61.3993ZM990.324 85.5222C987.677 85.562 985.499 83.5738 985.46 81.0794C985.42 78.585 987.534 76.529 990.181 76.4892C992.828 76.4495 995.007 78.4376 995.045 80.932C995.045 80.9372 995.045 80.9441 995.046 80.9493C995.075 83.4386 992.964 85.4825 990.324 85.5222ZM990.608 109.645C987.96 109.687 985.781 107.698 985.74 105.202C985.7 102.706 987.813 100.65 990.462 100.609C993.109 100.567 995.287 102.555 995.329 105.051C995.329 105.058 995.33 105.065 995.33 105.072C995.359 107.561 993.248 109.607 990.608 109.645ZM964.538 13.4473C961.891 13.4871 959.713 11.4989 959.674 9.00448C959.636 6.51007 961.748 4.45586 964.395 4.41434C967.042 4.37455 969.221 6.36271 969.259 8.85712C969.259 8.86229 969.259 8.86919 969.26 8.87436C969.291 11.3637 967.178 13.4076 964.538 13.4473ZM964.822 37.5701C962.175 37.6116 959.997 35.6217 959.958 33.1273C959.92 30.6329 962.032 28.577 964.679 28.5372C967.326 28.4974 969.505 30.4856 969.543 32.98C969.543 32.9851 969.544 32.992 969.544 32.9972C969.575 35.4865 967.462 37.5321 964.822 37.5701ZM965.106 61.6929C962.459 61.7327 960.281 59.7446 960.242 57.2502C960.204 54.7558 962.316 52.6998 964.963 52.66C967.61 52.6185 969.789 54.6084 969.827 57.1028C969.828 57.108 969.828 57.1132 969.828 57.12C969.859 59.6076 967.746 61.655 965.106 61.6929ZM965.39 85.8158C962.743 85.8556 960.565 83.8674 960.526 81.373C960.488 78.8786 962.601 76.8227 965.247 76.7829C967.894 76.7431 970.073 78.7312 970.112 81.2256C970.112 81.2308 970.112 81.2377 970.112 81.2429C970.143 83.7322 968.03 85.7761 965.39 85.8158ZM965.674 109.939C963.026 109.98 960.847 107.992 960.807 105.496C960.766 103.002 962.881 100.944 965.528 100.902C968.177 100.861 970.355 102.851 970.396 105.345C970.396 105.352 970.396 105.359 970.396 105.366C970.427 107.855 968.314 109.901 965.674 109.939ZM939.603 13.7409C936.956 13.7807 934.777 11.7925 934.738 9.29812C934.7 6.80372 936.813 4.74777 939.46 4.70798C942.107 4.66819 944.285 6.65636 944.324 9.15076C944.324 9.15594 944.324 9.16111 944.324 9.168C944.355 11.6573 942.244 13.7012 939.603 13.7409ZM939.887 37.8637C937.24 37.9053 935.061 35.9154 935.023 33.421C934.984 30.9266 937.097 28.8706 939.744 28.8308C942.391 28.791 944.569 30.7792 944.608 33.2736C944.608 33.2788 944.608 33.2857 944.608 33.2908C944.639 35.7802 942.528 37.8257 939.887 37.8637ZM940.171 61.9866C937.524 62.0264 935.345 60.0382 935.307 57.5438C935.268 55.0494 937.381 52.9935 940.028 52.9537C942.675 52.9122 944.853 54.902 944.892 57.3964C944.892 57.4016 944.892 57.4085 944.892 57.4137C944.923 59.903 942.812 61.9486 940.171 61.9866ZM940.455 86.1094C937.808 86.1492 935.629 84.1611 935.591 81.6667C935.552 79.1722 937.665 77.1163 940.312 77.0765C942.959 77.0367 945.137 79.0249 945.176 81.5193C945.176 81.5245 945.176 81.5296 945.176 81.5365C945.207 84.0259 943.096 86.0697 940.455 86.1094ZM1040.75 132.893C1038.11 132.934 1035.93 130.944 1035.89 128.452C1035.85 125.957 1037.96 123.901 1040.61 123.86C1043.26 123.818 1045.44 125.808 1045.48 128.303C1045.48 128.308 1045.48 128.315 1045.48 128.32C1045.51 130.807 1043.4 132.853 1040.75 132.893ZM1041.04 157.016C1038.39 157.055 1036.21 155.067 1036.17 152.573C1036.14 150.078 1038.25 148.024 1040.9 147.983C1043.54 147.943 1045.72 149.931 1045.76 152.425C1045.76 152.431 1045.76 152.436 1045.76 152.443C1045.79 154.932 1043.68 156.976 1041.04 157.016ZM1041.32 181.14C1038.68 181.182 1036.5 179.192 1036.46 176.697C1036.42 174.205 1038.53 172.149 1041.18 172.107C1043.83 172.066 1046.01 174.056 1046.04 176.548C1046.04 176.555 1046.04 176.562 1046.04 176.567C1046.08 179.055 1043.96 181.1 1041.32 181.14ZM1041.61 205.261C1038.96 205.304 1036.78 203.315 1036.74 200.82C1036.7 198.326 1038.81 196.268 1041.46 196.227C1044.11 196.183 1046.29 198.173 1046.33 200.669C1046.33 200.676 1046.33 200.683 1046.33 200.69C1046.36 203.178 1044.25 205.223 1041.61 205.261ZM1041.89 229.386C1039.24 229.427 1037.06 227.437 1037.02 224.943C1036.98 222.447 1039.1 220.391 1041.74 220.349C1044.39 220.308 1046.57 222.296 1046.61 224.791C1046.61 224.797 1046.61 224.804 1046.61 224.811C1046.65 227.299 1044.53 229.344 1041.89 229.386ZM1015.82 133.186C1013.18 133.228 1011 131.238 1010.96 128.745C1010.92 126.251 1013.03 124.195 1015.68 124.153C1018.33 124.114 1020.51 126.104 1020.54 128.596C1020.54 128.601 1020.54 128.608 1020.54 128.613C1020.57 131.103 1018.46 133.147 1015.82 133.186ZM1016.11 157.309C1013.46 157.349 1011.28 155.361 1011.24 152.866C1011.2 150.372 1013.32 148.318 1015.96 148.276C1018.61 148.236 1020.79 150.225 1020.83 152.719C1020.83 152.726 1020.83 152.729 1020.83 152.736C1020.86 155.226 1018.75 157.269 1016.11 157.309ZM1016.39 181.434C1013.74 181.475 1011.57 179.485 1011.53 176.991C1011.49 174.498 1013.6 172.442 1016.25 172.401C1018.89 172.359 1021.07 174.349 1021.11 176.842C1021.11 176.849 1021.11 176.856 1021.11 176.861C1021.14 179.348 1019.03 181.394 1016.39 181.434ZM1016.67 205.555C1014.03 205.598 1011.85 203.608 1011.81 201.114C1011.77 198.619 1013.88 196.562 1016.53 196.52C1019.18 196.477 1021.36 198.467 1021.4 200.963C1021.4 200.97 1021.4 200.977 1021.4 200.984C1021.43 203.471 1019.31 205.517 1016.67 205.555ZM1016.96 229.679C1014.31 229.721 1012.13 227.731 1012.09 225.237C1012.05 222.741 1014.16 220.685 1016.81 220.643C1019.46 220.602 1021.64 222.59 1021.68 225.084C1021.68 225.091 1021.68 225.098 1021.68 225.105C1021.71 227.592 1019.6 229.638 1016.96 229.679ZM990.889 133.48C988.242 133.521 986.063 131.533 986.025 129.039C985.984 126.545 988.099 124.489 990.746 124.447C993.393 124.407 995.572 126.397 995.61 128.89C995.61 128.895 995.61 128.902 995.61 128.909C995.64 131.396 993.529 133.44 990.889 133.48ZM991.173 157.603C988.526 157.643 986.347 155.654 986.309 153.16C986.269 150.666 988.383 148.611 991.03 148.572C993.677 148.53 995.856 150.518 995.894 153.013C995.894 153.02 995.894 153.025 995.894 153.03C995.924 155.519 993.813 157.563 991.173 157.603ZM991.457 181.727C988.81 181.769 986.631 179.779 986.593 177.286C986.553 174.792 988.667 172.736 991.314 172.694C993.961 172.653 996.14 174.643 996.178 177.137C996.178 177.142 996.178 177.149 996.178 177.154C996.208 179.642 994.097 181.688 991.457 181.727ZM991.741 205.848C989.092 205.892 986.914 203.902 986.873 201.407C986.833 198.913 988.946 196.855 991.594 196.814C994.241 196.771 996.42 198.762 996.462 201.257C996.462 201.264 996.462 201.27 996.463 201.277C996.492 203.765 994.381 205.81 991.741 205.848ZM992.025 229.973C989.376 230.015 987.198 228.025 987.157 225.53C987.117 223.034 989.23 220.978 991.879 220.937C994.525 220.895 996.704 222.883 996.746 225.378C996.746 225.385 996.746 225.392 996.747 225.398C996.776 227.886 994.665 229.932 992.025 229.973ZM965.955 133.774C963.308 133.815 961.13 131.827 961.091 129.333C961.053 126.838 963.165 124.782 965.812 124.741C968.459 124.701 970.638 126.691 970.676 129.183C970.676 129.189 970.676 129.196 970.677 129.202C970.706 131.69 968.595 133.734 965.955 133.774ZM966.239 157.896C963.592 157.938 961.414 155.948 961.375 153.454C961.337 150.961 963.449 148.905 966.096 148.865C968.743 148.824 970.922 150.812 970.96 153.306C970.96 153.313 970.961 153.318 970.961 153.324C970.99 155.813 968.879 157.857 966.239 157.896ZM966.523 182.021C963.876 182.062 961.698 180.073 961.659 177.58C961.621 175.086 963.733 173.03 966.38 172.988C969.027 172.947 971.206 174.936 971.244 177.431C971.245 177.436 971.245 177.443 971.245 177.448C971.274 179.936 969.163 181.981 966.523 182.021ZM966.807 206.144C964.159 206.185 961.98 204.195 961.94 201.701C961.899 199.207 964.014 197.149 966.661 197.108C969.309 197.066 971.488 199.056 971.529 201.55C971.529 201.557 971.529 201.564 971.529 201.571C971.558 204.059 969.447 206.104 966.807 206.144ZM967.091 230.267C964.443 230.308 962.264 228.32 962.224 225.824C962.183 223.33 964.298 221.272 966.945 221.23C969.594 221.189 971.772 223.177 971.813 225.671C971.813 225.678 971.813 225.685 971.813 225.694C971.842 228.181 969.731 230.225 967.091 230.267ZM912.677 14.058C910.03 14.0892 907.858 12.0923 907.829 9.59777C907.799 7.10325 909.923 5.0558 912.57 5.02463C915.217 4.99346 917.385 6.99037 917.415 9.48489C917.447 11.9742 915.331 14.0216 912.691 14.0561C912.684 14.0579 912.68 14.0579 912.677 14.058ZM912.961 38.1825C910.314 38.2137 908.142 36.2168 908.113 33.7223C908.084 31.2278 910.207 29.1804 912.854 29.1492C915.501 29.118 917.669 31.1149 917.699 33.6095C917.732 36.1005 915.615 38.1478 912.975 38.1824C912.968 38.1807 912.964 38.1808 912.961 38.1825ZM913.245 62.3054C910.598 62.3366 908.426 60.3397 908.397 57.8452C908.368 55.3507 910.491 53.3032 913.138 53.272C915.785 53.2409 917.953 55.2378 917.983 57.7323C918.016 60.2233 915.899 62.2707 913.259 62.3052C913.252 62.3036 913.248 62.3036 913.245 62.3054ZM913.529 86.4265C910.882 86.4577 908.71 84.4608 908.681 81.9663C908.652 79.4718 910.775 77.4243 913.423 77.3932C916.07 77.362 918.237 79.3589 918.267 81.8534C918.3 84.3427 916.183 86.3901 913.544 86.4246C913.536 86.4264 913.533 86.4265 913.529 86.4265ZM887.741 14.3516C885.094 14.3828 882.926 12.3859 882.897 9.89137C882.867 7.39685 884.988 5.34945 887.635 5.31827C890.282 5.2871 892.453 7.28397 892.483 9.77849C892.516 12.2695 890.399 14.3152 887.756 14.3497C887.752 14.3515 887.748 14.3515 887.741 14.3516ZM888.025 38.4762C885.378 38.5074 883.21 36.5104 883.181 34.0159C883.152 31.5214 885.272 29.474 887.919 29.4428C890.566 29.4117 892.737 31.4085 892.767 33.9031C892.8 36.3941 890.683 38.4414 888.04 38.476C888.036 38.4743 888.032 38.4744 888.025 38.4762ZM888.309 62.599C885.662 62.6302 883.494 60.6333 883.465 58.1388C883.436 55.6443 885.556 53.5969 888.203 53.5657C890.85 53.5345 893.021 55.5314 893.051 58.0259C893.084 60.5169 890.967 62.5643 888.324 62.5989C888.32 62.5972 888.317 62.5972 888.309 62.599ZM888.593 86.7202C885.946 86.7513 883.778 84.7544 883.749 82.2599C883.72 79.7654 885.84 77.718 888.487 77.6868C891.134 77.6556 893.305 79.6525 893.335 82.147C893.368 84.638 891.251 86.6837 888.608 86.7183C888.604 86.72 888.601 86.7201 888.593 86.7202ZM862.809 14.6452C860.162 14.6764 857.991 12.6795 857.961 10.185C857.932 7.69049 860.056 5.64304 862.703 5.61187C865.35 5.5807 867.518 7.57761 867.547 10.0721C867.58 12.5632 865.463 14.6088 862.824 14.6433C862.816 14.6451 862.813 14.6452 862.809 14.6452ZM863.093 38.7698C860.446 38.801 858.275 36.8041 858.245 34.3096C858.216 31.8151 860.34 29.7676 862.987 29.7364C865.634 29.7053 867.802 31.7022 867.831 34.1967C867.864 36.6877 865.748 38.7351 863.108 38.7696C863.101 38.768 863.097 38.768 863.093 38.7698ZM863.377 62.8926C860.73 62.9238 858.559 60.9269 858.529 58.4324C858.5 55.9379 860.624 53.8905 863.271 53.8593C865.918 53.8281 868.086 55.825 868.115 58.3195C868.148 60.8106 866.032 62.8579 863.392 62.8925C863.385 62.8908 863.381 62.8909 863.377 62.8926ZM863.661 87.0155C861.014 87.0466 858.843 85.0498 858.813 82.5553C858.784 80.0607 860.908 78.0133 863.555 77.9821C866.202 77.9509 868.37 79.9479 868.399 82.4424C868.432 84.9334 866.316 86.979 863.672 87.0136C863.669 87.0137 863.665 87.0137 863.661 87.0155ZM837.874 14.9389C835.226 14.97 833.059 12.9731 833.029 10.4786C833 7.98409 835.12 5.93669 837.767 5.90551C840.414 5.87434 842.586 7.87121 842.615 10.3657C842.648 12.8568 840.531 14.9024 837.888 14.937C837.885 14.9387 837.877 14.9388 837.874 14.9389ZM838.158 39.0634C835.511 39.0946 833.343 37.0977 833.313 34.6032C833.284 32.1087 835.404 30.0613 838.051 30.0301C840.698 29.9989 842.87 31.9958 842.899 34.4903C842.932 36.9813 840.816 39.0287 838.172 39.0633C838.169 39.0616 838.161 39.0617 838.158 39.0634ZM838.442 63.1863C835.795 63.2174 833.627 61.2205 833.597 58.726C833.568 56.2315 835.688 54.1841 838.335 54.1529C840.982 54.1217 843.154 56.1186 843.183 58.6131C843.216 61.1042 841.1 63.1515 838.456 63.1861C838.453 63.1844 838.445 63.1845 838.442 63.1863ZM838.726 87.3091C836.079 87.3403 833.911 85.3434 833.882 82.8489C833.852 80.3543 835.972 78.3069 838.619 78.2758C841.266 78.2446 843.438 80.2415 843.467 82.736C843.5 85.227 841.384 87.2726 838.74 87.3072C838.737 87.3073 838.729 87.3074 838.726 87.3091ZM812.942 15.2342C810.295 15.2654 808.123 13.2685 808.094 10.774C808.064 8.27946 810.188 6.23201 812.835 6.20084C815.479 6.16971 817.65 8.16658 817.679 10.6611C817.712 13.1521 815.596 15.1978 812.953 15.2323C812.949 15.2324 812.945 15.2324 812.942 15.2342ZM813.226 39.357C810.579 39.3882 808.407 37.3913 808.378 34.8968C808.348 32.4023 810.472 30.3549 813.119 30.3237C815.763 30.2926 817.934 32.2894 817.963 34.7839C817.996 37.275 815.88 39.3223 813.237 39.3569C813.233 39.3552 813.229 39.3553 813.226 39.357ZM813.51 63.4799C810.863 63.511 808.691 61.5142 808.662 59.0197C808.633 56.5251 810.756 54.4777 813.403 54.4465C816.047 54.4154 818.218 56.4123 818.248 58.9068C818.281 61.3978 816.164 63.4452 813.521 63.4797C813.517 63.4781 813.513 63.4781 813.51 63.4799ZM813.794 87.6027C811.147 87.6339 808.975 85.637 808.946 83.1425C808.917 80.648 811.04 78.6005 813.687 78.5694C816.331 78.5382 818.502 80.5351 818.532 83.0296C818.565 85.5206 816.448 87.5663 813.805 87.6009C813.801 87.6009 813.797 87.6009 813.794 87.6027Z" fill="#7965EF"/>
<defs>
<filter id="filter0_d" x="104.039" y="119.682" width="338.339" height="201.317" filterUnits="userSpaceOnUse" color-interpolation-filters="sRGB">
<feFlood flood-opacity="0" result="BackgroundImageFix"/>
<feColorMatrix in="SourceAlpha" type="matrix" values="0 0 0 0 0 0 0 0 0 0 0 0 0 0 0 0 0 0 127 0" result="hardAlpha"/>
<feOffset dy="4"/>
<feGaussianBlur stdDeviation="2"/>
<feComposite in2="hardAlpha" operator="out"/>
<feColorMatrix type="matrix" values="0 0 0 0 0 0 0 0 0 0 0 0 0 0 0 0 0 0 0.25 0"/>
<feBlend mode="normal" in2="BackgroundImageFix" result="effect1_dropShadow"/>
<feBlend mode="normal" in="SourceGraphic" in2="effect1_dropShadow" result="shape"/>
</filter>
<filter id="filter1_d" x="673.522" y="297.674" width="350.478" height="208.297" filterUnits="userSpaceOnUse" color-interpolation-filters="sRGB">
<feFlood flood-opacity="0" result="BackgroundImageFix"/>
<feColorMatrix in="SourceAlpha" type="matrix" values="0 0 0 0 0 0 0 0 0 0 0 0 0 0 0 0 0 0 127 0" result="hardAlpha"/>
<feOffset dy="4"/>
<feGaussianBlur stdDeviation="2"/>
<feComposite in2="hardAlpha" operator="out"/>
<feColorMatrix type="matrix" values="0 0 0 0 0 0 0 0 0 0 0 0 0 0 0 0 0 0 0.25 0"/>
<feBlend mode="normal" in2="BackgroundImageFix" result="effect1_dropShadow"/>
<feBlend mode="normal" in="SourceGraphic" in2="effect1_dropShadow" result="shape"/>
</filter>
<filter id="filter2_d" x="723.141" y="479.004" width="72.1863" height="68.9619" filterUnits="userSpaceOnUse" color-interpolation-filters="sRGB">
<feFlood flood-opacity="0" result="BackgroundImageFix"/>
<feColorMatrix in="SourceAlpha" type="matrix" values="0 0 0 0 0 0 0 0 0 0 0 0 0 0 0 0 0 0 127 0" result="hardAlpha"/>
<feOffset dy="4"/>
<feGaussianBlur stdDeviation="2"/>
<feComposite in2="hardAlpha" operator="out"/>
<feColorMatrix type="matrix" values="0 0 0 0 0 0 0 0 0 0 0 0 0 0 0 0 0 0 0.25 0"/>
<feBlend mode="normal" in2="BackgroundImageFix" result="effect1_dropShadow"/>
<feBlend mode="normal" in="SourceGraphic" in2="effect1_dropShadow" result="shape"/>
</filter>
<filter id="filter3_d" x="533.465" y="159.135" width="365.502" height="100.562" filterUnits="userSpaceOnUse" color-interpolation-filters="sRGB">
<feFlood flood-opacity="0" result="BackgroundImageFix"/>
<feColorMatrix in="SourceAlpha" type="matrix" values="0 0 0 0 0 0 0 0 0 0 0 0 0 0 0 0 0 0 127 0" result="hardAlpha"/>
<feOffset dy="4"/>
<feGaussianBlur stdDeviation="2"/>
<feComposite in2="hardAlpha" operator="out"/>
<feColorMatrix type="matrix" values="0 0 0 0 0 0 0 0 0 0 0 0 0 0 0 0 0 0 0.25 0"/>
<feBlend mode="normal" in2="BackgroundImageFix" result="effect1_dropShadow"/>
<feBlend mode="normal" in="SourceGraphic" in2="effect1_dropShadow" result="shape"/>
</filter>
<filter id="filter4_d" x="-4" y="379.006" width="196.006" height="107.845" filterUnits="userSpaceOnUse" color-interpolation-filters="sRGB">
<feFlood flood-opacity="0" result="BackgroundImageFix"/>
<feColorMatrix in="SourceAlpha" type="matrix" values="0 0 0 0 0 0 0 0 0 0 0 0 0 0 0 0 0 0 127 0" result="hardAlpha"/>
<feOffset dy="4"/>
<feGaussianBlur stdDeviation="2"/>
<feComposite in2="hardAlpha" operator="out"/>
<feColorMatrix type="matrix" values="0 0 0 0 0 0 0 0 0 0 0 0 0 0 0 0 0 0 0.25 0"/>
<feBlend mode="normal" in2="BackgroundImageFix" result="effect1_dropShadow"/>
<feBlend mode="normal" in="SourceGraphic" in2="effect1_dropShadow" result="shape"/>
</filter>
<clipPath id="clip0">
<rect width="1020" height="633.387" fill="white" transform="translate(0 69)"/>
</clipPath>
</defs>
</svg>
