<svg width="179" height="36" viewBox="0 0 179 36" fill="none" xmlns="http://www.w3.org/2000/svg">
<path d="M11.3397 34.5916H4.59475V17.7774H0V12.303H4.59457V8.40761C4.59457 3.79156 6.62676 0.480957 13.3534 0.480957C14.7761 0.480957 17.0097 0.767715 17.0097 0.767715V5.85096H14.6637C12.2733 5.85096 11.34 6.57805 11.34 8.58822V12.303H16.9202L16.4233 17.7774H11.3398L11.3397 34.5916ZM26.816 11.8655C26.7177 11.8655 26.6166 11.8691 26.5165 11.8716C20.2623 11.8716 17.4008 16.5761 17.4008 23.2542C17.4008 31.6669 21.1125 35.0339 26.5654 35.0339C29.6852 35.0339 31.7349 33.7207 32.9808 31.2702V34.5939H39.3961V12.3053H32.9808V15.733C31.9635 13.5277 29.8565 11.8917 26.816 11.8655ZM28.4472 17.1323C31.074 17.1323 32.6507 18.9645 32.6507 22.0811L32.6568 25.2642C32.6568 27.3648 31.3545 29.8223 28.4472 29.8223C23.9776 29.8223 24.097 24.9961 24.097 23.3887C24.097 17.9816 26.4784 17.1323 28.4472 17.1323ZM41.987 23.4508C41.987 20.7423 41.8574 11.88 53.4036 11.88C58.0384 11.88 59.9738 13.3537 59.9738 13.3537L58.4183 18.1783C58.4183 18.1783 56.4854 17.114 53.9669 17.114C50.7411 17.114 48.6828 18.984 48.6828 22.2742L48.6864 24.6334C48.6864 27.7949 50.6724 29.9053 53.9735 29.9053C56.2679 29.9053 58.3826 28.831 58.3826 28.831L59.9342 33.5548C59.9342 33.5548 58.1646 35.0378 53.436 35.0378C42.4422 35.0378 41.9871 27.0866 41.9871 23.4508H41.987ZM97.5894 11.8716C103.844 11.8716 106.75 16.5761 106.75 23.2542C106.75 31.6669 103.038 35.0339 97.5856 35.0339C94.4658 35.0339 92.1596 33.7209 90.9137 31.2702V34.5939L84.5791 34.5914V1.15865L91.3049 0.572068V15.431C92.2756 12.8314 95.4657 11.8716 97.5895 11.8716H97.5894ZM95.7038 17.1323C93.077 17.1323 91.3049 18.9645 91.3049 22.0811L91.2986 25.2642C91.2947 27.3648 92.5258 29.8223 95.7038 29.8223C100.173 29.8223 100.054 24.9961 100.054 23.3887C100.054 17.9816 97.6728 17.1323 95.7038 17.1323ZM71.6435 11.8901C64.5497 11.8901 60.8047 15.7577 60.8047 22.631V23.9079C60.8047 32.8288 66.0639 35.1255 72.3339 35.1255C78.4283 35.1255 81.1869 33.4209 81.1869 33.4209L79.9283 28.8815C79.9283 28.8815 76.6834 30.2621 73.1403 30.2621C69.4672 30.2621 67.8875 29.3259 67.4826 25.796H81.7246V22.1543C81.7246 14.6986 77.5215 11.8899 71.6433 11.8899L71.6435 11.8901ZM71.8144 16.4356C74.27 16.4356 75.8611 17.9413 75.7737 21.4334H67.495C67.6386 17.758 69.3544 16.4358 71.8144 16.4358V16.4356ZM120.161 11.8594C112.877 11.8594 109.041 15.9646 109.041 23.3214C109.041 33.4152 115.652 35.0399 120.173 35.0399C126.792 35.0399 131.196 31.4766 131.196 23.413C131.196 15.0202 126.244 11.8594 120.161 11.8594V11.8594ZM120.07 17.1505C123.273 17.1505 124.542 19.5479 124.542 22.2767V24.6229C124.542 27.9286 122.766 29.8407 120.057 29.8407C117.524 29.8407 115.744 28.0521 115.744 24.6229V22.2767C115.744 18.6194 117.862 17.1505 120.07 17.1505V17.1505ZM144.594 11.8594C137.31 11.8594 133.475 15.9646 133.475 23.3214C133.475 33.4152 140.085 35.0399 144.607 35.0399C151.225 35.0399 155.629 31.4766 155.629 23.413C155.629 15.0202 150.677 11.8594 144.594 11.8594V11.8594ZM144.503 17.1505C147.706 17.1505 148.975 19.5479 148.975 22.2767V24.6229C148.975 27.9286 147.199 29.8407 144.491 29.8407C141.957 29.8407 140.177 28.0521 140.177 24.6229V22.2767C140.177 18.6194 142.296 17.1505 144.503 17.1505V17.1505ZM158.17 34.5916V1.15865L164.916 0.572068V22.9809L171.608 12.303H178.731L171.75 23.3622L179 34.5916H171.856L164.916 23.6879V34.5916H158.17Z" fill="white"/>
</svg>
