<svg width="839" height="701" viewBox="0 0 839 701" fill="none" xmlns="http://www.w3.org/2000/svg">
<path d="M616.118 603.348H586.119V608.619H616.118V603.348Z" fill="#4E4B66"/>
<path d="M632.383 680.524H629.15L602.721 557.182L601.217 550.154L596.465 528.013L594.708 519.747L588.06 488.764L585.74 477.926H597.281L599.15 488.764L600.387 495.891L601.217 500.629L605.954 528.013L607.473 536.813L632.383 680.524Z" fill="#4E4B66"/>
<path d="M597.281 477.926L599.15 488.764H588.06L585.74 477.926H597.281Z" fill="#14142B"/>
<path d="M607.473 536.813L602.721 557.182L601.217 550.154L596.465 528.013L594.708 519.747L600.387 495.891L601.217 500.629L605.954 528.013L607.473 536.813Z" fill="#14142B"/>
<path d="M616.681 477.926L614.362 488.764L605.955 528.013L601.218 550.154L573.271 680.524H570.052L596.466 528.013L601.218 500.629L603.27 488.764L605.154 477.926H616.681Z" fill="#4E4B66"/>
<path d="M616.681 477.926L614.362 488.764H603.27L605.154 477.926H616.681Z" fill="#14142B"/>
<path d="M816.572 603.348H786.573V608.619H816.572V603.348Z" fill="#4E4B66"/>
<path d="M832.836 680.524H829.603L803.175 557.182L801.671 550.154L796.919 528.013L795.162 519.747L788.513 488.764L786.193 477.926H797.734L799.604 488.764L800.841 495.891L801.671 500.629L806.408 528.013L807.926 536.813L832.836 680.524Z" fill="#4E4B66"/>
<path d="M797.734 477.926L799.604 488.764H788.513L786.193 477.926H797.734Z" fill="#14142B"/>
<path d="M807.927 536.813L803.176 557.182L801.672 550.154L796.92 528.013L795.163 519.747L800.842 495.891L801.672 500.629L806.409 528.013L807.927 536.813Z" fill="#14142B"/>
<path d="M817.134 477.926L814.814 488.764L806.408 528.013L801.671 550.154L773.738 680.524H770.505L796.919 528.013L801.671 500.629L803.723 488.764L805.607 477.926H817.134Z" fill="#4E4B66"/>
<path d="M817.134 477.926L814.814 488.764H803.723L805.607 477.926H817.134Z" fill="#14142B"/>
<path d="M835.115 463.081H557.334C555.678 463.081 554.334 464.424 554.334 466.081V474.926C554.334 476.582 555.678 477.926 557.334 477.926H835.115C836.772 477.926 838.115 476.583 838.115 474.926V466.081C838.115 464.424 836.772 463.081 835.115 463.081Z" fill="#4E4B66"/>
<path d="M623.864 463.081H552.188C550.592 463.081 549.251 461.883 549.07 460.298L544.021 415.98C543.809 414.119 545.265 412.487 547.139 412.487H615.3C616.896 412.487 618.237 413.685 618.418 415.27L623.864 463.081Z" fill="#D9DBE9"/>
<path d="M619.815 459.678H555.462C553.867 459.678 552.525 458.481 552.345 456.896L547.671 415.875H614.824L619.815 459.678Z" fill="white"/>
<path d="M645.723 459.678H549.906V463.066H645.723V459.678Z" fill="#D9DBE9"/>
<path d="M666.528 459.678H570.711V463.066H666.528V459.678Z" fill="#EFF0F7"/>
<path d="M615.063 418.012L614.824 415.875H547.671L547.924 418.012H615.063Z" fill="white"/>
<path d="M716.832 422.549L718.252 424.749L719.779 427.162C720.772 428.78 721.734 430.43 722.696 432.094C724.59 435.424 726.423 438.799 728.118 442.22C731.525 448.957 734.38 455.959 736.655 463.158C737.205 464.929 737.693 466.701 738.182 468.472L738.808 471.145L739.068 472.473L739.205 473.145C739.205 473.359 739.297 473.649 739.297 473.588C739.297 473.527 739.419 473.588 739.572 473.191C739.736 472.838 739.988 472.533 740.305 472.306C740.564 472.153 740.61 472.306 740.473 472.443C740.157 472.73 739.802 472.972 739.419 473.161C738.115 473.802 736.734 474.274 735.311 474.566C733.582 474.969 731.834 475.28 730.073 475.497C726.438 475.971 722.437 476.2 718.68 476.398H718.298C717.061 476.463 715.884 476.954 714.968 477.788C714.052 478.622 713.453 479.747 713.273 480.973C713.093 482.198 713.343 483.449 713.981 484.511C714.619 485.573 715.604 486.381 716.771 486.799C720.988 488.311 725.347 489.391 729.782 490.021C734.741 490.83 739.808 490.7 744.718 489.639C746.305 489.25 747.842 488.681 749.3 487.944C751.143 487.009 752.807 485.758 754.218 484.248C755.866 482.457 757.087 480.317 757.791 477.987C758.389 475.884 758.601 473.69 758.417 471.511C758.417 470.931 758.417 470.717 758.326 470.427L758.219 469.587L758.02 467.877C757.852 466.762 757.7 465.632 757.516 464.517C757.135 462.287 756.707 460.073 756.172 457.904C754.082 449.322 751.145 440.968 747.406 432.965C745.558 429.025 743.588 425.146 741.435 421.374C740.366 419.48 739.236 417.617 738.075 415.769C737.495 414.837 736.899 413.921 736.273 412.989C735.647 412.058 735.067 411.218 734.272 410.118C732.628 407.906 730.192 406.415 727.474 405.956C724.756 405.496 721.966 406.105 719.686 407.654C717.406 409.203 715.812 411.572 715.238 414.268C714.663 416.964 715.152 419.778 716.603 422.122L716.832 422.549Z" fill="#CAB7FF"/>
<path d="M675.995 360.912C675.842 361.95 675.17 362.699 674.468 362.607C673.765 362.515 673.368 361.584 673.521 360.561C673.674 359.537 674.346 358.774 675.048 358.865C675.751 358.957 676.148 359.889 675.995 360.912Z" fill="#14142B"/>
<path d="M675.261 362.714C673.564 365.68 668.82 369.936 669.03 370.793C669.24 371.65 670.412 371.862 671.238 372.147C672.063 372.432 672.942 372.533 673.81 372.442L675.261 362.714Z" fill="#FF97B8"/>
<path d="M680.5 355.75C680.37 355.739 680.25 355.679 680.164 355.582C679.631 355.028 678.972 354.61 678.244 354.363C677.516 354.116 676.74 354.047 675.979 354.162C675.82 354.194 675.654 354.162 675.517 354.074C675.38 353.985 675.283 353.847 675.246 353.688C675.215 353.53 675.247 353.366 675.335 353.232C675.424 353.098 675.562 353.004 675.72 352.97C676.678 352.811 677.66 352.887 678.583 353.19C679.506 353.493 680.342 354.015 681.019 354.711C681.132 354.828 681.195 354.984 681.195 355.147C681.195 355.309 681.132 355.465 681.019 355.582C680.95 355.646 680.868 355.695 680.778 355.724C680.688 355.753 680.593 355.762 680.5 355.75Z" fill="#14142B"/>
<path d="M706.25 372.29C705.807 381.911 706.54 399.29 714.008 404.559C714.008 404.559 712.862 414.41 695.498 417.006C676.424 419.846 684.961 408.881 684.961 408.881C695.01 404.849 693.589 397.152 690.688 390.173L706.25 372.29Z" fill="#FFD5BD"/>
<path d="M717.001 408.408C717.749 404.055 718.528 399.092 715.244 398.328C711.64 397.488 692.978 399.978 687.083 404.437C681.188 408.896 684.212 416.655 684.212 416.655L717.001 408.408Z" fill="white"/>
<path d="M666.679 424.627C665.976 440.021 666.679 470.549 677.125 516.762H746.184C746.612 507.156 736.7 465.739 737.556 420.228C737.598 417.947 737.186 415.68 736.344 413.56C735.502 411.439 734.246 409.508 732.65 407.877C731.054 406.247 729.149 404.951 727.047 404.064C724.945 403.177 722.687 402.717 720.405 402.711C719.046 402.711 717.611 402.711 716.129 402.879C706.359 403.559 696.639 404.824 687.021 406.667C684.15 407.324 681.355 408.087 678.82 408.866C675.419 409.923 672.428 412.004 670.255 414.825C668.082 417.646 666.833 421.069 666.679 424.627Z" fill="#624DE3"/>
<path opacity="0.2" d="M677.111 452.33C678.21 460.149 680.745 473.711 671.598 488.708C670.559 482.492 669.718 476.674 669.031 471.237L677.111 452.33Z" fill="#14142B"/>
<path d="M623.291 471.252L611.669 467.251L616.403 455.033C619.044 455.417 621.532 456.51 623.6 458.196C625.669 459.883 627.24 462.099 628.147 464.609L623.291 471.252Z" fill="#FFD5BD"/>
<path d="M605.791 463.949C605.179 462.572 603.317 454.79 604.554 454.083C605.791 453.376 616.68 455.091 616.68 455.091L611.945 467.354C611.945 467.354 606.403 465.325 605.791 463.949Z" fill="#FFD5BD"/>
<path d="M666.755 423.206C666.114 425.451 665.32 428.063 664.556 430.506C663.792 432.95 663.029 435.454 662.143 437.913C660.494 442.831 658.676 447.672 656.767 452.406C654.858 457.141 652.72 461.738 650.414 466.029C648.307 470.089 645.746 473.896 642.778 477.376L653.972 475.65C651.819 474.719 649.605 473.757 647.375 472.596C645.145 471.435 642.87 470.397 640.625 469.175L633.752 465.555C631.462 464.349 629.171 463.036 626.834 461.906L626.59 461.783C625.499 461.236 624.255 461.075 623.061 461.324C621.866 461.574 620.791 462.22 620.011 463.158C619.23 464.096 618.79 465.271 618.762 466.491C618.734 467.711 619.119 468.904 619.855 469.877C621.564 472.134 623.389 474.301 625.322 476.368C627.231 478.43 629.232 480.385 631.309 482.309C633.386 484.233 635.585 486.05 637.876 487.791C640.167 489.532 642.595 491.212 645.176 492.77C646.829 493.757 648.759 494.176 650.673 493.963C652.586 493.751 654.378 492.919 655.775 491.594L656.37 491.029C660.896 486.641 664.824 481.675 668.053 476.261C671.119 471.282 673.849 466.103 676.224 460.76C678.621 455.522 680.683 450.207 682.562 444.862C683.493 442.189 684.394 439.502 685.204 436.798C686.013 434.095 686.731 431.438 687.51 428.445C688.241 425.705 687.853 422.786 686.433 420.332C685.012 417.877 682.675 416.088 679.935 415.357C677.195 414.625 674.276 415.013 671.822 416.433C669.367 417.854 667.578 420.191 666.847 422.931L666.755 423.206Z" fill="#CAB7FF"/>
<path d="M710.678 363.874C708.006 376.398 707.089 383.866 699.728 389.409C688.656 397.748 673.903 389.623 672.773 376.535C671.765 364.76 676.286 346.25 689.42 343.059C692.314 342.343 695.342 342.378 698.219 343.163C701.095 343.947 703.723 345.453 705.853 347.539C707.983 349.625 709.544 352.22 710.389 355.079C711.233 357.938 711.333 360.966 710.678 363.874Z" fill="#FFD5BD"/>
<path d="M683.693 365.188C677.706 364.73 678.056 361.966 679.4 359.934C680.744 357.903 684.401 352.398 682.379 350.603C680.357 348.808 674.056 352.802 675.766 344.831C677.477 336.859 688.717 326.764 698.537 332.949C718.1 329.727 724.499 337.622 721.445 344.922C736.977 351.795 725.766 365.707 719.581 365.707C725.094 370.625 705.468 386.829 703.516 385.668C701.563 384.507 679.325 377.055 683.693 365.188Z" fill="#14142B"/>
<path d="M695.788 336.95C695.991 336.947 696.192 336.904 696.379 336.822C696.565 336.741 696.732 336.624 696.872 336.476C699.148 334.188 701.985 332.536 705.099 331.686C708.213 330.837 711.495 330.819 714.618 331.635C715.011 331.727 715.424 331.66 715.767 331.448C716.111 331.236 716.357 330.897 716.452 330.505C716.543 330.112 716.475 329.699 716.263 329.356C716.052 329.012 715.714 328.767 715.322 328.672C711.678 327.743 707.855 327.778 704.229 328.774C700.603 329.77 697.299 331.693 694.642 334.354C694.358 334.64 694.198 335.027 694.198 335.43C694.198 335.834 694.358 336.221 694.642 336.507C694.792 336.656 694.971 336.772 695.169 336.849C695.366 336.925 695.576 336.959 695.788 336.95Z" fill="#14142B"/>
<path d="M716.023 379.619C716.224 379.62 716.423 379.582 716.609 379.506C716.795 379.43 716.964 379.318 717.107 379.176C721.414 374.839 723.216 371.449 722.666 368.486C722.409 367.366 721.879 366.329 721.122 365.465C720.365 364.601 719.405 363.939 718.329 363.538C717.962 363.364 717.541 363.343 717.159 363.479C716.777 363.615 716.464 363.897 716.29 364.264C716.116 364.63 716.094 365.051 716.23 365.433C716.366 365.816 716.649 366.128 717.015 366.302C718.619 367.066 719.474 367.951 719.657 369.005C719.841 370.059 719.23 372.701 714.938 377.008C714.795 377.15 714.681 377.318 714.604 377.505C714.526 377.691 714.486 377.89 714.486 378.092C714.486 378.294 714.526 378.493 714.604 378.679C714.681 378.865 714.795 379.034 714.938 379.176C715.081 379.318 715.25 379.43 715.436 379.506C715.622 379.582 715.822 379.62 716.023 379.619Z" fill="#14142B"/>
<path d="M691.052 364.21C690.027 367.226 688.042 369.822 685.402 371.602C681.904 373.908 679.537 371.297 679.995 367.525C680.408 364.119 682.729 358.819 686.486 358.01C690.243 357.2 692.228 360.56 691.052 364.21Z" fill="#FFD5BD"/>
<path d="M571.642 687.121C569.993 687.121 568.389 686.892 567.855 686.159C567.718 685.962 567.644 685.727 567.644 685.487C567.644 685.247 567.718 685.012 567.855 684.815C567.958 684.637 568.097 684.481 568.262 684.358C568.428 684.234 568.616 684.146 568.817 684.097C570.97 683.517 575.476 686.083 575.674 686.205C575.727 686.234 575.77 686.279 575.795 686.334C575.82 686.389 575.825 686.451 575.812 686.51C575.804 686.572 575.778 686.629 575.737 686.676C575.696 686.722 575.642 686.755 575.582 686.77C574.281 686.994 572.963 687.112 571.642 687.121ZM569.596 684.617C569.4 684.616 569.205 684.642 569.016 684.693C568.889 684.717 568.77 684.768 568.665 684.842C568.559 684.915 568.471 685.01 568.405 685.121C568.191 685.502 568.267 685.686 568.405 685.793C569.016 686.632 572.284 686.648 574.681 686.312C573.093 685.416 571.344 684.84 569.535 684.617H569.596Z" fill="#3F80FD"/>
<path d="M575.551 686.77H575.429C573.901 686.083 570.771 683.288 571.015 681.822C571.015 681.486 571.305 681.058 572.145 680.967C572.448 680.935 572.754 680.965 573.045 681.054C573.337 681.144 573.607 681.29 573.84 681.486C575.49 682.845 575.841 686.327 575.856 686.465C575.858 686.518 575.847 686.572 575.823 686.62C575.799 686.668 575.763 686.709 575.719 686.739C575.669 686.771 575.609 686.782 575.551 686.77ZM572.389 681.532H572.206C571.656 681.532 571.626 681.807 571.611 681.868C571.473 682.753 573.565 684.922 575.169 685.899C575.023 684.426 574.425 683.035 573.459 681.914C573.159 681.664 572.78 681.528 572.389 681.532Z" fill="#3F80FD"/>
<path d="M590.227 686.465H577.307L579.766 656.562H592.686L590.227 686.465Z" fill="#FFD5BD"/>
<path d="M577.292 684.968H591.388C591.634 684.959 591.874 685.047 592.056 685.212C592.239 685.378 592.35 685.608 592.366 685.853L593.205 697.277C593.216 697.573 593.167 697.869 593.061 698.146C592.955 698.424 592.796 698.677 592.591 698.892C592.386 699.107 592.14 699.279 591.868 699.397C591.596 699.516 591.303 699.579 591.006 699.583C585.936 699.491 578.636 699.201 572.237 699.201C564.769 699.201 563.99 699.598 555.224 699.598C549.925 699.598 549.253 694.238 551.544 693.764C561.959 691.55 564.51 691.305 574.039 685.93C575.024 685.337 576.144 685.006 577.292 684.968Z" fill="#14142B"/>
<path opacity="0.2" d="M579.782 656.577L578.499 671.987H591.419L592.687 656.577H579.782Z" fill="#14142B"/>
<path d="M652.003 687.121C650.914 687.247 649.819 686.946 648.948 686.281C648.787 686.059 648.7 685.792 648.7 685.517C648.7 685.243 648.787 684.976 648.948 684.754C649.049 684.575 649.187 684.419 649.353 684.298C649.519 684.177 649.709 684.093 649.91 684.051C651.789 683.608 655.362 686.052 655.515 686.159C655.561 686.194 655.597 686.241 655.618 686.295C655.64 686.348 655.647 686.407 655.637 686.464C655.628 686.522 655.601 686.575 655.56 686.616C655.519 686.657 655.466 686.684 655.408 686.693C654.292 686.961 653.15 687.104 652.003 687.121ZM650.384 684.662C650.257 684.646 650.129 684.646 650.002 684.662C649.884 684.686 649.772 684.735 649.675 684.807C649.577 684.878 649.496 684.969 649.437 685.074C649.162 685.578 649.33 685.792 649.437 685.853C649.987 686.586 652.629 686.586 654.553 686.266C653.33 685.434 651.937 684.886 650.475 684.662H650.384Z" fill="#3F80FD"/>
<path d="M655.332 686.77H655.194C653.85 686.037 651.27 683.211 651.544 681.776C651.59 681.549 651.712 681.345 651.89 681.198C652.068 681.051 652.291 680.969 652.522 680.966C652.754 680.938 652.99 680.958 653.213 681.027C653.437 681.095 653.644 681.21 653.82 681.364C655.347 682.585 655.637 686.312 655.637 686.464C655.644 686.521 655.634 686.578 655.61 686.629C655.586 686.68 655.547 686.724 655.5 686.755C655.446 686.775 655.388 686.781 655.332 686.77ZM652.736 681.532H652.598C652.201 681.532 652.155 681.761 652.14 681.837C651.987 682.692 653.667 684.891 654.965 685.838C654.872 684.367 654.34 682.957 653.438 681.791C653.242 681.625 652.993 681.533 652.736 681.532Z" fill="#3F80FD"/>
<path d="M667.153 686.465H654.248L647.758 656.562H660.662L667.153 686.465Z" fill="#FFD5BD"/>
<path d="M653.331 684.968H667.824C668.081 684.966 668.331 685.053 668.532 685.214C668.732 685.376 668.871 685.601 668.923 685.853L671.474 697.277C671.536 697.556 671.534 697.846 671.469 698.125C671.403 698.403 671.275 698.663 671.094 698.885C670.913 699.107 670.684 699.285 670.425 699.406C670.165 699.527 669.882 699.587 669.595 699.583C664.525 699.491 662.066 699.201 655.683 699.201C651.758 699.201 646.733 699.598 641.312 699.598C635.89 699.598 635.203 694.238 637.402 693.764C647.344 691.58 648.092 688.587 651.223 685.716C651.81 685.217 652.56 684.95 653.331 684.968Z" fill="#14142B"/>
<path d="M697.818 516.762C697.818 516.762 626.193 538.494 624.421 567.267C621.168 620.26 647.161 665.419 647.161 665.419H666.526C666.526 665.419 659.165 643.031 656.523 595.031C653.209 534.707 767.275 596.436 746.184 516.762H697.818Z" fill="#171347"/>
<g opacity="0.2">
<path opacity="0.2" d="M660.678 656.577H647.758L651.102 671.987H664.023L660.678 656.577Z" fill="#14142B"/>
</g>
<path d="M677.126 516.762C677.126 516.762 584.501 522.871 580.836 572.031C576.636 628.538 575.414 665.419 575.414 665.419H594.596C594.596 665.419 604.462 630.767 612.922 580.95C615.473 566.03 647.116 563.464 677.065 561.692C702.874 560.165 722.697 558.638 724.866 530.049L724.53 516.762H677.126Z" fill="#171347"/>
<path d="M570.727 660.288C570.62 660.288 571.964 669.452 571.964 669.452H598.552L599.27 661.342L570.727 660.288Z" fill="#3F80FD"/>
<path d="M641.312 660.288C641.205 660.288 643.755 669.452 643.755 669.452H670.328L669.84 661.342L641.312 660.288Z" fill="#3F80FD"/>
<path d="M681.294 557.63L694.26 469.557C694.608 467.173 695.803 464.993 697.626 463.418C699.448 461.842 701.777 460.974 704.187 460.974H780.684C782.125 460.974 783.55 461.284 784.861 461.884C786.172 462.484 787.338 463.36 788.28 464.451C789.222 465.543 789.918 466.824 790.32 468.208C790.722 469.593 790.821 471.048 790.611 472.474L778.088 557.63C778.088 558.61 777.894 559.58 777.519 560.486C777.143 561.391 776.593 562.213 775.899 562.905C775.206 563.598 774.382 564.146 773.476 564.52C772.57 564.894 771.6 565.085 770.62 565.083H631.171C631.171 564.103 631.365 563.132 631.74 562.227C632.116 561.322 632.666 560.5 633.36 559.808C634.053 559.115 634.877 558.567 635.783 558.193C636.689 557.819 637.659 557.628 638.639 557.63H681.294Z" fill="#3F80FD"/>
<path opacity="0.5" d="M681.294 557.63L694.26 469.557C694.608 467.173 695.803 464.993 697.626 463.418C699.448 461.842 701.777 460.974 704.187 460.974H780.684C782.125 460.974 783.55 461.284 784.861 461.884C786.172 462.484 787.338 463.36 788.28 464.451C789.222 465.543 789.918 466.824 790.32 468.208C790.722 469.593 790.821 471.048 790.611 472.474L778.088 557.63C778.088 558.61 777.894 559.58 777.519 560.486C777.143 561.391 776.593 562.213 775.899 562.905C775.206 563.598 774.382 564.146 773.476 564.52C772.57 564.894 771.6 565.085 770.62 565.083H631.171C631.171 564.103 631.365 563.132 631.74 562.227C632.116 561.322 632.666 560.5 633.36 559.808C634.053 559.115 634.877 558.567 635.783 558.193C636.689 557.819 637.659 557.628 638.639 557.63H681.294Z" fill="white"/>
<path opacity="0.3" d="M704.188 460.974H780.685C782.126 460.974 783.55 461.284 784.861 461.884C786.172 462.484 787.338 463.36 788.28 464.451C789.222 465.543 789.918 466.824 790.32 468.208C790.722 469.593 790.821 471.048 790.611 472.474L778.089 557.63C778.089 558.61 777.895 559.58 777.52 560.486C777.144 561.391 776.594 562.213 775.9 562.905C775.207 563.598 774.383 564.146 773.477 564.52C772.571 564.894 771.6 565.085 770.62 565.083H689.51L704.188 460.974Z" fill="#3F80FD"/>
<path d="M777.11 700.698H781.432L770.62 565.083H766.282L777.11 700.698Z" fill="#3F80FD"/>
<path opacity="0.6" d="M777.11 700.698H781.432L770.62 565.083H766.282L777.11 700.698Z" fill="white"/>
<path d="M703.577 700.698H707.899L697.071 565.083H692.749L703.577 700.698Z" fill="#3F80FD"/>
<path opacity="0.6" d="M703.577 700.698H707.899L697.071 565.083H692.749L703.577 700.698Z" fill="white"/>
<path d="M696.917 700.698H701.254L712.068 565.083H707.745L696.917 700.698Z" fill="#3F80FD"/>
<path opacity="0.7" d="M696.917 700.698H701.254L712.068 565.083H707.745L696.917 700.698Z" fill="white"/>
<path d="M623.384 700.698H627.706L638.533 565.083H634.212L623.384 700.698Z" fill="#3F80FD"/>
<path opacity="0.7" d="M623.384 700.698H627.706L638.533 565.083H634.212L623.384 700.698Z" fill="white"/>
<g filter="url(#filter0_dd)">
<path d="M499.625 307.499H247.147C233.88 307.499 223.125 318.254 223.125 331.521V542.53C223.125 555.797 233.88 566.552 247.147 566.552H499.625C512.892 566.552 523.647 555.797 523.647 542.53V331.521C523.647 318.254 512.892 307.499 499.625 307.499Z" fill="white" fill-opacity="0.01"/>
</g>
<path d="M499.625 307.499H247.147C233.88 307.499 223.125 318.254 223.125 331.521V542.53C223.125 555.797 233.88 566.552 247.147 566.552H499.625C512.892 566.552 523.647 555.797 523.647 542.53V331.521C523.647 318.254 512.892 307.499 499.625 307.499Z" fill="white"/>
<g filter="url(#filter1_d)">
<path d="M245.212 326.463C245.212 327.505 244.904 328.524 244.325 329.39C243.746 330.256 242.924 330.931 241.961 331.329C240.999 331.728 239.94 331.833 238.917 331.63C237.896 331.426 236.957 330.925 236.221 330.187C235.485 329.451 234.983 328.513 234.78 327.491C234.577 326.469 234.68 325.41 235.079 324.447C235.477 323.485 236.152 322.662 237.02 322.083C237.886 321.504 238.904 321.196 239.946 321.196C241.342 321.196 242.683 321.751 243.67 322.738C244.657 323.727 245.212 325.066 245.212 326.463Z" fill="#FF3951" fill-opacity="0.01"/>
</g>
<path d="M245.212 326.463C245.212 327.505 244.904 328.524 244.325 329.39C243.746 330.256 242.924 330.931 241.961 331.329C240.999 331.728 239.94 331.833 238.917 331.63C237.896 331.426 236.957 330.925 236.221 330.187C235.485 329.451 234.983 328.513 234.78 327.491C234.577 326.469 234.68 325.41 235.079 324.447C235.477 323.485 236.152 322.662 237.02 322.083C237.886 321.504 238.904 321.196 239.946 321.196C241.342 321.196 242.683 321.751 243.67 322.738C244.657 323.727 245.212 325.066 245.212 326.463Z" fill="#FF3951"/>
<g filter="url(#filter2_d)">
<path d="M260.551 326.463C260.551 327.505 260.243 328.524 259.664 329.39C259.085 330.256 258.263 330.931 257.3 331.329C256.338 331.728 255.279 331.833 254.257 331.63C253.236 331.426 252.296 330.925 251.56 330.187C250.824 329.451 250.322 328.513 250.119 327.491C249.916 326.469 250.019 325.41 250.418 324.447C250.817 323.485 251.492 322.662 252.359 322.083C253.225 321.504 254.243 321.196 255.285 321.196C256.682 321.196 258.022 321.751 259.009 322.738C259.997 323.727 260.551 325.066 260.551 326.463Z" fill="#FFC226" fill-opacity="0.01"/>
</g>
<path d="M260.551 326.463C260.551 327.505 260.243 328.524 259.664 329.39C259.085 330.256 258.263 330.931 257.3 331.329C256.338 331.728 255.279 331.833 254.257 331.63C253.236 331.426 252.296 330.925 251.56 330.187C250.824 329.451 250.322 328.513 250.119 327.491C249.916 326.469 250.019 325.41 250.418 324.447C250.817 323.485 251.492 322.662 252.359 322.083C253.225 321.504 254.243 321.196 255.285 321.196C256.682 321.196 258.022 321.751 259.009 322.738C259.997 323.727 260.551 325.066 260.551 326.463Z" fill="#FFC226"/>
<g filter="url(#filter3_d)">
<path d="M275.892 326.463C275.892 327.505 275.582 328.524 275.004 329.39C274.425 330.256 273.603 330.931 272.639 331.329C271.677 331.728 270.618 331.833 269.597 331.63C268.575 331.426 267.637 330.925 266.899 330.187C266.163 329.451 265.661 328.513 265.458 327.491C265.255 326.469 265.359 325.41 265.758 324.447C266.156 323.485 266.832 322.662 267.698 322.083C268.564 321.504 269.582 321.196 270.624 321.196C272.021 321.196 273.361 321.751 274.348 322.738C275.337 323.727 275.892 325.066 275.892 326.463Z" fill="#9AE886" fill-opacity="0.01"/>
</g>
<path d="M275.892 326.463C275.892 327.505 275.582 328.524 275.004 329.39C274.425 330.256 273.603 330.931 272.639 331.329C271.677 331.728 270.618 331.833 269.597 331.63C268.575 331.426 267.637 330.925 266.899 330.187C266.163 329.451 265.661 328.513 265.458 327.491C265.255 326.469 265.359 325.41 265.758 324.447C266.156 323.485 266.832 322.662 267.698 322.083C268.564 321.504 269.582 321.196 270.624 321.196C272.021 321.196 273.361 321.751 274.348 322.738C275.337 323.727 275.892 325.066 275.892 326.463Z" fill="#9AE886"/>
<path d="M523.647 337.139H223.125V338.894H523.647V337.139Z" fill="#F5F7FC"/>
<path d="M499.091 359.649H393.589C390.935 359.649 388.784 361.801 388.784 364.454C388.784 367.107 390.935 369.258 393.589 369.258H499.091C501.744 369.258 503.895 367.107 503.895 364.454C503.895 361.801 501.744 359.649 499.091 359.649Z" fill="#EFF0F7"/>
<path d="M459.72 376.464H393.589C390.935 376.464 388.784 378.616 388.784 381.269C388.784 383.922 390.935 386.073 393.589 386.073H459.72C462.373 386.073 464.524 383.922 464.524 381.269C464.524 378.616 462.373 376.464 459.72 376.464Z" fill="#EFF0F7"/>
<g filter="url(#filter4_dd)">
<path d="M679.068 21.4414H444.147C430.88 21.4414 420.125 32.1964 420.125 45.4633V258.706C420.125 271.974 430.88 282.728 444.147 282.728H679.068C692.335 282.728 703.089 271.974 703.089 258.706V45.4633C703.089 32.1964 692.335 21.4414 679.068 21.4414Z" fill="white" fill-opacity="0.01"/>
</g>
<path d="M679.068 21.4414H444.147C430.88 21.4414 420.125 32.1964 420.125 45.4633V258.706C420.125 271.974 430.88 282.728 444.147 282.728H679.068C692.335 282.728 703.089 271.974 703.089 258.706V45.4633C703.089 32.1964 692.335 21.4414 679.068 21.4414Z" fill="white"/>
<g filter="url(#filter5_d)">
<path d="M441.862 41.6214C441.862 42.6632 441.553 43.6817 440.974 44.5479C440.395 45.414 439.573 46.0891 438.61 46.4879C437.647 46.8865 436.589 46.9908 435.567 46.7876C434.545 46.5843 433.607 46.0826 432.87 45.346C432.133 44.6094 431.632 43.6708 431.428 42.6491C431.225 41.6273 431.329 40.5682 431.728 39.6057C432.127 38.6432 432.802 37.8205 433.668 37.2417C434.534 36.6629 435.552 36.354 436.595 36.354C437.992 36.354 439.331 36.909 440.32 37.8968C441.307 38.8846 441.862 40.2244 441.862 41.6214Z" fill="#FF3951" fill-opacity="0.01"/>
</g>
<path d="M441.862 41.6214C441.862 42.6632 441.553 43.6817 440.974 44.5479C440.395 45.414 439.573 46.0891 438.61 46.4879C437.647 46.8865 436.589 46.9908 435.567 46.7876C434.545 46.5843 433.607 46.0826 432.87 45.346C432.133 44.6094 431.632 43.6708 431.428 42.6491C431.225 41.6273 431.329 40.5682 431.728 39.6057C432.127 38.6432 432.802 37.8205 433.668 37.2417C434.534 36.6629 435.552 36.354 436.595 36.354C437.992 36.354 439.331 36.909 440.32 37.8968C441.307 38.8846 441.862 40.2244 441.862 41.6214Z" fill="#FF3951"/>
<g filter="url(#filter6_d)">
<path d="M458.402 41.6219C458.402 42.6636 458.093 43.682 457.514 44.5483C456.936 45.4145 456.113 46.0896 455.151 46.4883C454.187 46.8869 453.129 46.9913 452.107 46.7881C451.085 46.5848 450.147 46.0831 449.411 45.3465C448.673 44.6098 448.172 43.6712 447.968 42.6494C447.765 41.6277 447.87 40.5685 448.268 39.6061C448.667 38.6437 449.342 37.8209 450.208 37.2422C451.074 36.6634 452.093 36.3545 453.135 36.3545C454.532 36.3545 455.871 36.9094 456.86 37.8972C457.847 38.8851 458.402 40.2248 458.402 41.6219Z" fill="#FFC226" fill-opacity="0.01"/>
</g>
<path d="M458.402 41.6219C458.402 42.6636 458.093 43.682 457.514 44.5483C456.936 45.4145 456.113 46.0896 455.151 46.4883C454.187 46.8869 453.129 46.9913 452.107 46.7881C451.085 46.5848 450.147 46.0831 449.411 45.3465C448.673 44.6098 448.172 43.6712 447.968 42.6494C447.765 41.6277 447.87 40.5685 448.268 39.6061C448.667 38.6437 449.342 37.8209 450.208 37.2422C451.074 36.6634 452.093 36.3545 453.135 36.3545C454.532 36.3545 455.871 36.9094 456.86 37.8972C457.847 38.8851 458.402 40.2248 458.402 41.6219Z" fill="#FFC226"/>
<g filter="url(#filter7_d)">
<path d="M474.942 41.6219C474.942 42.6636 474.634 43.682 474.055 44.5483C473.476 45.4145 472.653 46.0896 471.691 46.4883C470.729 46.8869 469.67 46.9913 468.647 46.7881C467.625 46.5848 466.687 46.0831 465.951 45.3465C465.213 44.6098 464.713 43.6712 464.508 42.6494C464.305 41.6277 464.41 40.5685 464.809 39.6061C465.207 38.6437 465.882 37.8209 466.748 37.2422C467.614 36.6634 468.633 36.3545 469.676 36.3545C471.072 36.3545 472.412 36.9094 473.4 37.8972C474.387 38.8851 474.942 40.2248 474.942 41.6219Z" fill="#9AE886" fill-opacity="0.01"/>
</g>
<path d="M474.942 41.6219C474.942 42.6636 474.634 43.682 474.055 44.5483C473.476 45.4145 472.653 46.0896 471.691 46.4883C470.729 46.8869 469.67 46.9913 468.647 46.7881C467.625 46.5848 466.687 46.0831 465.951 45.3465C465.213 44.6098 464.713 43.6712 464.508 42.6494C464.305 41.6277 464.41 40.5685 464.809 39.6061C465.207 38.6437 465.882 37.8209 466.748 37.2422C467.614 36.6634 468.633 36.3545 469.676 36.3545C471.072 36.3545 472.412 36.9094 473.4 37.8972C474.387 38.8851 474.942 40.2248 474.942 41.6219Z" fill="#9AE886"/>
<path d="M702.79 52.2974H419.826V54.0531H702.79V52.2974Z" fill="#F5F7FC"/>
<path d="M636.253 73.8057H451.144C448.491 73.8057 446.34 75.9567 446.34 78.6101C446.34 81.2635 448.491 83.4144 451.144 83.4144H636.253C638.907 83.4144 641.058 81.2635 641.058 78.6101C641.058 75.9567 638.907 73.8057 636.253 73.8057Z" fill="#EFF0F7"/>
<path d="M514.599 90.6211H451.144C448.491 90.6211 446.34 92.7721 446.34 95.4255C446.34 98.0789 448.491 100.23 451.144 100.23H514.599C517.254 100.23 519.404 98.0789 519.404 95.4255C519.404 92.7721 517.254 90.6211 514.599 90.6211Z" fill="#EFF0F7"/>
<path d="M672.644 118.64H450.571C448.234 118.64 446.34 120.535 446.34 122.871C446.34 125.208 448.234 127.102 450.571 127.102H672.644C674.982 127.102 676.876 125.208 676.876 122.871C676.876 120.535 674.982 118.64 672.644 118.64Z" fill="#F5F7FC"/>
<g filter="url(#filter8_d)">
<path d="M564.251 118.639H458.072C455.734 118.639 453.84 120.533 453.84 122.871C453.84 125.208 455.734 127.102 458.071 127.102H564.251C566.589 127.102 568.483 125.208 568.483 122.871C568.483 120.533 566.589 118.639 564.251 118.639Z" fill="#FF3951" fill-opacity="0.01"/>
</g>
<path d="M564.251 118.639H458.072C455.734 118.639 453.84 120.533 453.84 122.871C453.84 125.208 455.734 127.102 458.071 127.102H564.251C566.589 127.102 568.483 125.208 568.483 122.871C568.483 120.533 566.589 118.639 564.251 118.639Z" fill="#624DE3"/>
<path d="M672.158 147.365H451.058C448.452 147.365 446.34 149.477 446.34 152.083C446.34 154.689 448.452 156.802 451.058 156.802H672.158C674.763 156.802 676.876 154.689 676.876 152.083C676.876 149.477 674.763 147.365 672.158 147.365Z" fill="#F5F7FC"/>
<g filter="url(#filter9_d)">
<path d="M628.509 147.365H458.072C455.734 147.365 453.84 149.259 453.84 151.596C453.84 153.932 455.734 155.828 458.071 155.828H628.509C630.846 155.828 632.74 153.932 632.74 151.596C632.74 149.259 630.846 147.365 628.509 147.365Z" fill="#FFC226" fill-opacity="0.01"/>
</g>
<path d="M628.509 147.365H458.072C455.734 147.365 453.84 149.259 453.84 151.596C453.84 153.932 455.734 155.828 458.071 155.828H628.509C630.846 155.828 632.74 153.932 632.74 151.596C632.74 149.259 630.846 147.365 628.509 147.365Z" fill="#CAB7FF"/>
<path d="M672.644 176.089H450.571C448.234 176.089 446.34 177.983 446.34 180.32C446.34 182.658 448.234 184.552 450.571 184.552H672.644C674.982 184.552 676.876 182.658 676.876 180.32C676.876 177.983 674.982 176.089 672.644 176.089Z" fill="#F5F7FC"/>
<g filter="url(#filter10_d)">
<path d="M494.449 176.089H458.072C455.734 176.089 453.84 177.983 453.84 180.32C453.84 182.658 455.734 184.552 458.072 184.552H494.449C496.787 184.552 498.681 182.658 498.681 180.32C498.681 177.983 496.787 176.089 494.449 176.089Z" fill="#FF3951" fill-opacity="0.01"/>
</g>
<path d="M494.449 176.089H458.072C455.734 176.089 453.84 177.983 453.84 180.32C453.84 182.658 455.734 184.552 458.072 184.552H494.449C496.787 184.552 498.681 182.658 498.681 180.32C498.681 177.983 496.787 176.089 494.449 176.089Z" fill="#624DE3"/>
<path d="M672.644 204.813H450.571C448.234 204.813 446.34 206.709 446.34 209.045C446.34 211.382 448.234 213.276 450.571 213.276H672.644C674.982 213.276 676.876 211.382 676.876 209.045C676.876 206.709 674.982 204.813 672.644 204.813Z" fill="#F5F7FC"/>
<g filter="url(#filter11_d)">
<path d="M591.712 204.814H458.072C455.734 204.814 453.84 206.709 453.84 209.046C453.84 211.382 455.734 213.277 458.072 213.277H591.712C594.049 213.277 595.943 211.382 595.943 209.046C595.943 206.709 594.049 204.814 591.712 204.814Z" fill="#FFC226" fill-opacity="0.01"/>
</g>
<path d="M591.712 204.814H458.072C455.734 204.814 453.84 206.709 453.84 209.046C453.84 211.382 455.734 213.277 458.072 213.277H591.712C594.049 213.277 595.943 211.382 595.943 209.046C595.943 206.709 594.049 204.814 591.712 204.814Z" fill="#CAB7FF"/>
<path d="M672.644 233.539H450.571C448.234 233.539 446.34 235.434 446.34 237.77C446.34 240.107 448.234 242.003 450.571 242.003H672.644C674.982 242.003 676.876 240.107 676.876 237.77C676.876 235.434 674.982 233.539 672.644 233.539Z" fill="#F5F7FC"/>
<g filter="url(#filter12_d)">
<path d="M612.802 233.539H458.072C455.734 233.539 453.84 235.434 453.84 237.77C453.84 240.107 455.734 242.003 458.072 242.003H612.802C615.139 242.003 617.033 240.107 617.033 237.77C617.033 235.434 615.139 233.539 612.802 233.539Z" fill="#FF3951" fill-opacity="0.01"/>
</g>
<path d="M612.802 233.539H458.072C455.734 233.539 453.84 235.434 453.84 237.77C453.84 240.107 455.734 242.003 458.072 242.003H612.802C615.139 242.003 617.033 240.107 617.033 237.77C617.033 235.434 615.139 233.539 612.802 233.539Z" fill="#624DE3"/>
<path d="M380.326 456.264C380.326 495.03 348.901 526.455 310.135 526.455C271.37 526.455 239.944 495.03 239.944 456.264C239.944 417.499 271.37 386.073 310.135 386.073C348.901 386.073 380.326 417.499 380.326 456.264ZM271.396 456.264C271.396 477.659 288.74 495.004 310.135 495.004C331.53 495.004 348.875 477.659 348.875 456.264C348.875 434.869 331.53 417.524 310.135 417.524C288.74 417.524 271.396 434.869 271.396 456.264Z" fill="#F5F7FC"/>
<g filter="url(#filter13_d)">
<path d="M317.542 402.193C325.145 403.235 332.444 405.868 338.961 409.921C345.477 413.975 351.066 419.357 355.362 425.718C359.658 432.078 362.564 439.271 363.89 446.831C365.217 454.391 364.934 462.144 363.06 469.587" stroke="#FFC226" stroke-opacity="0.01" stroke-width="31.2285" stroke-linecap="round"/>
</g>
<path d="M317.542 402.193C325.145 403.235 332.444 405.868 338.961 409.921C345.477 413.975 351.066 419.357 355.362 425.718C359.658 432.078 362.564 439.271 363.89 446.831C365.217 454.391 364.934 462.144 363.06 469.587" stroke="#CAB7FF" stroke-width="31.2285" stroke-linecap="round"/>
<g filter="url(#filter14_d)">
<path d="M265.931 424.255C274.153 412.902 286.427 405.148 300.209 402.598C313.993 400.049 328.228 402.9 339.966 410.561" stroke="#FF8139" stroke-opacity="0.01" stroke-width="31.2285" stroke-linecap="round"/>
</g>
<path d="M265.931 424.255C274.153 412.902 286.427 405.148 300.209 402.598C313.993 400.049 328.228 402.9 339.966 410.561" stroke="#624DE3" stroke-width="31.2285" stroke-linecap="round"/>
<g filter="url(#filter15_d)">
<path d="M320.873 509.774C310.512 511.853 299.77 510.879 289.952 506.971C280.134 503.064 271.662 496.389 265.564 487.758C259.464 479.128 256.004 468.913 255.599 458.353C255.194 447.794 257.865 437.343 263.284 428.272" stroke="#FF3951" stroke-opacity="0.01" stroke-width="31.2285" stroke-linecap="round"/>
</g>
<path d="M320.873 509.774C310.512 511.853 299.77 510.879 289.952 506.971C280.134 503.064 271.662 496.389 265.564 487.758C259.464 479.128 256.004 468.913 255.599 458.353C255.194 447.794 257.865 437.343 263.284 428.272" stroke="#171347" stroke-width="31.2285" stroke-linecap="round"/>
<g filter="url(#filter16_d)">
<path d="M417.56 438.248C421.54 438.248 424.766 435.021 424.766 431.041C424.766 427.061 421.54 423.834 417.56 423.834C413.579 423.834 410.353 427.061 410.353 431.041C410.353 435.021 413.579 438.248 417.56 438.248Z" fill="#FF3951" fill-opacity="0.01"/>
</g>
<path d="M417.56 438.248C421.54 438.248 424.766 435.021 424.766 431.041C424.766 427.061 421.54 423.834 417.56 423.834C413.579 423.834 410.353 427.061 410.353 431.041C410.353 435.021 413.579 438.248 417.56 438.248Z" fill="#171347"/>
<path d="M492.196 427.438H434.375C432.385 427.438 430.772 429.051 430.772 431.041C430.772 433.031 432.385 434.645 434.375 434.645H492.196C494.185 434.645 495.799 433.031 495.799 431.041C495.799 429.051 494.185 427.438 492.196 427.438Z" fill="#EFF0F7"/>
<g filter="url(#filter17_d)">
<path d="M417.56 463.471C421.54 463.471 424.766 460.245 424.766 456.264C424.766 452.284 421.54 449.058 417.56 449.058C413.579 449.058 410.353 452.284 410.353 456.264C410.353 460.245 413.579 463.471 417.56 463.471Z" fill="#FF8139" fill-opacity="0.01"/>
</g>
<path d="M417.56 463.471C421.54 463.471 424.766 460.245 424.766 456.264C424.766 452.284 421.54 449.058 417.56 449.058C413.579 449.058 410.353 452.284 410.353 456.264C410.353 460.245 413.579 463.471 417.56 463.471Z" fill="#7545FF"/>
<path d="M492.196 452.661H434.375C432.385 452.661 430.772 454.274 430.772 456.264C430.772 458.255 432.385 459.868 434.375 459.868H492.196C494.185 459.868 495.799 458.255 495.799 456.264C495.799 454.274 494.185 452.661 492.196 452.661Z" fill="#EFF0F7"/>
<g filter="url(#filter18_d)">
<path d="M417.56 488.694C421.54 488.694 424.766 485.468 424.766 481.487C424.766 477.507 421.54 474.281 417.56 474.281C413.579 474.281 410.353 477.507 410.353 481.487C410.353 485.468 413.579 488.694 417.56 488.694Z" fill="#FFC226" fill-opacity="0.01"/>
</g>
<path d="M417.56 488.694C421.54 488.694 424.766 485.468 424.766 481.487C424.766 477.507 421.54 474.281 417.56 474.281C413.579 474.281 410.353 477.507 410.353 481.487C410.353 485.468 413.579 488.694 417.56 488.694Z" fill="#CAB7FF"/>
<path d="M492.196 477.884H434.375C432.385 477.884 430.772 479.497 430.772 481.487C430.772 483.477 432.385 485.09 434.375 485.09H492.196C494.185 485.09 495.799 483.477 495.799 481.487C495.799 479.497 494.185 477.884 492.196 477.884Z" fill="#EFF0F7"/>
<g filter="url(#filter19_dd)">
<path d="M366.71 19.2173H114.232C100.965 19.2173 90.2101 29.9723 90.2101 43.2392V256.482C90.2101 269.749 100.965 280.504 114.232 280.504H366.71C379.978 280.504 390.732 269.749 390.732 256.482V43.2392C390.732 29.9723 379.978 19.2173 366.71 19.2173Z" fill="white" fill-opacity="0.01"/>
</g>
<path d="M366.71 19.2173H114.232C100.965 19.2173 90.2101 29.9723 90.2101 43.2392V256.482C90.2101 269.749 100.965 280.504 114.232 280.504H366.71C379.978 280.504 390.732 269.749 390.732 256.482V43.2392C390.732 29.9723 379.978 19.2173 366.71 19.2173Z" fill="white"/>
<path d="M390.732 51.0918H90.2101V52.8477H390.732V51.0918Z" fill="#F5F7FC"/>
<path d="M333.512 72.6006H147.465C145.071 72.6006 143.13 74.5419 143.13 76.9365C143.13 79.3313 145.071 81.2725 147.465 81.2725H333.512C335.906 81.2725 337.848 79.3313 337.848 76.9365C337.848 74.5419 335.906 72.6006 333.512 72.6006Z" fill="#EFF0F7"/>
<path d="M300.204 88.4785H180.756C178.361 88.4785 176.42 90.4198 176.42 92.8145C176.42 95.2092 178.361 97.1504 180.756 97.1504H300.204C302.599 97.1504 304.54 95.2092 304.54 92.8145C304.54 90.4198 302.599 88.4785 300.204 88.4785Z" fill="#EFF0F7"/>
<g filter="url(#filter20_d)">
<path d="M311.336 148.961V247.569C311.336 251.548 314.562 254.775 318.543 254.775C322.522 254.775 325.749 251.548 325.749 247.569V148.961C325.749 144.981 322.522 141.754 318.543 141.754C314.562 141.754 311.336 144.981 311.336 148.961Z" fill="#FFC226" fill-opacity="0.01"/>
</g>
<path d="M311.336 148.961V247.569C311.336 251.548 314.562 254.775 318.543 254.775C322.522 254.775 325.749 251.548 325.749 247.569V148.961C325.749 144.981 322.522 141.754 318.543 141.754C314.562 141.754 311.336 144.981 311.336 148.961Z" fill="#CAB7FF"/>
<path d="M280.108 164.008V247.551C280.108 251.531 283.334 254.757 287.314 254.757C291.293 254.757 294.521 251.531 294.521 247.551V164.008C294.521 160.028 291.293 156.802 287.314 156.802C283.334 156.802 280.108 160.028 280.108 164.008Z" fill="#624DE3"/>
<g filter="url(#filter21_d)">
<path d="M248.879 216.699V247.551C248.879 251.531 252.105 254.757 256.086 254.757C260.065 254.757 263.292 251.531 263.292 247.551V216.699C263.292 212.719 260.065 209.493 256.086 209.493C252.105 209.493 248.879 212.719 248.879 216.699Z" fill="#FFC226" fill-opacity="0.01"/>
</g>
<path d="M248.879 216.699V247.551C248.879 251.531 252.105 254.757 256.086 254.757C260.065 254.757 263.292 251.531 263.292 247.551V216.699C263.292 212.719 260.065 209.493 256.086 209.493C252.105 209.493 248.879 212.719 248.879 216.699Z" fill="#CAB7FF"/>
<path d="M217.651 137.776V247.551C217.651 251.531 220.877 254.757 224.857 254.757C228.836 254.757 232.064 251.531 232.064 247.551V137.776C232.064 133.796 228.836 130.57 224.857 130.57C220.877 130.57 217.651 133.796 217.651 137.776Z" fill="#624DE3"/>
<g filter="url(#filter22_d)">
<path d="M186.422 127.944V247.551C186.422 251.531 189.648 254.757 193.629 254.757C197.608 254.757 200.835 251.531 200.835 247.551V127.944C200.835 123.964 197.608 120.738 193.629 120.738C189.648 120.738 186.422 123.964 186.422 127.944Z" fill="#FFC226" fill-opacity="0.01"/>
</g>
<path d="M186.422 127.944V247.551C186.422 251.531 189.648 254.757 193.629 254.757C197.608 254.757 200.835 251.531 200.835 247.551V127.944C200.835 123.964 197.608 120.738 193.629 120.738C189.648 120.738 186.422 123.964 186.422 127.944Z" fill="#CAB7FF"/>
<path d="M155.193 177.054V247.551C155.193 251.531 158.42 254.758 162.4 254.758C166.38 254.758 169.607 251.531 169.607 247.551V177.054C169.607 173.073 166.38 169.847 162.4 169.847C158.42 169.847 155.193 173.073 155.193 177.054Z" fill="#624DE3"/>
<g filter="url(#filter23_d)">
<path d="M113.498 40.4163C113.498 41.4582 113.19 42.4766 112.611 43.3427C112.032 44.2089 111.209 44.8841 110.247 45.2828C109.284 45.6815 108.225 45.7857 107.204 45.5825C106.182 45.3793 105.243 44.8776 104.506 44.1409C103.77 43.4043 103.268 42.4658 103.065 41.444C102.862 40.4222 102.966 39.3631 103.365 38.4007C103.763 37.4381 104.439 36.6155 105.305 36.0367C106.171 35.4578 107.189 35.1489 108.231 35.1489C109.628 35.1489 110.968 35.704 111.956 36.6917C112.944 37.6795 113.498 39.0193 113.498 40.4163Z" fill="#FF3951" fill-opacity="0.01"/>
</g>
<path d="M113.498 40.4163C113.498 41.4582 113.19 42.4766 112.611 43.3427C112.032 44.2089 111.209 44.8841 110.247 45.2828C109.284 45.6815 108.225 45.7857 107.204 45.5825C106.182 45.3793 105.243 44.8776 104.506 44.1409C103.77 43.4043 103.268 42.4658 103.065 41.444C102.862 40.4222 102.966 39.3631 103.365 38.4007C103.763 37.4381 104.439 36.6155 105.305 36.0367C106.171 35.4578 107.189 35.1489 108.231 35.1489C109.628 35.1489 110.968 35.704 111.956 36.6917C112.944 37.6795 113.498 39.0193 113.498 40.4163Z" fill="#FF3951"/>
<g filter="url(#filter24_d)">
<path d="M128.838 40.4163C128.838 41.4582 128.529 42.4766 127.95 43.3427C127.371 44.2089 126.549 44.8841 125.586 45.2828C124.624 45.6815 123.565 45.7857 122.543 45.5825C121.521 45.3793 120.583 44.8776 119.846 44.1409C119.109 43.4043 118.608 42.4658 118.404 41.444C118.201 40.4222 118.305 39.3631 118.704 38.4007C119.103 37.4381 119.778 36.6155 120.644 36.0367C121.51 35.4578 122.529 35.1489 123.571 35.1489C124.968 35.1489 126.307 35.704 127.295 36.6917C128.283 37.6795 128.838 39.0193 128.838 40.4163Z" fill="#FFC226" fill-opacity="0.01"/>
</g>
<path d="M128.838 40.4163C128.838 41.4582 128.529 42.4766 127.95 43.3427C127.371 44.2089 126.549 44.8841 125.586 45.2828C124.624 45.6815 123.565 45.7857 122.543 45.5825C121.521 45.3793 120.583 44.8776 119.846 44.1409C119.109 43.4043 118.608 42.4658 118.404 41.444C118.201 40.4222 118.305 39.3631 118.704 38.4007C119.103 37.4381 119.778 36.6155 120.644 36.0367C121.51 35.4578 122.529 35.1489 123.571 35.1489C124.968 35.1489 126.307 35.704 127.295 36.6917C128.283 37.6795 128.838 39.0193 128.838 40.4163Z" fill="#FFC226"/>
<g filter="url(#filter25_d)">
<path d="M144.177 40.4163C144.177 41.4582 143.868 42.4766 143.29 43.3427C142.711 44.2089 141.888 44.8841 140.926 45.2828C139.963 45.6815 138.904 45.7857 137.882 45.5825C136.86 45.3793 135.922 44.8776 135.185 44.1409C134.449 43.4043 133.947 42.4658 133.744 41.444C133.54 40.4222 133.645 39.3631 134.043 38.4007C134.442 37.4381 135.117 36.6155 135.983 36.0367C136.85 35.4578 137.868 35.1489 138.91 35.1489C140.307 35.1489 141.647 35.704 142.634 36.6917C143.622 37.6795 144.177 39.0193 144.177 40.4163Z" fill="#9AE886" fill-opacity="0.01"/>
</g>
<path d="M144.177 40.4163C144.177 41.4582 143.868 42.4766 143.29 43.3427C142.711 44.2089 141.888 44.8841 140.926 45.2828C139.963 45.6815 138.904 45.7857 137.882 45.5825C136.86 45.3793 135.922 44.8776 135.185 44.1409C134.449 43.4043 133.947 42.4658 133.744 41.444C133.54 40.4222 133.645 39.3631 134.043 38.4007C134.442 37.4381 135.117 36.6155 135.983 36.0367C136.85 35.4578 137.868 35.1489 138.91 35.1489C140.307 35.1489 141.647 35.704 142.634 36.6917C143.622 37.6795 144.177 39.0193 144.177 40.4163Z" fill="#9AE886"/>
<g clip-path="url(#clip0)">
<path d="M213.309 295.143L230.083 283.499C230.083 283.499 231.693 275.285 233.765 273.356C236.612 271.308 248.245 266.175 252.245 267.594C255.384 268.935 255.371 285.604 252.245 286.448C249.118 287.293 236.612 291.171 236.612 291.171L218.713 305.661L213.309 295.143Z" fill="#FFD5BD"/>
<path d="M109.185 298.842C109.185 298.842 109.935 299.541 111.179 300.785C114.112 303.649 120.692 309.428 127.511 315.616C141.148 326.799 157.974 339.295 168.424 338.34C187.176 336.635 228.089 303.41 228.089 303.41L220.383 289.261C220.383 289.261 190.585 309.07 172.685 313.23C154.786 317.389 125.806 263.895 111.895 260.162L109.185 298.842Z" fill="#624DE3"/>
<path d="M218.235 288.248C217.722 288.485 217.508 289.099 217.761 289.604L225.902 305.828C226.247 306.513 227.203 306.572 227.628 305.934L229.76 302.735C229.96 302.436 229.983 302.052 229.821 301.731L222.558 287.312C222.315 286.83 221.734 286.628 221.245 286.855L218.235 288.248Z" fill="#14142A"/>
<path opacity="0.2" d="M111.128 300.785C114.061 303.649 120.112 309.428 127.408 315.616C124.101 300.512 113.583 288.051 113.583 288.051L111.128 300.785Z" fill="#14142B"/>
<path d="M109.645 687.568L123.471 689.017L126.062 659.201L112.237 657.735L109.645 687.568Z" fill="#FFD5BD"/>
<path d="M40.6384 686.562H54.0375L55.1455 655.519H41.7294L40.6384 686.562Z" fill="#FFD5BD"/>
<path d="M55.9126 685.01H39.6326C39.0871 685.01 38.6097 685.385 38.4904 685.931L35.8481 697.864C35.6436 698.955 36.3595 700.012 37.4506 700.217C37.5699 700.234 37.6892 700.251 37.8085 700.251C43.0761 700.165 46.9117 699.841 53.526 699.841C57.6003 699.841 69.8912 700.268 75.5168 700.268C81.1423 700.268 81.8754 694.71 79.574 694.199C69.2434 691.949 61.47 688.829 58.1628 685.863C57.5491 685.3 56.7479 684.993 55.9126 685.01Z" fill="#171347"/>
<path d="M60.3276 687.363C61.2311 687.431 62.1517 687.193 62.9018 686.681C63.3961 686.255 63.6518 685.624 63.5666 684.976C63.5836 684.601 63.362 684.243 63.0211 684.09C61.538 683.323 57.208 685.982 56.7307 686.289C56.6114 686.34 56.5432 686.477 56.5773 686.596C56.5943 686.732 56.6966 686.835 56.8159 686.869C57.9581 687.158 59.1343 687.329 60.3276 687.363ZM62.3222 684.584C62.4585 684.567 62.612 684.601 62.7313 684.67C62.8165 684.67 62.9188 684.789 62.9358 685.045C62.987 685.471 62.8336 685.897 62.5097 686.187C61.0095 686.869 59.3048 686.954 57.7365 686.425C59.1344 685.522 60.6856 684.891 62.3222 684.584Z" fill="#FF3951"/>
<path d="M56.9011 686.885H57.0546C58.4354 686.135 61.1118 683.186 60.839 681.771C60.7368 681.277 60.3106 680.936 59.8162 680.936C59.3218 680.868 58.8445 681.021 58.4695 681.345C56.9182 682.606 56.5943 686.459 56.5773 686.647C56.5773 686.766 56.6284 686.868 56.7307 686.936C56.7989 686.936 56.85 686.919 56.9011 686.885ZM59.5946 681.447H59.748C60.1571 681.447 60.1912 681.686 60.2082 681.771C60.3787 682.641 58.674 684.874 57.2932 685.914C57.3784 684.379 57.941 682.93 58.8786 681.72C59.0661 681.55 59.3218 681.447 59.5946 681.447Z" fill="#FF3951"/>
<path d="M124.937 684.584H108.657C108.111 684.584 107.634 684.959 107.514 685.504L104.872 697.437C104.667 698.528 105.383 699.585 106.474 699.79C106.594 699.807 106.713 699.824 106.832 699.824C112.1 699.739 115.936 699.415 122.55 699.415C126.624 699.415 138.915 699.841 144.541 699.841C150.166 699.841 150.899 694.284 148.598 693.772C138.267 691.522 130.494 688.402 127.187 685.436C126.573 684.874 125.772 684.567 124.937 684.584Z" fill="#171347"/>
<path d="M129.369 686.937C130.272 687.005 131.193 686.767 131.943 686.255C132.437 685.829 132.693 685.198 132.608 684.55C132.625 684.175 132.403 683.817 132.062 683.664C130.579 682.897 126.249 685.556 125.772 685.863C125.653 685.914 125.584 686.051 125.619 686.17C125.636 686.306 125.738 686.409 125.857 686.443C126.999 686.732 128.176 686.903 129.369 686.937ZM131.363 684.107C131.5 684.09 131.653 684.124 131.773 684.192C131.858 684.192 131.96 684.312 131.977 684.567C132.028 684.994 131.875 685.42 131.551 685.71C130.051 686.392 128.346 686.477 126.778 685.948C128.176 685.045 129.727 684.414 131.363 684.107Z" fill="#FF3951"/>
<path d="M125.942 686.459H126.096C127.477 685.709 130.153 682.76 129.88 681.345C129.778 680.851 129.352 680.51 128.857 680.51C128.363 680.442 127.886 680.595 127.511 680.919C125.959 682.18 125.636 686.033 125.619 686.221C125.619 686.34 125.67 686.442 125.772 686.51C125.84 686.51 125.891 686.493 125.942 686.459ZM128.636 681.021H128.789C129.198 681.021 129.232 681.26 129.25 681.345C129.42 682.215 127.715 684.448 126.334 685.488C126.42 683.953 126.982 682.504 127.92 681.294C128.107 681.124 128.363 681.021 128.636 681.021Z" fill="#FF3951"/>
<path opacity="0.2" d="M112.237 657.735L126.062 659.201L124.715 674.578L110.89 673.129L112.237 657.735Z" fill="#14142B"/>
<path opacity="0.2" d="M41.7294 655.536H55.1455L54.5659 671.543H41.1498L41.7294 655.536Z" fill="#14142B"/>
<path d="M47.27 383.225H118.391C125.209 420.149 146.314 550.832 131.125 667.281L107.054 664.298C107.054 664.298 109.287 509.715 88.0297 452.573C85.5749 483.155 82.6769 515.647 80.1539 533.001C73.9658 575.619 60.7202 668.764 60.7202 668.764H36.2064C36.2064 668.764 41.2182 579.608 43.5366 537.723C46.0767 492.258 47.1677 392.601 47.27 383.225Z" fill="#171347"/>
<path opacity="0.2" d="M88.0295 452.573C91.5242 462.596 94.1835 472.876 95.9735 483.343C97.968 456.067 90.007 427.258 90.007 427.258L88.0295 452.573Z" fill="#14142B"/>
<path d="M134.32 671.119C134.074 672.123 133.105 672.774 132.083 672.622L105.991 668.741C104.928 668.583 104.18 667.613 104.297 666.545L104.769 662.237C104.891 661.123 105.905 660.326 107.017 660.472L133.785 663.974C134.967 664.129 135.752 665.276 135.468 666.433L134.32 671.119Z" fill="#D9DBE9"/>
<path d="M63.8784 667.205C63.7591 668.211 62.9058 668.969 61.8923 668.969H36.7573C35.6527 668.969 34.7573 668.074 34.7573 666.969V662.289C34.7573 661.199 35.63 660.31 36.7198 660.289L62.4667 659.807C63.6794 659.784 64.633 660.837 64.4903 662.042L63.8784 667.205Z" fill="#D9DBE9"/>
<path d="M118.987 384.077H47.3892V392.601L119.908 391.715L118.987 384.077Z" fill="#14142B"/>
<path d="M71.4026 380.242H71.9597C72.512 380.242 72.9597 380.689 72.9597 381.242V394.38C72.9597 394.932 72.512 395.38 71.9597 395.38H71.4026C70.8504 395.38 70.4026 394.932 70.4026 394.38V381.242C70.4026 380.689 70.8504 380.242 71.4026 380.242Z" fill="#6E7191"/>
<path d="M107.628 380.242H108.185C108.737 380.242 109.185 380.689 109.185 381.242V394.38C109.185 394.932 108.737 395.38 108.185 395.38H107.628C107.076 395.38 106.628 394.932 106.628 394.38V381.242C106.628 380.689 107.076 380.242 107.628 380.242Z" fill="#6E7191"/>
<path d="M88.342 382.594H97.5876C98.6922 382.594 99.5876 383.49 99.5876 384.594V390.141C99.5876 391.245 98.6922 392.141 97.5876 392.141H88.342C87.2375 392.141 86.342 391.245 86.342 390.141V384.594C86.342 383.49 87.2375 382.594 88.342 382.594Z" fill="white"/>
<path d="M111.895 260.162C111.895 260.162 66.6524 258.031 32.9502 266.538C32.9502 266.538 47.8324 341.46 47.2698 384.078H118.987C118.987 384.078 123.641 304.144 111.895 260.162Z" fill="#624DE3"/>
<path d="M87.1511 265.841C87.7587 265.875 88.1944 266.441 88.0738 267.037L86.4539 275.049C86.4251 275.192 86.4226 275.318 86.4564 275.459C87.2214 278.67 97.2551 321.033 99.592 343.844C99.6227 344.143 99.5145 344.43 99.3007 344.642L96.1991 347.717C95.8677 348.046 95.3531 348.101 94.9591 347.851L89.8339 344.597C89.5485 344.416 89.3739 344.103 89.3687 343.765C89.2874 338.457 88.4791 295.481 83.3883 276.417C83.3347 276.216 83.2212 276.047 83.0605 275.916L74.8363 269.18C74.2244 268.679 74.4089 267.7 75.1612 267.456L81.015 265.556C81.1331 265.517 81.2573 265.501 81.3812 265.508L87.1511 265.841Z" fill="#14142B"/>
<path d="M98.0022 199.116C98.0022 199.116 100.798 217.578 90.9958 224.687C81.1937 231.795 81.1937 197.411 81.1937 197.411L98.0022 199.116Z" fill="#14142B"/>
<path d="M58.6746 261.764C65.2037 267.696 81.1939 265.497 81.1939 265.497C81.1939 265.497 91.1835 262.77 89.0867 259.65C83.2054 258.679 80.3586 255.934 79.1823 252.422C78.5345 250.24 78.33 247.956 78.5857 245.706C78.6879 244.444 78.8414 243.2 79.08 241.955L59.3224 227.244C61.8965 236.978 65.0673 254.758 58.6746 261.764Z" fill="#FFD5BD"/>
<path opacity="0.2" d="M63.8739 236.62C64.6581 248.553 74.409 251.758 79.2163 252.423C78.5685 250.241 78.3639 247.956 78.6196 245.706L63.8739 236.62Z" fill="#14142B"/>
<path d="M62.5444 239.364C66.7721 245.62 74.6477 248.28 81.7905 245.859C86.308 244.427 90.1266 241.324 92.445 237.182C92.7689 236.637 93.0587 236.057 93.3314 235.477C98.1558 224.192 99.6901 204.452 87.7571 197.053C79.2506 191.717 68.0336 194.274 62.6978 202.781C61.1977 205.168 60.2771 207.878 60.0043 210.691C58.5383 223.834 57.0552 231.556 62.5444 239.364Z" fill="#FFD5BD"/>
<path d="M79.2332 217.731C78.9774 218.771 79.4718 219.743 80.1708 219.862C80.8697 219.981 81.5857 219.214 81.7732 218.157C81.9607 217.1 81.5175 216.146 80.8356 216.026C80.1537 215.907 79.4377 216.64 79.2332 217.731Z" fill="#14142B"/>
<path d="M91.2855 219.777C91.0298 220.817 91.5242 221.806 92.2231 221.925C92.922 222.044 93.621 221.26 93.8085 220.22C93.996 219.18 93.5698 218.192 92.8709 218.072C92.172 217.953 91.456 218.72 91.2855 219.777Z" fill="#14142B"/>
<path d="M87.3645 219.658C88.0805 223.118 89.2737 226.477 90.8932 229.63C89.2226 230.415 87.2793 230.415 85.6086 229.63L87.3645 219.658Z" fill="#FF97B8"/>
<path d="M76.165 213.18C76.3866 213.248 76.6422 213.197 76.8127 213.044C77.9548 211.902 79.5743 211.39 81.1767 211.629C81.5177 211.714 81.8587 211.51 81.9439 211.169C82.0291 210.828 81.8245 210.487 81.4836 210.402C79.472 210.044 77.4093 210.674 75.9603 212.106C75.7216 212.345 75.7046 212.737 75.9432 212.976L75.9603 212.993C76.0114 213.061 76.0797 213.129 76.165 213.18Z" fill="#14142B"/>
<path d="M82.9496 234.932C79.7788 234.881 76.8297 233.279 75.0568 230.636C74.9545 230.483 75.0056 230.278 75.1591 230.193L75.1761 230.176C75.3295 230.091 75.517 230.125 75.6193 230.278C77.307 232.682 80.0345 234.148 82.9666 234.233C83.1371 234.25 83.2735 234.387 83.2905 234.557C83.2905 234.728 83.1371 234.881 82.9666 234.881L82.9496 234.932Z" fill="#14142B"/>
<path d="M97.1669 216.504C97.2691 216.572 97.4055 216.606 97.5248 216.606C97.8658 216.521 98.0533 216.163 97.9681 215.839C97.9681 215.839 97.9681 215.839 97.9681 215.822C97.4396 213.845 95.9906 212.242 94.0643 211.543C93.7404 211.441 93.3994 211.611 93.2971 211.935C93.2971 211.952 93.2972 211.952 93.2801 211.969C93.1778 212.31 93.3653 212.651 93.7063 212.754C95.1894 213.35 96.3145 214.612 96.7407 216.163C96.8259 216.333 96.9793 216.47 97.1669 216.504Z" fill="#14142B"/>
<path d="M72.3975 195.997V201.878C70.2836 202.611 69.0562 204.81 69.5506 206.992C70.8291 212.106 67.1299 219.334 63.0215 221.909C63.0215 221.909 63.1579 219.778 61.3168 220.05C59.4757 220.323 58.6063 231.421 61.4532 237.097C61.4532 237.097 56.7652 231.711 55.1969 219.778C53.7649 208.731 54.498 199.781 57.2085 195.912L72.3975 195.997Z" fill="#14142B"/>
<path d="M57.2086 197.701C57.2086 197.701 52.7934 187.746 69.2609 185.478C85.7284 183.211 103.082 189.74 103.082 189.74C103.082 189.74 103.935 205.526 89.9732 205.372C76.3696 205.219 57.2086 197.701 57.2086 197.701Z" fill="#14142B"/>
<path d="M52.5032 220.425C53.4578 223.63 55.6399 226.34 58.572 227.943C62.4758 230.04 65.3908 226.766 65.1181 222.59C64.8453 218.857 62.544 213.163 58.214 212.839C53.884 212.515 51.344 216.47 52.5032 220.425Z" fill="#FFD5BD"/>
<path d="M61.5893 254.229L80.4946 262.753L81.6027 255.934L88.5409 258.372C91.0468 259.241 92.6151 261.73 92.3253 264.355L91.5582 271.856L81.9606 266.606L77.1875 273.425L54.4807 262.497L61.5893 254.229Z" fill="#CAB7FF"/>
<path opacity="0.2" d="M39.1554 301.791C40.3487 309.343 41.5931 317.645 42.7353 326.202C47.338 317.065 47.8324 306.428 44.1332 296.898L39.1554 301.791Z" fill="#14142B"/>
<path d="M32.9501 266.538C24.8016 270.288 -1.67261 323.39 0.0832427 353.375C1.78795 382.594 47.389 419.024 47.389 419.024C47.389 419.024 57.2593 411.012 58.6401 404.125C58.6401 404.125 26.5063 370.832 25.6539 353.375C24.8186 336.226 43.5534 305.643 43.5534 305.643C43.5534 305.643 45.6843 292.858 41.8487 281.778C38.0131 270.697 32.9501 266.538 32.9501 266.538Z" fill="#624DE3"/>
<path d="M58.6405 397.033C58.6405 397.033 51.208 413.706 45.0028 417.081C45.0028 417.081 43.6561 422.723 49.06 430.395C54.464 438.066 75.2956 411.694 58.6405 397.033Z" fill="#CAB7FF"/>
</g>
<defs>
<filter id="filter0_dd" x="205.109" y="288.281" width="336.555" height="303.493" filterUnits="userSpaceOnUse" color-interpolation-filters="sRGB">
<feFlood flood-opacity="0" result="BackgroundImageFix"/>
<feColorMatrix in="SourceAlpha" type="matrix" values="0 0 0 0 0 0 0 0 0 0 0 0 0 0 0 0 0 0 127 0" result="hardAlpha"/>
<feOffset dy="8.40768"/>
<feGaussianBlur stdDeviation="8.40768"/>
<feColorMatrix type="matrix" values="0 0 0 0 0.078875 0 0 0 0 0.0770833 0 0 0 0 0.166667 0 0 0 0.03 0"/>
<feBlend mode="normal" in2="BackgroundImageFix" result="effect1_dropShadow"/>
<feColorMatrix in="SourceAlpha" type="matrix" values="0 0 0 0 0 0 0 0 0 0 0 0 0 0 0 0 0 0 127 0" result="hardAlpha"/>
<feOffset dy="-1.2011"/>
<feGaussianBlur stdDeviation="9.00823"/>
<feColorMatrix type="matrix" values="0 0 0 0 0.078875 0 0 0 0 0.0770833 0 0 0 0 0.166667 0 0 0 0.02 0"/>
<feBlend mode="normal" in2="effect1_dropShadow" result="effect2_dropShadow"/>
<feBlend mode="normal" in="SourceGraphic" in2="effect2_dropShadow" result="shape"/>
</filter>
<filter id="filter1_d" x="225.07" y="313.989" width="29.7516" height="29.7524" filterUnits="userSpaceOnUse" color-interpolation-filters="sRGB">
<feFlood flood-opacity="0" result="BackgroundImageFix"/>
<feColorMatrix in="SourceAlpha" type="matrix" values="0 0 0 0 0 0 0 0 0 0 0 0 0 0 0 0 0 0 127 0" result="hardAlpha"/>
<feOffset dy="2.40219"/>
<feGaussianBlur stdDeviation="4.80439"/>
<feColorMatrix type="matrix" values="0 0 0 0 1 0 0 0 0 0.223529 0 0 0 0 0.317647 0 0 0 0.14 0"/>
<feBlend mode="normal" in2="BackgroundImageFix" result="effect1_dropShadow"/>
<feBlend mode="normal" in="SourceGraphic" in2="effect1_dropShadow" result="shape"/>
</filter>
<filter id="filter2_d" x="241.61" y="315.19" width="27.3494" height="27.3502" filterUnits="userSpaceOnUse" color-interpolation-filters="sRGB">
<feFlood flood-opacity="0" result="BackgroundImageFix"/>
<feColorMatrix in="SourceAlpha" type="matrix" values="0 0 0 0 0 0 0 0 0 0 0 0 0 0 0 0 0 0 127 0" result="hardAlpha"/>
<feOffset dy="2.40219"/>
<feGaussianBlur stdDeviation="4.20384"/>
<feColorMatrix type="matrix" values="0 0 0 0 1 0 0 0 0 0.760784 0 0 0 0 0.14902 0 0 0 0.14 0"/>
<feBlend mode="normal" in2="BackgroundImageFix" result="effect1_dropShadow"/>
<feBlend mode="normal" in="SourceGraphic" in2="effect1_dropShadow" result="shape"/>
</filter>
<filter id="filter3_d" x="258.15" y="316.391" width="24.9481" height="24.9481" filterUnits="userSpaceOnUse" color-interpolation-filters="sRGB">
<feFlood flood-opacity="0" result="BackgroundImageFix"/>
<feColorMatrix in="SourceAlpha" type="matrix" values="0 0 0 0 0 0 0 0 0 0 0 0 0 0 0 0 0 0 127 0" result="hardAlpha"/>
<feOffset dy="2.40219"/>
<feGaussianBlur stdDeviation="3.60329"/>
<feColorMatrix type="matrix" values="0 0 0 0 0.603922 0 0 0 0 0.909804 0 0 0 0 0.52549 0 0 0 0.29 0"/>
<feBlend mode="normal" in2="BackgroundImageFix" result="effect1_dropShadow"/>
<feBlend mode="normal" in="SourceGraphic" in2="effect1_dropShadow" result="shape"/>
</filter>
<filter id="filter4_dd" x="398.506" y="2.22386" width="326.203" height="309.331" filterUnits="userSpaceOnUse" color-interpolation-filters="sRGB">
<feFlood flood-opacity="0" result="BackgroundImageFix"/>
<feColorMatrix in="SourceAlpha" type="matrix" values="0 0 0 0 0 0 0 0 0 0 0 0 0 0 0 0 0 0 127 0" result="hardAlpha"/>
<feOffset dy="7.20658"/>
<feGaussianBlur stdDeviation="10.8099"/>
<feColorMatrix type="matrix" values="0 0 0 0 0.0987208 0 0 0 0 0.0910417 0 0 0 0 0.475 0 0 0 0.02 0"/>
<feBlend mode="normal" in2="BackgroundImageFix" result="effect1_dropShadow"/>
<feColorMatrix in="SourceAlpha" type="matrix" values="0 0 0 0 0 0 0 0 0 0 0 0 0 0 0 0 0 0 127 0" result="hardAlpha"/>
<feOffset dy="-1.2011"/>
<feGaussianBlur stdDeviation="9.00823"/>
<feColorMatrix type="matrix" values="0 0 0 0 0.078875 0 0 0 0 0.0770833 0 0 0 0 0.166667 0 0 0 0.04 0"/>
<feBlend mode="normal" in2="effect1_dropShadow" result="effect2_dropShadow"/>
<feBlend mode="normal" in="SourceGraphic" in2="effect2_dropShadow" result="shape"/>
</filter>
<filter id="filter5_d" x="421.718" y="29.1474" width="29.7525" height="29.7523" filterUnits="userSpaceOnUse" color-interpolation-filters="sRGB">
<feFlood flood-opacity="0" result="BackgroundImageFix"/>
<feColorMatrix in="SourceAlpha" type="matrix" values="0 0 0 0 0 0 0 0 0 0 0 0 0 0 0 0 0 0 127 0" result="hardAlpha"/>
<feOffset dy="2.40219"/>
<feGaussianBlur stdDeviation="4.80439"/>
<feColorMatrix type="matrix" values="0 0 0 0 1 0 0 0 0 0.223529 0 0 0 0 0.317647 0 0 0 0.14 0"/>
<feBlend mode="normal" in2="BackgroundImageFix" result="effect1_dropShadow"/>
<feBlend mode="normal" in="SourceGraphic" in2="effect1_dropShadow" result="shape"/>
</filter>
<filter id="filter6_d" x="439.46" y="30.349" width="27.3502" height="27.3501" filterUnits="userSpaceOnUse" color-interpolation-filters="sRGB">
<feFlood flood-opacity="0" result="BackgroundImageFix"/>
<feColorMatrix in="SourceAlpha" type="matrix" values="0 0 0 0 0 0 0 0 0 0 0 0 0 0 0 0 0 0 127 0" result="hardAlpha"/>
<feOffset dy="2.40219"/>
<feGaussianBlur stdDeviation="4.20384"/>
<feColorMatrix type="matrix" values="0 0 0 0 1 0 0 0 0 0.760784 0 0 0 0 0.14902 0 0 0 0.14 0"/>
<feBlend mode="normal" in2="BackgroundImageFix" result="effect1_dropShadow"/>
<feBlend mode="normal" in="SourceGraphic" in2="effect1_dropShadow" result="shape"/>
</filter>
<filter id="filter7_d" x="457.201" y="31.5501" width="24.9481" height="24.9479" filterUnits="userSpaceOnUse" color-interpolation-filters="sRGB">
<feFlood flood-opacity="0" result="BackgroundImageFix"/>
<feColorMatrix in="SourceAlpha" type="matrix" values="0 0 0 0 0 0 0 0 0 0 0 0 0 0 0 0 0 0 127 0" result="hardAlpha"/>
<feOffset dy="2.40219"/>
<feGaussianBlur stdDeviation="3.60329"/>
<feColorMatrix type="matrix" values="0 0 0 0 0.603922 0 0 0 0 0.909804 0 0 0 0 0.52549 0 0 0 0.29 0"/>
<feBlend mode="normal" in2="BackgroundImageFix" result="effect1_dropShadow"/>
<feBlend mode="normal" in="SourceGraphic" in2="effect1_dropShadow" result="shape"/>
</filter>
<filter id="filter8_d" x="444.232" y="112.634" width="133.86" height="27.6804" filterUnits="userSpaceOnUse" color-interpolation-filters="sRGB">
<feFlood flood-opacity="0" result="BackgroundImageFix"/>
<feColorMatrix in="SourceAlpha" type="matrix" values="0 0 0 0 0 0 0 0 0 0 0 0 0 0 0 0 0 0 127 0" result="hardAlpha"/>
<feOffset dy="3.60329"/>
<feGaussianBlur stdDeviation="4.80439"/>
<feColorMatrix type="matrix" values="0 0 0 0 1 0 0 0 0 0.223529 0 0 0 0 0.317647 0 0 0 0.15 0"/>
<feBlend mode="normal" in2="BackgroundImageFix" result="effect1_dropShadow"/>
<feBlend mode="normal" in="SourceGraphic" in2="effect1_dropShadow" result="shape"/>
</filter>
<filter id="filter9_d" x="444.232" y="140.158" width="198.117" height="27.6805" filterUnits="userSpaceOnUse" color-interpolation-filters="sRGB">
<feFlood flood-opacity="0" result="BackgroundImageFix"/>
<feColorMatrix in="SourceAlpha" type="matrix" values="0 0 0 0 0 0 0 0 0 0 0 0 0 0 0 0 0 0 127 0" result="hardAlpha"/>
<feOffset dy="2.40219"/>
<feGaussianBlur stdDeviation="4.80439"/>
<feColorMatrix type="matrix" values="0 0 0 0 0.890196 0 0 0 0 0.795294 0 0 0 0 0.458824 0 0 0 0.31 0"/>
<feBlend mode="normal" in2="BackgroundImageFix" result="effect1_dropShadow"/>
<feBlend mode="normal" in="SourceGraphic" in2="effect1_dropShadow" result="shape"/>
</filter>
<filter id="filter10_d" x="444.232" y="170.083" width="64.0581" height="27.6805" filterUnits="userSpaceOnUse" color-interpolation-filters="sRGB">
<feFlood flood-opacity="0" result="BackgroundImageFix"/>
<feColorMatrix in="SourceAlpha" type="matrix" values="0 0 0 0 0 0 0 0 0 0 0 0 0 0 0 0 0 0 127 0" result="hardAlpha"/>
<feOffset dy="3.60329"/>
<feGaussianBlur stdDeviation="4.80439"/>
<feColorMatrix type="matrix" values="0 0 0 0 1 0 0 0 0 0.223529 0 0 0 0 0.317647 0 0 0 0.15 0"/>
<feBlend mode="normal" in2="BackgroundImageFix" result="effect1_dropShadow"/>
<feBlend mode="normal" in="SourceGraphic" in2="effect1_dropShadow" result="shape"/>
</filter>
<filter id="filter11_d" x="444.232" y="197.608" width="161.321" height="27.6805" filterUnits="userSpaceOnUse" color-interpolation-filters="sRGB">
<feFlood flood-opacity="0" result="BackgroundImageFix"/>
<feColorMatrix in="SourceAlpha" type="matrix" values="0 0 0 0 0 0 0 0 0 0 0 0 0 0 0 0 0 0 127 0" result="hardAlpha"/>
<feOffset dy="2.40219"/>
<feGaussianBlur stdDeviation="4.80439"/>
<feColorMatrix type="matrix" values="0 0 0 0 0.890196 0 0 0 0 0.795294 0 0 0 0 0.458824 0 0 0 0.31 0"/>
<feBlend mode="normal" in2="BackgroundImageFix" result="effect1_dropShadow"/>
<feBlend mode="normal" in="SourceGraphic" in2="effect1_dropShadow" result="shape"/>
</filter>
<filter id="filter12_d" x="444.232" y="227.533" width="182.411" height="27.6817" filterUnits="userSpaceOnUse" color-interpolation-filters="sRGB">
<feFlood flood-opacity="0" result="BackgroundImageFix"/>
<feColorMatrix in="SourceAlpha" type="matrix" values="0 0 0 0 0 0 0 0 0 0 0 0 0 0 0 0 0 0 127 0" result="hardAlpha"/>
<feOffset dy="3.60329"/>
<feGaussianBlur stdDeviation="4.80439"/>
<feColorMatrix type="matrix" values="0 0 0 0 1 0 0 0 0 0.223529 0 0 0 0 0.317647 0 0 0 0.15 0"/>
<feBlend mode="normal" in2="BackgroundImageFix" result="effect1_dropShadow"/>
<feBlend mode="normal" in="SourceGraphic" in2="effect1_dropShadow" result="shape"/>
</filter>
<filter id="filter13_d" x="292.317" y="381.773" width="97.6175" height="117.845" filterUnits="userSpaceOnUse" color-interpolation-filters="sRGB">
<feFlood flood-opacity="0" result="BackgroundImageFix"/>
<feColorMatrix in="SourceAlpha" type="matrix" values="0 0 0 0 0 0 0 0 0 0 0 0 0 0 0 0 0 0 127 0" result="hardAlpha"/>
<feOffset dy="4.80439"/>
<feGaussianBlur stdDeviation="4.80439"/>
<feColorMatrix type="matrix" values="0 0 0 0 1 0 0 0 0 0.760784 0 0 0 0 0.14902 0 0 0 0.21 0"/>
<feBlend mode="normal" in2="BackgroundImageFix" result="effect1_dropShadow"/>
<feBlend mode="normal" in="SourceGraphic" in2="effect1_dropShadow" result="shape"/>
</filter>
<filter id="filter14_d" x="240.707" y="381.269" width="124.483" height="73.0144" filterUnits="userSpaceOnUse" color-interpolation-filters="sRGB">
<feFlood flood-opacity="0" result="BackgroundImageFix"/>
<feColorMatrix in="SourceAlpha" type="matrix" values="0 0 0 0 0 0 0 0 0 0 0 0 0 0 0 0 0 0 127 0" result="hardAlpha"/>
<feOffset dy="4.80439"/>
<feGaussianBlur stdDeviation="4.80439"/>
<feColorMatrix type="matrix" values="0 0 0 0 1 0 0 0 0 0.505882 0 0 0 0 0.223529 0 0 0 0.16 0"/>
<feBlend mode="normal" in2="BackgroundImageFix" result="effect1_dropShadow"/>
<feBlend mode="normal" in="SourceGraphic" in2="effect1_dropShadow" result="shape"/>
</filter>
<filter id="filter15_d" x="220.727" y="400.645" width="134.98" height="152.234" filterUnits="userSpaceOnUse" color-interpolation-filters="sRGB">
<feFlood flood-opacity="0" result="BackgroundImageFix"/>
<feColorMatrix in="SourceAlpha" type="matrix" values="0 0 0 0 0 0 0 0 0 0 0 0 0 0 0 0 0 0 127 0" result="hardAlpha"/>
<feOffset dy="7.20658"/>
<feGaussianBlur stdDeviation="9.60878"/>
<feColorMatrix type="matrix" values="0 0 0 0 1 0 0 0 0 0.223529 0 0 0 0 0.317647 0 0 0 0.34 0"/>
<feBlend mode="normal" in2="BackgroundImageFix" result="effect1_dropShadow"/>
<feBlend mode="normal" in="SourceGraphic" in2="effect1_dropShadow" result="shape"/>
</filter>
<filter id="filter16_d" x="400.744" y="419.03" width="33.6307" height="33.6307" filterUnits="userSpaceOnUse" color-interpolation-filters="sRGB">
<feFlood flood-opacity="0" result="BackgroundImageFix"/>
<feColorMatrix in="SourceAlpha" type="matrix" values="0 0 0 0 0 0 0 0 0 0 0 0 0 0 0 0 0 0 127 0" result="hardAlpha"/>
<feOffset dy="4.80439"/>
<feGaussianBlur stdDeviation="4.80439"/>
<feColorMatrix type="matrix" values="0 0 0 0 1 0 0 0 0 0.223529 0 0 0 0 0.317647 0 0 0 0.19 0"/>
<feBlend mode="normal" in2="BackgroundImageFix" result="effect1_dropShadow"/>
<feBlend mode="normal" in="SourceGraphic" in2="effect1_dropShadow" result="shape"/>
</filter>
<filter id="filter17_d" x="405.549" y="449.058" width="24.0219" height="24.0219" filterUnits="userSpaceOnUse" color-interpolation-filters="sRGB">
<feFlood flood-opacity="0" result="BackgroundImageFix"/>
<feColorMatrix in="SourceAlpha" type="matrix" values="0 0 0 0 0 0 0 0 0 0 0 0 0 0 0 0 0 0 127 0" result="hardAlpha"/>
<feOffset dy="4.80439"/>
<feGaussianBlur stdDeviation="2.40219"/>
<feColorMatrix type="matrix" values="0 0 0 0 1 0 0 0 0 0.505882 0 0 0 0 0.223529 0 0 0 0.13 0"/>
<feBlend mode="normal" in2="BackgroundImageFix" result="effect1_dropShadow"/>
<feBlend mode="normal" in="SourceGraphic" in2="effect1_dropShadow" result="shape"/>
</filter>
<filter id="filter18_d" x="401.946" y="473.08" width="31.2285" height="31.2285" filterUnits="userSpaceOnUse" color-interpolation-filters="sRGB">
<feFlood flood-opacity="0" result="BackgroundImageFix"/>
<feColorMatrix in="SourceAlpha" type="matrix" values="0 0 0 0 0 0 0 0 0 0 0 0 0 0 0 0 0 0 127 0" result="hardAlpha"/>
<feOffset dy="7.20658"/>
<feGaussianBlur stdDeviation="4.20384"/>
<feColorMatrix type="matrix" values="0 0 0 0 1 0 0 0 0 0.760784 0 0 0 0 0.14902 0 0 0 0.44 0"/>
<feBlend mode="normal" in2="BackgroundImageFix" result="effect1_dropShadow"/>
<feBlend mode="normal" in="SourceGraphic" in2="effect1_dropShadow" result="shape"/>
</filter>
<filter id="filter19_dd" x="68.5903" y="-0.000264525" width="343.762" height="309.33" filterUnits="userSpaceOnUse" color-interpolation-filters="sRGB">
<feFlood flood-opacity="0" result="BackgroundImageFix"/>
<feColorMatrix in="SourceAlpha" type="matrix" values="0 0 0 0 0 0 0 0 0 0 0 0 0 0 0 0 0 0 127 0" result="hardAlpha"/>
<feOffset dy="7.20658"/>
<feGaussianBlur stdDeviation="10.8099"/>
<feColorMatrix type="matrix" values="0 0 0 0 0.0987208 0 0 0 0 0.0910417 0 0 0 0 0.475 0 0 0 0.02 0"/>
<feBlend mode="normal" in2="BackgroundImageFix" result="effect1_dropShadow"/>
<feColorMatrix in="SourceAlpha" type="matrix" values="0 0 0 0 0 0 0 0 0 0 0 0 0 0 0 0 0 0 127 0" result="hardAlpha"/>
<feOffset dy="-1.2011"/>
<feGaussianBlur stdDeviation="9.00823"/>
<feColorMatrix type="matrix" values="0 0 0 0 0.078875 0 0 0 0 0.0770833 0 0 0 0 0.166667 0 0 0 0.04 0"/>
<feBlend mode="normal" in2="effect1_dropShadow" result="effect2_dropShadow"/>
<feBlend mode="normal" in="SourceGraphic" in2="effect2_dropShadow" result="shape"/>
</filter>
<filter id="filter20_d" x="298.124" y="133.347" width="40.8373" height="139.445" filterUnits="userSpaceOnUse" color-interpolation-filters="sRGB">
<feFlood flood-opacity="0" result="BackgroundImageFix"/>
<feColorMatrix in="SourceAlpha" type="matrix" values="0 0 0 0 0 0 0 0 0 0 0 0 0 0 0 0 0 0 127 0" result="hardAlpha"/>
<feOffset dy="4.80439"/>
<feGaussianBlur stdDeviation="6.60603"/>
<feColorMatrix type="matrix" values="0 0 0 0 1 0 0 0 0 0.760784 0 0 0 0 0.14902 0 0 0 0.22 0"/>
<feBlend mode="normal" in2="BackgroundImageFix" result="effect1_dropShadow"/>
<feBlend mode="normal" in="SourceGraphic" in2="effect1_dropShadow" result="shape"/>
</filter>
<filter id="filter21_d" x="235.667" y="201.085" width="40.8373" height="71.6887" filterUnits="userSpaceOnUse" color-interpolation-filters="sRGB">
<feFlood flood-opacity="0" result="BackgroundImageFix"/>
<feColorMatrix in="SourceAlpha" type="matrix" values="0 0 0 0 0 0 0 0 0 0 0 0 0 0 0 0 0 0 127 0" result="hardAlpha"/>
<feOffset dy="4.80439"/>
<feGaussianBlur stdDeviation="6.60603"/>
<feColorMatrix type="matrix" values="0 0 0 0 1 0 0 0 0 0.760784 0 0 0 0 0.14902 0 0 0 0.22 0"/>
<feBlend mode="normal" in2="BackgroundImageFix" result="effect1_dropShadow"/>
<feBlend mode="normal" in="SourceGraphic" in2="effect1_dropShadow" result="shape"/>
</filter>
<filter id="filter22_d" x="173.21" y="112.33" width="40.8377" height="160.444" filterUnits="userSpaceOnUse" color-interpolation-filters="sRGB">
<feFlood flood-opacity="0" result="BackgroundImageFix"/>
<feColorMatrix in="SourceAlpha" type="matrix" values="0 0 0 0 0 0 0 0 0 0 0 0 0 0 0 0 0 0 127 0" result="hardAlpha"/>
<feOffset dy="4.80439"/>
<feGaussianBlur stdDeviation="6.60603"/>
<feColorMatrix type="matrix" values="0 0 0 0 1 0 0 0 0 0.760784 0 0 0 0 0.14902 0 0 0 0.22 0"/>
<feBlend mode="normal" in2="BackgroundImageFix" result="effect1_dropShadow"/>
<feBlend mode="normal" in="SourceGraphic" in2="effect1_dropShadow" result="shape"/>
</filter>
<filter id="filter23_d" x="93.355" y="27.9423" width="29.7523" height="29.7523" filterUnits="userSpaceOnUse" color-interpolation-filters="sRGB">
<feFlood flood-opacity="0" result="BackgroundImageFix"/>
<feColorMatrix in="SourceAlpha" type="matrix" values="0 0 0 0 0 0 0 0 0 0 0 0 0 0 0 0 0 0 127 0" result="hardAlpha"/>
<feOffset dy="2.40219"/>
<feGaussianBlur stdDeviation="4.80439"/>
<feColorMatrix type="matrix" values="0 0 0 0 1 0 0 0 0 0.223529 0 0 0 0 0.317647 0 0 0 0.14 0"/>
<feBlend mode="normal" in2="BackgroundImageFix" result="effect1_dropShadow"/>
<feBlend mode="normal" in="SourceGraphic" in2="effect1_dropShadow" result="shape"/>
</filter>
<filter id="filter24_d" x="109.896" y="29.1434" width="27.3501" height="27.3501" filterUnits="userSpaceOnUse" color-interpolation-filters="sRGB">
<feFlood flood-opacity="0" result="BackgroundImageFix"/>
<feColorMatrix in="SourceAlpha" type="matrix" values="0 0 0 0 0 0 0 0 0 0 0 0 0 0 0 0 0 0 127 0" result="hardAlpha"/>
<feOffset dy="2.40219"/>
<feGaussianBlur stdDeviation="4.20384"/>
<feColorMatrix type="matrix" values="0 0 0 0 1 0 0 0 0 0.760784 0 0 0 0 0.14902 0 0 0 0.14 0"/>
<feBlend mode="normal" in2="BackgroundImageFix" result="effect1_dropShadow"/>
<feBlend mode="normal" in="SourceGraphic" in2="effect1_dropShadow" result="shape"/>
</filter>
<filter id="filter25_d" x="126.436" y="30.3445" width="24.9479" height="24.9479" filterUnits="userSpaceOnUse" color-interpolation-filters="sRGB">
<feFlood flood-opacity="0" result="BackgroundImageFix"/>
<feColorMatrix in="SourceAlpha" type="matrix" values="0 0 0 0 0 0 0 0 0 0 0 0 0 0 0 0 0 0 127 0" result="hardAlpha"/>
<feOffset dy="2.40219"/>
<feGaussianBlur stdDeviation="3.60329"/>
<feColorMatrix type="matrix" values="0 0 0 0 0.603922 0 0 0 0 0.909804 0 0 0 0 0.52549 0 0 0 0.29 0"/>
<feBlend mode="normal" in2="BackgroundImageFix" result="effect1_dropShadow"/>
<feBlend mode="normal" in="SourceGraphic" in2="effect1_dropShadow" result="shape"/>
</filter>
<clipPath id="clip0">
<rect width="255" height="516" fill="white" transform="translate(0 185)"/>
</clipPath>
</defs>
</svg>
