<svg width="1508" height="655" viewBox="0 0 1508 655" fill="none" xmlns="http://www.w3.org/2000/svg">
<g clip-path="url(#clip0)">
<path d="M1281.79 504.83C1281.86 504.897 1281.89 504.979 1281.96 505.046C1282.05 505.154 1282.08 505.236 1282.11 505.319C1282.16 505.442 1282.16 505.539 1282.19 505.622C1282.18 505.719 1282.21 505.801 1282.21 505.899L1282.19 506.191C1282.18 506.289 1282.16 506.346 1282.11 506.459C1282.08 506.546 1282.04 506.627 1281.98 506.7L1281.79 506.915C1281.73 506.987 1281.67 507.058 1281.59 507.089C1281.49 507.176 1281.45 507.191 1281.34 507.237C1281.22 507.283 1281.12 507.273 1281.05 507.303C1280.95 507.292 1280.87 507.323 1280.78 507.313C1280.69 507.302 1280.59 507.292 1280.5 507.282C1280.39 507.23 1280.29 507.219 1280.24 507.194C1280.15 507.157 1280.07 507.109 1280 507.049L1279.79 506.848C1279.72 506.781 1279.64 506.714 1279.61 506.632C1279.52 506.524 1279.49 506.441 1279.46 506.36C1279.41 506.236 1279.42 506.138 1279.39 506.056C1279.35 505.974 1279.36 505.876 1279.41 505.764L1279.43 505.471C1279.43 505.374 1279.46 505.317 1279.5 505.204C1279.53 505.147 1279.57 505.035 1279.63 504.963L1279.82 504.748C1279.88 504.676 1279.94 504.604 1280.02 504.574C1280.16 504.471 1280.36 504.395 1280.53 504.374C1280.62 504.386 1280.7 504.355 1280.79 504.365C1280.89 504.376 1280.98 504.386 1281.08 504.396C1281.17 504.408 1281.23 504.433 1281.34 504.485C1281.39 504.51 1281.5 504.562 1281.57 504.629L1281.79 504.83ZM1287.21 518.775C1287.28 518.842 1287.32 518.924 1287.43 518.976C1287.51 519.084 1287.55 519.167 1287.58 519.249C1287.63 519.372 1287.62 519.47 1287.65 519.552C1287.64 519.649 1287.68 519.732 1287.67 519.829L1287.65 520.121C1287.64 520.219 1287.62 520.276 1287.57 520.389C1287.54 520.476 1287.5 520.557 1287.44 520.63L1287.26 520.845C1287.2 520.917 1287.13 520.988 1287.06 521.019C1286.96 521.106 1286.92 521.121 1286.8 521.167C1286.68 521.213 1286.59 521.203 1286.51 521.233C1286.42 521.222 1286.34 521.253 1286.24 521.243C1286.15 521.232 1286.05 521.222 1285.96 521.212C1285.87 521.2 1285.81 521.175 1285.7 521.124C1285.62 521.088 1285.54 521.039 1285.46 520.979L1285.25 520.778C1285.18 520.711 1285.11 520.644 1285.08 520.562C1284.99 520.454 1284.96 520.371 1284.92 520.29C1284.87 520.166 1284.88 520.068 1284.85 519.986C1284.86 519.889 1284.82 519.806 1284.83 519.709L1284.85 519.417C1284.86 519.319 1284.88 519.263 1284.93 519.15C1284.95 519.093 1285 518.981 1285.06 518.908L1285.24 518.693C1285.31 518.621 1285.37 518.55 1285.45 518.519C1285.59 518.417 1285.78 518.34 1285.95 518.32C1286.05 518.331 1286.13 518.301 1286.22 518.31L1286.5 518.342C1286.6 518.353 1286.65 518.379 1286.76 518.43C1286.82 518.456 1286.93 518.508 1287 518.575L1287.21 518.775L1287.21 518.775ZM1292.68 532.705C1292.75 532.772 1292.78 532.854 1292.89 532.906C1292.98 533.014 1293.01 533.097 1293.04 533.179C1293.09 533.302 1293.08 533.4 1293.12 533.482C1293.11 533.579 1293.14 533.662 1293.13 533.759L1293.11 534.052C1293.11 534.149 1293.08 534.206 1293.04 534.319C1293.01 534.406 1292.96 534.487 1292.91 534.56L1292.72 534.775C1292.66 534.847 1292.6 534.919 1292.52 534.949C1292.42 535.036 1292.38 535.052 1292.26 535.097C1292.15 535.143 1292.05 535.133 1291.97 535.164C1291.88 535.152 1291.8 535.183 1291.71 535.173C1291.61 535.162 1291.52 535.152 1291.42 535.142C1291.33 535.13 1291.27 535.105 1291.16 535.054C1291.08 535.017 1291 534.969 1290.93 534.909L1290.71 534.708C1290.64 534.641 1290.57 534.575 1290.54 534.492C1290.45 534.384 1290.42 534.302 1290.39 534.22C1290.34 534.096 1290.35 533.999 1290.31 533.916C1290.32 533.819 1290.29 533.737 1290.29 533.639L1290.31 533.347C1290.32 533.249 1290.34 533.193 1290.39 533.08C1290.41 533.023 1290.46 532.911 1290.52 532.838L1290.71 532.623C1290.77 532.551 1290.83 532.48 1290.91 532.449C1291.05 532.347 1291.24 532.27 1291.42 532.25C1291.51 532.261 1291.59 532.231 1291.68 532.24L1291.97 532.272C1292.06 532.283 1292.11 532.309 1292.23 532.36C1292.28 532.386 1292.39 532.438 1292.46 532.505L1292.68 532.705ZM1297.87 545.939C1297.94 546.006 1297.99 546.13 1298.08 546.14C1298.17 546.247 1298.2 546.33 1298.23 546.413C1298.28 546.536 1298.27 546.633 1298.31 546.716C1298.3 546.813 1298.33 546.895 1298.32 546.993L1298.3 547.285C1298.3 547.383 1298.27 547.44 1298.23 547.553C1298.21 547.61 1298.16 547.722 1298.1 547.793L1297.91 548.009C1297.85 548.081 1297.79 548.153 1297.71 548.183C1297.61 548.27 1297.57 548.285 1297.45 548.331C1297.34 548.377 1297.24 548.367 1297.16 548.398C1297.07 548.387 1296.99 548.417 1296.9 548.406L1296.61 548.375C1296.52 548.365 1296.47 548.339 1296.35 548.288C1296.27 548.252 1296.19 548.203 1296.12 548.143L1295.9 547.943C1295.83 547.875 1295.76 547.808 1295.73 547.726C1295.64 547.619 1295.61 547.536 1295.58 547.454C1295.53 547.33 1295.54 547.233 1295.5 547.151C1295.51 547.052 1295.48 546.97 1295.48 546.874L1295.51 546.58C1295.51 546.483 1295.54 546.426 1295.58 546.314C1295.6 546.257 1295.65 546.144 1295.71 546.073L1295.9 545.857C1295.96 545.786 1296.02 545.714 1296.1 545.684C1296.24 545.58 1296.43 545.504 1296.61 545.484C1296.7 545.495 1296.78 545.464 1296.87 545.474L1297.16 545.506C1297.25 545.517 1297.3 545.542 1297.42 545.594C1297.47 545.62 1297.58 545.671 1297.65 545.738C1297.72 545.805 1297.79 545.872 1297.87 545.939L1297.87 545.939ZM1401.86 458.972C1401.82 458.889 1401.75 458.823 1401.72 458.741C1401.63 458.633 1401.6 458.551 1401.57 458.468C1401.52 458.345 1401.53 458.247 1401.49 458.164C1401.46 458.082 1401.47 457.984 1401.48 457.887C1401.48 457.789 1401.49 457.691 1401.5 457.594C1401.51 457.496 1401.53 457.439 1401.58 457.326C1401.6 457.269 1401.65 457.156 1401.71 457.083L1401.9 456.867C1401.96 456.795 1402.03 456.722 1402.11 456.691C1402.25 456.588 1402.45 456.51 1402.62 456.489C1402.72 456.5 1402.79 456.469 1402.89 456.478L1403.18 456.508C1403.27 456.519 1403.33 456.545 1403.44 456.596C1403.5 456.621 1403.61 456.672 1403.68 456.739L1403.89 456.939C1403.97 457.006 1404.04 457.072 1404.07 457.155C1404.16 457.262 1404.19 457.345 1404.22 457.427C1404.27 457.551 1404.26 457.648 1404.3 457.731C1404.29 457.828 1404.32 457.911 1404.31 458.008L1404.29 458.302C1404.28 458.399 1404.26 458.457 1404.21 458.57C1404.19 458.626 1404.14 458.74 1404.08 458.812L1403.89 459.028C1403.83 459.101 1403.76 459.173 1403.68 459.204C1403.58 459.291 1403.5 459.322 1403.42 459.354C1403.3 459.4 1403.21 459.39 1403.13 459.421C1403.03 459.411 1402.96 459.442 1402.86 459.432L1402.57 459.402C1402.48 459.392 1402.42 459.367 1402.31 459.316C1402.26 459.289 1402.14 459.238 1402.07 459.171L1401.86 458.972ZM1409.32 470.884C1409.35 470.966 1409.42 471.032 1409.53 471.084C1409.62 471.192 1409.65 471.275 1409.69 471.357C1409.73 471.481 1409.73 471.578 1409.76 471.66C1409.75 471.758 1409.79 471.84 1409.78 471.937L1409.76 472.23C1409.75 472.328 1409.73 472.385 1409.68 472.497C1409.65 472.585 1409.61 472.666 1409.55 472.738L1409.37 472.953C1409.3 473.025 1409.24 473.097 1409.16 473.128C1409.06 473.215 1408.99 473.245 1408.91 473.276C1408.79 473.322 1408.7 473.311 1408.62 473.342C1408.52 473.331 1408.45 473.361 1408.35 473.352C1408.26 473.34 1408.16 473.331 1408.07 473.32C1407.97 473.309 1407.92 473.284 1407.81 473.232C1407.75 473.206 1407.64 473.154 1407.57 473.087L1407.36 472.887C1407.29 472.82 1407.22 472.753 1407.18 472.671C1407.1 472.563 1407.06 472.481 1407.03 472.399C1406.98 472.275 1406.99 472.177 1406.96 472.095C1406.93 472.013 1406.93 471.915 1406.94 471.818L1406.96 471.525C1406.97 471.428 1406.99 471.371 1407.03 471.259C1407.06 471.201 1407.1 471.089 1407.17 471.017L1407.35 470.802C1407.41 470.73 1407.48 470.658 1407.55 470.628C1407.69 470.525 1407.89 470.449 1408.06 470.429C1408.16 470.44 1408.23 470.409 1408.33 470.419C1408.42 470.43 1408.52 470.44 1408.61 470.45C1408.7 470.461 1408.76 470.487 1408.87 470.539C1408.92 470.565 1409.04 470.616 1409.11 470.683L1409.32 470.884ZM1414.78 484.814C1414.82 484.896 1414.89 484.963 1415 485.014C1415.08 485.122 1415.12 485.205 1415.15 485.288C1415.2 485.411 1415.19 485.508 1415.22 485.59C1415.22 485.688 1415.25 485.77 1415.24 485.868L1415.22 486.16C1415.21 486.258 1415.19 486.315 1415.15 486.428C1415.11 486.515 1415.07 486.596 1415.02 486.668L1414.83 486.884C1414.77 486.955 1414.71 487.027 1414.63 487.058C1414.53 487.145 1414.45 487.175 1414.37 487.206C1414.25 487.252 1414.16 487.241 1414.08 487.272C1413.99 487.261 1413.91 487.292 1413.81 487.282C1413.72 487.271 1413.63 487.261 1413.53 487.25C1413.44 487.239 1413.38 487.214 1413.27 487.163C1413.22 487.136 1413.11 487.084 1413.04 487.018L1412.82 486.817C1412.75 486.75 1412.68 486.683 1412.65 486.601C1412.56 486.493 1412.53 486.411 1412.5 486.329C1412.45 486.205 1412.45 486.107 1412.42 486.025C1412.39 485.943 1412.4 485.845 1412.4 485.748L1412.42 485.455C1412.43 485.358 1412.45 485.302 1412.5 485.189C1412.52 485.131 1412.57 485.02 1412.63 484.947L1412.81 484.732C1412.88 484.66 1412.94 484.588 1413.02 484.558C1413.16 484.455 1413.35 484.379 1413.52 484.359C1413.62 484.37 1413.7 484.339 1413.79 484.349C1413.88 484.36 1413.98 484.37 1414.07 484.38C1414.17 484.392 1414.22 484.417 1414.33 484.469C1414.39 484.495 1414.5 484.546 1414.57 484.613L1414.78 484.814ZM1419.97 498.047C1420.01 498.13 1420.09 498.238 1420.19 498.249C1420.28 498.356 1420.31 498.439 1420.34 498.521C1420.39 498.644 1420.38 498.742 1420.41 498.824C1420.41 498.922 1420.44 499.004 1420.43 499.102L1420.41 499.394C1420.4 499.491 1420.38 499.548 1420.34 499.661C1420.31 499.718 1420.27 499.83 1420.21 499.902L1420.02 500.117C1419.96 500.19 1419.9 500.262 1419.82 500.292C1419.74 500.357 1419.66 500.407 1419.56 500.44C1419.44 500.485 1419.35 500.476 1419.27 500.506C1419.18 500.495 1419.1 500.526 1419 500.515L1418.72 500.484C1418.63 500.474 1418.57 500.448 1418.46 500.396C1418.38 500.361 1418.3 500.311 1418.23 500.251L1418.01 500.051C1417.94 499.984 1417.87 499.917 1417.84 499.835C1417.75 499.727 1417.72 499.645 1417.69 499.562C1417.64 499.439 1417.64 499.341 1417.61 499.259C1417.58 499.176 1417.59 499.079 1417.59 498.982L1417.61 498.689C1417.62 498.591 1417.64 498.535 1417.69 498.422C1417.71 498.366 1417.76 498.253 1417.82 498.181L1418 497.966C1418.07 497.894 1418.13 497.823 1418.21 497.792C1418.35 497.689 1418.54 497.612 1418.71 497.593C1418.81 497.603 1418.89 497.573 1418.98 497.583L1419.26 497.615C1419.36 497.625 1419.41 497.65 1419.52 497.703C1419.58 497.729 1419.69 497.78 1419.76 497.847L1419.97 498.048L1419.97 498.047ZM1352.96 570.762C1353.31 570.624 1353.71 570.638 1354.06 570.802C1354.41 570.965 1354.69 571.265 1354.83 571.634C1354.98 572.003 1354.98 572.413 1354.83 572.772C1354.68 573.13 1354.4 573.41 1354.05 573.548C1353.7 573.686 1353.3 573.671 1352.95 573.508C1352.6 573.344 1352.32 573.045 1352.18 572.675C1352.03 572.306 1352.03 571.897 1352.18 571.538C1352.33 571.179 1352.61 570.9 1352.96 570.762ZM1368.4 565.69C1368.47 565.757 1368.5 565.839 1368.61 565.891C1368.7 565.999 1368.73 566.081 1368.77 566.164C1368.82 566.287 1368.81 566.384 1368.84 566.467C1368.83 566.564 1368.87 566.646 1368.86 566.744L1368.84 567.036C1368.83 567.134 1368.81 567.191 1368.76 567.304C1368.73 567.391 1368.69 567.471 1368.63 567.544L1368.45 567.759C1368.38 567.831 1368.32 567.903 1368.25 567.934C1368.14 568.021 1368.07 568.051 1367.99 568.082C1367.87 568.128 1367.78 568.117 1367.7 568.148C1367.6 568.137 1367.53 568.168 1367.43 568.157L1367.15 568.126C1367.06 568.115 1367 568.089 1366.89 568.039C1366.8 568.002 1366.72 567.954 1366.65 567.894L1366.44 567.693C1366.37 567.626 1366.3 567.559 1366.26 567.477C1366.18 567.369 1366.14 567.287 1366.11 567.205C1366.06 567.081 1366.07 566.984 1366.04 566.902C1366.01 566.818 1366.01 566.721 1366.02 566.624L1366.04 566.331C1366.05 566.234 1366.07 566.177 1366.12 566.064C1366.14 566.008 1366.18 565.895 1366.25 565.824L1366.43 565.609C1366.49 565.536 1366.56 565.465 1366.63 565.435C1366.77 565.331 1366.97 565.255 1367.14 565.235C1367.24 565.246 1367.31 565.215 1367.41 565.226L1367.69 565.257C1367.78 565.268 1367.84 565.294 1367.95 565.344C1368.01 565.371 1368.12 565.422 1368.19 565.489L1368.4 565.69ZM1381.67 560.484C1381.75 560.551 1381.78 560.633 1381.89 560.685C1381.97 560.793 1382.01 560.876 1382.04 560.958C1382.09 561.081 1382.08 561.179 1382.11 561.261C1382.11 561.359 1382.14 561.441 1382.13 561.538C1382.12 561.636 1382.12 561.733 1382.11 561.83C1382.1 561.928 1382.08 561.985 1382.04 562.098C1382 562.185 1381.96 562.267 1381.91 562.339L1381.72 562.553C1381.66 562.626 1381.6 562.698 1381.52 562.728C1381.42 562.815 1381.34 562.846 1381.26 562.876C1381.14 562.923 1381.05 562.912 1380.97 562.943C1380.88 562.931 1380.8 562.962 1380.7 562.952L1380.42 562.921C1380.33 562.91 1380.27 562.884 1380.16 562.833C1380.08 562.797 1380 562.748 1379.92 562.688L1379.71 562.488C1379.64 562.42 1379.57 562.354 1379.54 562.272C1379.45 562.163 1379.42 562.081 1379.38 561.999C1379.34 561.876 1379.34 561.779 1379.31 561.696C1379.32 561.597 1379.29 561.516 1379.29 561.418L1379.31 561.126C1379.32 561.028 1379.34 560.972 1379.39 560.858C1379.41 560.803 1379.46 560.69 1379.52 560.618L1379.7 560.403C1379.77 560.331 1379.83 560.259 1379.91 560.229C1380.05 560.126 1380.24 560.049 1380.41 560.03C1380.51 560.04 1380.59 560.01 1380.68 560.02C1380.77 560.031 1380.87 560.04 1380.96 560.052C1381.06 560.062 1381.11 560.088 1381.22 560.139C1381.28 560.165 1381.39 560.217 1381.46 560.284L1381.67 560.484ZM1394.1 554.625C1394.46 554.487 1394.85 554.501 1395.2 554.665C1395.55 554.828 1395.83 555.128 1395.98 555.497C1396.12 555.866 1396.12 556.276 1395.97 556.634C1395.83 556.993 1395.55 557.273 1395.2 557.411C1394.84 557.549 1394.45 557.534 1394.1 557.37C1393.75 557.207 1393.47 556.907 1393.32 556.538C1393.18 556.169 1393.18 555.76 1393.33 555.401C1393.47 555.042 1393.75 554.762 1394.1 554.625ZM1302.53 481.243C1302.89 481.104 1303.28 481.119 1303.63 481.282C1303.98 481.446 1304.26 481.746 1304.41 482.115C1304.55 482.484 1304.55 482.894 1304.41 483.252C1304.26 483.611 1303.98 483.89 1303.63 484.029C1303.28 484.167 1302.88 484.152 1302.53 483.989C1302.18 483.825 1301.9 483.526 1301.75 483.156C1301.61 482.787 1301.61 482.377 1301.76 482.019C1301.9 481.66 1302.18 481.381 1302.53 481.243ZM1288.6 486.708C1288.95 486.57 1289.35 486.585 1289.7 486.748C1290.05 486.912 1290.33 487.211 1290.47 487.581C1290.62 487.95 1290.62 488.359 1290.47 488.718C1290.32 489.077 1290.04 489.356 1289.69 489.494C1289.34 489.632 1288.94 489.618 1288.59 489.454C1288.24 489.291 1287.96 488.991 1287.82 488.622C1287.67 488.253 1287.67 487.843 1287.82 487.484C1287.97 487.126 1288.25 486.846 1288.6 486.708ZM1315.81 476.037C1316.16 475.899 1316.55 475.913 1316.91 476.077C1317.26 476.24 1317.54 476.54 1317.68 476.909C1317.83 477.279 1317.82 477.688 1317.68 478.047C1317.53 478.406 1317.25 478.685 1316.9 478.823C1316.55 478.961 1316.15 478.947 1315.8 478.783C1315.45 478.619 1315.17 478.32 1315.03 477.95C1314.88 477.581 1314.88 477.172 1315.03 476.813C1315.18 476.454 1315.46 476.175 1315.81 476.037ZM1331.25 470.965C1331.32 471.032 1331.35 471.114 1331.46 471.166C1331.55 471.274 1331.57 471.315 1331.62 471.439C1331.66 471.562 1331.66 471.659 1331.69 471.742C1331.68 471.839 1331.71 471.921 1331.71 472.019L1331.69 472.311C1331.68 472.409 1331.66 472.466 1331.61 472.579C1331.58 472.666 1331.54 472.747 1331.48 472.82L1331.3 473.035C1331.23 473.107 1331.17 473.178 1331.09 473.209C1330.99 473.296 1330.91 473.326 1330.84 473.357C1330.72 473.403 1330.62 473.393 1330.55 473.423C1330.45 473.412 1330.37 473.443 1330.28 473.433C1330.19 473.422 1330.09 473.412 1330 473.402C1329.9 473.39 1329.85 473.365 1329.74 473.314C1329.65 473.277 1329.57 473.229 1329.5 473.169L1329.29 472.968C1329.22 472.901 1329.14 472.834 1329.11 472.752C1329.03 472.644 1329.01 472.603 1328.96 472.48C1328.91 472.356 1328.92 472.258 1328.89 472.176C1328.85 472.094 1328.86 471.996 1328.87 471.899L1328.89 471.606C1328.9 471.509 1328.92 471.452 1328.96 471.34C1328.99 471.282 1329.03 471.17 1329.09 471.098L1329.28 470.883C1329.34 470.811 1329.4 470.739 1329.48 470.709C1329.62 470.606 1329.82 470.53 1329.99 470.51C1330.08 470.521 1330.16 470.49 1330.26 470.5L1330.54 470.532C1330.63 470.543 1330.69 470.569 1330.8 470.62C1330.85 470.646 1330.96 470.698 1331.04 470.764L1331.25 470.965ZM1320.72 488.574C1321.08 488.436 1321.47 488.45 1321.82 488.614C1322.17 488.778 1322.45 489.077 1322.6 489.447C1322.74 489.816 1322.74 490.225 1322.6 490.584C1322.45 490.943 1322.17 491.222 1321.82 491.36C1321.47 491.498 1321.07 491.484 1320.72 491.32C1320.37 491.157 1320.09 490.857 1319.94 490.488C1319.8 490.118 1319.8 489.709 1319.95 489.35C1320.09 488.991 1320.37 488.712 1320.72 488.574ZM1293.52 499.245C1293.87 499.107 1294.26 499.122 1294.61 499.285C1294.97 499.449 1295.24 499.749 1295.39 500.118C1295.53 500.487 1295.53 500.897 1295.39 501.255C1295.24 501.614 1294.96 501.893 1294.61 502.032C1294.26 502.17 1293.86 502.155 1293.51 501.992C1293.16 501.828 1292.88 501.528 1292.73 501.159C1292.59 500.79 1292.59 500.38 1292.74 500.022C1292.88 499.663 1293.16 499.384 1293.52 499.245ZM1307.45 493.78C1307.8 493.642 1308.2 493.656 1308.55 493.82C1308.9 493.983 1309.18 494.283 1309.33 494.652C1309.47 495.022 1309.47 495.431 1309.32 495.79C1309.18 496.148 1308.9 496.428 1308.54 496.566C1308.19 496.704 1307.8 496.689 1307.45 496.526C1307.09 496.362 1306.82 496.063 1306.67 495.693C1306.53 495.324 1306.53 494.915 1306.67 494.556C1306.82 494.197 1307.1 493.918 1307.45 493.78ZM1336.17 483.502C1336.24 483.569 1336.27 483.651 1336.38 483.703C1336.47 483.811 1336.5 483.894 1336.53 483.976C1336.58 484.099 1336.57 484.197 1336.61 484.279C1336.6 484.376 1336.63 484.459 1336.63 484.556L1336.6 484.848C1336.6 484.946 1336.57 485.003 1336.53 485.116C1336.5 485.203 1336.45 485.284 1336.4 485.357L1336.21 485.572C1336.15 485.644 1336.09 485.715 1336.01 485.746C1335.91 485.833 1335.83 485.864 1335.75 485.894C1335.64 485.94 1335.54 485.93 1335.46 485.96C1335.37 485.949 1335.29 485.98 1335.2 485.97C1335.1 485.959 1335.01 485.949 1334.91 485.939C1334.82 485.927 1334.77 485.902 1334.66 485.851C1334.57 485.815 1334.49 485.766 1334.42 485.706L1334.2 485.505C1334.13 485.438 1334.06 485.371 1334.03 485.289C1333.94 485.181 1333.91 485.098 1333.88 485.017C1333.83 484.894 1333.84 484.795 1333.8 484.713C1333.77 484.631 1333.78 484.533 1333.78 484.436L1333.81 484.144C1333.81 484.046 1333.84 483.99 1333.88 483.877C1333.9 483.819 1333.95 483.708 1334.01 483.635L1334.2 483.42C1334.26 483.348 1334.32 483.277 1334.4 483.246C1334.54 483.144 1334.73 483.067 1334.91 483.047C1335 483.058 1335.08 483.028 1335.17 483.037L1335.46 483.069C1335.55 483.08 1335.61 483.106 1335.72 483.157C1335.77 483.183 1335.88 483.235 1335.95 483.302L1336.17 483.502ZM1326.19 502.504C1326.54 502.366 1326.93 502.38 1327.29 502.544C1327.64 502.708 1327.92 503.007 1328.06 503.377C1328.21 503.746 1328.21 504.155 1328.06 504.514C1327.91 504.873 1327.63 505.152 1327.28 505.29C1326.93 505.428 1326.53 505.414 1326.18 505.25C1325.83 505.087 1325.55 504.787 1325.41 504.418C1325.26 504.048 1325.26 503.639 1325.41 503.28C1325.56 502.921 1325.84 502.642 1326.19 502.504ZM1312.92 507.71C1313.27 507.572 1313.66 507.586 1314.01 507.75C1314.37 507.913 1314.64 508.213 1314.79 508.582C1314.93 508.952 1314.93 509.361 1314.79 509.72C1314.64 510.079 1314.36 510.358 1314.01 510.496C1313.66 510.634 1313.26 510.619 1312.91 510.456C1312.56 510.292 1312.28 509.993 1312.13 509.623C1311.99 509.254 1311.99 508.845 1312.14 508.486C1312.28 508.127 1312.56 507.848 1312.92 507.71ZM1298.98 513.176C1299.33 513.038 1299.73 513.052 1300.08 513.216C1300.43 513.379 1300.71 513.679 1300.85 514.048C1301 514.418 1301 514.827 1300.85 515.186C1300.7 515.544 1300.42 515.824 1300.07 515.962C1299.72 516.1 1299.32 516.085 1298.97 515.922C1298.62 515.758 1298.34 515.459 1298.2 515.089C1298.05 514.72 1298.05 514.311 1298.2 513.952C1298.35 513.593 1298.63 513.314 1298.98 513.176ZM1341.63 497.432C1341.7 497.499 1341.73 497.581 1341.84 497.633C1341.93 497.741 1341.96 497.824 1342 497.906C1342.04 498.029 1342.04 498.127 1342.07 498.209C1342.06 498.306 1342.09 498.389 1342.09 498.486L1342.07 498.779C1342.06 498.876 1342.04 498.933 1341.99 499.046C1341.96 499.133 1341.92 499.214 1341.86 499.287L1341.68 499.502C1341.61 499.574 1341.55 499.646 1341.47 499.676C1341.37 499.763 1341.3 499.794 1341.22 499.824C1341.1 499.87 1341.01 499.86 1340.93 499.89C1340.83 499.879 1340.75 499.91 1340.66 499.9C1340.57 499.889 1340.47 499.879 1340.38 499.869C1340.28 499.857 1340.23 499.832 1340.12 499.781C1340.03 499.745 1339.95 499.696 1339.88 499.636L1339.67 499.435C1339.6 499.368 1339.53 499.302 1339.49 499.219C1339.41 499.111 1339.37 499.029 1339.34 498.947C1339.29 498.823 1339.3 498.725 1339.27 498.643C1339.24 498.561 1339.24 498.464 1339.25 498.366L1339.27 498.074C1339.28 497.976 1339.3 497.92 1339.34 497.807C1339.37 497.75 1339.41 497.638 1339.47 497.565L1339.66 497.35C1339.72 497.278 1339.79 497.207 1339.86 497.176C1340 497.074 1340.2 496.997 1340.37 496.977C1340.47 496.988 1340.54 496.958 1340.64 496.967L1340.92 496.999C1341.01 497.01 1341.07 497.036 1341.18 497.087C1341.23 497.113 1341.34 497.165 1341.42 497.232L1341.63 497.432ZM1344.52 465.759C1344.59 465.826 1344.63 465.908 1344.74 465.96C1344.82 466.068 1344.84 466.11 1344.89 466.233C1344.94 466.356 1344.93 466.454 1344.96 466.536C1344.95 466.634 1344.99 466.716 1344.98 466.813C1344.97 466.911 1344.97 467.008 1344.96 467.105C1344.95 467.203 1344.93 467.26 1344.88 467.373C1344.85 467.46 1344.81 467.541 1344.75 467.614L1344.57 467.829C1344.51 467.901 1344.44 467.973 1344.37 468.003C1344.26 468.09 1344.19 468.121 1344.11 468.152C1343.99 468.198 1343.9 468.187 1343.82 468.218C1343.73 468.206 1343.65 468.237 1343.55 468.227L1343.27 468.196C1343.18 468.185 1343.12 468.16 1343.01 468.108C1342.93 468.072 1342.85 468.023 1342.77 467.963L1342.56 467.763C1342.49 467.695 1342.42 467.629 1342.38 467.547C1342.3 467.439 1342.28 467.397 1342.23 467.274C1342.18 467.151 1342.19 467.053 1342.16 466.971C1342.17 466.873 1342.13 466.791 1342.14 466.693L1342.16 466.401C1342.17 466.303 1342.19 466.247 1342.24 466.134C1342.27 466.047 1342.31 465.965 1342.37 465.893L1342.55 465.677C1342.61 465.606 1342.68 465.534 1342.75 465.503C1342.89 465.401 1343.09 465.324 1343.26 465.304C1343.36 465.315 1343.43 465.285 1343.53 465.295L1343.81 465.326C1343.91 465.337 1343.96 465.363 1344.07 465.415C1344.13 465.44 1344.24 465.492 1344.31 465.559L1344.52 465.759ZM1356.95 459.9C1357.3 459.762 1357.7 459.776 1358.05 459.94C1358.4 460.103 1358.68 460.403 1358.83 460.772C1358.97 461.142 1358.97 461.551 1358.82 461.91C1358.68 462.268 1358.4 462.548 1358.05 462.686C1357.69 462.824 1357.3 462.809 1356.95 462.646C1356.6 462.482 1356.32 462.183 1356.17 461.813C1356.03 461.444 1356.03 461.035 1356.17 460.676C1356.32 460.317 1356.6 460.038 1356.95 459.9ZM1384.16 449.228C1384.9 448.937 1385.73 449.322 1386.03 450.101C1386.34 450.879 1386 451.723 1385.25 452.014C1384.51 452.305 1383.69 451.92 1383.38 451.142C1383.07 450.363 1383.42 449.519 1384.16 449.228ZM1370.22 454.694C1370.58 454.556 1370.97 454.57 1371.32 454.734C1371.67 454.898 1371.95 455.197 1372.1 455.566C1372.24 455.936 1372.24 456.345 1372.1 456.704C1371.95 457.063 1371.67 457.342 1371.32 457.48C1370.97 457.618 1370.57 457.604 1370.22 457.44C1369.87 457.276 1369.59 456.977 1369.44 456.608C1369.3 456.238 1369.3 455.829 1369.45 455.47C1369.59 455.111 1369.87 454.832 1370.22 454.694ZM1349.44 478.296C1349.51 478.363 1349.54 478.445 1349.65 478.497C1349.74 478.605 1349.77 478.688 1349.8 478.77C1349.85 478.893 1349.85 478.991 1349.88 479.073C1349.87 479.171 1349.9 479.253 1349.9 479.35C1349.89 479.448 1349.88 479.545 1349.88 479.643C1349.87 479.74 1349.85 479.797 1349.8 479.91C1349.77 479.997 1349.73 480.078 1349.67 480.151L1349.49 480.366C1349.42 480.438 1349.36 480.51 1349.28 480.54C1349.18 480.627 1349.1 480.658 1349.03 480.689C1348.91 480.735 1348.81 480.724 1348.74 480.755C1348.64 480.743 1348.56 480.774 1348.47 480.764L1348.19 480.733C1348.09 480.722 1348.04 480.697 1347.93 480.645C1347.84 480.609 1347.76 480.56 1347.69 480.5L1347.48 480.3C1347.41 480.233 1347.33 480.166 1347.3 480.084C1347.21 479.976 1347.18 479.893 1347.15 479.811C1347.1 479.688 1347.11 479.59 1347.08 479.508C1347.08 479.41 1347.05 479.328 1347.06 479.231L1347.08 478.938C1347.09 478.84 1347.11 478.784 1347.15 478.671C1347.19 478.584 1347.23 478.503 1347.28 478.43L1347.47 478.215C1347.53 478.143 1347.59 478.071 1347.67 478.04C1347.81 477.938 1348.01 477.861 1348.18 477.841C1348.27 477.852 1348.35 477.822 1348.45 477.832L1348.73 477.863C1348.82 477.874 1348.88 477.9 1348.99 477.952C1349.04 477.977 1349.15 478.029 1349.23 478.096L1349.44 478.296ZM1389.08 461.765C1389.82 461.474 1390.65 461.859 1390.95 462.638C1391.26 463.416 1390.91 464.26 1390.17 464.551C1389.43 464.842 1388.6 464.458 1388.3 463.679C1387.99 462.9 1388.34 462.056 1389.08 461.765ZM1361.87 472.437C1362.22 472.299 1362.62 472.313 1362.97 472.477C1363.32 472.64 1363.6 472.94 1363.74 473.309C1363.89 473.679 1363.89 474.088 1363.74 474.447C1363.59 474.806 1363.31 475.085 1362.96 475.223C1362.61 475.361 1362.22 475.346 1361.86 475.183C1361.51 475.019 1361.23 474.72 1361.09 474.35C1360.94 473.981 1360.94 473.572 1361.09 473.213C1361.24 472.854 1361.52 472.575 1361.87 472.437ZM1375.14 467.231C1375.49 467.093 1375.89 467.107 1376.24 467.271C1376.59 467.435 1376.87 467.734 1377.02 468.104C1377.16 468.473 1377.16 468.882 1377.01 469.241C1376.87 469.6 1376.59 469.879 1376.23 470.017C1375.88 470.155 1375.49 470.141 1375.14 469.977C1374.79 469.814 1374.51 469.514 1374.36 469.145C1374.22 468.775 1374.22 468.366 1374.36 468.007C1374.51 467.648 1374.79 467.369 1375.14 467.231ZM1354.9 492.227C1354.97 492.293 1355.01 492.375 1355.12 492.427C1355.2 492.535 1355.24 492.618 1355.27 492.7C1355.32 492.824 1355.31 492.921 1355.34 493.003C1355.34 493.101 1355.37 493.183 1355.36 493.28C1355.35 493.378 1355.35 493.475 1355.34 493.573C1355.33 493.671 1355.31 493.727 1355.27 493.84C1355.23 493.927 1355.19 494.009 1355.13 494.081L1354.95 494.296C1354.89 494.368 1354.82 494.44 1354.75 494.47C1354.65 494.558 1354.57 494.588 1354.49 494.619C1354.37 494.665 1354.28 494.654 1354.2 494.685C1354.11 494.674 1354.03 494.704 1353.93 494.695L1353.65 494.663C1353.56 494.652 1353.5 494.627 1353.39 494.575C1353.31 494.539 1353.23 494.49 1353.15 494.431L1352.94 494.23C1352.87 494.163 1352.8 494.096 1352.77 494.014C1352.68 493.906 1352.65 493.824 1352.61 493.741C1352.57 493.617 1352.57 493.52 1352.54 493.438C1352.55 493.34 1352.51 493.258 1352.52 493.161L1352.54 492.868C1352.55 492.771 1352.57 492.714 1352.62 492.601C1352.65 492.514 1352.69 492.433 1352.75 492.36L1352.93 492.145C1353 492.073 1353.06 492.001 1353.14 491.971C1353.28 491.868 1353.47 491.792 1353.64 491.772C1353.74 491.783 1353.82 491.752 1353.91 491.762L1354.19 491.793C1354.29 491.805 1354.34 491.83 1354.45 491.882C1354.51 491.908 1354.62 491.959 1354.69 492.026L1354.9 492.227ZM1367.33 486.367C1367.68 486.229 1368.08 486.243 1368.43 486.407C1368.78 486.571 1369.06 486.87 1369.21 487.239C1369.35 487.609 1369.35 488.018 1369.2 488.377C1369.06 488.736 1368.78 489.015 1368.43 489.153C1368.07 489.291 1367.68 489.277 1367.33 489.113C1366.98 488.949 1366.7 488.65 1366.55 488.28C1366.41 487.911 1366.41 487.502 1366.55 487.143C1366.7 486.784 1366.98 486.505 1367.33 486.367ZM1380.61 481.161C1380.96 481.023 1381.35 481.038 1381.7 481.201C1382.06 481.365 1382.33 481.664 1382.48 482.034C1382.62 482.403 1382.62 482.812 1382.48 483.171C1382.33 483.53 1382.05 483.809 1381.7 483.947C1381.35 484.085 1380.95 484.071 1380.6 483.907C1380.25 483.744 1379.97 483.444 1379.82 483.075C1379.68 482.705 1379.68 482.296 1379.83 481.937C1379.97 481.578 1380.25 481.299 1380.61 481.161ZM1394.54 475.695C1395.28 475.404 1396.11 475.789 1396.42 476.568C1396.72 477.347 1396.38 478.19 1395.63 478.481C1394.89 478.772 1394.07 478.388 1393.76 477.609C1393.46 476.83 1393.8 475.986 1394.54 475.695ZM1304.44 527.106C1305.18 526.815 1306.01 527.2 1306.32 527.978C1306.62 528.757 1306.28 529.601 1305.54 529.892C1304.79 530.183 1303.97 529.798 1303.66 529.019C1303.36 528.241 1303.7 527.397 1304.44 527.106ZM1318.38 521.64C1319.08 521.364 1319.91 521.749 1320.25 522.512C1320.56 523.291 1320.21 524.135 1319.47 524.426C1318.73 524.717 1317.9 524.332 1317.6 523.553C1317.29 522.775 1317.64 521.931 1318.38 521.64ZM1331.65 516.434C1332.39 516.143 1333.22 516.528 1333.52 517.307C1333.83 518.085 1333.49 518.929 1332.74 519.22C1332 519.511 1331.18 519.127 1330.87 518.348C1330.57 517.569 1330.91 516.725 1331.65 516.434ZM1347.09 511.362C1347.16 511.429 1347.2 511.511 1347.31 511.563C1347.39 511.671 1347.43 511.754 1347.46 511.836C1347.51 511.959 1347.5 512.057 1347.53 512.139C1347.53 512.237 1347.56 512.319 1347.55 512.416L1347.53 512.709C1347.52 512.806 1347.5 512.863 1347.46 512.976C1347.42 513.063 1347.38 513.144 1347.33 513.217L1347.14 513.432C1347.08 513.504 1347.02 513.576 1346.94 513.606C1346.84 513.693 1346.76 513.724 1346.68 513.754C1346.56 513.8 1346.47 513.79 1346.39 513.821C1346.3 513.809 1346.22 513.84 1346.12 513.83C1346.03 513.819 1345.94 513.809 1345.84 513.799C1345.75 513.788 1345.69 513.763 1345.58 513.711C1345.5 513.675 1345.42 513.626 1345.35 513.566L1345.13 513.366C1345.06 513.298 1344.99 513.232 1344.96 513.149C1344.87 513.042 1344.84 512.959 1344.8 512.877C1344.76 512.753 1344.76 512.656 1344.73 512.573C1344.7 512.491 1344.71 512.394 1344.71 512.296L1344.73 512.004C1344.74 511.906 1344.76 511.85 1344.81 511.737C1344.83 511.68 1344.88 511.568 1344.94 511.496L1345.12 511.28C1345.19 511.209 1345.25 511.137 1345.33 511.106C1345.47 511.004 1345.66 510.927 1345.83 510.907C1345.93 510.918 1346.01 510.888 1346.1 510.898L1346.38 510.929C1346.48 510.94 1346.53 510.966 1346.64 511.017C1346.7 511.043 1346.81 511.095 1346.88 511.162L1347.09 511.362ZM1309.63 540.339C1309.98 540.201 1310.38 540.216 1310.73 540.379C1311.08 540.543 1311.36 540.843 1311.51 541.212C1311.65 541.581 1311.65 541.99 1311.5 542.349C1311.36 542.708 1311.08 542.987 1310.73 543.125C1310.37 543.263 1309.98 543.249 1309.63 543.085C1309.28 542.922 1309 542.622 1308.85 542.253C1308.71 541.884 1308.71 541.474 1308.85 541.116C1309 540.757 1309.28 540.477 1309.63 540.339ZM1336.84 529.668C1337.19 529.53 1337.59 529.544 1337.94 529.708C1338.29 529.872 1338.57 530.171 1338.72 530.54C1338.86 530.91 1338.86 531.319 1338.71 531.678C1338.57 532.037 1338.29 532.316 1337.93 532.454C1337.58 532.592 1337.19 532.577 1336.84 532.414C1336.48 532.25 1336.21 531.951 1336.06 531.582C1335.92 531.212 1335.92 530.803 1336.06 530.444C1336.21 530.085 1336.49 529.806 1336.84 529.668ZM1323.57 534.874C1323.92 534.735 1324.32 534.75 1324.67 534.914C1325.02 535.077 1325.3 535.377 1325.44 535.746C1325.59 536.115 1325.59 536.524 1325.44 536.883C1325.29 537.242 1325.01 537.522 1324.66 537.66C1324.31 537.798 1323.91 537.783 1323.56 537.619C1323.21 537.456 1322.93 537.156 1322.79 536.787C1322.64 536.418 1322.64 536.009 1322.79 535.65C1322.94 535.291 1323.22 535.012 1323.57 534.874ZM1352.28 524.597C1352.36 524.663 1352.4 524.787 1352.5 524.797C1352.58 524.905 1352.62 524.987 1352.65 525.07C1352.7 525.193 1352.69 525.29 1352.72 525.373C1352.72 525.47 1352.75 525.552 1352.74 525.65L1352.72 525.942C1352.71 526.04 1352.69 526.097 1352.65 526.21C1352.62 526.267 1352.58 526.379 1352.52 526.451L1352.33 526.666C1352.27 526.738 1352.21 526.81 1352.13 526.84C1352.03 526.927 1351.95 526.957 1351.87 526.988C1351.75 527.034 1351.66 527.024 1351.58 527.055C1351.49 527.044 1351.41 527.074 1351.31 527.063L1351.03 527.033C1350.94 527.022 1350.88 526.996 1350.77 526.945C1350.69 526.909 1350.61 526.86 1350.54 526.8L1350.32 526.6C1350.25 526.532 1350.18 526.465 1350.15 526.383C1350.06 526.275 1350.03 526.193 1350 526.111C1349.95 525.987 1349.95 525.89 1349.92 525.808C1349.89 525.725 1349.9 525.627 1349.9 525.531L1349.92 525.237C1349.93 525.14 1349.95 525.083 1350 524.971C1350.02 524.914 1350.07 524.801 1350.13 524.73L1350.31 524.514C1350.38 524.443 1350.44 524.371 1350.52 524.341C1350.66 524.237 1350.85 524.161 1351.02 524.142C1351.12 524.152 1351.2 524.121 1351.29 524.131L1351.57 524.163C1351.67 524.174 1351.72 524.199 1351.83 524.251C1351.89 524.278 1352 524.329 1352.07 524.395C1352.14 524.462 1352.21 524.529 1352.28 524.597ZM1342.03 542.902C1342.38 542.764 1342.78 542.778 1343.13 542.942C1343.48 543.105 1343.76 543.405 1343.91 543.774C1344.05 544.143 1344.05 544.553 1343.9 544.911C1343.76 545.27 1343.48 545.55 1343.12 545.688C1342.77 545.826 1342.38 545.811 1342.03 545.648C1341.67 545.484 1341.4 545.184 1341.25 544.815C1341.11 544.446 1341.11 544.037 1341.25 543.678C1341.4 543.319 1341.68 543.04 1342.03 542.902ZM1314.82 553.573C1315.18 553.435 1315.57 553.45 1315.92 553.613C1316.27 553.777 1316.55 554.076 1316.7 554.445C1316.84 554.815 1316.84 555.224 1316.69 555.583C1316.55 555.942 1316.27 556.221 1315.92 556.359C1315.56 556.497 1315.17 556.483 1314.82 556.319C1314.47 556.155 1314.19 555.856 1314.04 555.487C1313.9 555.117 1313.9 554.708 1314.04 554.349C1314.19 553.99 1314.47 553.711 1314.82 553.573ZM1328.76 548.107C1329.11 547.969 1329.51 547.984 1329.86 548.147C1330.21 548.311 1330.49 548.61 1330.63 548.98C1330.78 549.349 1330.78 549.758 1330.63 550.117C1330.48 550.476 1330.2 550.755 1329.85 550.893C1329.5 551.031 1329.1 551.017 1328.75 550.853C1328.4 550.69 1328.12 550.39 1327.98 550.021C1327.83 549.652 1327.83 549.242 1327.98 548.883C1328.13 548.525 1328.41 548.245 1328.76 548.107ZM1357.47 537.83C1357.55 537.896 1357.58 537.979 1357.69 538.031C1357.78 538.138 1357.81 538.221 1357.84 538.303C1357.89 538.427 1357.88 538.524 1357.91 538.606C1357.91 538.704 1357.94 538.786 1357.93 538.884L1357.91 539.176C1357.9 539.274 1357.88 539.331 1357.84 539.443C1357.81 539.501 1357.77 539.613 1357.71 539.684L1357.52 539.899C1357.46 539.972 1357.4 540.044 1357.32 540.074C1357.22 540.161 1357.14 540.191 1357.06 540.222C1356.94 540.268 1356.85 540.258 1356.77 540.289C1356.68 540.277 1356.6 540.308 1356.5 540.297L1356.22 540.266C1356.13 540.256 1356.07 540.23 1355.96 540.178C1355.88 540.143 1355.8 540.093 1355.73 540.033L1355.51 539.834C1355.44 539.766 1355.37 539.699 1355.34 539.617C1355.25 539.509 1355.22 539.427 1355.19 539.344C1355.14 539.221 1355.14 539.124 1355.11 539.041C1355.08 538.959 1355.09 538.861 1355.09 538.764L1355.11 538.471C1355.12 538.374 1355.14 538.317 1355.19 538.204C1355.21 538.148 1355.26 538.035 1355.32 537.964L1355.5 537.748C1355.57 537.677 1355.63 537.605 1355.71 537.574C1355.85 537.471 1356.04 537.395 1356.21 537.375C1356.31 537.386 1356.39 537.355 1356.48 537.365L1356.76 537.397C1356.86 537.408 1356.91 537.433 1357.02 537.485C1357.08 537.511 1357.19 537.562 1357.26 537.629C1357.33 537.696 1357.4 537.763 1357.47 537.83ZM1360.37 506.157C1360.44 506.223 1360.47 506.305 1360.58 506.357C1360.67 506.465 1360.7 506.548 1360.73 506.63C1360.78 506.754 1360.77 506.851 1360.81 506.933C1360.8 507.031 1360.83 507.113 1360.82 507.21C1360.82 507.308 1360.81 507.406 1360.8 507.503C1360.8 507.601 1360.77 507.658 1360.73 507.77C1360.7 507.858 1360.65 507.939 1360.6 508.011L1360.41 508.227C1360.35 508.298 1360.29 508.37 1360.21 508.401C1360.11 508.488 1360.03 508.518 1359.95 508.549C1359.84 508.595 1359.74 508.584 1359.66 508.615C1359.57 508.604 1359.49 508.634 1359.4 508.625L1359.11 508.593C1359.02 508.582 1358.97 508.557 1358.85 508.505C1358.77 508.47 1358.69 508.421 1358.62 508.361L1358.4 508.16C1358.33 508.093 1358.26 508.026 1358.23 507.944C1358.14 507.836 1358.11 507.754 1358.08 507.672C1358.03 507.548 1358.03 507.45 1358 507.368C1358.01 507.27 1357.98 507.188 1357.98 507.091L1358 506.798C1358.01 506.701 1358.03 506.644 1358.08 506.532C1358.11 506.444 1358.16 506.363 1358.21 506.29L1358.4 506.075C1358.46 506.003 1358.52 505.931 1358.6 505.901C1358.74 505.798 1358.93 505.722 1359.11 505.702C1359.2 505.713 1359.28 505.682 1359.37 505.692C1359.47 505.703 1359.56 505.713 1359.66 505.723C1359.75 505.735 1359.81 505.76 1359.92 505.812C1359.97 505.838 1360.08 505.889 1360.15 505.956L1360.37 506.157L1360.37 506.157ZM1400.01 489.626C1400.75 489.335 1401.57 489.719 1401.88 490.498C1402.18 491.277 1401.84 492.121 1401.1 492.412C1400.36 492.703 1399.53 492.318 1399.22 491.539C1398.92 490.76 1399.26 489.917 1400.01 489.626ZM1386.07 495.091C1386.77 494.816 1387.6 495.201 1387.94 495.964C1388.25 496.743 1387.9 497.586 1387.16 497.877C1386.42 498.168 1385.59 497.784 1385.29 497.005C1384.98 496.226 1385.33 495.382 1386.07 495.091ZM1372.8 500.297C1373.54 500.006 1374.36 500.391 1374.67 501.169C1374.98 501.948 1374.63 502.792 1373.89 503.083C1373.15 503.374 1372.32 502.989 1372.02 502.211C1371.71 501.432 1372.05 500.588 1372.8 500.297ZM1365.56 519.391C1365.63 519.457 1365.68 519.581 1365.77 519.592C1365.86 519.699 1365.89 519.782 1365.92 519.864C1365.97 519.987 1365.96 520.085 1366 520.167C1365.99 520.265 1366.02 520.347 1366.02 520.445C1366.01 520.543 1366 520.64 1365.99 520.736C1365.99 520.834 1365.97 520.891 1365.92 521.004C1365.9 521.061 1365.85 521.173 1365.79 521.245L1365.6 521.46C1365.54 521.533 1365.48 521.604 1365.4 521.635C1365.3 521.721 1365.22 521.752 1365.14 521.783C1365.03 521.829 1364.93 521.819 1364.85 521.849C1364.76 521.838 1364.68 521.869 1364.59 521.858L1364.3 521.827C1364.21 521.817 1364.16 521.791 1364.04 521.739C1363.96 521.703 1363.88 521.655 1363.81 521.594L1363.59 521.394C1363.52 521.327 1363.45 521.26 1363.42 521.178C1363.33 521.07 1363.3 520.987 1363.27 520.905C1363.22 520.782 1363.23 520.685 1363.19 520.602C1363.2 520.504 1363.17 520.422 1363.17 520.325L1363.19 520.032C1363.2 519.934 1363.22 519.878 1363.27 519.765C1363.29 519.709 1363.34 519.596 1363.4 519.524L1363.59 519.308C1363.65 519.237 1363.71 519.166 1363.79 519.135C1363.93 519.032 1364.12 518.955 1364.3 518.936C1364.39 518.946 1364.47 518.916 1364.56 518.926L1364.85 518.958C1364.94 518.968 1365 518.993 1365.11 519.046C1365.16 519.072 1365.27 519.123 1365.34 519.19C1365.41 519.256 1365.49 519.324 1365.56 519.391ZM1405.2 502.859C1405.94 502.568 1406.76 502.953 1407.07 503.732C1407.37 504.51 1407.03 505.354 1406.29 505.645C1405.55 505.936 1404.72 505.551 1404.41 504.773C1404.11 503.994 1404.45 503.15 1405.2 502.859ZM1391.26 508.325C1391.61 508.187 1392.01 508.202 1392.36 508.365C1392.71 508.529 1392.99 508.828 1393.13 509.198C1393.28 509.567 1393.28 509.976 1393.13 510.335C1392.98 510.694 1392.7 510.973 1392.35 511.111C1392 511.249 1391.6 511.235 1391.25 511.071C1390.9 510.907 1390.62 510.608 1390.48 510.239C1390.33 509.869 1390.33 509.46 1390.48 509.101C1390.63 508.742 1390.91 508.463 1391.26 508.325ZM1377.99 513.531C1378.34 513.393 1378.73 513.407 1379.09 513.571C1379.44 513.734 1379.72 514.034 1379.86 514.403C1380.01 514.772 1380 515.182 1379.86 515.54C1379.71 515.899 1379.43 516.179 1379.08 516.317C1378.73 516.455 1378.33 516.44 1377.98 516.277C1377.63 516.113 1377.35 515.813 1377.21 515.444C1377.06 515.075 1377.06 514.666 1377.21 514.307C1377.35 513.948 1377.63 513.669 1377.99 513.531ZM1370.75 532.625C1370.82 532.691 1370.85 532.773 1370.96 532.825C1371.05 532.933 1371.08 533.016 1371.11 533.098C1371.16 533.221 1371.15 533.318 1371.19 533.4C1371.18 533.498 1371.21 533.58 1371.21 533.678C1371.2 533.776 1371.19 533.874 1371.19 533.97C1371.18 534.068 1371.16 534.125 1371.11 534.238C1371.09 534.295 1371.04 534.407 1370.98 534.479L1370.79 534.694C1370.73 534.766 1370.67 534.838 1370.59 534.869C1370.49 534.955 1370.41 534.986 1370.33 535.016C1370.22 535.062 1370.12 535.052 1370.04 535.083C1369.95 535.072 1369.87 535.102 1369.78 535.091L1369.49 535.061C1369.4 535.05 1369.35 535.024 1369.24 534.973C1369.15 534.937 1369.07 534.888 1369 534.828L1368.78 534.628C1368.71 534.56 1368.64 534.494 1368.61 534.411C1368.52 534.303 1368.49 534.221 1368.46 534.139C1368.41 534.016 1368.42 533.918 1368.38 533.836C1368.39 533.738 1368.36 533.655 1368.37 533.559L1368.39 533.266C1368.39 533.168 1368.41 533.112 1368.46 532.999C1368.48 532.942 1368.53 532.83 1368.59 532.758L1368.78 532.542C1368.84 532.471 1368.9 532.399 1368.98 532.369C1369.12 532.266 1369.31 532.189 1369.49 532.17C1369.58 532.18 1369.66 532.15 1369.75 532.159L1370.04 532.191C1370.13 532.202 1370.19 532.227 1370.3 532.279C1370.35 532.306 1370.46 532.356 1370.53 532.423C1370.6 532.49 1370.68 532.557 1370.75 532.625ZM1410.39 516.093C1411.13 515.802 1411.95 516.187 1412.26 516.965C1412.56 517.744 1412.22 518.588 1411.48 518.879C1410.74 519.17 1409.91 518.785 1409.6 518.006C1409.3 517.228 1409.64 516.384 1410.39 516.093ZM1396.45 521.559C1396.8 521.421 1397.2 521.435 1397.55 521.599C1397.9 521.762 1398.18 522.062 1398.32 522.431C1398.47 522.8 1398.47 523.21 1398.32 523.569C1398.17 523.927 1397.89 524.207 1397.54 524.345C1397.19 524.483 1396.8 524.468 1396.44 524.305C1396.09 524.141 1395.81 523.841 1395.67 523.472C1395.52 523.103 1395.52 522.694 1395.67 522.335C1395.82 521.976 1396.1 521.697 1396.45 521.559ZM1383.18 526.764C1383.53 526.626 1383.92 526.641 1384.28 526.804C1384.63 526.968 1384.91 527.268 1385.05 527.637C1385.2 528.006 1385.19 528.415 1385.05 528.774C1384.9 529.133 1384.62 529.412 1384.27 529.55C1383.92 529.688 1383.52 529.674 1383.17 529.51C1382.82 529.347 1382.54 529.047 1382.4 528.678C1382.25 528.309 1382.25 527.899 1382.4 527.54C1382.55 527.182 1382.83 526.902 1383.18 526.764ZM1310.62 462.803C1310.97 462.665 1311.36 462.68 1311.72 462.843C1312.07 463.007 1312.35 463.306 1312.49 463.676C1312.64 464.045 1312.63 464.454 1312.49 464.813C1312.34 465.172 1312.06 465.451 1311.71 465.589C1311.36 465.727 1310.96 465.713 1310.61 465.549C1310.26 465.386 1309.98 465.086 1309.84 464.717C1309.69 464.347 1309.69 463.938 1309.84 463.579C1309.98 463.221 1310.26 462.941 1310.62 462.803ZM1297.34 468.009C1297.7 467.871 1298.09 467.885 1298.44 468.049C1298.79 468.212 1299.07 468.512 1299.22 468.881C1299.36 469.251 1299.36 469.66 1299.22 470.019C1299.07 470.378 1298.79 470.657 1298.44 470.795C1298.09 470.933 1297.69 470.919 1297.34 470.755C1296.99 470.591 1296.71 470.292 1296.56 469.922C1296.42 469.553 1296.42 469.144 1296.57 468.785C1296.71 468.426 1296.99 468.147 1297.34 468.009ZM1326.06 457.731C1326.13 457.798 1326.16 457.88 1326.27 457.932C1326.36 458.04 1326.38 458.082 1326.42 458.205C1326.47 458.328 1326.47 458.426 1326.5 458.508C1326.49 458.606 1326.52 458.688 1326.52 458.785L1326.5 459.078C1326.49 459.175 1326.47 459.232 1326.42 459.345C1326.39 459.432 1326.35 459.513 1326.29 459.586L1326.11 459.801C1326.04 459.873 1325.98 459.945 1325.9 459.975C1325.8 460.062 1325.72 460.093 1325.65 460.123C1325.53 460.169 1325.43 460.159 1325.36 460.19C1325.26 460.178 1325.18 460.209 1325.09 460.199C1325 460.188 1324.9 460.178 1324.81 460.168C1324.71 460.157 1324.66 460.132 1324.55 460.08C1324.46 460.044 1324.38 459.995 1324.31 459.935L1324.1 459.735C1324.03 459.667 1323.95 459.601 1323.92 459.518C1323.83 459.411 1323.82 459.369 1323.77 459.246C1323.72 459.123 1323.73 459.025 1323.7 458.942C1323.66 458.86 1323.67 458.763 1323.68 458.665L1323.7 458.373C1323.71 458.275 1323.73 458.219 1323.77 458.106C1323.8 458.049 1323.84 457.937 1323.9 457.865L1324.09 457.649C1324.15 457.578 1324.21 457.506 1324.29 457.475C1324.43 457.373 1324.63 457.296 1324.8 457.276C1324.89 457.287 1324.97 457.257 1325.07 457.267L1325.35 457.298C1325.44 457.309 1325.5 457.335 1325.61 457.386C1325.66 457.412 1325.77 457.464 1325.84 457.531L1326.06 457.731ZM1339.33 452.526C1339.4 452.592 1339.44 452.674 1339.55 452.726C1339.63 452.834 1339.65 452.876 1339.7 452.999C1339.75 453.123 1339.74 453.22 1339.77 453.302C1339.76 453.4 1339.8 453.482 1339.79 453.579C1339.78 453.677 1339.78 453.775 1339.77 453.872C1339.76 453.97 1339.74 454.027 1339.69 454.139C1339.66 454.227 1339.62 454.308 1339.56 454.38L1339.38 454.595C1339.32 454.667 1339.25 454.739 1339.18 454.77C1339.07 454.857 1339 454.887 1338.92 454.918C1338.8 454.964 1338.71 454.953 1338.63 454.984C1338.53 454.973 1338.46 455.003 1338.36 454.994L1338.08 454.962C1337.99 454.951 1337.93 454.926 1337.82 454.874C1337.73 454.838 1337.66 454.79 1337.58 454.73L1337.37 454.529C1337.3 454.462 1337.23 454.395 1337.19 454.313C1337.11 454.205 1337.09 454.164 1337.04 454.041C1336.99 453.917 1337 453.819 1336.97 453.737C1336.98 453.639 1336.94 453.557 1336.95 453.46L1336.97 453.167C1336.98 453.07 1337 453.013 1337.05 452.901C1337.08 452.813 1337.12 452.732 1337.18 452.659L1337.36 452.444C1337.42 452.372 1337.49 452.3 1337.56 452.27C1337.7 452.167 1337.9 452.091 1338.07 452.071C1338.17 452.082 1338.24 452.051 1338.34 452.061L1338.62 452.092C1338.72 452.104 1338.77 452.129 1338.88 452.181C1338.94 452.207 1339.05 452.258 1339.12 452.325L1339.33 452.526ZM1365.03 441.46C1365.39 441.322 1365.78 441.337 1366.13 441.5C1366.48 441.664 1366.76 441.963 1366.91 442.333C1367.05 442.702 1367.05 443.112 1366.91 443.47C1366.76 443.829 1366.48 444.108 1366.13 444.246C1365.78 444.384 1365.38 444.37 1365.03 444.206C1364.68 444.043 1364.4 443.743 1364.25 443.374C1364.11 443.005 1364.11 442.595 1364.26 442.236C1364.4 441.878 1364.68 441.598 1365.03 441.46ZM1351.76 446.666C1352.11 446.528 1352.51 446.542 1352.86 446.706C1353.21 446.87 1353.49 447.169 1353.64 447.538C1353.78 447.908 1353.78 448.317 1353.63 448.676C1353.49 449.035 1353.21 449.314 1352.85 449.452C1352.5 449.59 1352.11 449.576 1351.76 449.412C1351.41 449.248 1351.13 448.949 1350.98 448.58C1350.84 448.21 1350.84 447.801 1350.98 447.442C1351.13 447.083 1351.41 446.804 1351.76 446.666ZM1305.15 448.873C1305.51 448.735 1305.9 448.749 1306.25 448.913C1306.6 449.077 1306.88 449.376 1307.03 449.746C1307.17 450.115 1307.17 450.524 1307.02 450.883C1306.88 451.242 1306.6 451.521 1306.25 451.659C1305.89 451.797 1305.5 451.783 1305.15 451.619C1304.8 451.456 1304.52 451.156 1304.37 450.787C1304.23 450.417 1304.23 450.008 1304.38 449.649C1304.52 449.29 1304.8 449.011 1305.15 448.873ZM1320.6 443.801C1320.67 443.868 1320.7 443.95 1320.81 444.002C1320.9 444.11 1320.93 444.193 1320.96 444.275C1321.01 444.398 1321 444.496 1321.04 444.578C1321.03 444.675 1321.06 444.758 1321.05 444.855L1321.03 445.148C1321.03 445.245 1321 445.302 1320.96 445.415C1320.93 445.502 1320.88 445.583 1320.83 445.656L1320.64 445.871C1320.58 445.943 1320.52 446.015 1320.44 446.045C1320.34 446.132 1320.26 446.163 1320.18 446.193C1320.07 446.239 1319.97 446.229 1319.89 446.259C1319.8 446.248 1319.72 446.279 1319.63 446.269C1319.53 446.258 1319.44 446.248 1319.34 446.238C1319.25 446.226 1319.19 446.201 1319.08 446.15C1319 446.114 1318.92 446.065 1318.85 446.005L1318.63 445.804C1318.56 445.737 1318.49 445.67 1318.46 445.588C1318.37 445.48 1318.34 445.397 1318.31 445.316C1318.26 445.192 1318.27 445.094 1318.23 445.012C1318.2 444.93 1318.21 444.833 1318.21 444.735L1318.23 444.443C1318.24 444.345 1318.26 444.289 1318.31 444.176C1318.33 444.119 1318.38 444.007 1318.44 443.934L1318.63 443.719C1318.69 443.647 1318.75 443.576 1318.83 443.545C1318.97 443.443 1319.16 443.366 1319.34 443.346C1319.43 443.357 1319.51 443.327 1319.6 443.336L1319.89 443.368C1319.98 443.379 1320.03 443.405 1320.14 443.456C1320.2 443.482 1320.31 443.534 1320.38 443.601L1320.6 443.801ZM1333.87 438.596C1333.94 438.662 1333.97 438.744 1334.08 438.796C1334.17 438.904 1334.2 438.987 1334.23 439.069C1334.28 439.193 1334.28 439.29 1334.31 439.372C1334.3 439.47 1334.33 439.552 1334.33 439.649C1334.32 439.747 1334.31 439.844 1334.31 439.942C1334.3 440.04 1334.28 440.096 1334.23 440.209C1334.2 440.296 1334.16 440.378 1334.1 440.45L1333.91 440.665C1333.85 440.737 1333.79 440.809 1333.71 440.839C1333.61 440.927 1333.53 440.957 1333.46 440.988C1333.34 441.034 1333.24 441.023 1333.17 441.054C1333.07 441.043 1332.99 441.073 1332.9 441.064L1332.62 441.032C1332.52 441.021 1332.47 440.996 1332.36 440.944C1332.27 440.908 1332.19 440.859 1332.12 440.8L1331.91 440.599C1331.84 440.532 1331.76 440.465 1331.73 440.383C1331.64 440.275 1331.61 440.192 1331.58 440.11C1331.53 439.986 1331.54 439.889 1331.5 439.807C1331.51 439.709 1331.48 439.627 1331.49 439.53L1331.51 439.237C1331.51 439.14 1331.54 439.083 1331.58 438.97C1331.61 438.883 1331.66 438.802 1331.71 438.729L1331.9 438.514C1331.96 438.442 1332.02 438.37 1332.1 438.34C1332.24 438.237 1332.44 438.161 1332.61 438.14C1332.7 438.152 1332.78 438.121 1332.88 438.131C1332.97 438.142 1333.06 438.152 1333.16 438.162C1333.25 438.174 1333.31 438.199 1333.42 438.251C1333.47 438.276 1333.58 438.328 1333.65 438.395L1333.87 438.596ZM1346.3 432.736C1346.65 432.598 1347.05 432.612 1347.4 432.776C1347.75 432.939 1348.03 433.239 1348.17 433.608C1348.32 433.978 1348.32 434.387 1348.17 434.746C1348.02 435.105 1347.74 435.384 1347.39 435.522C1347.04 435.66 1346.64 435.646 1346.29 435.482C1345.94 435.318 1345.66 435.019 1345.52 434.649C1345.37 434.28 1345.37 433.871 1345.52 433.512C1345.67 433.153 1345.95 432.874 1346.3 432.736ZM1347.5 556.832C1347.85 556.694 1348.24 556.708 1348.59 556.872C1348.95 557.035 1349.22 557.335 1349.37 557.704C1349.51 558.073 1349.51 558.483 1349.37 558.842C1349.22 559.2 1348.94 559.48 1348.59 559.618C1348.24 559.756 1347.84 559.741 1347.49 559.578C1347.14 559.414 1346.86 559.114 1346.71 558.745C1346.57 558.376 1346.57 557.967 1346.72 557.608C1346.86 557.249 1347.14 556.97 1347.5 556.832ZM1334.22 562.037C1334.57 561.899 1334.97 561.914 1335.32 562.077C1335.67 562.241 1335.95 562.541 1336.1 562.91C1336.24 563.279 1336.24 563.688 1336.09 564.047C1335.95 564.406 1335.67 564.685 1335.32 564.823C1334.96 564.961 1334.57 564.947 1334.22 564.783C1333.87 564.62 1333.59 564.32 1333.44 563.951C1333.3 563.582 1333.3 563.172 1333.44 562.814C1333.59 562.455 1333.87 562.175 1334.22 562.037ZM1362.94 551.76C1363.01 551.827 1363.04 551.909 1363.15 551.961C1363.24 552.068 1363.25 552.11 1363.3 552.233C1363.35 552.357 1363.34 552.454 1363.38 552.536C1363.37 552.634 1363.4 552.716 1363.4 552.814L1363.38 553.106C1363.37 553.204 1363.35 553.261 1363.3 553.373C1363.28 553.431 1363.23 553.543 1363.17 553.614L1362.98 553.829C1362.92 553.902 1362.86 553.974 1362.78 554.004C1362.68 554.091 1362.6 554.121 1362.52 554.152C1362.41 554.198 1362.31 554.188 1362.24 554.219C1362.14 554.207 1362.06 554.238 1361.97 554.227L1361.69 554.196C1361.59 554.186 1361.54 554.16 1361.43 554.108C1361.34 554.073 1361.26 554.024 1361.19 553.963L1360.98 553.764C1360.9 553.696 1360.83 553.629 1360.8 553.547C1360.71 553.439 1360.7 553.398 1360.65 553.275C1360.6 553.151 1360.61 553.054 1360.58 552.972C1360.54 552.889 1360.55 552.791 1360.56 552.695L1360.58 552.401C1360.58 552.304 1360.61 552.247 1360.65 552.135C1360.68 552.078 1360.72 551.965 1360.78 551.894L1360.97 551.678C1361.03 551.607 1361.09 551.535 1361.17 551.504C1361.31 551.401 1361.51 551.325 1361.68 551.305C1361.77 551.316 1361.85 551.285 1361.94 551.295L1362.23 551.327C1362.32 551.338 1362.38 551.363 1362.49 551.415C1362.54 551.441 1362.65 551.492 1362.72 551.559C1362.8 551.626 1362.87 551.693 1362.94 551.76ZM1376.21 546.555C1376.28 546.621 1376.31 546.703 1376.42 546.755C1376.51 546.863 1376.53 546.905 1376.58 547.028C1376.62 547.151 1376.62 547.248 1376.65 547.331C1376.64 547.428 1376.67 547.511 1376.67 547.609C1376.66 547.706 1376.66 547.804 1376.65 547.9C1376.64 547.998 1376.62 548.055 1376.57 548.168C1376.55 548.225 1376.5 548.337 1376.44 548.409L1376.26 548.624C1376.19 548.696 1376.13 548.768 1376.05 548.799C1375.95 548.885 1375.87 548.916 1375.8 548.946C1375.68 548.992 1375.59 548.982 1375.51 549.013C1375.41 549.002 1375.34 549.033 1375.24 549.021L1374.96 548.991C1374.86 548.98 1374.81 548.954 1374.7 548.903C1374.61 548.867 1374.53 548.818 1374.46 548.758L1374.25 548.558C1374.18 548.49 1374.1 548.424 1374.07 548.342C1373.99 548.233 1373.97 548.192 1373.92 548.069C1373.87 547.946 1373.88 547.848 1373.85 547.766C1373.85 547.668 1373.82 547.586 1373.83 547.489L1373.85 547.196C1373.86 547.098 1373.88 547.042 1373.92 546.929C1373.95 546.873 1373.99 546.76 1374.06 546.688L1374.24 546.472C1374.3 546.401 1374.37 546.329 1374.44 546.299C1374.58 546.196 1374.78 546.119 1374.95 546.1C1375.05 546.11 1375.12 546.08 1375.22 546.089L1375.5 546.121C1375.59 546.132 1375.65 546.157 1375.76 546.209C1375.82 546.236 1375.93 546.287 1376 546.354C1376.07 546.42 1376.14 546.487 1376.21 546.555ZM1401.91 535.489C1402.26 535.351 1402.66 535.365 1403.01 535.529C1403.36 535.693 1403.64 535.992 1403.79 536.361C1403.93 536.73 1403.93 537.14 1403.78 537.499C1403.64 537.857 1403.36 538.137 1403.01 538.275C1402.65 538.413 1402.26 538.398 1401.91 538.235C1401.56 538.071 1401.28 537.772 1401.13 537.402C1400.99 537.033 1400.99 536.624 1401.13 536.265C1401.28 535.906 1401.56 535.627 1401.91 535.489ZM1388.64 540.694C1388.99 540.556 1389.39 540.571 1389.74 540.735C1390.09 540.898 1390.37 541.198 1390.51 541.567C1390.66 541.936 1390.66 542.345 1390.51 542.704C1390.37 543.063 1390.08 543.342 1389.73 543.48C1389.38 543.618 1388.99 543.604 1388.63 543.44C1388.28 543.277 1388 542.977 1387.86 542.608C1387.71 542.239 1387.72 541.829 1387.86 541.471C1388.01 541.112 1388.29 540.832 1388.64 540.694Z" fill="#57586E"/>
</g>
<path opacity="0.102" d="M1107.5 29C1272.36 29 1406 162.643 1406 327.5C1406 492.357 1272.36 626 1107.5 626C942.643 626 809 492.357 809 327.5C809 162.643 942.643 29 1107.5 29Z" fill="#7965EF"/>
<path opacity="0.102" d="M1508 87.998L1406 146.996V29L1508 87.998Z" fill="#FFCF70"/>
<path d="M1501.5 41C1503.43 41 1505 42.567 1505 44.5C1505 46.433 1503.43 48 1501.5 48C1499.57 48 1498 46.433 1498 44.5C1498 42.567 1499.57 41 1501.5 41Z" fill="#F2D53B"/>
<path d="M1296.5 354C1300.09 354 1303 356.91 1303 360.5C1303 364.089 1300.09 366.999 1296.5 366.999C1292.91 366.999 1290 364.089 1290 360.5C1290 356.91 1292.91 354 1296.5 354Z" fill="#241E6F"/>
<path d="M1465.5 176C1470.19 176 1474 179.805 1474 184.5C1474 189.194 1470.19 193 1465.5 193C1460.81 193 1457 189.194 1457 184.5C1457 179.805 1460.81 176 1465.5 176Z" fill="#5CC9A7"/>
<defs>
<clipPath id="clip0">
<rect width="134.015" height="133.921" fill="white" transform="translate(1263.34 465.271) rotate(-21.4154)"/>
</clipPath>
</defs>
</svg>
