<svg width="708" height="517" viewBox="0 0 708 517" fill="none" xmlns="http://www.w3.org/2000/svg">
<g clip-path="url(#clip0)">
<g filter="url(#filter0_dd)">
<path d="M658.908 30.5H72.4356C62.2539 30.5 54 38.7539 54 48.9356V459.466C54 469.648 62.2539 477.902 72.4356 477.902H658.908C669.09 477.902 677.344 469.648 677.344 459.466V48.9356C677.344 38.7539 669.09 30.5 658.908 30.5Z" fill="white" fill-opacity="0.01"/>
</g>
<path d="M658.908 30.5H72.4356C62.2539 30.5 54 38.7539 54 48.9356V459.466C54 469.648 62.2539 477.902 72.4356 477.902H658.908C669.09 477.902 677.344 469.648 677.344 459.466V48.9356C677.344 38.7539 669.09 30.5 658.908 30.5Z" fill="white"/>
<path d="M641.885 137.268H289.001C280.856 137.268 274.253 143.871 274.253 152.016V426.1C274.253 434.246 280.856 440.849 289.001 440.849H641.885C650.03 440.849 656.633 434.246 656.633 426.1V152.016C656.633 143.871 650.03 137.268 641.885 137.268Z" fill="#F3F6FC"/>
<path d="M244.586 137.268H93.6457C85.5003 137.268 78.8972 143.871 78.8972 152.016V266.318C78.8972 274.463 85.5003 281.066 93.6457 281.066H244.586C252.731 281.066 259.334 274.463 259.334 266.318V152.016C259.334 143.871 252.731 137.268 244.586 137.268Z" fill="#F3F6FC"/>
<path d="M244.586 297.052H93.6457C85.5003 297.052 78.8972 303.655 78.8972 311.801V426.102C78.8972 434.247 85.5003 440.85 93.6457 440.85H244.586C252.731 440.85 259.334 434.247 259.334 426.102V311.801C259.334 303.655 252.731 297.052 244.586 297.052Z" fill="#F3F6FC"/>
<path d="M88.0473 70.6522C93.1006 70.6522 97.1971 66.5557 97.1971 61.5024C97.1971 56.4491 93.1006 52.3526 88.0473 52.3526C82.994 52.3526 78.8975 56.4491 78.8975 61.5024C78.8975 66.5557 82.994 70.6522 88.0473 70.6522Z" fill="#F8334A"/>
<path d="M115.196 70.6522C120.249 70.6522 124.346 66.5557 124.346 61.5024C124.346 56.4491 120.249 52.3526 115.196 52.3526C110.143 52.3526 106.046 56.4491 106.046 61.5024C106.046 66.5557 110.143 70.6522 115.196 70.6522Z" fill="#F7C31D"/>
<path d="M142.343 70.6514C147.396 70.6514 151.493 66.5549 151.493 61.5016C151.493 56.4483 147.396 52.3518 142.343 52.3518C137.29 52.3518 133.193 56.4483 133.193 61.5016C133.193 66.5549 137.29 70.6514 142.343 70.6514Z" fill="#38D535"/>
<path d="M460.938 89.8137H94.932C86.0764 89.8137 78.8975 96.9926 78.8975 105.848V105.848C78.8975 114.704 86.0764 121.883 94.932 121.883H460.938C469.794 121.883 476.973 114.704 476.973 105.848C476.973 96.9926 469.794 89.8137 460.938 89.8137Z" fill="#F3F6FC"/>
<path d="M593.979 89.812H508.339C499.483 89.812 492.304 96.9909 492.304 105.846V105.847C492.304 114.702 499.483 121.881 508.339 121.881H593.979C602.835 121.881 610.014 114.702 610.014 105.847V105.846C610.014 96.9909 602.835 89.812 593.979 89.812Z" fill="#F3F6FC"/>
<path d="M646.894 89.812H634.719C629.34 89.812 624.979 94.1727 624.979 99.5518V112.142C624.979 117.521 629.34 121.882 634.719 121.882H646.894C652.273 121.882 656.634 117.521 656.634 112.142V99.5518C656.634 94.1727 652.273 89.812 646.894 89.812Z" fill="#F3F6FC"/>
<path d="M201.999 102.826H97.9828C96.3144 102.826 94.9619 104.179 94.9619 105.847C94.9619 107.515 96.3144 108.868 97.9828 108.868H201.999C203.667 108.868 205.02 107.515 205.02 105.847C205.02 104.179 203.667 102.826 201.999 102.826Z" fill="#C0C9E2"/>
<path d="M256.314 102.826H215.968C214.3 102.826 212.947 104.179 212.947 105.847C212.947 107.515 214.3 108.868 215.968 108.868H256.314C257.982 108.868 259.335 107.515 259.335 105.847C259.335 104.179 257.982 102.826 256.314 102.826Z" fill="#C0C9E2"/>
<path d="M544.018 102.826H509.124C507.456 102.826 506.103 104.179 506.103 105.847C506.103 107.515 507.456 108.868 509.124 108.868H544.018C545.686 108.868 547.039 107.515 547.039 105.847C547.039 104.179 545.686 102.826 544.018 102.826Z" fill="#C0C9E2"/>
<path d="M459.3 102.826H446.735C445.067 102.826 443.714 104.179 443.714 105.847C443.714 107.515 445.067 108.868 446.735 108.868H459.3C460.968 108.868 462.321 107.515 462.321 105.847C462.321 104.179 460.968 102.826 459.3 102.826Z" fill="#C0C9E2"/>
<path d="M592.067 102.826H579.502C577.834 102.826 576.481 104.179 576.481 105.847C576.481 107.515 577.834 108.868 579.502 108.868H592.067C593.735 108.868 595.088 107.515 595.088 105.847C595.088 104.179 593.735 102.826 592.067 102.826Z" fill="#C0C9E2"/>
<path d="M639.757 109.441C640.337 110.021 641.276 110.021 641.856 109.441L646.832 104.464C647.437 103.859 647.437 102.877 646.832 102.272C646.227 101.667 645.246 101.667 644.641 102.272L640.806 106.107L636.972 102.272C636.367 101.667 635.385 101.667 634.78 102.272C634.175 102.877 634.175 103.859 634.78 104.464L639.757 109.441Z" fill="#C0C9E2" stroke="#C0C9E2" stroke-width="0.811653"/>
<path d="M623.78 212.454H307.106C303.38 212.454 300.36 215.474 300.36 219.2V219.2C300.36 222.926 303.38 225.947 307.106 225.947H623.78C627.506 225.947 630.526 222.926 630.526 219.2C630.526 215.474 627.506 212.454 623.78 212.454Z" fill="#D3DEF5"/>
<path d="M300.36 219.2C300.36 215.474 303.38 212.454 307.106 212.454H452.918V225.946H307.106C303.38 225.946 300.36 222.926 300.36 219.2Z" fill="#2253FF"/>
<path d="M526.313 212.453H446.247V225.946H526.313V212.453Z" fill="#F13D6F"/>
<path d="M581.693 212.453H526.313V225.946H581.693V212.453Z" fill="#693CF3"/>
<path d="M317.287 264.451H305.272C302.618 264.451 300.467 266.602 300.467 269.257V281.271C300.467 283.925 302.618 286.076 305.272 286.076H317.287C319.941 286.076 322.092 283.925 322.092 281.271V269.257C322.092 266.602 319.941 264.451 317.287 264.451Z" fill="#2253FF"/>
<path d="M317.287 304.444H305.272C302.618 304.444 300.467 306.596 300.467 309.25V321.264C300.467 323.918 302.618 326.069 305.272 326.069H317.287C319.941 326.069 322.092 323.918 322.092 321.264V309.25C322.092 306.596 319.941 304.444 317.287 304.444Z" fill="#F13D6F"/>
<path d="M317.287 344.436H305.272C302.618 344.436 300.467 346.587 300.467 349.241V361.256C300.467 363.91 302.618 366.061 305.272 366.061H317.287C319.941 366.061 322.092 363.91 322.092 361.256V349.241C322.092 346.587 319.941 344.436 317.287 344.436Z" fill="#693CF3"/>
<path d="M317.287 384.429H305.272C302.618 384.429 300.467 386.58 300.467 389.234V401.249C300.467 403.903 302.618 406.054 305.272 406.054H317.287C319.941 406.054 322.092 403.903 322.092 401.249V389.234C322.092 386.58 319.941 384.429 317.287 384.429Z" fill="#D3DEF5"/>
<path d="M441.293 270.033H342.261C339.525 270.033 337.307 272.251 337.307 274.987C337.307 277.724 339.525 279.942 342.261 279.942H441.293C444.029 279.942 446.247 277.724 446.247 274.987C446.247 272.251 444.029 270.033 441.293 270.033Z" fill="#96A4CA"/>
<path d="M441.293 310.302H342.261C339.525 310.302 337.307 312.52 337.307 315.256C337.307 317.993 339.525 320.211 342.261 320.211H441.293C444.029 320.211 446.247 317.993 446.247 315.256C446.247 312.52 444.029 310.302 441.293 310.302Z" fill="#96A4CA"/>
<path d="M441.293 350.294H342.261C339.525 350.294 337.307 352.512 337.307 355.248C337.307 357.985 339.525 360.203 342.261 360.203H441.293C444.029 360.203 446.247 357.985 446.247 355.248C446.247 352.512 444.029 350.294 441.293 350.294Z" fill="#96A4CA"/>
<path d="M441.293 390.287H342.261C339.525 390.287 337.307 392.505 337.307 395.241C337.307 397.978 339.525 400.196 342.261 400.196H441.293C444.029 400.196 446.247 397.978 446.247 395.241C446.247 392.505 444.029 390.287 441.293 390.287Z" fill="#96A4CA"/>
<path d="M536.928 270.033H474.289C471.553 270.033 469.335 272.251 469.335 274.987C469.335 277.724 471.553 279.942 474.289 279.942H536.928C539.664 279.942 541.882 277.724 541.882 274.987C541.882 272.251 539.664 270.033 536.928 270.033Z" fill="#C0C9E2"/>
<path d="M536.928 310.302H474.289C471.553 310.302 469.335 312.52 469.335 315.256C469.335 317.993 471.553 320.211 474.289 320.211H536.928C539.664 320.211 541.882 317.993 541.882 315.256C541.882 312.52 539.664 310.302 536.928 310.302Z" fill="#C0C9E2"/>
<path d="M536.928 350.294H474.289C471.553 350.294 469.335 352.512 469.335 355.248C469.335 357.985 471.553 360.203 474.289 360.203H536.928C539.664 360.203 541.882 357.985 541.882 355.248C541.882 352.512 539.664 350.294 536.928 350.294Z" fill="#C0C9E2"/>
<path d="M536.928 390.287H474.289C471.553 390.287 469.335 392.505 469.335 395.241C469.335 397.978 471.553 400.196 474.289 400.196H536.928C539.664 400.196 541.882 397.978 541.882 395.241C541.882 392.505 539.664 390.287 536.928 390.287Z" fill="#C0C9E2"/>
<path d="M625.573 270.033H602.357C599.621 270.033 597.403 272.251 597.403 274.987C597.403 277.724 599.621 279.942 602.357 279.942H625.573C628.309 279.942 630.528 277.724 630.528 274.987C630.528 272.251 628.309 270.033 625.573 270.033Z" fill="#C0C9E2"/>
<path d="M625.573 310.302H602.357C599.621 310.302 597.403 312.52 597.403 315.257C597.403 317.993 599.621 320.211 602.357 320.211H625.573C628.309 320.211 630.528 317.993 630.528 315.257C630.528 312.52 628.309 310.302 625.573 310.302Z" fill="#C0C9E2"/>
<path d="M625.573 350.294H602.357C599.621 350.294 597.403 352.512 597.403 355.249C597.403 357.985 599.621 360.203 602.357 360.203H625.573C628.309 360.203 630.528 357.985 630.528 355.249C630.528 352.512 628.309 350.294 625.573 350.294Z" fill="#C0C9E2"/>
<path d="M625.573 390.287H602.357C599.621 390.287 597.403 392.505 597.403 395.241C597.403 397.978 599.621 400.196 602.357 400.196H625.573C628.309 400.196 630.528 397.978 630.528 395.241C630.528 392.505 628.309 390.287 625.573 390.287Z" fill="#C0C9E2"/>
<path d="M367.052 172.064H310.679C305.039 172.064 300.467 176.636 300.467 182.276C300.467 187.915 305.039 192.487 310.679 192.487H367.052C372.692 192.487 377.264 187.915 377.264 182.276C377.264 176.636 372.692 172.064 367.052 172.064Z" fill="#D4DDF0"/>
<path d="M478.757 183.544H394.884C392.415 183.544 390.413 185.546 390.413 188.015C390.413 190.485 392.415 192.487 394.884 192.487H478.757C481.227 192.487 483.229 190.485 483.229 188.015C483.229 185.546 481.227 183.544 478.757 183.544Z" fill="#C0C9E2"/>
<path fill-rule="evenodd" clip-rule="evenodd" d="M168.449 209.051V158.902C141.039 159.237 118.922 181.561 118.922 209.051C118.922 234.642 138.091 255.757 162.853 258.82L169.075 209.051H168.449Z" fill="#2253FF"/>
<path fill-rule="evenodd" clip-rule="evenodd" d="M217.809 196.823L168.31 209.399V158.905C168.52 158.902 168.729 158.901 168.939 158.901C192.474 158.901 212.244 175.022 217.809 196.823Z" fill="#693CF3"/>
<path fill-rule="evenodd" clip-rule="evenodd" d="M219.309 209.017C219.309 236.861 196.737 259.433 168.892 259.433C166.774 259.433 164.687 259.303 162.637 259.049L168.503 209.188L217.816 196.79C218.791 200.705 219.309 204.8 219.309 209.017Z" fill="#F13D6F"/>
<path d="M109.54 439.94V339.979C109.54 333.87 114.492 328.918 120.601 328.918H131.738C137.847 328.918 142.799 333.87 142.799 339.979V439.94H109.54Z" fill="#2253FF"/>
<path d="M152.486 439.94V392.003C152.486 385.894 157.438 380.941 163.547 380.941H174.685C180.794 380.941 185.746 385.894 185.746 392.003V439.94H152.486Z" fill="#693CF3"/>
<path d="M195.432 439.94V374.559C195.432 368.45 200.384 363.497 206.493 363.497H217.63C223.739 363.497 228.691 368.45 228.691 374.559V439.94H195.432Z" fill="#F13D6F"/>
</g>
<defs>
<filter id="filter0_dd" x="0" y="0.5" width="707.197" height="515.402" filterUnits="userSpaceOnUse" color-interpolation-filters="sRGB">
<feFlood flood-opacity="0" result="BackgroundImageFix"/>
<feColorMatrix in="SourceAlpha" type="matrix" values="0 0 0 0 0 0 0 0 0 0 0 0 0 0 0 0 0 0 127 0"/>
<feOffset dy="4.77647"/>
<feGaussianBlur stdDeviation="14.9265"/>
<feColorMatrix type="matrix" values="0 0 0 0 0.133333 0 0 0 0 0.32549 0 0 0 0 1 0 0 0 0.1 0"/>
<feBlend mode="normal" in2="BackgroundImageFix" result="effect1_dropShadow"/>
<feColorMatrix in="SourceAlpha" type="matrix" values="0 0 0 0 0 0 0 0 0 0 0 0 0 0 0 0 0 0 127 0"/>
<feOffset dx="-20" dy="4"/>
<feGaussianBlur stdDeviation="17"/>
<feColorMatrix type="matrix" values="0 0 0 0 0.0346875 0 0 0 0 0.0765563 0 0 0 0 0.225 0 0 0 0.17 0"/>
<feBlend mode="normal" in2="effect1_dropShadow" result="effect2_dropShadow"/>
<feBlend mode="normal" in="SourceGraphic" in2="effect2_dropShadow" result="shape"/>
</filter>
<clipPath id="clip0">
<rect width="708" height="516" fill="white" transform="translate(0 0.5)"/>
</clipPath>
</defs>
</svg>
