<svg width="1508" height="655" viewBox="0 0 1508 655" fill="none" xmlns="http://www.w3.org/2000/svg">
<g clip-path="url(#clip0)">
<path d="M72.4433 448.491C72.514 448.558 72.5463 448.64 72.6177 448.707C72.7052 448.815 72.7377 448.898 72.7699 448.98C72.8183 449.104 72.8113 449.201 72.8436 449.283C72.8367 449.381 72.8689 449.463 72.8626 449.56L72.8419 449.853C72.835 449.951 72.8122 450.008 72.7668 450.12C72.7351 450.207 72.6911 450.288 72.6361 450.361L72.4502 450.576C72.388 450.648 72.3259 450.72 72.2482 450.75C72.1469 450.838 72.1077 450.853 71.9909 450.899C71.8741 450.945 71.7797 450.934 71.7014 450.965C71.6073 450.954 71.529 450.984 71.4349 450.975C71.3408 450.963 71.2467 450.954 71.1523 450.943C71.0424 450.891 70.948 450.881 70.8927 450.855C70.8077 450.819 70.7279 450.77 70.6559 450.71L70.4417 450.51C70.371 450.443 70.2996 450.376 70.2674 450.294C70.1799 450.186 70.1474 450.103 70.1154 450.021C70.067 449.898 70.0737 449.8 70.0414 449.718C70.0092 449.636 70.0161 449.538 70.0615 449.425L70.0823 449.133C70.0892 449.035 70.1116 448.979 70.1577 448.866C70.1804 448.809 70.2268 448.697 70.288 448.624L70.4739 448.409C70.5361 448.338 70.5977 448.266 70.676 448.235C70.8158 448.133 71.0116 448.056 71.1837 448.036C71.2777 448.047 71.356 448.017 71.4501 448.026C71.5442 448.038 71.6383 448.047 71.7328 448.058C71.8268 448.069 71.8821 448.095 71.9926 448.146C72.0479 448.172 72.1578 448.224 72.2291 448.291L72.4433 448.491ZM77.867 462.437C77.939 462.504 77.9713 462.586 78.0811 462.637C78.1686 462.745 78.2011 462.828 78.2334 462.91C78.2817 463.034 78.2748 463.131 78.307 463.213C78.3001 463.311 78.3324 463.393 78.3261 463.49L78.3053 463.783C78.2984 463.881 78.2757 463.938 78.2303 464.05C78.1986 464.137 78.1546 464.219 78.0996 464.291L77.9137 464.507C77.8515 464.578 77.7893 464.65 77.7117 464.681C77.6103 464.768 77.5712 464.783 77.4544 464.829C77.3376 464.875 77.2432 464.864 77.1648 464.895C77.0708 464.884 76.9925 464.914 76.8983 464.905C76.8043 464.893 76.7102 464.884 76.6157 464.873C76.5217 464.862 76.4667 464.837 76.3562 464.785C76.2711 464.749 76.1913 464.7 76.1193 464.64L75.9052 464.44C75.8345 464.373 75.7631 464.306 75.7308 464.224C75.6433 464.116 75.6108 464.033 75.5789 463.952C75.5302 463.828 75.5372 463.73 75.5049 463.648C75.5118 463.55 75.4796 463.468 75.4859 463.371L75.5066 463.078C75.5135 462.981 75.5366 462.924 75.582 462.812C75.6054 462.754 75.6511 462.642 75.7124 462.57L75.8983 462.355C75.9605 462.283 76.0226 462.211 76.1003 462.181C76.2408 462.078 76.4359 462.002 76.608 461.982C76.7027 461.993 76.7803 461.962 76.8745 461.972L77.1571 462.003C77.2511 462.015 77.3064 462.04 77.4169 462.092C77.4722 462.118 77.5821 462.169 77.6535 462.236L77.8676 462.437L77.867 462.437ZM83.3311 476.367C83.4025 476.434 83.4347 476.516 83.5446 476.568C83.6321 476.676 83.6646 476.758 83.6968 476.841C83.7452 476.964 83.7383 477.061 83.7705 477.144C83.7636 477.241 83.7958 477.323 83.7896 477.421L83.7688 477.713C83.7619 477.811 83.7391 477.868 83.6937 477.981C83.6622 478.068 83.618 478.149 83.5631 478.221L83.3772 478.437C83.315 478.508 83.2528 478.58 83.1751 478.611C83.0738 478.698 83.0346 478.713 82.9178 478.759C82.801 478.805 82.7066 478.794 82.6283 478.825C82.5343 478.814 82.456 478.845 82.3618 478.835C82.2678 478.824 82.1736 478.814 82.0792 478.803C81.9852 478.792 81.9302 478.767 81.8196 478.716C81.7345 478.679 81.6549 478.631 81.5828 478.571L81.3687 478.37C81.2979 478.303 81.2265 478.236 81.1943 478.154C81.1068 478.046 81.0743 477.963 81.0423 477.882C80.9937 477.758 81.0006 477.66 80.9684 477.578C80.9753 477.48 80.9431 477.398 80.9493 477.301L80.9701 477.008C80.977 476.911 81 476.854 81.0455 476.742C81.0689 476.684 81.1146 476.572 81.1758 476.5L81.3617 476.285C81.4239 476.213 81.4861 476.141 81.5638 476.111C81.7043 476.008 81.8994 475.932 82.0714 475.912C82.1661 475.923 82.2438 475.892 82.3379 475.902L82.6205 475.933C82.7146 475.945 82.7698 475.971 82.8804 476.022C82.9357 476.048 83.0455 476.1 83.1169 476.166L83.3311 476.367ZM88.5214 489.6C88.5928 489.667 88.6414 489.791 88.7352 489.802C88.8224 489.909 88.8549 489.992 88.8871 490.074C88.9355 490.198 88.9286 490.295 88.9608 490.377C88.9539 490.475 88.9861 490.557 88.9801 490.655L88.9591 490.947C88.9522 491.044 88.9294 491.102 88.884 491.214C88.8606 491.272 88.8149 491.384 88.7534 491.455L88.5675 491.67C88.5056 491.743 88.4434 491.815 88.3657 491.845C88.2641 491.932 88.2249 491.947 88.1081 491.993C87.9913 492.038 87.8972 492.029 87.8189 492.06C87.7248 492.048 87.6465 492.079 87.5518 492.068L87.2695 492.037C87.1757 492.026 87.1205 492.001 87.0099 491.949C86.925 491.913 86.8451 491.864 86.7731 491.804L86.5592 491.604C86.4882 491.537 86.4168 491.47 86.3846 491.388C86.2974 491.28 86.2649 491.198 86.2326 491.115C86.1843 490.992 86.1912 490.895 86.159 490.812C86.1656 490.714 86.1334 490.632 86.1399 490.535L86.1604 490.242C86.1673 490.144 86.1903 490.088 86.2358 489.975C86.2595 489.919 86.3049 489.806 86.3664 489.734L86.552 489.519C86.6145 489.447 86.6767 489.376 86.7543 489.345C86.8946 489.242 87.0897 489.165 87.262 489.146C87.3564 489.156 87.4341 489.126 87.5282 489.136L87.8111 489.168C87.9049 489.178 87.9599 489.203 88.0707 489.256C88.1262 489.282 88.2358 489.333 88.3072 489.4C88.3793 489.467 88.45 489.534 88.5217 489.601L88.5214 489.6ZM192.512 402.633C192.48 402.551 192.408 402.485 192.375 402.402C192.288 402.294 192.256 402.212 192.223 402.13C192.175 402.007 192.182 401.908 192.15 401.826C192.118 401.744 192.125 401.646 192.133 401.548C192.139 401.451 192.148 401.353 192.154 401.255C192.162 401.158 192.186 401.101 192.232 400.988C192.256 400.93 192.304 400.818 192.366 400.745L192.555 400.529C192.618 400.456 192.682 400.384 192.761 400.353C192.903 400.25 193.101 400.172 193.276 400.151C193.372 400.162 193.45 400.131 193.546 400.14L193.831 400.17C193.927 400.181 193.983 400.206 194.095 400.257C194.151 400.283 194.262 400.334 194.333 400.401L194.549 400.601C194.621 400.667 194.693 400.734 194.725 400.816C194.813 400.924 194.846 401.007 194.878 401.089C194.926 401.212 194.919 401.31 194.951 401.392C194.943 401.49 194.976 401.572 194.968 401.67L194.946 401.963C194.939 402.061 194.915 402.118 194.869 402.231C194.845 402.288 194.798 402.401 194.735 402.473L194.546 402.69C194.482 402.762 194.419 402.834 194.34 402.865C194.238 402.953 194.159 402.984 194.079 403.015C193.96 403.062 193.865 403.052 193.785 403.083C193.689 403.072 193.61 403.103 193.516 403.094L193.229 403.064C193.134 403.053 193.078 403.028 192.967 402.977C192.911 402.951 192.799 402.9 192.728 402.833L192.512 402.633ZM199.976 414.545C200.008 414.628 200.08 414.694 200.19 414.746C200.277 414.854 200.309 414.937 200.341 415.019C200.39 415.142 200.383 415.24 200.416 415.322C200.408 415.42 200.44 415.502 200.434 415.599L200.414 415.892C200.406 415.989 200.384 416.046 200.338 416.159C200.307 416.246 200.263 416.327 200.208 416.4L200.022 416.615C199.959 416.687 199.897 416.759 199.82 416.789C199.718 416.876 199.641 416.907 199.562 416.938C199.446 416.983 199.351 416.973 199.273 417.004C199.179 416.992 199.1 417.023 199.006 417.013C198.912 417.002 198.818 416.992 198.724 416.982C198.629 416.971 198.575 416.946 198.464 416.894C198.409 416.868 198.299 416.816 198.227 416.749L198.013 416.549C197.942 416.482 197.871 416.415 197.839 416.333C197.751 416.225 197.719 416.142 197.687 416.06C197.638 415.936 197.645 415.839 197.613 415.757C197.581 415.674 197.588 415.577 197.594 415.479L197.615 415.187C197.622 415.089 197.644 415.033 197.69 414.92C197.713 414.863 197.758 414.751 197.82 414.679L198.006 414.463C198.068 414.392 198.131 414.32 198.208 414.289C198.349 414.187 198.544 414.11 198.716 414.09C198.811 414.101 198.889 414.071 198.982 414.081C199.076 414.092 199.171 414.101 199.265 414.112C199.36 414.123 199.415 414.149 199.525 414.201C199.58 414.226 199.691 414.278 199.762 414.345L199.976 414.545ZM205.439 428.475C205.471 428.558 205.543 428.624 205.653 428.676C205.74 428.784 205.773 428.867 205.805 428.949C205.853 429.073 205.847 429.17 205.879 429.252C205.872 429.35 205.904 429.432 205.898 429.529L205.877 429.822C205.87 429.919 205.848 429.976 205.802 430.089C205.77 430.176 205.726 430.258 205.671 430.33L205.485 430.545C205.423 430.617 205.361 430.689 205.283 430.719C205.182 430.807 205.104 430.837 205.026 430.868C204.909 430.913 204.815 430.903 204.736 430.934C204.642 430.922 204.564 430.953 204.47 430.944C204.376 430.932 204.282 430.922 204.187 430.912C204.092 430.901 204.038 430.876 203.928 430.824C203.872 430.798 203.762 430.746 203.691 430.679L203.477 430.479C203.406 430.412 203.335 430.345 203.302 430.263C203.215 430.155 203.183 430.073 203.15 429.99C203.102 429.866 203.109 429.769 203.076 429.687C203.044 429.604 203.051 429.507 203.057 429.41L203.078 429.117C203.085 429.019 203.107 428.963 203.153 428.85C203.177 428.793 203.222 428.681 203.284 428.609L203.47 428.394C203.532 428.322 203.594 428.25 203.672 428.22C203.812 428.117 204.007 428.04 204.179 428.02C204.274 428.032 204.352 428.001 204.446 428.011C204.54 428.022 204.635 428.031 204.729 428.042C204.823 428.053 204.878 428.079 204.988 428.131C205.044 428.156 205.154 428.208 205.226 428.275L205.439 428.475ZM210.629 441.709C210.662 441.791 210.75 441.9 210.844 441.91C210.93 442.018 210.963 442.101 210.995 442.183C211.043 442.306 211.037 442.403 211.069 442.486C211.062 442.583 211.094 442.666 211.088 442.764L211.068 443.055C211.06 443.153 211.038 443.21 210.992 443.323C210.969 443.38 210.924 443.492 210.861 443.564L210.675 443.779C210.614 443.851 210.551 443.923 210.474 443.954C210.397 444.019 210.311 444.069 210.216 444.101C210.099 444.147 210.005 444.137 209.927 444.168C209.833 444.157 209.755 444.188 209.66 444.176L209.377 444.146C209.283 444.135 209.228 444.109 209.118 444.058C209.033 444.022 208.953 443.973 208.881 443.913L208.667 443.713C208.596 443.645 208.525 443.578 208.493 443.496C208.405 443.388 208.373 443.306 208.341 443.224C208.292 443.101 208.299 443.003 208.267 442.921C208.234 442.838 208.241 442.741 208.248 442.644L208.268 442.351C208.275 442.253 208.298 442.197 208.344 442.084C208.367 442.027 208.412 441.915 208.474 441.843L208.66 441.627C208.722 441.556 208.785 441.484 208.862 441.454C209.003 441.351 209.198 441.274 209.37 441.255C209.464 441.265 209.543 441.234 209.636 441.244L209.919 441.276C210.014 441.287 210.069 441.312 210.179 441.364C210.234 441.391 210.344 441.442 210.416 441.508L210.63 441.71L210.629 441.709ZM143.614 514.424C143.966 514.285 144.361 514.3 144.713 514.464C145.064 514.627 145.343 514.927 145.488 515.296C145.633 515.665 145.632 516.074 145.485 516.433C145.339 516.792 145.059 517.071 144.707 517.21C144.355 517.348 143.96 517.333 143.608 517.169C143.257 517.006 142.978 516.706 142.833 516.337C142.688 515.968 142.689 515.559 142.836 515.2C142.982 514.841 143.262 514.562 143.614 514.424ZM159.056 509.351C159.128 509.418 159.16 509.501 159.27 509.553C159.357 509.66 159.39 509.743 159.422 509.825C159.47 509.949 159.463 510.046 159.496 510.128C159.489 510.226 159.521 510.308 159.515 510.405L159.494 510.698C159.487 510.795 159.464 510.853 159.419 510.965C159.387 511.052 159.343 511.133 159.288 511.206L159.102 511.421C159.04 511.493 158.978 511.565 158.9 511.595C158.799 511.683 158.721 511.713 158.643 511.744C158.526 511.789 158.432 511.779 158.354 511.81C158.259 511.798 158.181 511.829 158.087 511.819L157.804 511.788C157.71 511.777 157.655 511.751 157.545 511.7C157.46 511.664 157.38 511.615 157.308 511.555L157.094 511.355C157.023 511.288 156.952 511.221 156.92 511.139C156.832 511.031 156.8 510.949 156.768 510.866C156.719 510.743 156.726 510.646 156.694 510.563C156.661 510.48 156.668 510.383 156.675 510.286L156.695 509.993C156.702 509.895 156.725 509.839 156.77 509.726C156.794 509.67 156.84 509.557 156.901 509.485L157.087 509.27C157.149 509.198 157.212 509.127 157.289 509.096C157.429 508.993 157.625 508.917 157.797 508.897C157.891 508.908 157.969 508.877 158.063 508.887L158.346 508.919C158.44 508.929 158.495 508.955 158.605 509.006C158.661 509.032 158.771 509.084 158.842 509.151L159.056 509.351ZM172.329 504.146C172.401 504.212 172.433 504.295 172.543 504.347C172.63 504.455 172.662 504.537 172.695 504.62C172.743 504.743 172.737 504.84 172.769 504.922C172.761 505.02 172.794 505.102 172.787 505.2C172.78 505.297 172.774 505.395 172.767 505.492C172.76 505.59 172.738 505.647 172.692 505.76C172.66 505.847 172.616 505.928 172.561 506.001L172.375 506.215C172.313 506.288 172.251 506.359 172.173 506.39C172.072 506.477 171.993 506.508 171.916 506.538C171.798 506.584 171.704 506.574 171.626 506.604C171.532 506.593 171.454 506.624 171.359 506.613L171.077 506.583C170.982 506.571 170.928 506.545 170.817 506.495C170.732 506.458 170.652 506.41 170.58 506.35L170.366 506.149C170.296 506.082 170.224 506.016 170.191 505.933C170.105 505.825 170.072 505.743 170.04 505.661C169.992 505.537 169.998 505.44 169.966 505.358C169.973 505.259 169.941 505.177 169.947 505.08L169.967 504.788C169.975 504.69 169.997 504.634 170.043 504.52C170.066 504.464 170.112 504.352 170.174 504.28L170.36 504.065C170.422 503.992 170.484 503.921 170.562 503.891C170.701 503.788 170.897 503.711 171.07 503.692C171.164 503.702 171.242 503.671 171.336 503.682C171.43 503.692 171.525 503.702 171.619 503.713C171.712 503.724 171.768 503.749 171.878 503.8C171.933 503.827 172.044 503.878 172.115 503.945L172.329 504.146ZM184.759 498.286C185.111 498.148 185.506 498.163 185.858 498.326C186.209 498.49 186.488 498.79 186.633 499.159C186.778 499.528 186.777 499.937 186.63 500.296C186.484 500.655 186.204 500.934 185.852 501.072C185.5 501.21 185.105 501.196 184.753 501.032C184.402 500.869 184.123 500.569 183.978 500.2C183.834 499.831 183.834 499.421 183.981 499.062C184.127 498.704 184.407 498.424 184.759 498.286ZM93.1899 424.904C93.5419 424.766 93.9371 424.78 94.2885 424.944C94.6399 425.108 94.9187 425.407 95.0635 425.777C95.2084 426.146 95.2076 426.555 95.0611 426.914C94.9146 427.273 94.6346 427.552 94.2826 427.69C93.9306 427.828 93.5355 427.814 93.1841 427.65C92.8327 427.487 92.5539 427.187 92.409 426.818C92.2641 426.448 92.265 426.039 92.4115 425.68C92.5579 425.321 92.8379 425.042 93.1899 424.904ZM79.2537 430.37C79.6057 430.232 80.0008 430.246 80.3522 430.41C80.7036 430.574 80.9824 430.873 81.1273 431.242C81.2722 431.612 81.2713 432.021 81.1249 432.38C80.9784 432.739 80.6984 433.018 80.3464 433.156C79.9944 433.294 79.5993 433.28 79.2479 433.116C78.8965 432.953 78.6177 432.653 78.4728 432.284C78.3279 431.914 78.3288 431.505 78.4752 431.146C78.6217 430.787 78.9017 430.508 79.2537 430.37ZM106.463 419.699C106.815 419.561 107.21 419.575 107.561 419.739C107.912 419.902 108.191 420.202 108.336 420.571C108.481 420.94 108.48 421.35 108.334 421.709C108.187 422.067 107.907 422.347 107.555 422.485C107.203 422.623 106.808 422.608 106.457 422.445C106.105 422.281 105.827 421.982 105.682 421.612C105.537 421.243 105.538 420.834 105.684 420.475C105.831 420.116 106.111 419.837 106.463 419.699ZM121.905 414.627C121.976 414.693 122.008 414.776 122.118 414.827C122.206 414.935 122.222 414.977 122.27 415.1C122.319 415.224 122.312 415.321 122.344 415.403C122.337 415.501 122.369 415.583 122.363 415.68L122.342 415.973C122.336 416.071 122.313 416.128 122.267 416.24C122.236 416.327 122.192 416.408 122.137 416.481L121.951 416.696C121.889 416.768 121.826 416.84 121.749 416.87C121.647 416.958 121.57 416.988 121.491 417.019C121.375 417.065 121.28 417.054 121.202 417.085C121.108 417.074 121.03 417.104 120.935 417.095C120.841 417.083 120.747 417.074 120.653 417.063C120.559 417.052 120.504 417.027 120.393 416.975C120.308 416.939 120.228 416.89 120.156 416.83L119.942 416.63C119.872 416.563 119.8 416.496 119.768 416.414C119.68 416.306 119.664 416.265 119.616 416.141C119.568 416.018 119.574 415.92 119.542 415.838C119.51 415.756 119.517 415.658 119.523 415.561L119.544 415.268C119.551 415.171 119.574 415.114 119.619 415.001C119.643 414.944 119.688 414.832 119.749 414.76L119.935 414.545C119.998 414.473 120.06 414.401 120.137 414.371C120.278 414.268 120.473 414.192 120.645 414.171C120.74 414.183 120.817 414.152 120.912 414.162L121.194 414.193C121.288 414.205 121.343 414.23 121.454 414.282C121.509 414.307 121.619 414.359 121.691 414.426L121.905 414.627ZM111.38 432.236C111.732 432.098 112.127 432.112 112.478 432.276C112.83 432.439 113.108 432.739 113.253 433.108C113.398 433.478 113.397 433.887 113.251 434.246C113.104 434.605 112.824 434.884 112.472 435.022C112.12 435.16 111.725 435.145 111.374 434.982C111.022 434.818 110.744 434.519 110.599 434.149C110.454 433.78 110.455 433.371 110.601 433.012C110.748 432.653 111.028 432.374 111.38 432.236ZM84.1708 442.907C84.5228 442.769 84.918 442.783 85.2694 442.947C85.6207 443.111 85.8995 443.41 86.0444 443.78C86.1893 444.149 86.1885 444.558 86.042 444.917C85.8955 445.276 85.6155 445.555 85.2635 445.693C84.9115 445.831 84.5164 445.817 84.165 445.653C83.8136 445.49 83.5348 445.19 83.3899 444.821C83.245 444.451 83.2459 444.042 83.3923 443.683C83.5388 443.324 83.8188 443.045 84.1708 442.907ZM98.1071 437.441C98.459 437.303 98.8542 437.318 99.2056 437.481C99.557 437.645 99.8358 437.944 99.9807 438.314C100.126 438.683 100.125 439.092 99.9782 439.451C99.8318 439.81 99.5517 440.089 99.1998 440.227C98.8478 440.365 98.4526 440.351 98.1012 440.187C97.7498 440.024 97.471 439.724 97.3261 439.355C97.1813 438.985 97.1821 438.576 97.3286 438.217C97.475 437.859 97.7551 437.579 98.1071 437.441ZM126.822 427.164C126.893 427.231 126.925 427.313 127.035 427.364C127.123 427.472 127.155 427.555 127.188 427.637C127.236 427.761 127.229 427.858 127.261 427.94C127.254 428.038 127.287 428.12 127.28 428.217L127.26 428.51C127.253 428.608 127.23 428.665 127.184 428.777C127.153 428.864 127.109 428.945 127.054 429.018L126.868 429.233C126.806 429.305 126.744 429.377 126.666 429.408C126.565 429.495 126.487 429.525 126.409 429.556C126.292 429.602 126.197 429.591 126.119 429.622C126.025 429.611 125.947 429.641 125.853 429.632C125.759 429.62 125.664 429.611 125.57 429.6C125.476 429.589 125.421 429.564 125.31 429.512C125.225 429.476 125.146 429.427 125.074 429.367L124.859 429.167C124.789 429.1 124.717 429.033 124.685 428.951C124.598 428.843 124.565 428.76 124.533 428.679C124.485 428.555 124.491 428.457 124.459 428.375C124.427 428.293 124.434 428.195 124.44 428.098L124.461 427.805C124.468 427.708 124.491 427.651 124.536 427.539C124.56 427.481 124.605 427.369 124.667 427.297L124.852 427.082C124.915 427.01 124.977 426.938 125.054 426.908C125.195 426.805 125.39 426.729 125.562 426.709C125.657 426.72 125.735 426.689 125.829 426.699L126.111 426.73C126.205 426.742 126.261 426.767 126.371 426.819C126.426 426.845 126.536 426.896 126.608 426.963L126.822 427.164ZM116.843 446.166C117.195 446.028 117.59 446.042 117.942 446.206C118.293 446.369 118.572 446.669 118.717 447.038C118.862 447.408 118.861 447.817 118.714 448.176C118.568 448.535 118.288 448.814 117.936 448.952C117.584 449.09 117.189 449.076 116.837 448.912C116.486 448.748 116.207 448.449 116.062 448.079C115.917 447.71 115.918 447.301 116.065 446.942C116.211 446.583 116.491 446.304 116.843 446.166ZM103.571 451.371C103.923 451.233 104.318 451.248 104.669 451.411C105.02 451.575 105.299 451.874 105.444 452.244C105.589 452.613 105.588 453.022 105.442 453.381C105.295 453.74 105.015 454.019 104.663 454.157C104.311 454.296 103.916 454.281 103.565 454.118C103.213 453.954 102.935 453.654 102.79 453.285C102.645 452.916 102.646 452.506 102.792 452.148C102.939 451.789 103.219 451.509 103.571 451.371ZM89.6343 456.837C89.9863 456.699 90.3814 456.714 90.7328 456.877C91.0842 457.041 91.363 457.34 91.5079 457.71C91.6528 458.079 91.6519 458.488 91.5055 458.847C91.359 459.206 91.079 459.485 90.727 459.623C90.375 459.761 89.9798 459.747 89.6285 459.583C89.2771 459.42 88.9983 459.12 88.8534 458.751C88.7085 458.381 88.7093 457.972 88.8558 457.613C89.0023 457.255 89.2823 456.975 89.6343 456.837ZM132.285 441.094C132.357 441.161 132.389 441.243 132.499 441.295C132.586 441.402 132.619 441.485 132.651 441.568C132.699 441.691 132.692 441.788 132.725 441.871C132.718 441.968 132.75 442.05 132.744 442.148L132.723 442.44C132.716 442.538 132.693 442.595 132.648 442.708C132.616 442.794 132.572 442.876 132.517 442.948L132.331 443.164C132.269 443.235 132.207 443.307 132.129 443.338C132.028 443.425 131.95 443.455 131.872 443.486C131.755 443.532 131.661 443.521 131.583 443.552C131.488 443.541 131.41 443.572 131.316 443.562C131.222 443.551 131.128 443.541 131.033 443.53C130.939 443.519 130.884 443.494 130.774 443.443C130.689 443.406 130.609 443.358 130.537 443.298L130.323 443.097C130.252 443.03 130.181 442.963 130.149 442.881C130.061 442.773 130.029 442.69 129.997 442.609C129.948 442.485 129.955 442.387 129.923 442.305C129.89 442.223 129.897 442.125 129.904 442.028L129.924 441.735C129.931 441.638 129.954 441.581 130 441.469C130.023 441.411 130.069 441.299 130.13 441.227L130.316 441.012C130.378 440.94 130.44 440.868 130.518 440.838C130.658 440.735 130.854 440.659 131.026 440.639C131.12 440.65 131.198 440.619 131.292 440.629L131.575 440.66C131.669 440.672 131.724 440.698 131.835 440.749C131.89 440.775 132 440.826 132.071 440.893L132.285 441.094ZM135.177 409.421C135.249 409.488 135.282 409.57 135.391 409.621C135.478 409.73 135.495 409.771 135.543 409.895C135.591 410.018 135.585 410.115 135.617 410.197C135.61 410.295 135.642 410.377 135.636 410.475C135.628 410.573 135.622 410.67 135.616 410.767C135.608 410.865 135.586 410.922 135.54 411.035C135.508 411.122 135.464 411.203 135.409 411.276L135.223 411.491C135.161 411.563 135.099 411.634 135.021 411.665C134.92 411.752 134.842 411.783 134.764 411.813C134.647 411.859 134.553 411.849 134.475 411.879C134.381 411.868 134.302 411.899 134.208 411.889L133.925 411.858C133.831 411.847 133.776 411.821 133.666 411.77C133.581 411.734 133.501 411.685 133.428 411.625L133.215 411.424C133.144 411.357 133.072 411.291 133.04 411.208C132.953 411.1 132.937 411.059 132.889 410.936C132.84 410.813 132.846 410.715 132.814 410.632C132.822 410.535 132.789 410.452 132.796 410.355L132.816 410.063C132.823 409.965 132.846 409.909 132.892 409.796C132.923 409.708 132.967 409.627 133.022 409.554L133.208 409.339C133.27 409.267 133.332 409.195 133.41 409.165C133.55 409.063 133.746 408.986 133.918 408.966C134.012 408.977 134.09 408.947 134.184 408.956L134.467 408.988C134.561 408.999 134.617 409.024 134.727 409.076C134.782 409.102 134.892 409.153 134.963 409.22L135.177 409.421ZM147.608 403.561C147.959 403.423 148.355 403.438 148.706 403.601C149.057 403.765 149.336 404.064 149.481 404.434C149.626 404.803 149.625 405.212 149.479 405.571C149.332 405.93 149.052 406.209 148.7 406.347C148.349 406.485 147.953 406.471 147.602 406.307C147.251 406.144 146.972 405.844 146.827 405.475C146.682 405.105 146.683 404.696 146.829 404.337C146.976 403.978 147.256 403.699 147.608 403.561ZM174.816 392.89C175.558 392.599 176.385 392.984 176.69 393.762C176.995 394.541 176.651 395.385 175.909 395.676C175.167 395.967 174.341 395.582 174.036 394.803C173.73 394.025 174.075 393.181 174.816 392.89ZM160.88 398.356C161.232 398.218 161.627 398.232 161.979 398.396C162.33 398.559 162.609 398.859 162.754 399.228C162.899 399.598 162.898 400.007 162.751 400.366C162.605 400.725 162.325 401.004 161.973 401.142C161.621 401.28 161.226 401.265 160.875 401.102C160.523 400.938 160.244 400.639 160.099 400.269C159.954 399.9 159.955 399.491 160.102 399.132C160.248 398.773 160.528 398.494 160.88 398.356ZM140.094 421.958C140.166 422.025 140.199 422.107 140.309 422.159C140.395 422.267 140.428 422.35 140.46 422.432C140.509 422.555 140.502 422.652 140.535 422.735C140.527 422.832 140.559 422.915 140.553 423.012C140.545 423.11 140.539 423.207 140.533 423.304C140.525 423.402 140.503 423.459 140.457 423.572C140.425 423.659 140.381 423.74 140.326 423.813L140.141 424.028C140.078 424.1 140.016 424.172 139.938 424.202C139.837 424.289 139.759 424.32 139.681 424.35C139.564 424.396 139.47 424.386 139.392 424.416C139.298 424.405 139.219 424.436 139.125 424.426L138.843 424.395C138.748 424.384 138.694 424.358 138.583 424.307C138.498 424.271 138.418 424.222 138.345 424.162L138.132 423.961C138.061 423.894 137.989 423.828 137.957 423.746C137.87 423.637 137.838 423.555 137.806 423.473C137.757 423.35 137.763 423.252 137.731 423.17C137.739 423.072 137.706 422.99 137.713 422.892L137.733 422.6C137.74 422.502 137.763 422.446 137.809 422.333C137.84 422.246 137.884 422.164 137.939 422.091L138.125 421.876C138.187 421.804 138.249 421.733 138.327 421.702C138.467 421.6 138.663 421.523 138.835 421.503C138.929 421.514 139.007 421.484 139.101 421.493L139.384 421.525C139.478 421.536 139.534 421.562 139.644 421.613C139.699 421.639 139.81 421.691 139.88 421.758L140.094 421.958ZM179.734 405.427C180.476 405.136 181.302 405.521 181.607 406.299C181.913 407.078 181.568 407.922 180.826 408.213C180.084 408.504 179.258 408.119 178.953 407.341C178.647 406.562 178.992 405.718 179.734 405.427ZM152.525 416.098C152.876 415.96 153.272 415.975 153.623 416.138C153.974 416.302 154.253 416.601 154.398 416.971C154.543 417.34 154.542 417.75 154.396 418.108C154.249 418.467 153.969 418.746 153.617 418.884C153.266 419.022 152.87 419.008 152.519 418.844C152.168 418.681 151.889 418.381 151.744 418.012C151.599 417.643 151.6 417.233 151.746 416.874C151.893 416.516 152.173 416.236 152.525 416.098ZM165.797 410.893C166.149 410.755 166.544 410.769 166.896 410.933C167.247 411.096 167.526 411.396 167.671 411.765C167.816 412.135 167.815 412.544 167.668 412.903C167.522 413.262 167.242 413.541 166.89 413.679C166.538 413.817 166.143 413.803 165.792 413.639C165.44 413.475 165.161 413.176 165.016 412.806C164.872 412.437 164.873 412.028 165.019 411.669C165.165 411.31 165.446 411.031 165.797 410.893ZM145.558 435.888C145.63 435.955 145.662 436.037 145.772 436.089C145.859 436.197 145.891 436.28 145.924 436.362C145.972 436.485 145.966 436.583 145.998 436.665C145.99 436.763 146.023 436.845 146.016 436.942C146.009 437.04 146.003 437.137 145.996 437.234C145.989 437.332 145.967 437.389 145.921 437.502C145.889 437.589 145.845 437.67 145.79 437.743L145.604 437.958C145.542 438.03 145.48 438.102 145.402 438.132C145.301 438.219 145.222 438.25 145.145 438.28C145.027 438.327 144.933 438.316 144.855 438.347C144.761 438.335 144.683 438.366 144.589 438.356L144.306 438.325C144.211 438.314 144.157 438.288 144.046 438.237C143.961 438.201 143.881 438.152 143.809 438.092L143.595 437.892C143.525 437.824 143.453 437.758 143.42 437.676C143.334 437.567 143.301 437.485 143.269 437.403C143.221 437.279 143.227 437.182 143.195 437.1C143.202 437.002 143.17 436.92 143.176 436.822L143.196 436.53C143.204 436.432 143.226 436.376 143.272 436.263C143.304 436.176 143.348 436.094 143.403 436.022L143.589 435.806C143.651 435.735 143.713 435.663 143.791 435.632C143.93 435.53 144.126 435.453 144.298 435.433C144.393 435.444 144.471 435.414 144.565 435.423L144.847 435.455C144.941 435.466 144.997 435.492 145.107 435.543C145.162 435.569 145.273 435.621 145.344 435.688L145.558 435.888ZM157.988 430.029C158.34 429.891 158.735 429.905 159.087 430.069C159.438 430.232 159.717 430.532 159.862 430.901C160.007 431.27 160.006 431.68 159.859 432.039C159.713 432.397 159.433 432.677 159.081 432.815C158.729 432.953 158.334 432.938 157.983 432.775C157.631 432.611 157.352 432.312 157.207 431.942C157.062 431.573 157.063 431.163 157.21 430.805C157.356 430.446 157.636 430.166 157.988 430.029ZM171.261 424.823C171.613 424.685 172.008 424.699 172.359 424.863C172.711 425.027 172.99 425.326 173.134 425.695C173.279 426.065 173.278 426.474 173.132 426.833C172.985 427.192 172.705 427.471 172.354 427.609C172.002 427.747 171.606 427.733 171.255 427.569C170.904 427.405 170.625 427.106 170.48 426.737C170.335 426.367 170.336 425.958 170.482 425.599C170.629 425.24 170.909 424.961 171.261 424.823ZM185.197 419.357C185.939 419.066 186.765 419.451 187.071 420.23C187.376 421.008 187.032 421.852 186.29 422.143C185.548 422.434 184.722 422.049 184.416 421.271C184.111 420.492 184.455 419.648 185.197 419.357ZM95.0978 470.767C95.8397 470.476 96.666 470.861 96.9714 471.64C97.2768 472.419 96.9324 473.262 96.1905 473.553C95.4485 473.844 94.6223 473.46 94.3168 472.681C94.0114 471.902 94.3558 471.058 95.0978 470.767ZM109.034 465.302C109.737 465.026 110.563 465.411 110.908 466.174C111.213 466.953 110.869 467.797 110.127 468.088C109.385 468.379 108.558 467.994 108.253 467.215C107.948 466.436 108.292 465.593 109.034 465.302ZM122.307 460.096C123.049 459.805 123.875 460.19 124.18 460.968C124.486 461.747 124.141 462.591 123.399 462.882C122.657 463.173 121.831 462.788 121.526 462.01C121.22 461.231 121.565 460.387 122.307 460.096ZM137.749 455.024C137.82 455.091 137.852 455.173 137.962 455.225C138.05 455.333 138.082 455.416 138.115 455.498C138.163 455.621 138.156 455.719 138.188 455.801C138.181 455.898 138.214 455.98 138.207 456.078L138.186 456.37C138.18 456.468 138.157 456.525 138.111 456.638C138.08 456.725 138.036 456.806 137.981 456.879L137.795 457.094C137.733 457.166 137.67 457.237 137.593 457.268C137.491 457.355 137.414 457.385 137.336 457.416C137.219 457.462 137.124 457.452 137.046 457.482C136.952 457.471 136.874 457.502 136.779 457.492C136.685 457.481 136.591 457.471 136.497 457.461C136.403 457.449 136.348 457.424 136.237 457.373C136.152 457.336 136.073 457.288 136 457.228L135.786 457.027C135.716 456.96 135.644 456.893 135.612 456.811C135.524 456.703 135.492 456.62 135.46 456.539C135.411 456.415 135.418 456.317 135.386 456.235C135.354 456.153 135.361 456.055 135.367 455.958L135.388 455.665C135.395 455.568 135.418 455.511 135.463 455.399C135.487 455.341 135.532 455.229 135.594 455.157L135.779 454.942C135.842 454.87 135.904 454.798 135.981 454.768C136.122 454.665 136.317 454.589 136.489 454.569C136.584 454.58 136.661 454.55 136.756 454.559L137.038 454.591C137.132 454.602 137.188 454.628 137.298 454.679C137.353 454.705 137.463 454.757 137.535 454.823L137.749 455.024ZM100.288 484.001C100.64 483.863 101.035 483.878 101.387 484.041C101.738 484.205 102.017 484.504 102.162 484.874C102.306 485.243 102.306 485.652 102.159 486.011C102.013 486.37 101.733 486.649 101.381 486.787C101.029 486.925 100.634 486.911 100.282 486.747C99.9308 486.583 99.6519 486.284 99.5071 485.915C99.3624 485.545 99.3631 485.136 99.5096 484.777C99.6561 484.418 99.9361 484.139 100.288 484.001ZM127.497 473.33C127.849 473.192 128.244 473.206 128.595 473.37C128.947 473.533 129.226 473.833 129.371 474.202C129.515 474.571 129.515 474.981 129.368 475.339C129.222 475.698 128.942 475.978 128.59 476.116C128.238 476.254 127.842 476.239 127.491 476.076C127.14 475.912 126.861 475.612 126.716 475.243C126.571 474.874 126.572 474.465 126.718 474.106C126.865 473.747 127.145 473.468 127.497 473.33ZM114.224 478.535C114.576 478.397 114.972 478.412 115.323 478.575C115.674 478.739 115.953 479.039 116.098 479.408C116.243 479.777 116.242 480.186 116.095 480.545C115.949 480.904 115.669 481.183 115.317 481.321C114.965 481.459 114.57 481.445 114.218 481.281C113.867 481.118 113.588 480.818 113.443 480.449C113.299 480.08 113.299 479.67 113.446 479.311C113.592 478.953 113.872 478.673 114.224 478.535ZM142.939 468.258C143.01 468.324 143.059 468.448 143.153 468.459C143.24 468.566 143.273 468.649 143.305 468.731C143.353 468.855 143.346 468.952 143.378 469.034C143.372 469.132 143.404 469.214 143.398 469.312L143.377 469.604C143.37 469.702 143.347 469.759 143.302 469.871C143.278 469.929 143.233 470.041 143.171 470.112L142.985 470.327C142.923 470.4 142.861 470.472 142.783 470.502C142.682 470.589 142.604 470.619 142.526 470.65C142.409 470.696 142.315 470.686 142.237 470.717C142.143 470.705 142.064 470.736 141.97 470.725L141.687 470.694C141.593 470.684 141.538 470.658 141.428 470.606C141.343 470.571 141.263 470.522 141.191 470.461L140.977 470.262C140.906 470.194 140.835 470.127 140.802 470.045C140.715 469.937 140.683 469.855 140.65 469.772C140.602 469.649 140.609 469.552 140.577 469.469C140.544 469.387 140.551 469.289 140.558 469.192L140.578 468.899C140.585 468.802 140.608 468.745 140.653 468.632C140.677 468.576 140.723 468.463 140.784 468.392L140.97 468.176C141.032 468.105 141.094 468.033 141.172 468.002C141.312 467.899 141.507 467.823 141.68 467.803C141.774 467.814 141.852 467.783 141.946 467.793L142.229 467.825C142.323 467.836 142.378 467.861 142.488 467.913C142.544 467.939 142.654 467.99 142.725 468.057C142.797 468.124 142.868 468.191 142.939 468.258ZM132.687 486.563C133.039 486.425 133.434 486.44 133.786 486.603C134.137 486.767 134.416 487.067 134.561 487.436C134.706 487.805 134.705 488.214 134.558 488.573C134.412 488.932 134.132 489.211 133.78 489.349C133.428 489.487 133.033 489.473 132.681 489.309C132.33 489.146 132.051 488.846 131.906 488.477C131.761 488.108 131.762 487.698 131.909 487.339C132.055 486.981 132.335 486.701 132.687 486.563ZM105.478 497.235C105.83 497.097 106.226 497.111 106.577 497.275C106.928 497.438 107.207 497.738 107.352 498.107C107.497 498.476 107.496 498.886 107.349 499.244C107.203 499.603 106.923 499.883 106.571 500.021C106.219 500.159 105.824 500.144 105.472 499.981C105.121 499.817 104.842 499.517 104.697 499.148C104.553 498.779 104.553 498.37 104.7 498.011C104.846 497.652 105.126 497.373 105.478 497.235ZM119.415 491.769C119.767 491.631 120.162 491.645 120.513 491.809C120.865 491.972 121.143 492.272 121.288 492.641C121.433 493.01 121.432 493.42 121.286 493.779C121.139 494.137 120.859 494.417 120.507 494.555C120.155 494.693 119.76 494.678 119.409 494.515C119.057 494.351 118.778 494.052 118.634 493.682C118.489 493.313 118.49 492.904 118.636 492.545C118.783 492.186 119.063 491.907 119.415 491.769ZM148.13 481.492C148.201 481.558 148.233 481.64 148.343 481.693C148.43 481.8 148.463 481.883 148.495 481.965C148.543 482.088 148.537 482.186 148.569 482.268C148.562 482.366 148.594 482.448 148.588 482.546L148.567 482.838C148.56 482.935 148.537 482.992 148.492 483.105C148.469 483.162 148.423 483.274 148.361 483.346L148.175 483.561C148.114 483.634 148.051 483.705 147.974 483.736C147.872 483.822 147.794 483.853 147.716 483.883C147.599 483.929 147.505 483.92 147.427 483.95C147.333 483.939 147.255 483.97 147.16 483.959L146.877 483.928C146.784 483.917 146.728 483.891 146.618 483.84C146.533 483.804 146.453 483.755 146.381 483.695L146.167 483.495C146.096 483.427 146.025 483.361 145.993 483.278C145.905 483.17 145.873 483.088 145.841 483.006C145.792 482.883 145.799 482.785 145.767 482.703C145.734 482.62 145.741 482.523 145.748 482.426L145.768 482.133C145.775 482.035 145.798 481.979 145.844 481.866C145.867 481.809 145.913 481.697 145.974 481.625L146.16 481.409C146.222 481.338 146.285 481.266 146.362 481.236C146.503 481.133 146.698 481.056 146.87 481.037C146.964 481.047 147.042 481.017 147.136 481.026L147.419 481.059C147.513 481.069 147.568 481.094 147.679 481.146C147.734 481.173 147.844 481.224 147.915 481.291C147.987 481.357 148.058 481.424 148.13 481.492ZM151.022 449.819C151.093 449.885 151.126 449.967 151.236 450.019C151.322 450.127 151.355 450.21 151.387 450.292C151.435 450.415 151.429 450.513 151.461 450.595C151.454 450.693 151.486 450.775 151.48 450.872C151.472 450.97 151.466 451.067 151.46 451.165C151.452 451.262 151.43 451.319 151.384 451.432C151.352 451.519 151.308 451.601 151.253 451.673L151.067 451.888C151.005 451.96 150.943 452.032 150.865 452.062C150.764 452.149 150.686 452.18 150.608 452.211C150.491 452.257 150.397 452.246 150.319 452.277C150.225 452.265 150.146 452.296 150.052 452.286L149.769 452.255C149.675 452.244 149.62 452.219 149.51 452.167C149.425 452.131 149.345 452.082 149.272 452.022L149.059 451.822C148.988 451.755 148.916 451.688 148.884 451.606C148.797 451.498 148.765 451.415 148.733 451.333C148.684 451.209 148.69 451.112 148.658 451.03C148.666 450.932 148.633 450.85 148.64 450.753L148.66 450.46C148.667 450.362 148.69 450.306 148.736 450.193C148.767 450.106 148.811 450.024 148.866 449.952L149.052 449.736C149.114 449.665 149.176 449.593 149.254 449.562C149.394 449.46 149.59 449.383 149.762 449.363C149.856 449.374 149.934 449.344 150.028 449.354C150.122 449.365 150.217 449.374 150.311 449.385C150.405 449.396 150.461 449.422 150.571 449.474C150.626 449.499 150.736 449.551 150.807 449.618L151.021 449.818L151.022 449.819ZM190.661 433.287C191.402 432.996 192.229 433.381 192.534 434.16C192.84 434.938 192.495 435.782 191.753 436.073C191.011 436.364 190.185 435.98 189.88 435.201C189.574 434.422 189.919 433.578 190.661 433.287ZM176.724 438.753C177.427 438.477 178.253 438.862 178.598 439.626C178.903 440.404 178.559 441.248 177.817 441.539C177.075 441.83 176.249 441.445 175.943 440.667C175.638 439.888 175.982 439.044 176.724 438.753ZM163.452 443.959C164.194 443.668 165.02 444.052 165.325 444.831C165.631 445.61 165.286 446.454 164.544 446.745C163.802 447.036 162.976 446.651 162.671 445.872C162.365 445.094 162.71 444.25 163.452 443.959ZM156.212 463.053C156.284 463.119 156.332 463.243 156.426 463.253C156.513 463.361 156.545 463.444 156.577 463.526C156.626 463.649 156.62 463.746 156.652 463.829C156.644 463.926 156.676 464.009 156.67 464.106C156.663 464.204 156.657 464.302 156.65 464.398C156.642 464.496 156.62 464.553 156.574 464.666C156.552 464.723 156.506 464.835 156.444 464.907L156.258 465.122C156.196 465.194 156.134 465.266 156.056 465.297C155.954 465.383 155.876 465.414 155.798 465.444C155.681 465.49 155.587 465.48 155.509 465.511C155.415 465.5 155.337 465.53 155.242 465.519L154.96 465.489C154.865 465.478 154.811 465.452 154.7 465.401C154.615 465.365 154.535 465.316 154.463 465.256L154.25 465.056C154.179 464.988 154.106 464.922 154.074 464.839C153.987 464.731 153.955 464.649 153.923 464.567C153.875 464.444 153.881 464.346 153.849 464.264C153.856 464.166 153.824 464.083 153.83 463.987L153.85 463.694C153.858 463.596 153.88 463.54 153.926 463.427C153.949 463.37 153.994 463.258 154.057 463.186L154.242 462.97C154.305 462.899 154.367 462.827 154.445 462.797C154.584 462.694 154.78 462.617 154.952 462.598C155.047 462.608 155.124 462.578 155.219 462.587L155.501 462.619C155.595 462.63 155.651 462.655 155.761 462.707C155.817 462.734 155.927 462.784 155.998 462.852C156.07 462.918 156.14 462.985 156.212 463.053ZM195.851 446.521C196.593 446.23 197.419 446.615 197.724 447.393C198.03 448.172 197.685 449.016 196.944 449.307C196.202 449.598 195.375 449.213 195.07 448.434C194.764 447.656 195.109 446.812 195.851 446.521ZM181.915 451.987C182.266 451.849 182.662 451.863 183.013 452.027C183.364 452.19 183.643 452.49 183.788 452.859C183.933 453.228 183.932 453.638 183.786 453.997C183.639 454.355 183.359 454.635 183.007 454.773C182.656 454.911 182.26 454.896 181.909 454.733C181.558 454.569 181.278 454.269 181.134 453.9C180.989 453.531 180.99 453.122 181.136 452.763C181.283 452.404 181.563 452.125 181.915 451.987ZM168.642 457.192C168.994 457.054 169.389 457.069 169.74 457.232C170.092 457.396 170.371 457.696 170.516 458.065C170.66 458.434 170.659 458.843 170.513 459.202C170.367 459.561 170.086 459.84 169.735 459.978C169.383 460.116 168.988 460.102 168.636 459.938C168.285 459.775 168.006 459.475 167.861 459.106C167.716 458.737 167.717 458.327 167.864 457.968C168.01 457.61 168.29 457.33 168.642 457.192ZM161.402 476.286C161.474 476.352 161.506 476.434 161.616 476.487C161.703 476.594 161.735 476.677 161.768 476.759C161.816 476.883 161.81 476.98 161.842 477.062C161.834 477.16 161.867 477.242 161.861 477.34C161.853 477.438 161.847 477.535 161.84 477.632C161.833 477.73 161.811 477.786 161.765 477.899C161.742 477.957 161.696 478.068 161.634 478.14L161.448 478.355C161.386 478.428 161.324 478.5 161.246 478.53C161.145 478.617 161.066 478.647 160.989 478.678C160.871 478.724 160.778 478.714 160.699 478.745C160.605 478.733 160.527 478.764 160.432 478.753L160.15 478.722C160.056 478.712 160.001 478.686 159.891 478.634C159.805 478.599 159.725 478.55 159.653 478.49L159.44 478.29C159.369 478.222 159.297 478.155 159.265 478.073C159.178 477.965 159.145 477.883 159.113 477.801C159.065 477.677 159.071 477.58 159.039 477.498C159.046 477.399 159.014 477.317 159.02 477.22L159.04 476.927C159.048 476.83 159.07 476.773 159.116 476.661C159.139 476.604 159.185 476.491 159.247 476.42L159.433 476.204C159.495 476.133 159.557 476.061 159.635 476.03C159.774 475.927 159.97 475.851 160.143 475.831C160.237 475.842 160.315 475.811 160.409 475.821L160.692 475.853C160.785 475.864 160.841 475.888 160.951 475.941C161.007 475.967 161.117 476.018 161.188 476.085C161.26 476.152 161.331 476.219 161.402 476.286ZM201.041 459.755C201.783 459.464 202.609 459.848 202.915 460.627C203.22 461.406 202.876 462.25 202.134 462.541C201.392 462.832 200.566 462.447 200.26 461.668C199.955 460.889 200.299 460.045 201.041 459.755ZM187.105 465.22C187.457 465.082 187.852 465.097 188.203 465.26C188.555 465.424 188.834 465.724 188.978 466.093C189.123 466.462 189.122 466.871 188.976 467.23C188.829 467.589 188.549 467.868 188.198 468.006C187.846 468.144 187.45 468.13 187.099 467.966C186.748 467.803 186.469 467.503 186.324 467.134C186.179 466.765 186.18 466.355 186.327 465.997C186.473 465.638 186.753 465.358 187.105 465.22ZM173.832 470.426C174.184 470.288 174.579 470.302 174.931 470.466C175.282 470.63 175.561 470.929 175.706 471.298C175.851 471.668 175.85 472.077 175.703 472.436C175.557 472.795 175.277 473.074 174.925 473.212C174.573 473.35 174.178 473.335 173.827 473.172C173.475 473.008 173.196 472.709 173.051 472.34C172.907 471.97 172.908 471.561 173.054 471.202C173.2 470.843 173.481 470.564 173.832 470.426ZM101.272 406.465C101.624 406.327 102.019 406.341 102.371 406.505C102.722 406.669 103.001 406.968 103.146 407.337C103.291 407.707 103.29 408.116 103.143 408.475C102.997 408.834 102.717 409.113 102.365 409.251C102.013 409.389 101.618 409.375 101.266 409.211C100.915 409.047 100.636 408.748 100.491 408.379C100.346 408.009 100.347 407.6 100.494 407.241C100.64 406.882 100.92 406.603 101.272 406.465ZM87.9996 411.671C88.3516 411.532 88.7468 411.547 89.0982 411.71C89.4496 411.874 89.7284 412.174 89.8732 412.543C90.0181 412.912 90.0173 413.322 89.8708 413.68C89.7244 414.039 89.4443 414.319 89.0923 414.457C88.7403 414.595 88.3452 414.58 87.9938 414.417C87.6424 414.253 87.3636 413.954 87.2187 413.584C87.0738 413.215 87.0747 412.806 87.2212 412.447C87.3676 412.088 87.6476 411.809 87.9996 411.671ZM116.714 401.393C116.786 401.46 116.818 401.542 116.928 401.594C117.015 401.702 117.032 401.743 117.08 401.867C117.129 401.99 117.122 402.088 117.154 402.17C117.147 402.267 117.179 402.349 117.173 402.447L117.152 402.739C117.145 402.837 117.122 402.894 117.077 403.007C117.045 403.094 117.001 403.175 116.946 403.248L116.76 403.463C116.698 403.535 116.636 403.606 116.558 403.637C116.457 403.724 116.379 403.754 116.301 403.785C116.184 403.831 116.09 403.821 116.012 403.851C115.918 403.84 115.839 403.871 115.745 403.861C115.651 403.85 115.557 403.84 115.463 403.83C115.368 403.818 115.313 403.793 115.203 403.742C115.118 403.705 115.038 403.657 114.966 403.597L114.752 403.396C114.681 403.329 114.61 403.262 114.578 403.18C114.49 403.072 114.474 403.031 114.426 402.908C114.377 402.785 114.384 402.686 114.352 402.604C114.319 402.522 114.326 402.424 114.333 402.327L114.353 402.034C114.36 401.937 114.383 401.88 114.429 401.768C114.452 401.71 114.498 401.598 114.559 401.526L114.745 401.311C114.807 401.239 114.869 401.167 114.947 401.137C115.088 401.034 115.283 400.958 115.455 400.938C115.549 400.949 115.627 400.918 115.721 400.928L116.004 400.96C116.098 400.971 116.153 400.997 116.264 401.048C116.319 401.074 116.429 401.126 116.5 401.192L116.714 401.393ZM129.987 396.187C130.059 396.254 130.091 396.336 130.201 396.388C130.288 396.496 130.304 396.538 130.353 396.661C130.401 396.784 130.395 396.882 130.427 396.964C130.42 397.062 130.452 397.144 130.446 397.241C130.438 397.339 130.432 397.436 130.425 397.534C130.418 397.631 130.396 397.688 130.35 397.801C130.318 397.888 130.274 397.969 130.219 398.042L130.033 398.257C129.971 398.329 129.909 398.401 129.831 398.431C129.73 398.518 129.651 398.549 129.574 398.58C129.456 398.626 129.363 398.615 129.284 398.646C129.19 398.634 129.112 398.665 129.018 398.655L128.735 398.624C128.64 398.613 128.586 398.588 128.476 398.536C128.39 398.5 128.311 398.451 128.238 398.391L128.025 398.191C127.954 398.124 127.882 398.057 127.85 397.975C127.763 397.867 127.747 397.825 127.698 397.702C127.65 397.579 127.656 397.481 127.624 397.399C127.631 397.301 127.599 397.219 127.605 397.121L127.625 396.829C127.633 396.731 127.655 396.675 127.701 396.562C127.733 396.475 127.777 396.393 127.832 396.321L128.018 396.105C128.08 396.034 128.142 395.962 128.22 395.931C128.36 395.829 128.555 395.752 128.727 395.732C128.822 395.743 128.9 395.713 128.994 395.723L129.276 395.754C129.371 395.765 129.426 395.791 129.536 395.843C129.592 395.868 129.702 395.92 129.773 395.987L129.987 396.187ZM155.69 385.122C156.042 384.984 156.437 384.998 156.788 385.162C157.14 385.326 157.419 385.625 157.564 385.995C157.708 386.364 157.707 386.773 157.561 387.132C157.415 387.491 157.134 387.77 156.783 387.908C156.431 388.046 156.036 388.032 155.684 387.868C155.333 387.704 155.054 387.405 154.909 387.036C154.764 386.666 154.765 386.257 154.912 385.898C155.058 385.539 155.338 385.26 155.69 385.122ZM142.417 390.328C142.769 390.19 143.164 390.204 143.516 390.368C143.867 390.531 144.146 390.831 144.291 391.2C144.436 391.57 144.435 391.979 144.288 392.338C144.142 392.697 143.862 392.976 143.51 393.114C143.158 393.252 142.763 393.237 142.412 393.074C142.06 392.91 141.781 392.611 141.636 392.241C141.492 391.872 141.493 391.463 141.639 391.104C141.785 390.745 142.066 390.466 142.417 390.328ZM95.8088 392.535C96.1608 392.397 96.5559 392.411 96.9073 392.575C97.2587 392.738 97.5375 393.038 97.6824 393.407C97.8273 393.777 97.8264 394.186 97.68 394.545C97.5335 394.904 97.2535 395.183 96.9015 395.321C96.5495 395.459 96.1543 395.445 95.8029 395.281C95.4516 395.117 95.1728 394.818 95.0279 394.448C94.883 394.079 94.8838 393.67 95.0303 393.311C95.1768 392.952 95.4568 392.673 95.8088 392.535ZM111.251 387.463C111.322 387.53 111.355 387.612 111.464 387.664C111.552 387.771 111.584 387.854 111.617 387.937C111.665 388.06 111.658 388.157 111.69 388.24C111.683 388.337 111.716 388.419 111.709 388.517L111.689 388.809C111.682 388.907 111.659 388.964 111.614 389.077C111.582 389.163 111.538 389.245 111.483 389.317L111.297 389.533C111.235 389.604 111.173 389.676 111.095 389.707C110.994 389.794 110.916 389.824 110.838 389.855C110.721 389.901 110.626 389.89 110.548 389.921C110.454 389.91 110.376 389.941 110.282 389.931C110.188 389.919 110.093 389.91 109.999 389.899C109.905 389.888 109.85 389.863 109.739 389.812C109.654 389.775 109.575 389.726 109.503 389.667L109.289 389.466C109.218 389.399 109.146 389.332 109.114 389.25C109.027 389.142 108.994 389.059 108.962 388.978C108.914 388.854 108.92 388.756 108.888 388.674C108.856 388.592 108.863 388.494 108.869 388.397L108.89 388.104C108.897 388.007 108.92 387.95 108.965 387.838C108.989 387.78 109.034 387.668 109.096 387.596L109.282 387.381C109.344 387.309 109.406 387.237 109.484 387.207C109.624 387.104 109.819 387.028 109.991 387.008C110.086 387.019 110.164 386.988 110.258 386.998L110.54 387.029C110.634 387.041 110.69 387.067 110.8 387.118C110.856 387.144 110.965 387.195 111.037 387.262L111.251 387.463ZM124.524 382.257C124.596 382.324 124.628 382.406 124.738 382.458C124.825 382.566 124.857 382.649 124.889 382.731C124.938 382.854 124.931 382.952 124.964 383.034C124.956 383.132 124.988 383.214 124.982 383.311C124.974 383.409 124.968 383.506 124.962 383.603C124.954 383.701 124.932 383.758 124.886 383.871C124.855 383.958 124.811 384.039 124.756 384.112L124.57 384.327C124.507 384.399 124.445 384.471 124.368 384.501C124.266 384.588 124.188 384.619 124.11 384.649C123.993 384.695 123.899 384.685 123.821 384.716C123.727 384.704 123.648 384.735 123.554 384.725L123.272 384.694C123.177 384.683 123.123 384.657 123.012 384.606C122.927 384.57 122.847 384.521 122.775 384.461L122.561 384.26C122.49 384.193 122.418 384.127 122.386 384.045C122.299 383.936 122.267 383.854 122.235 383.772C122.186 383.648 122.192 383.551 122.16 383.469C122.168 383.371 122.136 383.289 122.142 383.191L122.162 382.899C122.169 382.801 122.192 382.745 122.238 382.632C122.269 382.545 122.313 382.463 122.368 382.39L122.554 382.175C122.616 382.104 122.679 382.032 122.756 382.001C122.896 381.899 123.092 381.822 123.264 381.802C123.359 381.813 123.436 381.783 123.53 381.792C123.624 381.804 123.719 381.813 123.813 381.824C123.907 381.835 123.963 381.861 124.073 381.912C124.128 381.938 124.239 381.99 124.309 382.057L124.524 382.257ZM136.954 376.398C137.306 376.26 137.701 376.274 138.052 376.437C138.404 376.601 138.683 376.901 138.827 377.27C138.972 377.639 138.971 378.049 138.825 378.408C138.678 378.766 138.398 379.046 138.047 379.184C137.695 379.321 137.299 379.307 136.948 379.144C136.597 378.98 136.318 378.681 136.173 378.311C136.028 377.942 136.029 377.532 136.175 377.174C136.322 376.815 136.602 376.535 136.954 376.398ZM138.151 500.493C138.503 500.355 138.898 500.37 139.249 500.533C139.601 500.697 139.879 500.997 140.024 501.366C140.169 501.735 140.168 502.144 140.022 502.503C139.875 502.862 139.595 503.141 139.243 503.279C138.891 503.417 138.496 503.403 138.145 503.239C137.793 503.076 137.515 502.776 137.37 502.407C137.225 502.038 137.226 501.628 137.372 501.27C137.519 500.911 137.799 500.631 138.151 500.493ZM124.878 505.699C125.23 505.561 125.625 505.575 125.977 505.739C126.328 505.903 126.607 506.202 126.752 506.571C126.896 506.941 126.896 507.35 126.749 507.709C126.603 508.068 126.323 508.347 125.971 508.485C125.619 508.623 125.224 508.608 124.872 508.445C124.521 508.281 124.242 507.982 124.097 507.613C123.952 507.243 123.953 506.834 124.1 506.475C124.246 506.116 124.526 505.837 124.878 505.699ZM153.593 495.422C153.664 495.488 153.696 495.57 153.807 495.623C153.894 495.73 153.91 495.772 153.959 495.895C154.007 496.018 154 496.116 154.032 496.198C154.025 496.296 154.058 496.378 154.052 496.476L154.031 496.768C154.024 496.865 154.001 496.922 153.955 497.035C153.932 497.093 153.886 497.204 153.825 497.276L153.639 497.491C153.577 497.564 153.515 497.635 153.437 497.666C153.336 497.752 153.258 497.783 153.18 497.814C153.063 497.859 152.969 497.85 152.89 497.88C152.796 497.869 152.718 497.9 152.623 497.889L152.341 497.858C152.247 497.847 152.192 497.822 152.081 497.77C151.996 497.734 151.917 497.685 151.845 497.625L151.631 497.425C151.56 497.358 151.488 497.291 151.456 497.209C151.369 497.101 151.352 497.06 151.304 496.936C151.256 496.813 151.263 496.715 151.23 496.633C151.198 496.55 151.205 496.453 151.211 496.356L151.232 496.063C151.239 495.965 151.262 495.909 151.307 495.796C151.331 495.74 151.376 495.627 151.438 495.555L151.623 495.339C151.686 495.268 151.748 495.197 151.826 495.166C151.966 495.063 152.161 494.986 152.333 494.967C152.428 494.977 152.506 494.947 152.6 494.957L152.883 494.989C152.976 494.999 153.031 495.024 153.142 495.077C153.198 495.103 153.307 495.154 153.379 495.221C153.451 495.287 153.521 495.355 153.593 495.422ZM166.866 490.216C166.937 490.282 166.97 490.365 167.08 490.417C167.166 490.524 167.183 490.566 167.231 490.69C167.28 490.813 167.273 490.91 167.306 490.992C167.298 491.09 167.33 491.172 167.324 491.27C167.317 491.368 167.31 491.465 167.304 491.562C167.296 491.66 167.274 491.717 167.228 491.83C167.205 491.887 167.16 491.999 167.097 492.07L166.912 492.286C166.85 492.358 166.787 492.43 166.71 492.46C166.608 492.547 166.53 492.578 166.452 492.608C166.335 492.654 166.241 492.644 166.163 492.675C166.069 492.663 165.991 492.694 165.896 492.683L165.614 492.652C165.519 492.642 165.465 492.616 165.354 492.565C165.269 492.529 165.188 492.48 165.116 492.42L164.903 492.22C164.832 492.152 164.76 492.085 164.728 492.003C164.641 491.895 164.625 491.854 164.577 491.731C164.528 491.607 164.535 491.51 164.502 491.428C164.51 491.329 164.477 491.247 164.484 491.151L164.504 490.858C164.511 490.76 164.534 490.704 164.58 490.591C164.603 490.534 164.648 490.422 164.71 490.35L164.896 490.134C164.959 490.063 165.021 489.991 165.098 489.961C165.238 489.858 165.434 489.781 165.606 489.761C165.7 489.772 165.778 489.741 165.872 489.751L166.155 489.783C166.249 489.794 166.305 489.819 166.415 489.871C166.47 489.897 166.581 489.948 166.651 490.015C166.723 490.082 166.794 490.149 166.866 490.216ZM192.568 479.15C192.92 479.013 193.315 479.027 193.667 479.191C194.018 479.354 194.297 479.654 194.442 480.023C194.587 480.392 194.586 480.802 194.439 481.16C194.293 481.519 194.013 481.799 193.661 481.937C193.309 482.074 192.914 482.06 192.563 481.896C192.211 481.733 191.932 481.433 191.787 481.064C191.643 480.695 191.644 480.285 191.79 479.927C191.936 479.568 192.217 479.288 192.568 479.15ZM179.296 484.356C179.647 484.218 180.043 484.233 180.394 484.396C180.745 484.56 181.025 484.859 181.169 485.229C181.314 485.598 181.313 486.007 181.167 486.366C181.02 486.725 180.74 487.004 180.388 487.142C180.037 487.28 179.641 487.266 179.29 487.102C178.939 486.938 178.66 486.639 178.515 486.27C178.37 485.901 178.371 485.491 178.517 485.132C178.664 484.773 178.944 484.494 179.296 484.356Z" fill="#57586E"/>
</g>
<path opacity="0.102" d="M422.5 29C587.357 29 721 162.643 721 327.5C721 492.357 587.357 626 422.5 626C257.643 626 124 492.357 124 327.5C124 162.643 257.643 29 422.5 29Z" fill="#7965EF"/>
<path opacity="0.102" d="M123.995 87.998L22 146.996V29L123.995 87.998Z" fill="#FFCF70"/>
<path d="M1501.5 41C1503.43 41 1505 42.567 1505 44.5C1505 46.433 1503.43 48 1501.5 48C1499.57 48 1498 46.433 1498 44.5C1498 42.567 1499.57 41 1501.5 41Z" fill="#F2D53B"/>
<path d="M182.5 315C186.09 315 189 317.91 189 321.5C189 325.089 186.09 327.999 182.5 327.999C178.91 327.999 176 325.089 176 321.5C176 317.91 178.91 315 182.5 315Z" fill="#241E6F"/>
<path d="M81.498 176C86.192 176 89.998 179.805 89.998 184.5C89.998 189.194 86.192 193 81.498 193C76.804 193 72.998 189.194 72.998 184.5C72.998 179.805 76.804 176 81.498 176Z" fill="#5CC9A7"/>
<defs>
<clipPath id="clip0">
<rect width="134.015" height="133.921" fill="white" transform="translate(54 408.932) rotate(-21.4154)"/>
</clipPath>
</defs>
</svg>
