<svg width="723" height="589" viewBox="0 0 723 589" fill="none" xmlns="http://www.w3.org/2000/svg">
<g filter="url(#filter0_d)">
<path d="M671.93 71.9365H532.232C515.23 71.9365 501.448 85.7188 501.448 102.72V167.995C501.448 184.996 515.231 198.778 532.232 198.778H671.93C688.931 198.778 702.713 184.996 702.713 167.995V102.72C702.713 85.7188 688.931 71.9365 671.93 71.9365Z" fill="white" fill-opacity="0.01"/>
</g>
<path d="M671.93 71.9365H532.232C515.23 71.9365 501.448 85.7188 501.448 102.72V167.995C501.448 184.996 515.231 198.778 532.232 198.778H671.93C688.931 198.778 702.713 184.996 702.713 167.995V102.72C702.713 85.7188 688.931 71.9365 671.93 71.9365Z" fill="white"/>
<path d="M678.165 99.0845H525.996C523.682 99.0845 521.807 100.96 521.807 103.274C521.807 105.588 523.682 107.464 525.996 107.464H678.165C680.479 107.464 682.355 105.588 682.355 103.274C682.355 100.96 680.479 99.0845 678.165 99.0845Z" fill="#EFF0F7"/>
<g filter="url(#filter1_d)">
<path d="M581.255 99.0845H525.996C523.682 99.0845 521.807 100.96 521.807 103.274C521.807 105.588 523.682 107.464 525.996 107.464H581.255C583.569 107.464 585.445 105.588 585.445 103.274C585.445 100.96 583.569 99.0845 581.255 99.0845Z" fill="#3F80FD" fill-opacity="0.01"/>
</g>
<path d="M581.448 99.0845H526.189C523.875 99.0845 522 100.96 522 103.274C522 105.588 523.875 107.464 526.189 107.464H581.448C583.762 107.464 585.638 105.588 585.638 103.274C585.638 100.96 583.762 99.0845 581.448 99.0845Z" fill="#3F80FD"/>
<path d="M678.165 115.126H525.996C523.682 115.126 521.807 117.002 521.807 119.316C521.807 121.63 523.682 123.506 525.996 123.506H678.165C680.479 123.506 682.355 121.63 682.355 119.316C682.355 117.002 680.479 115.126 678.165 115.126Z" fill="#EFF0F7"/>
<g filter="url(#filter2_d)">
<path d="M661.765 115.126H525.996C523.682 115.126 521.807 117.002 521.807 119.316C521.807 121.63 523.682 123.506 525.996 123.506H661.765C664.079 123.506 665.955 121.63 665.955 119.316C665.955 117.002 664.079 115.126 661.765 115.126Z" fill="#3F80FD" fill-opacity="0.01"/>
</g>
<path d="M661.958 115.126H526.189C523.875 115.126 522 117.002 522 119.316C522 121.63 523.875 123.506 526.189 123.506H661.958C664.272 123.506 666.148 121.63 666.148 119.316C666.148 117.002 664.272 115.126 661.958 115.126Z" fill="#3F80FD"/>
<path d="M678.165 131.168H525.996C523.682 131.168 521.807 133.044 521.807 135.357C521.807 137.671 523.682 139.547 525.996 139.547H678.165C680.479 139.547 682.355 137.671 682.355 135.357C682.355 133.044 680.479 131.168 678.165 131.168Z" fill="#EFF0F7"/>
<g filter="url(#filter3_d)">
<path d="M572.841 131.063H526.189C523.875 131.063 522 132.939 522 135.253C522 137.567 523.875 139.443 526.189 139.443H572.841C575.155 139.443 577.031 137.567 577.031 135.253C577.031 132.939 575.155 131.063 572.841 131.063Z" fill="#3F80FD" fill-opacity="0.01"/>
</g>
<path d="M572.944 131.063H526.189C523.875 131.063 522 132.939 522 135.253C522 137.567 523.875 139.443 526.189 139.443H572.944C575.258 139.443 577.134 137.567 577.134 135.253C577.134 132.939 575.258 131.063 572.944 131.063Z" fill="#3F80FD"/>
<path d="M678.165 147.209H525.996C523.682 147.209 521.807 149.085 521.807 151.399C521.807 153.713 523.682 155.589 525.996 155.589H678.165C680.479 155.589 682.355 153.713 682.355 151.399C682.355 149.085 680.479 147.209 678.165 147.209Z" fill="#EFF0F7"/>
<g filter="url(#filter4_d)">
<path d="M635.702 147.209H525.996C523.682 147.209 521.807 149.085 521.807 151.399C521.807 153.713 523.682 155.589 525.996 155.589H635.702C638.016 155.589 639.892 153.713 639.892 151.399C639.892 149.085 638.016 147.209 635.702 147.209Z" fill="#3F80FD" fill-opacity="0.01"/>
</g>
<path d="M635.702 147H525.996C523.682 147 521.807 148.876 521.807 151.19C521.807 153.504 523.682 155.38 525.996 155.38H635.702C638.016 155.38 639.892 153.504 639.892 151.19C639.892 148.876 638.016 147 635.702 147Z" fill="#3F80FD"/>
<path d="M678.165 163.251H525.996C523.682 163.251 521.807 165.127 521.807 167.441C521.807 169.755 523.682 171.63 525.996 171.63H678.165C680.479 171.63 682.355 169.755 682.355 167.441C682.355 165.127 680.479 163.251 678.165 163.251Z" fill="#EFF0F7"/>
<g filter="url(#filter5_d)">
<path d="M594.447 163.251H525.996C523.682 163.251 521.807 165.127 521.807 167.441C521.807 169.755 523.682 171.63 525.996 171.63H594.447C596.761 171.63 598.637 169.755 598.637 167.441C598.637 165.127 596.761 163.251 594.447 163.251Z" fill="#3F80FD" fill-opacity="0.01"/>
</g>
<path d="M594.64 163.251H526.189C523.875 163.251 522 165.127 522 167.441C522 169.755 523.875 171.63 526.189 171.63H594.64C596.954 171.63 598.83 169.755 598.83 167.441C598.83 165.127 596.954 163.251 594.64 163.251Z" fill="#3F80FD"/>
<g filter="url(#filter6_d)">
<path d="M290.103 154.989H202C184.327 154.989 170 169.316 170 186.989V280.258C170 297.931 184.327 312.258 202 312.258H290.103C307.776 312.258 322.103 297.931 322.103 280.258V186.989C322.103 169.316 307.776 154.989 290.103 154.989Z" fill="white" fill-opacity="0.01"/>
</g>
<path d="M290.103 154.989H202C184.327 154.989 170 169.316 170 186.989V280.258C170 297.931 184.327 312.258 202 312.258H290.103C307.776 312.258 322.103 297.931 322.103 280.258V186.989C322.103 169.316 307.776 154.989 290.103 154.989Z" fill="white"/>
<path d="M302.966 233.623C302.966 265.056 277.484 290.538 246.052 290.538C214.619 290.538 189.137 265.056 189.137 233.623C189.137 202.19 214.619 176.709 246.052 176.709C277.484 176.709 302.966 202.19 302.966 233.623ZM214.639 233.623C214.639 250.972 228.703 265.036 246.052 265.036C263.4 265.036 277.464 250.972 277.464 233.623C277.464 216.275 263.4 202.211 246.052 202.211C228.703 202.211 214.639 216.275 214.639 233.623Z" fill="#F5F7FC"/>
<g filter="url(#filter7_d)">
<path d="M252.057 189.779C258.223 190.624 264.141 192.759 269.425 196.046C274.709 199.333 279.241 203.697 282.724 208.854C286.207 214.011 288.563 219.845 289.639 225.974C290.715 232.103 290.485 238.391 288.966 244.426" stroke="#FFC226" stroke-opacity="0.01" stroke-width="25.3218" stroke-linecap="round"/>
</g>
<path d="M252.057 189.779C258.223 190.624 264.141 192.759 269.425 196.046C274.709 199.333 279.241 203.697 282.724 208.854C286.207 214.011 288.563 219.845 289.639 225.974C290.715 232.103 290.485 238.391 288.966 244.426" stroke="#FFC226" stroke-width="25.3218" stroke-linecap="round"/>
<g filter="url(#filter8_d)">
<path d="M210.208 207.668C216.874 198.463 226.827 192.175 238.003 190.108C249.179 188.041 260.722 190.353 270.24 196.565" stroke="#FF8139" stroke-opacity="0.01" stroke-width="25.3218" stroke-linecap="round"/>
</g>
<path d="M210.208 207.668C216.874 198.463 226.827 192.175 238.003 190.108C249.179 188.041 260.722 190.353 270.24 196.565" stroke="#FF8139" stroke-width="25.3218" stroke-linecap="round"/>
<g filter="url(#filter9_d)">
<path d="M254.758 277.012C246.357 278.698 237.647 277.908 229.686 274.739C221.724 271.571 214.854 266.159 209.91 259.161C204.965 252.163 202.158 243.88 201.83 235.317C201.502 226.755 203.667 218.281 208.062 210.926" stroke="#FF3951" stroke-opacity="0.01" stroke-width="25.3218" stroke-linecap="round"/>
</g>
<path d="M254.758 277.012C246.357 278.698 237.647 277.908 229.686 274.739C221.724 271.571 214.854 266.159 209.91 259.161C204.965 252.163 202.158 243.88 201.83 235.317C201.502 226.755 203.667 218.281 208.062 210.926" stroke="#FF3951" stroke-width="25.3218" stroke-linecap="round"/>
<g filter="url(#filter10_d)">
<path d="M433.845 14H302.783C288.423 14 276.783 25.6406 276.783 40V93.7258C276.783 108.085 288.423 119.726 302.783 119.726H433.845C448.204 119.726 459.845 108.085 459.845 93.7258V40C459.845 25.6406 448.204 14 433.845 14Z" fill="white" fill-opacity="0.01"/>
</g>
<path d="M433.845 14H302.783C288.423 14 276.783 25.6406 276.783 40V93.7258C276.783 108.085 288.423 119.726 302.783 119.726H433.845C448.204 119.726 459.845 108.085 459.845 93.7258V40C459.845 25.6406 448.204 14 433.845 14Z" fill="white"/>
<path opacity="0.1" d="M400.399 59.2007C376.954 45.9786 388.583 91.73 354.037 70.3918C324.209 51.9672 319.837 88.7893 303.476 100.452C300.897 102.29 297.343 107.987 294.057 108.021L438.212 107.264C440.639 107.252 442.6 105.28 442.6 102.853V25.7046C429.44 30.3434 423.844 72.4229 400.399 59.2007Z" fill="#F4263E"/>
<g filter="url(#filter11_d)">
<path d="M294.967 105.211C318.931 105.211 320.095 49.5763 354.407 69.6467C388.719 89.7171 376.399 44.7735 399.686 57.2101C422.972 69.6467 428.529 30.0672 441.601 25.7041" stroke="#F4263E" stroke-opacity="0.01" stroke-width="3.15095" stroke-linecap="round"/>
</g>
<path d="M294.967 105.211C318.931 105.211 320.095 49.5763 354.407 69.6467C388.719 89.7171 376.399 44.7735 399.686 57.2101C422.972 69.6467 428.529 30.0672 441.601 25.7041" stroke="#F4263E" stroke-width="3.15095" stroke-linecap="round"/>
<g clip-path="url(#clip0)">
<path d="M714 49C714 29.6701 698.33 14 679 14H525C505.67 14 490 29.67 490 49V237.696C490 257.026 505.67 272.696 525 272.696H679C698.33 272.696 714 257.026 714 237.696V49Z" fill="white"/>
<path d="M602 237.639C638.473 237.639 668.041 208.072 668.041 171.598C668.041 135.125 638.473 105.557 602 105.557C565.527 105.557 535.959 135.125 535.959 171.598C535.959 208.072 565.527 237.639 602 237.639Z" stroke="#EFEFF5" stroke-width="21.6552"/>
<g filter="url(#filter12_d)">
<path d="M623.914 109.299C610.3 104.511 595.493 104.313 581.756 108.737C568.019 113.161 556.11 121.962 547.849 133.795" stroke="#CAB7FF" stroke-opacity="0.01" stroke-width="21.6552" stroke-linecap="round"/>
</g>
<path d="M623.914 109.299C610.3 104.511 595.493 104.313 581.756 108.737C568.019 113.161 556.11 121.962 547.849 133.795" stroke="#CAB7FF" stroke-width="21.6552" stroke-linecap="round"/>
<g filter="url(#filter13_d)">
<path d="M593.062 237.032C602.978 238.386 613.071 237.469 622.58 234.35C632.09 231.232 640.766 225.993 647.953 219.029C655.141 212.065 660.652 203.559 664.07 194.153C667.488 184.747 668.723 174.688 667.683 164.734" stroke="#3C16A8" stroke-opacity="0.01" stroke-width="21.6552" stroke-linecap="round"/>
</g>
<path d="M593.062 237.032C602.978 238.386 613.071 237.469 622.58 234.35C632.09 231.232 640.766 225.993 647.953 219.029C655.141 212.065 660.652 203.559 664.07 194.153C667.488 184.747 668.723 174.688 667.683 164.734" stroke="#171347" stroke-width="21.6552" stroke-linecap="round"/>
<g filter="url(#filter14_d)">
<path d="M668.041 171.598C668.041 155.899 662.448 140.712 652.265 128.763C642.082 116.814 627.975 108.883 612.474 106.393" stroke="#7545FF" stroke-opacity="0.01" stroke-width="21.6552" stroke-linecap="round"/>
</g>
<path d="M668.041 171.598C668.041 155.899 662.448 140.712 652.265 128.763C642.082 116.814 627.975 108.883 612.474 106.393" stroke="#624DE3" stroke-width="21.6552" stroke-linecap="round"/>
<path d="M629.639 166.448H574.362C570.17 166.448 566.771 169.847 566.771 174.039V174.039C566.771 178.231 570.17 181.63 574.362 181.63H629.639C633.83 181.63 637.229 178.231 637.229 174.039C637.229 169.847 633.83 166.448 629.639 166.448Z" fill="#DADAE3"/>
<path d="M566.042 42.4097H512.857C508.542 42.4097 505.043 45.9081 505.043 50.2236C505.043 54.5392 508.542 58.0376 512.857 58.0376H566.042C570.357 58.0376 573.856 54.5392 573.856 50.2236C573.856 45.9081 570.357 42.4097 566.042 42.4097Z" fill="#9292C8"/>
<path d="M600.676 64.2666H511.166C507.785 64.2666 505.043 67.0077 505.043 70.3896C505.043 73.7709 507.785 76.5126 511.166 76.5126H600.676C604.058 76.5126 606.799 73.7709 606.799 70.3896C606.799 67.0077 604.058 64.2666 600.676 64.2666Z" fill="#E8E8F3"/>
<g filter="url(#filter15_d)">
<path d="M642.748 67.557C647.219 67.557 650.843 63.9326 650.843 59.4614C650.843 54.9903 647.219 51.3657 642.748 51.3657C638.276 51.3657 634.652 54.9903 634.652 59.4614C634.652 63.9326 638.276 67.557 642.748 67.557Z" fill="#7545FF" fill-opacity="0.01"/>
</g>
<path d="M642.748 67.557C647.219 67.557 650.843 63.9326 650.843 59.4614C650.843 54.9903 647.219 51.3657 642.748 51.3657C638.276 51.3657 634.652 54.9903 634.652 59.4614C634.652 63.9326 638.276 67.557 642.748 67.557Z" fill="#7545FF"/>
<path d="M665.19 67.557C669.662 67.557 673.286 63.9326 673.286 59.4614C673.286 54.9903 669.662 51.3657 665.19 51.3657C660.719 51.3657 657.095 54.9903 657.095 59.4614C657.095 63.9326 660.719 67.557 665.19 67.557Z" fill="#CAB7FF"/>
<path d="M687.633 67.557C692.104 67.557 695.729 63.9326 695.729 59.4614C695.729 54.9903 692.104 51.3657 687.633 51.3657C683.162 51.3657 679.537 54.9903 679.537 59.4614C679.537 63.9326 683.162 67.557 687.633 67.557Z" fill="#3C16A8"/>
</g>
<path d="M347.367 491.524H317.368V496.795H347.367V491.524Z" fill="#4E4B66"/>
<path d="M363.631 568.7H360.398L333.97 445.358L332.466 438.33L327.714 416.189L325.957 407.923L319.308 376.94L316.988 366.102H328.53L330.399 376.94L331.636 384.067L332.466 388.805L337.203 416.189L338.721 424.989L363.631 568.7Z" fill="#4E4B66"/>
<path d="M328.53 366.102L330.399 376.94H319.308L316.988 366.102H328.53Z" fill="#14142B"/>
<path d="M338.721 424.989L333.97 445.358L332.466 438.33L327.714 416.189L325.957 407.923L331.636 384.067L332.466 388.805L337.203 416.189L338.721 424.989Z" fill="#14142B"/>
<path d="M347.929 366.102L345.61 376.94L337.203 416.189L332.466 438.33L304.519 568.7H301.3L327.714 416.189L332.466 388.805L334.518 376.94L336.402 366.102H347.929Z" fill="#4E4B66"/>
<path d="M347.929 366.102L345.61 376.94H334.518L336.402 366.102H347.929Z" fill="#14142B"/>
<path d="M547.821 491.524H517.822V496.795H547.821V491.524Z" fill="#4E4B66"/>
<path d="M564.085 568.7H560.852L534.424 445.358L532.92 438.33L528.168 416.189L526.411 407.923L519.762 376.94L517.442 366.102H528.983L530.853 376.94L532.09 384.067L532.92 388.805L537.657 416.189L539.175 424.989L564.085 568.7Z" fill="#4E4B66"/>
<path d="M528.983 366.102L530.853 376.94H519.762L517.442 366.102H528.983Z" fill="#14142B"/>
<path d="M539.175 424.989L534.424 445.358L532.92 438.33L528.168 416.189L526.411 407.923L532.09 384.067L532.92 388.805L537.657 416.189L539.175 424.989Z" fill="#14142B"/>
<path d="M548.383 366.102L546.063 376.94L537.657 416.189L532.92 438.33L504.987 568.7H501.754L528.168 416.189L532.92 388.805L534.972 376.94L536.856 366.102H548.383Z" fill="#4E4B66"/>
<path d="M548.383 366.102L546.063 376.94H534.972L536.856 366.102H548.383Z" fill="#14142B"/>
<path d="M566.364 351.257H288.583C286.927 351.257 285.583 352.6 285.583 354.257V363.102C285.583 364.758 286.927 366.102 288.583 366.102H566.364C568.021 366.102 569.364 364.759 569.364 363.102V354.257C569.364 352.6 568.021 351.257 566.364 351.257Z" fill="#4E4B66"/>
<path d="M355.112 351.257H283.436C281.84 351.257 280.499 350.059 280.318 348.474L275.269 304.156C275.057 302.295 276.513 300.663 278.387 300.663H346.548C348.144 300.663 349.485 301.861 349.666 303.446L355.112 351.257Z" fill="#D9DBE9"/>
<path d="M351.064 347.854H286.711C285.116 347.854 283.774 346.657 283.594 345.072L278.92 304.051H346.073L351.064 347.854Z" fill="white"/>
<path d="M376.972 347.854H281.155V351.242H376.972V347.854Z" fill="#D9DBE9"/>
<path d="M397.777 347.854H301.96V351.242H397.777V347.854Z" fill="#EFF0F7"/>
<path d="M346.312 306.188L346.073 304.051H278.92L279.173 306.188H346.312Z" fill="white"/>
<path d="M448.081 310.725L449.501 312.925L451.028 315.338C452.021 316.956 452.983 318.606 453.945 320.27C455.839 323.6 457.672 326.975 459.367 330.396C462.774 337.133 465.629 344.135 467.904 351.334C468.454 353.105 468.942 354.877 469.431 356.648L470.057 359.321L470.317 360.649L470.454 361.321C470.454 361.535 470.546 361.825 470.546 361.764C470.546 361.703 470.668 361.764 470.821 361.367C470.985 361.014 471.237 360.709 471.554 360.482C471.813 360.329 471.859 360.482 471.722 360.619C471.406 360.906 471.051 361.148 470.668 361.337C469.364 361.978 467.983 362.45 466.56 362.742C464.831 363.145 463.083 363.456 461.322 363.673C457.687 364.147 453.686 364.376 449.929 364.574H449.547C448.31 364.639 447.133 365.13 446.217 365.964C445.301 366.798 444.702 367.923 444.522 369.149C444.342 370.374 444.592 371.625 445.23 372.687C445.868 373.749 446.853 374.557 448.02 374.975C452.237 376.487 456.596 377.567 461.031 378.197C465.99 379.006 471.057 378.876 475.967 377.815C477.554 377.426 479.091 376.857 480.549 376.12C482.392 375.185 484.056 373.934 485.467 372.424C487.115 370.633 488.336 368.493 489.04 366.163C489.638 364.06 489.85 361.866 489.666 359.687C489.666 359.107 489.666 358.893 489.575 358.603L489.468 357.763L489.269 356.053C489.101 354.938 488.949 353.808 488.765 352.693C488.384 350.463 487.956 348.249 487.421 346.08C485.331 337.498 482.394 329.144 478.655 321.141C476.807 317.201 474.837 313.322 472.684 309.55C471.615 307.656 470.485 305.793 469.324 303.945C468.744 303.013 468.148 302.097 467.522 301.165C466.896 300.234 466.316 299.394 465.521 298.294C463.877 296.082 461.441 294.591 458.723 294.132C456.005 293.672 453.215 294.281 450.935 295.83C448.655 297.379 447.061 299.748 446.487 302.444C445.912 305.14 446.401 307.954 447.852 310.298L448.081 310.725Z" fill="white"/>
<path d="M407.244 249.088C407.091 250.127 406.419 250.875 405.717 250.783C405.014 250.692 404.617 249.76 404.77 248.737C404.923 247.714 405.595 246.95 406.297 247.042C407 247.133 407.397 248.065 407.244 249.088Z" fill="#14142B"/>
<path d="M406.51 250.89C404.813 253.856 400.069 258.112 400.279 258.969C400.489 259.826 401.661 260.038 402.487 260.323C403.312 260.608 404.191 260.709 405.059 260.618L406.51 250.89Z" fill="#FF97B8"/>
<path d="M411.749 243.926C411.619 243.916 411.499 243.855 411.413 243.758C410.88 243.204 410.221 242.786 409.493 242.539C408.765 242.292 407.989 242.223 407.228 242.338C407.069 242.37 406.903 242.338 406.766 242.25C406.629 242.162 406.532 242.023 406.495 241.865C406.464 241.707 406.496 241.543 406.584 241.408C406.673 241.274 406.811 241.18 406.969 241.147C407.927 240.988 408.909 241.063 409.832 241.366C410.755 241.669 411.591 242.191 412.268 242.888C412.381 243.005 412.444 243.161 412.444 243.323C412.444 243.485 412.381 243.641 412.268 243.758C412.199 243.823 412.117 243.871 412.027 243.9C411.937 243.929 411.842 243.938 411.749 243.926Z" fill="#14142B"/>
<path d="M437.498 260.466C437.055 270.087 437.788 287.466 445.256 292.735C445.256 292.735 444.11 302.586 426.746 305.182C407.672 308.022 416.209 297.057 416.209 297.057C426.258 293.025 424.837 285.328 421.936 278.349L437.498 260.466Z" fill="#FFD5BD"/>
<path d="M448.249 296.584C448.997 292.231 449.776 287.268 446.492 286.504C442.888 285.664 424.226 288.154 418.331 292.613C412.436 297.072 415.46 304.831 415.46 304.831L448.249 296.584Z" fill="white"/>
<path d="M397.928 312.803C397.225 328.197 397.928 358.725 408.374 404.938H477.433C477.861 395.332 467.949 353.915 468.805 308.404C468.847 306.123 468.435 303.856 467.593 301.736C466.751 299.615 465.495 297.684 463.899 296.053C462.303 294.423 460.398 293.127 458.296 292.24C456.194 291.353 453.936 290.893 451.654 290.887C450.295 290.887 448.86 290.887 447.378 291.055C437.608 291.735 427.888 293 418.27 294.843C415.399 295.5 412.604 296.263 410.069 297.042C406.668 298.099 403.677 300.18 401.504 303.001C399.331 305.822 398.082 309.245 397.928 312.803Z" fill="#624DE3"/>
<path opacity="0.2" d="M408.359 340.506C409.458 348.325 411.993 361.887 402.846 376.884C401.807 370.668 400.967 364.85 400.28 359.413L408.359 340.506Z" fill="#14142B"/>
<path d="M354.54 359.428L342.918 355.427L347.652 343.209C350.293 343.593 352.781 344.686 354.849 346.372C356.918 348.059 358.489 350.275 359.396 352.785L354.54 359.428Z" fill="#FFD5BD"/>
<path d="M337.04 352.125C336.428 350.748 334.566 342.966 335.803 342.259C337.04 341.552 347.929 343.267 347.929 343.267L343.194 355.53C343.194 355.53 337.652 353.501 337.04 352.125Z" fill="#FFD5BD"/>
<path d="M398.004 311.382C397.363 313.627 396.569 316.239 395.805 318.682C395.041 321.126 394.278 323.63 393.392 326.089C391.743 331.007 389.925 335.848 388.016 340.582C386.107 345.317 383.969 349.914 381.663 354.205C379.556 358.265 376.995 362.072 374.027 365.552L385.221 363.826C383.068 362.895 380.854 361.933 378.624 360.772C376.394 359.611 374.119 358.573 371.874 357.351L365.001 353.731C362.711 352.525 360.42 351.212 358.083 350.082L357.839 349.959C356.748 349.412 355.504 349.251 354.31 349.5C353.115 349.75 352.04 350.396 351.26 351.334C350.479 352.272 350.039 353.447 350.011 354.667C349.983 355.887 350.368 357.08 351.104 358.053C352.813 360.31 354.638 362.477 356.571 364.544C358.48 366.606 360.481 368.561 362.558 370.485C364.635 372.409 366.834 374.226 369.125 375.967C371.416 377.708 373.844 379.388 376.425 380.946C378.078 381.933 380.008 382.352 381.922 382.139C383.835 381.927 385.627 381.095 387.024 379.77L387.619 379.205C392.145 374.817 396.073 369.851 399.302 364.437C402.368 359.458 405.098 354.279 407.473 348.936C409.87 343.698 411.932 338.383 413.811 333.038C414.742 330.365 415.643 327.678 416.453 324.974C417.262 322.271 417.98 319.614 418.759 316.621C419.49 313.881 419.102 310.962 417.682 308.508C416.261 306.053 413.924 304.264 411.184 303.533C408.444 302.801 405.525 303.189 403.071 304.609C400.616 306.03 398.827 308.367 398.096 311.107L398.004 311.382Z" fill="white"/>
<path d="M441.926 252.05C439.254 264.574 438.337 272.042 430.976 277.585C419.904 285.924 405.151 277.799 404.021 264.711C403.013 252.936 407.534 234.427 420.668 231.235C423.562 230.519 426.59 230.555 429.467 231.339C432.343 232.123 434.971 233.63 437.101 235.715C439.231 237.801 440.792 240.397 441.637 243.256C442.481 246.115 442.581 249.142 441.926 252.05Z" fill="#FFD5BD"/>
<path d="M414.941 253.364C408.954 252.906 409.305 250.142 410.649 248.111C411.993 246.08 415.649 240.575 413.627 238.78C411.605 236.985 405.304 240.979 407.014 233.007C408.725 225.035 419.965 214.94 429.785 221.125C449.348 217.903 455.747 225.798 452.693 233.098C468.225 239.971 457.015 253.884 450.83 253.884C456.343 258.801 436.716 275.005 434.764 273.844C432.811 272.683 410.573 265.231 414.941 253.364Z" fill="#14142B"/>
<path d="M427.037 225.126C427.24 225.123 427.44 225.08 427.627 224.999C427.813 224.917 427.981 224.8 428.121 224.653C430.397 222.364 433.234 220.712 436.348 219.863C439.462 219.013 442.744 218.995 445.867 219.811C446.26 219.903 446.673 219.836 447.016 219.624C447.36 219.413 447.605 219.074 447.7 218.681C447.791 218.289 447.724 217.875 447.512 217.532C447.301 217.189 446.962 216.943 446.57 216.849C442.926 215.919 439.104 215.954 435.478 216.95C431.852 217.946 428.548 219.869 425.891 222.53C425.607 222.816 425.447 223.203 425.447 223.607C425.447 224.01 425.607 224.397 425.891 224.683C426.041 224.832 426.22 224.949 426.418 225.025C426.615 225.101 426.825 225.136 427.037 225.126Z" fill="#14142B"/>
<path d="M447.272 267.796C447.473 267.797 447.672 267.759 447.858 267.683C448.044 267.607 448.213 267.495 448.356 267.353C452.663 263.016 454.465 259.626 453.915 256.663C453.658 255.543 453.128 254.505 452.371 253.641C451.614 252.778 450.654 252.116 449.578 251.714C449.211 251.54 448.79 251.519 448.408 251.655C448.026 251.791 447.713 252.073 447.539 252.44C447.365 252.806 447.343 253.227 447.479 253.61C447.615 253.992 447.898 254.305 448.264 254.479C449.868 255.243 450.723 256.128 450.906 257.182C451.09 258.236 450.479 260.878 446.187 265.185C446.044 265.327 445.93 265.495 445.853 265.682C445.775 265.868 445.735 266.067 445.735 266.269C445.735 266.471 445.775 266.67 445.853 266.856C445.93 267.042 446.044 267.211 446.187 267.353C446.33 267.495 446.499 267.607 446.685 267.683C446.871 267.759 447.071 267.797 447.272 267.796Z" fill="#14142B"/>
<path d="M422.301 252.387C421.276 255.402 419.291 257.998 416.651 259.778C413.153 262.084 410.786 259.473 411.244 255.701C411.657 252.295 413.978 246.996 417.735 246.186C421.492 245.377 423.477 248.737 422.301 252.387Z" fill="#FFD5BD"/>
<path d="M302.89 575.297C301.241 575.297 299.637 575.068 299.103 574.335C298.966 574.138 298.892 573.903 298.892 573.663C298.892 573.423 298.966 573.188 299.103 572.991C299.206 572.813 299.345 572.657 299.51 572.534C299.676 572.41 299.864 572.322 300.065 572.273C302.218 571.693 306.724 574.259 306.922 574.381C306.975 574.41 307.018 574.455 307.043 574.51C307.068 574.565 307.073 574.627 307.06 574.686C307.052 574.748 307.026 574.805 306.985 574.852C306.944 574.898 306.89 574.931 306.83 574.946C305.529 575.17 304.211 575.288 302.89 575.297ZM300.844 572.793C300.648 572.792 300.453 572.818 300.264 572.869C300.137 572.893 300.018 572.944 299.913 573.018C299.807 573.091 299.719 573.186 299.653 573.297C299.439 573.678 299.515 573.862 299.653 573.969C300.264 574.808 303.532 574.824 305.929 574.488C304.341 573.592 302.592 573.016 300.783 572.793H300.844Z" fill="#3F80FD"/>
<path d="M306.8 574.946H306.678C305.15 574.259 302.02 571.464 302.264 569.998C302.264 569.662 302.554 569.234 303.394 569.143C303.697 569.111 304.003 569.141 304.294 569.23C304.586 569.32 304.856 569.466 305.089 569.662C306.739 571.021 307.09 574.503 307.105 574.641C307.107 574.694 307.096 574.748 307.072 574.796C307.048 574.844 307.012 574.885 306.968 574.915C306.918 574.947 306.858 574.958 306.8 574.946ZM303.638 569.708H303.455C302.905 569.708 302.875 569.983 302.86 570.044C302.722 570.929 304.814 573.098 306.418 574.075C306.272 572.602 305.674 571.211 304.708 570.09C304.408 569.84 304.029 569.704 303.638 569.708Z" fill="#3F80FD"/>
<path d="M321.476 574.641H308.556L311.015 544.738H323.935L321.476 574.641Z" fill="#FFD5BD"/>
<path d="M308.541 573.144H322.637C322.883 573.135 323.123 573.223 323.305 573.388C323.488 573.554 323.599 573.784 323.615 574.029L324.454 585.453C324.465 585.749 324.416 586.045 324.31 586.322C324.204 586.6 324.045 586.853 323.84 587.068C323.635 587.283 323.389 587.455 323.117 587.573C322.845 587.692 322.552 587.755 322.255 587.759C317.185 587.667 309.885 587.377 303.486 587.377C296.018 587.377 295.239 587.774 286.473 587.774C281.174 587.774 280.502 582.414 282.793 581.94C293.208 579.726 295.759 579.481 305.288 574.106C306.273 573.513 307.393 573.182 308.541 573.144Z" fill="#14142B"/>
<path opacity="0.2" d="M311.03 544.753L309.747 560.163H322.667L323.935 544.753H311.03Z" fill="#14142B"/>
<path d="M383.252 575.297C382.163 575.423 381.068 575.122 380.197 574.457C380.036 574.235 379.949 573.968 379.949 573.693C379.949 573.419 380.036 573.152 380.197 572.93C380.298 572.751 380.436 572.595 380.602 572.474C380.768 572.353 380.958 572.269 381.159 572.227C383.038 571.784 386.611 574.228 386.764 574.335C386.81 574.37 386.846 574.417 386.867 574.471C386.889 574.524 386.896 574.583 386.886 574.64C386.877 574.698 386.85 574.751 386.809 574.792C386.768 574.833 386.715 574.86 386.657 574.869C385.541 575.137 384.399 575.28 383.252 575.297ZM381.633 572.838C381.506 572.822 381.378 572.822 381.251 572.838C381.133 572.862 381.021 572.911 380.924 572.983C380.826 573.054 380.745 573.145 380.686 573.25C380.411 573.754 380.579 573.968 380.686 574.029C381.236 574.762 383.878 574.762 385.802 574.442C384.579 573.61 383.186 573.062 381.724 572.838H381.633Z" fill="#3F80FD"/>
<path d="M386.581 574.946H386.443C385.099 574.213 382.519 571.387 382.793 569.952C382.839 569.725 382.961 569.521 383.139 569.374C383.317 569.227 383.54 569.145 383.771 569.142C384.003 569.114 384.239 569.134 384.462 569.203C384.686 569.271 384.893 569.386 385.069 569.54C386.596 570.761 386.886 574.488 386.886 574.64C386.893 574.697 386.883 574.754 386.859 574.805C386.835 574.856 386.796 574.9 386.749 574.931C386.695 574.951 386.637 574.957 386.581 574.946ZM383.985 569.708H383.847C383.45 569.708 383.404 569.937 383.389 570.013C383.236 570.868 384.916 573.067 386.214 574.014C386.121 572.543 385.589 571.133 384.687 569.967C384.491 569.801 384.242 569.709 383.985 569.708Z" fill="#3F80FD"/>
<path d="M398.401 574.641H385.496L379.006 544.738H391.91L398.401 574.641Z" fill="#FFD5BD"/>
<path d="M384.58 573.144H399.073C399.33 573.142 399.58 573.229 399.781 573.39C399.981 573.552 400.12 573.777 400.172 574.029L402.723 585.453C402.785 585.732 402.783 586.022 402.718 586.301C402.652 586.579 402.524 586.839 402.343 587.061C402.162 587.283 401.933 587.461 401.674 587.582C401.414 587.703 401.131 587.763 400.844 587.759C395.774 587.667 393.315 587.377 386.932 587.377C383.007 587.377 377.982 587.774 372.561 587.774C367.139 587.774 366.452 582.414 368.651 581.94C378.593 579.756 379.341 576.763 382.472 573.892C383.059 573.393 383.809 573.126 384.58 573.144Z" fill="#14142B"/>
<path d="M429.067 404.938C429.067 404.938 357.442 426.67 355.67 455.443C352.417 508.436 378.41 553.595 378.41 553.595H397.775C397.775 553.595 390.414 531.207 387.772 483.207C384.458 422.883 498.524 484.612 477.433 404.938H429.067Z" fill="#171347"/>
<g opacity="0.2">
<path opacity="0.2" d="M391.926 544.753H379.006L382.35 560.163H395.271L391.926 544.753Z" fill="#14142B"/>
</g>
<path d="M408.374 404.938C408.374 404.938 315.749 411.047 312.084 460.207C307.884 516.714 306.662 553.595 306.662 553.595H325.844C325.844 553.595 335.71 518.943 344.17 469.126C346.721 454.206 378.364 451.64 408.313 449.868C434.122 448.341 453.945 446.814 456.114 418.225L455.778 404.938H408.374Z" fill="#171347"/>
<path d="M301.975 548.464C301.868 548.464 303.212 557.628 303.212 557.628H329.8L330.518 549.518L301.975 548.464Z" fill="#624DE3"/>
<path d="M372.561 548.464C372.454 548.464 375.004 557.628 375.004 557.628H401.577L401.089 549.518L372.561 548.464Z" fill="#624DE3"/>
<path d="M412.543 445.806L425.509 357.733C425.857 355.349 427.052 353.169 428.875 351.594C430.697 350.018 433.026 349.15 435.436 349.15H511.933C513.374 349.15 514.799 349.46 516.11 350.06C517.421 350.66 518.587 351.536 519.529 352.627C520.471 353.719 521.167 355 521.569 356.384C521.971 357.769 522.07 359.224 521.86 360.65L509.337 445.806C509.337 446.786 509.143 447.756 508.768 448.662C508.392 449.567 507.842 450.389 507.148 451.081C506.455 451.774 505.631 452.322 504.725 452.696C503.819 453.07 502.849 453.261 501.869 453.259H362.42C362.42 452.279 362.614 451.308 362.989 450.403C363.365 449.498 363.915 448.676 364.609 447.984C365.302 447.291 366.126 446.743 367.032 446.369C367.938 445.995 368.908 445.804 369.888 445.806H412.543Z" fill="#3F80FD"/>
<path opacity="0.5" d="M412.543 445.806L425.509 357.733C425.857 355.349 427.052 353.169 428.875 351.594C430.697 350.018 433.026 349.15 435.436 349.15H511.933C513.374 349.15 514.799 349.46 516.11 350.06C517.421 350.66 518.587 351.536 519.529 352.627C520.471 353.719 521.167 355 521.569 356.384C521.971 357.769 522.07 359.224 521.86 360.65L509.337 445.806C509.337 446.786 509.143 447.756 508.768 448.662C508.392 449.567 507.842 450.389 507.148 451.081C506.455 451.774 505.631 452.322 504.725 452.696C503.819 453.07 502.849 453.261 501.869 453.259H362.42C362.42 452.279 362.614 451.308 362.989 450.403C363.365 449.498 363.915 448.676 364.609 447.984C365.302 447.291 366.126 446.743 367.032 446.369C367.938 445.995 368.908 445.804 369.888 445.806H412.543Z" fill="white"/>
<path opacity="0.3" d="M435.436 349.15H511.933C513.374 349.15 514.799 349.46 516.11 350.06C517.421 350.66 518.587 351.536 519.529 352.627C520.471 353.719 521.167 355 521.569 356.384C521.971 357.769 522.07 359.224 521.86 360.65L509.337 445.806C509.337 446.786 509.143 447.756 508.768 448.662C508.392 449.567 507.842 450.389 507.148 451.081C506.455 451.774 505.631 452.322 504.725 452.696C503.819 453.07 502.849 453.261 501.869 453.259H420.759L435.436 349.15Z" fill="#3F80FD"/>
<path d="M508.359 588.874H512.681L501.869 453.259H497.531L508.359 588.874Z" fill="#3F80FD"/>
<path opacity="0.6" d="M508.359 588.874H512.681L501.869 453.259H497.531L508.359 588.874Z" fill="white"/>
<path d="M434.825 588.874H439.147L428.319 453.259H423.997L434.825 588.874Z" fill="#3F80FD"/>
<path opacity="0.6" d="M434.825 588.874H439.147L428.319 453.259H423.997L434.825 588.874Z" fill="white"/>
<path d="M428.166 588.874H432.503L443.316 453.259H438.994L428.166 588.874Z" fill="#3F80FD"/>
<path opacity="0.7" d="M428.166 588.874H432.503L443.316 453.259H438.994L428.166 588.874Z" fill="white"/>
<path d="M354.632 588.874H358.954L369.781 453.259H365.46L354.632 588.874Z" fill="#3F80FD"/>
<path opacity="0.7" d="M354.632 588.874H358.954L369.781 453.259H365.46L354.632 588.874Z" fill="white"/>
<path d="M103.61 156.519C103.61 156.519 123.646 147.732 129.527 172.504C134.293 192.454 144.763 195.81 144.31 199.924C143.858 204.038 108.891 213.605 89.1421 197.563L103.61 156.519Z" fill="#171347"/>
<path d="M126.894 239.923C127.624 241.898 128.325 243.587 129.098 245.361C129.871 247.136 130.672 248.839 131.488 250.556C133.134 253.991 134.994 257.311 136.883 260.574C140.713 267.235 145.154 273.525 150.149 279.364L151.108 280.451C151.452 280.838 151.623 281.081 152.339 281.811C153.668 283.149 155.312 284.133 157.119 284.673C158.771 285.138 160.505 285.235 162.199 284.959C163.55 284.747 164.867 284.362 166.12 283.814C168.159 282.903 170.081 281.749 171.845 280.38C173.452 279.144 174.991 277.821 176.453 276.416C181.871 271.013 186.645 265.001 190.678 258.499L185.597 254.663C180.757 259.8 175.553 264.583 170.027 268.974C167.649 270.918 164.984 272.482 162.128 273.611C160.983 273.997 160.196 273.825 160.396 273.768C160.596 273.711 160.582 273.768 160.539 273.768C160.496 273.768 160.224 273.353 159.995 273.038L159.208 272.008C155.023 266.409 151.244 260.517 147.903 254.377C146.214 251.286 144.64 248.123 143.108 244.946C142.35 243.358 141.606 241.769 140.89 240.166C140.175 238.564 139.459 236.889 138.887 235.444L126.894 239.923Z" fill="#FFD5BD"/>
<path d="M130.973 222.707C136.325 222.506 145.616 236.489 145.742 241.969C145.867 247.449 131.817 258.842 131.817 258.842C131.817 258.842 115.589 238.477 117.807 231.894C120.182 225.039 123.188 222.979 130.973 222.707Z" fill="#171347"/>
<path opacity="0.2" d="M131.86 227.401L139.101 250.084L132.575 257.969L131.86 227.401Z" fill="#14142B"/>
<path d="M186.742 260.831L201.544 257.066L191.536 249.168C191.536 249.168 184.094 252.302 183.622 257.511L186.742 260.831Z" fill="#FFD5BD"/>
<path d="M208.257 250.847C208.176 249.013 202.619 245.369 200.572 245.122C198.526 244.876 191.356 249.287 191.356 249.287L201.531 257.072C201.531 257.072 208.339 252.68 208.257 250.847Z" fill="#FFD5BD"/>
<path d="M93.178 572.021H105.743L105.128 542.913H92.5626L93.178 572.021Z" fill="#FFD5BD"/>
<path d="M106.959 570.561H92.7917C92.549 570.559 92.3137 570.645 92.1295 570.802C91.9452 570.96 91.8246 571.18 91.7899 571.42L90.1871 582.597C90.1569 582.879 90.1866 583.165 90.2744 583.435C90.3622 583.705 90.506 583.954 90.6965 584.165C90.887 584.375 91.1198 584.543 91.3797 584.658C91.6397 584.772 91.9209 584.831 92.2049 584.829C97.1279 584.743 99.5035 584.457 105.714 584.457C109.535 584.457 120.498 584.858 125.75 584.858C131.002 584.858 131.302 579.634 129.113 579.134C119.267 577.016 112.312 574.096 108.992 571.306C108.417 570.836 107.701 570.573 106.959 570.561Z" fill="#171347"/>
<g opacity="0.2">
<path opacity="0.2" d="M105.127 542.913L105.442 557.925H92.877L92.5478 542.913H105.127Z" fill="#14142B"/>
</g>
<path d="M136.024 228.932C136.296 236.889 134.923 255.45 126.565 298.655L75.5325 297.138C76.9636 276.401 64.6701 223.396 68.7491 220.675C72.8282 217.953 83.207 218.673 90.5016 218.457C98.2363 218.137 105.984 218.371 113.685 219.158C119.581 219.873 125.95 221.09 130.128 222.02C131.74 222.353 133.195 223.213 134.262 224.465C135.33 225.716 135.95 227.288 136.024 228.932Z" fill="#171347"/>
<path d="M93.5785 192.454C94.8235 199.953 95.8683 213.662 90.5017 218.471C94.5352 224.821 100.886 229.349 108.204 231.093C119.968 225.125 113.685 219.158 113.685 219.158C105.428 216.925 105.829 210.757 107.446 205.004L93.5785 192.454Z" fill="#FFD5BD"/>
<path d="M108.204 231.093L106.687 228.117L98.5154 229.963L108.204 231.093Z" fill="#A0A3BD"/>
<path d="M106.687 228.116C104.054 226.914 92.3164 216.829 91.4459 216.539C90.5755 216.248 85.7318 216.829 85.3495 217.898C84.9672 218.967 92.0658 241.403 94.3797 242.356C96.6935 243.308 102.308 230.978 106.687 228.116Z" fill="white"/>
<path d="M108.204 231.093L108.891 228.117L113.9 228.474L108.204 231.093Z" fill="#A0A3BD"/>
<path d="M108.891 228.117C112.941 225.426 110.77 218.07 111.553 217.341C112.336 216.612 117.376 218.251 117.65 218.686C117.923 219.12 120.495 243.104 118.952 242.356C117.409 241.608 113.27 230.979 108.891 228.117Z" fill="white"/>
<path opacity="0.2" d="M99.231 197.563L107.431 205.005C107.039 206.343 106.762 207.712 106.601 209.097C103.438 208.539 99.1737 204.919 98.9448 201.584C98.7953 200.238 98.8923 198.875 99.231 197.563Z" fill="#14142B"/>
<path d="M89.5001 175.281C89.6575 187.76 89.5 193.041 95.4247 199.724C104.412 209.741 119.753 206.879 123.274 194.601C126.479 183.567 125.692 165.02 113.757 159.467C111.132 158.232 108.234 157.688 105.339 157.888C102.444 158.087 99.6488 159.024 97.218 160.609C94.7873 162.193 92.8022 164.373 91.4513 166.941C90.1005 169.509 89.4288 172.38 89.5001 175.281Z" fill="#FFD5BD"/>
<path d="M90.5156 181.277L106.186 180.504C106.233 180.502 106.279 180.491 106.322 180.471C106.365 180.451 106.403 180.424 106.435 180.389C106.467 180.354 106.492 180.314 106.508 180.27C106.524 180.226 106.531 180.179 106.529 180.132C106.528 180.083 106.516 180.036 106.496 179.992C106.475 179.949 106.446 179.91 106.41 179.877C106.374 179.845 106.331 179.821 106.285 179.806C106.24 179.79 106.191 179.784 106.143 179.788L90.4727 180.561C90.4257 180.565 90.3798 180.578 90.3377 180.599C90.2957 180.62 90.2583 180.65 90.2277 180.686C90.1971 180.722 90.174 180.763 90.1595 180.808C90.1451 180.853 90.1396 180.9 90.1435 180.947C90.1453 180.994 90.1565 181.039 90.1763 181.081C90.1962 181.123 90.2244 181.161 90.2592 181.192C90.294 181.222 90.3346 181.246 90.3787 181.26C90.4228 181.275 90.4694 181.281 90.5156 181.277Z" fill="white"/>
<path d="M126.565 298.655C126.565 298.655 120.111 392.033 116.547 430.2C112.812 469.913 107.961 555.02 107.961 555.02H90.9738C90.9738 555.02 87.4247 468.467 88.7699 429.299C90.201 386.609 89.2994 297.553 89.2994 297.553L126.565 298.655Z" fill="#171347"/>
<path d="M89.3995 555.621H109.335L110.809 549.267L88.4693 548.479L89.3995 555.621Z" fill="#624DE3"/>
<path opacity="0.2" d="M89.4279 330.897C91.4887 328.607 93.7211 329.795 96.2685 336.321C104.755 358.589 95.7104 394.122 89.113 414.587C89.5567 389.114 89.5424 355.598 89.4279 330.897Z" fill="#14142B"/>
<path d="M109.964 180.662C109.964 181.678 110.422 182.522 111.081 182.551C111.739 182.579 112.311 181.792 112.369 180.776C112.426 179.76 111.925 178.916 111.252 178.887C110.58 178.858 109.964 179.645 109.964 180.662Z" fill="#14142B"/>
<path d="M121.413 181.005C121.413 182.021 121.871 182.865 122.529 182.894C123.188 182.923 123.76 182.135 123.817 181.119C123.875 180.103 123.374 179.259 122.701 179.23C122.028 179.202 121.413 179.917 121.413 181.005Z" fill="#14142B"/>
<path d="M122.429 179.202L124.891 178.615C124.891 178.615 123.546 180.461 122.429 179.202Z" fill="#14142B"/>
<path d="M117.006 181.764C117.791 184.118 118.899 186.353 120.297 188.404C119.764 188.753 119.16 188.979 118.529 189.066C117.898 189.152 117.255 189.097 116.648 188.905L117.006 181.764Z" fill="#FF97B8"/>
<path d="M110.937 192.597C111.409 192.695 111.887 192.758 112.368 192.783C112.408 192.785 112.447 192.779 112.484 192.766C112.522 192.752 112.556 192.732 112.585 192.705C112.614 192.678 112.638 192.646 112.655 192.611C112.672 192.575 112.681 192.536 112.683 192.497C112.68 192.42 112.649 192.348 112.597 192.293C112.544 192.237 112.473 192.203 112.397 192.196C111.135 192.164 109.899 191.834 108.789 191.232C107.68 190.63 106.729 189.773 106.014 188.733C105.994 188.699 105.967 188.669 105.935 188.646C105.903 188.622 105.866 188.606 105.828 188.596C105.789 188.587 105.749 188.585 105.71 188.592C105.671 188.598 105.633 188.612 105.599 188.633C105.566 188.652 105.537 188.678 105.513 188.708C105.49 188.739 105.473 188.774 105.464 188.812C105.454 188.849 105.453 188.888 105.459 188.926C105.465 188.964 105.479 189.001 105.499 189.033C106.119 189.963 106.92 190.757 107.855 191.37C108.789 191.982 109.838 192.399 110.937 192.597Z" fill="#14142B"/>
<path d="M85.636 186.529C85.9989 187.666 86.5827 188.721 87.3538 189.632C88.1249 190.543 89.0682 191.293 90.1296 191.839C92.9918 193.27 95.0239 190.88 94.752 187.86C94.5087 185.156 92.7342 181.12 89.6144 180.934C88.9328 180.905 88.2548 181.047 87.642 181.347C87.0293 181.647 86.5012 182.095 86.1059 182.651C85.7106 183.207 85.4605 183.853 85.3784 184.531C85.2964 185.208 85.3849 185.895 85.636 186.529Z" fill="#FFD5BD"/>
<path d="M105.485 177.17C105.607 177.197 105.734 177.184 105.848 177.133C105.962 177.081 106.055 176.994 106.115 176.884C107.474 174.494 111.009 174.122 111.038 174.107C111.115 174.1 111.19 174.077 111.258 174.041C111.326 174.004 111.387 173.955 111.436 173.895C111.485 173.835 111.522 173.766 111.545 173.692C111.567 173.618 111.575 173.541 111.567 173.463C111.56 173.386 111.537 173.312 111.501 173.243C111.464 173.175 111.415 173.115 111.355 173.065C111.295 173.016 111.226 172.979 111.152 172.957C111.078 172.934 111 172.926 110.923 172.934C110.752 172.934 106.745 173.363 105.084 176.297C105.044 176.364 105.017 176.439 105.006 176.517C104.994 176.595 104.999 176.674 105.019 176.75C105.039 176.826 105.074 176.898 105.122 176.96C105.17 177.022 105.23 177.074 105.299 177.113L105.485 177.17Z" fill="#14142B"/>
<path d="M125.105 175.166C125.206 175.19 125.312 175.186 125.41 175.153C125.509 175.12 125.597 175.06 125.663 174.98C125.72 174.925 125.765 174.86 125.796 174.787C125.826 174.715 125.842 174.637 125.842 174.558C125.842 174.479 125.826 174.401 125.796 174.329C125.765 174.256 125.72 174.191 125.663 174.136C124.978 173.486 124.148 173.01 123.242 172.746C122.336 172.482 121.38 172.439 120.454 172.619C120.3 172.659 120.169 172.759 120.089 172.895C120.008 173.032 119.985 173.195 120.025 173.349C120.068 173.5 120.168 173.629 120.304 173.709C120.44 173.789 120.601 173.814 120.754 173.778C121.489 173.639 122.246 173.68 122.961 173.897C123.676 174.114 124.328 174.5 124.862 175.023C124.93 175.089 125.014 175.138 125.105 175.166Z" fill="#14142B"/>
<path d="M62.4523 235.1C60.7779 241.783 59.032 248.595 57.2432 255.293C55.4543 261.99 53.4937 268.674 51.3328 275.142C49.1718 281.611 46.4957 288.022 44.02 294.605C41.5442 301.188 39.0254 307.828 36.75 314.54L42.4744 317.245C46.1952 311.177 49.6298 305.009 53.0215 298.741C54.6911 295.611 56.3225 292.444 57.9158 289.238C59.5329 286.076 61.0642 282.67 62.4237 279.221C65.1571 272.437 67.4325 265.611 69.4647 258.742C71.4968 251.872 73.3572 245.003 74.9314 237.934L62.4523 235.1Z" fill="#FFD5BD"/>
<path d="M68.7489 220.675C63.597 222.106 57.4591 234.909 56.9281 239.493C56.3972 244.078 76.348 254.262 76.348 254.262C76.348 254.262 84.0186 239.794 82.0723 233.111C80.0259 226.17 74.645 219.072 68.7489 220.675Z" fill="#171347"/>
<path d="M111.682 572.765C112.756 572.858 113.83 572.586 114.73 571.992C114.927 571.813 115.079 571.59 115.173 571.342C115.268 571.093 115.302 570.826 115.274 570.561C115.261 570.397 115.208 570.239 115.118 570.101C115.027 569.963 114.904 569.851 114.759 569.774C113.227 568.93 108.218 571.491 107.603 571.777C107.549 571.808 107.504 571.855 107.476 571.911C107.448 571.967 107.438 572.03 107.446 572.092C107.452 572.155 107.48 572.213 107.524 572.257C107.568 572.302 107.627 572.329 107.689 572.336C109.003 572.606 110.34 572.75 111.682 572.765ZM113.929 570.16C114.115 570.149 114.302 570.184 114.472 570.261C114.533 570.292 114.583 570.339 114.618 570.397C114.654 570.455 114.673 570.522 114.673 570.59C114.701 570.765 114.684 570.945 114.624 571.113C114.564 571.281 114.462 571.43 114.329 571.548C113.571 572.235 111.467 572.35 108.719 571.892C110.343 571.019 112.105 570.433 113.929 570.16Z" fill="#3F80FD"/>
<path d="M107.789 572.321H107.903C109.406 571.634 112.368 568.93 112.197 567.513C112.197 567.169 111.896 566.754 111.08 566.668C110.783 566.634 110.482 566.662 110.196 566.751C109.91 566.839 109.646 566.987 109.42 567.184C107.846 568.5 107.56 571.878 107.546 572.021C107.541 572.073 107.551 572.126 107.574 572.174C107.596 572.222 107.631 572.263 107.674 572.293C107.71 572.31 107.749 572.319 107.789 572.321ZM110.78 567.227H110.952C111.495 567.227 111.538 567.498 111.553 567.57C111.681 568.429 109.678 570.561 108.147 571.491C108.266 570.064 108.826 568.708 109.75 567.613C110.033 567.36 110.4 567.222 110.78 567.227Z" fill="#3F80FD"/>
<path d="M19.4194 572.021H31.9843L39.5977 542.913H27.0184L19.4194 572.021Z" fill="#FFD5BD"/>
<path d="M19.3051 570.561H33.4299C33.5433 570.552 33.6573 570.568 33.7636 570.608C33.8699 570.648 33.9658 570.712 34.0441 570.795C34.1224 570.877 34.1812 570.976 34.2161 571.084C34.251 571.193 34.2611 571.307 34.2457 571.42L33.387 582.597C33.2943 583.202 32.9935 583.756 32.5364 584.164C32.0793 584.571 31.4945 584.806 30.8826 584.829C25.974 584.743 23.7272 584.457 17.459 584.457C13.638 584.457 9.83132 584.858 4.57923 584.858C-0.672858 584.858 0.171526 579.634 2.47558 579.134C12.7937 577.016 13.1371 574.096 17.0726 571.306C17.7251 570.839 18.5031 570.579 19.3051 570.561Z" fill="#171347"/>
<g opacity="0.2">
<path opacity="0.2" d="M39.584 542.913L35.6771 557.925H23.0978L27.019 542.913H39.584Z" fill="#14142B"/>
</g>
<path d="M75.5322 297.138C61.0066 316.6 52.1625 388.069 45.7369 426.279C39.0538 466.02 22.6249 555.077 22.6249 555.077H39.6119C39.6119 555.077 62.724 464.489 74.8309 426.136C88.2116 383.79 108.204 297.195 108.204 297.195L75.5322 297.138Z" fill="#171347"/>
<path d="M21.4088 555.621H41.3582L42.8179 549.267L20.4786 548.479L21.4088 555.621Z" fill="#624DE3"/>
<path d="M17.6307 570.919C16.6179 570.542 15.7646 569.83 15.2121 568.901C15.1083 568.651 15.067 568.38 15.0919 568.11C15.1169 567.841 15.2073 567.582 15.3553 567.355C15.4347 567.214 15.5486 567.096 15.6862 567.011C15.8238 566.926 15.9807 566.877 16.1423 566.869C17.9026 566.769 21.3229 571.234 21.7092 571.749C21.7443 571.799 21.7632 571.859 21.7632 571.921C21.7632 571.982 21.7443 572.042 21.7092 572.092C21.6771 572.144 21.6286 572.183 21.5716 572.204C21.5145 572.225 21.4521 572.226 21.3944 572.207C20.1019 571.898 18.8417 571.466 17.6307 570.919ZM16.7291 567.599C16.5606 567.512 16.3749 567.463 16.1853 567.456C16.1179 567.458 16.0526 567.48 15.9969 567.518C15.9412 567.556 15.8974 567.608 15.8704 567.67C15.7696 567.815 15.7063 567.982 15.6863 568.157C15.6663 568.332 15.6903 568.509 15.756 568.672C16.1567 569.617 17.9741 570.618 20.6789 571.405C19.5861 569.923 18.2508 568.636 16.7291 567.599Z" fill="#3F80FD"/>
<path d="M21.3373 572.192C21.2986 572.177 21.2642 572.152 21.2371 572.121C20.1781 570.861 18.6755 567.141 19.4912 565.953C19.6915 565.667 20.0922 565.395 20.9223 565.681C21.2032 565.78 21.4611 565.935 21.6801 566.136C21.899 566.338 22.0746 566.582 22.196 566.854C23.0546 568.715 21.8525 571.892 21.8095 572.035C21.7906 572.083 21.7596 572.125 21.7194 572.158C21.6793 572.191 21.6315 572.212 21.5806 572.221C21.5406 572.236 21.4978 572.241 21.4555 572.236C21.4133 572.231 21.3728 572.216 21.3373 572.192ZM20.8364 566.311L20.6647 566.239C20.1495 566.053 20.0207 566.239 19.9921 566.239C19.4912 566.94 20.3928 569.731 21.4232 571.234C21.9334 569.894 22.0135 568.428 21.6521 567.04C21.4805 566.704 21.1897 566.444 20.8364 566.311Z" fill="#3F80FD"/>
<path d="M110.981 178.93L113.442 178.343C113.442 178.343 112.097 180.189 110.981 178.93Z" fill="#14142B"/>
<path d="M74.86 294.061L73.4289 298.598C73.2428 298.941 73.6579 299.313 74.2446 299.342L126.765 300.902C127.223 300.902 127.61 300.701 127.653 300.415L128.24 295.85C128.24 295.535 127.896 295.263 127.395 295.249L75.7186 293.703C75.5569 293.685 75.3932 293.708 75.243 293.771C75.0928 293.834 74.961 293.933 74.86 294.061Z" fill="#624DE3"/>
<path d="M81.6291 300.114H80.198C79.9261 300.114 79.7258 299.957 79.7401 299.785L80.5701 293.861C80.5701 293.689 80.842 293.56 81.1139 293.56H82.545C82.8169 293.56 83.0173 293.717 83.0029 293.889L82.1729 299.814C82.1443 299.986 81.901 300.114 81.6291 300.114Z" fill="#14142B"/>
<path d="M122.844 301.331H121.413C121.141 301.331 120.941 301.173 120.955 301.002L121.785 295.091C121.785 294.92 122.057 294.776 122.329 294.791H123.76C124.032 294.791 124.232 294.948 124.218 295.12L123.388 301.03C123.359 301.216 123.116 301.345 122.844 301.331Z" fill="#14142B"/>
<path d="M102.237 300.715H100.805C100.534 300.715 100.333 300.558 100.347 300.372L101.177 294.462C101.177 294.29 101.449 294.161 101.721 294.161H103.152C103.424 294.161 103.625 294.319 103.61 294.49L102.78 300.401C102.809 300.601 102.508 300.73 102.237 300.715Z" fill="#14142B"/>
<path d="M38.1954 312.279L28.1778 321.452L40.8572 323.083C40.8572 323.083 45.6085 316.572 43.3474 311.864L38.1954 312.279Z" fill="#FFD5BD"/>
<path d="M26.4744 331.885C27.747 333.975 35.9139 333.032 37.1647 332.672C38.4155 332.311 40.8855 323.083 40.8855 323.083L28.206 321.466C28.206 321.466 25.2019 329.795 26.4744 331.885Z" fill="#FFD5BD"/>
<path d="M102.094 157.822C102.094 157.822 112.641 152.984 124.275 167.653C110.265 171.818 100.849 168.927 100.849 168.927L102.094 157.822Z" fill="#171347"/>
<path d="M103.61 156.519C103.61 156.519 107.766 208.314 103.61 211.773C99.4548 215.232 74.993 194.359 74.6593 192.439C74.3255 190.519 76.7344 152.068 103.61 156.519Z" fill="#171347"/>
<path d="M111.124 189.205C114.444 189.205 117.492 185.098 117.936 180.046C118.124 178.69 118.038 177.31 117.685 175.988C117.331 174.666 116.715 173.428 115.875 172.347C115.478 171.879 114.985 171.501 114.43 171.239C113.874 170.977 113.269 170.838 112.655 170.83C109.335 170.83 106.272 174.937 105.829 179.989C105.639 181.346 105.725 182.727 106.082 184.05C106.438 185.373 107.058 186.61 107.904 187.688C108.301 188.157 108.794 188.534 109.349 188.796C109.905 189.058 110.51 189.197 111.124 189.205ZM112.655 171.546C113.168 171.558 113.672 171.677 114.135 171.897C114.599 172.116 115.011 172.43 115.345 172.819C116.118 173.828 116.681 174.98 117.003 176.208C117.325 177.437 117.399 178.717 117.22 179.975C116.819 184.654 114.072 188.475 111.124 188.475C110.609 188.467 110.102 188.347 109.638 188.125C109.173 187.903 108.763 187.583 108.433 187.187C107.657 186.181 107.09 185.029 106.766 183.8C106.441 182.572 106.366 181.29 106.544 180.032C106.959 175.352 109.693 171.546 112.655 171.546Z" fill="white"/>
<path d="M123.589 189.205C126.279 189.205 128.741 185.184 129.184 180.046C129.485 176.597 128.769 173.463 127.324 171.889C127.053 171.567 126.716 171.305 126.336 171.123C125.956 170.94 125.541 170.84 125.12 170.83C122.43 170.83 119.982 174.851 119.524 179.989C119.238 183.438 119.954 186.558 121.399 188.146C121.669 188.467 122.004 188.727 122.381 188.91C122.758 189.092 123.17 189.193 123.589 189.205ZM125.12 171.546C125.443 171.553 125.76 171.631 126.05 171.774C126.339 171.918 126.593 172.123 126.794 172.376C128.097 173.807 128.755 176.783 128.469 179.989C128.082 184.597 125.836 188.49 123.589 188.49C123.269 188.478 122.955 188.397 122.669 188.254C122.383 188.111 122.13 187.908 121.929 187.66C120.626 186.229 119.968 183.252 120.24 180.046C120.641 175.438 122.845 171.546 125.12 171.546Z" fill="white"/>
<path d="M117.578 180.375H117.735C118.037 180.215 118.374 180.131 118.716 180.131C119.057 180.131 119.394 180.215 119.696 180.375C119.776 180.424 119.872 180.439 119.962 180.417C120.053 180.396 120.132 180.34 120.182 180.261C120.209 180.223 120.227 180.18 120.236 180.134C120.246 180.089 120.246 180.042 120.236 179.996C120.227 179.951 120.209 179.908 120.182 179.869C120.156 179.831 120.122 179.799 120.082 179.774C119.674 179.561 119.219 179.45 118.758 179.45C118.298 179.45 117.843 179.561 117.435 179.774C117.35 179.815 117.283 179.886 117.249 179.974C117.214 180.061 117.214 180.159 117.249 180.247C117.29 180.292 117.341 180.327 117.398 180.349C117.455 180.372 117.517 180.38 117.578 180.375Z" fill="white"/>
<defs>
<filter id="filter0_d" x="481.448" y="57.9365" width="241.265" height="166.842" filterUnits="userSpaceOnUse" color-interpolation-filters="sRGB">
<feFlood flood-opacity="0" result="BackgroundImageFix"/>
<feColorMatrix in="SourceAlpha" type="matrix" values="0 0 0 0 0 0 0 0 0 0 0 0 0 0 0 0 0 0 127 0" result="hardAlpha"/>
<feOffset dy="6"/>
<feGaussianBlur stdDeviation="10"/>
<feColorMatrix type="matrix" values="0 0 0 0 0.247059 0 0 0 0 0.501961 0 0 0 0 0.992157 0 0 0 0.05 0"/>
<feBlend mode="normal" in2="BackgroundImageFix" result="effect1_dropShadow"/>
<feBlend mode="normal" in="SourceGraphic" in2="effect1_dropShadow" result="shape"/>
</filter>
<filter id="filter1_d" x="512.753" y="93.6521" width="81.746" height="26.4875" filterUnits="userSpaceOnUse" color-interpolation-filters="sRGB">
<feFlood flood-opacity="0" result="BackgroundImageFix"/>
<feColorMatrix in="SourceAlpha" type="matrix" values="0 0 0 0 0 0 0 0 0 0 0 0 0 0 0 0 0 0 127 0" result="hardAlpha"/>
<feOffset dy="3.62159"/>
<feGaussianBlur stdDeviation="4.52699"/>
<feColorMatrix type="matrix" values="0 0 0 0 0.247059 0 0 0 0 0.501961 0 0 0 0 0.992157 0 0 0 0.29 0"/>
<feBlend mode="normal" in2="BackgroundImageFix" result="effect1_dropShadow"/>
<feBlend mode="normal" in="SourceGraphic" in2="effect1_dropShadow" result="shape"/>
</filter>
<filter id="filter2_d" x="512.753" y="109.694" width="162.256" height="26.488" filterUnits="userSpaceOnUse" color-interpolation-filters="sRGB">
<feFlood flood-opacity="0" result="BackgroundImageFix"/>
<feColorMatrix in="SourceAlpha" type="matrix" values="0 0 0 0 0 0 0 0 0 0 0 0 0 0 0 0 0 0 127 0" result="hardAlpha"/>
<feOffset dy="3.62159"/>
<feGaussianBlur stdDeviation="4.52699"/>
<feColorMatrix type="matrix" values="0 0 0 0 0.247059 0 0 0 0 0.501961 0 0 0 0 0.992157 0 0 0 0.29 0"/>
<feBlend mode="normal" in2="BackgroundImageFix" result="effect1_dropShadow"/>
<feBlend mode="normal" in="SourceGraphic" in2="effect1_dropShadow" result="shape"/>
</filter>
<filter id="filter3_d" x="512.946" y="125.631" width="73.139" height="26.4879" filterUnits="userSpaceOnUse" color-interpolation-filters="sRGB">
<feFlood flood-opacity="0" result="BackgroundImageFix"/>
<feColorMatrix in="SourceAlpha" type="matrix" values="0 0 0 0 0 0 0 0 0 0 0 0 0 0 0 0 0 0 127 0" result="hardAlpha"/>
<feOffset dy="3.62159"/>
<feGaussianBlur stdDeviation="4.52699"/>
<feColorMatrix type="matrix" values="0 0 0 0 0.247059 0 0 0 0 0.501961 0 0 0 0 0.992157 0 0 0 0.29 0"/>
<feBlend mode="normal" in2="BackgroundImageFix" result="effect1_dropShadow"/>
<feBlend mode="normal" in="SourceGraphic" in2="effect1_dropShadow" result="shape"/>
</filter>
<filter id="filter4_d" x="512.753" y="141.777" width="136.193" height="26.488" filterUnits="userSpaceOnUse" color-interpolation-filters="sRGB">
<feFlood flood-opacity="0" result="BackgroundImageFix"/>
<feColorMatrix in="SourceAlpha" type="matrix" values="0 0 0 0 0 0 0 0 0 0 0 0 0 0 0 0 0 0 127 0" result="hardAlpha"/>
<feOffset dy="3.62159"/>
<feGaussianBlur stdDeviation="4.52699"/>
<feColorMatrix type="matrix" values="0 0 0 0 0.247059 0 0 0 0 0.501961 0 0 0 0 0.992157 0 0 0 0.29 0"/>
<feBlend mode="normal" in2="BackgroundImageFix" result="effect1_dropShadow"/>
<feBlend mode="normal" in="SourceGraphic" in2="effect1_dropShadow" result="shape"/>
</filter>
<filter id="filter5_d" x="512.753" y="157.819" width="94.9379" height="26.487" filterUnits="userSpaceOnUse" color-interpolation-filters="sRGB">
<feFlood flood-opacity="0" result="BackgroundImageFix"/>
<feColorMatrix in="SourceAlpha" type="matrix" values="0 0 0 0 0 0 0 0 0 0 0 0 0 0 0 0 0 0 127 0" result="hardAlpha"/>
<feOffset dy="3.62159"/>
<feGaussianBlur stdDeviation="4.52699"/>
<feColorMatrix type="matrix" values="0 0 0 0 0.247059 0 0 0 0 0.501961 0 0 0 0 0.992157 0 0 0 0.29 0"/>
<feBlend mode="normal" in2="BackgroundImageFix" result="effect1_dropShadow"/>
<feBlend mode="normal" in="SourceGraphic" in2="effect1_dropShadow" result="shape"/>
</filter>
<filter id="filter6_d" x="150" y="140.989" width="192.103" height="197.269" filterUnits="userSpaceOnUse" color-interpolation-filters="sRGB">
<feFlood flood-opacity="0" result="BackgroundImageFix"/>
<feColorMatrix in="SourceAlpha" type="matrix" values="0 0 0 0 0 0 0 0 0 0 0 0 0 0 0 0 0 0 127 0" result="hardAlpha"/>
<feOffset dy="6"/>
<feGaussianBlur stdDeviation="10"/>
<feColorMatrix type="matrix" values="0 0 0 0 1 0 0 0 0 0.505882 0 0 0 0 0.223529 0 0 0 0.1 0"/>
<feBlend mode="normal" in2="BackgroundImageFix" result="effect1_dropShadow"/>
<feBlend mode="normal" in="SourceGraphic" in2="effect1_dropShadow" result="shape"/>
</filter>
<filter id="filter7_d" x="231.603" y="173.221" width="79.1541" height="95.556" filterUnits="userSpaceOnUse" color-interpolation-filters="sRGB">
<feFlood flood-opacity="0" result="BackgroundImageFix"/>
<feColorMatrix in="SourceAlpha" type="matrix" values="0 0 0 0 0 0 0 0 0 0 0 0 0 0 0 0 0 0 127 0" result="hardAlpha"/>
<feOffset dy="3.89567"/>
<feGaussianBlur stdDeviation="3.89567"/>
<feColorMatrix type="matrix" values="0 0 0 0 1 0 0 0 0 0.760784 0 0 0 0 0.14902 0 0 0 0.21 0"/>
<feBlend mode="normal" in2="BackgroundImageFix" result="effect1_dropShadow"/>
<feBlend mode="normal" in="SourceGraphic" in2="effect1_dropShadow" result="shape"/>
</filter>
<filter id="filter8_d" x="189.755" y="172.813" width="100.938" height="59.2036" filterUnits="userSpaceOnUse" color-interpolation-filters="sRGB">
<feFlood flood-opacity="0" result="BackgroundImageFix"/>
<feColorMatrix in="SourceAlpha" type="matrix" values="0 0 0 0 0 0 0 0 0 0 0 0 0 0 0 0 0 0 127 0" result="hardAlpha"/>
<feOffset dy="3.89567"/>
<feGaussianBlur stdDeviation="3.89567"/>
<feColorMatrix type="matrix" values="0 0 0 0 1 0 0 0 0 0.505882 0 0 0 0 0.223529 0 0 0 0.16 0"/>
<feBlend mode="normal" in2="BackgroundImageFix" result="effect1_dropShadow"/>
<feBlend mode="normal" in="SourceGraphic" in2="effect1_dropShadow" result="shape"/>
</filter>
<filter id="filter9_d" x="173.554" y="188.524" width="109.45" height="123.44" filterUnits="userSpaceOnUse" color-interpolation-filters="sRGB">
<feFlood flood-opacity="0" result="BackgroundImageFix"/>
<feColorMatrix in="SourceAlpha" type="matrix" values="0 0 0 0 0 0 0 0 0 0 0 0 0 0 0 0 0 0 127 0" result="hardAlpha"/>
<feOffset dy="5.8435"/>
<feGaussianBlur stdDeviation="7.79134"/>
<feColorMatrix type="matrix" values="0 0 0 0 1 0 0 0 0 0.223529 0 0 0 0 0.317647 0 0 0 0.34 0"/>
<feBlend mode="normal" in2="BackgroundImageFix" result="effect1_dropShadow"/>
<feBlend mode="normal" in="SourceGraphic" in2="effect1_dropShadow" result="shape"/>
</filter>
<filter id="filter10_d" x="256.783" y="0" width="223.062" height="145.726" filterUnits="userSpaceOnUse" color-interpolation-filters="sRGB">
<feFlood flood-opacity="0" result="BackgroundImageFix"/>
<feColorMatrix in="SourceAlpha" type="matrix" values="0 0 0 0 0 0 0 0 0 0 0 0 0 0 0 0 0 0 127 0" result="hardAlpha"/>
<feOffset dy="6"/>
<feGaussianBlur stdDeviation="10"/>
<feColorMatrix type="matrix" values="0 0 0 0 0.956863 0 0 0 0 0.14902 0 0 0 0 0.243137 0 0 0 0.1 0"/>
<feBlend mode="normal" in2="BackgroundImageFix" result="effect1_dropShadow"/>
<feBlend mode="normal" in="SourceGraphic" in2="effect1_dropShadow" result="shape"/>
</filter>
<filter id="filter11_d" x="290.241" y="22.2378" width="156.087" height="88.96" filterUnits="userSpaceOnUse" color-interpolation-filters="sRGB">
<feFlood flood-opacity="0" result="BackgroundImageFix"/>
<feColorMatrix in="SourceAlpha" type="matrix" values="0 0 0 0 0 0 0 0 0 0 0 0 0 0 0 0 0 0 127 0" result="hardAlpha"/>
<feOffset dy="1.26038"/>
<feGaussianBlur stdDeviation="1.57548"/>
<feColorMatrix type="matrix" values="0 0 0 0 0.956863 0 0 0 0 0.14902 0 0 0 0 0.243137 0 0 0 0.33 0"/>
<feBlend mode="normal" in2="BackgroundImageFix" result="effect1_dropShadow"/>
<feBlend mode="normal" in="SourceGraphic" in2="effect1_dropShadow" result="shape"/>
</filter>
<filter id="filter12_d" x="529.043" y="94.73" width="113.68" height="65.8502" filterUnits="userSpaceOnUse" color-interpolation-filters="sRGB">
<feFlood flood-opacity="0" result="BackgroundImageFix"/>
<feColorMatrix in="SourceAlpha" type="matrix" values="0 0 0 0 0 0 0 0 0 0 0 0 0 0 0 0 0 0 127 0" result="hardAlpha"/>
<feOffset dy="7.9782"/>
<feGaussianBlur stdDeviation="3.98911"/>
<feColorMatrix type="matrix" values="0 0 0 0 0.460416 0 0 0 0 0.270833 0 0 0 0 1 0 0 0 0.09 0"/>
<feBlend mode="normal" in2="BackgroundImageFix" result="effect1_dropShadow"/>
<feBlend mode="normal" in="SourceGraphic" in2="effect1_dropShadow" result="shape"/>
</filter>
<filter id="filter13_d" x="574.255" y="153.906" width="112.592" height="110.517" filterUnits="userSpaceOnUse" color-interpolation-filters="sRGB">
<feFlood flood-opacity="0" result="BackgroundImageFix"/>
<feColorMatrix in="SourceAlpha" type="matrix" values="0 0 0 0 0 0 0 0 0 0 0 0 0 0 0 0 0 0 127 0" result="hardAlpha"/>
<feOffset dy="7.9782"/>
<feGaussianBlur stdDeviation="3.98911"/>
<feColorMatrix type="matrix" values="0 0 0 0 0.460416 0 0 0 0 0.270833 0 0 0 0 1 0 0 0 0.09 0"/>
<feBlend mode="normal" in2="BackgroundImageFix" result="effect1_dropShadow"/>
<feBlend mode="normal" in="SourceGraphic" in2="effect1_dropShadow" result="shape"/>
</filter>
<filter id="filter14_d" x="593.667" y="95.564" width="93.1798" height="102.818" filterUnits="userSpaceOnUse" color-interpolation-filters="sRGB">
<feFlood flood-opacity="0" result="BackgroundImageFix"/>
<feColorMatrix in="SourceAlpha" type="matrix" values="0 0 0 0 0 0 0 0 0 0 0 0 0 0 0 0 0 0 127 0" result="hardAlpha"/>
<feOffset dy="7.9782"/>
<feGaussianBlur stdDeviation="3.98911"/>
<feColorMatrix type="matrix" values="0 0 0 0 0.460416 0 0 0 0 0.270833 0 0 0 0 1 0 0 0 0.09 0"/>
<feBlend mode="normal" in2="BackgroundImageFix" result="effect1_dropShadow"/>
<feBlend mode="normal" in="SourceGraphic" in2="effect1_dropShadow" result="shape"/>
</filter>
<filter id="filter15_d" x="629.443" y="49.8029" width="26.6096" height="26.6099" filterUnits="userSpaceOnUse" color-interpolation-filters="sRGB">
<feFlood flood-opacity="0" result="BackgroundImageFix"/>
<feColorMatrix in="SourceAlpha" type="matrix" values="0 0 0 0 0 0 0 0 0 0 0 0 0 0 0 0 0 0 127 0" result="hardAlpha"/>
<feOffset dy="3.64651"/>
<feGaussianBlur stdDeviation="2.60465"/>
<feColorMatrix type="matrix" values="0 0 0 0 0.460416 0 0 0 0 0.270833 0 0 0 0 1 0 0 0 0.18 0"/>
<feBlend mode="normal" in2="BackgroundImageFix" result="effect1_dropShadow"/>
<feBlend mode="normal" in="SourceGraphic" in2="effect1_dropShadow" result="shape"/>
</filter>
<clipPath id="clip0">
<rect width="224" height="258.902" fill="white" transform="translate(490 14)"/>
</clipPath>
</defs>
</svg>
