<svg width="140" height="46" viewBox="0 0 140 46" fill="none" xmlns="http://www.w3.org/2000/svg">
<path d="M17.9021 0.480957H19.1349C23.4149 0.574505 27.625 2.30515 30.6489 5.36885C29.5324 6.51482 28.3926 7.61401 27.2994 8.75997C25.6014 7.21643 23.5544 6.02369 21.3214 5.60272C18.0184 4.90111 14.4595 5.53256 11.6915 7.42691C8.66763 9.41481 6.62069 12.7825 6.17874 16.3842C5.69027 19.939 6.69048 23.6809 8.99328 26.4406C11.203 29.1301 14.5758 30.814 18.0649 30.9309C21.3214 31.118 24.7174 30.1124 27.09 27.8204C28.9509 26.2067 29.8115 23.7511 30.0907 21.3656C26.2294 21.3656 22.3681 21.389 18.5069 21.3656V16.5479H34.766C35.6034 21.7164 34.3939 27.5398 30.4861 31.2349C27.8809 33.8543 24.2755 35.3978 20.6003 35.7019C17.0414 36.0527 13.3663 35.3744 10.2028 33.6438C6.41135 31.6091 3.38747 28.1712 1.89879 24.1253C0.503153 20.4067 0.479893 16.1971 1.78249 12.4551C2.96878 9.04062 5.24832 6.02369 8.17916 3.91885C10.9937 1.83741 14.413 0.691441 17.9021 0.480957Z" fill="white"/>
<path d="M111.243 1.60205H116.288V35.2252C114.614 35.2252 112.917 35.2487 111.243 35.2017C111.267 24.0175 111.243 12.8098 111.243 1.60205V1.60205Z" fill="white"/>
<path d="M45.9499 13.0213C49.0637 12.4301 52.4369 13.0922 55.008 14.9602C57.3433 16.6153 58.971 19.2163 59.4663 22.0537C60.1032 25.3404 59.3012 28.9345 57.1782 31.5354C54.8901 34.4438 51.1395 36.0043 47.4832 35.7679C44.1336 35.5787 40.8784 33.8999 38.8969 31.1571C36.656 28.1305 36.1134 23.969 37.34 20.4222C38.5667 16.6153 42.0342 13.707 45.9499 13.0213V13.0213ZM46.6576 17.5138C45.3838 17.8449 44.2044 18.5779 43.3552 19.6183C41.0671 22.3611 41.2086 26.83 43.7326 29.3837C45.1715 30.8497 47.3417 31.5354 49.3467 31.1335C51.2103 30.8024 52.8379 29.5492 53.7343 27.8941C55.2911 25.0803 54.8429 21.2025 52.4605 19.0035C50.9272 17.5848 48.6863 16.9937 46.6576 17.5138Z" fill="white"/>
<path d="M70.6106 13.0231C74.1751 12.3371 78.0702 13.3306 80.7377 15.8381C85.0813 19.7412 85.5534 27.0506 81.8472 31.5451C79.6046 34.3837 75.9692 35.945 72.381 35.7794C68.9581 35.6848 65.5824 33.9816 63.5523 31.1666C61.2624 28.0678 60.7667 23.8099 62.065 20.1906C63.3634 16.5004 66.7627 13.6854 70.6106 13.0231V13.0231ZM71.3187 17.5176C70.044 17.8488 68.8637 18.5821 68.0139 19.5992C65.7476 22.2959 65.8421 26.6958 68.2735 29.2742C69.7135 30.8118 71.9561 31.5688 74.0335 31.143C75.8748 30.7882 77.5272 29.5581 78.4243 27.9022C79.9587 25.0636 79.5102 21.1841 77.1023 18.9842C75.5679 17.5649 73.3253 16.9972 71.3187 17.5176Z" fill="white"/>
<path d="M91.5224 14.3852C94.2213 12.6935 97.8121 12.2236 100.722 13.6803C101.638 14.0797 102.389 14.7611 103.116 15.4425C103.14 14.8081 103.116 14.1502 103.14 13.4923C104.712 13.5158 106.284 13.4923 107.88 13.5158V34.239C107.857 37.3639 107.059 40.6768 104.806 42.9559C102.342 45.47 98.5631 46.2453 95.1601 45.7284C91.5224 45.188 88.354 42.533 86.9459 39.1731C88.354 38.4917 89.8326 37.9513 91.2877 37.3169C92.1091 39.2436 93.7754 40.8883 95.8642 41.2642C97.9529 41.6402 100.37 41.1232 101.731 39.3846C103.187 37.5989 103.187 35.1553 103.116 32.9702C102.037 34.0276 100.793 34.9674 99.2906 35.3198C96.0284 36.2361 92.4377 35.1084 89.9265 32.8998C87.3918 30.6912 85.8898 27.2843 86.0306 23.9009C86.101 20.0711 88.2602 16.3823 91.5224 14.3852V14.3852ZM96.3805 17.3926C94.9489 17.6276 93.6111 18.4264 92.6958 19.5307C90.4897 22.1622 90.4897 26.368 92.7193 28.9525C93.9866 30.4797 96.0284 31.3255 97.9998 31.1141C99.8539 30.9261 101.567 29.7513 102.482 28.1301C104.031 25.3811 103.773 21.6453 101.685 19.2488C100.394 17.7685 98.3284 17.0402 96.3805 17.3926V17.3926Z" fill="white"/>
<path d="M122.597 15.6153C125.372 12.9675 129.651 12.0692 133.213 13.464C136.59 14.7642 138.741 18.0502 139.828 21.4308C134.809 23.5585 129.813 25.6624 124.794 27.7901C125.488 29.1376 126.552 30.3669 127.986 30.8633C129.998 31.5962 132.403 31.3361 134.092 29.965C134.763 29.4449 135.294 28.7593 135.803 28.0974C137.075 28.9721 138.347 29.8232 139.62 30.6979C137.816 33.4638 134.786 35.4023 131.524 35.7096C127.916 36.1588 124.077 34.7404 121.741 31.8562C117.901 27.3173 118.272 19.7051 122.597 15.6153V15.6153ZM125.071 19.9887C124.285 21.1471 123.961 22.5656 123.984 23.9603C127.338 22.5419 130.692 21.1235 134.046 19.6814C133.49 18.3576 132.149 17.5538 130.784 17.341C128.587 16.9391 126.297 18.1448 125.071 19.9887V19.9887Z" fill="white"/>
</svg>
