<svg width="24" height="23" viewBox="0 0 24 23" fill="none" xmlns="http://www.w3.org/2000/svg">
<path d="M19.4082 6.45231L15.4459 5.87655L13.6739 2.28611C12.9895 0.899219 11.0103 0.899641 10.3262 2.28606L8.55414 5.8765L4.59185 6.45231C3.06124 6.67469 2.45027 8.55695 3.55736 9.6362L6.42452 12.431L5.74769 16.3772C5.48627 17.9016 7.08747 19.0643 8.45608 18.345L12.0001 16.4817L15.5441 18.345C16.9108 19.0634 18.5139 17.9013 18.2525 16.3772L17.5757 12.4309L20.4429 9.63615C21.5501 8.55653 20.9381 6.67464 19.4082 6.45231ZM19.3259 8.49048L16.1575 11.5788C15.969 11.7626 15.883 12.0274 15.9275 12.2869L16.6754 16.6477C16.713 16.8667 16.4851 17.0321 16.2885 16.9288L12.3723 14.8699C12.1392 14.7475 11.8608 14.7475 11.6277 14.8699L7.71147 16.9288C7.51478 17.0322 7.28702 16.8667 7.32456 16.6477L8.0725 12.2869C8.11699 12.0274 8.03097 11.7626 7.84244 11.5788L4.67411 8.49048C4.51497 8.33537 4.60202 8.06762 4.82191 8.03561L9.20041 7.39937C9.46094 7.3615 9.68622 7.19791 9.80275 6.9618L11.7609 2.99416C11.8592 2.79503 12.1408 2.79489 12.2391 2.9942L14.1973 6.9618C14.3138 7.19791 14.5391 7.36155 14.7996 7.39937L19.1781 8.03561C19.398 8.06762 19.485 8.33542 19.3259 8.49048Z" fill="white"/>
<path d="M6.31549 1.64665L5.35872 0.329792C5.09894 -0.0275831 4.59869 -0.106896 4.24131 0.152886C3.88389 0.412573 3.80463 0.912871 4.06436 1.27029L5.02113 2.58711C5.281 2.94467 5.78125 3.02365 6.13853 2.76401C6.49595 2.50437 6.57522 2.00407 6.31549 1.64665Z" fill="white"/>
<path d="M3.14052 13.4476C3.00406 13.0274 2.55275 12.7973 2.13247 12.934L0.552969 13.4472C0.132781 13.5837 -0.0971407 14.035 0.0393593 14.4552C0.176094 14.8761 0.628156 15.1052 1.04741 14.9688L2.62691 14.4556C3.04714 14.3191 3.27706 13.8677 3.14052 13.4476Z" fill="white"/>
<path d="M19.7586 0.152858C19.4013 -0.106829 18.901 -0.0276572 18.6412 0.329764L17.6845 1.64658C17.4247 2.004 17.504 2.50434 17.8614 2.76398C18.219 3.02376 18.7192 2.94436 18.9788 2.58708L19.9356 1.27026C20.1953 0.912842 20.1161 0.412499 19.7586 0.152858Z" fill="white"/>
<path d="M23.447 13.4472L21.8675 12.934C21.4473 12.7972 20.996 13.0274 20.8594 13.4476C20.7229 13.8678 20.9528 14.3192 21.3731 14.4557L22.9525 14.9689C23.3718 15.1052 23.8239 14.8761 23.9606 14.4553C24.0971 14.0351 23.8672 13.5838 23.447 13.4472Z" fill="white"/>
<path d="M12 19.6494C11.5582 19.6494 11.2001 20.0076 11.2001 20.4494V22.073C11.2001 22.5148 11.5582 22.873 12 22.873C12.4418 22.873 12.8 22.5148 12.8 22.073V20.4494C12.8001 20.0075 12.4419 19.6494 12 19.6494Z" fill="white"/>
</svg>
