<svg width="1440" height="987" viewBox="0 0 1440 987" fill="none" xmlns="http://www.w3.org/2000/svg">
<mask id="mask0" mask-type="alpha" maskUnits="userSpaceOnUse" x="0" y="0" width="1440" height="987">
<path d="M0 0H1440V986.5H0L0 0Z" fill="url(#paint0_linear)"/>
</mask>
<g mask="url(#mask0)">
<path d="M0 0H1440V986.5H0L0 0Z" fill="url(#paint1_linear)"/>
<rect x="-225" y="228" width="286" height="295" fill="url(#paint2_linear)"/>
<rect x="-25" y="168" width="285" height="295" fill="url(#paint3_linear)"/>
<path d="M875 -46H1440V508L994.5 382L875 -46Z" fill="url(#paint4_linear)"/>
<circle cx="757" cy="207" r="3" fill="#4541A4"/>
<circle cx="771" cy="207" r="3" fill="#4541A4"/>
<circle cx="785" cy="207" r="3" fill="#4541A4"/>
<circle cx="799" cy="207" r="3" fill="#4541A4"/>
<circle cx="813" cy="207" r="3" fill="#4541A4"/>
<circle cx="827" cy="207" r="3" fill="#4541A4"/>
<circle cx="841" cy="207" r="3" fill="#4541A4"/>
<circle cx="757" cy="221" r="3" fill="#4541A4"/>
<circle cx="771" cy="221" r="3" fill="#4541A4"/>
<circle cx="785" cy="221" r="3" fill="#4541A4"/>
<circle cx="799" cy="221" r="3" fill="#4541A4"/>
<circle cx="813" cy="221" r="3" fill="#4541A4"/>
<circle cx="827" cy="221" r="3" fill="#4541A4"/>
<circle cx="841" cy="221" r="3" fill="#4541A4"/>
<circle cx="757" cy="235" r="3" fill="#4541A4"/>
<circle cx="771" cy="235" r="3" fill="#4541A4"/>
<circle cx="785" cy="235" r="3" fill="#4541A4"/>
<circle cx="799" cy="235" r="3" fill="#4541A4"/>
<circle cx="813" cy="235" r="3" fill="#4541A4"/>
<circle cx="827" cy="235" r="3" fill="#4541A4"/>
<circle cx="841" cy="235" r="3" fill="#4541A4"/>
<circle cx="757" cy="249" r="3" fill="#4541A4"/>
<circle cx="771" cy="249" r="3" fill="#4541A4"/>
<circle cx="785" cy="249" r="3" fill="#4541A4"/>
<circle cx="799" cy="249" r="3" fill="#4541A4"/>
<circle cx="813" cy="249" r="3" fill="#4541A4"/>
<circle cx="827" cy="249" r="3" fill="#4541A4"/>
<circle cx="841" cy="249" r="3" fill="#4541A4"/>
<circle cx="757" cy="263" r="3" fill="#4541A4"/>
<circle cx="771" cy="263" r="3" fill="#4541A4"/>
<circle cx="785" cy="263" r="3" fill="#4541A4"/>
<circle cx="799" cy="263" r="3" fill="#4541A4"/>
<circle cx="813" cy="263" r="3" fill="#4541A4"/>
<circle cx="827" cy="263" r="3" fill="#4541A4"/>
<circle cx="841" cy="263" r="3" fill="#4541A4"/>
<circle cx="757" cy="277" r="3" fill="#4541A4"/>
<circle cx="771" cy="277" r="3" fill="#4541A4"/>
<circle cx="785" cy="277" r="3" fill="#4541A4"/>
<circle cx="799" cy="277" r="3" fill="#4541A4"/>
<circle cx="813" cy="277" r="3" fill="#4541A4"/>
<circle cx="827" cy="277" r="3" fill="#4541A4"/>
<circle cx="841" cy="277" r="3" fill="#4541A4"/>
<circle cx="757" cy="291" r="3" fill="#4541A4"/>
<circle cx="771" cy="291" r="3" fill="#4541A4"/>
<circle cx="785" cy="291" r="3" fill="#4541A4"/>
<circle cx="799" cy="291" r="3" fill="#4541A4"/>
<circle cx="813" cy="291" r="3" fill="#4541A4"/>
<circle cx="827" cy="291" r="3" fill="#4541A4"/>
<circle cx="841" cy="291" r="3" fill="#4541A4"/>
<circle cx="757" cy="305" r="3" fill="#4541A4"/>
<circle cx="771" cy="305" r="3" fill="#4541A4"/>
<circle cx="785" cy="305" r="3" fill="#4541A4"/>
<circle cx="799" cy="305" r="3" fill="#4541A4"/>
<circle cx="813" cy="305" r="3" fill="#4541A4"/>
<circle cx="827" cy="305" r="3" fill="#4541A4"/>
<circle cx="841" cy="305" r="3" fill="#4541A4"/>
<circle cx="757" cy="319" r="3" fill="#4541A4"/>
<circle cx="771" cy="319" r="3" fill="#4541A4"/>
<circle cx="785" cy="319" r="3" fill="#4541A4"/>
<circle cx="799" cy="319" r="3" fill="#4541A4"/>
<circle cx="813" cy="319" r="3" fill="#4541A4"/>
<circle cx="827" cy="319" r="3" fill="#4541A4"/>
<circle cx="841" cy="319" r="3" fill="#4541A4"/>
<circle cx="757" cy="333" r="3" fill="#4541A4"/>
<circle cx="771" cy="333" r="3" fill="#4541A4"/>
<circle cx="785" cy="333" r="3" fill="#4541A4"/>
<circle cx="799" cy="333" r="3" fill="#4541A4"/>
<circle cx="813" cy="333" r="3" fill="#4541A4"/>
<circle cx="827" cy="333" r="3" fill="#4541A4"/>
<circle cx="841" cy="333" r="3" fill="#4541A4"/>
<circle cx="757" cy="347" r="3" fill="#4541A4"/>
<circle cx="771" cy="347" r="3" fill="#4541A4"/>
<circle cx="785" cy="347" r="3" fill="#4541A4"/>
<circle cx="799" cy="347" r="3" fill="#4541A4"/>
<circle cx="813" cy="347" r="3" fill="#4541A4"/>
<circle cx="827" cy="347" r="3" fill="#4541A4"/>
<circle cx="841" cy="347" r="3" fill="#4541A4"/>
<circle cx="757" cy="361" r="3" fill="#4541A4"/>
<circle cx="771" cy="361" r="3" fill="#4541A4"/>
<circle cx="785" cy="361" r="3" fill="#4541A4"/>
<circle cx="799" cy="361" r="3" fill="#4541A4"/>
<circle cx="813" cy="361" r="3" fill="#4541A4"/>
<circle cx="827" cy="361" r="3" fill="#4541A4"/>
<circle cx="841" cy="361" r="3" fill="#4541A4"/>
<circle cx="855" cy="207" r="3" fill="#4541A4"/>
<circle cx="869" cy="207" r="3" fill="#4541A4"/>
<circle cx="883" cy="207" r="3" fill="#4541A4"/>
<circle cx="897" cy="207" r="3" fill="#4541A4"/>
<circle cx="911" cy="207" r="3" fill="#4541A4"/>
<circle cx="925" cy="207" r="3" fill="#4541A4"/>
<circle cx="939" cy="207" r="3" fill="#4541A4"/>
<circle cx="855" cy="221" r="3" fill="#4541A4"/>
<circle cx="869" cy="221" r="3" fill="#4541A4"/>
<circle cx="883" cy="221" r="3" fill="#4541A4"/>
<circle cx="897" cy="221" r="3" fill="#4541A4"/>
<circle cx="911" cy="221" r="3" fill="#4541A4"/>
<circle cx="925" cy="221" r="3" fill="#4541A4"/>
<circle cx="939" cy="221" r="3" fill="#4541A4"/>
<circle cx="855" cy="235" r="3" fill="#4541A4"/>
<circle cx="869" cy="235" r="3" fill="#4541A4"/>
<circle cx="883" cy="235" r="3" fill="#4541A4"/>
<circle cx="897" cy="235" r="3" fill="#4541A4"/>
<circle cx="911" cy="235" r="3" fill="#4541A4"/>
<circle cx="925" cy="235" r="3" fill="#4541A4"/>
<circle cx="939" cy="235" r="3" fill="#4541A4"/>
<circle cx="855" cy="249" r="3" fill="#4541A4"/>
<circle cx="869" cy="249" r="3" fill="#4541A4"/>
<circle cx="883" cy="249" r="3" fill="#4541A4"/>
<circle cx="897" cy="249" r="3" fill="#4541A4"/>
<circle cx="911" cy="249" r="3" fill="#4541A4"/>
<circle cx="925" cy="249" r="3" fill="#4541A4"/>
<circle cx="939" cy="249" r="3" fill="#4541A4"/>
<circle cx="855" cy="263" r="3" fill="#4541A4"/>
<circle cx="869" cy="263" r="3" fill="#4541A4"/>
<circle cx="883" cy="263" r="3" fill="#4541A4"/>
<circle cx="897" cy="263" r="3" fill="#4541A4"/>
<circle cx="911" cy="263" r="3" fill="#4541A4"/>
<circle cx="925" cy="263" r="3" fill="#4541A4"/>
<circle cx="939" cy="263" r="3" fill="#4541A4"/>
<circle cx="855" cy="277" r="3" fill="#4541A4"/>
<circle cx="869" cy="277" r="3" fill="#4541A4"/>
<circle cx="883" cy="277" r="3" fill="#4541A4"/>
<circle cx="897" cy="277" r="3" fill="#4541A4"/>
<circle cx="911" cy="277" r="3" fill="#4541A4"/>
<circle cx="925" cy="277" r="3" fill="#4541A4"/>
<circle cx="939" cy="277" r="3" fill="#4541A4"/>
<circle cx="855" cy="291" r="3" fill="#4541A4"/>
<circle cx="869" cy="291" r="3" fill="#4541A4"/>
<circle cx="883" cy="291" r="3" fill="#4541A4"/>
<circle cx="897" cy="291" r="3" fill="#4541A4"/>
<circle cx="911" cy="291" r="3" fill="#4541A4"/>
<circle cx="925" cy="291" r="3" fill="#4541A4"/>
<circle cx="939" cy="291" r="3" fill="#4541A4"/>
<circle cx="855" cy="305" r="3" fill="#4541A4"/>
<circle cx="869" cy="305" r="3" fill="#4541A4"/>
<circle cx="883" cy="305" r="3" fill="#4541A4"/>
<circle cx="897" cy="305" r="3" fill="#4541A4"/>
<circle cx="911" cy="305" r="3" fill="#4541A4"/>
<circle cx="925" cy="305" r="3" fill="#4541A4"/>
<circle cx="939" cy="305" r="3" fill="#4541A4"/>
<circle cx="855" cy="319" r="3" fill="#4541A4"/>
<circle cx="869" cy="319" r="3" fill="#4541A4"/>
<circle cx="883" cy="319" r="3" fill="#4541A4"/>
<circle cx="897" cy="319" r="3" fill="#4541A4"/>
<circle cx="911" cy="319" r="3" fill="#4541A4"/>
<circle cx="925" cy="319" r="3" fill="#4541A4"/>
<circle cx="939" cy="319" r="3" fill="#4541A4"/>
<circle cx="855" cy="333" r="3" fill="#4541A4"/>
<circle cx="869" cy="333" r="3" fill="#4541A4"/>
<circle cx="883" cy="333" r="3" fill="#4541A4"/>
<circle cx="897" cy="333" r="3" fill="#4541A4"/>
<circle cx="911" cy="333" r="3" fill="#4541A4"/>
<circle cx="925" cy="333" r="3" fill="#4541A4"/>
<circle cx="939" cy="333" r="3" fill="#4541A4"/>
<circle cx="855" cy="347" r="3" fill="#4541A4"/>
<circle cx="869" cy="347" r="3" fill="#4541A4"/>
<circle cx="883" cy="347" r="3" fill="#4541A4"/>
<circle cx="897" cy="347" r="3" fill="#4541A4"/>
<circle cx="911" cy="347" r="3" fill="#4541A4"/>
<circle cx="925" cy="347" r="3" fill="#4541A4"/>
<circle cx="939" cy="347" r="3" fill="#4541A4"/>
<circle cx="855" cy="361" r="3" fill="#4541A4"/>
<circle cx="869" cy="361" r="3" fill="#4541A4"/>
<circle cx="883" cy="361" r="3" fill="#4541A4"/>
<circle cx="897" cy="361" r="3" fill="#4541A4"/>
<circle cx="911" cy="361" r="3" fill="#4541A4"/>
<circle cx="925" cy="361" r="3" fill="#4541A4"/>
<circle cx="939" cy="361" r="3" fill="#4541A4"/>
<path d="M260 758H546L260 463V758Z" fill="url(#paint5_linear)"/>
<path d="M1440 168H1154L1440 463V168Z" fill="url(#paint6_linear)"/>
<circle cx="301" cy="217" r="3" fill="#BDA6FF"/>
<circle cx="315" cy="217" r="3" fill="#BDA6FF"/>
<circle cx="329" cy="217" r="3" fill="#BDA6FF"/>
<circle cx="301" cy="231" r="3" fill="#BDA6FF"/>
<circle cx="315" cy="231" r="3" fill="#BDA6FF"/>
<circle cx="329" cy="231" r="3" fill="#BDA6FF"/>
<circle cx="343" cy="231" r="3" fill="#BDA6FF"/>
<circle cx="357" cy="231" r="3" fill="#BDA6FF"/>
<circle cx="301" cy="245" r="3" fill="#BDA6FF"/>
<circle cx="315" cy="245" r="3" fill="#BDA6FF"/>
<circle cx="329" cy="245" r="3" fill="#BDA6FF"/>
<circle cx="343" cy="245" r="3" fill="#BDA6FF"/>
<circle cx="357" cy="245" r="3" fill="#BDA6FF"/>
<circle cx="371" cy="245" r="3" fill="#BDA6FF"/>
<circle cx="385" cy="245" r="3" fill="#BDA6FF"/>
</g>
<defs>
<linearGradient id="paint0_linear" x1="720" y1="0" x2="720" y2="951.001" gradientUnits="userSpaceOnUse">
<stop stop-color="#1C1B7E"/>
<stop offset="1" stop-color="#1E1079"/>
</linearGradient>
<linearGradient id="paint1_linear" x1="720" y1="0" x2="720" y2="951.001" gradientUnits="userSpaceOnUse">
<stop stop-color="#1C1B7E"/>
<stop offset="1" stop-color="#1E1079"/>
</linearGradient>
<linearGradient id="paint2_linear" x1="-82" y1="228" x2="-82" y2="523" gradientUnits="userSpaceOnUse">
<stop stop-color="#5652CC"/>
<stop offset="1" stop-color="#32279B"/>
</linearGradient>
<linearGradient id="paint3_linear" x1="117.5" y1="168" x2="117.5" y2="463" gradientUnits="userSpaceOnUse">
<stop stop-color="#282599"/>
<stop offset="1" stop-color="#261B86"/>
</linearGradient>
<linearGradient id="paint4_linear" x1="1172" y1="-46" x2="1172" y2="508" gradientUnits="userSpaceOnUse">
<stop stop-color="#2D29A3"/>
<stop offset="1" stop-color="#261B86" stop-opacity="0"/>
</linearGradient>
<linearGradient id="paint5_linear" x1="403" y1="463" x2="403" y2="758" gradientUnits="userSpaceOnUse">
<stop stop-color="#282599"/>
<stop offset="1" stop-color="#261B86"/>
</linearGradient>
<linearGradient id="paint6_linear" x1="1297" y1="463" x2="1297" y2="168" gradientUnits="userSpaceOnUse">
<stop stop-color="#413EB4"/>
<stop offset="1" stop-color="#453BA4"/>
</linearGradient>
</defs>
</svg>
