<svg width="1440" height="986" viewBox="0 0 1440 986" fill="none" xmlns="http://www.w3.org/2000/svg">
<mask id="mask0" mask-type="alpha" maskUnits="userSpaceOnUse" x="0" y="0" width="1440" height="986">
<path d="M1440 0H0V986H1440V0Z" fill="#C4C4C4"/>
</mask>
<g mask="url(#mask0)">
<path d="M0 0H1440V986.5H0V0Z" fill="url(#paint0_linear)"/>
<path d="M61 228H-225V523H61V228Z" fill="url(#paint1_linear)"/>
<path d="M188 161H-97V456H188V161Z" fill="url(#paint2_linear)"/>
<path d="M875 -46H1440V508L994.5 382L875 -46Z" fill="url(#paint3_linear)"/>
<path d="M820 255C821.657 255 823 253.657 823 252C823 250.343 821.657 249 820 249C818.343 249 817 250.343 817 252C817 253.657 818.343 255 820 255Z" fill="#765CFF"/>
<path d="M834 255C835.657 255 837 253.657 837 252C837 250.343 835.657 249 834 249C832.343 249 831 250.343 831 252C831 253.657 832.343 255 834 255Z" fill="#765CFF"/>
<path d="M848 255C849.657 255 851 253.657 851 252C851 250.343 849.657 249 848 249C846.343 249 845 250.343 845 252C845 253.657 846.343 255 848 255Z" fill="#765CFF"/>
<path d="M862 255C863.657 255 865 253.657 865 252C865 250.343 863.657 249 862 249C860.343 249 859 250.343 859 252C859 253.657 860.343 255 862 255Z" fill="#765CFF"/>
<path d="M876 255C877.657 255 879 253.657 879 252C879 250.343 877.657 249 876 249C874.343 249 873 250.343 873 252C873 253.657 874.343 255 876 255Z" fill="#765CFF"/>
<path d="M890 255C891.657 255 893 253.657 893 252C893 250.343 891.657 249 890 249C888.343 249 887 250.343 887 252C887 253.657 888.343 255 890 255Z" fill="#765CFF"/>
<path d="M904 255C905.657 255 907 253.657 907 252C907 250.343 905.657 249 904 249C902.343 249 901 250.343 901 252C901 253.657 902.343 255 904 255Z" fill="#765CFF"/>
<path d="M820 269C821.657 269 823 267.657 823 266C823 264.343 821.657 263 820 263C818.343 263 817 264.343 817 266C817 267.657 818.343 269 820 269Z" fill="#765CFF"/>
<path d="M834 269C835.657 269 837 267.657 837 266C837 264.343 835.657 263 834 263C832.343 263 831 264.343 831 266C831 267.657 832.343 269 834 269Z" fill="#765CFF"/>
<path d="M848 269C849.657 269 851 267.657 851 266C851 264.343 849.657 263 848 263C846.343 263 845 264.343 845 266C845 267.657 846.343 269 848 269Z" fill="#765CFF"/>
<path d="M862 269C863.657 269 865 267.657 865 266C865 264.343 863.657 263 862 263C860.343 263 859 264.343 859 266C859 267.657 860.343 269 862 269Z" fill="#765CFF"/>
<path d="M876 269C877.657 269 879 267.657 879 266C879 264.343 877.657 263 876 263C874.343 263 873 264.343 873 266C873 267.657 874.343 269 876 269Z" fill="#765CFF"/>
<path d="M890 269C891.657 269 893 267.657 893 266C893 264.343 891.657 263 890 263C888.343 263 887 264.343 887 266C887 267.657 888.343 269 890 269Z" fill="#765CFF"/>
<path d="M904 269C905.657 269 907 267.657 907 266C907 264.343 905.657 263 904 263C902.343 263 901 264.343 901 266C901 267.657 902.343 269 904 269Z" fill="#765CFF"/>
<path d="M820 283C821.657 283 823 281.657 823 280C823 278.343 821.657 277 820 277C818.343 277 817 278.343 817 280C817 281.657 818.343 283 820 283Z" fill="#765CFF"/>
<path d="M834 283C835.657 283 837 281.657 837 280C837 278.343 835.657 277 834 277C832.343 277 831 278.343 831 280C831 281.657 832.343 283 834 283Z" fill="#765CFF"/>
<path d="M848 283C849.657 283 851 281.657 851 280C851 278.343 849.657 277 848 277C846.343 277 845 278.343 845 280C845 281.657 846.343 283 848 283Z" fill="#765CFF"/>
<path d="M862 283C863.657 283 865 281.657 865 280C865 278.343 863.657 277 862 277C860.343 277 859 278.343 859 280C859 281.657 860.343 283 862 283Z" fill="#765CFF"/>
<path d="M876 283C877.657 283 879 281.657 879 280C879 278.343 877.657 277 876 277C874.343 277 873 278.343 873 280C873 281.657 874.343 283 876 283Z" fill="#765CFF"/>
<path d="M890 283C891.657 283 893 281.657 893 280C893 278.343 891.657 277 890 277C888.343 277 887 278.343 887 280C887 281.657 888.343 283 890 283Z" fill="#765CFF"/>
<path d="M904 283C905.657 283 907 281.657 907 280C907 278.343 905.657 277 904 277C902.343 277 901 278.343 901 280C901 281.657 902.343 283 904 283Z" fill="#765CFF"/>
<path d="M820 297C821.657 297 823 295.657 823 294C823 292.343 821.657 291 820 291C818.343 291 817 292.343 817 294C817 295.657 818.343 297 820 297Z" fill="#765CFF"/>
<path d="M834 297C835.657 297 837 295.657 837 294C837 292.343 835.657 291 834 291C832.343 291 831 292.343 831 294C831 295.657 832.343 297 834 297Z" fill="#765CFF"/>
<path d="M848 297C849.657 297 851 295.657 851 294C851 292.343 849.657 291 848 291C846.343 291 845 292.343 845 294C845 295.657 846.343 297 848 297Z" fill="#765CFF"/>
<path d="M862 297C863.657 297 865 295.657 865 294C865 292.343 863.657 291 862 291C860.343 291 859 292.343 859 294C859 295.657 860.343 297 862 297Z" fill="#765CFF"/>
<path d="M876 297C877.657 297 879 295.657 879 294C879 292.343 877.657 291 876 291C874.343 291 873 292.343 873 294C873 295.657 874.343 297 876 297Z" fill="#765CFF"/>
<path d="M890 297C891.657 297 893 295.657 893 294C893 292.343 891.657 291 890 291C888.343 291 887 292.343 887 294C887 295.657 888.343 297 890 297Z" fill="#765CFF"/>
<path d="M904 297C905.657 297 907 295.657 907 294C907 292.343 905.657 291 904 291C902.343 291 901 292.343 901 294C901 295.657 902.343 297 904 297Z" fill="#765CFF"/>
<path d="M820 311C821.657 311 823 309.657 823 308C823 306.343 821.657 305 820 305C818.343 305 817 306.343 817 308C817 309.657 818.343 311 820 311Z" fill="#765CFF"/>
<path d="M834 311C835.657 311 837 309.657 837 308C837 306.343 835.657 305 834 305C832.343 305 831 306.343 831 308C831 309.657 832.343 311 834 311Z" fill="#765CFF"/>
<path d="M848 311C849.657 311 851 309.657 851 308C851 306.343 849.657 305 848 305C846.343 305 845 306.343 845 308C845 309.657 846.343 311 848 311Z" fill="#765CFF"/>
<path d="M862 311C863.657 311 865 309.657 865 308C865 306.343 863.657 305 862 305C860.343 305 859 306.343 859 308C859 309.657 860.343 311 862 311Z" fill="#765CFF"/>
<path d="M876 311C877.657 311 879 309.657 879 308C879 306.343 877.657 305 876 305C874.343 305 873 306.343 873 308C873 309.657 874.343 311 876 311Z" fill="#765CFF"/>
<path d="M890 311C891.657 311 893 309.657 893 308C893 306.343 891.657 305 890 305C888.343 305 887 306.343 887 308C887 309.657 888.343 311 890 311Z" fill="#765CFF"/>
<path d="M904 311C905.657 311 907 309.657 907 308C907 306.343 905.657 305 904 305C902.343 305 901 306.343 901 308C901 309.657 902.343 311 904 311Z" fill="#765CFF"/>
<path d="M820 325C821.657 325 823 323.657 823 322C823 320.343 821.657 319 820 319C818.343 319 817 320.343 817 322C817 323.657 818.343 325 820 325Z" fill="#765CFF"/>
<path d="M834 325C835.657 325 837 323.657 837 322C837 320.343 835.657 319 834 319C832.343 319 831 320.343 831 322C831 323.657 832.343 325 834 325Z" fill="#765CFF"/>
<path d="M848 325C849.657 325 851 323.657 851 322C851 320.343 849.657 319 848 319C846.343 319 845 320.343 845 322C845 323.657 846.343 325 848 325Z" fill="#765CFF"/>
<path d="M862 325C863.657 325 865 323.657 865 322C865 320.343 863.657 319 862 319C860.343 319 859 320.343 859 322C859 323.657 860.343 325 862 325Z" fill="#765CFF"/>
<path d="M876 325C877.657 325 879 323.657 879 322C879 320.343 877.657 319 876 319C874.343 319 873 320.343 873 322C873 323.657 874.343 325 876 325Z" fill="#765CFF"/>
<path d="M890 325C891.657 325 893 323.657 893 322C893 320.343 891.657 319 890 319C888.343 319 887 320.343 887 322C887 323.657 888.343 325 890 325Z" fill="#765CFF"/>
<path d="M904 325C905.657 325 907 323.657 907 322C907 320.343 905.657 319 904 319C902.343 319 901 320.343 901 322C901 323.657 902.343 325 904 325Z" fill="#765CFF"/>
<path d="M820 339C821.657 339 823 337.657 823 336C823 334.343 821.657 333 820 333C818.343 333 817 334.343 817 336C817 337.657 818.343 339 820 339Z" fill="#765CFF"/>
<path d="M834 339C835.657 339 837 337.657 837 336C837 334.343 835.657 333 834 333C832.343 333 831 334.343 831 336C831 337.657 832.343 339 834 339Z" fill="#765CFF"/>
<path d="M848 339C849.657 339 851 337.657 851 336C851 334.343 849.657 333 848 333C846.343 333 845 334.343 845 336C845 337.657 846.343 339 848 339Z" fill="#765CFF"/>
<path d="M862 339C863.657 339 865 337.657 865 336C865 334.343 863.657 333 862 333C860.343 333 859 334.343 859 336C859 337.657 860.343 339 862 339Z" fill="#765CFF"/>
<path d="M876 339C877.657 339 879 337.657 879 336C879 334.343 877.657 333 876 333C874.343 333 873 334.343 873 336C873 337.657 874.343 339 876 339Z" fill="#765CFF"/>
<path d="M890 339C891.657 339 893 337.657 893 336C893 334.343 891.657 333 890 333C888.343 333 887 334.343 887 336C887 337.657 888.343 339 890 339Z" fill="#765CFF"/>
<path d="M904 339C905.657 339 907 337.657 907 336C907 334.343 905.657 333 904 333C902.343 333 901 334.343 901 336C901 337.657 902.343 339 904 339Z" fill="#765CFF"/>
<path d="M820 353C821.657 353 823 351.657 823 350C823 348.343 821.657 347 820 347C818.343 347 817 348.343 817 350C817 351.657 818.343 353 820 353Z" fill="#765CFF"/>
<path d="M834 353C835.657 353 837 351.657 837 350C837 348.343 835.657 347 834 347C832.343 347 831 348.343 831 350C831 351.657 832.343 353 834 353Z" fill="#765CFF"/>
<path d="M848 353C849.657 353 851 351.657 851 350C851 348.343 849.657 347 848 347C846.343 347 845 348.343 845 350C845 351.657 846.343 353 848 353Z" fill="#765CFF"/>
<path d="M862 353C863.657 353 865 351.657 865 350C865 348.343 863.657 347 862 347C860.343 347 859 348.343 859 350C859 351.657 860.343 353 862 353Z" fill="#765CFF"/>
<path d="M876 353C877.657 353 879 351.657 879 350C879 348.343 877.657 347 876 347C874.343 347 873 348.343 873 350C873 351.657 874.343 353 876 353Z" fill="#765CFF"/>
<path d="M890 353C891.657 353 893 351.657 893 350C893 348.343 891.657 347 890 347C888.343 347 887 348.343 887 350C887 351.657 888.343 353 890 353Z" fill="#765CFF"/>
<path d="M904 353C905.657 353 907 351.657 907 350C907 348.343 905.657 347 904 347C902.343 347 901 348.343 901 350C901 351.657 902.343 353 904 353Z" fill="#765CFF"/>
<path d="M820 367C821.657 367 823 365.657 823 364C823 362.343 821.657 361 820 361C818.343 361 817 362.343 817 364C817 365.657 818.343 367 820 367Z" fill="#765CFF"/>
<path d="M834 367C835.657 367 837 365.657 837 364C837 362.343 835.657 361 834 361C832.343 361 831 362.343 831 364C831 365.657 832.343 367 834 367Z" fill="#765CFF"/>
<path d="M848 367C849.657 367 851 365.657 851 364C851 362.343 849.657 361 848 361C846.343 361 845 362.343 845 364C845 365.657 846.343 367 848 367Z" fill="#765CFF"/>
<path d="M862 367C863.657 367 865 365.657 865 364C865 362.343 863.657 361 862 361C860.343 361 859 362.343 859 364C859 365.657 860.343 367 862 367Z" fill="#765CFF"/>
<path d="M876 367C877.657 367 879 365.657 879 364C879 362.343 877.657 361 876 361C874.343 361 873 362.343 873 364C873 365.657 874.343 367 876 367Z" fill="#765CFF"/>
<path d="M890 367C891.657 367 893 365.657 893 364C893 362.343 891.657 361 890 361C888.343 361 887 362.343 887 364C887 365.657 888.343 367 890 367Z" fill="#765CFF"/>
<path d="M904 367C905.657 367 907 365.657 907 364C907 362.343 905.657 361 904 361C902.343 361 901 362.343 901 364C901 365.657 902.343 367 904 367Z" fill="#765CFF"/>
<path d="M820 381C821.657 381 823 379.657 823 378C823 376.343 821.657 375 820 375C818.343 375 817 376.343 817 378C817 379.657 818.343 381 820 381Z" fill="#765CFF"/>
<path d="M834 381C835.657 381 837 379.657 837 378C837 376.343 835.657 375 834 375C832.343 375 831 376.343 831 378C831 379.657 832.343 381 834 381Z" fill="#765CFF"/>
<path d="M848 381C849.657 381 851 379.657 851 378C851 376.343 849.657 375 848 375C846.343 375 845 376.343 845 378C845 379.657 846.343 381 848 381Z" fill="#765CFF"/>
<path d="M862 381C863.657 381 865 379.657 865 378C865 376.343 863.657 375 862 375C860.343 375 859 376.343 859 378C859 379.657 860.343 381 862 381Z" fill="#765CFF"/>
<path d="M876 381C877.657 381 879 379.657 879 378C879 376.343 877.657 375 876 375C874.343 375 873 376.343 873 378C873 379.657 874.343 381 876 381Z" fill="#765CFF"/>
<path d="M890 381C891.657 381 893 379.657 893 378C893 376.343 891.657 375 890 375C888.343 375 887 376.343 887 378C887 379.657 888.343 381 890 381Z" fill="#765CFF"/>
<path d="M904 381C905.657 381 907 379.657 907 378C907 376.343 905.657 375 904 375C902.343 375 901 376.343 901 378C901 379.657 902.343 381 904 381Z" fill="#765CFF"/>
<path d="M820 395C821.657 395 823 393.657 823 392C823 390.343 821.657 389 820 389C818.343 389 817 390.343 817 392C817 393.657 818.343 395 820 395Z" fill="#765CFF"/>
<path d="M834 395C835.657 395 837 393.657 837 392C837 390.343 835.657 389 834 389C832.343 389 831 390.343 831 392C831 393.657 832.343 395 834 395Z" fill="#765CFF"/>
<path d="M848 395C849.657 395 851 393.657 851 392C851 390.343 849.657 389 848 389C846.343 389 845 390.343 845 392C845 393.657 846.343 395 848 395Z" fill="#765CFF"/>
<path d="M862 395C863.657 395 865 393.657 865 392C865 390.343 863.657 389 862 389C860.343 389 859 390.343 859 392C859 393.657 860.343 395 862 395Z" fill="#765CFF"/>
<path d="M876 395C877.657 395 879 393.657 879 392C879 390.343 877.657 389 876 389C874.343 389 873 390.343 873 392C873 393.657 874.343 395 876 395Z" fill="#765CFF"/>
<path d="M890 395C891.657 395 893 393.657 893 392C893 390.343 891.657 389 890 389C888.343 389 887 390.343 887 392C887 393.657 888.343 395 890 395Z" fill="#765CFF"/>
<path d="M904 395C905.657 395 907 393.657 907 392C907 390.343 905.657 389 904 389C902.343 389 901 390.343 901 392C901 393.657 902.343 395 904 395Z" fill="#765CFF"/>
<path d="M820 409C821.657 409 823 407.657 823 406C823 404.343 821.657 403 820 403C818.343 403 817 404.343 817 406C817 407.657 818.343 409 820 409Z" fill="#765CFF"/>
<path d="M834 409C835.657 409 837 407.657 837 406C837 404.343 835.657 403 834 403C832.343 403 831 404.343 831 406C831 407.657 832.343 409 834 409Z" fill="#765CFF"/>
<path d="M848 409C849.657 409 851 407.657 851 406C851 404.343 849.657 403 848 403C846.343 403 845 404.343 845 406C845 407.657 846.343 409 848 409Z" fill="#765CFF"/>
<path d="M862 409C863.657 409 865 407.657 865 406C865 404.343 863.657 403 862 403C860.343 403 859 404.343 859 406C859 407.657 860.343 409 862 409Z" fill="#765CFF"/>
<path d="M876 409C877.657 409 879 407.657 879 406C879 404.343 877.657 403 876 403C874.343 403 873 404.343 873 406C873 407.657 874.343 409 876 409Z" fill="#765CFF"/>
<path d="M890 409C891.657 409 893 407.657 893 406C893 404.343 891.657 403 890 403C888.343 403 887 404.343 887 406C887 407.657 888.343 409 890 409Z" fill="#765CFF"/>
<path d="M904 409C905.657 409 907 407.657 907 406C907 404.343 905.657 403 904 403C902.343 403 901 404.343 901 406C901 407.657 902.343 409 904 409Z" fill="#765CFF"/>
<path d="M918 255C919.657 255 921 253.657 921 252C921 250.343 919.657 249 918 249C916.343 249 915 250.343 915 252C915 253.657 916.343 255 918 255Z" fill="#765CFF"/>
<path d="M932 255C933.657 255 935 253.657 935 252C935 250.343 933.657 249 932 249C930.343 249 929 250.343 929 252C929 253.657 930.343 255 932 255Z" fill="#765CFF"/>
<path d="M946 255C947.657 255 949 253.657 949 252C949 250.343 947.657 249 946 249C944.343 249 943 250.343 943 252C943 253.657 944.343 255 946 255Z" fill="#765CFF"/>
<path d="M960 255C961.657 255 963 253.657 963 252C963 250.343 961.657 249 960 249C958.343 249 957 250.343 957 252C957 253.657 958.343 255 960 255Z" fill="#765CFF"/>
<path d="M974 255C975.657 255 977 253.657 977 252C977 250.343 975.657 249 974 249C972.343 249 971 250.343 971 252C971 253.657 972.343 255 974 255Z" fill="#765CFF"/>
<path d="M988 255C989.657 255 991 253.657 991 252C991 250.343 989.657 249 988 249C986.343 249 985 250.343 985 252C985 253.657 986.343 255 988 255Z" fill="#765CFF"/>
<path d="M1002 255C1003.66 255 1005 253.657 1005 252C1005 250.343 1003.66 249 1002 249C1000.34 249 999 250.343 999 252C999 253.657 1000.34 255 1002 255Z" fill="#765CFF"/>
<path d="M918 269C919.657 269 921 267.657 921 266C921 264.343 919.657 263 918 263C916.343 263 915 264.343 915 266C915 267.657 916.343 269 918 269Z" fill="#765CFF"/>
<path d="M932 269C933.657 269 935 267.657 935 266C935 264.343 933.657 263 932 263C930.343 263 929 264.343 929 266C929 267.657 930.343 269 932 269Z" fill="#765CFF"/>
<path d="M946 269C947.657 269 949 267.657 949 266C949 264.343 947.657 263 946 263C944.343 263 943 264.343 943 266C943 267.657 944.343 269 946 269Z" fill="#765CFF"/>
<path d="M960 269C961.657 269 963 267.657 963 266C963 264.343 961.657 263 960 263C958.343 263 957 264.343 957 266C957 267.657 958.343 269 960 269Z" fill="#765CFF"/>
<path d="M974 269C975.657 269 977 267.657 977 266C977 264.343 975.657 263 974 263C972.343 263 971 264.343 971 266C971 267.657 972.343 269 974 269Z" fill="#765CFF"/>
<path d="M988 269C989.657 269 991 267.657 991 266C991 264.343 989.657 263 988 263C986.343 263 985 264.343 985 266C985 267.657 986.343 269 988 269Z" fill="#765CFF"/>
<path d="M1002 269C1003.66 269 1005 267.657 1005 266C1005 264.343 1003.66 263 1002 263C1000.34 263 999 264.343 999 266C999 267.657 1000.34 269 1002 269Z" fill="#765CFF"/>
<path d="M918 283C919.657 283 921 281.657 921 280C921 278.343 919.657 277 918 277C916.343 277 915 278.343 915 280C915 281.657 916.343 283 918 283Z" fill="#765CFF"/>
<path d="M932 283C933.657 283 935 281.657 935 280C935 278.343 933.657 277 932 277C930.343 277 929 278.343 929 280C929 281.657 930.343 283 932 283Z" fill="#765CFF"/>
<path d="M946 283C947.657 283 949 281.657 949 280C949 278.343 947.657 277 946 277C944.343 277 943 278.343 943 280C943 281.657 944.343 283 946 283Z" fill="#765CFF"/>
<path d="M960 283C961.657 283 963 281.657 963 280C963 278.343 961.657 277 960 277C958.343 277 957 278.343 957 280C957 281.657 958.343 283 960 283Z" fill="#765CFF"/>
<path d="M974 283C975.657 283 977 281.657 977 280C977 278.343 975.657 277 974 277C972.343 277 971 278.343 971 280C971 281.657 972.343 283 974 283Z" fill="#765CFF"/>
<path d="M988 283C989.657 283 991 281.657 991 280C991 278.343 989.657 277 988 277C986.343 277 985 278.343 985 280C985 281.657 986.343 283 988 283Z" fill="#765CFF"/>
<path d="M1002 283C1003.66 283 1005 281.657 1005 280C1005 278.343 1003.66 277 1002 277C1000.34 277 999 278.343 999 280C999 281.657 1000.34 283 1002 283Z" fill="#765CFF"/>
<path d="M918 297C919.657 297 921 295.657 921 294C921 292.343 919.657 291 918 291C916.343 291 915 292.343 915 294C915 295.657 916.343 297 918 297Z" fill="#765CFF"/>
<path d="M932 297C933.657 297 935 295.657 935 294C935 292.343 933.657 291 932 291C930.343 291 929 292.343 929 294C929 295.657 930.343 297 932 297Z" fill="#765CFF"/>
<path d="M946 297C947.657 297 949 295.657 949 294C949 292.343 947.657 291 946 291C944.343 291 943 292.343 943 294C943 295.657 944.343 297 946 297Z" fill="#765CFF"/>
<path d="M960 297C961.657 297 963 295.657 963 294C963 292.343 961.657 291 960 291C958.343 291 957 292.343 957 294C957 295.657 958.343 297 960 297Z" fill="#765CFF"/>
<path d="M974 297C975.657 297 977 295.657 977 294C977 292.343 975.657 291 974 291C972.343 291 971 292.343 971 294C971 295.657 972.343 297 974 297Z" fill="#765CFF"/>
<path d="M988 297C989.657 297 991 295.657 991 294C991 292.343 989.657 291 988 291C986.343 291 985 292.343 985 294C985 295.657 986.343 297 988 297Z" fill="#765CFF"/>
<path d="M1002 297C1003.66 297 1005 295.657 1005 294C1005 292.343 1003.66 291 1002 291C1000.34 291 999 292.343 999 294C999 295.657 1000.34 297 1002 297Z" fill="#765CFF"/>
<path d="M918 311C919.657 311 921 309.657 921 308C921 306.343 919.657 305 918 305C916.343 305 915 306.343 915 308C915 309.657 916.343 311 918 311Z" fill="#765CFF"/>
<path d="M932 311C933.657 311 935 309.657 935 308C935 306.343 933.657 305 932 305C930.343 305 929 306.343 929 308C929 309.657 930.343 311 932 311Z" fill="#765CFF"/>
<path d="M946 311C947.657 311 949 309.657 949 308C949 306.343 947.657 305 946 305C944.343 305 943 306.343 943 308C943 309.657 944.343 311 946 311Z" fill="#765CFF"/>
<path d="M960 311C961.657 311 963 309.657 963 308C963 306.343 961.657 305 960 305C958.343 305 957 306.343 957 308C957 309.657 958.343 311 960 311Z" fill="#765CFF"/>
<path d="M974 311C975.657 311 977 309.657 977 308C977 306.343 975.657 305 974 305C972.343 305 971 306.343 971 308C971 309.657 972.343 311 974 311Z" fill="#765CFF"/>
<path d="M988 311C989.657 311 991 309.657 991 308C991 306.343 989.657 305 988 305C986.343 305 985 306.343 985 308C985 309.657 986.343 311 988 311Z" fill="#765CFF"/>
<path d="M1002 311C1003.66 311 1005 309.657 1005 308C1005 306.343 1003.66 305 1002 305C1000.34 305 999 306.343 999 308C999 309.657 1000.34 311 1002 311Z" fill="#765CFF"/>
<path d="M918 325C919.657 325 921 323.657 921 322C921 320.343 919.657 319 918 319C916.343 319 915 320.343 915 322C915 323.657 916.343 325 918 325Z" fill="#765CFF"/>
<path d="M932 325C933.657 325 935 323.657 935 322C935 320.343 933.657 319 932 319C930.343 319 929 320.343 929 322C929 323.657 930.343 325 932 325Z" fill="#765CFF"/>
<path d="M946 325C947.657 325 949 323.657 949 322C949 320.343 947.657 319 946 319C944.343 319 943 320.343 943 322C943 323.657 944.343 325 946 325Z" fill="#765CFF"/>
<path d="M960 325C961.657 325 963 323.657 963 322C963 320.343 961.657 319 960 319C958.343 319 957 320.343 957 322C957 323.657 958.343 325 960 325Z" fill="#765CFF"/>
<path d="M974 325C975.657 325 977 323.657 977 322C977 320.343 975.657 319 974 319C972.343 319 971 320.343 971 322C971 323.657 972.343 325 974 325Z" fill="#765CFF"/>
<path d="M988 325C989.657 325 991 323.657 991 322C991 320.343 989.657 319 988 319C986.343 319 985 320.343 985 322C985 323.657 986.343 325 988 325Z" fill="#765CFF"/>
<path d="M1002 325C1003.66 325 1005 323.657 1005 322C1005 320.343 1003.66 319 1002 319C1000.34 319 999 320.343 999 322C999 323.657 1000.34 325 1002 325Z" fill="#765CFF"/>
<path d="M918 339C919.657 339 921 337.657 921 336C921 334.343 919.657 333 918 333C916.343 333 915 334.343 915 336C915 337.657 916.343 339 918 339Z" fill="#765CFF"/>
<path d="M932 339C933.657 339 935 337.657 935 336C935 334.343 933.657 333 932 333C930.343 333 929 334.343 929 336C929 337.657 930.343 339 932 339Z" fill="#765CFF"/>
<path d="M946 339C947.657 339 949 337.657 949 336C949 334.343 947.657 333 946 333C944.343 333 943 334.343 943 336C943 337.657 944.343 339 946 339Z" fill="#765CFF"/>
<path d="M960 339C961.657 339 963 337.657 963 336C963 334.343 961.657 333 960 333C958.343 333 957 334.343 957 336C957 337.657 958.343 339 960 339Z" fill="#765CFF"/>
<path d="M974 339C975.657 339 977 337.657 977 336C977 334.343 975.657 333 974 333C972.343 333 971 334.343 971 336C971 337.657 972.343 339 974 339Z" fill="#765CFF"/>
<path d="M988 339C989.657 339 991 337.657 991 336C991 334.343 989.657 333 988 333C986.343 333 985 334.343 985 336C985 337.657 986.343 339 988 339Z" fill="#765CFF"/>
<path d="M1002 339C1003.66 339 1005 337.657 1005 336C1005 334.343 1003.66 333 1002 333C1000.34 333 999 334.343 999 336C999 337.657 1000.34 339 1002 339Z" fill="#765CFF"/>
<path d="M918 353C919.657 353 921 351.657 921 350C921 348.343 919.657 347 918 347C916.343 347 915 348.343 915 350C915 351.657 916.343 353 918 353Z" fill="#765CFF"/>
<path d="M932 353C933.657 353 935 351.657 935 350C935 348.343 933.657 347 932 347C930.343 347 929 348.343 929 350C929 351.657 930.343 353 932 353Z" fill="#765CFF"/>
<path d="M946 353C947.657 353 949 351.657 949 350C949 348.343 947.657 347 946 347C944.343 347 943 348.343 943 350C943 351.657 944.343 353 946 353Z" fill="#765CFF"/>
<path d="M960 353C961.657 353 963 351.657 963 350C963 348.343 961.657 347 960 347C958.343 347 957 348.343 957 350C957 351.657 958.343 353 960 353Z" fill="#765CFF"/>
<path d="M974 353C975.657 353 977 351.657 977 350C977 348.343 975.657 347 974 347C972.343 347 971 348.343 971 350C971 351.657 972.343 353 974 353Z" fill="#765CFF"/>
<path d="M988 353C989.657 353 991 351.657 991 350C991 348.343 989.657 347 988 347C986.343 347 985 348.343 985 350C985 351.657 986.343 353 988 353Z" fill="#765CFF"/>
<path d="M1002 353C1003.66 353 1005 351.657 1005 350C1005 348.343 1003.66 347 1002 347C1000.34 347 999 348.343 999 350C999 351.657 1000.34 353 1002 353Z" fill="#765CFF"/>
<path d="M918 367C919.657 367 921 365.657 921 364C921 362.343 919.657 361 918 361C916.343 361 915 362.343 915 364C915 365.657 916.343 367 918 367Z" fill="#765CFF"/>
<path d="M932 367C933.657 367 935 365.657 935 364C935 362.343 933.657 361 932 361C930.343 361 929 362.343 929 364C929 365.657 930.343 367 932 367Z" fill="#765CFF"/>
<path d="M946 367C947.657 367 949 365.657 949 364C949 362.343 947.657 361 946 361C944.343 361 943 362.343 943 364C943 365.657 944.343 367 946 367Z" fill="#765CFF"/>
<path d="M960 367C961.657 367 963 365.657 963 364C963 362.343 961.657 361 960 361C958.343 361 957 362.343 957 364C957 365.657 958.343 367 960 367Z" fill="#765CFF"/>
<path d="M974 367C975.657 367 977 365.657 977 364C977 362.343 975.657 361 974 361C972.343 361 971 362.343 971 364C971 365.657 972.343 367 974 367Z" fill="#765CFF"/>
<path d="M988 367C989.657 367 991 365.657 991 364C991 362.343 989.657 361 988 361C986.343 361 985 362.343 985 364C985 365.657 986.343 367 988 367Z" fill="#765CFF"/>
<path d="M1002 367C1003.66 367 1005 365.657 1005 364C1005 362.343 1003.66 361 1002 361C1000.34 361 999 362.343 999 364C999 365.657 1000.34 367 1002 367Z" fill="#765CFF"/>
<path d="M918 381C919.657 381 921 379.657 921 378C921 376.343 919.657 375 918 375C916.343 375 915 376.343 915 378C915 379.657 916.343 381 918 381Z" fill="#765CFF"/>
<path d="M932 381C933.657 381 935 379.657 935 378C935 376.343 933.657 375 932 375C930.343 375 929 376.343 929 378C929 379.657 930.343 381 932 381Z" fill="#765CFF"/>
<path d="M946 381C947.657 381 949 379.657 949 378C949 376.343 947.657 375 946 375C944.343 375 943 376.343 943 378C943 379.657 944.343 381 946 381Z" fill="#765CFF"/>
<path d="M960 381C961.657 381 963 379.657 963 378C963 376.343 961.657 375 960 375C958.343 375 957 376.343 957 378C957 379.657 958.343 381 960 381Z" fill="#765CFF"/>
<path d="M974 381C975.657 381 977 379.657 977 378C977 376.343 975.657 375 974 375C972.343 375 971 376.343 971 378C971 379.657 972.343 381 974 381Z" fill="#765CFF"/>
<path d="M988 381C989.657 381 991 379.657 991 378C991 376.343 989.657 375 988 375C986.343 375 985 376.343 985 378C985 379.657 986.343 381 988 381Z" fill="#765CFF"/>
<path d="M1002 381C1003.66 381 1005 379.657 1005 378C1005 376.343 1003.66 375 1002 375C1000.34 375 999 376.343 999 378C999 379.657 1000.34 381 1002 381Z" fill="#765CFF"/>
<path d="M918 395C919.657 395 921 393.657 921 392C921 390.343 919.657 389 918 389C916.343 389 915 390.343 915 392C915 393.657 916.343 395 918 395Z" fill="#765CFF"/>
<path d="M932 395C933.657 395 935 393.657 935 392C935 390.343 933.657 389 932 389C930.343 389 929 390.343 929 392C929 393.657 930.343 395 932 395Z" fill="#765CFF"/>
<path d="M946 395C947.657 395 949 393.657 949 392C949 390.343 947.657 389 946 389C944.343 389 943 390.343 943 392C943 393.657 944.343 395 946 395Z" fill="#765CFF"/>
<path d="M960 395C961.657 395 963 393.657 963 392C963 390.343 961.657 389 960 389C958.343 389 957 390.343 957 392C957 393.657 958.343 395 960 395Z" fill="#765CFF"/>
<path d="M974 395C975.657 395 977 393.657 977 392C977 390.343 975.657 389 974 389C972.343 389 971 390.343 971 392C971 393.657 972.343 395 974 395Z" fill="#765CFF"/>
<path d="M988 395C989.657 395 991 393.657 991 392C991 390.343 989.657 389 988 389C986.343 389 985 390.343 985 392C985 393.657 986.343 395 988 395Z" fill="#765CFF"/>
<path d="M1002 395C1003.66 395 1005 393.657 1005 392C1005 390.343 1003.66 389 1002 389C1000.34 389 999 390.343 999 392C999 393.657 1000.34 395 1002 395Z" fill="#765CFF"/>
<path d="M918 409C919.657 409 921 407.657 921 406C921 404.343 919.657 403 918 403C916.343 403 915 404.343 915 406C915 407.657 916.343 409 918 409Z" fill="#765CFF"/>
<path d="M932 409C933.657 409 935 407.657 935 406C935 404.343 933.657 403 932 403C930.343 403 929 404.343 929 406C929 407.657 930.343 409 932 409Z" fill="#765CFF"/>
<path d="M946 409C947.657 409 949 407.657 949 406C949 404.343 947.657 403 946 403C944.343 403 943 404.343 943 406C943 407.657 944.343 409 946 409Z" fill="#765CFF"/>
<path d="M960 409C961.657 409 963 407.657 963 406C963 404.343 961.657 403 960 403C958.343 403 957 404.343 957 406C957 407.657 958.343 409 960 409Z" fill="#765CFF"/>
<path d="M974 409C975.657 409 977 407.657 977 406C977 404.343 975.657 403 974 403C972.343 403 971 404.343 971 406C971 407.657 972.343 409 974 409Z" fill="#765CFF"/>
<path d="M988 409C989.657 409 991 407.657 991 406C991 404.343 989.657 403 988 403C986.343 403 985 404.343 985 406C985 407.657 986.343 409 988 409Z" fill="#765CFF"/>
<path d="M1002 409C1003.66 409 1005 407.657 1005 406C1005 404.343 1003.66 403 1002 403C1000.34 403 999 404.343 999 406C999 407.657 1000.34 409 1002 409Z" fill="#765CFF"/>
<path d="M0 824H286L0 529V824Z" fill="url(#paint4_linear)"/>
</g>
<defs>
<linearGradient id="paint0_linear" x1="720" y1="0" x2="720" y2="951" gradientUnits="userSpaceOnUse">
<stop offset="0.197026" stop-color="#573CE9"/>
<stop offset="1" stop-color="#1E1079"/>
</linearGradient>
<linearGradient id="paint1_linear" x1="-82" y1="228" x2="-82" y2="523" gradientUnits="userSpaceOnUse">
<stop stop-color="#5652CC"/>
<stop offset="1" stop-color="#32279B"/>
</linearGradient>
<linearGradient id="paint2_linear" x1="45.5" y1="161" x2="45.5" y2="456" gradientUnits="userSpaceOnUse">
<stop stop-color="#573CE9"/>
<stop offset="1" stop-color="#261B86" stop-opacity="0.28"/>
</linearGradient>
<linearGradient id="paint3_linear" x1="1172" y1="-46" x2="1172" y2="508" gradientUnits="userSpaceOnUse">
<stop stop-color="#573CE9"/>
<stop offset="0.914416" stop-color="#261B86" stop-opacity="0"/>
</linearGradient>
<linearGradient id="paint4_linear" x1="143" y1="529" x2="143" y2="824" gradientUnits="userSpaceOnUse">
<stop stop-color="#573CE9"/>
<stop offset="1" stop-color="#261B86"/>
</linearGradient>
</defs>
</svg>
