<?xml version="1.0" encoding="utf-8"?>
<!-- Generator: Adobe Illustrator 24.0.1, SVG Export Plug-In . SVG Version: 6.00 Build 0)  -->
<svg version="1.1" id="Layer_1" xmlns="http://www.w3.org/2000/svg" xmlns:xlink="http://www.w3.org/1999/xlink" x="0px" y="0px"
	 viewBox="0 0 1850.1 233.7" style="enable-background:new 0 0 1850.1 233.7;" xml:space="preserve">
<style type="text/css">
	.st0{fill:#FFFFFF;}
</style>
<title>Logo Final</title>
<path class="st0" d="M203.5,40.6c-33.6-3.7-45.9-22.1-50.2-32.3c3.6-2.4,7.6-4.3,11.7-5.7c10.1-3.3,21-3.5,31.3-0.5
	c7.6,2.3,14.7,5.9,21,10.6c7.7,5.6,14.1,12.9,18.8,21.3c4.5,8.4,7.1,17.6,7.9,27c0,0.7,0.1,1.3,0.1,2
	C237.1,52.9,224.9,43,203.5,40.6z"/>
<path class="st0" d="M178.3,66.9C145.9,55.8,135,44.1,132,35.5l0,0c1.7-4.8,4.1-9.3,7-13.5c3.9-5.4,8.7-10,14.3-13.6
	c4.3,10.2,16.6,28.6,50.2,32.3c21.4,2.4,33.6,12.3,40.6,22.4c0.5,22-9,41.1-20.9,52.3c-1.2,1.2-2.5,2.2-3.8,3.2
	C223.1,109.4,228,83.9,178.3,66.9z"/>
<path class="st0" d="M132,35.5c3,8.6,13.9,20.3,46.3,31.4c49.7,17,44.8,42.5,41.1,51.7c-23,18.6-54.6,19.9-60.6,20.3
	c-0.7,0.1-1.1,0.1-1.1,0.1s14.8-9.5,26.7-28.4c0.6-0.8,1.1-1.7,1.5-2.7c-1,0-1.9-0.1-2.9-0.2c-1.3-0.2-2.6-0.4-3.9-0.6
	c-3.5-0.7-6.9-1.7-10.3-2.8c-6.9-2.2-13.4-5.6-19.2-9.9c-2.8-2.1-5.3-4.4-7.6-7c-4.1-4.5-7.8-9.6-10-15.3c-2.1-5.8-3.2-12-3.2-18.3
	C128.9,47.5,129.9,41.3,132,35.5z"/>
<path class="st0" d="M40.6,162.3c33.6,3.7,45.9,22.1,50.2,32.3c-3.6,2.4-7.6,4.3-11.7,5.7c-10.1,3.3-21,3.5-31.3,0.5
	c-7.6-2.3-14.7-5.9-21-10.6c-7.8-5.7-14.2-13-18.8-21.4c-4.5-8.4-7.1-17.6-7.9-27c0-0.7-0.1-1.3-0.1-2C7,150,19.2,159.9,40.6,162.3z
	"/>
<path class="st0" d="M65.9,136c32.4,11.1,43.3,22.8,46.3,31.4l0,0c-1.7,4.8-4.1,9.3-7,13.5c-3.9,5.4-8.7,10-14.3,13.6
	c-4.3-10.2-16.6-28.6-50.2-32.3C19.2,159.9,7,150,0,139.9c-0.5-22,9-41.1,20.9-52.3c1.2-1.2,2.5-2.2,3.8-3.2
	C21,93.5,16.2,119,65.9,136z"/>
<path class="st0" d="M112.1,167.4c-3-8.6-13.9-20.3-46.3-31.4C16.2,119,21,93.5,24.7,84.4c23-18.6,54.6-19.9,60.6-20.3
	C86,64,86.4,64,86.4,64s-14.8,9.5-26.7,28.4c-0.6,0.8-1.1,1.7-1.5,2.7c1,0,1.9,0.1,2.9,0.2c1.3,0.2,2.6,0.4,3.9,0.6
	c3.5,0.7,6.9,1.7,10.3,2.8c6.9,2.2,13.4,5.6,19.2,9.9c2.8,2.1,5.3,4.4,7.6,7c4.1,4.5,7.8,9.6,10,15.3c2.1,5.8,3.2,12,3.2,18.3
	C115.3,155.4,114.2,161.6,112.1,167.4z"/>
<path class="st0" d="M449.4,169c-5.7,4.2-12,7.4-18.7,9.5c-7.1,2.4-14.5,3.6-21.9,3.6c-12.5,0-23.6-2.5-33.2-7.4
	c-9.2-4.6-16.9-11.8-22.2-20.7c-5.2-8.9-7.8-19.5-7.8-31.8c0-12.4,2.8-23,8.5-31.8c5.5-8.7,13.2-15.8,22.3-20.6
	c9-4.8,19-7.3,29.2-7.3c8.7-0.2,17.3,1.2,25.5,3.9c6.9,2.3,13.3,5.9,18.8,10.6l-14.5,19.6C431.9,94,428,91.8,424,90
	c-5-2.1-10.3-3.2-15.7-3.1c-5.8,0-11.4,1.6-16.3,4.7s-9,7.4-11.8,12.5c-3,5.5-4.6,11.7-4.4,18c-0.1,6.2,1.5,12.3,4.6,17.7
	c3,5.3,7.3,9.7,12.5,12.8c5.6,3.2,12,4.8,18.4,4.7c8.2,0.2,16.3-2.5,22.8-7.5L449.4,169z"/>
<path class="st0" d="M457.2,121.1c-0.2-10.9,2.7-21.5,8.2-30.9c5.5-9.2,13.3-16.7,22.7-21.8c9.7-5.4,20.8-8.1,33.3-8.1
	s23.5,2.7,32.9,8.1c9.1,5.1,16.7,12.6,21.9,21.8c5.2,9.3,7.9,19.9,7.8,30.6c0.2,10.9-2.5,21.7-7.8,31.3
	c-5.1,9.2-12.7,16.8-21.9,21.9c-9.4,5.4-20.6,8.1-33.7,8.1c-12.2,0-23.1-2.5-32.6-7.4c-9.4-4.7-17.2-12.1-22.6-21.1
	C459.9,144.5,457.2,133.7,457.2,121.1z M487.6,121.4c-0.1,6.4,1.4,12.6,4.3,18.3c2.7,5.2,6.8,9.7,11.7,12.9c5,3.2,10.8,4.9,16.8,4.8
	c6.1,0.1,12.2-1.5,17.3-4.8c4.9-3.2,9-7.7,11.7-12.9c5.7-11.5,5.7-25,0-36.5c-2.7-5.2-6.8-9.7-11.7-12.9c-10.4-6.4-23.6-6.4-34,0
	c-5,3.2-9.1,7.7-11.8,13C489,108.9,487.5,115.1,487.6,121.4z"/>
<path class="st0" d="M671.3,182.1c-8,0-15.9-1.7-23.1-5.1c-6.9-3.1-12.9-7.9-17.5-14l1.6-9.1v79.8h-29.8V63.4H628l4.6,26.1l-3.2-7.8
	c6-6.2,13-11.3,20.7-15.2c8.3-4.1,17.6-6.2,26.9-6c10.1-0.2,20.1,2.4,28.9,7.5c8.5,5,15.5,12.4,20,21.2c4.8,9.1,7.3,20.1,7.3,32.8
	c0,12.5-2.7,23.3-8.1,32.2c-5.2,8.8-12.9,16-22,20.7C693.7,179.7,683.2,182.1,671.3,182.1z M665.4,158.2c6.5,0.1,12.9-1.5,18.5-4.6
	c11.4-6.2,18.4-18.2,18.3-31.2c0.1-6.6-1.5-13.2-4.7-18.9c-3-5.3-7.4-9.8-12.6-12.9c-5.3-3.1-11.4-4.8-17.6-4.7
	c-5.3-0.1-10.6,0.9-15.4,3c-4.5,1.9-8.5,4.8-11.8,8.5c-3.4,3.8-5.9,8.2-7.4,13v22.8c1,4.7,3.1,9.1,6.2,12.9
	c3.1,3.8,7.1,6.8,11.6,8.9C655.1,157.2,660.2,158.3,665.4,158.2z"/>
<path class="st0" d="M786.3,180L731,65.5h33.9l44.6,99.1L786.3,180z M757.3,233.7l75-168.2H860l-73.4,168.2H757.3z"/>
<path class="st0" d="M947.8,65.5l29.8,69.1l-5.6,0.5l27.1-69.6h29.6l-51.9,120.4l-36.5-76.8L907,185.9L854.6,65.5h29.3l32.2,72.8
	l-10.5-1.6l23.9-54.3L922,65.5H947.8z"/>
<path class="st0" d="M1066.8,65.5l3,32.2l-0.8-4.6c2.8-6.8,7.3-12.8,12.9-17.5c5.3-4.5,11.2-8.3,17.5-11.3c5.9-2.7,10.8-4,14.8-4
	l-1.9,30.1c-8.4-0.7-15.8,0.8-22.2,4.6c-6.2,3.6-11.3,8.9-14.8,15.2c-3.4,6.1-5.2,13-5.2,20v48.9h-29.8V65.5H1066.8z"/>
<path class="st0" d="M1130.3,24.4c0-4.4,1.9-8.6,5.4-11.3c3.2-2.9,7.5-4.5,11.8-4.6c4.3,0,8.5,1.6,11.7,4.6
	c3.4,2.9,5.3,7.1,5.2,11.6c0.1,4.4-1.9,8.5-5.2,11.3c-3.2,2.9-7.4,4.6-11.7,4.6c-4.4,0-8.6-1.6-11.8-4.6
	C1132.2,33.2,1130.2,28.9,1130.3,24.4z M1131.6,65.5h30.1v113.7h-30.1V65.5z"/>
<path class="st0" d="M1200.4,15.6h30.1v50h29.6V89h-29.6v90.3h-30.1V88.9h-19.6V65.5h19.6V15.6z"/>
<path class="st0" d="M1330.2,182.1c-13.1,0-24.4-2.6-34-7.8c-9.2-4.9-16.9-12.3-21.9-21.5c-5-9.1-7.5-19.6-7.5-31.4
	c-0.2-10.9,2.8-21.6,8.6-30.9c5.8-9.2,13.8-16.7,23.2-21.9c9.9-5.5,21.1-8.3,32.4-8.2c15.6,0,28.4,4.5,38.6,13.6
	c10.1,9,16.9,21.8,20.3,38.3l-91.6,30.9l-6.7-16.9l71.2-25.5l-5.9,3.8c-2-5.5-5.3-10.5-9.7-14.4c-4.5-4-10.7-6-18.5-6
	c-5.9-0.1-11.7,1.5-16.7,4.6c-4.9,3.1-8.8,7.4-11.4,12.5c-2.9,5.7-4.3,12-4.2,18.4c0,7.7,1.5,14.3,4.6,19.7
	c2.9,5.3,7.1,9.7,12.4,12.6c5.4,3,11.5,4.5,17.7,4.4c4.6,0,9.1-0.8,13.4-2.4c4.3-1.6,8.4-3.8,12.1-6.4l13.7,22.3
	c-6.1,3.8-12.6,6.9-19.5,9C1344.1,180.9,1337.1,182.1,1330.2,182.1z"/>
<path class="st0" d="M1432.8,65.5l3,32.2l-0.8-4.6c2.8-6.8,7.3-12.8,12.9-17.5c5.3-4.5,11.2-8.3,17.5-11.3c5.9-2.7,10.8-4,14.8-4
	l-1.9,30.1c-8.4-0.7-15.8,0.8-22.2,4.6c-6.2,3.6-11.3,8.9-14.8,15.2c-3.4,6.1-5.2,13-5.2,20v48.9h-29.8V65.5H1432.8z"/>
<path class="st0" d="M1566.3,182.1c-8,0-15.9-1.7-23.1-5.1c-6.9-3.1-12.9-7.9-17.5-14l1.6-9.1v79.8h-29.8V63.4h25.5l4.6,26.1
	l-3.2-7.8c6-6.2,13-11.3,20.7-15.2c8.3-4.1,17.6-6.2,26.9-6c10.1-0.2,20.1,2.4,28.9,7.5c8.5,5,15.5,12.4,20,21.2
	c4.8,9.1,7.3,20.1,7.3,32.8c0,12.5-2.7,23.3-8.1,32.2c-5.2,8.8-12.9,16-22,20.7C1588.7,179.7,1578.2,182.1,1566.3,182.1z
	 M1560.4,158.2c6.5,0.1,12.9-1.5,18.5-4.6c11.4-6.2,18.4-18.2,18.3-31.2c0.1-6.6-1.5-13.2-4.7-18.9c-3-5.3-7.4-9.8-12.6-12.9
	c-5.3-3.1-11.4-4.8-17.6-4.7c-5.3-0.1-10.6,0.9-15.4,3c-4.5,1.9-8.5,4.8-11.8,8.5c-3.4,3.8-5.9,8.2-7.4,13v22.8
	c1,4.7,3.1,9.1,6.2,12.9c3.1,3.8,7.1,6.8,11.6,8.9C1550.1,157.2,1555.2,158.3,1560.4,158.2z"/>
<path class="st0" d="M1673.3,65.5l3,32.2l-0.8-4.6c2.8-6.8,7.3-12.8,12.9-17.5c5.3-4.5,11.2-8.3,17.5-11.3c5.9-2.7,10.8-4,14.8-4
	l-1.9,30.1c-8.4-0.7-15.8,0.8-22.2,4.6c-6.2,3.6-11.3,8.9-14.8,15.2c-3.4,6.1-5.2,13-5.2,20v48.9h-29.8V65.5H1673.3z"/>
<path class="st0" d="M1723.2,121.1c-0.2-10.9,2.7-21.5,8.2-30.9c5.5-9.2,13.3-16.7,22.7-21.8c9.7-5.4,20.8-8.1,33.3-8.1
	s23.5,2.7,32.9,8.1c9.1,5.1,16.7,12.6,21.9,21.8c5.2,9.3,7.9,19.9,7.8,30.6c0.2,10.9-2.5,21.7-7.8,31.3
	c-5.1,9.2-12.7,16.8-21.9,21.9c-9.4,5.4-20.6,8.1-33.7,8.1c-12.2,0-23.1-2.5-32.6-7.4c-9.4-4.7-17.2-12.1-22.6-21.1
	C1726,144.5,1723.2,133.7,1723.2,121.1z M1753.6,121.4c-0.1,6.4,1.4,12.6,4.3,18.3c2.7,5.2,6.8,9.7,11.7,12.9
	c5,3.2,10.8,4.9,16.8,4.8c6.1,0.1,12.2-1.5,17.3-4.8c4.9-3.2,9-7.7,11.7-12.9c5.7-11.5,5.7-25,0-36.5c-2.7-5.2-6.8-9.7-11.7-12.9
	c-10.4-6.4-23.6-6.4-34,0c-5,3.2-9.1,7.7-11.8,13C1755,108.9,1753.5,115.1,1753.6,121.4z"/>
</svg>
