<svg width="46" height="46" viewBox="0 0 46 46" fill="none" xmlns="http://www.w3.org/2000/svg">
<path fill-rule="evenodd" clip-rule="evenodd" d="M22.5444 0.587891C34.0449 0.587891 45.6557 9.50297 45.2683 22.4298C44.881 35.3567 34.1712 45.1633 21.2082 45.1633C8.24742 45.1633 0.366068 31.329 0.715242 19.7553C1.05911 8.18163 11.0451 0.587891 22.5444 0.587891Z" fill="#00D48D"/>
<path fill-rule="evenodd" clip-rule="evenodd" d="M28.7808 21.3856C29.0924 21.4089 29.4055 21.3659 29.6993 21.2595C29.9931 21.153 30.261 20.9855 30.4853 20.7679C30.8907 20.3211 31.103 19.732 31.0754 19.1292C31.0918 18.822 31.046 18.5147 30.9408 18.2256C30.8356 17.9366 30.6731 17.6717 30.463 17.447C30.2403 17.2315 29.9754 17.0644 29.685 16.9563C29.3946 16.8482 29.0849 16.8013 28.7755 16.8187H26.4151V21.4121L28.7819 21.3856H28.7808ZM22.657 13.5902H28.9995C29.8887 13.5754 30.7732 13.7217 31.6103 14.0221C32.3108 14.2747 32.9507 14.6717 33.4888 15.1853C33.9866 15.6714 34.3697 16.2605 34.6149 16.911C34.8643 17.5839 34.9895 18.2971 34.9864 19.0146C35.0093 20.0457 34.7565 21.0643 34.254 21.965C33.7621 22.8087 33.0505 23.503 32.1951 23.9741L35.9914 30.9067H31.7355L28.5675 24.5419H26.4151V30.9067H22.6581V13.5891L22.657 13.5902ZM16.7741 23.5315C16.773 23.2625 16.7211 22.996 16.6213 22.7462C16.5184 22.471 16.3627 22.2186 16.1628 22.0032C15.9458 21.7734 15.6863 21.5878 15.3986 21.4567C15.0553 21.3019 14.682 21.2251 14.3055 21.2317C13.9188 21.2262 13.5353 21.3029 13.1805 21.4567C12.8802 21.5853 12.6074 21.7705 12.3771 22.0022C12.1691 22.2166 12.0035 22.4692 11.891 22.7451C11.7833 22.9936 11.7256 23.2608 11.7212 23.5315H16.7741ZM19.9973 29.5789C19.8604 29.666 19.6577 29.8082 19.385 30.0109C19.0528 30.243 18.6979 30.4407 18.3258 30.601C17.8228 30.8096 17.3039 30.9775 16.7741 31.103C16.1044 31.2577 15.4184 31.3311 14.7311 31.3216C13.7843 31.3378 12.843 31.1746 11.9568 30.8408C11.1819 30.5443 10.4769 30.0904 9.88616 29.5078C9.30456 28.9241 8.85884 28.2193 8.58074 27.4436C8.27154 26.5892 8.11945 25.686 8.1318 24.7775C8.13054 23.9419 8.2727 23.1123 8.55208 22.3248C8.82005 21.5637 9.23391 20.8622 9.77048 20.2595C10.3124 19.6606 10.9726 19.1807 11.7095 18.8501C12.5295 18.4797 13.4207 18.2935 14.3204 18.3046C15.2025 18.2945 16.0758 18.4809 16.8771 18.8501C17.5956 19.1874 18.2301 19.6804 18.7344 20.2935C19.2528 20.9398 19.6387 21.682 19.87 22.4777C20.1353 23.3915 20.2627 24.3392 20.2521 25.2902V25.9131H11.7084C11.7215 26.2453 11.8047 26.5709 11.9527 26.8685C12.1007 27.1662 12.3101 27.4291 12.5671 27.6399C13.2047 28.1783 14.0227 28.4551 14.8563 28.4147C15.6542 28.4465 16.4492 28.2993 17.1827 27.9838C17.6492 27.7736 18.0935 27.5176 18.5094 27.2196L19.9952 29.5789H19.9973Z" fill="white"/>
</svg>
