<svg width="25" height="37" viewBox="0 0 25 37" fill="none" xmlns="http://www.w3.org/2000/svg">
<path d="M6.12911 36.7771C7.75446 36.7764 9.31307 36.1305 10.4624 34.9812C11.6117 33.8319 12.2576 32.2733 12.2582 30.648V24.5181H6.12911C4.50376 24.5187 2.94516 25.1646 1.79586 26.3139C0.646562 27.4632 0.000619221 29.0218 0 30.6472C0.000619221 32.2725 0.646562 33.8311 1.79586 34.9804C2.94516 36.1297 4.50376 36.7757 6.12911 36.7763V36.7771Z" fill="#0ACF83"/>
<path d="M0 18.3881C0.000619221 16.7628 0.646562 15.2042 1.79586 14.0549C2.94516 12.9056 4.50376 12.2597 6.12911 12.259H12.2582V24.5173H6.12911C4.50389 24.5166 2.94541 23.8708 1.79613 22.7217C0.646859 21.5725 0.000825599 20.0141 0 18.3889L0 18.3881Z" fill="#A259FF"/>
<path d="M0 6.12911C0.000619221 4.50376 0.646562 2.94516 1.79586 1.79586C2.94516 0.646562 4.50376 0.000619221 6.12911 0L12.2582 0V12.2582H6.12911C4.50376 12.2576 2.94516 11.6117 1.79586 10.4624C0.646562 9.31307 0.000619221 7.75446 0 6.12911H0Z" fill="#F24E1E"/>
<path d="M12.2583 0H18.3882C20.0135 0.000619221 21.5721 0.646562 22.7214 1.79586C23.8707 2.94516 24.5167 4.50376 24.5173 6.12911C24.5167 7.75446 23.8707 9.31307 22.7214 10.4624C21.5721 11.6117 20.0135 12.2576 18.3882 12.2582H12.2591V0H12.2583Z" fill="#FF7262"/>
<path d="M24.518 18.3881C24.5174 20.0135 23.8715 21.5721 22.7222 22.7214C21.5729 23.8707 20.0143 24.5166 18.3889 24.5173C16.7634 24.5168 15.2046 23.871 14.0552 22.7217C12.9057 21.5724 12.2597 20.0136 12.259 18.3881C12.2597 16.7628 12.9056 15.2042 14.0549 14.0549C15.2042 12.9056 16.7628 12.2597 18.3881 12.259C20.0135 12.2597 21.5721 12.9056 22.7214 14.0549C23.8707 15.2042 24.5166 16.7628 24.5173 18.3881H24.518Z" fill="#1ABCFE"/>
</svg>
