<svg width="27" height="27" viewBox="0 0 27 27" fill="none" xmlns="http://www.w3.org/2000/svg">
<path d="M26.2184 13.3624C26.2184 12.2881 26.129 11.5029 25.936 10.6897H13.3762V15.5411H20.7486C20.5999 16.7466 19.7973 18.5618 18.0134 19.7823L17.9884 19.9447L21.9597 22.9503L22.2345 22.9772C24.7618 20.6973 26.2184 17.3419 26.2184 13.3624Z" fill="#4285F4"/>
<path d="M13.3767 26.1439C16.9882 26.1439 20.0201 24.9821 22.235 22.9771L18.0139 19.7822C16.8839 20.5517 15.368 21.0895 13.3767 21.0895C11.7 21.0911 10.0648 20.5682 8.70016 19.5941C7.33548 18.62 6.30966 17.2434 5.76636 15.6572L5.60958 15.6697L1.48086 18.7928L1.42651 18.9396C3.62579 23.2095 8.14428 26.1439 13.3767 26.1439Z" fill="#34A853"/>
<path d="M5.76647 15.6573C5.47436 14.8263 5.32362 13.9522 5.32049 13.0714C5.32049 12.1713 5.48414 11.3 5.75148 10.4867L5.74461 10.3125L1.56404 7.1394L1.42663 7.20311C0.491365 9.01799 0.00230074 11.0297 0 13.0714C0 15.177 0.520307 17.167 1.42725 18.9391L5.7671 15.6567L5.76647 15.6573Z" fill="#FBBC05"/>
<path d="M13.3761 5.05441C15.8883 5.05441 17.5829 6.11438 18.5485 7.00072L22.3237 3.39855C20.0051 1.29296 16.9882 0 13.3761 0C8.14428 0 3.62579 2.93383 1.42651 7.20434L5.75137 10.4867C6.83633 7.33489 9.83886 5.05441 13.3761 5.05441Z" fill="#EB4335"/>
</svg>
