<svg width="22" height="22" viewBox="0 0 22 22" fill="none" xmlns="http://www.w3.org/2000/svg">
<path d="M18.7456 18.7457H15.4859V13.6401C15.4859 12.4228 15.4639 10.8556 13.7903 10.8556C12.0927 10.8556 11.8329 12.1818 11.8329 13.5516V18.7447H8.57319V8.24751H11.7024V9.68223H11.7464C12.0596 9.14676 12.5121 8.70624 13.0557 8.40757C13.5994 8.10889 14.2139 7.96325 14.8338 7.98613C18.138 7.98613 18.7466 10.1594 18.7466 12.9864L18.7456 18.7457ZM4.895 6.81227C4.64661 6.81234 4.40063 6.76349 4.17112 6.6685C3.94161 6.5735 3.73306 6.43424 3.55737 6.25865C3.38168 6.08305 3.2423 5.87458 3.14718 5.64512C3.05206 5.41566 3.00307 5.16971 3.003 4.92132C3.00293 4.67293 3.05179 4.42696 3.14678 4.19745C3.24177 3.96794 3.38104 3.75938 3.55663 3.58369C3.73222 3.408 3.9407 3.26862 4.17016 3.1735C4.39961 3.07838 4.64556 3.02939 4.89395 3.02932C5.3956 3.02918 5.87676 3.22833 6.23158 3.58295C6.5864 3.93758 6.78581 4.41862 6.78595 4.92027C6.78609 5.42193 6.58694 5.90309 6.23232 6.2579C5.8777 6.61272 5.39665 6.81214 4.895 6.81227ZM6.52457 18.7457H3.26124V8.24751H6.52457V18.7457ZM20.371 0.0017034H1.62381C1.19827 -0.0031886 0.788201 0.161072 0.483716 0.458386C0.179232 0.7557 0.00524807 1.16174 0 1.58727L0 20.413C0.00511123 20.8387 0.179001 21.245 0.483469 21.5426C0.787938 21.8402 1.19808 22.0047 1.62381 22.0001H20.371C20.7973 22.0052 21.2082 21.8409 21.5136 21.5434C21.819 21.2458 21.9939 20.8393 22 20.413V1.5857C21.9939 1.15952 21.819 0.753162 21.5135 0.455876C21.2081 0.158589 20.7971 -0.00532416 20.371 0.000131975" fill="#0A66C2"/>
</svg>
