<svg width="37" height="37" viewBox="0 0 37 37" fill="none" xmlns="http://www.w3.org/2000/svg">
<path fill-rule="evenodd" clip-rule="evenodd" d="M13.7012 0.555664C11.7232 0.55715 10.1224 2.18878 10.1239 4.19934C10.1224 6.2099 11.7247 7.84153 13.7026 7.84301H17.2814V4.20082C17.2828 2.19027 15.6806 0.558636 13.7012 0.555664C13.7026 0.555664 13.7026 0.555664 13.7012 0.555664V0.555664ZM13.7012 10.2741H4.16077C2.18282 10.2756 0.580573 11.9072 0.582035 13.9178C0.579111 15.9283 2.18136 17.56 4.15931 17.5629H13.7012C15.6791 17.5615 17.2814 15.9298 17.2799 13.9193C17.2814 11.9072 15.6791 10.2756 13.7012 10.2741Z" fill="#36C5F0"/>
<path fill-rule="evenodd" clip-rule="evenodd" d="M36.3634 13.9178C36.3649 11.9072 34.7626 10.2756 32.7847 10.2741C30.8067 10.2756 29.2045 11.9072 29.2059 13.9178V17.5629H32.7847C34.7626 17.5615 36.3649 15.9298 36.3634 13.9178ZM26.8215 13.9178V4.19934C26.823 2.19027 25.2222 0.558636 23.2443 0.555664C21.2663 0.55715 19.6641 2.18878 19.6655 4.19934V13.9178C19.6626 15.9283 21.2649 17.56 23.2428 17.5629C25.2208 17.5615 26.823 15.9298 26.8215 13.9178Z" fill="#2EB67D"/>
<path fill-rule="evenodd" clip-rule="evenodd" d="M23.2428 36.9997C25.2208 36.9982 26.823 35.3666 26.8215 33.3561C26.823 31.3455 25.2208 29.7139 23.2428 29.7124H19.6641V33.3561C19.6626 35.3651 21.2648 36.9968 23.2428 36.9997ZM23.2428 27.2798H32.7846C34.7626 27.2783 36.3649 25.6467 36.3634 23.6361C36.3663 21.6256 34.7641 19.9939 32.7861 19.991H23.2443C21.2663 19.9925 19.6641 21.6241 19.6655 23.6346C19.6641 25.6467 21.2648 27.2783 23.2428 27.2798Z" fill="#ECB22E"/>
<path fill-rule="evenodd" clip-rule="evenodd" d="M0.582032 23.6363C0.58057 25.6469 2.18282 27.2785 4.16077 27.28C6.13873 27.2785 7.74097 25.6469 7.73951 23.6363V19.9927H4.16077C2.18282 19.9942 0.58057 21.6258 0.582032 23.6363ZM10.1239 23.6363V33.3548C10.121 35.3654 11.7232 36.997 13.7012 37C15.6791 36.9985 17.2814 35.3668 17.2799 33.3563V23.6393C17.2828 21.6288 15.6806 19.9971 13.7026 19.9942C11.7232 19.9942 10.1224 21.6258 10.1239 23.6363C10.1239 23.6363 10.1239 23.6378 10.1239 23.6363Z" fill="#E01E5A"/>
</svg>
