<svg width="28" height="29" viewBox="0 0 28 29" fill="none" xmlns="http://www.w3.org/2000/svg">
<path d="M27.0782 15.7445L15.7215 27.157C14.6855 28.1982 13.0049 28.1982 11.9689 27.157C10.9317 26.1159 10.9328 24.4271 11.9689 23.3859L23.3267 11.9723C24.3627 10.9311 26.0433 10.9311 27.0793 11.9723C28.1153 13.0145 28.1153 14.7022 27.0782 15.7445Z" fill="#FBBC04"/>
<path d="M15.6956 27.1216C16.733 26.0841 16.733 24.402 15.6955 23.3645C14.658 22.327 12.9758 22.327 11.9384 23.3646C10.9009 24.4021 10.9009 26.0842 11.9384 27.1217C12.9759 28.1592 14.6581 28.1592 15.6956 27.1216Z" fill="#34A853"/>
<path d="M17.6892 6.41478L12.0085 12.0945L15.762 15.848L21.4426 10.1683C22.4789 9.13203 22.4789 7.45106 21.4426 6.41478C20.4052 5.37737 18.7254 5.37737 17.6892 6.41478Z" fill="#FBBC04"/>
<path d="M10.0861 21.5243L15.7662 15.8442L12.0124 12.0903L6.33221 17.7705C5.29584 18.8068 5.29584 20.488 6.33221 21.5243C7.36857 22.5607 9.04969 22.5607 10.0861 21.5243Z" fill="#3B80EF"/>
<path d="M15.7942 15.8267C16.8317 14.7892 16.8317 13.1071 15.7941 12.0696C14.7566 11.0321 13.0745 11.0321 12.037 12.0696C10.9995 13.1072 10.9995 14.7893 12.0371 15.8268C13.0746 16.8643 14.7567 16.8642 15.7942 15.8267Z" fill="#34A853"/>
<path d="M15.8878 4.52975L4.52975 15.8878C3.4937 16.9238 1.81309 16.9238 0.77704 15.8878C-0.259013 14.8517 -0.259013 13.1711 0.77704 12.135L12.135 0.77704C13.1711 -0.259013 14.8517 -0.259013 15.8878 0.77704C16.9238 1.81309 16.9238 3.4937 15.8878 4.52975Z" fill="#3B80EF"/>
<path d="M14.0099 5.30986C15.4762 5.30986 16.6648 4.12121 16.6648 2.65493C16.6648 1.18865 15.4762 0 14.0099 0C12.5436 0 11.355 1.18865 11.355 2.65493C11.355 4.12121 12.5436 5.30986 14.0099 5.30986Z" fill="#34A853"/>
</svg>
