<svg width="37" height="39" viewBox="0 0 37 39" fill="none" xmlns="http://www.w3.org/2000/svg">
<path d="M28.5403 12.9679V8.4331C29.1399 8.15311 29.6476 7.70865 30.0046 7.1514C30.3615 6.59416 30.5529 5.94703 30.5565 5.28529V5.18122C30.5557 4.25444 30.1869 3.3659 29.5311 2.71102C28.8754 2.05613 27.9863 1.68851 27.0595 1.68902H26.9555C26.4964 1.68802 26.0416 1.77763 25.6172 1.95272C25.1928 2.12781 24.8071 2.38493 24.4822 2.70935C24.1574 3.03377 23.8997 3.4191 23.7241 3.84327C23.5484 4.26744 23.4582 4.72211 23.4585 5.18122V5.28529C23.4614 5.94708 23.6523 6.59442 24.0092 7.15178C24.366 7.70914 24.874 8.15353 25.4738 8.4331V12.9679C23.7493 13.2315 22.1249 13.9456 20.7649 15.0381L8.31084 5.35058C8.39933 5.03149 8.44671 4.70241 8.45182 4.37132C8.45375 3.59238 8.22419 2.83043 7.79226 2.18221C7.36034 1.53398 6.74554 1.02872 6.02591 0.730576C5.30641 0.431691 4.51452 0.352522 3.75009 0.503051C2.98566 0.65358 2.28291 1.02707 1.73044 1.57642C1.17824 2.12579 0.801592 2.82675 0.648254 3.59044C0.494915 4.35412 0.57179 5.14614 0.869131 5.86609C1.16647 6.58603 1.67089 7.20147 2.31843 7.63439C2.96598 8.06731 3.72748 8.2982 4.50641 8.2978C5.18787 8.29452 5.85658 8.11283 6.446 7.7708L18.7108 17.3003C17.609 18.9619 17.0341 20.9172 17.0611 22.9107C17.0881 24.9041 17.7158 26.8431 18.8622 28.4742L15.1325 32.2001C14.831 32.104 14.517 32.053 14.2006 32.0487C13.5612 32.0495 12.9364 32.2395 12.4049 32.5948C11.8733 32.95 11.4588 33.4547 11.2136 34.0451C10.969 34.6353 10.9051 35.285 11.0301 35.9115C11.155 36.5381 11.4633 37.1135 11.9156 37.5647C12.3678 38.0168 12.9438 38.3248 13.5709 38.4498C14.198 38.5748 14.848 38.5112 15.439 38.267C16.03 38.0229 16.5353 37.6091 16.8913 37.0779C17.2473 36.5468 17.438 35.9221 17.4392 35.2827C17.4352 34.9665 17.3842 34.6527 17.2878 34.3517L20.9778 30.6655C22.1814 31.5903 23.5804 32.2277 25.0681 32.5291C26.5557 32.8305 28.0926 32.7879 29.5612 32.4045C31.0298 32.021 32.3914 31.307 33.5419 30.3169C34.6924 29.3268 35.6013 28.0868 36.1993 26.6917C37.0989 24.5879 37.2439 22.2378 36.6098 20.0393C35.9756 17.8408 34.6013 15.929 32.7194 14.6275C31.4711 13.7629 30.0416 13.1953 28.5403 12.9679ZM27.0113 27.8829C25.9845 27.9111 24.973 27.6292 24.1089 27.0739C23.2447 26.5186 22.568 25.7158 22.1671 24.7701C21.9014 24.1423 21.7645 23.4675 21.7645 22.7857C21.7644 22.104 21.9012 21.4292 22.1668 20.8013C22.4324 20.1734 22.8214 19.6053 23.3106 19.1305C23.7998 18.6557 24.3794 18.284 25.0149 18.0374C25.6505 17.7895 26.3293 17.6715 27.0113 17.6901C28.3324 17.7363 29.5842 18.2928 30.5035 19.2427C31.4222 20.1921 31.9362 21.4613 31.9369 22.7824C31.9376 24.1036 31.425 25.3733 30.5073 26.3237C29.5888 27.2747 28.3373 27.8326 27.016 27.8801" fill="#FF7A59"/>
</svg>
