<svg width="30" height="24" viewBox="0 0 30 24" fill="none" xmlns="http://www.w3.org/2000/svg">
<path d="M10.0229 24C20.9661 24 26.9503 14.956 26.9503 7.11366C26.9503 6.85701 26.9452 6.60101 26.9336 6.34694C28.0975 5.50692 29.1023 4.46623 29.901 3.27366C28.8152 3.75393 27.6636 4.06882 26.4845 4.20784C27.7259 3.46729 28.6558 2.3007 29.101 0.925399C27.9327 1.61664 26.6551 2.10374 25.3232 2.3658C24.766 1.77264 24.093 1.3001 23.3459 0.977414C22.5988 0.654727 21.7934 0.488751 20.9796 0.489751C17.6945 0.489751 15.03 3.14791 15.03 6.42457C15.03 6.88974 15.0826 7.34271 15.184 7.77771C12.8199 7.6602 10.5068 7.04757 8.39446 5.97947C6.28213 4.91137 4.41763 3.41161 2.92165 1.57727C2.39308 2.48264 2.11494 3.51235 2.1158 4.56072C2.11535 5.53863 2.35691 6.50146 2.81892 7.36336C3.28093 8.22525 3.94905 8.95942 4.76369 9.50042C3.81905 9.47173 2.89503 9.21718 2.06896 8.75808L2.06832 8.83379C2.06832 11.7082 4.11888 14.1078 6.84184 14.6518C5.96536 14.8898 5.04616 14.9247 4.15417 14.7539C4.53566 15.9344 5.2764 16.9663 6.27291 17.7054C7.26942 18.4445 8.47191 18.8538 9.71237 18.8762C7.6034 20.5269 5.00121 21.4216 2.32303 21.4169C1.84311 21.4169 1.36897 21.3893 0.903809 21.3341C3.62555 23.0781 6.79102 24.0034 10.0235 24" fill="#1DA1F2"/>
</svg>
