<svg width="120" height="94" viewBox="0 0 120 94" fill="none" xmlns="http://www.w3.org/2000/svg">
<path d="M67.3684 53.2331C67.3684 24.4283 90.5326 1.15911 119.098 0.757167V18.0996C105.434 19.2574 93.7724 27.7646 88.1913 39.6811L87.6898 40.7519H88.8722H106.617C113.581 40.7519 119.248 46.2909 119.248 53.2331V79.8496C119.248 86.8028 113.57 92.4812 106.617 92.4812H80C73.0468 92.4812 67.3684 86.8028 67.3684 79.8496V53.2331ZM0.75188 53.2331C0.75188 24.4283 23.9161 1.15911 52.4812 0.757167V18.0996C38.8174 19.2574 27.1559 27.7646 21.5747 39.6811L21.0732 40.7519H22.2556H40C46.9532 40.7519 52.6316 46.4303 52.6316 53.3835V80C52.6316 86.7973 46.9587 92.4812 40 92.4812H13.3835C6.43029 92.4812 0.75188 86.8028 0.75188 79.8496V53.2331Z" stroke="#9CA3AF" stroke-width="1.50376"/>
</svg>
